<svg id="Grupo_135203" data-name="Grupo 135203" xmlns="http://www.w3.org/2000/svg" xmlns:xlink="http://www.w3.org/1999/xlink" width="258.406" height="258.406" viewBox="0 0 258.406 258.406">
  <defs>
    <linearGradient id="linear-gradient" x1="-0.085" y1="0.5" x2="1.065" y2="0.5" gradientUnits="objectBoundingBox">
      <stop offset="0" stop-color="#f57e53"/>
      <stop offset="0.005" stop-color="#f58152"/>
      <stop offset="0.042" stop-color="#f8994d"/>
      <stop offset="0.084" stop-color="#fbac49"/>
      <stop offset="0.133" stop-color="#fdb946"/>
      <stop offset="0.196" stop-color="#fec144"/>
      <stop offset="0.318" stop-color="#ffc444"/>
      <stop offset="0.455" stop-color="#fdb946"/>
      <stop offset="0.694" stop-color="#f99c4c"/>
      <stop offset="0.996" stop-color="#f36f56"/>
    </linearGradient>
    <linearGradient id="linear-gradient-2" x1="0.495" y1="0.179" x2="0.556" y2="4.091" gradientUnits="objectBoundingBox">
      <stop offset="0" stop-color="#ffdb44"/>
      <stop offset="1" stop-color="#feef06"/>
    </linearGradient>
    <linearGradient id="linear-gradient-3" x1="0.492" y1="-0.777" x2="0.511" y2="1.295" xlink:href="#linear-gradient-2"/>
    <linearGradient id="linear-gradient-4" x1="-143.47" y1="-89.061" x2="-143.452" y2="-86.629" gradientUnits="objectBoundingBox">
      <stop offset="0.004" stop-color="#f36f56"/>
      <stop offset="0.306" stop-color="#f99c4c"/>
      <stop offset="0.545" stop-color="#fdb946"/>
      <stop offset="0.682" stop-color="#ffc444"/>
      <stop offset="0.804" stop-color="#fec144"/>
      <stop offset="0.867" stop-color="#fdb946"/>
      <stop offset="0.916" stop-color="#fbac49"/>
      <stop offset="0.958" stop-color="#f8994d"/>
      <stop offset="0.995" stop-color="#f58152"/>
      <stop offset="1" stop-color="#f57e53"/>
    </linearGradient>
    <linearGradient id="linear-gradient-5" x1="-0.085" y1="0.5" x2="1.065" y2="0.5" xlink:href="#linear-gradient"/>
    <linearGradient id="linear-gradient-7" x1="0.492" y1="-0.777" x2="0.511" y2="1.295" xlink:href="#linear-gradient-2"/>
    <linearGradient id="linear-gradient-8" x1="-143.189" y1="-85.415" x2="-143.17" y2="-82.983" xlink:href="#linear-gradient-4"/>
    <linearGradient id="linear-gradient-11" x1="0.492" y1="-0.777" x2="0.511" y2="1.295" xlink:href="#linear-gradient-2"/>
    <linearGradient id="linear-gradient-12" x1="-143.432" y1="-81.78" x2="-143.413" y2="-79.348" xlink:href="#linear-gradient-4"/>
    <linearGradient id="linear-gradient-14" x1="0.495" y1="0.179" x2="0.556" y2="4.091" xlink:href="#linear-gradient-2"/>
    <linearGradient id="linear-gradient-15" x1="0.492" y1="-0.777" x2="0.511" y2="1.296" xlink:href="#linear-gradient-2"/>
    <linearGradient id="linear-gradient-16" x1="-143.579" y1="-78.134" x2="-143.561" y2="-75.702" xlink:href="#linear-gradient-4"/>
    <linearGradient id="linear-gradient-19" x1="0.492" y1="-0.777" x2="0.511" y2="1.296" xlink:href="#linear-gradient-2"/>
    <linearGradient id="linear-gradient-20" x1="-143.47" y1="-74.2" x2="-143.452" y2="-71.768" xlink:href="#linear-gradient-4"/>
    <linearGradient id="linear-gradient-23" x1="0.492" y1="-0.777" x2="0.511" y2="1.296" xlink:href="#linear-gradient-2"/>
    <linearGradient id="linear-gradient-24" x1="-143.189" y1="-70.554" x2="-143.17" y2="-68.122" xlink:href="#linear-gradient-4"/>
    <linearGradient id="linear-gradient-28" x1="-143.432" y1="-66.918" x2="-143.413" y2="-64.487" xlink:href="#linear-gradient-4"/>
    <linearGradient id="linear-gradient-32" x1="-143.305" y1="-63.272" x2="-143.286" y2="-60.841" xlink:href="#linear-gradient-4"/>
    <linearGradient id="linear-gradient-33" x1="-37.08" y1="-60.792" x2="-35.375" y2="-60.792" xlink:href="#linear-gradient"/>
    <linearGradient id="linear-gradient-34" x1="-41.63" y1="-65.592" x2="-41.527" y2="-64.972" xlink:href="#linear-gradient-2"/>
    <linearGradient id="linear-gradient-35" x1="-41.563" y1="-65.503" x2="-41.532" y2="-65.313" xlink:href="#linear-gradient-2"/>
    <linearGradient id="linear-gradient-36" x1="-207.209" y1="61.338" x2="-207.177" y2="61.531" xlink:href="#linear-gradient-4"/>
    <linearGradient id="linear-gradient-37" x1="-202.628" y1="-244.926" x2="-201.487" y2="-244.926" gradientUnits="objectBoundingBox">
      <stop offset="0" stop-color="#40447e"/>
      <stop offset="0.996" stop-color="#3c3b6b"/>
    </linearGradient>
    <linearGradient id="linear-gradient-38" x1="118.74" y1="-427.809" x2="153.126" y2="-401.197" gradientUnits="objectBoundingBox">
      <stop offset="0" stop-color="#ffc444"/>
      <stop offset="0.996" stop-color="#f36f56"/>
    </linearGradient>
    <linearGradient id="linear-gradient-39" x1="4.345" y1="-29.877" x2="5.613" y2="-28.865" gradientUnits="objectBoundingBox">
      <stop offset="0" stop-color="#311944"/>
      <stop offset="1" stop-color="#a03976"/>
    </linearGradient>
    <linearGradient id="linear-gradient-40" x1="-206.966" y1="0.5" x2="-205.966" y2="0.5" xlink:href="#linear-gradient-39"/>
    <linearGradient id="linear-gradient-41" x1="12.165" y1="-88.437" x2="15.659" y2="-89.403" gradientUnits="objectBoundingBox">
      <stop offset="0" stop-color="#311944"/>
      <stop offset="1" stop-color="#893976"/>
    </linearGradient>
    <linearGradient id="linear-gradient-42" x1="20.82" y1="-35.752" x2="19.512" y2="-37.083" gradientUnits="objectBoundingBox">
      <stop offset="0" stop-color="#aa80f9"/>
      <stop offset="0.996" stop-color="#6165d7"/>
    </linearGradient>
    <linearGradient id="linear-gradient-43" x1="6.931" y1="-28.506" x2="7.429" y2="-27.747" xlink:href="#linear-gradient-42"/>
    <linearGradient id="linear-gradient-44" x1="8.375" y1="-32.109" x2="8.149" y2="-32.93" xlink:href="#linear-gradient-42"/>
    <linearGradient id="linear-gradient-45" x1="24.074" y1="-267.408" x2="27.434" y2="-269.579" xlink:href="#linear-gradient-38"/>
    <linearGradient id="linear-gradient-46" x1="-461.886" y1="1.357" x2="-462.475" y2="0.3" xlink:href="#linear-gradient-42"/>
    <linearGradient id="linear-gradient-47" x1="63.262" y1="-142.901" x2="63.385" y2="-144.508" xlink:href="#linear-gradient-38"/>
    <linearGradient id="linear-gradient-48" x1="-1077.504" y1="-136.878" x2="-1078.311" y2="-138.705" gradientUnits="objectBoundingBox">
      <stop offset="0" stop-color="#311944"/>
      <stop offset="1" stop-color="#6b3976"/>
    </linearGradient>
    <linearGradient id="linear-gradient-49" x1="35.458" y1="-181.621" x2="35.422" y2="-178.452" xlink:href="#linear-gradient-38"/>
    <linearGradient id="linear-gradient-50" x1="9.088" y1="-58.034" x2="9.945" y2="-58.034" xlink:href="#linear-gradient-37"/>
    <linearGradient id="linear-gradient-51" x1="-45.398" y1="89.593" x2="-44.405" y2="89.593" xlink:href="#linear-gradient-37"/>
    <linearGradient id="linear-gradient-52" x1="132.675" y1="-553.349" x2="195.859" y2="-494.124" xlink:href="#linear-gradient-38"/>
    <linearGradient id="linear-gradient-53" x1="18.697" y1="-140.308" x2="23.533" y2="-140.962" xlink:href="#linear-gradient-39"/>
    <linearGradient id="linear-gradient-54" x1="-210.998" y1="-3.05" x2="-211.252" y2="1.224" xlink:href="#linear-gradient-39"/>
    <linearGradient id="linear-gradient-55" x1="7.345" y1="-194.698" x2="8.548" y2="-196.167" gradientUnits="objectBoundingBox">
      <stop offset="0" stop-color="#ff9085"/>
      <stop offset="1" stop-color="#fb6fbb"/>
    </linearGradient>
    <linearGradient id="linear-gradient-56" x1="0.357" y1="0.094" x2="0.787" y2="1.41" gradientUnits="objectBoundingBox">
      <stop offset="0" stop-color="#444b8c"/>
      <stop offset="0.996" stop-color="#26264f"/>
    </linearGradient>
    <linearGradient id="linear-gradient-57" x1="0.361" y1="0.093" x2="0.789" y2="1.427" xlink:href="#linear-gradient-42"/>
    <linearGradient id="linear-gradient-58" y1="0.5" x2="1" y2="0.5" gradientUnits="objectBoundingBox">
      <stop offset="0" stop-color="#fff"/>
      <stop offset="0.996" stop-color="#ebeff2"/>
    </linearGradient>
  </defs>
  <path id="Trazado_192906" data-name="Trazado 192906" d="M244.39,113.907c-6.526-42-33.282-93.595-86.141-98.995,0,0-40.133-4.8-79.7,2.475-23.48,4.317-44.069,17.169-57.1,35.64a76.237,76.237,0,0,0-12.1,62.467c3.43,13.947,5.748,28.381,5.112,42.712-.8,18.074-2.313,37.077,5.813,53.932,11.907,24.694,40.958,31.968,66.308,34.288,9.341.855,18.717,1.2,28.067,1.927,17.936,1.394,38.05-.862,55.337-5.454C258.094,219.5,250.916,155.9,244.39,113.907Z" fill="#e5e1f1"/>
  <path id="Trazado_139920" data-name="Trazado 139920" d="M125.21,151.576a2.021,2.021,0,0,0-.038.233,1.5,1.5,0,0,0,1.842,1.69,2.764,2.764,0,0,0,2.266-2.291,51.694,51.694,0,0,1,2.7-11.527,61.329,61.329,0,0,1,5.3-11.235l.4-.678.425-.668c.281-.446.575-.885.872-1.323q.882-1.315,1.846-2.578c.316-.424.653-.833.977-1.249s.674-.814,1.009-1.22c.351-.4.689-.8,1.051-1.183s.713-.774,1.084-1.144.731-.748,1.111-1.105c.189-.18.374-.362.566-.537l.576-.52c.379-.353.78-.672,1.167-1.009.4-.321.792-.642,1.192-.95s.8-.612,1.214-.889c.2-.141.406-.287.611-.425l.616-.4c.1-.066.2-.135.31-.2l.322-.19.642-.379c.437-.236.866-.482,1.306-.705a47.908,47.908,0,0,1,10.987-3.958c3.8-.91,7.689-1.512,11.731-2.13,2.022-.311,4.081-.614,6.2-.974,1.056-.174,2.131-.376,3.215-.585.547-.112,1.09-.217,1.644-.339l1.613-.353c4.129-.914,8.389-1.912,12.781-3.216a92.672,92.672,0,0,0,13.613-5.146,65.685,65.685,0,0,0,7.093-3.928,56.849,56.849,0,0,0,7.033-5.29c1.14-1.009,2.254-2.083,3.326-3.214.538-.565,1.06-1.148,1.577-1.741.255-.3.5-.584.76-.9s.513-.631.759-.952a46.138,46.138,0,0,0,5.064-8.106c.343-.705.67-1.412.971-2.127.162-.377.274-.665.408-.984l.383-.942c.253-.63.486-1.27.714-1.912s.433-1.294.646-1.943a48.642,48.642,0,0,0,1.788-8,40.975,40.975,0,0,0,.314-8.051,37.779,37.779,0,0,0-7.528-20.5,48.244,48.244,0,0,0-9.406-9.5,58.016,58.016,0,0,0-5.473-3.74c-.959-.576-1.941-1.128-2.97-1.662-.517-.266-1.042-.53-1.6-.792-.279-.131-.562-.261-.869-.394l-.482-.2-.273-.108-.168-.062-.252-.085c-8.417-2.376-19.041,3.066-23.726,12.154s-1.659,18.38,6.759,20.756l-.087-.036c-.02-.01-.007-.01-.007-.01l.006-.005c0-.007.035-.005.054-.007a1.669,1.669,0,0,1,.173.008c.127.008.277.029.426.049.3.042.626.1.952.161.656.131,1.33.286,2,.463a34.761,34.761,0,0,1,3.934,1.287,29.512,29.512,0,0,1,6.809,3.687,18.468,18.468,0,0,1,4.679,4.942,13.513,13.513,0,0,1,1.4,2.934,14.884,14.884,0,0,1,.72,3.337,19.023,19.023,0,0,1,0,3.81c-.044.341-.072.68-.121,1.029s-.1.7-.169,1.056l-.2,1.037c-.045.271-.108.547-.17.82a15,15,0,0,1-1.217,3.253c-.066.133-.138.265-.208.4l-.245.425c-.169.285-.344.57-.534.853-.376.567-.789,1.134-1.247,1.7a34.689,34.689,0,0,1-7.406,6.584q-1.133.786-2.348,1.523t-2.494,1.445c-1.7.94-3.479,1.838-5.308,2.7-3.658,1.724-7.511,3.291-11.491,4.846l-1.428.555c-.461.18-.932.351-1.4.528-.947.343-1.9.683-2.88,1.012-1.948.662-3.953,1.3-5.994,1.941-4.082,1.29-8.33,2.623-12.636,4.364a63.325,63.325,0,0,0-12.743,6.751c-.509.351-1.006.728-1.505,1.093-.492.386-.978.754-1.468,1.155l-.732.6c-.24.2-.474.41-.71.614-.476.4-.925.835-1.378,1.255a53.965,53.965,0,0,0-4.9,5.373,72.339,72.339,0,0,0-7.485,11.6,90.375,90.375,0,0,0-5.2,12.057,111.66,111.66,0,0,0-3.449,12.213Z" fill="#fdb74d"/>
  <g id="Grupo_135203-2" data-name="Grupo 135203">
    <circle id="Elipse_5247" data-name="Elipse 5247" cx="28.38" cy="28.38" r="28.38" transform="translate(7.51 4.624)" fill="#5038a1" opacity="0.7" style="isolation: isolate"/>
    <g id="Elipse_5249" data-name="Elipse 5249">
      <circle id="Elipse_5947" data-name="Elipse 5947" cx="10.694" cy="10.694" r="10.694" transform="translate(19.915 29.999)" fill="none"/>
      <circle id="Elipse_5948" data-name="Elipse 5948" cx="9.46" cy="9.46" r="9.46" transform="translate(21.149 31.233)" fill="none" stroke="#fff" stroke-width="2.468"/>
    </g>
    <g id="Elipse_5250" data-name="Elipse 5250">
      <circle id="Elipse_5949" data-name="Elipse 5949" cx="5.758" cy="5.758" r="5.758" transform="translate(94.561 71.341)" fill="#fdb74d"/>
      <circle id="Elipse_5950" data-name="Elipse 5950" cx="4.524" cy="4.524" r="4.524" transform="translate(95.795 72.575)" fill="#fdb74d" stroke="#8c6df2" stroke-width="2.468"/>
    </g>
    <circle id="Elipse_5251" data-name="Elipse 5251" cx="3.702" cy="3.702" r="3.702" transform="translate(68.222 36.97)" fill="#fdb74d"/>
  </g>
  <circle id="Elipse_5951" data-name="Elipse 5951" cx="52.805" cy="52.805" r="52.805" transform="translate(148.829 147.105)" fill="#fdb74d" opacity="0.5"/>
  <g id="Elipse_4972" data-name="Elipse 4972">
    <circle id="Elipse_5952" data-name="Elipse 5952" cx="48.764" cy="48.764" r="48.764" transform="translate(152.871 151.147)" fill="none"/>
    <circle id="Elipse_5953" data-name="Elipse 5953" cx="46.163" cy="46.163" r="46.163" transform="translate(155.472 153.747)" fill="none" stroke="#fff" stroke-linecap="round" stroke-width="5.201" stroke-dasharray="3.901 10.403"/>
  </g>
  <g id="Grupo_135217" data-name="Grupo 135217">
    <g id="Grupo_135205" data-name="Grupo 135205">
      <g id="Grupo_135204" data-name="Grupo 135204">
        <path id="Trazado_192907" data-name="Trazado 192907" d="M183.373,60.075v172.42l-27.861,1.484L53.984,239.385V56.759Z" fill="#d8dee8"/>
        <path id="Trazado_192908" data-name="Trazado 192908" d="M155.554,233.979l-101.57,5.406V62.534c9.1,7.17,17.169,17.026,18.725,30.07,3.981,33.388-9.174,94.178,38.921,98.762C145.923,194.633,159.2,215.722,155.554,233.979Z" fill="#d8dee8" opacity="0.3" style="mix-blend-mode: multiply;isolation: isolate"/>
      </g>
      <path id="Trazado_192909" data-name="Trazado 192909" d="M193.781,50.568V222.181l-10.36.5-27.537,1.343-72.671,3.541-17.6-27.445c0-.005.045-.008.045-.008V46.707Z" fill="#fff"/>
      <path id="Trazado_192910" data-name="Trazado 192910" d="M65.541,200.113s9.907,11.55,34.279,15.062L83.2,227.567Z" fill="#d8dee8"/>
    </g>
    <g id="Grupo_135214" data-name="Grupo 135214">
      <path id="Trazado_192911" data-name="Trazado 192911" d="M112.565,106.7l-36.4-.154v-4.2l36.4.222Z" fill="#d8dee8"/>
      <g id="Grupo_135207" data-name="Grupo 135207">
        <g id="Grupo_135206" data-name="Grupo 135206">
          <path id="Trazado_192912" data-name="Trazado 192912" d="M93.481,113.247l-14.6-.017v16.3l5.1-.03,2.545-.015,9.4-.055V113.25Zm.091,13.988-5.213.027-6.683.032-.74,0V115.451l11.075.141h1.561Z" fill="#d8dee8"/>
        </g>
        <path id="Trazado_192913" data-name="Trazado 192913" d="M186.217,117.6l-83.036.057v-4.4l83.036.1Z" fill="#d8dee8"/>
        <path id="Trazado_192914" data-name="Trazado 192914" d="M186.217,124.426l-83.036.317v-4.154l83.036-.165Z" fill="#d8dee8"/>
      </g>
      <g id="Grupo_135209" data-name="Grupo 135209">
        <g id="Grupo_135208" data-name="Grupo 135208">
          <path id="Trazado_192915" data-name="Trazado 192915" d="M92.4,137.306l-13.523.127v16.3l17.044-.279v-16.18Zm1.17,13.98-6.292.1-4.04.061-2.3.036V139.634l10-.1,2.639-.027Z" fill="#d8dee8"/>
        </g>
        <path id="Trazado_192916" data-name="Trazado 192916" d="M186.217,140.67l-83.036.936v-4.4l83.036-.775Z" fill="#d8dee8"/>
        <path id="Trazado_192917" data-name="Trazado 192917" d="M186.217,147.5l-83.036,1.2v-4.154l83.036-1.044Z" fill="#d8dee8"/>
      </g>
      <g id="Grupo_135211" data-name="Grupo 135211">
        <g id="Grupo_135210" data-name="Grupo 135210">
          <path id="Trazado_192918" data-name="Trazado 192918" d="M78.879,161.639v16.3l6.08-.164,10.964-.294V161.3ZM93.572,175.58l-9.853.258-2.783.071V163.816l12.636-.261Z" fill="#d8dee8"/>
        </g>
        <path id="Trazado_192919" data-name="Trazado 192919" d="M186.217,163.74l-83.036,1.814v-4.4l83.036-1.653Z" fill="#d8dee8"/>
        <path id="Trazado_192920" data-name="Trazado 192920" d="M186.217,170.567l-83.036,2.074v-4.154l83.036-1.922Z" fill="#d8dee8"/>
      </g>
      <g id="Grupo_135213" data-name="Grupo 135213">
        <g id="Grupo_135212" data-name="Grupo 135212">
          <path id="Trazado_192921" data-name="Trazado 192921" d="M93.114,185.407l-14.235.434v16.3l17.044-.64V185.321Zm.458,14.22-12.636.461V188l12.636-.4Z" fill="#d8dee8"/>
        </g>
        <path id="Trazado_192922" data-name="Trazado 192922" d="M186.217,186.81,103.18,189.5v-4.4l83.036-2.532Z" fill="#d8dee8"/>
        <path id="Trazado_192923" data-name="Trazado 192923" d="M186.217,193.637,103.18,196.59v-4.154l83.036-2.8Z" fill="#d8dee8"/>
      </g>
    </g>
    <g id="Grupo_135215" data-name="Grupo 135215">
      <path id="Trazado_192924" data-name="Trazado 192924" d="M85.335,129.942a2.062,2.062,0,0,1-1.428-.555l-5.629-5.326a1.86,1.86,0,0,1,0-2.728,2.1,2.1,0,0,1,2.869-.007l3.908,3.706,9.02-12.414a2.056,2.056,0,0,1,2.785-.476,1.864,1.864,0,0,1,.5,2.663l-10.369,14.3a2.052,2.052,0,0,1-1.478.827Q85.425,129.942,85.335,129.942Z" fill="#97a6b7"/>
    </g>
    <g id="Grupo_135216" data-name="Grupo 135216">
      <path id="Trazado_192925" data-name="Trazado 192925" d="M85.335,152.593a2.037,2.037,0,0,1-1.428-.541l-5.629-5.27a1.86,1.86,0,0,1,0-2.728,2.1,2.1,0,0,1,2.869-.035l3.908,3.667,9.02-12.5a2.064,2.064,0,0,1,2.785-.5,1.856,1.856,0,0,1,.5,2.658l-10.369,14.4a2.082,2.082,0,0,1-1.478.842C85.455,152.589,85.395,152.592,85.335,152.593Z" fill="#97a6b7"/>
    </g>
    <text id="IMPUESTOS" transform="translate(129.407 75.153) rotate(0.876)" fill="#d8dee8" font-size="19" font-family="SegoeUI, Segoe UI"><tspan x="-49.504" y="0">IMPUESTOS</tspan></text>
    <path id="Trazado_192926" data-name="Trazado 192926" d="M171.145,87.521,135.6,86.849V82.754l35.546.737Z" fill="#d8dee8"/>
    <path id="Trazado_192927" data-name="Trazado 192927" d="M186.217,94.87l-50.618-.8V89.739l50.618.894Z" fill="#d8dee8"/>
    <path id="Trazado_192928" data-name="Trazado 192928" d="M186.217,101.7l-50.618-.639V96.964l50.618.732Z" fill="#d8dee8"/>
  </g>
  <g id="Grupo_135236" data-name="Grupo 135236">
    <g id="Grupo_135219" data-name="Grupo 135219">
      <path id="Trazado_192929" data-name="Trazado 192929" d="M36.561,235.33v7.8c0,2.522,15.751,4.565,35.181,4.565s35.18-2.043,35.18-4.565v-7.8Z" fill="url(#linear-gradient)"/>
      <ellipse id="Elipse_5954" data-name="Elipse 5954" cx="35.18" cy="4.565" rx="35.18" ry="4.565" transform="translate(36.561 230.764)" fill="url(#linear-gradient-2)"/>
      <path id="Trazado_192930" data-name="Trazado 192930" d="M71.741,240.21c-17.207,0-35.2-1.643-35.2-4.814,0-.174.062-.48.236-.48s.1.24.1.414c0,2.01,14.319,4.25,34.865,4.25s34.866-2.24,34.866-4.25c0-.174.029-.337.2-.337s.132.232.132.406C106.943,238.569,88.949,240.21,71.741,240.21Z" fill="url(#linear-gradient-3)"/>
      <g id="Grupo_135218" data-name="Grupo 135218">
        <path id="Trazado_192931" data-name="Trazado 192931" d="M68.417,235.584q.518-.358,1.106-.707a6.994,6.994,0,0,1,1.511-.63,14.47,14.47,0,0,1,2.319-.459,29.543,29.543,0,0,1,3.474-.187q2.04-.011,3.829.129a26.123,26.123,0,0,1,3.149.417,9.732,9.732,0,0,1,2.21.686,1.754,1.754,0,0,1,1.011.937l3.961.04a3.925,3.925,0,0,1,.759.07c.222.045.329.1.329.171l0,.327-5.093-.049a2.567,2.567,0,0,1-1.365,1.1,13.906,13.906,0,0,1-2.792.861l-1.855-.258a2.086,2.086,0,0,1-.41-.1c-.107-.039-.158-.081-.159-.127,0-.063.143-.134.43-.215s.611-.18.972-.3a9.676,9.676,0,0,0,1.062-.42,1.441,1.441,0,0,0,.7-.579l-12.02-.119a11.566,11.566,0,0,1-1.062.685,6.922,6.922,0,0,1-1.559.605,16.227,16.227,0,0,1-2.419.437,34.035,34.035,0,0,1-3.647.179c-1.1,0-2.174-.037-3.225-.125a22.082,22.082,0,0,1-2.8-.4,8.712,8.712,0,0,1-2.008-.658q-.781-.392-.874-.9l-3.261-.033a4.233,4.233,0,0,1-.77-.068c-.225-.044-.34-.1-.34-.174l0-.326,4.459.043a2.387,2.387,0,0,1,1.219-.9,13.929,13.929,0,0,1,2.262-.681l1.494.205c.453.064.678.138.679.224,0,.046-.092.1-.279.172s-.412.15-.67.245a6.035,6.035,0,0,0-.742.335,1.584,1.584,0,0,0-.544.435Zm-11,.445a1.179,1.179,0,0,0,.592.553,4.738,4.738,0,0,0,1.133.382,11.631,11.631,0,0,0,1.527.22q.851.07,1.78.066a18.548,18.548,0,0,0,1.89-.094,10.938,10.938,0,0,0,1.413-.239,6.62,6.62,0,0,0,1.063-.351,6,6,0,0,0,.813-.434Zm26.167-.292a1.223,1.223,0,0,0-.647-.57,5.852,5.852,0,0,0-1.3-.411,14.437,14.437,0,0,0-1.847-.248q-1.052-.081-2.322-.075a17.744,17.744,0,0,0-1.945.1,10.017,10.017,0,0,0-1.414.257,5.144,5.144,0,0,0-1.015.375,7.266,7.266,0,0,0-.779.459Z" fill="#fcb048"/>
      </g>
      <path id="Trazado_192932" data-name="Trazado 192932" d="M71.746,231.259c-15.686,0-32.019,1.38-34.631,4.052a3.113,3.113,0,0,1,.285.3c2.2-1.856,15.689-3.724,34.346-3.724,19.137,0,32.84,1.966,34.5,3.867a2.964,2.964,0,0,1,.263-.3C104.351,232.69,87.711,231.259,71.746,231.259Z" fill="url(#linear-gradient-4)"/>
    </g>
    <g id="Grupo_135221" data-name="Grupo 135221">
      <path id="Trazado_192933" data-name="Trazado 192933" d="M26.781,227.134v7.8c0,2.521,15.751,4.565,35.181,4.565s35.18-2.044,35.18-4.565v-7.8Z" fill="url(#linear-gradient-5)"/>
      <path id="Trazado_192934" data-name="Trazado 192934" d="M97.142,227.134c0,2.521-15.751,4.565-35.18,4.565s-35.181-2.044-35.181-4.565,15.751-4.566,35.181-4.566S97.142,224.612,97.142,227.134Z" fill="url(#linear-gradient-2)"/>
      <path id="Trazado_192935" data-name="Trazado 192935" d="M61.962,232.014c-17.208,0-35.2-1.644-35.2-4.814,0-.174.062-.48.236-.48s.1.239.1.414c0,2.01,14.319,4.25,34.866,4.25s34.865-2.24,34.865-4.25c0-.175.03-.338.2-.338s.132.233.132.407C97.163,230.373,79.169,232.014,61.962,232.014Z" fill="url(#linear-gradient-7)"/>
      <g id="Grupo_135220" data-name="Grupo 135220">
        <path id="Trazado_192936" data-name="Trazado 192936" d="M58.637,227.388q.517-.358,1.106-.707a6.9,6.9,0,0,1,1.511-.63,14.469,14.469,0,0,1,2.319-.459,29.326,29.326,0,0,1,3.474-.187q2.04-.011,3.829.129a26.1,26.1,0,0,1,3.149.417,9.716,9.716,0,0,1,2.21.686,1.755,1.755,0,0,1,1.011.936l3.961.041a3.859,3.859,0,0,1,.76.07c.221.045.328.1.328.171l0,.326-5.093-.049a2.558,2.558,0,0,1-1.365,1.1,13.836,13.836,0,0,1-2.792.862l-1.855-.258a2.147,2.147,0,0,1-.409-.1c-.108-.039-.159-.081-.16-.127q0-.095.43-.215c.288-.081.611-.18.972-.3a9.977,9.977,0,0,0,1.063-.42,1.454,1.454,0,0,0,.7-.579l-12.02-.119a11.363,11.363,0,0,1-1.062.684,6.853,6.853,0,0,1-1.559.606,16.227,16.227,0,0,1-2.419.437,34.3,34.3,0,0,1-3.647.179q-1.651.007-3.224-.125a22.073,22.073,0,0,1-2.8-.4,8.761,8.761,0,0,1-2.008-.658q-.781-.392-.874-.9l-3.261-.033a4.323,4.323,0,0,1-.77-.068c-.225-.044-.34-.1-.34-.174l0-.326,4.459.042a2.4,2.4,0,0,1,1.219-.9,13.918,13.918,0,0,1,2.263-.68l1.493.205c.453.063.678.138.679.224,0,.046-.092.1-.279.171s-.412.151-.67.246a6.1,6.1,0,0,0-.742.335,1.584,1.584,0,0,0-.544.435Zm-11,.444a1.179,1.179,0,0,0,.592.553,4.707,4.707,0,0,0,1.133.383,11.631,11.631,0,0,0,1.527.22q.851.069,1.78.065a18.288,18.288,0,0,0,1.89-.093,10.935,10.935,0,0,0,1.413-.239,6.666,6.666,0,0,0,1.064-.351,6.049,6.049,0,0,0,.812-.434Zm26.167-.291a1.223,1.223,0,0,0-.647-.57,5.853,5.853,0,0,0-1.3-.411,14.437,14.437,0,0,0-1.847-.248q-1.052-.081-2.322-.075a17.5,17.5,0,0,0-1.945.1,10.055,10.055,0,0,0-1.414.256,5.206,5.206,0,0,0-1.015.376,7.433,7.433,0,0,0-.779.458Z" fill="#fcb048"/>
      </g>
      <path id="Trazado_192937" data-name="Trazado 192937" d="M61.966,223.062c-15.686,0-32.019,1.381-34.631,4.053a3.223,3.223,0,0,1,.285.3c2.2-1.855,15.689-3.723,34.346-3.723,19.137,0,32.84,1.965,34.5,3.866a3.081,3.081,0,0,1,.263-.3C94.571,224.494,77.931,223.062,61.966,223.062Z" fill="url(#linear-gradient-8)"/>
    </g>
    <g id="Grupo_135223" data-name="Grupo 135223">
      <path id="Trazado_192938" data-name="Trazado 192938" d="M35.22,218.961v7.8c0,2.522,15.751,4.566,35.18,4.566s35.181-2.044,35.181-4.566v-7.8Z" fill="url(#linear-gradient)"/>
      <ellipse id="Elipse_5955" data-name="Elipse 5955" cx="35.18" cy="4.565" rx="35.18" ry="4.565" transform="translate(35.22 214.396)" fill="url(#linear-gradient-2)"/>
      <path id="Trazado_192939" data-name="Trazado 192939" d="M70.4,223.842c-17.207,0-35.2-1.644-35.2-4.814,0-.174.062-.48.236-.48s.1.239.1.413c0,2.011,14.319,4.251,34.865,4.251s34.866-2.24,34.866-4.251c0-.174.029-.337.2-.337s.132.232.132.407C105.6,222.2,87.608,223.842,70.4,223.842Z" fill="url(#linear-gradient-11)"/>
      <g id="Grupo_135222" data-name="Grupo 135222">
        <path id="Trazado_192940" data-name="Trazado 192940" d="M67.076,219.216q.518-.358,1.106-.707a6.9,6.9,0,0,1,1.511-.63,14.357,14.357,0,0,1,2.319-.459,29.5,29.5,0,0,1,3.474-.188q2.039-.009,3.829.13a26.148,26.148,0,0,1,3.149.417,9.748,9.748,0,0,1,2.21.686,1.749,1.749,0,0,1,1.011.936l3.961.04a3.843,3.843,0,0,1,.759.071c.222.045.329.1.329.171l0,.326-5.093-.049a2.567,2.567,0,0,1-1.365,1.1,13.827,13.827,0,0,1-2.793.862l-1.854-.258a2.239,2.239,0,0,1-.41-.1c-.107-.039-.159-.081-.159-.128s.143-.134.43-.214.611-.18.971-.3a9.826,9.826,0,0,0,1.063-.421,1.445,1.445,0,0,0,.7-.578L70.2,219.8a11.291,11.291,0,0,1-1.062.685,6.872,6.872,0,0,1-1.559.606,16.356,16.356,0,0,1-2.419.437,34.1,34.1,0,0,1-3.647.178c-1.1.006-2.174-.036-3.225-.125a22.082,22.082,0,0,1-2.8-.4,8.683,8.683,0,0,1-2.008-.657q-.781-.392-.874-.9l-3.261-.034a4.243,4.243,0,0,1-.771-.068c-.225-.043-.339-.1-.339-.173l0-.326,4.459.042a2.393,2.393,0,0,1,1.219-.9,14,14,0,0,1,2.262-.681l1.494.205c.453.064.678.139.679.224,0,.046-.092.1-.28.172s-.411.151-.669.246a5.966,5.966,0,0,0-.743.335,1.566,1.566,0,0,0-.543.435Zm-11,.444a1.179,1.179,0,0,0,.592.553,4.691,4.691,0,0,0,1.133.383,11.47,11.47,0,0,0,1.527.219q.851.07,1.78.066A18.534,18.534,0,0,0,63,220.788a10.942,10.942,0,0,0,1.414-.24,6.429,6.429,0,0,0,1.063-.351,5.892,5.892,0,0,0,.813-.434Zm26.167-.291a1.226,1.226,0,0,0-.648-.57,5.774,5.774,0,0,0-1.3-.411,14.277,14.277,0,0,0-1.848-.248q-1.05-.081-2.321-.075a17.769,17.769,0,0,0-1.945.1,10.017,10.017,0,0,0-1.414.257,5.209,5.209,0,0,0-1.015.375,7.265,7.265,0,0,0-.779.459Z" fill="#fcb048"/>
      </g>
      <path id="Trazado_192941" data-name="Trazado 192941" d="M70.4,214.89c-15.686,0-32.019,1.38-34.632,4.052a3.117,3.117,0,0,1,.286.3c2.2-1.855,15.689-3.723,34.346-3.723,19.137,0,32.839,1.965,34.5,3.866a3.376,3.376,0,0,1,.263-.3C103.01,216.321,86.37,214.89,70.4,214.89Z" fill="url(#linear-gradient-12)"/>
    </g>
    <g id="Grupo_135225" data-name="Grupo 135225">
      <path id="Trazado_192942" data-name="Trazado 192942" d="M40.341,210.765v7.8c0,2.522,15.751,4.566,35.18,4.566s35.181-2.044,35.181-4.566v-7.8Z" fill="url(#linear-gradient)"/>
      <path id="Trazado_192943" data-name="Trazado 192943" d="M110.7,210.765c0,2.521-15.751,4.565-35.181,4.565s-35.18-2.044-35.18-4.565,15.751-4.565,35.18-4.565S110.7,208.244,110.7,210.765Z" fill="url(#linear-gradient-14)"/>
      <path id="Trazado_192944" data-name="Trazado 192944" d="M75.521,215.645c-17.207,0-35.2-1.643-35.2-4.813,0-.174.063-.48.237-.48s.1.239.1.413c0,2.01,14.319,4.25,34.865,4.25s34.866-2.24,34.866-4.25c0-.174.029-.337.2-.337s.132.232.132.406C110.722,214,92.729,215.645,75.521,215.645Z" fill="url(#linear-gradient-15)"/>
      <g id="Grupo_135224" data-name="Grupo 135224">
        <path id="Trazado_192945" data-name="Trazado 192945" d="M72.2,211.019c.345-.239.712-.474,1.106-.707a6.972,6.972,0,0,1,1.511-.63,14.477,14.477,0,0,1,2.319-.458,29.286,29.286,0,0,1,3.474-.188q2.039-.01,3.829.13a25.9,25.9,0,0,1,3.148.417,9.746,9.746,0,0,1,2.211.685,1.748,1.748,0,0,1,1.01.937l3.962.04a3.925,3.925,0,0,1,.759.07c.221.045.329.1.329.172l0,.326-5.093-.049a2.571,2.571,0,0,1-1.365,1.1,13.768,13.768,0,0,1-2.793.861l-1.854-.257a2.239,2.239,0,0,1-.41-.1c-.107-.039-.159-.082-.159-.128q0-.095.43-.214t.971-.3a9.617,9.617,0,0,0,1.063-.42,1.433,1.433,0,0,0,.7-.579l-12.02-.119a11.341,11.341,0,0,1-1.061.685,6.966,6.966,0,0,1-1.559.606,16.356,16.356,0,0,1-2.419.437,34.366,34.366,0,0,1-3.647.178c-1.1.005-2.174-.036-3.225-.125a22.126,22.126,0,0,1-2.8-.4,8.689,8.689,0,0,1-2.007-.657c-.521-.262-.814-.561-.874-.9l-3.261-.033a4.244,4.244,0,0,1-.771-.068c-.225-.043-.339-.1-.34-.173v-.327l4.458.043a2.4,2.4,0,0,1,1.219-.9,14.01,14.01,0,0,1,2.263-.681l1.493.2c.454.064.679.138.68.224,0,.046-.092.1-.28.172s-.412.15-.669.245a6.271,6.271,0,0,0-.743.335,1.589,1.589,0,0,0-.543.435Zm-11,.445a1.179,1.179,0,0,0,.592.553,4.735,4.735,0,0,0,1.133.383,11.62,11.62,0,0,0,1.526.219q.852.07,1.78.066a18.835,18.835,0,0,0,1.89-.093,10.941,10.941,0,0,0,1.414-.24A6.62,6.62,0,0,0,70.6,212a5.821,5.821,0,0,0,.812-.434Zm26.167-.292a1.234,1.234,0,0,0-.648-.57,5.9,5.9,0,0,0-1.3-.411,14.455,14.455,0,0,0-1.848-.248q-1.05-.081-2.321-.075a18,18,0,0,0-1.945.1,10.017,10.017,0,0,0-1.414.257,5.1,5.1,0,0,0-1.015.375,7.169,7.169,0,0,0-.779.459Z" fill="#fcb048"/>
      </g>
      <path id="Trazado_192946" data-name="Trazado 192946" d="M75.526,206.694c-15.686,0-32.019,1.38-34.632,4.052a3.005,3.005,0,0,1,.286.3c2.2-1.855,15.688-3.723,34.346-3.723,19.137,0,32.839,1.965,34.5,3.866a3.374,3.374,0,0,1,.263-.3C108.13,208.125,91.491,206.694,75.526,206.694Z" fill="url(#linear-gradient-16)"/>
    </g>
    <g id="Grupo_135227" data-name="Grupo 135227">
      <path id="Trazado_192947" data-name="Trazado 192947" d="M36.561,201.922v7.8c0,2.522,15.751,4.566,35.181,4.566s35.18-2.044,35.18-4.566v-7.8Z" fill="url(#linear-gradient)"/>
      <path id="Trazado_192948" data-name="Trazado 192948" d="M106.922,201.922c0,2.522-15.751,4.566-35.18,4.566s-35.181-2.044-35.181-4.566,15.751-4.565,35.181-4.565S106.922,199.4,106.922,201.922Z" fill="url(#linear-gradient-2)"/>
      <path id="Trazado_192949" data-name="Trazado 192949" d="M71.741,206.8c-17.207,0-35.2-1.643-35.2-4.813,0-.174.062-.48.236-.48s.1.239.1.413c0,2.011,14.319,4.25,34.865,4.25s34.866-2.239,34.866-4.25c0-.174.029-.337.2-.337s.132.232.132.406C106.943,205.161,88.949,206.8,71.741,206.8Z" fill="url(#linear-gradient-19)"/>
      <g id="Grupo_135226" data-name="Grupo 135226">
        <path id="Trazado_192950" data-name="Trazado 192950" d="M68.417,202.177q.518-.358,1.106-.708a6.993,6.993,0,0,1,1.511-.63,14.477,14.477,0,0,1,2.319-.458,29.3,29.3,0,0,1,3.474-.188q2.04-.009,3.829.13a25.919,25.919,0,0,1,3.149.417,9.732,9.732,0,0,1,2.21.686,1.749,1.749,0,0,1,1.011.936l3.961.04a3.927,3.927,0,0,1,.759.07c.222.046.329.1.329.172l0,.326-5.093-.049a2.563,2.563,0,0,1-1.365,1.1,13.836,13.836,0,0,1-2.792.862l-1.855-.258a2.239,2.239,0,0,1-.41-.1c-.107-.039-.158-.081-.159-.128q0-.095.43-.214t.972-.3a9.889,9.889,0,0,0,1.062-.421,1.441,1.441,0,0,0,.7-.579l-12.02-.119a11.165,11.165,0,0,1-1.062.685,6.967,6.967,0,0,1-1.559.606,16.356,16.356,0,0,1-2.419.437,34.07,34.07,0,0,1-3.647.178c-1.1.006-2.174-.036-3.225-.125a22.082,22.082,0,0,1-2.8-.4,8.715,8.715,0,0,1-2.008-.657q-.781-.392-.874-.9l-3.261-.034a4.231,4.231,0,0,1-.77-.068c-.225-.043-.34-.1-.34-.173l0-.326,4.459.042a2.393,2.393,0,0,1,1.219-.9,14.027,14.027,0,0,1,2.262-.681l1.494.205c.453.064.678.139.679.224,0,.046-.092.1-.279.172s-.412.15-.67.245a6.041,6.041,0,0,0-.742.336,1.561,1.561,0,0,0-.544.435Zm-11,.444a1.179,1.179,0,0,0,.592.553,4.736,4.736,0,0,0,1.133.383,11.472,11.472,0,0,0,1.527.219q.851.07,1.78.066a18.862,18.862,0,0,0,1.89-.093,10.924,10.924,0,0,0,1.413-.24,6.521,6.521,0,0,0,1.063-.351,5.892,5.892,0,0,0,.813-.434Zm26.167-.291a1.228,1.228,0,0,0-.647-.571,5.9,5.9,0,0,0-1.3-.411,14.448,14.448,0,0,0-1.847-.247q-1.052-.082-2.322-.076a18,18,0,0,0-1.945.1,10.015,10.015,0,0,0-1.414.257,5.146,5.146,0,0,0-1.015.375,7.266,7.266,0,0,0-.779.459Z" fill="#fcb048"/>
      </g>
      <path id="Trazado_192951" data-name="Trazado 192951" d="M71.746,197.851c-15.686,0-32.019,1.38-34.631,4.052a3.236,3.236,0,0,1,.285.3c2.2-1.855,15.689-3.723,34.346-3.723,19.137,0,32.84,1.965,34.5,3.866a3.081,3.081,0,0,1,.263-.3C104.351,199.282,87.711,197.851,71.746,197.851Z" fill="url(#linear-gradient-20)"/>
    </g>
    <g id="Grupo_135229" data-name="Grupo 135229">
      <path id="Trazado_192952" data-name="Trazado 192952" d="M26.781,193.726v7.8c0,2.522,15.751,4.566,35.181,4.566s35.18-2.044,35.18-4.566v-7.8Z" fill="url(#linear-gradient-5)"/>
      <path id="Trazado_192953" data-name="Trazado 192953" d="M97.142,193.726c0,2.521-15.751,4.565-35.18,4.565s-35.181-2.044-35.181-4.565,15.751-4.566,35.181-4.566S97.142,191.205,97.142,193.726Z" fill="url(#linear-gradient-2)"/>
      <path id="Trazado_192954" data-name="Trazado 192954" d="M61.962,198.606c-17.208,0-35.2-1.643-35.2-4.813,0-.175.062-.48.236-.48s.1.239.1.413c0,2.01,14.319,4.25,34.866,4.25s34.865-2.24,34.865-4.25c0-.174.03-.337.2-.337s.132.232.132.406C97.163,196.965,79.169,198.606,61.962,198.606Z" fill="url(#linear-gradient-23)"/>
      <g id="Grupo_135228" data-name="Grupo 135228">
        <path id="Trazado_192955" data-name="Trazado 192955" d="M58.637,193.98q.517-.358,1.106-.707a6.993,6.993,0,0,1,1.511-.63,14.477,14.477,0,0,1,2.319-.458A29.3,29.3,0,0,1,67.047,192q2.04-.01,3.829.13a26.108,26.108,0,0,1,3.149.416,9.715,9.715,0,0,1,2.21.686,1.753,1.753,0,0,1,1.011.937l3.961.04a3.936,3.936,0,0,1,.76.07c.221.045.328.1.328.172l0,.326-5.093-.049a2.563,2.563,0,0,1-1.365,1.1,13.842,13.842,0,0,1-2.792.861l-1.855-.258a2.154,2.154,0,0,1-.409-.1c-.108-.039-.159-.082-.16-.128q0-.095.43-.214c.288-.081.611-.181.972-.3a9.777,9.777,0,0,0,1.063-.42,1.443,1.443,0,0,0,.7-.579l-12.02-.119a11.36,11.36,0,0,1-1.062.685,6.947,6.947,0,0,1-1.559.606,16.37,16.37,0,0,1-2.419.436,34.035,34.035,0,0,1-3.647.179q-1.651.008-3.224-.125a22.073,22.073,0,0,1-2.8-.4,8.764,8.764,0,0,1-2.008-.657c-.521-.262-.813-.561-.874-.9l-3.261-.033a4.231,4.231,0,0,1-.77-.068c-.225-.043-.34-.1-.34-.174l0-.326,4.459.043a2.387,2.387,0,0,1,1.219-.9,13.91,13.91,0,0,1,2.263-.681l1.493.205c.453.064.678.138.679.224,0,.046-.092.1-.279.172s-.412.15-.67.245a6.259,6.259,0,0,0-.742.335,1.583,1.583,0,0,0-.544.435Zm-11,.445a1.179,1.179,0,0,0,.592.553,4.754,4.754,0,0,0,1.133.382,11.626,11.626,0,0,0,1.527.22q.851.07,1.78.066a18.548,18.548,0,0,0,1.89-.094,10.767,10.767,0,0,0,1.413-.239,6.667,6.667,0,0,0,1.064-.351,5.936,5.936,0,0,0,.812-.434Zm26.167-.292a1.227,1.227,0,0,0-.647-.57,5.852,5.852,0,0,0-1.3-.411,14.435,14.435,0,0,0-1.847-.248q-1.052-.081-2.322-.075a18,18,0,0,0-1.945.1,10.044,10.044,0,0,0-1.414.257,5.146,5.146,0,0,0-1.015.375,7.265,7.265,0,0,0-.779.459Z" fill="#fcb048"/>
      </g>
      <path id="Trazado_192956" data-name="Trazado 192956" d="M61.966,189.655c-15.686,0-32.019,1.38-34.631,4.052a3.112,3.112,0,0,1,.285.3c2.2-1.856,15.689-3.723,34.346-3.723,19.137,0,32.84,1.965,34.5,3.866a2.967,2.967,0,0,1,.263-.3C94.571,191.086,77.931,189.655,61.966,189.655Z" fill="url(#linear-gradient-24)"/>
    </g>
    <g id="Grupo_135231" data-name="Grupo 135231">
      <path id="Trazado_192957" data-name="Trazado 192957" d="M35.22,185.554v7.8c0,2.521,15.751,4.565,35.18,4.565s35.181-2.044,35.181-4.565v-7.8Z" fill="url(#linear-gradient)"/>
      <path id="Trazado_192958" data-name="Trazado 192958" d="M105.581,185.554c0,2.521-15.751,4.565-35.181,4.565s-35.18-2.044-35.18-4.565,15.751-4.566,35.18-4.566S105.581,183.032,105.581,185.554Z" fill="url(#linear-gradient-2)"/>
      <path id="Trazado_192959" data-name="Trazado 192959" d="M70.4,190.434c-17.207,0-35.2-1.644-35.2-4.814,0-.174.062-.48.236-.48s.1.24.1.414c0,2.01,14.319,4.25,34.865,4.25s34.866-2.24,34.866-4.25c0-.174.029-.338.2-.338s.132.233.132.407C105.6,188.793,87.608,190.434,70.4,190.434Z" fill="url(#linear-gradient-7)"/>
      <g id="Grupo_135230" data-name="Grupo 135230">
        <path id="Trazado_192960" data-name="Trazado 192960" d="M67.076,185.808q.518-.358,1.106-.707a6.944,6.944,0,0,1,1.511-.63,14.469,14.469,0,0,1,2.319-.459,29.313,29.313,0,0,1,3.474-.187q2.039-.011,3.829.129a26.151,26.151,0,0,1,3.149.417,9.748,9.748,0,0,1,2.21.686,1.753,1.753,0,0,1,1.011.937l3.961.04a3.848,3.848,0,0,1,.759.07c.222.045.329.1.329.171l0,.326-5.093-.049a2.567,2.567,0,0,1-1.365,1.1,13.9,13.9,0,0,1-2.793.861l-1.854-.258a2.085,2.085,0,0,1-.41-.1c-.107-.039-.159-.081-.159-.127,0-.063.143-.134.43-.215s.611-.18.971-.3a9.616,9.616,0,0,0,1.063-.42,1.452,1.452,0,0,0,.7-.579L70.2,186.4a11.7,11.7,0,0,1-1.062.685,6.922,6.922,0,0,1-1.559.605,16.227,16.227,0,0,1-2.419.437,34.326,34.326,0,0,1-3.647.179c-1.1.005-2.174-.037-3.225-.125a22.082,22.082,0,0,1-2.8-.4,8.727,8.727,0,0,1-2.008-.658q-.781-.392-.874-.9l-3.261-.033a4.335,4.335,0,0,1-.771-.068c-.225-.044-.339-.1-.339-.174l0-.326,4.459.042a2.4,2.4,0,0,1,1.219-.9,13.905,13.905,0,0,1,2.262-.68l1.494.205c.453.063.678.138.679.224,0,.046-.092.1-.28.172s-.411.15-.669.245a6.114,6.114,0,0,0-.743.335,1.588,1.588,0,0,0-.543.435Zm-11,.445a1.179,1.179,0,0,0,.592.553,4.738,4.738,0,0,0,1.133.382,11.631,11.631,0,0,0,1.527.22q.851.07,1.78.065A18.256,18.256,0,0,0,63,187.38a10.956,10.956,0,0,0,1.414-.239,6.62,6.62,0,0,0,1.063-.351,6,6,0,0,0,.813-.434Zm26.167-.292a1.226,1.226,0,0,0-.648-.57,5.825,5.825,0,0,0-1.3-.411,14.455,14.455,0,0,0-1.848-.248q-1.05-.081-2.321-.075a17.744,17.744,0,0,0-1.945.1,10.173,10.173,0,0,0-1.414.256,5.2,5.2,0,0,0-1.015.376,7.265,7.265,0,0,0-.779.459Z" fill="#fcb048"/>
      </g>
      <path id="Trazado_192961" data-name="Trazado 192961" d="M70.4,181.482c-15.686,0-32.019,1.381-34.632,4.053a3.105,3.105,0,0,1,.286.3c2.2-1.855,15.689-3.723,34.346-3.723,19.137,0,32.839,1.966,34.5,3.866a3.376,3.376,0,0,1,.263-.3C103.01,182.914,86.37,181.482,70.4,181.482Z" fill="url(#linear-gradient-28)"/>
    </g>
    <g id="Grupo_135233" data-name="Grupo 135233">
      <path id="Trazado_192962" data-name="Trazado 192962" d="M30.831,177.357v7.8c0,2.521,15.751,4.565,35.18,4.565s35.18-2.044,35.18-4.565v-7.8Z" fill="url(#linear-gradient-5)"/>
      <ellipse id="Elipse_5956" data-name="Elipse 5956" cx="35.18" cy="4.565" rx="35.18" ry="4.565" transform="translate(30.831 172.792)" fill="url(#linear-gradient-2)"/>
      <path id="Trazado_192963" data-name="Trazado 192963" d="M66.011,182.238c-17.207,0-35.2-1.644-35.2-4.814,0-.174.062-.48.237-.48s.1.239.1.413c0,2.011,14.318,4.251,34.865,4.251s34.865-2.24,34.865-4.251c0-.174.03-.337.2-.337s.132.233.132.407C101.212,180.6,83.218,182.238,66.011,182.238Z" fill="url(#linear-gradient-7)"/>
      <g id="Grupo_135232" data-name="Grupo 135232">
        <path id="Trazado_192964" data-name="Trazado 192964" d="M62.687,177.612c.345-.239.712-.475,1.1-.707a6.906,6.906,0,0,1,1.512-.63,14.36,14.36,0,0,1,2.319-.459,29.5,29.5,0,0,1,3.474-.188q2.039-.009,3.829.13a26.1,26.1,0,0,1,3.148.417,9.742,9.742,0,0,1,2.211.686,1.747,1.747,0,0,1,1.01.936l3.962.04a3.849,3.849,0,0,1,.759.071c.221.045.328.1.329.171v.326l-5.092-.049a2.566,2.566,0,0,1-1.365,1.1,13.827,13.827,0,0,1-2.793.862l-1.855-.258a2.147,2.147,0,0,1-.409-.1c-.107-.039-.159-.081-.159-.127q0-.095.43-.215t.971-.3a10.02,10.02,0,0,0,1.063-.42,1.444,1.444,0,0,0,.7-.579l-12.02-.12a11.27,11.27,0,0,1-1.061.685,6.863,6.863,0,0,1-1.56.606,16.34,16.34,0,0,1-2.418.437,34.094,34.094,0,0,1-3.647.178c-1.1.006-2.174-.036-3.225-.125a22.266,22.266,0,0,1-2.8-.4,8.734,8.734,0,0,1-2.007-.658c-.521-.261-.814-.561-.874-.9l-3.262-.034a4.246,4.246,0,0,1-.77-.067c-.225-.044-.339-.1-.34-.174v-.326l4.458.042a2.4,2.4,0,0,1,1.219-.9,14.012,14.012,0,0,1,2.263-.681l1.493.205c.454.064.679.139.679.224,0,.047-.091.1-.279.172s-.412.151-.669.246a5.966,5.966,0,0,0-.743.335,1.577,1.577,0,0,0-.543.435Zm-11,.444a1.186,1.186,0,0,0,.593.553,4.692,4.692,0,0,0,1.133.383,11.59,11.59,0,0,0,1.526.22q.852.069,1.78.065a18.288,18.288,0,0,0,1.89-.093,10.974,10.974,0,0,0,1.414-.24,6.427,6.427,0,0,0,1.063-.351,5.877,5.877,0,0,0,.812-.433Zm26.168-.291a1.226,1.226,0,0,0-.648-.57,5.835,5.835,0,0,0-1.3-.411,14.235,14.235,0,0,0-1.847-.248q-1.05-.081-2.322-.075a17.527,17.527,0,0,0-1.945.1,9.9,9.9,0,0,0-1.413.256,5.157,5.157,0,0,0-1.015.376,7.071,7.071,0,0,0-.779.458Z" fill="#fcb048"/>
      </g>
      <path id="Trazado_192965" data-name="Trazado 192965" d="M66.016,173.286c-15.686,0-32.019,1.38-34.632,4.053a3.24,3.24,0,0,1,.286.3c2.2-1.855,15.688-3.723,34.346-3.723,19.137,0,32.839,1.965,34.5,3.866a3.376,3.376,0,0,1,.263-.3C98.62,174.718,81.981,173.286,66.016,173.286Z" fill="url(#linear-gradient-32)"/>
    </g>
    <g id="Grupo_135235" data-name="Grupo 135235">
      <path id="Trazado_192966" data-name="Trazado 192966" d="M111.2,182.858l-6.358,4.523c-2.055,1.462,5.409,15.482,16.671,31.314s22.057,27.483,24.112,26.022l6.358-4.523Z" fill="url(#linear-gradient-33)"/>
      <path id="Trazado_192967" data-name="Trazado 192967" d="M151.981,240.194c-2.054,1.461-12.85-10.189-24.111-26.022S109.144,184.32,111.2,182.858s12.85,10.189,24.112,26.022S154.036,238.732,151.981,240.194Z" fill="url(#linear-gradient-34)"/>
      <path id="Trazado_192968" data-name="Trazado 192968" d="M127.613,214.355c-9.974-14.022-19.064-29.637-16.481-31.475.142-.1.427-.227.528-.085s-.137.219-.279.32c-1.638,1.165,4.836,14.132,16.745,30.875S150.16,241.1,151.8,239.937c.142-.1.292-.171.393-.029s-.113.242-.255.343C149.354,242.088,137.587,228.377,127.613,214.355Z" fill="url(#linear-gradient-35)"/>
      <g id="Grupo_135234" data-name="Grupo 135234">
        <path id="Trazado_192969" data-name="Trazado 192969" d="M129.456,208.965q.591.213,1.217.491a6.923,6.923,0,0,1,1.389.866,14.405,14.405,0,0,1,1.718,1.624,29.416,29.416,0,0,1,2.166,2.722q1.191,1.656,2.114,3.2a26.11,26.11,0,0,1,1.486,2.808,9.729,9.729,0,0,1,.722,2.2,1.754,1.754,0,0,1-.177,1.366l2.263,3.251a3.863,3.863,0,0,1,.383.66c.091.206.107.326.051.367l-.265.19-2.912-4.178a2.57,2.57,0,0,1-1.685-.477,13.85,13.85,0,0,1-2.32-1.776l-.865-1.661a2.123,2.123,0,0,1-.158-.39c-.031-.11-.026-.177.011-.2s.193.039.424.227.5.393.807.618a9.84,9.84,0,0,0,.959.622,1.444,1.444,0,0,0,.876.233l-6.87-9.864a11.542,11.542,0,0,1-1.174-.468,6.941,6.941,0,0,1-1.4-.92,16.173,16.173,0,0,1-1.758-1.718,33.78,33.78,0,0,1-2.259-2.868q-.965-1.343-1.768-2.7a22.123,22.123,0,0,1-1.3-2.512,8.742,8.742,0,0,1-.628-2.017,1.407,1.407,0,0,1,.227-1.234l-1.863-2.677a4.234,4.234,0,0,1-.391-.667c-.1-.209-.114-.335-.056-.378l.265-.19,2.55,3.658a2.4,2.4,0,0,1,1.438.473,13.942,13.942,0,0,1,1.867,1.449l.7,1.336c.211.406.281.633.211.683-.037.027-.137-.015-.3-.128s-.361-.249-.588-.4a5.947,5.947,0,0,0-.7-.411,1.582,1.582,0,0,0-.669-.191Zm-6.739-8.707a1.187,1.187,0,0,0-.107.8,4.756,4.756,0,0,0,.345,1.146,11.7,11.7,0,0,0,.706,1.371q.437.733.978,1.488a18.385,18.385,0,0,0,1.172,1.486,10.986,10.986,0,0,0,1.014,1.014,6.62,6.62,0,0,0,.9.662,5.858,5.858,0,0,0,.825.411Zm15.4,21.155a1.227,1.227,0,0,0,.089-.859,5.79,5.79,0,0,0-.42-1.3,14.308,14.308,0,0,0-.868-1.649q-.543-.9-1.285-1.936a17.757,17.757,0,0,0-1.21-1.526,9.981,9.981,0,0,0-1.028-1,5.175,5.175,0,0,0-.895-.609,7.125,7.125,0,0,0-.825-.369Z" fill="#fcb048"/>
      </g>
      <path id="Trazado_192970" data-name="Trazado 192970" d="M134.91,209.17c-9.092-12.782-19.684-25.292-23.375-25.872a3.255,3.255,0,0,1-.08.407c2.788.719,12.127,10.627,22.942,25.83,11.092,15.6,17.433,27.9,16.846,30.354a3.1,3.1,0,0,1,.4.042C152.642,236.569,144.164,222.18,134.91,209.17Z" fill="url(#linear-gradient-36)"/>
    </g>
  </g>
  <g id="Grupo_135250" data-name="Grupo 135250">
    <g id="Grupo_135249" data-name="Grupo 135249">
      <g id="Grupo_135240" data-name="Grupo 135240">
        <g id="Grupo_135237" data-name="Grupo 135237">
          <path id="Trazado_192971" data-name="Trazado 192971" d="M119.145,204.8c.033-.979,2.036-2.052,3.191-1.552a3.039,3.039,0,0,1,.815.666,9.321,9.321,0,0,1,1.278,1.539c1.339,2.05,4.427,3.982,4.066,4.69-.26.51-2.229.23-3.74-.534-1.215-.615-1.2-1.073-3.206-2.672C119.78,205.525,119.126,205.368,119.145,204.8Z" fill="url(#linear-gradient-37)"/>
          <path id="Trazado_192972" data-name="Trazado 192972" d="M118.777,201.807l1.466,2.412a1.332,1.332,0,0,0,1.477.6.866.866,0,0,0,.515-1.294l-2.159-3.474Z" fill="url(#linear-gradient-38)"/>
        </g>
        <g id="Grupo_135239" data-name="Grupo 135239">
          <path id="Trazado_192973" data-name="Trazado 192973" d="M63.471,165.529c-4.576,2-.361,14.659,12.638,15.109,15.752.545,33.581,8.193,42.786,22.226.923-.413,3.024-.852,2.47-1.935-7.616-14.885-15.935-24.68-23.98-29.151C85.222,165.02,76.5,159.827,63.471,165.529Z" fill="url(#linear-gradient-39)"/>
          <g id="Grupo_135238" data-name="Grupo 135238" opacity="0.3" style="mix-blend-mode: multiply;isolation: isolate">
            <path id="Trazado_192974" data-name="Trazado 192974" d="M104.088,183.142c1.713,1.886,2.947-.453,4.547-1.742a42.976,42.976,0,0,0-11.25-9.622c-12.163-6.758-20.887-11.951-33.914-6.249-4.576,2-.361,14.659,12.638,15.109a58.383,58.383,0,0,1,14.372,2.381C95.068,181.825,99.947,177.3,104.088,183.142Z" fill="url(#linear-gradient-40)"/>
          </g>
        </g>
      </g>
      <g id="Grupo_135241" data-name="Grupo 135241">
        <path id="Trazado_192975" data-name="Trazado 192975" d="M57.961,175.576,57,175.229s-3.195-5.6-3.68-7.014c-.591-1.723,12.18-1.593,17.437-5.051,5.523-3.634-1.007,6.073-1.007,6.073Z" fill="url(#linear-gradient-41)"/>
      </g>
      <g id="Grupo_135244" data-name="Grupo 135244">
        <path id="Trazado_192976" data-name="Trazado 192976" d="M67.606,130.164s4.038,1.916,6.066,11.59c1.525,7.274,7.46,14.781,7.46,14.781l-.763,5.1-6.62-.886-1.775-2.187L69.981,143.6Z" fill="url(#linear-gradient-42)"/>
        <g id="Grupo_135243" data-name="Grupo 135243">
          <path id="Trazado_192977" data-name="Trazado 192977" d="M59.587,127.046s-10.812-2.014-14.83,9.889c-3.707,10.984-1.077,16.528,5.785,28.841.69,1.238,2.285,1.744,2.361,1.915q.612,1.377,1.219,2.856a52.472,52.472,0,0,1,22.19-5.344s-3.144-21.78-5.172-29.312C69.05,128.125,62.462,127.251,59.587,127.046Z" fill="url(#linear-gradient-43)"/>
          <g id="Grupo_135242" data-name="Grupo 135242" opacity="0.3" style="mix-blend-mode: multiply;isolation: isolate">
            <path id="Trazado_192978" data-name="Trazado 192978" d="M68.024,160.413c-5.137.958-11.278-1.28-12.645-4.914-1.03-2.737-1.051-3.641-2.06-7.746-.811-3.3-1.493-4.006-4.444-7.505a19.513,19.513,0,0,1-3.235-5.492,19.606,19.606,0,0,0-.883,2.179c-3.707,10.984-1.077,16.528,5.785,28.841.69,1.238,2.285,1.744,2.361,1.915q.612,1.377,1.219,2.856a52.472,52.472,0,0,1,22.19-5.344s-.573-3.451-1.256-8.264A12.4,12.4,0,0,1,68.024,160.413Z" fill="url(#linear-gradient-44)"/>
          </g>
        </g>
        <path id="Trazado_192979" data-name="Trazado 192979" d="M60.739,158.491a10.069,10.069,0,0,0,3.522.6,7.973,7.973,0,0,1,3.182.02c1.63.3,5.011.345,3.768-1.8-1.385-2.385-4.876-2.946-6.206-2.075a8.365,8.365,0,0,1-3.111,1.051Z" fill="url(#linear-gradient-45)"/>
        <path id="Trazado_192980" data-name="Trazado 192980" d="M50.208,130.642s-5.992-1.159-8.517,18.52c-1.31,10.206,7.766,11.587,19.47,10.907,1.175-1.254,1.259-4.676,1.259-4.676s-14.665,1.238-12.529-6.671C52.287,139.856,53.873,130.786,50.208,130.642Z" fill="url(#linear-gradient-46)"/>
        <path id="Trazado_192981" data-name="Trazado 192981" d="M62.1,132.039c-.081,0-.163,0-.248-.007-3-.187-5.528-3.624-5.634-3.77a.146.146,0,0,1,.236-.172c.026.035,2.554,3.471,5.416,3.649a2.195,2.195,0,0,0,1.809-.583,3.259,3.259,0,0,0,.65-2.3.147.147,0,1,1,.292-.032,3.5,3.5,0,0,1-.729,2.533A2.37,2.37,0,0,1,62.1,132.039Z" fill="#9f73f8"/>
        <path id="Trazado_192982" data-name="Trazado 192982" d="M53.522,167.509a.147.147,0,0,1-.06-.28c.12-.054,12.094-5.448,21.161-4.836a.145.145,0,0,1,.136.156.154.154,0,0,1-.155.136c-9-.6-20.9,4.756-21.021,4.811A.146.146,0,0,1,53.522,167.509Z" fill="#ae87f9"/>
      </g>
      <g id="Grupo_135245" data-name="Grupo 135245">
        <path id="Trazado_192983" data-name="Trazado 192983" d="M59.826,121.849s-.289,4.468-.762,5.251.447,2.088,2.542,2.856,1.12-4.329,1.12-4.329Z" fill="url(#linear-gradient-47)"/>
        <path id="Trazado_192984" data-name="Trazado 192984" d="M66.028,123c2.564-.93,3.437-7,2.169-7.662-.728-.382-1.391,1.428-4.092,2.122-2.1.541-3.441-.109-4.339.943a3.178,3.178,0,0,0-.667,1.975,8.014,8.014,0,0,0,.334,1.769c.214.831.192.8.261,1.041a11.119,11.119,0,0,0,1.394,2.946,7.809,7.809,0,0,1,.795-1.082,6.907,6.907,0,0,1,1.306-1.152A8.7,8.7,0,0,1,66.028,123Z" fill="url(#linear-gradient-48)"/>
        <path id="Trazado_192985" data-name="Trazado 192985" d="M59.888,124.688a4.194,4.194,0,0,0,2.943,2.9c2.137.536,3.952-4.061,2.934-5.486a2.774,2.774,0,0,0-1.98-.931c-.468-.017-.67.115-1.434.071-.7-.04-.865-.171-1.114-.069-.312.128-.655.577-.685,2.081a1.2,1.2,0,0,0-1.091-.791.763.763,0,0,0-.366.182C58.63,123.091,58.9,123.933,59.888,124.688Z" fill="url(#linear-gradient-49)"/>
      </g>
      <g id="Grupo_135246" data-name="Grupo 135246">
        <path id="Trazado_192986" data-name="Trazado 192986" d="M61.332,161.431a.264.264,0,0,0-.261.108c-.008.012-.12.495-.126.509a.248.248,0,0,0,.085.3l7.938,5.678,18.587-1.236L79.508,164.9Z" fill="#26264f"/>
        <path id="Trazado_192987" data-name="Trazado 192987" d="M61.348,161.366a.248.248,0,0,0-.185.447l7.938,5.679,18.588-1.236-8.047-1.889Z" fill="#444b8c"/>
        <path id="Trazado_192988" data-name="Trazado 192988" d="M68.75,167.238l6.784-16.831a.628.628,0,0,1,.677-.386L97,153.2a.627.627,0,0,1,.493.837L91.65,169.875a.625.625,0,0,1-.665.406L69.206,167.57Z" fill="url(#linear-gradient-50)"/>
        <path id="Trazado_192989" data-name="Trazado 192989" d="M68.968,168.023l6.946-17.2a.626.626,0,0,1,.676-.385l20.784,3.176a.628.628,0,0,1,.494.837L92.029,170.3a.627.627,0,0,1-.663.4Z" fill="#26264f"/>
        <path id="Trazado_192990" data-name="Trazado 192990" d="M68.968,168.023l22.4,2.678a.627.627,0,0,0,.663-.4l1.761-4.779c-7.426,1.58-15.457-.465-23.261-1.36Z" fill="#1f1f44"/>
      </g>
      <g id="Grupo_135248" data-name="Grupo 135248">
        <path id="Trazado_192991" data-name="Trazado 192991" d="M105.894,175.748c.029-1.094-.258-2.4,2.276-2.491a31.606,31.606,0,0,1,7.427,1.352c3.719.972,3.867,3.428-1.923,3.126C109.883,177.538,105.853,177.3,105.894,175.748Z" fill="url(#linear-gradient-51)"/>
        <path id="Trazado_192992" data-name="Trazado 192992" d="M109.232,175.116a1.02,1.02,0,0,1-1.128.818c-1.132-.188-.752-.681-.609-1.253s-.171-1.1,1.128-.818A.983.983,0,0,1,109.232,175.116Z" fill="url(#linear-gradient-52)"/>
        <path id="Trazado_192993" data-name="Trazado 192993" d="M99.144,168.368l1.122.17a57.449,57.449,0,0,1,7.257,4.255c1.164.593,1.7,4.709-1.942,3.709s-8.873.292-8.873.292Z" fill="url(#linear-gradient-53)"/>
        <path id="Trazado_192994" data-name="Trazado 192994" d="M87.355,168.187c-7.2.884-17.431-.528-19.518-.849-2.672-.412-11.255,3.438-11.348,5.868,0,0-.787,3.736,7.318,6.718l19.916,1.445c6.953-1.659,17.507-5.515,18.348-8.372C103.817,167.065,95.88,167.141,87.355,168.187Z" fill="url(#linear-gradient-54)"/>
        <g id="Grupo_135247" data-name="Grupo 135247" opacity="0.3" style="mix-blend-mode: multiply;isolation: isolate">
          <path id="Trazado_192995" data-name="Trazado 192995" d="M72.491,171.861c5.169,1.077,7.432-2.16,13.991-1.225,4.251.607,5.3,2.251,7.795,1.525a7.9,7.9,0,0,0,4.452-4.142c-2.835-.641-7.024-.366-11.374.168-6.989.858-16.845-.448-19.318-.819-.073-.011-1.473-1.076-1.473-1.076s-1.387.3-2.4.563A19.162,19.162,0,0,0,72.491,171.861Z" fill="url(#linear-gradient-55)"/>
        </g>
      </g>
    </g>
  </g>
  <g id="Grupo_135252" data-name="Grupo 135252">
    <path id="Trazado_192996" data-name="Trazado 192996" d="M193.217,94.378a1.071,1.071,0,0,1-.238.056h-1.843v5.289H142.043a1.323,1.323,0,0,1-1.214-.994l-.4-1.51a44.952,44.952,0,0,1-1.438-8.181c-.1-1.214-.16-2.45-.16-3.673V58.638a1.265,1.265,0,0,1,1.3-1.258l49.939,1.5c1.129.032-.9,2.439-.9,3.567l1.865,14.729L192.1,85.6A53.437,53.437,0,0,0,193.217,94.378Z" opacity="0.1" fill="url(#linear-gradient-56)" style="mix-blend-mode: multiply;isolation: isolate"/>
    <path id="Trazado_192997" data-name="Trazado 192997" d="M193.217,94.378a1.071,1.071,0,0,1-.238.056H142.043a1.286,1.286,0,0,1-1.214-.955l-.4-1.49c-.264-.973-.5-1.965-.693-2.952q-.411-2.033-.629-4.094c-.1-.958-.187-1.924-.225-2.888-.026-.632-.051-1.265-.051-1.9V53.428a1.264,1.264,0,0,1,1.3-1.258l49.939,1.5a1.9,1.9,0,0,1,.924.268,2.053,2.053,0,0,1,1.024,1.819V80.375c0,3.653,1.362,9.977,1.97,12.7A1.065,1.065,0,0,1,193.217,94.378Z" fill="url(#linear-gradient-57)"/>
    <path id="Trazado_192998" data-name="Trazado 192998" d="M187.406,62.187h-.02l-43.761-1.1a.759.759,0,0,1,.039-1.518l43.76,1.1a.759.759,0,0,1-.018,1.518Z" fill="#fff" style="mix-blend-mode: soft-light;isolation: isolate"/>
    <path id="Trazado_192999" data-name="Trazado 192999" d="M181.763,80.493l-5.068-.049V76.806l5.068.082Z" fill="#fff"/>
    <g id="Grupo_135251" data-name="Grupo 135251">
      <path id="Trazado_193000" data-name="Trazado 193000" d="M162.461,69.14l-5.428-.158V65.216l5.428.194Z" opacity="0.2" fill="url(#linear-gradient-58)"/>
      <path id="Trazado_193001" data-name="Trazado 193001" d="M169.043,69.332l-5.3-.155V65.455l5.3.189Z" opacity="0.2" fill="url(#linear-gradient-58)"/>
      <path id="Trazado_193002" data-name="Trazado 193002" d="M175.475,69.52l-5.184-.151v-3.68l5.184.185Z" opacity="0.2" fill="url(#linear-gradient-58)"/>
      <path id="Trazado_193003" data-name="Trazado 193003" d="M181.763,69.7l-5.068-.148V65.918l5.068.181Z" opacity="0.2" fill="url(#linear-gradient-58)"/>
      <path id="Trazado_193004" data-name="Trazado 193004" d="M187.911,69.883l-4.955-.145v-3.6l4.955.177Z" opacity="0.2" fill="url(#linear-gradient-58)"/>
      <path id="Trazado_193005" data-name="Trazado 193005" d="M148.829,74.458l-5.691-.111V70.49l5.691.148Z" opacity="0.2" fill="url(#linear-gradient-58)"/>
      <path id="Trazado_193006" data-name="Trazado 193006" d="M155.725,74.592l-5.557-.108V70.673l5.557.144Z" opacity="0.2" fill="url(#linear-gradient-58)"/>
      <path id="Trazado_193007" data-name="Trazado 193007" d="M162.461,74.723l-5.428-.106V70.851l5.428.141Z" opacity="0.2" fill="url(#linear-gradient-58)"/>
      <path id="Trazado_193008" data-name="Trazado 193008" d="M169.043,74.851l-5.3-.1V71.025l5.3.138Z" opacity="0.2" fill="url(#linear-gradient-58)"/>
      <path id="Trazado_193009" data-name="Trazado 193009" d="M175.475,74.976l-5.184-.1V71.2l5.184.135Z" opacity="0.2" fill="url(#linear-gradient-58)"/>
      <path id="Trazado_193010" data-name="Trazado 193010" d="M181.763,75.1,176.7,75V71.362l5.068.132Z" opacity="0.2" fill="url(#linear-gradient-58)"/>
      <path id="Trazado_193011" data-name="Trazado 193011" d="M187.911,75.218l-4.955-.1v-3.6l4.955.129Z" opacity="0.2" fill="url(#linear-gradient-58)"/>
      <path id="Trazado_193012" data-name="Trazado 193012" d="M148.829,80.173l-5.691-.055V76.261l5.691.092Z" opacity="0.2" fill="url(#linear-gradient-58)"/>
      <path id="Trazado_193013" data-name="Trazado 193013" d="M155.725,80.24l-5.557-.054V76.375l5.557.09Z" opacity="0.2" fill="url(#linear-gradient-58)"/>
      <path id="Trazado_193014" data-name="Trazado 193014" d="M162.461,80.305l-5.428-.053V76.486l5.428.088Z" opacity="0.2" fill="url(#linear-gradient-58)"/>
      <path id="Trazado_193015" data-name="Trazado 193015" d="M169.043,80.369l-5.3-.052V76.6l5.3.086Z" opacity="0.2" fill="url(#linear-gradient-58)"/>
      <path id="Trazado_193016" data-name="Trazado 193016" d="M175.475,80.432l-5.184-.05V76.7l5.184.084Z" opacity="0.2" fill="url(#linear-gradient-58)"/>
      <path id="Trazado_193017" data-name="Trazado 193017" d="M187.911,80.553l-4.955-.048v-3.6l4.955.08Z" opacity="0.2" fill="url(#linear-gradient-58)"/>
      <path id="Trazado_193018" data-name="Trazado 193018" d="M148.829,85.888h-5.691V82.031l5.691.037Z" opacity="0.2" fill="url(#linear-gradient-58)"/>
      <path id="Trazado_193019" data-name="Trazado 193019" d="M155.725,85.888h-5.557V82.077l5.557.036Z" opacity="0.2" fill="url(#linear-gradient-58)"/>
      <path id="Trazado_193020" data-name="Trazado 193020" d="M162.461,85.888h-5.428V82.122l5.428.035Z" opacity="0.2" fill="url(#linear-gradient-58)"/>
      <path id="Trazado_193021" data-name="Trazado 193021" d="M169.043,85.888h-5.3V82.165l5.3.035Z" opacity="0.2" fill="url(#linear-gradient-58)"/>
      <path id="Trazado_193022" data-name="Trazado 193022" d="M175.475,85.888h-5.184v-3.68l5.184.034Z" opacity="0.2" fill="url(#linear-gradient-58)"/>
    </g>
  </g>
  <rect id="Rectngulo_44814" data-name="Rectngulo 44814" width="258.406" height="258.406" fill="none"/>
</svg>
