<svg id="Grupo_134825" data-name="Grupo 134825" xmlns="http://www.w3.org/2000/svg" width="144" height="144" viewBox="0 0 144 144">
  <rect id="Rectángulo_44770" data-name="Rectángulo 44770" width="144" height="144" rx="21.594" fill="#5038a1"/>
  <g id="Grupo_135016" data-name="Grupo 135016">
    <g id="Grupo_134825-2" data-name="Grupo 134825">
      <path id="Trazado_192232" data-name="Trazado 192232" d="M30.759,118.659c-2.462,2.228-5.714,2.649-7.263.938l-6.7-7.4c-1.549-1.711-.808-4.9,1.654-7.133l6.9-6.244c2.463-2.23,5.713-2.651,7.262-.94l6.7,7.4c1.548,1.711.809,4.9-1.654,7.133Z" fill="#514949"/>
    </g>
    <g id="Grupo_134826" data-name="Grupo 134826">
      <path id="Trazado_192233" data-name="Trazado 192233" d="M30.811,121.744a1.465,1.465,0,0,0-1.268-1.348A15.53,15.53,0,0,1,16.7,106.214a1.463,1.463,0,0,0-1.217-1.395,1.262,1.262,0,0,0-1,.3,1.105,1.105,0,0,0-.385.837,17.032,17.032,0,0,0,4.3,10.884l-.012.011.371.4.123.141.252.269.007-.006a17.032,17.032,0,0,0,10.406,5.352,1.105,1.105,0,0,0,.874-.3A1.257,1.257,0,0,0,30.811,121.744Z" fill="#7c7c7c"/>
    </g>
    <path id="Trazado_192234" data-name="Trazado 192234" d="M26.8,98.6a48.258,48.258,0,0,0-3.337,4.926c-.781,1.288-1.43,5.773,4.926,10.063,5.092,3.437,9.8-1.589,9.8-1.589Z" fill="#121212"/>
    <g id="Grupo_134827" data-name="Grupo 134827">
      <path id="Trazado_192235" data-name="Trazado 192235" d="M130.888,66.354c2.944.127,5.259,1.889,5.17,3.934l-.383,8.851c-.088,2.045-2.546,3.6-5.491,3.472l-8.246-.357c-2.945-.127-5.259-1.888-5.17-3.933l.383-8.851c.088-2.045,2.546-3.6,5.49-3.473Z" fill="#514949"/>
    </g>
    <g id="Grupo_134828" data-name="Grupo 134828">
      <rect id="Rectángulo_44771" data-name="Rectángulo 44771" width="13.592" height="7.363" transform="translate(117.456 80.747) rotate(-87.521)" fill="#121212"/>
    </g>
    <g id="Grupo_134829" data-name="Grupo 134829">
      <path id="Trazado_192236" data-name="Trazado 192236" d="M84.953,14.593c.3-2.964-1.132-5.534-3.19-5.74l-8.91-.893c-2.059-.206-3.969,2.029-4.266,4.993l-.832,8.3c-.3,2.964,1.131,5.533,3.191,5.74l8.91.893c2.058.206,3.968-2.029,4.265-4.992Z" fill="#514949"/>
    </g>
    <g id="Grupo_134830" data-name="Grupo 134830">
      <path id="Trazado_192237" data-name="Trazado 192237" d="M82.589,20.11c-1.652-2.583-9.361-3.9-12.074-2.179C68.574,19.16,68.6,26.922,68.6,26.922l13.67,1.37S83.692,21.834,82.589,20.11Z" fill="#121212"/>
    </g>
    <g id="Grupo_134831" data-name="Grupo 134831">
      <path id="Trazado_192238" data-name="Trazado 192238" d="M104.6,116.682c1.371,2.768,4.042,4.24,5.965,3.287l8.321-4.123c1.924-.953,2.371-3.969,1-6.737l-3.842-7.754c-1.371-2.768-4.042-4.239-5.965-3.286l-8.322,4.123c-1.922.953-2.37,3.968-1,6.736Z" fill="#514949"/>
    </g>
    <g id="Grupo_134832" data-name="Grupo 134832">
      <path id="Trazado_192239" data-name="Trazado 192239" d="M103.635,110.532c2.876,1.361,10.373-1.731,11.811-4.735,1.029-2.15-3.412-9.264-3.412-9.264L99.4,103.169S101.717,109.624,103.635,110.532Z" fill="#121212"/>
    </g>
    <g id="Grupo_134833" data-name="Grupo 134833">
      <path id="Trazado_192240" data-name="Trazado 192240" d="M80.925,128.2c.028,3.352-3.919,6.706-6.248,6.725l-6.94.081c-2.9,0-5.3-3.306-5.326-6.659l-.075-9.391c-.027-3.353,1.84-6.085,4.17-6.1l10.079-.08c2.329-.019,4.239,2.683,4.266,6.036Z" fill="#514949"/>
    </g>
    <g id="Grupo_134834" data-name="Grupo 134834">
      <rect id="Rectángulo_44772" data-name="Rectángulo 44772" width="15.466" height="8.378" transform="translate(63.788 113.772) rotate(-0.459)" fill="#121212"/>
    </g>
    <g id="Grupo_134835" data-name="Grupo 134835">
      <path id="Trazado_192241" data-name="Trazado 192241" d="M16.8,52.279c-3.5-.623-6.7.844-7.129,3.278L7.794,66.092c-.433,2.435,2.057,4.914,5.56,5.537l9.817,1.746c3.5.624,6.695-.844,7.127-3.279l1.875-10.535c.433-2.434-2.056-4.912-5.56-5.536Z" fill="#514949"/>
    </g>
    <g id="Grupo_134836" data-name="Grupo 134836">
      <path id="Trazado_192242" data-name="Trazado 192242" d="M23.155,55.6c-3.228,1.733-5.5,10.8-3.694,14.188C20.749,72.21,30,72.879,30,72.879l2.876-16.163S25.311,54.44,23.155,55.6Z" fill="#121212"/>
    </g>
    <g id="Grupo_134837" data-name="Grupo 134837">
      <path id="Trazado_192243" data-name="Trazado 192243" d="M110.277,27.97c2.33-1.5,5.066-1.409,6.11.21l4.517,7.007c1.044,1.619,0,4.149-2.329,5.652l-6.528,4.209c-2.331,1.5-5.067,1.408-6.111-.21l-4.518-7.008c-1.044-1.619,0-4.149,2.33-5.651Z" fill="#514949"/>
    </g>
    <g id="Grupo_134838" data-name="Grupo 134838">
      <path id="Trazado_192244" data-name="Trazado 192244" d="M113.588,42.689l-7.379,3.139-5.723-8.162,6.091-6.07Z" fill="#121212"/>
    </g>
    <g id="Grupo_134839" data-name="Grupo 134839">
      <path id="Trazado_192245" data-name="Trazado 192245" d="M33.5,30.281c-1.866-2.339-.943-6.868.683-8.164l4.828-3.881c2.036-1.6,5.542-.6,7.408,1.742l5.227,6.553c1.866,2.34,1.58,7.727-.046,9.023l-6.553,3.169c-1.625,1.3-4.455.451-6.32-1.889Z" fill="#514949"/>
    </g>
    <g id="Grupo_134840" data-name="Grupo 134840">
      <path id="Trazado_192246" data-name="Trazado 192246" d="M38.025,33.729l10.791-8.607L53,33.409,42.687,39.575Z" fill="#121212"/>
    </g>
    <g id="Grupo_134842" data-name="Grupo 134842">
      <g id="Grupo_134841" data-name="Grupo 134841">
        <circle id="Elipse_5817" data-name="Elipse 5817" cx="46.446" cy="46.446" r="46.446" transform="translate(25.148 26.805) rotate(-1.135)" fill="#fff"/>
      </g>
    </g>
    <g id="Grupo_134843" data-name="Grupo 134843">
      <path id="Trazado_192247" data-name="Trazado 192247" d="M103.5,119.335a1.359,1.359,0,0,1,1.556-.734A14.45,14.45,0,0,0,121,110.7a1.362,1.362,0,0,1,1.529-.794,1.179,1.179,0,0,1,.762.6,1.024,1.024,0,0,1,.047.855,15.848,15.848,0,0,1-7.425,7.957l.006.014-.459.224-.154.079-.311.147,0-.008a15.852,15.852,0,0,1-10.83,1.088,1.026,1.026,0,0,1-.652-.56A1.164,1.164,0,0,1,103.5,119.335Z" fill="#7c7c7c"/>
    </g>
    <g id="Grupo_134844" data-name="Grupo 134844">
      <path id="Trazado_192248" data-name="Trazado 192248" d="M103.759,111.747a30.286,30.286,0,0,1,.321-4.585,2.513,2.513,0,0,1,2.281-2.049,6.392,6.392,0,0,0,1.141-.166,2.645,2.645,0,0,0,1.11-.629,6.855,6.855,0,0,1,1.037-.94,3.255,3.255,0,0,1,3.91,0,19.6,19.6,0,0,1,3.563,2.98s1.627,1.477,1.477,2.579c-.449,3.279-3.874,4.843-3.874,4.843l-4.141,2.052a9.36,9.36,0,0,1-6.113.374C103.167,115.8,103.759,111.747,103.759,111.747Z" fill="#eb996e"/>
    </g>
    <g id="Grupo_134845" data-name="Grupo 134845">
      <path id="Trazado_192249" data-name="Trazado 192249" d="M112.153,106.179c-.546.722-.631.765-2.051,1.5a9.8,9.8,0,0,1-3.733,1.158,1.406,1.406,0,0,1-.645-1.089c.032-.256-1.344.24-.6,2.106s1.069,4.841,5.519,2.717,4.627-5.119,4.347-5.983c-.6-1.856-1.814-1.918-2.981-1.965a1.25,1.25,0,0,1,.4.613A1.544,1.544,0,0,1,112.153,106.179Z" fill="#954421"/>
    </g>
    <g id="Grupo_134846" data-name="Grupo 134846">
      <path id="Trazado_192250" data-name="Trazado 192250" d="M107.111,112.878c1.336,2.7,3.834,3.842,6.344,2.6s3.125-4.012,1.789-6.708-3.051-4.385-6.34-2.857C105.516,107.487,105.775,110.181,107.111,112.878Z" fill="#fddfcb"/>
    </g>
    <g id="Grupo_134847" data-name="Grupo 134847">
      <path id="Trazado_192251" data-name="Trazado 192251" d="M114.313,115.783a7.244,7.244,0,0,1-3.713,1.035,6.069,6.069,0,0,1-5.108-2.62,5.35,5.35,0,0,1-.506-5.8c.461-.787.834-.892.834-.892a1.288,1.288,0,0,0-.118,1.64c.587.832,1.3.431,2.007.135a2.689,2.689,0,0,1,2.961.5C111.647,110.736,115.655,113.177,114.313,115.783Z" fill="#d7a32a"/>
    </g>
    <g id="Grupo_134848" data-name="Grupo 134848" opacity="0.22">
      <path id="Trazado_192252" data-name="Trazado 192252" d="M102.344,102.738c-.195-.072-.367.017-.571.227l-.826.714c-.226.2-.429.112-.317-.138l.46-.808a7.615,7.615,0,0,1,.98-1.345c.277-.314.313-.426.092-.559a1.554,1.554,0,0,0-1.339-.146,2.7,2.7,0,0,0-1.7,1.507,12.179,12.179,0,0,0-.641,1.585,3.321,3.321,0,0,0-.136.949,1.127,1.127,0,0,0-.382.407s-2.375,3.751-2.752,6.511a2.145,2.145,0,0,0,.115,1.133q1.644-.924,3.2-1.973a.922.922,0,0,1,.048-.745l1.9-4.468a.153.153,0,0,0-.02-.139,1.9,1.9,0,0,0,.91-.72l1.13-1.463A.34.34,0,0,0,102.344,102.738Z" fill="#121212"/>
    </g>
    <g id="Grupo_134849" data-name="Grupo 134849" opacity="0.22">
      <path id="Trazado_192253" data-name="Trazado 192253" d="M98.869,109.951l1.895-4.468a.151.151,0,0,0-.02-.138,1.913,1.913,0,0,0,.911-.721l1.13-1.463a.339.339,0,0,0-.149-.528c-.2-.073-.367.016-.571.226l-.827.714c-.226.2-.429.112-.317-.138l.461-.808a7.664,7.664,0,0,1,.979-1.345c.277-.314.314-.426.092-.558a1.549,1.549,0,0,0-1.338-.147,2.7,2.7,0,0,0-1.7,1.507,12.12,12.12,0,0,0-.642,1.585,3.281,3.281,0,0,0-.135.949,1.119,1.119,0,0,0-.382.407s-2.376,3.751-2.752,6.511a2.19,2.19,0,0,0,.094,1.088q1.641-.937,3.194-2A1.03,1.03,0,0,1,98.869,109.951Z" fill="#121212"/>
    </g>
    <g id="Grupo_134850" data-name="Grupo 134850">
      <path id="Trazado_192254" data-name="Trazado 192254" d="M108.165,112.834s-1.537-3.06-.4-5.068a3.864,3.864,0,0,1,3.012-2.05c.216-.006.863.051.863.051a3.182,3.182,0,0,0-2.13,1.175,3.037,3.037,0,0,0,.133,3.164C111.822,113.534,108.165,112.834,108.165,112.834Z" fill="#e8b73d"/>
    </g>
    <g id="Grupo_134851" data-name="Grupo 134851">
      <path id="Trazado_192255" data-name="Trazado 192255" d="M15.089,49.447a1.57,1.57,0,0,1-.385,1.945,16.647,16.647,0,0,0-3.591,20.185,1.57,1.57,0,0,1-.311,1.961,1.36,1.36,0,0,1-1.074.3,1.185,1.185,0,0,1-.825-.542A18.256,18.256,0,0,1,6.61,60.966l-.017,0,.107-.579.031-.2.076-.389h.01a18.268,18.268,0,0,1,6.4-10.781,1.193,1.193,0,0,1,.966-.223A1.351,1.351,0,0,1,15.089,49.447Z" fill="#7c7c7c"/>
    </g>
    <g id="Grupo_134852" data-name="Grupo 134852">
      <path id="Trazado_192256" data-name="Trazado 192256" d="M21.361,66.471c-.3-1-.277-1.109.018-2.924a11.3,11.3,0,0,1,1.481-4.252,1.622,1.622,0,0,1,1.452.145c.214.206.7-1.409-1.539-2s-5.219-2.321-6.3,3.258,1.577,7.79,2.569,8.123c2.131.714,3.021-.369,3.863-1.418a1.435,1.435,0,0,1-.841-.052A1.792,1.792,0,0,1,21.361,66.471Z" fill="#8c5c25"/>
    </g>
    <g id="Grupo_134853" data-name="Grupo 134853">
      <path id="Trazado_192257" data-name="Trazado 192257" d="M21.674,54.288a35.632,35.632,0,0,1,4.505,3.589,3.535,3.535,0,0,1,.133,3.954A7.759,7.759,0,0,0,25.685,63a3.084,3.084,0,0,0-.176,1.461,7.857,7.857,0,0,1,.161,1.6,3.748,3.748,0,0,1-2.679,3.622,21.354,21.354,0,0,1-5.761,1.121s-2.046,1.175-2.964.281c-2.733-2.66-1.715-7.441-1.715-7.441l.933-5.243a9.44,9.44,0,0,1,3.6-5.66C18.357,51.819,21.674,54.288,21.674,54.288Z" fill="#8a4a43"/>
    </g>
    <g id="Grupo_134854" data-name="Grupo 134854">
      <path id="Trazado_192258" data-name="Trazado 192258" d="M17.841,61.725a2.208,2.208,0,0,1,1.12.513c.439.428.971.85.761,1.613-.359,1.306-2,.9-2,.9s1.145-.089,1.322-.852A1.906,1.906,0,0,0,17.841,61.725Z" fill="#e8b73d"/>
    </g>
    <path id="Trazado_192259" data-name="Trazado 192259" d="M98.48,33.813c-.446-.17-.9-.331-1.357-.474l-.068.517c-.018.209-.78.355-.622.544l-.043.4a.568.568,0,0,0,.157.459l-.411,2.076s-.239,1.137,1.206,2.287a9.273,9.273,0,0,0,.7,1.736c.288.2.6.067.481-.693a10.65,10.65,0,0,1-.284-1.95l.329-1.226a.351.351,0,0,1,.252-.24c.058-.008.237-.083.455.6l.341,1.127a.622.622,0,0,0,.408.442c.226.069.428-.23.339-.54l-.318-2.1a1.53,1.53,0,0,0-.344-.656,1.67,1.67,0,0,0-.184-.244.605.605,0,0,0,.483-.667l-.046-.245a.28.28,0,0,1,.127-.018C99.558,34.561,99.024,34.18,98.48,33.813Z" fill="#231f20" opacity="0.18"/>
    <path id="Trazado_192260" data-name="Trazado 192260" d="M98.391,33.754c-.615-.234-1.244-.447-1.888-.63l-.1.6a1,1,0,0,0,.149.7l-.042.4a.567.567,0,0,0,.156.459l-.41,2.076s-.24,1.137,1.205,2.287a9.205,9.205,0,0,0,.7,1.736c.289.2.6.066.482-.693a10.459,10.459,0,0,1-.285-1.95l.33-1.226a.349.349,0,0,1,.25-.24c.059-.008.238-.082.456.6L99.736,39a.624.624,0,0,0,.408.441c.225.069.429-.23.339-.541l-.318-2.1a1.53,1.53,0,0,0-.343-.655,1.77,1.77,0,0,0-.185-.244c.388-.052.472-.338.493-.657l-.013-.186a.307.307,0,0,1,.09-.022Q99.314,34.376,98.391,33.754Z" fill="#231f20" opacity="0.18"/>
    <g id="Grupo_134855" data-name="Grupo 134855">
      <path id="Trazado_192261" data-name="Trazado 192261" d="M110.652,25.42a1.223,1.223,0,0,0,.862,1.282,12.967,12.967,0,0,1,8.656,13.426,1.221,1.221,0,0,0,.813,1.314,1.052,1.052,0,0,0,.862-.109.924.924,0,0,0,.43-.637,14.232,14.232,0,0,0-2.063-9.55l.012-.007-.251-.384-.082-.132-.172-.257-.007.005a14.213,14.213,0,0,0-7.847-5.82.923.923,0,0,0-.761.129A1.054,1.054,0,0,0,110.652,25.42Z" fill="#7c7c7c"/>
    </g>
    <g id="Grupo_134856" data-name="Grupo 134856">
      <path id="Trazado_192262" data-name="Trazado 192262" d="M105.605,29.49a9.918,9.918,0,0,0,1.224,7.466l1.087,1.686.021.033.1.159c.006.011.014.022.021.033.2.316.178.275,1.254,1.946a9.324,9.324,0,0,0,6.128,3.937s3.055.25,3.752-2.392c.825-3.127-.929-7.371-.929-7.371l-2.439-3.818a12.829,12.829,0,0,0-6.856-4.277C106.242,26.34,105.605,29.49,105.605,29.49Z" fill="#ff6d00"/>
    </g>
    <g id="Grupo_134857" data-name="Grupo 134857">
      <path id="Trazado_192263" data-name="Trazado 192263" d="M105.867,46.676a1.668,1.668,0,0,1,1.021,1.686l-.368,1.365s-.336.72-1.422.425c-1.314-.357-1.794-.47-1.794-.47a2.54,2.54,0,0,1-1.792-2.048c-.012-.068-.092-.9-.084-.957.144-1.086.967.1,2.2.567l.978.419c.3.1.376-.147.117-.378l-.919-.848c-.265-.206-.388-.388-.33-.62a.389.389,0,0,1,.582-.238Z" fill="#fddfcb"/>
    </g>
    <g id="Grupo_134859" data-name="Grupo 134859">
      <g id="Grupo_134858" data-name="Grupo 134858">
        <path id="Trazado_192264" data-name="Trazado 192264" d="M119.277,41.973s-2.178,7.371-2.429,8.568S116,53.6,114.139,53.059l-8.111-2.431c-.277-.1-.7-.32-.6-.739l.943-2.21a.672.672,0,0,1,.92-.426l4.141,1.056c.484.179.6-.539.674-.753s1-3.94,1-3.94Z" fill="#abd3dd"/>
      </g>
    </g>
    <g id="Grupo_134860" data-name="Grupo 134860">
      <path id="Trazado_192265" data-name="Trazado 192265" d="M83.017,131.456a1.447,1.447,0,0,0-1.826.049,15.324,15.324,0,0,1-18.876.151,1.444,1.444,0,0,0-1.827-.019,1.248,1.248,0,0,0-.436.929,1.094,1.094,0,0,0,.365.833,16.817,16.817,0,0,0,10.838,3.979v.016l.541-.008.184,0,.364-.01v-.008a16.816,16.816,0,0,0,10.773-4.153,1.1,1.1,0,0,0,.351-.843A1.248,1.248,0,0,0,83.017,131.456Z" fill="#7c7c7c"/>
    </g>
    <g id="Grupo_134861" data-name="Grupo 134861">
      <path id="Trazado_192266" data-name="Trazado 192266" d="M82.485,123.841a11.728,11.728,0,0,0-8.228-3.5l-2.37.02h-.046l-.225,0H71.57l-2.735.022a11.02,11.02,0,0,0-7.806,3.628s-1.839,3.564.439,5.854c3.405,3.423,9.492,3.122,9.492,3.122l1.609-.013s6.6.477,9.93-4.354A3.821,3.821,0,0,0,82.485,123.841Z" fill="#383736"/>
    </g>
    <g id="Grupo_134862" data-name="Grupo 134862">
      <path id="Trazado_192267" data-name="Trazado 192267" d="M76.36,124.147l-2.753-2.855-1.72.014h-.046l-.225,0H71.57l-1.994.016-2.9,2.882c-2.481,2.126-.822,3.826-.822,3.826,2.476,2.257,8.264,2.2,11.154.107C77.007,128.139,79.373,126.568,76.36,124.147Z" fill="#cde7ee"/>
    </g>
    <g id="Grupo_134863" data-name="Grupo 134863">
      <path id="Trazado_192268" data-name="Trazado 192268" d="M70.73,124.019l.888,1.459v.035l.01-.018.011.018v-.035L72.5,124l-.437-.832a.6.6,0,0,1-.065-.431l.471-2.386-.758.006h-.045l-.225,0H71.4c-.15,0-.367,0-.677.005l.5,2.359a.417.417,0,0,1-.06.429Z" fill="#ae1f24"/>
    </g>
    <g id="Grupo_134864" data-name="Grupo 134864" opacity="0.12">
      <path id="Trazado_192269" data-name="Trazado 192269" d="M69.8,110.546a3,3,0,0,0-3.2.3s-.44.382-1.692,1.394a1.913,1.913,0,0,0-.56.682.593.593,0,0,0-.641.051l-.287.195a.9.9,0,0,0-.4.155l-5.01,3.05a46.507,46.507,0,0,0,6.171,1.653l.691-.509a1.486,1.486,0,0,0,.817-1.155l.068-.046a1.423,1.423,0,0,0,.449-.68,2.636,2.636,0,0,0,1.5-.255l2.3-.973a.461.461,0,0,0,.176-.722c-.184-.214-.443-.224-.823-.112l-1.448.294c-.4.087-.581-.155-.282-.375l1.078-.647c1.305-.857,3.008-.825,2.067-1.717C70.725,111.079,69.875,110.582,69.8,110.546Z" fill="#091013"/>
    </g>
    <g id="Grupo_134865" data-name="Grupo 134865">
      <path id="Trazado_192270" data-name="Trazado 192270" d="M76.841,120.956a5.391,5.391,0,1,1-10.754.086,5.232,5.232,0,0,1,5.153-5.5C74.791,115.518,76.815,117.763,76.841,120.956Z" fill="#fddfcb"/>
    </g>
    <g id="Grupo_134866" data-name="Grupo 134866">
      <path id="Trazado_192271" data-name="Trazado 192271" d="M65.983,123.132a.665.665,0,0,1-.685.643h0a.667.667,0,0,1-.7-.632l.32-1.662a.66.66,0,0,1,.692-.628.972.972,0,0,1,.357.634Z" fill="#fddfcb"/>
    </g>
    <g id="Grupo_134867" data-name="Grupo 134867">
      <path id="Trazado_192272" data-name="Trazado 192272" d="M76.794,123.045a.668.668,0,0,0,.7.632h0a.666.666,0,0,0,.686-.643l-.345-1.655a.661.661,0,0,0-.7-.618.972.972,0,0,0-.346.64Z" fill="#fddfcb"/>
    </g>
    <g id="Grupo_134868" data-name="Grupo 134868">
      <path id="Trazado_192273" data-name="Trazado 192273" d="M75.756,118.02l-1.626-.763a1.677,1.677,0,0,0-1.732.031l-.092.04c-.238.094-.329.049-.332-.223,0-.127-.008-.448,0-.61,0-.2-.083-.219-.219-.175L68.6,117.372c-2.252.722-3.384,3.253-3.369,5.122l.008,1.038c.025,3.08,2.637,5.08,5.664,5.055l1.076-.008c2.731-.022,5.61-1.822,5.585-4.9l-.007-.885C77.533,119.612,76.593,118.41,75.756,118.02Z" fill="#b5904d"/>
    </g>
    <g id="Grupo_134869" data-name="Grupo 134869" opacity="0.22">
      <path id="Trazado_192274" data-name="Trazado 192274" d="M69.452,110.555a3,3,0,0,0-3.2.3s-.441.381-1.693,1.392a1.919,1.919,0,0,0-.559.683.6.6,0,0,0-.642.051l-.287.195a.909.909,0,0,0-.4.155L57.8,116.3a46.327,46.327,0,0,0,6.125,1.673l.6-.45a1.487,1.487,0,0,0,.817-1.155l.069-.046a1.428,1.428,0,0,0,.448-.68,2.629,2.629,0,0,0,1.5-.255l2.3-.973a.46.46,0,0,0,.175-.721c-.182-.216-.442-.224-.823-.113l-1.447.293c-.4.089-.58-.154-.282-.373l1.079-.647c1.3-.858,3.007-.826,2.067-1.718C70.375,111.088,69.526,110.591,69.452,110.555Z" fill="#070d0e"/>
    </g>
    <g id="Grupo_134870" data-name="Grupo 134870">
      <path id="Trazado_192275" data-name="Trazado 192275" d="M66.806,115.388a1.968,1.968,0,0,1-2.322-.187l-1.054-1.3s-.456-.822.579-1.658c1.252-1.011,1.692-1.392,1.692-1.392a3,3,0,0,1,3.2-.3c.073.036.923.533.974.581.941.892-.763.86-2.067,1.718l-1.079.647c-.3.219-.119.462.282.373l1.448-.293c.38-.111.64-.1.823.113a.459.459,0,0,1-.176.721Z" fill="#fddfcb"/>
    </g>
    <g id="Grupo_134871" data-name="Grupo 134871">
      <path id="Trazado_192276" data-name="Trazado 192276" d="M61.288,114.014l2.43,3.07,1.144-.761c.4-.39.817-.9,0-1.84l-1.133-1.322c-.436-.482-.734-.28-.921-.181Z" fill="#c2dde4"/>
    </g>
    <g id="Grupo_134872" data-name="Grupo 134872">
      <path id="Trazado_192277" data-name="Trazado 192277" d="M61.468,129.867,54.82,121.89c-1.6-2.354-.36-3.8.087-4.164l7.217-4.4c.457-.28.638-.192,1.036.276.428.5.714.873,1.13,1.356a1.568,1.568,0,0,1-.314,2.562l-3.706,2.319c-.4.4-.445.614.137,1.124l2.359,1.9Z" fill="#383736"/>
    </g>
    <g id="Grupo_134873" data-name="Grupo 134873" opacity="0.67">
      <path id="Trazado_192278" data-name="Trazado 192278" d="M76.242,121.231a5.362,5.362,0,0,0-2.056-2.9.681.681,0,0,1-.217-.805,1.874,1.874,0,0,0-.639.212,3.2,3.2,0,0,0-1.011,1.026l-.15.305a2.846,2.846,0,0,1,.514-1.191,2.117,2.117,0,0,1,.541-.47,4.517,4.517,0,0,0-1.889.725c-.128.093-.353.232-.258-.082a1.406,1.406,0,0,1,.243-.385,3.921,3.921,0,0,0-1.061.537,3.439,3.439,0,0,0-.607.643,3.685,3.685,0,0,1,.759-1.052,3.3,3.3,0,0,1,1.44-.726,4.407,4.407,0,0,0-3.507,1.334,6.11,6.11,0,0,0-1.94,4.439,4.541,4.541,0,0,0,1.823,3.949c2.153,1.729,5.467.747,6.589-.281A5.713,5.713,0,0,0,76.242,121.231Z" fill="#e1bf6c"/>
    </g>
    <g id="Grupo_134874" data-name="Grupo 134874">
      <path id="Trazado_192279" data-name="Trazado 192279" d="M30.235,29.143a1.288,1.288,0,0,0,1.254-1.04A13.676,13.676,0,0,1,44.66,17.6a1.29,1.29,0,0,0,1.294-.994,1.112,1.112,0,0,0-.206-.892.974.974,0,0,0-.715-.384,15.01,15.01,0,0,0-9.8,3.176l-.009-.011-.376.3-.129.1-.251.207.005.007a15,15,0,0,0-5.277,8.85.972.972,0,0,0,.218.785A1.107,1.107,0,0,0,30.235,29.143Z" fill="#7c7c7c"/>
    </g>
    <g id="Grupo_134875" data-name="Grupo 134875">
      <path id="Trazado_192280" data-name="Trazado 192280" d="M34.8,34.2a10.465,10.465,0,0,0,7.7-2.076L44.162,30.8l.032-.025.157-.126.032-.025L46.292,29.1a9.832,9.832,0,0,0,3.482-6.848s-.672-3.517-3.532-3.869c-4.277-.528-8.386,3.037-8.386,3.037l-1.122.9s-4.9,3.3-4.574,8.527A3.411,3.411,0,0,0,34.8,34.2Z" fill="#383736"/>
    </g>
    <g id="Grupo_134876" data-name="Grupo 134876">
      <path id="Trazado_192281" data-name="Trazado 192281" d="M36.659,29.164l6.3,2.6,1.2-.958.032-.025.157-.126.032-.025,1.392-1.11-1.082-6.761Z" fill="#cde7ee"/>
    </g>
    <g id="Grupo_134877" data-name="Grupo 134877">
      <path id="Trazado_192282" data-name="Trazado 192282" d="M42.96,27.6l-1.428-.536-.019-.025,0,.018-.017-.006.02.024.2,1.511.766.343a.538.538,0,0,1,.283.266l.983,1.935.529-.421.033-.026.156-.125.032-.025.472-.377-1.65-1.381a.369.369,0,0,1-.194-.334Z" fill="#ae1f24"/>
    </g>
    <g id="Grupo_134878" data-name="Grupo 134878">
      <path id="Trazado_192283" data-name="Trazado 192283" d="M46.292,29.1a8.915,8.915,0,0,0,.774-.7l-.417-.646.365-.844-2.635-3.159,1.4,5.76Z" fill="#565656"/>
    </g>
    <g id="Grupo_134879" data-name="Grupo 134879">
      <path id="Trazado_192284" data-name="Trazado 192284" d="M42.971,31.753l-5.188-2.687,2.441,3.311.907-.154.494.523a9.372,9.372,0,0,0,.883-.624Z" fill="#565656"/>
    </g>
    <g id="Grupo_134880" data-name="Grupo 134880">
      <path id="Trazado_192285" data-name="Trazado 192285" d="M37,29.18A4.812,4.812,0,1,1,44.506,23.2a4.67,4.67,0,0,1-.592,6.7A4.58,4.58,0,0,1,37,29.18Z" fill="#fddfcb"/>
    </g>
    <g id="Grupo_134881" data-name="Grupo 134881">
      <path id="Trazado_192286" data-name="Trazado 192286" d="M43.426,21.671a.6.6,0,0,1,.128-.829h0a.594.594,0,0,1,.837.06l.691,1.342a.592.592,0,0,1-.14.824.87.87,0,0,1-.6-.249Z" fill="#fddfcb"/>
    </g>
    <g id="Grupo_134882" data-name="Grupo 134882">
      <path id="Trazado_192287" data-name="Trazado 192287" d="M35.883,27.688a.6.6,0,0,0-.837-.061h0a.6.6,0,0,0-.127.83l1.154.972a.589.589,0,0,0,.834.046.863.863,0,0,0-.11-.64Z" fill="#fddfcb"/>
    </g>
    <g id="Grupo_134883" data-name="Grupo 134883">
      <path id="Trazado_192288" data-name="Trazado 192288" d="M40.089,30.714l.03.661a3.325,3.325,0,0,0,2.7-2.045l.036-.08c.1-.206.189-.231.354-.053.077.084.274.292.369.4.115.131.186.1.25-.016L45.275,27a4.848,4.848,0,0,0-.845-5.405l-.628-.682c-1.864-2.022-4.789-1.777-6.775.054l-.707.652c-1.792,1.651-2.616,4.567-.752,6.589l.535.581C37.69,30.423,39.3,30.958,40.089,30.714Z" fill="#532d13"/>
    </g>
    <g id="Grupo_134884" data-name="Grupo 134884">
      <path id="Trazado_192289" data-name="Trazado 192289" d="M37.831,29.323a4.22,4.22,0,0,0,2.721.855.61.61,0,0,1,.626.4c.107-.128.674-.564.75-.989a3.9,3.9,0,0,0,.054-1.284l-.084-.292a2.529,2.529,0,0,1,.374,1.1,1.884,1.884,0,0,1-.076.634,4.046,4.046,0,0,0,.815-1.611c.028-.138.093-.365.219-.1a1.259,1.259,0,0,1,.07.4,3.477,3.477,0,0,0,.38-.99,3.114,3.114,0,0,0,.016-.79,1.33,1.33,0,0,1,.254.641,2.4,2.4,0,0,1-.184,1.745c.1-.062.858-.775,1.061-2.877a5.458,5.458,0,0,0-1.38-4.1,4.056,4.056,0,0,0-3.573-1.517c-2.461.148-4.063,2.785-4.188,4.137A5.565,5.565,0,0,0,37.831,29.323Z" fill="#623c16"/>
    </g>
    <g id="Grupo_134885" data-name="Grupo 134885">
      <path id="Trazado_192290" data-name="Trazado 192290" d="M101.046,104.81a1.456,1.456,0,0,1-1.565.721l-1.344.018a2.873,2.873,0,0,1,.025-1.7,12.08,12.08,0,0,1,.642-1.584,2.7,2.7,0,0,1,1.7-1.508,1.549,1.549,0,0,1,1.338.147c.222.133.185.244-.092.558a7.755,7.755,0,0,0-.98,1.345l-.46.808c-.112.251.091.342.317.139l.827-.715c.2-.21.375-.3.571-.226a.34.34,0,0,1,.149.529Z" fill="#fddfcb"/>
    </g>
    <g id="Grupo_134886" data-name="Grupo 134886">
      <path id="Trazado_192291" data-name="Trazado 192291" d="M105.029,116.372l-7.017-1.818c-2.076-.487-3.352-1.119-3.119-2.833.376-2.76,2.752-6.511,2.752-6.511a1.033,1.033,0,0,1,1.465-.394c.268.146,1.16.6,1.045.852l-1.895,4.468c-.254.652-.073,1.049.694,1.068l5.182.321Z" fill="#eb996e"/>
    </g>
    <g id="Grupo_134887" data-name="Grupo 134887" opacity="0.5">
      <path id="Trazado_192292" data-name="Trazado 192292" d="M22.157,54.619a17.889,17.889,0,0,1-5.579-1.13Z" fill="#349319"/>
    </g>
    <g id="Grupo_134888" data-name="Grupo 134888">
      <path id="Trazado_192293" data-name="Trazado 192293" d="M87.207,12.987a1.314,1.314,0,0,1-1.648-.2,13.931,13.931,0,0,0-17.071-1.711,1.313,1.313,0,0,1-1.656-.135,1.137,1.137,0,0,1-.317-.877.993.993,0,0,1,.4-.723,15.279,15.279,0,0,1,10.141-2.7V6.632l.49.052.166.013.33.039v.009a15.282,15.282,0,0,1,9.4,4.657.993.993,0,0,1,.247.791A1.128,1.128,0,0,1,87.207,12.987Z" fill="#7c7c7c"/>
    </g>
    <g id="Grupo_134889" data-name="Grupo 134889">
      <path id="Trazado_192294" data-name="Trazado 192294" d="M73.4,19.305c.815-.311.907-.3,2.441-.171a9.451,9.451,0,0,1,3.642.965,1.358,1.358,0,0,1-.029,1.221c-.158.192,1.219.491,1.572-1.412s1.606-4.5-3.118-5.045-6.4,1.812-6.615,2.661c-.46,1.823.5,2.5,1.429,3.133a1.208,1.208,0,0,1-.011-.7A1.5,1.5,0,0,1,73.4,19.305Z" fill="#8c5c25"/>
    </g>
    <g id="Grupo_134890" data-name="Grupo 134890">
      <path id="Trazado_192295" data-name="Trazado 192295" d="M83.587,18.79a29.847,29.847,0,0,1-2.708,3.988,2.96,2.96,0,0,1-3.291.363,6.46,6.46,0,0,0-1.017-.449,2.582,2.582,0,0,0-1.23-.054,6.516,6.516,0,0,1-1.328.237,3.136,3.136,0,0,1-3.192-2,17.875,17.875,0,0,1-1.3-4.736S68.407,14.5,69.1,13.679c2.046-2.449,6.1-1.9,6.1-1.9l4.434.444a7.9,7.9,0,0,1,4.952,2.643C85.436,15.865,83.587,18.79,83.587,18.79Z" fill="#ffd506"/>
    </g>
    <g id="Grupo_134891" data-name="Grupo 134891">
      <path id="Trazado_192296" data-name="Trazado 192296" d="M80.931,13.174c-1.616-2.41-4.148-3.193-6.391-1.69s-2.484,4.228-.868,6.638,3.466,3.81,6.418,1.937C83.131,18.129,82.546,15.586,80.931,13.174Z" fill="#fddfcb"/>
    </g>
    <g id="Grupo_134892" data-name="Grupo 134892">
      <path id="Trazado_192297" data-name="Trazado 192297" d="M78.814,16.556a3.894,3.894,0,0,1-.846,2.945c-1.356,1.586-2.745,1.366-3.489.817a6.863,6.863,0,0,1-2.647-3.95,5.07,5.07,0,0,1,2.293-5.407c1.679-1.125,3.422-1.27,5.655,0,1.874,1.067,2.967,3.625,2.524,4.862C82.008,16.648,80.269,17.406,78.814,16.556Z" fill="#7e3d1b"/>
    </g>
    <g id="Grupo_134893" data-name="Grupo 134893">
      <path id="Trazado_192298" data-name="Trazado 192298" d="M77.3,17.515s-3.2,2.449-2.631,2.965a2.9,2.9,0,0,0,3.021.341,3.748,3.748,0,0,0,1.283-1.551,4.517,4.517,0,0,0,.321-1.626,9.355,9.355,0,0,1,.149.924,1.921,1.921,0,0,1-.227,1.312,2.853,2.853,0,0,0,.642-.982,1.8,1.8,0,0,0-.087-1.491,3.067,3.067,0,0,0,1.071.278,1.122,1.122,0,0,0,.859-.492s1.01-1.529.975-.793c-.018.385.233.924.5.745a2.664,2.664,0,0,0,.562-.833s-.448.507-.564.087.352-1.148-.757-1.069S80.449,15.488,77.3,17.515Z" fill="#7e3d1b"/>
    </g>
    <g id="Grupo_134894" data-name="Grupo 134894">
      <path id="Trazado_192299" data-name="Trazado 192299" d="M77.818,15.482a4.139,4.139,0,0,1,.82,1.883,2.7,2.7,0,0,1-1.1,2.563c-2.03,1.181-3.73-1.108-3.73-1.108a2.868,2.868,0,0,0,2.973.537C78.706,18.382,77.818,15.482,77.818,15.482Z" fill="#b65527"/>
    </g>
    <g id="Grupo_134895" data-name="Grupo 134895">
      <path id="Trazado_192300" data-name="Trazado 192300" d="M77.86,15.522a2.318,2.318,0,0,1,.426,1.221,2.571,2.571,0,0,1-1.116,2.021c-.995.591-2.007-.457-2.007-.457a1.642,1.642,0,0,0,1.719.028A2.714,2.714,0,0,0,77.86,15.522Z" fill="#b65527"/>
    </g>
    <g id="Grupo_134896" data-name="Grupo 134896">
      <path id="Trazado_192301" data-name="Trazado 192301" d="M77.769,15.334a1.849,1.849,0,0,1,.34.973c0,.513.051,1.079-.531,1.4-1,.541-1.7-.684-1.7-.684s.718.639,1.281.3A1.6,1.6,0,0,0,77.769,15.334Z" fill="#b65527"/>
    </g>
    <g id="Grupo_134897" data-name="Grupo 134897" opacity="0.78">
      <path id="Trazado_192302" data-name="Trazado 192302" d="M78.73,15.894s.787,1.546,2.019,1.094c.934-.343.673-1.088.924-1.324.2-.191.534.1.534.1s-.658-.983-1.146-.1A1.416,1.416,0,0,1,78.73,15.894Z" fill="#c56428"/>
    </g>
    <g id="Grupo_134898" data-name="Grupo 134898">
      <path id="Trazado_192303" data-name="Trazado 192303" d="M77.614,10.144a3.293,3.293,0,0,1-1.091,4.519,3.294,3.294,0,0,1-4.6-.709,3.294,3.294,0,0,1,1.091-4.519A3.293,3.293,0,0,1,77.614,10.144Z" fill="#9e4a23"/>
    </g>
    <g id="Grupo_134899" data-name="Grupo 134899" opacity="0.78">
      <path id="Trazado_192304" data-name="Trazado 192304" d="M77.191,10.481a4.042,4.042,0,0,1-.084,1.938,3.209,3.209,0,0,1-2.116,2.165,2.109,2.109,0,0,1-2.342-.338c-1.246-1.364.414-2.6.414-2.6a1.544,1.544,0,0,0,.273,2.389,1.425,1.425,0,0,0,1.3.083A3.764,3.764,0,0,0,77.191,10.481Z" fill="#c56428"/>
    </g>
    <g id="Grupo_134900" data-name="Grupo 134900" opacity="0.78">
      <path id="Trazado_192305" data-name="Trazado 192305" d="M76.019,12.386a1.841,1.841,0,0,1-.547.873,2.222,2.222,0,0,1-1.429.467,1.094,1.094,0,0,1-1-.819c-.074-.512.484-.949.484-.949s-.342.977.414,1.3C75.18,13.79,76.019,12.386,76.019,12.386Z" fill="#c56428"/>
    </g>
    <g id="Grupo_134901" data-name="Grupo 134901">
      <path id="Trazado_192306" data-name="Trazado 192306" d="M132.779,64.373a1.3,1.3,0,0,0-.04,1.642,13.78,13.78,0,0,1-.734,16.958,1.3,1.3,0,0,0-.1,1.64,1.127,1.127,0,0,0,.815.435.983.983,0,0,0,.765-.29,15.117,15.117,0,0,0,4.072-9.549h.015l.018-.488.01-.164.009-.329H137.6a15.12,15.12,0,0,0-3.233-9.866.982.982,0,0,0-.74-.354A1.121,1.121,0,0,0,132.779,64.373Z" fill="#7c7c7c"/>
    </g>
    <g id="Grupo_134902" data-name="Grupo 134902">
      <path id="Trazado_192307" data-name="Trazado 192307" d="M126.721,63.674s-4.131,3.511-4.327,8.054c-.092,2.11-.075,1.729-.092,2.129l0,.041c0,.035-.005.1-.009.2l0,.041c-.017.4-.015.347-.106,2.457a9.908,9.908,0,0,0,2.9,7.178A4.034,4.034,0,0,0,129.8,84c3.045-2.164,3.719-6.964,3.719-6.964l.227-4.809s-.178-5.454-2.771-7.378A5.079,5.079,0,0,0,126.721,63.674Z" fill="#fff"/>
    </g>
    <g id="Grupo_134911" data-name="Grupo 134911">
      <g id="Grupo_134903" data-name="Grupo 134903">
        <path id="Trazado_192308" data-name="Trazado 192308" d="M124.669,71.956a4.848,4.848,0,1,1,7.321,6.32,4.708,4.708,0,0,1-6.744.658A4.615,4.615,0,0,1,124.669,71.956Z" fill="#fddfcb"/>
      </g>
      <g id="Grupo_134904" data-name="Grupo 134904">
        <path id="Trazado_192309" data-name="Trazado 192309" d="M133.3,76.923a.6.6,0,0,1,.844-.027h0a.6.6,0,0,1,.1.84l-1.2.933a.6.6,0,0,1-.842.015.88.88,0,0,1,.135-.641Z" fill="#fddfcb"/>
      </g>
      <g id="Grupo_134905" data-name="Grupo 134905">
        <path id="Trazado_192310" data-name="Trazado 192310" d="M125.938,70.571a.6.6,0,0,0-.1-.84h0a.6.6,0,0,0-.845.028l-.749,1.324a.6.6,0,0,0,.11.835.877.877,0,0,0,.614-.228Z" fill="#fddfcb"/>
      </g>
      <g id="Grupo_134906" data-name="Grupo 134906">
        <path id="Trazado_192311" data-name="Trazado 192311" d="M123.838,75.145l0,0s.1.256.018.387c-.111.173-.181.31-.777.26a4.522,4.522,0,0,0,1.3,1.154c.276.16.942.492.942.492.217.079.345.1.105.149a1.385,1.385,0,0,1-.629-.047c-.115.133,1.146.907,1.259.969a10.864,10.864,0,0,0,1.9.8,5.088,5.088,0,0,0,5.472-1.5l.61-.707c1.81-2.1,1.23-5-.831-6.777l-.732-.632c-1.859-1.6-4.873-2.1-6.684,0l-.52.6A5.47,5.47,0,0,0,123.838,75.145Z" fill="#532d13"/>
      </g>
      <g id="Grupo_134907" data-name="Grupo 134907">
        <path id="Trazado_192312" data-name="Trazado 192312" d="M125.037,72.1a5.053,5.053,0,0,0-.317,3.334.641.641,0,0,1-.342.707,1.759,1.759,0,0,0,.587.243,3.014,3.014,0,0,0,1.353-.109l.295-.125a2.711,2.711,0,0,1-1.1.534,2.063,2.063,0,0,1-.675,0,4.294,4.294,0,0,0,1.8.647c.148.012.394.05.134.217a1.388,1.388,0,0,1-.411.125,3.675,3.675,0,0,0,1.087.27,3.222,3.222,0,0,0,.829-.085,3.477,3.477,0,0,1-1.189.283,3.12,3.12,0,0,1-1.475-.369,4.162,4.162,0,0,0,3.325,1.209,5.758,5.758,0,0,0,4.118-1.974,4.276,4.276,0,0,0,1.131-3.94c-.471-2.56-3.44-3.9-4.874-3.858A5.384,5.384,0,0,0,125.037,72.1Z" fill="#623c16"/>
      </g>
      <g id="Grupo_134910" data-name="Grupo 134910">
        <g id="Grupo_134908" data-name="Grupo 134908">
          <path id="Trazado_192313" data-name="Trazado 192313" d="M131.122,71.412a1.172,1.172,0,0,1,.107,1,1.343,1.343,0,0,1-.453.525.893.893,0,0,0,.688-.41.56.56,0,0,0,.127-.5,1.243,1.243,0,0,1-.31,1.522c.028-.011.727-.257.86-.829a1.186,1.186,0,0,0-.473-1.17,1.639,1.639,0,0,0-.67-.3Z" fill="#532d13"/>
        </g>
        <g id="Grupo_134909" data-name="Grupo 134909">
          <path id="Trazado_192314" data-name="Trazado 192314" d="M131.486,71.586a.394.394,0,0,1,.354-.276.635.635,0,0,1,.594.279,1.2,1.2,0,0,0-.467-.538.894.894,0,0,0-.942.215Z" fill="#532d13"/>
        </g>
      </g>
    </g>
    <g id="Grupo_134922" data-name="Grupo 134922">
      <g id="Grupo_134912" data-name="Grupo 134912">
        <path id="Trazado_192315" data-name="Trazado 192315" d="M20.781,58.6c-2.5-2.4-5.653-2.676-7.891-.351s-1.829,5.566.67,7.971,5.014,3.568,7.986.632C24.607,63.831,23.279,61.009,20.781,58.6Z" fill="#fddfcb"/>
      </g>
      <g id="Grupo_134921" data-name="Grupo 134921">
        <g id="Grupo_134913" data-name="Grupo 134913">
          <path id="Trazado_192316" data-name="Trazado 192316" d="M19.167,63.089a4.651,4.651,0,0,1-.241,3.654c-1.181,2.2-2.858,2.292-3.866,1.84a8.2,8.2,0,0,1-4.093-3.94,6.058,6.058,0,0,1,1.305-6.9c1.675-1.74,3.673-2.351,6.6-1.435,2.46.769,4.386,3.478,4.182,5.035C22.92,62.386,21.082,63.713,19.167,63.089Z" fill="#d7a32a"/>
        </g>
        <g id="Grupo_134920" data-name="Grupo 134920">
          <g id="Grupo_134914" data-name="Grupo 134914">
            <path id="Trazado_192317" data-name="Trazado 192317" d="M17.644,64.593s-3.117,3.672-2.32,4.131a3.465,3.465,0,0,0,3.614-.37,4.482,4.482,0,0,0,1.1-2.136A5.384,5.384,0,0,0,20,64.238a10.833,10.833,0,0,1,.408,1.041,2.3,2.3,0,0,1,.069,1.59,3.409,3.409,0,0,0,.5-1.31,2.145,2.145,0,0,0-.479-1.718,3.659,3.659,0,0,0,1.32.052A1.342,1.342,0,0,0,22.7,63.1s.792-2.041.939-1.173c.076.455.505,1.019.771.743a3.188,3.188,0,0,0,.444-1.116s-.394.707-.635.245.118-1.428-1.156-1.055S20.806,61.428,17.644,64.593Z" fill="#d7a32a"/>
          </g>
          <g id="Grupo_134915" data-name="Grupo 134915">
            <path id="Trazado_192318" data-name="Trazado 192318" d="M23.064,60.744a4.064,4.064,0,0,0-.374-2.385c-1.6-3.068-7.955-5.659-11.572.71C9.076,62.664,23.064,60.744,23.064,60.744Z" fill="#d7a32a"/>
          </g>
          <g id="Grupo_134916" data-name="Grupo 134916">
            <path id="Trazado_192319" data-name="Trazado 192319" d="M15.06,68.583a4.8,4.8,0,0,1-2.286-1.115,6.942,6.942,0,0,1-.368-10.182C14.442,55.5,15.06,68.583,15.06,68.583Z" fill="#d7a32a"/>
          </g>
          <g id="Grupo_134917" data-name="Grupo 134917">
            <path id="Trazado_192320" data-name="Trazado 192320" d="M17.732,62.088a4.947,4.947,0,0,1,1.435,1.991,3.225,3.225,0,0,1-.636,3.273C16.46,69.245,13.9,67,13.9,67s2.03,1.155,3.607-.127C19.5,65.249,17.732,62.088,17.732,62.088Z" fill="#e8b73d"/>
          </g>
          <g id="Grupo_134918" data-name="Grupo 134918">
            <path id="Trazado_192321" data-name="Trazado 192321" d="M17.492,62.439a2.766,2.766,0,0,1,.809,1.317,3.076,3.076,0,0,1-.792,2.643c-1.011.943-2.457-.023-2.457-.023a1.96,1.96,0,0,0,2.013-.4C18.519,64.558,17.492,62.439,17.492,62.439Z" fill="#e8b73d"/>
          </g>
          <g id="Grupo_134919" data-name="Grupo 134919">
            <path id="Trazado_192322" data-name="Trazado 192322" d="M18.417,62.867a4.613,4.613,0,0,0,2.814.573c1.375-.055.95-1.973,1.825-2.094,0,0-.565-.748-1.556.19-.669.632.065-3.756-2.967-3.989a7.886,7.886,0,0,0-6.5,3.117,2.911,2.911,0,0,0,.138,3.956C14.649,67.55,18.72,65.569,18.417,62.867Z" fill="#e8b73d"/>
          </g>
        </g>
      </g>
    </g>
    <g id="Grupo_134924" data-name="Grupo 134924">
      <path id="Trazado_192323" data-name="Trazado 192323" d="M10.588,60.067a1.629,1.629,0,0,0,1.907.569,2.436,2.436,0,0,0,1.721-2.052,1.649,1.649,0,0,0-.543-1.126Z" fill="#4470b2"/>
      <g id="Grupo_134923" data-name="Grupo 134923">
        <path id="Trazado_192324" data-name="Trazado 192324" d="M12.089,60.005a3.413,3.413,0,0,0,1.4-1.6c.653-1.332.617-2.6-.16-3.2-.691-.534-4.166.635-4.59,3.248S10.747,60.57,12.089,60.005Z" fill="#e8b73d"/>
        <path id="Trazado_192325" data-name="Trazado 192325" d="M13.325,55.574a3.915,3.915,0,0,1-.089,2.048s-.671-1.819-1.677-1.907a3.986,3.986,0,0,1,1.218,1.854c.141.918-.794,1.756-1.606,2.145a1.368,1.368,0,0,1-2.013-.874s-.265,1.059,1.2,1.271a3.865,3.865,0,0,0,1.572-.042c.054-.021.107-.042.159-.064a3.413,3.413,0,0,0,1.4-1.6S14.031,56.474,13.325,55.574Z" fill="#d7a32a"/>
        <path id="Trazado_192326" data-name="Trazado 192326" d="M11.453,59.458S9,59.873,9.22,57.533A2.437,2.437,0,0,0,11.453,59.458Z" fill="#d7a32a"/>
      </g>
    </g>
    <g id="Grupo_134930" data-name="Grupo 134930">
      <g id="Grupo_134929" data-name="Grupo 134929">
        <g id="Grupo_134925" data-name="Grupo 134925">
          <path id="Trazado_192327" data-name="Trazado 192327" d="M113.219,29.869a4.729,4.729,0,0,1,3.811,5.487,4.73,4.73,0,0,1-5.748,3.405,4.428,4.428,0,0,1-3.574-5.28A4.343,4.343,0,0,1,113.219,29.869Z" fill="#9b5b2f"/>
        </g>
        <g id="Grupo_134926" data-name="Grupo 134926">
          <path id="Trazado_192328" data-name="Trazado 192328" d="M112.987,39.237a.564.564,0,0,1,.4.686h0a.566.566,0,0,1-.652.457l-1.312-.574a.561.561,0,0,1-.39-.69.826.826,0,0,1,.591-.175Z" fill="#9b5b2f"/>
        </g>
        <g id="Grupo_134927" data-name="Grupo 134927">
          <path id="Trazado_192329" data-name="Trazado 192329" d="M114.936,30.3a.563.563,0,0,0,.651-.456h0a.563.563,0,0,0-.4-.686l-1.431-.024a.558.558,0,0,0-.641.464.827.827,0,0,0,.464.406Z" fill="#9b5b2f"/>
        </g>
        <g id="Grupo_134928" data-name="Grupo 134928">
          <path id="Trazado_192330" data-name="Trazado 192330" d="M111.79,31.593v0l-.446.651a1.147,1.147,0,0,0-.24,1.163l.012.066c.027.174-.016.229-.2.189-.085-.018-.3-.063-.409-.089-.13-.032-.158.022-.15.12l.228,2.261a3.722,3.722,0,0,0,2.912,3.026l.695.151a3.6,3.6,0,0,0,4.234-3.019l.157-.721c.4-1.827-.369-4.022-2.431-4.472l-.592-.129C114.446,30.544,112.6,30.433,111.79,31.593Z" fill="#7c4c22"/>
        </g>
      </g>
      <circle id="Elipse_5818" data-name="Elipse 5818" cx="1.165" cy="1.165" r="1.165" transform="translate(111.443 29.426)" fill="#382010"/>
      <path id="Trazado_192331" data-name="Trazado 192331" d="M112.113,30.609a.865.865,0,1,1-.865-.865A.865.865,0,0,1,112.113,30.609Z" fill="#382010"/>
      <circle id="Elipse_5819" data-name="Elipse 5819" cx="1.165" cy="1.165" r="1.165" transform="translate(109.191 31.36)" fill="#382010"/>
      <path id="Trazado_192332" data-name="Trazado 192332" d="M111.372,31.351a.865.865,0,1,1-.865-.865A.865.865,0,0,1,111.372,31.351Z" fill="#382010"/>
      <circle id="Elipse_5820" data-name="Elipse 5820" cx="1.165" cy="1.165" r="1.165" transform="translate(114.329 38.06)" fill="#382010"/>
      <circle id="Elipse_5821" data-name="Elipse 5821" cx="1.165" cy="1.165" r="1.165" transform="translate(117.048 32.551)" fill="#382010"/>
      <path id="Trazado_192333" data-name="Trazado 192333" d="M114.824,39.454a.865.865,0,1,1-.865-.865A.866.866,0,0,1,114.824,39.454Z" fill="#382010"/>
      <circle id="Elipse_5822" data-name="Elipse 5822" cx="1.165" cy="1.165" r="1.165" transform="translate(111.376 37.556)" fill="#382010"/>
      <path id="Trazado_192334" data-name="Trazado 192334" d="M112.215,38.289a.865.865,0,1,1-.865-.865A.865.865,0,0,1,112.215,38.289Z" fill="#382010"/>
      <path id="Trazado_192335" data-name="Trazado 192335" d="M111.209,37.6a.866.866,0,1,1-.865-.865A.865.865,0,0,1,111.209,37.6Z" fill="#382010"/>
      <path id="Trazado_192336" data-name="Trazado 192336" d="M110.063,33.416a.7.7,0,1,1-.7-.695A.7.7,0,0,1,110.063,33.416Z" fill="#382010"/>
      <path id="Trazado_192337" data-name="Trazado 192337" d="M110.249,34.317a.7.7,0,1,1-.695-.695A.7.7,0,0,1,110.249,34.317Z" fill="#382010"/>
      <path id="Trazado_192338" data-name="Trazado 192338" d="M110.2,35.456a.7.7,0,1,1-.695-.7A.695.695,0,0,1,110.2,35.456Z" fill="#382010"/>
      <path id="Trazado_192339" data-name="Trazado 192339" d="M110.229,35.535a.695.695,0,1,1-.695-.695A.695.695,0,0,1,110.229,35.535Z" fill="#382010"/>
      <path id="Trazado_192340" data-name="Trazado 192340" d="M110.414,36.568a.695.695,0,1,1-.695-.695A.695.695,0,0,1,110.414,36.568Z" fill="#382010"/>
      <path id="Trazado_192341" data-name="Trazado 192341" d="M118.778,32.322a.865.865,0,1,1-.865-.865A.865.865,0,0,1,118.778,32.322Z" fill="#382010"/>
      <path id="Trazado_192342" data-name="Trazado 192342" d="M119.229,35.076a.865.865,0,1,1-.865-.865A.865.865,0,0,1,119.229,35.076Z" fill="#382010"/>
      <path id="Trazado_192343" data-name="Trazado 192343" d="M118.275,31.5a.865.865,0,1,1-.865-.865A.865.865,0,0,1,118.275,31.5Z" fill="#382010"/>
      <path id="Trazado_192344" data-name="Trazado 192344" d="M117.931,38.731a.865.865,0,1,1-.865-.866A.866.866,0,0,1,117.931,38.731Z" fill="#382010"/>
      <path id="Trazado_192345" data-name="Trazado 192345" d="M118.567,37.486a.866.866,0,1,1-.865-.865A.865.865,0,0,1,118.567,37.486Z" fill="#382010"/>
      <path id="Trazado_192346" data-name="Trazado 192346" d="M119.335,36.175a.985.985,0,1,1-.985-.984A.984.984,0,0,1,119.335,36.175Z" fill="#382010"/>
      <path id="Trazado_192347" data-name="Trazado 192347" d="M115.962,30.856a1.624,1.624,0,1,1-1.624-1.624A1.625,1.625,0,0,1,115.962,30.856Z" fill="#382010"/>
      <path id="Trazado_192348" data-name="Trazado 192348" d="M117.516,30.949a1.24,1.24,0,1,1-1.24-1.24A1.24,1.24,0,0,1,117.516,30.949Z" fill="#382010"/>
      <path id="Trazado_192349" data-name="Trazado 192349" d="M118.637,34.935a4.785,4.785,0,1,1-4.785-4.785A4.784,4.784,0,0,1,118.637,34.935Z" fill="#382010"/>
      <path id="Trazado_192350" data-name="Trazado 192350" d="M116.045,36.806a.708.708,0,1,1-.742,1.17.8.8,0,1,0,.742-1.17Z" fill="#4f2e17"/>
      <path id="Trazado_192351" data-name="Trazado 192351" d="M111.479,37.229a.708.708,0,1,1-1.235-.629.8.8,0,1,0,1.235.629Z" fill="#4f2e17"/>
      <path id="Trazado_192352" data-name="Trazado 192352" d="M115.692,30.889a.708.708,0,1,1,.682,1.206.8.8,0,1,0-.682-1.206Z" fill="#4f2e17"/>
      <path id="Trazado_192353" data-name="Trazado 192353" d="M115.37,35.62a.486.486,0,0,1,.938.185.48.48,0,0,1-.143.336.546.546,0,1,0-.795-.521Z" fill="#4f2e17"/>
      <path id="Trazado_192354" data-name="Trazado 192354" d="M114.885,35.869a.486.486,0,1,1,.722-.619.546.546,0,1,0-.722.619Z" fill="#4f2e17"/>
      <path id="Trazado_192355" data-name="Trazado 192355" d="M115.868,32.29A.485.485,0,1,1,116.5,33a.545.545,0,1,0-.628-.712Z" fill="#4f2e17"/>
      <path id="Trazado_192356" data-name="Trazado 192356" d="M110.28,33.081a.576.576,0,1,1,.389-1.059.648.648,0,1,0-.389,1.059Z" fill="#4f2e17"/>
      <path id="Trazado_192357" data-name="Trazado 192357" d="M110.526,31.932a.519.519,0,1,1,.539-.86.582.582,0,1,0-.539.86Z" fill="#4f2e17"/>
      <path id="Trazado_192358" data-name="Trazado 192358" d="M110.934,32.54a.38.38,0,1,1,.394-.63.427.427,0,1,0-.394.63Z" fill="#4f2e17"/>
    </g>
    <g id="Grupo_134931" data-name="Grupo 134931" opacity="0.13">
      <path id="Trazado_192359" data-name="Trazado 192359" d="M36.762,42.663l6.943.473c.3,0,.535.051.556-.337l.1.007c.178.014.444-.056.465-.273a.992.992,0,0,0,.674.29l2.014.108s.265.018.936-.521c.118-.1.208-.537.335-.618a.909.909,0,0,1,.238-.114c.451-.177,1.194-.472,1.355-.56.749-.41.31-.72-.128-.678A7.4,7.4,0,0,1,48,40.467l-.766-.144a.841.841,0,0,1-.681-.589c-.162-.313.2-.479.56-.616l.858-.33a1.171,1.171,0,0,0,.7-.617c.1-.226,0-.6-.272-.645l-1.812.812c-1.066-.132-1.674.916-1.869,1.47a1.222,1.222,0,0,0-.153-.006l-.221-.009c.006-.193-.045-.284-.393-.332l-4-.235C38.844,40.325,37.759,41.458,36.762,42.663Z" fill="#091013"/>
    </g>
    <g id="Grupo_134932" data-name="Grupo 134932" opacity="0.26">
      <path id="Trazado_192360" data-name="Trazado 192360" d="M36.885,42.518l6.74.448c.3,0,.535.051.556-.336l.1.006c.179.013.445-.057.465-.273a.994.994,0,0,0,.675.289l1.847.147a2.255,2.255,0,0,0,.98-.428c.292-.193.253-.756.41-.795,1.907-.477,2.04-.973,2.04-.993,0-.185-.027-.45-.464-.41a7.86,7.86,0,0,1-2.317.124l-.766-.143c-.507-.069-.853-.448-.808-.657.076-.35.4-.375.768-.5l.676-.265a1.357,1.357,0,0,0,.658-.581c.088-.258-.039-.627-.311-.582l-1.628.6c-1.067-.133-2.243,1.736-2.243,1.736.005-.194-.045-.284-.394-.332l-3.846-.414C38.937,40.23,37.865,41.344,36.885,42.518Z" fill="#060a0b"/>
    </g>
    <g id="Grupo_134933" data-name="Grupo 134933">
      <path id="Trazado_192361" data-name="Trazado 192361" d="M48.41,37.847c-.015.179-.18.454-.73.706l-.8.28c-.391.128-.56.182-.575.469a.707.707,0,0,0,.652.609l.767.144a7.576,7.576,0,0,0,2.281.064c.438-.04.434.087.5.223.008.017.128.258-.382.456-.623.242-1.725.608-1.725.608a1.19,1.19,0,0,1-1.334,1.215L45.23,42.41c-.925-.083-.954-.815-.929-1.383l.041-.965a3.216,3.216,0,0,1,.04-.438,2.828,2.828,0,0,1,1.934-1.7l1.655-.426A.339.339,0,0,1,48.41,37.847Z" fill="#fddfcb"/>
    </g>
    <g id="Grupo_134934" data-name="Grupo 134934">
      <path id="Trazado_192362" data-name="Trazado 192362" d="M43.379,42.346l.155-2.986.76.029c.24,0,.4,0,.384.48l-.118,2.22c.006.243-.282.319-.469.305Z" fill="#c2dde4"/>
    </g>
    <g id="Grupo_134935" data-name="Grupo 134935">
      <path id="Trazado_192363" data-name="Trazado 192363" d="M32.16,30.848l.644,8.47c.122.858.179,2.809,2.615,2.881l8.012.524c.31,0,.549.056.558-.368l.077-2.863c.022-.273.022-.387-.386-.443l-5.767-.34c-.506-.047-.844-.257-.793-.763L37.49,34Z" fill="#383736"/>
    </g>
    <g id="Grupo_134936" data-name="Grupo 134936" opacity="0.23">
      <path id="Trazado_192364" data-name="Trazado 192364" d="M53.938,33.452,54,33.184a.719.719,0,0,0,.228-.355L54.93,29.3a46.343,46.343,0,0,0-4.354,2.062l-.028.375a1.294,1.294,0,0,0,.071.723l-.012.167a.654.654,0,0,0,.066.521,2.1,2.1,0,0,0-.571,1.5l-.133,2.228a.411.411,0,0,0,.508.425c.244-.061.354-.265.416-.613l.338-1.275c.088-.355.353-.4.41-.078l.092,1.12c.169,1.383-.53,2.732.555,2.332.059-.021.793-.5.851-.549a2.68,2.68,0,0,0,1.028-2.68s-.126-.482-.424-1.811A.7.7,0,0,0,53.938,33.452Z" fill="#121212"/>
    </g>
    <g id="Grupo_134937" data-name="Grupo 134937" opacity="0.23">
      <path id="Trazado_192365" data-name="Trazado 192365" d="M53.779,33.478l.06-.267a.73.73,0,0,0,.227-.355l.7-3.487a45.935,45.935,0,0,0-4.35,2.081l-.024.313a1.3,1.3,0,0,0,.071.723l-.012.168a.655.655,0,0,0,.066.521,2.1,2.1,0,0,0-.571,1.5L49.81,36.9a.411.411,0,0,0,.508.426c.245-.061.355-.265.416-.614l.338-1.274c.088-.356.353-.4.41-.078l.092,1.119c.169,1.383-.53,2.733.555,2.333.059-.022.793-.505.851-.55a2.679,2.679,0,0,0,1.028-2.679s-.126-.482-.424-1.812A.7.7,0,0,0,53.779,33.478Z" fill="#121212"/>
    </g>
    <g id="Grupo_134938" data-name="Grupo 134938">
      <path id="Trazado_192366" data-name="Trazado 192366" d="M50.287,34.622a1.757,1.757,0,0,1,1.07-1.783l1.453-.33s.839-.04,1.1,1.119c.313,1.4.444,1.9.444,1.9a2.679,2.679,0,0,1-1.028,2.679c-.058.045-.791.528-.85.55-1.086.4-.386-.95-.556-2.333l-.092-1.119c-.056-.325-.321-.278-.409.078l-.339,1.274c-.061.349-.171.553-.415.614a.41.41,0,0,1-.508-.426Z" fill="#fddfcb"/>
    </g>
    <g id="Grupo_134939" data-name="Grupo 134939">
      <path id="Trazado_192367" data-name="Trazado 192367" d="M54.447,31.968l-3.538-.926L50.792,32.6c-.065.493-.034.688,1.061.9l1.523.3c.572.1.67-.207.747-.379Z" fill="#c2dde4"/>
    </g>
    <g id="Grupo_134940" data-name="Grupo 134940">
      <path id="Trazado_192368" data-name="Trazado 192368" d="M47,18.574l6.892,2.679c2.424.768,2.346,2.471,2.234,2.972L54.41,32.8c-.167.447-.342.485-.88.377-.577-.118-.982-.22-1.539-.33-1.2-.235-1.317-.226-1.258-1.14l.459-6.017c.065-.5-.1-.764-.793-.8L48.906,24.7Z" fill="#383736"/>
    </g>
    <g id="Grupo_134946" data-name="Grupo 134946">
      <g id="Grupo_134941" data-name="Grupo 134941" opacity="0.23">
        <path id="Trazado_192369" data-name="Trazado 192369" d="M73.2,31.921A2.753,2.753,0,0,0,72.165,30.5a.428.428,0,0,0,0-.3L68.552,26.04c-1.186.1-2.379.208-3.537.4.789,1.838,4.231,4.555,4.613,4.777a1.4,1.4,0,0,0,.2.094l-.04.736a4.269,4.269,0,0,0,.61,2.461c.031.046.4.856.513,1.085.573,1.2,1.086,1.5,1.156.845.044-.415-.814-2.185-.671-2.543l.323-.634c.179-.24.348-.269.417-.26.05.006.346-.059.552.543l.307.719a.538.538,0,0,0,.24.46c.173.108.409-.1.4-.375l-.152-1.36A3.858,3.858,0,0,0,73.2,31.921Z" fill="#121212"/>
      </g>
      <g id="Grupo_134942" data-name="Grupo 134942" opacity="0.23">
        <path id="Trazado_192370" data-name="Trazado 192370" d="M73.394,31.94a2.759,2.759,0,0,0-1.04-1.423.422.422,0,0,0,0-.3L68.734,26.03c-1.183.1-2.4.195-3.551.38.75,1.838,4.249,4.6,4.634,4.824a1.407,1.407,0,0,0,.2.094l-.041.736a4.266,4.266,0,0,0,.61,2.46,9.508,9.508,0,0,0,.438,1.453c.2.234.83,1.571,1.183.635.147-.39-.8-2.209-.653-2.567l.353-.767c.18-.24.348-.269.418-.26.05.006.345-.059.551.542l.307.72a.537.537,0,0,0,.241.46c.172.108.408-.1.4-.375l-.152-1.36A3.892,3.892,0,0,0,73.394,31.94Z" fill="#121212"/>
      </g>
      <g id="Grupo_134944" data-name="Grupo 134944">
        <g id="Grupo_134943" data-name="Grupo 134943">
          <path id="Trazado_192371" data-name="Trazado 192371" d="M72.853,34.683a.537.537,0,0,1-.241-.46l-.307-.719c-.206-.6-.5-.537-.551-.543-.07-.009-.239.02-.418.261l-.12.689c.017.441.679,1.81.635,2.224-.07.66-.361.473-.556.239-.162-.2-1.248-1.861-1.28-1.907a4.261,4.261,0,0,1-.609-2.46l.115-2.123,1.621-.055.491.555a2.541,2.541,0,0,1,1.192,1.5,3.858,3.858,0,0,1,.279,1.065l.152,1.36C73.261,34.587,73.026,34.791,72.853,34.683Z" fill="#fddfcb"/>
        </g>
      </g>
      <g id="Grupo_134945" data-name="Grupo 134945">
        <path id="Trazado_192372" data-name="Trazado 192372" d="M71.865,12.064A6.868,6.868,0,0,0,67.4,15.852c-.784,1.691-3.56,8.005-2.856,10.3.561,1.831,4.306,4.79,4.705,5.022a1.462,1.462,0,0,0,.993.171c.637-.128,1.769-.587,1.541-1.187L67.71,25.335c-.23-.814.772-3.383,1.344-5.248.511-1.669,1.033-1.334,1.033-1.334Z" fill="#ffd506"/>
      </g>
    </g>
    <path id="Trazado_192373" data-name="Trazado 192373" d="M83.159,37.716c.681-1.72,3.531-8.228,3.708-8.9a4.11,4.11,0,0,0,.056-.656q-1.821-.594-3.7-1.041l.046.638-2.976,8.991a.315.315,0,0,0,.094.322,2.67,2.67,0,0,0-.4.892c-.216.866.175,1.608-.388,2.648s1.356.865,1.236-.848a3.4,3.4,0,0,1,.7,1.641,4.763,4.763,0,0,0,.32,1.749c.245.491.677-.059,1.2-.492s.338-1.7.039-2.9a6.241,6.241,0,0,1-.212-1.853A.31.31,0,0,0,83.159,37.716Z" opacity="0.18"/>
    <path id="Trazado_192374" data-name="Trazado 192374" d="M83.345,37.813c.68-1.72,3.531-8.228,3.707-8.9a4.2,4.2,0,0,0,.058-.693q-1.823-.6-3.71-1.057l.051.691-2.977,8.991a.316.316,0,0,0,.1.322,2.67,2.67,0,0,0-.4.892c-.217.866.175,1.608-.389,2.648s1.356.865,1.236-.848a3.41,3.41,0,0,1,.705,1.641,4.767,4.767,0,0,0,.319,1.749c.245.491.677-.059,1.2-.492s.338-1.7.039-2.9a6.241,6.241,0,0,1-.212-1.853A.311.311,0,0,0,83.345,37.813Z" opacity="0.18"/>
    <g id="Grupo_134947" data-name="Grupo 134947">
      <path id="Trazado_192375" data-name="Trazado 192375" d="M99.908,39.586a.624.624,0,0,1-.409-.442l-.341-1.127c-.217-.687-.4-.613-.455-.6a.348.348,0,0,0-.251.239l-.33,1.227a10.7,10.7,0,0,0,.285,1.949c.119.761-.193.9-.481.694a9.205,9.205,0,0,1-.7-1.736c-1.445-1.15-1.206-2.287-1.206-2.287l.5-2.5,1.273-.146.569.384c.313.011,1.087.8,1.231,1.057a1.514,1.514,0,0,1,.344.656l.319,2.1C100.336,39.355,100.133,39.654,99.908,39.586Z" fill="#9b5b2f"/>
    </g>
    <g id="Grupo_134949" data-name="Grupo 134949">
      <g id="Grupo_134948" data-name="Grupo 134948">
        <path id="Trazado_192376" data-name="Trazado 192376" d="M108.878,26.9s-6.929-1.053-8.123-1.319-3.13-.493-3.411,1.428l-1.221,7.382c-.026.292,0,.771.424.856l2.366.371c.55.1.742-.417.769-.662l.87-3.517c.036-.514.74-.328.963-.3s4,.713,4,.713Z" fill="#ff6d00"/>
      </g>
    </g>
    <g id="Grupo_134951" data-name="Grupo 134951">
      <g id="Grupo_134950" data-name="Grupo 134950">
        <path id="Trazado_192377" data-name="Trazado 192377" d="M110.478,27.319l-.406-.136c-.457.2-.9.419-1.342.66a11.749,11.749,0,0,0-1.675,1.111,5.229,5.229,0,0,0-1.313,1.514,5.953,5.953,0,0,0-.459.891c-.022.056-.042.114-.061.171l.023.027c.023-.061.047-.123.073-.183a5.923,5.923,0,0,1,.489-.864,5.121,5.121,0,0,1,1.343-1.434,11.481,11.481,0,0,1,1.689-1.028A17.856,17.856,0,0,1,110.478,27.319Z" fill="#bc4c00"/>
      </g>
    </g>
    <g id="Grupo_134952" data-name="Grupo 134952" opacity="0.2">
      <path id="Trazado_192378" data-name="Trazado 192378" d="M113.2,44.485s-.954,2.682-1.023,2.9-.19.931-.674.753l-4.14-1.057a.845.845,0,0,0-.671.055,2.578,2.578,0,0,0-.749-.632l-1.81-1.1a.389.389,0,0,0-.582.237c-.057.233.065.415.331.62l.918.848c.26.231.183.475-.116.378l-.978-.418c-1.235-.471-2.058-1.654-2.2-.567-.007.059.072.888.084.957a2.543,2.543,0,0,0,1.792,2.048s.48.113,1.794.47a2,2,0,0,0,.363.065,1.012,1.012,0,0,0,.568.411l8.111,2.431c1.866.537,2.245-1.322,2.5-2.519s1.961-7.556,1.961-7.556Z" fill="#121212"/>
    </g>
    <g id="Grupo_134953" data-name="Grupo 134953" opacity="0.2">
      <path id="Trazado_192379" data-name="Trazado 192379" d="M113.292,43.695c-1.041,4.147-1.1,3.91-1.024,3.668.069-.214-.211.763-.694.585l-4.141-1.057a.837.837,0,0,0-.671.055,2.565,2.565,0,0,0-.749-.632l-1.81-1.1a.389.389,0,0,0-.582.237c-.057.232.065.414.331.62l.918.848c.26.231.183.474-.116.378l-.978-.418c-1.235-.471-2.058-1.654-2.2-.568-.008.06.072.889.084.957a2.539,2.539,0,0,0,1.791,2.048s.48.113,1.8.471a2.076,2.076,0,0,0,.362.065,1.015,1.015,0,0,0,.568.41l8.111,2.431c1.866.537,1.822-1.321,2.073-2.518s2.747-7.954,2.747-7.954Z" fill="#121212"/>
    </g>
    <g id="Grupo_134954" data-name="Grupo 134954">
      <path id="Trazado_192380" data-name="Trazado 192380" d="M105.867,46.676a1.668,1.668,0,0,1,1.021,1.686l-.368,1.365s-.336.72-1.422.425c-1.314-.357-1.794-.47-1.794-.47a2.54,2.54,0,0,1-1.792-2.048c-.012-.068-.092-.9-.084-.957.144-1.086.967.1,2.2.567l.978.419c.3.1.376-.147.117-.378l-.919-.848c-.265-.206-.388-.388-.33-.62a.389.389,0,0,1,.582-.238Z" fill="#9b5b2f"/>
    </g>
    <g id="Grupo_134956" data-name="Grupo 134956">
      <g id="Grupo_134955" data-name="Grupo 134955">
        <path id="Trazado_192381" data-name="Trazado 192381" d="M119.277,41.973s-2.178,7.371-2.429,8.568S116,53.6,114.139,53.059l-8.111-2.431c-.277-.1-.7-.32-.6-.739l.943-2.21a.672.672,0,0,1,.92-.426l4.141,1.056c.484.179.6-.539.674-.753s1-3.94,1-3.94Z" fill="#ff6d00"/>
      </g>
    </g>
    <path id="Trazado_192382" data-name="Trazado 192382" d="M118.669,67.211a46.152,46.152,0,0,0-.825-5c-1.03-.155-1.9-.273-2.446-.328-2.413-.242-9.242.792-10.707,1.021a.3.3,0,0,0-.236.21l-.529.074a.322.322,0,0,0-.152.123,4.1,4.1,0,0,0-.776-.136c-.874-.067-2.006-.076-2.006-.076A3.982,3.982,0,0,0,98.37,64.48a2.827,2.827,0,0,0-.306,1.619c-.012.314.2.316.674.135a9.292,9.292,0,0,1,1.952-.535l1.117-.175c.332-.021.349.249.021.42l-1.168.632c-.328.143-.5.3-.5.552a.414.414,0,0,0,.538.4l2.15-.656a2.505,2.505,0,0,0,1.083-.582.479.479,0,0,0,.457.23l.337-.067.013.141a.318.318,0,0,0,.326.29l9.738-.3Z" opacity="0.18"/>
    <path id="Trazado_192383" data-name="Trazado 192383" d="M118.7,67.458a46.308,46.308,0,0,0-.8-4.992c-.992-.148-1.825-.262-2.36-.316-2.413-.241-9.242.793-10.706,1.022a.3.3,0,0,0-.237.21l-.529.074a.327.327,0,0,0-.152.123,4.1,4.1,0,0,0-.776-.136c-.874-.068-2.006-.076-2.006-.076a3.982,3.982,0,0,0-2.622,1.378,2.835,2.835,0,0,0-.306,1.619c-.011.314.2.316.674.135a9.292,9.292,0,0,1,1.952-.535l1.117-.175c.332-.021.349.249.021.419l-1.168.633c-.327.142-.5.3-.5.552a.414.414,0,0,0,.538.4l2.15-.656a2.519,2.519,0,0,0,1.084-.582.475.475,0,0,0,.456.229l.338-.066.012.141a.318.318,0,0,0,.327.29l9.738-.3Z" opacity="0.18"/>
    <path id="Trazado_192384" data-name="Trazado 192384" d="M114.743,77.911a.785.785,0,0,1-.279-.1l-8.614-4.966a.316.316,0,0,0-.406.08l-.235-.147a.9.9,0,0,0-1.273.116l-.448-.481a4.341,4.341,0,0,0-1.85-2.385l-1.418-.908c-.306-.156-.658-.007-.634.242a.663.663,0,0,0,.377.517l.628.73c.552.554.489.89.468.949a.37.37,0,0,1-.3.213l-1.347.091c-.474-.036-.913-1.48-1.4-1.656-.768-.282-.364.319-.212.662.127.285.445,1.684.477,1.746.9,1.743,2.135,1.728,2.135,1.728l2.435.356c-.1.474.008.771.1.831l.585.353,0,0a.317.317,0,0,0,.062.425c1.289.987,7.751,5.876,10.13,6.447.769.185,2.214.444,3.877.719a46.227,46.227,0,0,0,.949-5.023Z" opacity="0.18"/>
    <path id="Trazado_192385" data-name="Trazado 192385" d="M114.637,78.158a.791.791,0,0,1-.279-.1L105.744,73.1a.317.317,0,0,0-.406.08l-.235-.146a.9.9,0,0,0-1.273.115l-.448-.48a4.339,4.339,0,0,0-1.85-2.386l-1.418-.907c-.306-.157-.658-.008-.634.242a.663.663,0,0,0,.377.516l.628.73c.553.554.489.89.468.95a.374.374,0,0,1-.3.213l-1.347.09c-.474-.036-.913-1.479-1.395-1.656-.768-.282-.364.319-.212.662.127.285.445,1.684.477,1.746.9,1.744,2.136,1.728,2.136,1.728l2.434.356c-.1.474.008.771.095.831l.585.353,0,0a.317.317,0,0,0,.062.425c1.289.988,7.751,5.877,10.13,6.448.775.186,2.239.448,3.921.726a46.2,46.2,0,0,0,.975-5.021Z" opacity="0.18"/>
    <g id="Grupo_134957" data-name="Grupo 134957" opacity="0.22">
      <path id="Trazado_192386" data-name="Trazado 192386" d="M108.464,92.378c-.076.069-.144.139-.206.207a4.016,4.016,0,0,0-.327-.279,7.785,7.785,0,0,0-1.418-.77s-2.789.426-3.417,1.046c0,0-.238.49,0,.728s.856.132.856.132l-.123.106c-.177.354-.194.552.15.768l.6.33a1.686,1.686,0,0,0,2.083.1s-.008,0-.017,0c.354-.094.634-.183.634-.183a.44.44,0,0,0,.043-.056l.072-.109a.533.533,0,0,0,.182.525,34.832,34.832,0,0,1,4.439,1.842c.547-.878,1.1-1.756,1.594-2.672C111.307,93.034,108.695,92.168,108.464,92.378Zm-3.087,1.271c-.014.04-.133.36-.558.05a5.218,5.218,0,0,0-.528-.413h.041l.836.016a.694.694,0,0,1,.2.235A.185.185,0,0,1,105.377,93.649Z" fill="#121212"/>
    </g>
    <g id="Grupo_134958" data-name="Grupo 134958" opacity="0.22">
      <path id="Trazado_192387" data-name="Trazado 192387" d="M108.558,92.1c-.076.07-.144.139-.206.208a3.8,3.8,0,0,0-.327-.28c-.5-.386-1.5-1.01-1.5-1.01a1.515,1.515,0,0,0-2.036.65c-.254.343-1.947.781-1.1,1.51l.847.132a.613.613,0,0,0-.384.7l.093.159c2.118,1.311,3.112.582,3.112.582s.444-.238.609-.113a33.044,33.044,0,0,1,4.507,1.854c.542-.882,1.085-1.746,1.568-2.665C111.433,92.767,108.79,91.889,108.558,92.1Zm-3.088,1.271c-.013.041-.133.361-.558.05a5.2,5.2,0,0,0-.527-.413h.04l.837.016a.72.72,0,0,1,.2.236A.182.182,0,0,1,105.47,93.371Z" fill="#121212"/>
    </g>
    <g id="Grupo_134959" data-name="Grupo 134959">
      <path id="Trazado_192388" data-name="Trazado 192388" d="M105.895,93.447a.271.271,0,0,1-.171.389c-.4.069.122.887.339.984.313.14,2.151-.8,2.151-.8.009-.021.5-1.918.5-1.918s.068-.1-.587-.413c-.57-.27-1.684-.663-1.684-.663a1.56,1.56,0,0,0-1.923.869,1.078,1.078,0,0,0-1.2,1C103.3,93.5,105.314,92.739,105.895,93.447Z" fill="#fddfcb"/>
    </g>
    <g id="Grupo_134960" data-name="Grupo 134960">
      <path id="Trazado_192389" data-name="Trazado 192389" d="M117.492,111.7a5.5,5.5,0,0,0,1.924-5.386c-.307-1.908-.834-9.551-2.606-11.052-1.808-1.533-7.8-3.758-8.158-3.436a2.932,2.932,0,0,0-.711.96c-.268.629-.581,1.279-.182,1.58,0,0,4.588,1.527,6.114,2.93.723.665.932,5.112,1.078,6.151.152,1.073-.5,1.038-.5,1.038Z" fill="#eb996e"/>
    </g>
    <g id="Grupo_134961" data-name="Grupo 134961">
      <path id="Trazado_192390" data-name="Trazado 192390" d="M105.392,93.724c.514.226.535-.175.535-.175.487.145,1.489.813,1.508.746a1.708,1.708,0,0,1-2.078.406l-1.236-.653c-.277-.094-.037-.492.178-.6C104.7,93.258,105.107,93.6,105.392,93.724Z" fill="#fddfcb"/>
    </g>
    <g id="Grupo_134962" data-name="Grupo 134962">
      <path id="Trazado_192391" data-name="Trazado 192391" d="M117.695,111.382a5.935,5.935,0,0,1-4.08,4.69c-2.566.9-4.412-1.359-5.085-2.5a4.984,4.984,0,0,1,.742-6.23c1.695-1.562,3.807-.955,3.981-1.945.093-.528-.986-.663-1.345-.725-.12-.02-.2-.026-.2-.026a4.372,4.372,0,0,1,3.991,1.266A5.972,5.972,0,0,1,117.695,111.382Z" fill="#e8b73d"/>
    </g>
    <path id="Trazado_192392" data-name="Trazado 192392" d="M84.218,100.911a.322.322,0,0,0-.364-.246l-.055.009-.069-.544c-.023-.2-.158-.476-.4-.453a1.113,1.113,0,0,0,.173-.8l-.163-2.063a1.335,1.335,0,0,0-1.624-1.206s-.64-1.132-1.041-1.765c-.327-.517-.567-.334-.583-.322-.137.1-.277.124-.137.6a8.522,8.522,0,0,1,.42,2.522l.007.873a.772.772,0,0,1-.528.85c-.4-.007-.48-.3-.576-.647l-.071-.91c-.089-.457-.375-.607-.533-.624a.354.354,0,0,0-.4.47l.062,2c.084,1.2,1.368,1.642,2.019,1.738a1.488,1.488,0,0,0,.026.169l.1.643-.061.009a.306.306,0,0,0-.255.345l1.474,10.565a3.68,3.68,0,0,1-.006,1.048l-.735,4.844a46.111,46.111,0,0,0,5.386-1.321c.149-1.41.295-2.72.393-3.584a6.147,6.147,0,0,0-.119-2.077Z" opacity="0.18"/>
    <path id="Trazado_192393" data-name="Trazado 192393" d="M84.507,100.869a.323.323,0,0,0-.365-.246l-.054.009-.069-.544c-.023-.2-.158-.477-.4-.453a1.113,1.113,0,0,0,.172-.8l-.163-2.063A1.335,1.335,0,0,0,82,95.563s-.64-1.132-1.041-1.765c-.328-.518-.567-.335-.584-.322-.136.1-.276.123-.137.6a8.49,8.49,0,0,1,.42,2.522l.008.873a.773.773,0,0,1-.529.85c-.4-.007-.479-.3-.575-.647l-.071-.91c-.09-.457-.375-.607-.534-.624a.355.355,0,0,0-.4.47l.063,2c.084,1.2,1.368,1.642,2.019,1.738a1.541,1.541,0,0,0,.025.169l.1.643-.062.009a.306.306,0,0,0-.255.344l1.474,10.566a3.608,3.608,0,0,1-.006,1.048l-.732,4.83a46.241,46.241,0,0,0,5.39-1.36c.147-1.39.29-2.678.387-3.531a6.147,6.147,0,0,0-.12-2.077Z" opacity="0.18"/>
    <g id="Grupo_134963" data-name="Grupo 134963" opacity="0.23">
      <path id="Trazado_192394" data-name="Trazado 192394" d="M31.377,54.5a.092.092,0,0,0,.074.037,2.494,2.494,0,0,0,.11,1.078l.582,2.049a.392.392,0,0,0,.592.223c.2-.132.236-.351.181-.684l-.1-1.255c-.034-.348.19-.474.344-.2l.435.98a8.83,8.83,0,0,1,.576,1.828c.1.472.21.637.454.467.173-.12.164-.447.166-.558a14.852,14.852,0,0,0-.208-1.565c.025-.046.32.376.535,1.523.048.253.452.077.639-.475a3.778,3.778,0,0,0-.25-2.795s-.587-.9-1.091-1.558a3.65,3.65,0,0,0-1.2-1.032,17.391,17.391,0,0,0-1.467-2.556q-.834,1.527-1.556,3.123Z" fill="#121212"/>
    </g>
    <g id="Grupo_134964" data-name="Grupo 134964" opacity="0.23">
      <path id="Trazado_192395" data-name="Trazado 192395" d="M31.567,54.183a.089.089,0,0,0,.075.036A2.493,2.493,0,0,0,31.75,55.3l.582,2.048a.393.393,0,0,0,.592.225c.2-.133.237-.352.182-.685l-.1-1.255c-.033-.348.19-.475.344-.2l.435.979a8.856,8.856,0,0,1,.576,1.829c.1.472.21.638.455.467.171-.12.163-.447.165-.558a15.462,15.462,0,0,0-.208-1.565c.025-.046.319.376.535,1.522.048.254.451.078.639-.474a3.778,3.778,0,0,0-.25-2.795s-.588-.9-1.092-1.559a3.629,3.629,0,0,0-1.2-1.03,18.687,18.687,0,0,0-1.393-2.705c-.592,1.056-1.157,2.123-1.667,3.227Z" fill="#121212"/>
    </g>
    <g id="Grupo_134965" data-name="Grupo 134965">
      <path id="Trazado_192396" data-name="Trazado 192396" d="M31.533,56.093a1.678,1.678,0,0,1,.4-1.944l.9-1.258a3.321,3.321,0,0,1,1.553,1.183c.5.661,1.091,1.558,1.091,1.558a3.772,3.772,0,0,1,.25,2.795c-.187.552-.591.728-.638.475-.216-1.147-.51-1.568-.536-1.523a15.046,15.046,0,0,1,.209,1.566c0,.11.006.438-.166.558-.245.171-.354,0-.455-.467a8.818,8.818,0,0,0-.576-1.829l-.434-.979c-.155-.277-.378-.15-.345.2l.1,1.255c.055.333.02.552-.18.685a.393.393,0,0,1-.593-.224Z" fill="#fddfcb"/>
    </g>
    <g id="Grupo_134966" data-name="Grupo 134966">
      <path id="Trazado_192397" data-name="Trazado 192397" d="M16.987,52.818l7.161-6.871c1.169-1.242,2.221-.926,3.723.383a22.113,22.113,0,0,1,5.368,6.809c.356.816-1.736,2.116-1.888,1.839l-4.657-5.4c-.526-.651-1.015.106-1.308.771l-3.06,4.585Z" fill="#8a4a43"/>
    </g>
    <g id="Grupo_134994" data-name="Grupo 134994">
      <path id="Trazado_192398" data-name="Trazado 192398" d="M55.819,82.6a11.129,11.129,0,0,0-2.244.063c-1.956-1.033-3.088-.223-3.088-.223l-2.482,1.239c-.213-.5-.5-.707-.622-.708l-.4.026a.745.745,0,0,0-.436-.329l-7.14-.475s-3.376-.261-4.61,1.582c-1.414,2.113-3.226,5.491-4.5,7.954q.483,1.048,1.017,2.069l5.219-2.054s1.66-4.123,2.682-4.506c1.282-.483,7.256,0,7.256,0A2.977,2.977,0,0,0,46.669,87l.391-.019a1.01,1.01,0,0,0,1.1-.928l.724.156a4.881,4.881,0,0,0,3.247,1.015l1.9-.074c.383-.052.613-.417.43-.632a.748.748,0,0,0-.681-.234l-1.051-.272c-.868-.156-1.027-.508-1.045-.577a.416.416,0,0,1,.142-.39l1.187-.951a12.616,12.616,0,0,1,2.276-.624C56.18,83.231,56.181,82.822,55.819,82.6Z" fill="#091013" opacity="0.18"/>
      <path id="Trazado_192399" data-name="Trazado 192399" d="M55.66,82.365a11.056,11.056,0,0,0-2.244.063c-1.955-1.033-3.088-.224-3.088-.224l-2.481,1.24c-.214-.5-.5-.708-.623-.708l-.4.026a.739.739,0,0,0-.436-.329l-7.139-.475s-3.377-.262-4.611,1.582c-1.4,2.1-3.2,5.447-4.472,7.9q.484,1.068,1.019,2.107l5.192-2.043s1.66-4.123,2.682-4.507c1.282-.482,7.256,0,7.256,0a2.771,2.771,0,0,0,.195-.244l.391-.019a1.01,1.01,0,0,0,1.1-.927l.725.155a4.886,4.886,0,0,0,3.246,1.016l1.9-.074c.384-.052.613-.417.43-.632a.745.745,0,0,0-.681-.235l-1.051-.271c-.868-.156-1.026-.508-1.044-.577a.414.414,0,0,1,.141-.391l1.187-.951a12.616,12.616,0,0,1,2.276-.624C56.021,82.993,56.022,82.584,55.66,82.365Z" fill="#091013" opacity="0.18"/>
      <path id="Trazado_192400" data-name="Trazado 192400" d="M55.749,96.25a1.63,1.63,0,0,0-.662-.476l-.127-.647a.356.356,0,0,0-.146-.163,4.707,4.707,0,0,0,.1-.881c.023-.988-.037-2.263-.037-2.263a4.489,4.489,0,0,0-1.712-2.867,3.2,3.2,0,0,0-1.84-.245c-.354.007-.344.243-.111.767a10.579,10.579,0,0,1,.722,2.164l.265,1.246c.044.374-.259.409-.471.05l-.783-1.276c-.181-.359-.367-.546-.652-.533a.467.467,0,0,0-.415.629l.87,2.38a2.84,2.84,0,0,0,.722,1.184.539.539,0,0,0-.231.529l.16.633a.908.908,0,0,0-.1.485l1.6,5.668c.124.684-.345,1.126-1.079,1.229l-5.831,1.012-.745,5.054q.513.372,1.037.732c2.345-.727,7.53-2.368,9.978-3.425,1.285-.555,2.277-1.2,2.025-2.974Z" fill="#091013" opacity="0.18"/>
      <path id="Trazado_192401" data-name="Trazado 192401" d="M56.119,96.383a1.625,1.625,0,0,0-.661-.477l-.127-.646a.35.35,0,0,0-.147-.164,4.6,4.6,0,0,0,.106-.88c.023-.989-.037-2.263-.037-2.263a4.5,4.5,0,0,0-1.712-2.868,3.2,3.2,0,0,0-1.84-.245c-.354.007-.344.243-.112.768a10.478,10.478,0,0,1,.722,2.164l.266,1.246c.044.373-.26.408-.472.05l-.782-1.277c-.181-.359-.367-.546-.652-.532a.466.466,0,0,0-.415.629l.87,2.38a2.834,2.834,0,0,0,.721,1.183.541.541,0,0,0-.23.529l.16.633a.911.911,0,0,0-.1.486l1.6,5.667c.123.684-.345,1.126-1.079,1.229l-5.831,1.013-.764,5.178q.462.329.931.645c2.282-.705,7.611-2.387,10.1-3.462,1.285-.556,2.277-1.2,2.024-2.975Z" fill="#091013" opacity="0.18"/>
      <g id="Grupo_134967" data-name="Grupo 134967">
        <path id="Trazado_192402" data-name="Trazado 192402" d="M48.228,108.61s.533-6.087-2.907-9.886l-1.612-1.781s-.01-.01-.031-.035-.075-.081-.153-.169l-.032-.034-1.86-2.055a11.169,11.169,0,0,0-8.009-3.461,14.21,14.21,0,0,0-4.975,4.2C21.6,105.7,26.542,109,26.542,109l2.772,2.62a6.693,6.693,0,0,0,6.138,1.729c1.889-.458,4.629-1.184,8.427-2.319A8.913,8.913,0,0,0,48.228,108.61Z" fill="#8c6df2"/>
      </g>
      <g id="Grupo_134968" data-name="Grupo 134968">
        <path id="Trazado_192403" data-name="Trazado 192403" d="M37.453,102.731c2.88,2.83,8.529,2.152,9.588-1.14l.394-1.224c-.631-.7-3.536-3.214-3.726-3.424,0,0-.01-.01-.031-.035s-.075-.081-.153-.169l-.032-.034c-.207-.23-2-2.318-2.754-3.145l-1.547.347C35.9,94.648,34.869,100.19,37.453,102.731Z" fill="#cde7ee"/>
      </g>
      <g id="Grupo_134969" data-name="Grupo 134969">
        <path id="Trazado_192404" data-name="Trazado 192404" d="M40.161,98.534l-.506,1.655-.026.024.019,0,0,.02.027-.024,1.7-.339.334-.892a.613.613,0,0,1,.282-.341l2.123-1.251c-.239-.265-.406-.448-.516-.569a.27.27,0,0,0-.031-.035c-.026-.03-.073-.081-.152-.169-.011-.011-.021-.023-.031-.035l-.461-.508-1.448,1.97a.422.422,0,0,1-.365.243Z" fill="#ae1f24"/>
      </g>
      <g id="Grupo_134971" data-name="Grupo 134971">
        <g id="Grupo_134970" data-name="Grupo 134970" opacity="0.24">
          <path id="Trazado_192405" data-name="Trazado 192405" d="M52.01,91.629a6.624,6.624,0,0,0-.237-.907l.352,2.265.147-.128Z" fill="#060a0b"/>
        </g>
      </g>
      <g id="Grupo_134972" data-name="Grupo 134972">
        <path id="Trazado_192406" data-name="Trazado 192406" d="M46.566,102.4a5.464,5.464,0,1,1-2.958-10.491,5.3,5.3,0,0,1,6.75,3.57C51.335,98.942,49.68,101.521,46.566,102.4Z" fill="#fddfcb"/>
      </g>
      <g id="Grupo_134973" data-name="Grupo 134973">
        <path id="Trazado_192407" data-name="Trazado 192407" d="M41.536,92.366a.674.674,0,0,1-.811-.5h0a.674.674,0,0,1,.431-.85l1.71-.132a.671.671,0,0,1,.8.509.985.985,0,0,1-.525.518Z" fill="#fddfcb"/>
      </g>
      <g id="Grupo_134974" data-name="Grupo 134974">
        <path id="Trazado_192408" data-name="Trazado 192408" d="M44.511,102.913a.675.675,0,0,0-.432.85h0a.676.676,0,0,0,.812.5l1.527-.781a.669.669,0,0,0,.415-.852.985.985,0,0,0-.718-.167Z" fill="#fddfcb"/>
      </g>
      <g id="Grupo_134975" data-name="Grupo 134975">
        <path id="Trazado_192409" data-name="Trazado 192409" d="M49.328,99.916v0s.065-.3.225-.376c.211-.094.363-.179.893.239a5.108,5.108,0,0,0-.509-1.895c-.159-.322-.58-1.048-.58-1.048-.155-.209-.262-.308-.005-.205a1.572,1.572,0,0,1,.561.435c.191-.054-.513-1.565-.581-1.693a12.267,12.267,0,0,0-1.293-1.931,5.732,5.732,0,0,0-6.08-1.985l-1.013.285c-3,.847-4.262,3.937-3.429,6.889l.3,1.05c.751,2.664,3.281,5,6.286,4.15l.863-.243A6.158,6.158,0,0,0,49.328,99.916Z" fill="#532d13"/>
      </g>
      <g id="Grupo_134976" data-name="Grupo 134976">
        <path id="Trazado_192410" data-name="Trazado 192410" d="M46.309,102.034a5.688,5.688,0,0,0,2.37-2.938.724.724,0,0,1,.761-.453,1.976,1.976,0,0,0-.4-.593,3.4,3.4,0,0,0-1.34-.738l-.355-.065a3.026,3.026,0,0,1,1.366.182,2.259,2.259,0,0,1,.635.418,4.825,4.825,0,0,0-1.285-1.723c-.132-.1-.339-.293.01-.287a1.5,1.5,0,0,1,.463.137,4.139,4.139,0,0,0-.854-.93,3.676,3.676,0,0,0-.833-.435,3.9,3.9,0,0,1,1.294.473A3.516,3.516,0,0,1,49.3,96.345a4.684,4.684,0,0,0-2.376-3.2,6.493,6.493,0,0,0-5.1-.7,4.822,4.822,0,0,0-3.512,3c-1.148,2.7.812,5.807,2.186,6.657A6.068,6.068,0,0,0,46.309,102.034Z" fill="#623c16"/>
      </g>
      <g id="Grupo_134979" data-name="Grupo 134979">
        <g id="Grupo_134977" data-name="Grupo 134977">
          <path id="Trazado_192411" data-name="Trazado 192411" d="M40.16,98.9a1.317,1.317,0,0,1,.52-1.006,1.514,1.514,0,0,1,.753-.212,1,1,0,0,0-.9-.042c-.32.137-.369.246-.431.392a1.4,1.4,0,0,1,1.237-1.238,1.556,1.556,0,0,0-1.324.244,1.334,1.334,0,0,0-.281,1.395,1.839,1.839,0,0,0,.445.694Z" fill="#532d13"/>
        </g>
        <g id="Grupo_134978" data-name="Grupo 134978">
          <path id="Trazado_192412" data-name="Trazado 192412" d="M39.925,98.513a.445.445,0,0,1-.5.038.713.713,0,0,1-.385-.63,1.344,1.344,0,0,0,.1.8,1.01,1.01,0,0,0,1.02.383Z" fill="#532d13"/>
        </g>
      </g>
      <g id="Grupo_134983" data-name="Grupo 134983">
        <g id="Grupo_134980" data-name="Grupo 134980">
          <path id="Trazado_192413" data-name="Trazado 192413" d="M50.42,93.853c.293.845.834,1.579,1.744,1.592l1.75.58a3.933,3.933,0,0,0,.669-2.224c.023-.989-.036-2.263-.036-2.263a4.494,4.494,0,0,0-1.712-2.867,3.192,3.192,0,0,0-1.84-.245c-.354.006-.344.243-.112.767a10.478,10.478,0,0,1,.722,2.164l.266,1.246c.043.373-.26.408-.472.05l-.783-1.276c-.18-.36-.366-.547-.652-.533a.467.467,0,0,0-.414.629Z" fill="#fddfcb"/>
        </g>
        <g id="Grupo_134981" data-name="Grupo 134981">
          <path id="Trazado_192414" data-name="Trazado 192414" d="M54.814,95.809l-3.529,1.234-.374-1.478c-.141-.518.89-1.142,2.47-1.178.562-.014,1.183.254,1.244.458Z" fill="#f4f5f5"/>
        </g>
        <g id="Grupo_134982" data-name="Grupo 134982">
          <path id="Trazado_192415" data-name="Trazado 192415" d="M44.751,110.746s7.957-2.4,11.176-3.792c1.285-.556,2.278-1.2,2.025-2.975l-2.539-8.011a2.742,2.742,0,0,0-2.351-.732c-1.658.311-2.129.827-2.091,1.448l1.6,5.667c.123.684-.345,1.127-1.079,1.229l-5.831,1.013Z" fill="#4470b2"/>
        </g>
      </g>
      <g id="Grupo_134987" data-name="Grupo 134987">
        <g id="Grupo_134984" data-name="Grupo 134984">
          <path id="Trazado_192416" data-name="Trazado 192416" d="M50.42,93.853c.293.845.834,1.579,1.744,1.592l1.75.58a3.933,3.933,0,0,0,.669-2.224c.023-.989-.036-2.263-.036-2.263a4.494,4.494,0,0,0-1.712-2.867,3.192,3.192,0,0,0-1.84-.245c-.354.006-.344.243-.112.767a10.478,10.478,0,0,1,.722,2.164l.266,1.246c.043.373-.26.408-.472.05l-.783-1.276c-.18-.36-.366-.547-.652-.533a.467.467,0,0,0-.414.629Z" fill="#fddfcb"/>
        </g>
        <g id="Grupo_134985" data-name="Grupo 134985">
          <path id="Trazado_192417" data-name="Trazado 192417" d="M54.814,95.809l-3.529,1.234-.374-1.478c-.141-.518.89-1.142,2.47-1.178.562-.014,1.183.254,1.244.458Z" fill="#f4f5f5"/>
        </g>
        <g id="Grupo_134986" data-name="Grupo 134986">
          <path id="Trazado_192418" data-name="Trazado 192418" d="M44.751,110.746s7.957-2.4,11.176-3.792c1.285-.556,2.278-1.2,2.025-2.975l-2.539-8.011a2.742,2.742,0,0,0-2.351-.732c-1.658.311-2.129.827-2.091,1.448l1.6,5.667c.123.684-.345,1.127-1.079,1.229l-5.831,1.013Z" fill="#8c6df2"/>
        </g>
      </g>
      <g id="Grupo_134993" data-name="Grupo 134993">
        <g id="Grupo_134990" data-name="Grupo 134990">
          <g id="Grupo_134989" data-name="Grupo 134989">
            <g id="Grupo_134988" data-name="Grupo 134988">
              <path id="Trazado_192419" data-name="Trazado 192419" d="M54.541,86.806a.745.745,0,0,0-.681-.235L52.81,86.3c-.869-.156-1.027-.508-1.045-.576a.416.416,0,0,1,.141-.391l1.188-.951a12.582,12.582,0,0,1,2.275-.624c.891-.235.891-.643.529-.862a11.059,11.059,0,0,0-2.244.063c-1.955-1.033-3.088-.224-3.088-.224l-3.018,1.508.582,2.074.838.18a4.881,4.881,0,0,0,3.246,1.015l1.9-.074C54.495,87.386,54.725,87.021,54.541,86.806Z" fill="#fddfcb"/>
            </g>
          </g>
        </g>
        <g id="Grupo_134991" data-name="Grupo 134991">
          <path id="Trazado_192420" data-name="Trazado 192420" d="M46.474,83.329l-.091,3.976.756-.037c.538-.014,1.1-.14,1.183-1.5.118-1.849-.647-2.506-.859-2.506Z" fill="#f4f5f5"/>
        </g>
        <g id="Grupo_134992" data-name="Grupo 134992">
          <path id="Trazado_192421" data-name="Trazado 192421" d="M46.554,87.531s-5.975-.482-7.257,0c-1.021.383-2.682,4.506-2.682,4.506L28.826,95.1s3.615-7.4,6.051-11.035c1.233-1.843,4.61-1.581,4.61-1.581l7.14.475s1.044.152.763,2.778A3.526,3.526,0,0,1,46.554,87.531Z" fill="#8c6df2"/>
        </g>
      </g>
    </g>
    <g id="Grupo_134995" data-name="Grupo 134995">
      <path id="Trazado_192422" data-name="Trazado 192422" d="M80.449,36.559a2.4,2.4,0,0,0-.741,1.271c-.217.867.175,1.608-.389,2.648s1.356.865,1.236-.847a3.4,3.4,0,0,1,.705,1.641,4.772,4.772,0,0,0,.319,1.749c.245.49.677-.059,1.2-.492s.338-1.7.039-2.9a4.85,4.85,0,0,1-.141-2.366Z" fill="#fddfcb"/>
      <path id="Trazado_192423" data-name="Trazado 192423" d="M84.369,14.631a11.12,11.12,0,0,1,1.341,2.048c.883,2.313,1.084,11.242.883,12.006-.176.671-3.027,7.179-3.707,8.9a.315.315,0,0,1-.394.179L80.218,37a.318.318,0,0,1-.2-.387l2.976-8.99-.564-7.733Z" fill="#ffd506"/>
    </g>
    <path id="Trazado_192424" data-name="Trazado 192424" d="M26.067,72.939q.027,2.08.23,4.115c3.476,2.661,3.434-.222,2.908-1.19A9.956,9.956,0,0,0,26.067,72.939Z" opacity="0.18"/>
    <path id="Trazado_192425" data-name="Trazado 192425" d="M26.054,72.555q.027,2.081.23,4.115c3.475,2.661,3.434-.222,2.908-1.19A9.956,9.956,0,0,0,26.054,72.555Z" opacity="0.18"/>
    <g id="Grupo_134996" data-name="Grupo 134996">
      <path id="Trazado_192426" data-name="Trazado 192426" d="M16.7,73.308a58.18,58.18,0,0,0,7.117,3.313c1.139.679,4.367,3.929,5.158,4.287s2.687-1.479,2.107-2.312a30.724,30.724,0,0,0-5.255-5.438A20.774,20.774,0,0,0,21.9,71.722C19.912,71.084,20.4,70.37,20.4,70.37l-7.809-2.728A8.211,8.211,0,0,0,16.7,73.308Z" fill="#8a4a43"/>
    </g>
    <g id="Grupo_134997" data-name="Grupo 134997">
      <path id="Trazado_192427" data-name="Trazado 192427" d="M30.977,78.789a1.776,1.776,0,0,1-.574,1.426c-.673.616-1.769.768-1.555.187S30.81,78.015,30.977,78.789Z" fill="#3da321"/>
    </g>
    <g id="Grupo_135002" data-name="Grupo 135002">
      <g id="Grupo_134998" data-name="Grupo 134998">
        <path id="Trazado_192428" data-name="Trazado 192428" d="M32.7,83.757s2.626.8,2.768.325-2.021-1.24-2.223-1.249S32.7,83.757,32.7,83.757Z" fill="#e2c9bc"/>
      </g>
      <g id="Grupo_134999" data-name="Grupo 134999">
        <path id="Trazado_192429" data-name="Trazado 192429" d="M33.046,84.459s2.435,1.27,2.662.826-1.762-1.589-1.957-1.634S33.046,84.459,33.046,84.459Z" fill="#eacfbe"/>
      </g>
      <g id="Grupo_135001" data-name="Grupo 135001">
        <g id="Grupo_135000" data-name="Grupo 135000">
          <path id="Trazado_192430" data-name="Trazado 192430" d="M36.127,82.94c-.153.012-.319-.113-.557-.272l-.805-.476c-.624-.434-.862-.162-.914-.133-.074.042-.216.189-.218.547l.2.987a7.275,7.275,0,0,0,.938,1.707c.772,1.068.622,1.3.261,1.355-.433.061-1.987-2.06-2.044-2.1A9.686,9.686,0,0,1,30.914,82.8l-1.992-2.462c-.074-.165.283-.49.634-.89a2.535,2.535,0,0,1,.724-.622l1.63.835a3.043,3.043,0,0,1,2.209.6,4.638,4.638,0,0,1,1.022.829l1.109,1.2C36.453,82.558,36.369,82.921,36.127,82.94Z" fill="#fddfcb"/>
        </g>
      </g>
    </g>
    <g id="Grupo_135006" data-name="Grupo 135006">
      <g id="Grupo_135005" data-name="Grupo 135005">
        <g id="Grupo_135003" data-name="Grupo 135003">
          <path id="Trazado_192431" data-name="Trazado 192431" d="M102.844,66.587c.763-.219,1.438-.664,1.494-1.469l.6-1.522A3.492,3.492,0,0,0,103,62.9c-.874-.068-2.006-.076-2.006-.076A3.982,3.982,0,0,0,98.37,64.2a2.825,2.825,0,0,0-.306,1.618c-.012.314.2.317.674.136a9.35,9.35,0,0,1,1.952-.536l1.117-.174c.332-.022.349.249.021.419l-1.168.632c-.328.143-.5.3-.5.553a.415.415,0,0,0,.538.4Z" fill="#fddfcb"/>
        </g>
        <g id="Grupo_135004" data-name="Grupo 135004">
          <path id="Trazado_192432" data-name="Trazado 192432" d="M104.789,62.788l.923,3.186-1.328.26c-.465.1-.968-.843-.925-2.245.016-.5.283-1.035.467-1.08Z" fill="#f4f5f5"/>
        </g>
      </g>
      <path id="Trazado_192433" data-name="Trazado 192433" d="M128.489,63.695S118.108,61.874,115.4,61.6c-2.413-.241-9.242.793-10.707,1.022a.311.311,0,0,0-.252.343l.295,3.341a.318.318,0,0,0,.326.29l9.738-.3,8.924,1.445Z" fill="#e6e6e6"/>
    </g>
    <g id="Grupo_135012" data-name="Grupo 135012">
      <g id="Grupo_135011" data-name="Grupo 135011">
        <g id="Grupo_135009" data-name="Grupo 135009">
          <g id="Grupo_135008" data-name="Grupo 135008">
            <g id="Grupo_135007" data-name="Grupo 135007">
              <path id="Trazado_192434" data-name="Trazado 192434" d="M99.71,69.1a.661.661,0,0,0,.377.516l.627.73c.553.554.49.89.469.95a.374.374,0,0,1-.3.213l-1.347.09c-.474-.036-.914-1.479-1.4-1.656-.768-.282-.364.319-.212.662.126.285.445,1.684.477,1.746.9,1.744,2.135,1.728,2.135,1.728l2.962.433.628-1.806-.519-.555a4.344,4.344,0,0,0-1.849-2.386l-1.419-.907C100.038,68.7,99.685,68.852,99.71,69.1Z" fill="#fddfcb"/>
            </g>
          </g>
        </g>
        <g id="Grupo_135010" data-name="Grupo 135010">
          <path id="Trazado_192435" data-name="Trazado 192435" d="M103.822,75.722l2.082-2.849-.571-.355c-.4-.263-.868-.454-1.618.489-1.024,1.287-.8,2.153-.645,2.261Z" fill="#f4f5f5"/>
        </g>
      </g>
      <path id="Trazado_192436" data-name="Trazado 192436" d="M127.27,84.433c.067.085-.245.2-.353.183-1.766-.249-10.684-1.545-13.073-2.118S105,77.037,103.714,76.05a.316.316,0,0,1-.062-.425l1.9-2.939a.316.316,0,0,1,.423-.1l8.614,4.966a.78.78,0,0,0,.278.1l7.658,1.1a.754.754,0,0,1,.483.279Z" fill="#e6e6e6"/>
    </g>
    <g id="Grupo_135015" data-name="Grupo 135015">
      <g id="Grupo_135013" data-name="Grupo 135013">
        <path id="Trazado_192437" data-name="Trazado 192437" d="M78.256,96.279c.159.016.444.167.533.624l.071.909c.1.347.175.64.576.647a.773.773,0,0,0,.529-.85l-.008-.873a8.522,8.522,0,0,0-.42-2.522c-.139-.473,0-.5.137-.6.017-.012.256-.195.584.322.4.633,1.041,1.765,1.041,1.765a1.335,1.335,0,0,1,1.623,1.206l.163,2.063c.108,1.036-.69,1.225-1.32,1.32l-1.07.163a3.829,3.829,0,0,1-.49.051c-.455.009-2.187-.36-2.285-1.76l-.062-2A.354.354,0,0,1,78.256,96.279Z" fill="#fddfcb"/>
      </g>
      <g id="Grupo_135014" data-name="Grupo 135014">
        <path id="Trazado_192438" data-name="Trazado 192438" d="M83.413,101.023,80.1,101.5l-.132-.842c-.05-.265-.084-.444.445-.527l2.467-.348c.266-.058.412.241.436.45Z" fill="#c2dde4"/>
      </g>
      <path id="Trazado_192439" data-name="Trazado 192439" d="M82.409,128.736s2.754-3.019,2.913-5.932c.123-2.253.689-7.389.94-9.6a6.147,6.147,0,0,0-.12-2.077L83.8,101.01a.324.324,0,0,0-.365-.246L80,101.307a.305.305,0,0,0-.255.344l1.474,10.565a3.615,3.615,0,0,1-.006,1.049l-1.35,8.9Z" fill="#383736"/>
    </g>
  </g>
</svg>
