<svg xmlns="http://www.w3.org/2000/svg" xmlns:xlink="http://www.w3.org/1999/xlink" width="190.067" height="190.067" viewBox="0 0 190.067 190.067">
  <defs>
    <clipPath id="clip-path">
      <rect id="Rectángulo_44789" data-name="Rectángulo 44789" width="190.067" height="190.067" transform="translate(0)" fill="none"/>
    </clipPath>
  </defs>
  <g id="Grupo_136099" data-name="Grupo 136099" transform="translate(-265 -4281.933)">
    <g id="Grupo_135070" data-name="Grupo 135070" transform="translate(265 4281.933)">
      <path id="Trazado_188103" data-name="Trazado 188103" d="M161.45,29.606a68.591,68.591,0,0,1,9.2,12.375c19.38,31.865,11.947,67.058,9.458,77.932-4.02,17.542-6.954,32.369-19.057,44.71-27.5,28.043-82.258,24.347-115.294.672-3.916-2.807-35.891-26.4-39.053-62.116-.077-.874-.115-1.525-.152-2.1-.352-5.518-2-39.7,22.376-66.494A83.676,83.676,0,0,1,48.076,19.057C82.419-1.238,134.213.847,161.45,29.606Z" fill="#e5e1f1"/>
      <path id="Trazado_139920" data-name="Trazado 139920" d="M184.479,13.313a2.725,2.725,0,0,1,.306-.074,2.01,2.01,0,0,1,2.432,2.288,3.691,3.691,0,0,1-2.83,3.243A69.084,69.084,0,0,0,169.3,23.492a82.024,82.024,0,0,0-14.449,8.164l-.864.605-.848.632c-.567.418-1.123.853-1.677,1.291q-1.668,1.3-3.254,2.712c-.534.462-1.046.951-1.568,1.424s-1.019.977-1.528,1.462c-.491.507-.993,1-1.471,1.517s-.963,1.025-1.42,1.555-.924,1.048-1.363,1.589c-.22.269-.445.534-.659.806l-.637.819c-.434.539-.819,1.1-1.229,1.653-.39.559-.779,1.118-1.15,1.681s-.736,1.129-1.066,1.7c-.167.286-.342.569-.505.856l-.472.86c-.078.145-.16.284-.235.432l-.222.448-.441.892c-.273.6-.558,1.2-.811,1.809a64.01,64.01,0,0,0-4.2,15.023c-.841,5.147-1.261,10.391-1.689,15.837-.217,2.724-.419,5.5-.692,8.353-.128,1.424-.292,2.875-.464,4.34-.1.739-.182,1.473-.29,2.223l-.314,2.184c-.813,5.589-1.726,11.362-3.032,17.34a123.836,123.836,0,0,1-5.524,18.639,87.74,87.74,0,0,1-4.539,9.834,75.907,75.907,0,0,1-6.359,9.887c-1.232,1.617-2.555,3.206-3.957,4.745-.7.772-1.425,1.525-2.164,2.271-.371.37-.729.729-1.125,1.1s-.79.745-1.193,1.105a61.754,61.754,0,0,1-10.3,7.539c-.9.525-1.816,1.031-2.739,1.5-.486.252-.859.431-1.271.64l-1.218.6c-.814.4-1.643.772-2.477,1.138s-1.68.7-2.525,1.051a64.886,64.886,0,0,1-10.478,3.164,54.716,54.716,0,0,1-10.695,1.207A50.474,50.474,0,0,1,28.131,178.1a64.431,64.431,0,0,1-13.579-11.6,77.7,77.7,0,0,1-5.518-6.924c-.86-1.221-1.692-2.476-2.5-3.795-.405-.662-.809-1.336-1.212-2.052-.2-.358-.4-.723-.61-1.119l-.318-.622-.17-.354-.1-.217-.138-.327C-.006,140.112,6.2,125.426,17.852,118.3s24.325-4.009,28.314,6.972l-.057-.111c-.015-.026-.014-.01-.014-.01l-.006.009c-.009.006,0,.048,0,.074a2.213,2.213,0,0,0,.027.228c.023.169.066.367.107.563.086.4.19.826.308,1.253.238.861.512,1.744.813,2.618a46.309,46.309,0,0,0,2.1,5.115,39.393,39.393,0,0,0,5.578,8.709,24.633,24.633,0,0,0,7.041,5.75,18.035,18.035,0,0,0,4.046,1.578,19.846,19.846,0,0,0,4.516.633,25.393,25.393,0,0,0,5.076-.367c.45-.092.9-.163,1.358-.262s.922-.2,1.391-.328l1.362-.367c.357-.087.718-.2,1.077-.307a19.977,19.977,0,0,0,4.213-1.94c.172-.1.34-.209.509-.316l.542-.368c.363-.253.726-.514,1.084-.794.718-.556,1.433-1.163,2.142-1.828a46.344,46.344,0,0,0,8.048-10.51q.935-1.587,1.8-3.277t1.681-3.464c1.086-2.36,2.108-4.815,3.075-7.335,1.938-5.043,3.648-10.329,5.331-15.783l.6-1.957c.195-.632.376-1.276.566-1.919.364-1.295.724-2.6,1.066-3.936.691-2.659,1.346-5.393,2-8.175,1.318-5.564,2.679-11.354,4.577-17.261a84.569,84.569,0,0,1,7.747-17.637c.417-.711.87-1.411,1.308-2.111.466-.693.909-1.377,1.4-2.069l.723-1.034c.245-.339.5-.671.748-1.005.492-.674,1.021-1.314,1.537-1.959a72.165,72.165,0,0,1,6.679-7.055,96.7,96.7,0,0,1,14.723-11.107,120.914,120.914,0,0,1,15.554-8.1,149.423,149.423,0,0,1,15.932-5.79Z" fill="#fdb74d"/>
      <circle id="Elipse_5883" data-name="Elipse 5883" cx="15.61" cy="15.61" r="15.61" transform="translate(11.913 125.484)" fill="#fdb74d" opacity="0.5"/>
      <g id="Grupo_135070-2" data-name="Grupo 135070">
        <circle id="Elipse_5247" data-name="Elipse 5247" cx="14.58" cy="14.58" r="14.58" transform="translate(156.759 27.866)" fill="#5038a1" opacity="0.7" style="isolation: isolate"/>
        <g id="Elipse_5249" data-name="Elipse 5249">
          <circle id="Elipse_5884" data-name="Elipse 5884" cx="5.494" cy="5.494" r="5.494" transform="translate(167.647 32.511)" fill="none"/>
          <circle id="Elipse_5885" data-name="Elipse 5885" cx="4.86" cy="4.86" r="4.86" transform="translate(168.281 33.145)" fill="none" stroke="#fff" stroke-width="1.268"/>
        </g>
        <g id="Elipse_5250" data-name="Elipse 5250">
          <circle id="Elipse_5886" data-name="Elipse 5886" cx="2.958" cy="2.958" r="2.958" transform="translate(131.19 24.469)" fill="#fdb74d"/>
          <circle id="Elipse_5887" data-name="Elipse 5887" cx="2.324" cy="2.324" r="2.324" transform="translate(131.824 25.103)" fill="#fdb74d" stroke="#8c6df2" stroke-width="1.268"/>
        </g>
        <circle id="Elipse_5251" data-name="Elipse 5251" cx="1.902" cy="1.902" r="1.902" transform="translate(150.512 40.671)" fill="#fdb74d"/>
      </g>
      <g id="Elipse_4972" data-name="Elipse 4972">
        <circle id="Elipse_5888" data-name="Elipse 5888" cx="14.415" cy="14.415" r="14.415" transform="translate(13.107 126.679)" fill="none"/>
        <circle id="Elipse_5889" data-name="Elipse 5889" cx="13.646" cy="13.646" r="13.646" transform="translate(13.876 127.448)" fill="none" stroke="#fff" stroke-linecap="round" stroke-width="1.538" stroke-dasharray="1.153 3.075"/>
      </g>
      <g id="Grupo_135095" data-name="Grupo 135095">
        <g id="Grupo_135094" data-name="Grupo 135094" clip-path="url(#clip-path)">
          <g id="Grupo_135093" data-name="Grupo 135093">
            <path id="Trazado_192573" data-name="Trazado 192573" d="M110.033,207.707c-.07-2.228-.143-4.457-.244-6.684-.2-4.506-.517-9.012-1.15-13.481-1.06-7.48-3.847-14.137-5.8-21.359a83.16,83.16,0,0,1-1.843-8.7,99.707,99.707,0,0,1-1.162-16.467c.047-5.406.438-10.863,2.336-15.973,1.031-2.778,2.175-6.261,4.433-8.3.358-.322.992-.677,1.286-.979v-.008c.112-.085.221-.173.324-.267.078-.5.171-1,.246-1.5.006-.038.011-.077.017-.115-1.167-.094-2.455.749-3.481,1.195-2.445,1.063-4.955,1.972-7.391,3.059-1.121.5-2.259,1.025-3.354,1.557-1.069.52-1.909,1.4-2.983,1.918-1.2.585-2.4,1.163-3.624,1.709-.923.414-1.849.822-2.769,1.245a25.617,25.617,0,0,0,2.545,5.059c-.033.114-.065.228-.1.342-.906,2.881-2.673,5.369-3.879,8.118-.3.675-.544,1.363-.789,2.047h0c.553.3.576.974.763,1.556,1.557,4.823-1,7.61-1.7,12.122-.562,3.613.79,6.881.64,10.409-.1,2.277-1.361,4.226-1.946,6.376a23.741,23.741,0,0,0-.583,2.931c-1.308,9.418-3.426,18.786-5.27,28.128-.442,2.237-.824,4.655-1.4,7.019h0c.594,7.226.671,14.617.616,21.92H109.99c.159-3.264.279-6.53.289-9.8C110.294,216.393,110.173,212.09,110.033,207.707Zm-8-12.644a1.99,1.99,0,0,1,1.523-2.823,1.892,1.892,0,0,1,1.536.386c1.117.874.648,2.3-.134,3.228S102.45,195.985,102.037,195.063Zm4.2,21.813c-.775.919-2.512.131-2.925-.791a1.99,1.99,0,0,1,1.522-2.823,1.891,1.891,0,0,1,1.536.386C107.489,214.522,107.019,215.95,106.238,216.876Z" fill="#8c6df2"/>
            <path id="Trazado_192574" data-name="Trazado 192574" d="M83.912,44.794a1.275,1.275,0,0,1,.141,2.049,3.16,3.16,0,0,1-2.557.583c-1.273-.173-2.6-.257-3.875-.32-1.507-.075-3.019-.084-4.528-.135-1.1-.039-3.028.168-3.908-.635-1.117-1.021-.162-2.018,1.015-2.263a13.451,13.451,0,0,1,3.252.05c.776.03,1.566.069,2.351.1,1.674.057,3.351.03,5.025.045A5.777,5.777,0,0,1,83.912,44.794Z" fill="#ffbc3b"/>
            <path id="Trazado_192575" data-name="Trazado 192575" d="M73.44,20.5c1.426.09,1.321,1.656.452,2.363-.119.476-.868.608-1.251.9-.575.428-3.714,2.86-4.2,3.381a8.99,8.99,0,0,1-1.482,1.075c-.683.488-2.95,2.216-3.678.875a1.362,1.362,0,0,1,.147-1.276,5.393,5.393,0,0,1,2.144-1.77,6.774,6.774,0,0,0,2.1-1.581c.5-.623,3.689-2.836,4.3-3.327A2.218,2.218,0,0,1,73.44,20.5Z" fill="#ffbc3b"/>
            <path id="Trazado_192576" data-name="Trazado 192576" d="M73.437,70.646A1.275,1.275,0,0,1,72.1,72.2a3.157,3.157,0,0,1-2.231-1.384c-.782-1.018-1.662-2.012-2.525-2.955-1.018-1.114-2.087-2.184-3.12-3.283-.752-.8-2.27-2.009-2.33-3.2-.078-1.512,1.306-1.548,2.312-.892a13.367,13.367,0,0,1,2.276,2.321c.53.572,1.066,1.153,1.6,1.725,1.15,1.218,2.36,2.377,3.539,3.569A5.814,5.814,0,0,1,73.437,70.646Z" fill="#ffbc3b"/>
            <path id="Trazado_192577" data-name="Trazado 192577" d="M57.56,46.618c.347,2.18-2.165,2.1-3.755,2.012a7.972,7.972,0,0,1,1.883-2.515C56.47,45.438,57.368,45.408,57.56,46.618Z" fill="#ffbc3b"/>
            <path id="Trazado_192578" data-name="Trazado 192578" d="M53.613,75.576c0,.065-.225-.033-.347-.075-.234-.075-.48-.165-.7-.258a9.534,9.534,0,0,0-1.473-.515c-2.585-.611-5.157-1.536-7.685-2.342h-.071c0-.721.035-1.455-.012-2.168-.03-.458-.2-.976-.219-1.467l.039,0c0,.239,4.65,1.827,5.085,1.958a29.626,29.626,0,0,1,5,1.644c.2.1.467.366.667.3h.087a18.1,18.1,0,0,1-.224,2.953Z" fill="#dedede"/>
            <path id="Trazado_192579" data-name="Trazado 192579" d="M53.266,75.5c.122.042.347.14.347.075l.141.024c-.042.254-.093.509-.153.76a8.268,8.268,0,0,1-.692,2.2,5.984,5.984,0,0,1-.359.563l-.027-.018c-.683-.275-1.381-.671-2.1-.907-2.252-.737-4.525-1.725-6.705-2.65l-.237,0a16.012,16.012,0,0,0-.072-1.971,9.479,9.479,0,0,1-.074-1.2H43.4c2.528.806,5.1,1.731,7.685,2.342a9.534,9.534,0,0,1,1.473.515C52.786,75.336,53.032,75.426,53.266,75.5Z" fill="#dedede"/>
            <path id="Trazado_192580" data-name="Trazado 192580" d="M46.288,67.553h-.033c-.179-2.6-.994-5.109-1.389-7.69-.494-3.24-.791-6.681-1.923-9.777a14.223,14.223,0,0,0-.623-1.456c.192-.012.372-.021.53-.03a6.9,6.9,0,0,0,1.851-.464,5.269,5.269,0,0,0,1.716-1.141,7.8,7.8,0,0,0,1.425-1.368c.039-.06.078-.123.117-.186a6.987,6.987,0,0,0,3.468,2.695,6.843,6.843,0,0,0,1.851.464c.158.009.335.018.527.03a13.565,13.565,0,0,0-.62,1.456c-1.135,3.1-1.432,6.537-1.926,9.777-.356,2.336-1.195,4.722-1.213,7.094,0,.219.033.44.036.659C48.813,67.625,47.537,67.589,46.288,67.553Z" fill="#ffbc3b"/>
            <path id="Trazado_192581" data-name="Trazado 192581" d="M56.3,81.238l.023.015a4.714,4.714,0,0,1-.881.939,4.3,4.3,0,0,1-3.114.624,4.11,4.11,0,0,1-2.893-1.91,4.636,4.636,0,0,1-.664-1.7,6.334,6.334,0,0,1-.073-.954l.2,0c1.832.778,3.743,1.609,5.636,2.228C55.138,80.674,55.724,81.006,56.3,81.238Z" fill="#dedede"/>
            <path id="Trazado_192582" data-name="Trazado 192582" d="M48.825,41.6a7.263,7.263,0,0,1-.866,3.839,7.833,7.833,0,0,1-1.216-3c-.158-.868-.158-2.464.764-2.973S48.816,41.111,48.825,41.6Z" fill="#ffbc3b"/>
            <path id="Trazado_192583" data-name="Trazado 192583" d="M48.672,10.857c.3.386-.057,1.057-.069,1.536-.015.719-.036,4.686.075,5.39a8.945,8.945,0,0,1-.066,1.833c-.036.838-.072,3.686-1.578,3.435a1.352,1.352,0,0,1-.913-.9,5.354,5.354,0,0,1-.072-2.779,6.873,6.873,0,0,0,.045-2.623c-.183-.779.041-4.657.03-5.435a2.216,2.216,0,0,1,.407-1.557C47.483,8.688,48.648,9.737,48.672,10.857Z" fill="#ffbc3b"/>
            <path id="Trazado_192584" data-name="Trazado 192584" d="M46.288,67.553c-.009.033.006.051-.027.084,0-.027,0-.057-.006-.084Z" fill="#8cc295"/>
            <path id="Trazado_192585" data-name="Trazado 192585" d="M43.809,67.487l-.279.141-.069-.21a12.946,12.946,0,0,0-1.32-2.7c-1.369-2.1-3.657-3.069-5.522-4.6A21.552,21.552,0,0,1,29.042,44.8c-.485-9.436,6.714-18.354,16.39-18.572,4.225-.1,8.969.811,12.4,3.339a19.173,19.173,0,0,1,6.789,22.175A20.568,20.568,0,0,1,61.6,57.294c-1.384,1.808-3.438,2.907-4.852,4.629-1.284,1.56-3.078,3.133-3.255,5.277l-.024.227-.129.051c-1.069.1-2.159.132-3.258.138,0-.219-.036-.44-.036-.659.018-2.372.857-4.758,1.213-7.094.494-3.24.791-6.681,1.926-9.777a13.565,13.565,0,0,1,.62-1.456c1.59.093,4.1.168,3.755-2.012-.192-1.21-1.09-1.18-1.872-.5a7.972,7.972,0,0,0-1.883,2.515c-.192-.012-.369-.021-.527-.03a6.843,6.843,0,0,1-1.851-.464,6.987,6.987,0,0,1-3.468-2.695,7.263,7.263,0,0,0,.866-3.839c-.009-.491-.384-2.647-1.318-2.135s-.922,2.1-.764,2.973a7.833,7.833,0,0,0,1.216,3c-.039.063-.078.126-.117.186a7.8,7.8,0,0,1-1.425,1.368A5.269,5.269,0,0,1,44.7,48.136a6.9,6.9,0,0,1-1.851.464c-.158.009-.338.018-.53.03a7.972,7.972,0,0,0-1.883-2.515c-.782-.677-1.677-.707-1.872.5-.347,2.18,2.165,2.1,3.755,2.012a14.223,14.223,0,0,1,.623,1.456c1.132,3.1,1.429,6.537,1.923,9.777.4,2.581,1.21,5.094,1.389,7.69C45.426,67.529,44.608,67.5,43.809,67.487Z" fill="#ffbc3b"/>
            <path id="Trazado_192586" data-name="Trazado 192586" d="M43.141,68.748l-.039,0a1.324,1.324,0,0,1,.428-1.123l.279-.141c.8.015,1.617.042,2.446.066,0,.027,0,.057.006.084.033-.033.018-.051.027-.084,1.249.036,2.525.072,3.794.063,1.1-.006,2.189-.042,3.258-.138l.129-.051c.491.315.515,1.033.515,1.554,0,.71-.039,1.411-.024,2.127.012.512.021,1.027.018,1.539h-.087c-.2.069-.467-.195-.667-.3a29.626,29.626,0,0,0-5-1.644C47.791,70.575,43.141,68.987,43.141,68.748Z" fill="#dedede"/>
            <path id="Trazado_192587" data-name="Trazado 192587" d="M40.437,46.115A7.972,7.972,0,0,1,42.32,48.63c-1.59.093-4.1.168-3.755-2.012C38.76,45.408,39.655,45.438,40.437,46.115Z" fill="#ffbc3b"/>
            <path id="Trazado_192588" data-name="Trazado 192588" d="M30.342,60.486c1.009-.656,2.39-.62,2.315.892-.06,1.192-1.578,2.4-2.33,3.2-1.036,1.1-2.1,2.169-3.123,3.283-.86.943-1.743,1.937-2.525,2.955A3.157,3.157,0,0,1,22.451,72.2a1.277,1.277,0,0,1-1.344-1.555,5.826,5.826,0,0,1,1.82-2.545c1.18-1.192,2.39-2.351,3.54-3.569.536-.572,1.072-1.153,1.6-1.725A13.35,13.35,0,0,1,30.342,60.486Z" fill="#ffbc3b"/>
            <path id="Trazado_192589" data-name="Trazado 192589" d="M28.216,28.767c.829.872,1.042,2.237-.455,2.438-1.183.155-2.65-1.114-3.573-1.707-1.27-.818-2.515-1.671-3.8-2.471-1.084-.676-2.222-1.362-3.366-1.943a3.175,3.175,0,0,1-1.77-1.941,1.279,1.279,0,0,1,1.285-1.6,5.811,5.811,0,0,1,2.836,1.324c1.386.943,2.746,1.919,4.156,2.827.659.425,1.33.844,1.986,1.26A13.568,13.568,0,0,1,28.216,28.767Z" fill="#ffbc3b"/>
            <path id="Trazado_192590" data-name="Trazado 192590" d="M24.344,44.073c1.18.245,2.135,1.242,1.015,2.263-.88.8-2.809.6-3.9.635-1.509.051-3.021.06-4.531.135-1.275.063-2.6.147-3.872.32a3.166,3.166,0,0,1-2.56-.583,1.278,1.278,0,0,1,.141-2.049,5.788,5.788,0,0,1,3.087-.53c1.674-.015,3.351.012,5.025-.045.785-.027,1.572-.066,2.351-.1A13.428,13.428,0,0,1,24.344,44.073Z" fill="#ffbc3b"/>
            <path id="Trazado_192591" data-name="Trazado 192591" d="M119.219,108.738l0-.073c3.27-.108,7.089-2.01,9.9-4.2l.059.074c-.12.945-.063,1.984-.134,2.832a32.086,32.086,0,0,0-.1,5.057c-1.942.117-3.821.616-5.831.455a24.581,24.581,0,0,1-6.74-1.577,21.719,21.719,0,0,1-5.063-3.1,23.562,23.562,0,0,1-2.835-2.744c-.164-.172-.337-.4-.519-.634,1.067.6,2.155,1.168,3.26,1.747a21.071,21.071,0,0,0,4.284,1.583A16.2,16.2,0,0,0,119.219,108.738Z" fill="#e39476"/>
            <path id="Trazado_192592" data-name="Trazado 192592" d="M105.1,192.626c1.117.874.648,2.3-.134,3.228s-2.512.131-2.925-.791a1.99,1.99,0,0,1,1.523-2.823A1.892,1.892,0,0,1,105.1,192.626Z" fill="#37628f"/>
            <path id="Trazado_192593" data-name="Trazado 192593" d="M161.924,230.586H132.295c.041-4.54.1-9.113-.3-13.614a97.957,97.957,0,0,1-.442-11.387c.084-3.123-.164-6.288-.058-9.433.117-3.518.873-7.017,1.018-10.55a45.335,45.335,0,0,1,1.119-7.76c.639-2.955.6-6,1.407-8.948.817-2.976,1.683-5.936,2.273-8.984.538-2.773.869-5.57,1.436-8.328a51.873,51.873,0,0,0,.3-18.884c-.3-1.839-.426-3.668-.881-5.485a18.522,18.522,0,0,0-5.292-9.495c-1.027-.914-2.433-1.356-3.436-2.206-.093-.5-.2-.991-.293-1.5-.008-.038-.014-.077-.02-.114,1.163-.131,2.477.67,3.517,1.083,2.477.986,5.014,1.814,7.483,2.823,1.137.465,2.291.953,3.4,1.45,1.085.486,1.952,1.335,3.042,1.823,1.218.546,2.439,1.086,3.676,1.593A62.618,62.618,0,0,1,158,126.227a36.611,36.611,0,0,1,8.954,6.611,44.958,44.958,0,0,1,6.054,9.244,73.185,73.185,0,0,1,4.534,11.1,21.383,21.383,0,0,1,.929,2.754c.331,1.764.45,3.606.717,5.39q.453,3.027.827,6.066c.51,4.118.924,8.248,1.281,12.381.456,5.271.4,10.575.965,15.838.552,5.155,2.563,9.781,3.432,14.839.562,3.282-.093,6.573-.307,9.853-.116,1.767.535,3.475.513,5.233-.02,1.693-.474,3.348-.521,5.048Z" fill="#8c6df2"/>
            <path id="Trazado_192594" data-name="Trazado 192594" d="M65.9,136.249c-.178-.837-.286-1.681-.443-2.533-.166-.9-.369-1.793-.572-2.686-.847-3.728-1.485-7.205-.309-10.941,1.056-3.354,2.887-6.431,3.689-9.87a27.167,27.167,0,0,0,.342-7.133c-.1-2.947.058-5.9.076-8.85.012-2.063-.229-5.061,1.816-6.313a1.387,1.387,0,0,1,1.552-.082c1.768.8,2.1,3.413,2.177,5.087.214,4.69.038,9.362.019,14.056,0,.254.047.411.057.643a5.821,5.821,0,0,1,1.907.233c2.735.824,4.594,3.255,6.273,5.45.381-1.6,1.271-3.545,2.948-4.108a2.052,2.052,0,0,1,1.452-.106,3.182,3.182,0,0,1,1.845,1.515c.793,1.621-.026,3.641-.384,5.271a15.5,15.5,0,0,0-.541,3.4c.005,1.277.218,2.542.249,3.818.026,1.037.021,2.083-.057,3.123a16.5,16.5,0,0,1-.679,3.732c-.906,2.881-2.673,5.369-3.879,8.118-.3.675-.544,1.363-.789,2.047-.713,1.981-1.407,3.912-3.217,5.3-2.384,1.828-5.574,1.228-7.995-.193A12.284,12.284,0,0,1,68,142.223a3.868,3.868,0,0,1-.857-1.957c-.2-1.06-.711-2.074-1.013-3.107C66.043,136.857,65.969,136.553,65.9,136.249Z" fill="#f5b49b"/>
            <path id="Trazado_192595" data-name="Trazado 192595" d="M90.573,79.018c-.127-.893-.228-1.787-.333-2.676a15.581,15.581,0,0,0-.5-2.91c-.6-1.894-1.776-3.544-2.42-5.424a7.451,7.451,0,0,1-.462-2.623c.015-1.018.15-2.03.238-3.044a34.245,34.245,0,0,1,.9-5.022c.523-2.178,1.307-4.428,1.071-6.69-.027-.262-.061-.522-.094-.784a7.016,7.016,0,0,1,1.14-4.438,13.23,13.23,0,0,1,5.3-5.577c2.531-1.328,5.623-1.776,8.267-2.924a22.814,22.814,0,0,0,3.271-1.757c.427-.276.752-.631,1.2-.864.677-.351,1.4-.636,2.091-.935a12.1,12.1,0,0,1,2.618-.8,18.788,18.788,0,0,1,8.342.444c2.609.749,5.319,2.346,5.965,5.186.166.73.712.66,1.375.66a8.416,8.416,0,0,1,5.807.957c2.537,1.389,3.394,3.8,4.76,6.156a51.318,51.318,0,0,0,4.394,5.728c1.889,2.407,3.328,5.124,2.859,8.276a23.962,23.962,0,0,0-.4,4.321,17.885,17.885,0,0,1-1.044,4.634,21.583,21.583,0,0,1-.7,2.817,15.021,15.021,0,0,0-.915,6.542c.006.163.014.325.024.489a14.723,14.723,0,0,1-.05,1.791,4.581,4.581,0,0,1-.221,1.247c-.127.351-.421.891-.849.955-1.4.207-1.13-3.855-1.152-4.6a13.866,13.866,0,0,0-1.928-7.317,11.422,11.422,0,0,1-1.493-3.731,17.488,17.488,0,0,1-.423-4.182c0-2.242.165-4.505-1.036-6.543-1.1-1.863-3.351-2.686-5.409-2.839-.494-.038-.807-.007-1.29-.036a21.341,21.341,0,0,0-9.7,1.329,7.622,7.622,0,0,1-3.1.558c-2.712-.049-5.278-1.133-7.9-1.684a13.616,13.616,0,0,0-3.828-.247,6.69,6.69,0,0,0-3.837,1.044,6.372,6.372,0,0,0-2.1,3.111,12.245,12.245,0,0,0-.512,2.577c-.11,1.093.206,2.134.115,3.218A13.26,13.26,0,0,1,97.2,68.788c-.237.436-.4.9-.6,1.356a7.459,7.459,0,0,1-.7,1.083,15.142,15.142,0,0,0-1.5,2.513c-.846,2.073-.312,4.344-.282,6.5a3.877,3.877,0,0,1-.575,2.567c-.6.747-1.4.541-1.971-.131a4.773,4.773,0,0,1-.813-2.453C90.69,79.822,90.629,79.421,90.573,79.018Z" fill="#1e244a"/>
            <path id="Trazado_192596" data-name="Trazado 192596" d="M129.122,113.9c.006.037.012.076.02.114-.039-.024-.077-.019-.089-.106Z" fill="#8cc295"/>
            <path id="Trazado_192597" data-name="Trazado 192597" d="M106.371,213.648c1.118.874.648,2.3-.133,3.228s-2.512.131-2.925-.791a1.99,1.99,0,0,1,1.522-2.823A1.891,1.891,0,0,1,106.371,213.648Z" fill="#37628f"/>
            <path id="Trazado_192598" data-name="Trazado 192598" d="M83.419,141.68c1.557,4.823-1,7.61-1.7,12.122-.562,3.613.79,6.881.64,10.409-.1,2.277-1.361,4.226-1.946,6.376a23.741,23.741,0,0,0-.583,2.931c-1.308,9.418-3.426,18.786-5.27,28.128-.442,2.237-.824,4.655-1.4,7.019a21.108,21.108,0,0,1-3.642,8.258c-4.435,5.575-15.1,7.738-20.727,2.6-3.36-3.068-4.653-7.949-5.111-12.319-1.017-9.688,1.9-20.064,5.144-29.081,1.135-3.154,2.667-6.148,3.823-9.295a36.6,36.6,0,0,0,2.13-9.065A16.9,16.9,0,0,1,56.6,153.4c1.249-2.316,3.407-3.981,4.17-6.571,1.037-3.523.37-7.606,3.961-9.879a6.614,6.614,0,0,0,1.178-.7c.064.3.138.608.227.91.3,1.033.815,2.047,1.013,3.107A3.868,3.868,0,0,0,68,142.223a12.284,12.284,0,0,0,3.44,3.006c2.421,1.421,5.611,2.021,7.995.193,1.81-1.387,2.5-3.318,3.217-5.3h0C83.209,140.425,83.232,141.1,83.419,141.68Z" fill="#8c6df2"/>
            <path id="Trazado_192599" data-name="Trazado 192599" d="M107.865,114.086c0-.079,0-.157.006-.235a45.669,45.669,0,0,0,.006-4.753c-.046-.791-.123-1.581-.24-2.363-.051-.333-.158-.664-.217-.98-.054-.295.028-.751-.177-.995l.146-.253q.284.163.57.326c.182.233.355.462.519.634a23.562,23.562,0,0,0,2.835,2.744,21.719,21.719,0,0,0,5.063,3.1,24.581,24.581,0,0,0,6.74,1.577c2.01.161,3.889-.338,5.831-.455q.03.435.083.864c.025.205.057.406.092.608l-.069.008c.012.087.05.082.089.106.091.5.2,1,.293,1.5a8.788,8.788,0,0,1,.182,2.078,9.686,9.686,0,0,1-1.023,3.788,10.778,10.778,0,0,1-5.633,5.218c-.481.188-.957.4-1.444.573a7.5,7.5,0,0,1-2.794.376,14.152,14.152,0,0,1-2.823-.474,11.14,11.14,0,0,1-4.027-1.745,10.612,10.612,0,0,1-4.012-5.793,5.1,5.1,0,0,1-.073-2.5,6.413,6.413,0,0,0,.1-1.265C107.893,115.207,107.854,114.64,107.865,114.086Z" fill="#f5b49b"/>
            <path id="Trazado_192600" data-name="Trazado 192600" d="M107.959,104.833q-.287-.162-.57-.326c-1.093-.627-2.165-1.294-3.216-2.038a25.586,25.586,0,0,1-5.816-5.192c-.9-1.212-1.842-2.372-2.788-3.558-.842-1.055-1.386-2.311-2.2-3.383-.867-1.143-1.844-1.324-3.048-2.007a10.034,10.034,0,0,1-3.2-2.8,7.1,7.1,0,0,1-.886-1.294,11,11,0,0,1-.639-1.674A5.6,5.6,0,0,1,85.737,79a2.935,2.935,0,0,1,2.345-1.731c1.337-.134,1.8.834,2.491,1.748.056.4.117.8.188,1.206a4.773,4.773,0,0,0,.813,2.453c.571.672,1.372.878,1.971.131a3.877,3.877,0,0,0,.575-2.567c-.03-2.157-.564-4.428.282-6.5a15.142,15.142,0,0,1,1.5-2.513,7.459,7.459,0,0,0,.7-1.083c.2-.453.362-.92.6-1.356a13.26,13.26,0,0,0,1.418-5.376c.091-1.084-.225-2.125-.115-3.218a12.245,12.245,0,0,1,.512-2.577,6.372,6.372,0,0,1,2.1-3.111,6.69,6.69,0,0,1,3.837-1.044,13.616,13.616,0,0,1,3.828.247c2.627.551,5.193,1.635,7.9,1.684a7.622,7.622,0,0,0,3.1-.558,21.341,21.341,0,0,1,9.7-1.329c.483.029.8,0,1.29.036,2.058.153,4.312.976,5.409,2.839,1.2,2.038,1.039,4.3,1.036,6.543a17.488,17.488,0,0,0,.423,4.182,11.422,11.422,0,0,0,1.493,3.731,13.866,13.866,0,0,1,1.928,7.317c.022.748-.247,4.81,1.152,4.6.428-.064.722-.6.849-.955a4.581,4.581,0,0,0,.221-1.247,14.723,14.723,0,0,0,.05-1.791c-.01-.164-.018-.326-.024-.489l.066,0c1.185-1.774,3.74-.856,4.445.839a5.772,5.772,0,0,1,.15,3.677,11.6,11.6,0,0,1-.658,1.728,7.529,7.529,0,0,1-.914,1.337,10.394,10.394,0,0,1-3.309,2.887c-.934.53-1.921.956-2.877,1.442l-.068-.03a33.764,33.764,0,0,1-4.565,7.874,63.957,63.957,0,0,1-4.869,5.068,20.45,20.45,0,0,1-1.593,1.373c-2.811,2.187-6.63,4.089-9.9,4.2l0,.073a16.2,16.2,0,0,1-3.716-.575,21.071,21.071,0,0,1-4.284-1.583C110.114,106,109.026,105.432,107.959,104.833Z" fill="#f5b49b"/>
            <path id="Trazado_192601" data-name="Trazado 192601" d="M40.689,35.023c-1.219.516-2.538,1.493-2.772,2.562-.126.578.051,1.194-.1,1.766-.255.954-1.288,1.429-2.026,2.084a4.234,4.234,0,0,0-1.115,4.557c.475,1.241,1.546,2.261,1.685,3.582.118,1.12-.418,2.439.339,3.274.641.707,1.78.545,2.677.875,1.152.425,1.841,1.65,2.96,2.157,1.621.735,3.469-.252,5.247-.331a19.633,19.633,0,0,1,3.21.374,4.26,4.26,0,0,0,3.1-.584c.941-.716,1.285-1.958,1.985-2.911a14.241,14.241,0,0,1,2.6-2.306,4.391,4.391,0,0,0,1.816-2.86c.119-1.572-1.144-2.886-1.6-4.4a16.861,16.861,0,0,1-.346-3.07c-.1-.962-.421-2.227-1.419-2.6a15.883,15.883,0,0,0-1.7-.358c-1.784-.456-2.975-2.168-4.674-2.877a6.036,6.036,0,0,0-3.489-.235c-1.094.217-2.2.927-3.305.945A7.506,7.506,0,0,0,40.689,35.023Z" fill="#fff"/>
            <path id="Trazado_192602" data-name="Trazado 192602" d="M137.914,162.969c-.218,4.062-3.85,7-5.651,10.649-1.573,3.187-1.71,6.865-1.817,10.417" fill="none"/>
            <path id="Trazado_192603" data-name="Trazado 192603" d="M113.759,223.206a23.484,23.484,0,0,1-.579-3.636c-.507-2.983-.84-5.993-1.106-9.006a33.921,33.921,0,0,0-.371-4.449,19.621,19.621,0,0,1-.4-3.33,73.589,73.589,0,0,0-2.846-16.4c.064.385.125.771.18,1.159.608,4.292.922,8.618,1.125,12.946.008.178.017.356.025.535.1,2.227.174,4.456.244,6.684.14,4.383.261,8.686.246,13.081-.01,3.268-.13,6.534-.289,9.8h4.771c-.073-.982-.207-1.966-.342-2.937A25.715,25.715,0,0,0,113.759,223.206Z" fill="#ededed"/>
            <path id="Trazado_192604" data-name="Trazado 192604" d="M139.044,132.7c-.3-1.839-.426-3.668-.881-5.485a18.522,18.522,0,0,0-5.292-9.495c-1.027-.914-2.433-1.356-3.436-2.206a8.788,8.788,0,0,1,.182,2.078,9.7,9.7,0,0,1-1.022,3.788,10.78,10.78,0,0,1-5.634,5.218c-.481.188-.957.4-1.444.573a7.5,7.5,0,0,1-2.794.376,14.152,14.152,0,0,1-2.823-.474,11.14,11.14,0,0,1-4.027-1.745,10.612,10.612,0,0,1-4.012-5.793,5.1,5.1,0,0,1-.073-2.5,6.413,6.413,0,0,0,.1-1.265c-.294.3-.928.657-1.286.979-2.258,2.039-3.4,5.522-4.433,8.3-1.9,5.11-2.289,10.567-2.336,15.973A99.707,99.707,0,0,0,101,157.487a83.16,83.16,0,0,0,1.843,8.7c1.848,6.847,4.447,13.186,5.616,20.2a73.589,73.589,0,0,1,2.846,16.4,19.621,19.621,0,0,0,.4,3.33,33.921,33.921,0,0,1,.371,4.449c.266,3.013.6,6.023,1.106,9.006a23.484,23.484,0,0,0,.579,3.636,25.715,25.715,0,0,1,.66,4.443c.135.971.269,1.955.342,2.937h17.534c.041-4.54.1-9.113-.3-13.614a97.957,97.957,0,0,1-.442-11.387c.084-3.123-.164-6.288-.058-9.433.117-3.518.873-7.017,1.018-10.55a45.335,45.335,0,0,1,1.119-7.76c.639-2.955.6-6,1.407-8.948.817-2.976,1.683-5.936,2.273-8.984.538-2.773.869-5.57,1.436-8.328A51.873,51.873,0,0,0,139.044,132.7Z" fill="#fffbf2"/>
            <g id="Grupo_135071" data-name="Grupo 135071">
              <path id="Trazado_192605" data-name="Trazado 192605" d="M121.844,52.233a.314.314,0,0,1-.224-.535,17.744,17.744,0,0,0,4.073-8.049.315.315,0,0,1,.607.165c-1.338,4.913-2.891,6.966-4.232,8.326A.316.316,0,0,1,121.844,52.233Z"/>
            </g>
            <g id="Grupo_135072" data-name="Grupo 135072">
              <path id="Trazado_192606" data-name="Trazado 192606" d="M126.9,52.355a.315.315,0,0,1-.1-.612,13.486,13.486,0,0,0,4.461-2.586.315.315,0,1,1,.416.473A14.11,14.11,0,0,1,127,52.337.321.321,0,0,1,126.9,52.355Z"/>
            </g>
            <g id="Grupo_135073" data-name="Grupo 135073">
              <path id="Trazado_192607" data-name="Trazado 192607" d="M112.455,49.306a.315.315,0,0,1-.307-.249c-.707-3.275-2.544-5.753-5.04-6.8a.315.315,0,0,1,.244-.58c2.688,1.126,4.66,3.767,5.411,7.247a.315.315,0,0,1-.241.374A.381.381,0,0,1,112.455,49.306Z"/>
            </g>
            <g id="Grupo_135074" data-name="Grupo 135074">
              <path id="Trazado_192608" data-name="Trazado 192608" d="M101.862,49.156a.325.325,0,0,1-.153-.039,8.644,8.644,0,0,0-5.416-1.234.315.315,0,0,1-.087-.623,9.256,9.256,0,0,1,5.809,1.307.314.314,0,0,1-.153.589Z"/>
            </g>
            <g id="Grupo_135075" data-name="Grupo 135075">
              <path id="Trazado_192609" data-name="Trazado 192609" d="M91.525,86.589a.315.315,0,0,1-.282-.174,2.185,2.185,0,0,0-.8-.755A2.424,2.424,0,0,1,89.429,84.6a1.977,1.977,0,0,1,.062-1.4,3.536,3.536,0,0,0,.132-.514,1.04,1.04,0,0,0-.1-.51c-.033-.092-.068-.187-.1-.292a1.22,1.22,0,0,0-.37-.7,1.91,1.91,0,0,0-1.262-.572.617.617,0,0,0-.422.286.315.315,0,1,1-.514-.363,1.22,1.22,0,0,1,.852-.546,2.393,2.393,0,0,1,1.745.709,1.824,1.824,0,0,1,.578,1.017,2.548,2.548,0,0,0,.081.242,1.592,1.592,0,0,1,.131.817,3.887,3.887,0,0,1-.153.61,1.4,1.4,0,0,0-.078.983,1.86,1.86,0,0,0,.782.77,2.734,2.734,0,0,1,1.01.994.314.314,0,0,1-.141.422A.307.307,0,0,1,91.525,86.589Z" fill="#ab684d"/>
            </g>
            <g id="Grupo_135076" data-name="Grupo 135076">
              <path id="Trazado_192610" data-name="Trazado 192610" d="M142.371,86.964a.307.307,0,0,1-.14-.034.315.315,0,0,1-.141-.422,2.815,2.815,0,0,1,1.039-1.023,1.927,1.927,0,0,0,.812-.8,1.474,1.474,0,0,0-.081-1.021,4.239,4.239,0,0,1-.158-.628,1.627,1.627,0,0,1,.136-.838c.031-.086.061-.168.084-.251a1.863,1.863,0,0,1,.593-1.045,2.463,2.463,0,0,1,1.793-.73,1.255,1.255,0,0,1,.873.56.315.315,0,1,1-.514.363.642.642,0,0,0-.443-.3,1.974,1.974,0,0,0-1.31.592,1.262,1.262,0,0,0-.386.725c-.029.108-.065.206-.1.3a1.068,1.068,0,0,0-.1.531,3.529,3.529,0,0,0,.136.532,2.034,2.034,0,0,1,.064,1.442,2.46,2.46,0,0,1-1.043,1.088,2.247,2.247,0,0,0-.829.783A.315.315,0,0,1,142.371,86.964Z" fill="#ab684d"/>
            </g>
            <g id="Grupo_135077" data-name="Grupo 135077">
              <path id="Trazado_192611" data-name="Trazado 192611" d="M81.436,123.512a.519.519,0,0,1-.174-.032.091.091,0,0,0-.037-.009.314.314,0,1,1,.049-.627.709.709,0,0,1,.173.034.318.318,0,0,1,.092-.007c.835.063,1.563-.979,1.826-1.648a7.6,7.6,0,0,0,.363-3.829,7.065,7.065,0,0,0-1.039-3.309c-.124-.159-.247-.321-.372-.484a.315.315,0,1,1,.5-.382l.369.481a7.536,7.536,0,0,1,1.165,3.608,8.192,8.192,0,0,1-.4,4.145,4.1,4.1,0,0,1-.89,1.364,2.06,2.06,0,0,1-1.517.685A.617.617,0,0,1,81.436,123.512Z" fill="#ab684d"/>
            </g>
            <g id="Grupo_135078" data-name="Grupo 135078">
              <path id="Trazado_192612" data-name="Trazado 192612" d="M70.531,109.276a.314.314,0,0,1-.189-.566,7.133,7.133,0,0,1,3.63-1.378.315.315,0,0,1,.054.627,6.5,6.5,0,0,0-3.306,1.254A.318.318,0,0,1,70.531,109.276Z" fill="#ab684d"/>
            </g>
            <g id="Grupo_135079" data-name="Grupo 135079">
              <path id="Trazado_192613" data-name="Trazado 192613" d="M76.938,128.294a1.463,1.463,0,0,1-1.113-.421.774.774,0,0,0-.148-.079.688.688,0,0,1-.484-.54.315.315,0,0,1,.621-.1,1.243,1.243,0,0,0,.127.065,1.042,1.042,0,0,1,.344.221c.472.5,1.8.046,2.384-.341a5.715,5.715,0,0,0,1.773-6.627,4.514,4.514,0,0,0-.593-1c-.091-.127-.185-.259-.271-.391-1.368-2.083-2.719-3.279-4.016-3.555a9.733,9.733,0,0,0-3.751.106.315.315,0,0,1-.128-.616,10.383,10.383,0,0,1,4.01-.106c1.486.316,2.929,1.568,4.411,3.826.08.122.166.243.257.371a4.949,4.949,0,0,1,.673,1.156c.846,2.352.427,5.732-2.016,7.362A4.232,4.232,0,0,1,76.938,128.294Z" fill="#ab684d"/>
            </g>
            <g id="Grupo_135080" data-name="Grupo 135080">
              <path id="Trazado_192614" data-name="Trazado 192614" d="M72.709,131.636a1.887,1.887,0,0,1-1.509-.785,2.765,2.765,0,0,1-.568-1.4,3.482,3.482,0,0,1,.021-.588,1.617,1.617,0,0,0-.049-.8,3.955,3.955,0,0,0-1.218-1.327l-.165-.133a.315.315,0,0,1,.4-.488l.162.132a4.48,4.48,0,0,1,1.394,1.552,2.132,2.132,0,0,1,.1,1.117,3.04,3.04,0,0,0-.02.485,2.151,2.151,0,0,0,.439,1.067,1.268,1.268,0,0,0,1.83.268A4.652,4.652,0,0,0,75.2,127.1a6.144,6.144,0,0,0-.293-2.053,5.307,5.307,0,0,0-1.445-1.983l-.144-.146a6.358,6.358,0,0,0-2.3-1.541.314.314,0,1,1,.22-.589,6.979,6.979,0,0,1,2.529,1.689l.142.145a5.857,5.857,0,0,1,1.6,2.24,6.821,6.821,0,0,1,.32,2.264,5.128,5.128,0,0,1-1.951,4.129A2.113,2.113,0,0,1,72.709,131.636Z" fill="#ab684d"/>
            </g>
            <g id="Grupo_135081" data-name="Grupo 135081">
              <path id="Trazado_192615" data-name="Trazado 192615" d="M76.489,132.28a.332.332,0,0,1-.092-.014.313.313,0,0,1-.209-.392,11.354,11.354,0,0,1,1.775-3.678c.137-.183.261-.352.383-.518.178-.243.346-.473.547-.735a.315.315,0,0,1,.5.382c-.2.258-.364.485-.54.725-.123.168-.248.338-.386.523a10.772,10.772,0,0,0-1.677,3.483A.315.315,0,0,1,76.489,132.28Z" fill="#ab684d"/>
            </g>
            <g id="Grupo_135082" data-name="Grupo 135082">
              <path id="Trazado_192616" data-name="Trazado 192616" d="M73.219,208.743a.3.3,0,0,1-.073-.009.314.314,0,0,1-.233-.379c.369-1.547.659-3.121.94-4.642.136-.737.265-1.434.4-2.129.456-2.311.937-4.663,1.4-6.938,1.417-6.928,2.881-14.093,3.865-21.171a23.679,23.679,0,0,1,.591-2.971,21.3,21.3,0,0,1,.844-2.36,11.922,11.922,0,0,0,1.09-3.946,23.648,23.648,0,0,0-.379-4.491,19.4,19.4,0,0,1-.257-5.953,24.418,24.418,0,0,1,1.123-4.165c.851-2.528,1.587-4.712.586-7.812-.047-.146-.084-.293-.119-.435-.1-.417-.193-.777-.5-.942a.315.315,0,0,1,.3-.553,1.852,1.852,0,0,1,.806,1.343c.034.138.066.269.107.393,1.065,3.3.262,5.682-.589,8.206a24.01,24.01,0,0,0-1.1,4.062,18.921,18.921,0,0,0,.257,5.763,24.124,24.124,0,0,1,.386,4.611,12.549,12.549,0,0,1-1.136,4.154,21.23,21.23,0,0,0-.82,2.29,22.977,22.977,0,0,0-.575,2.893c-.986,7.1-2.453,14.272-3.871,21.21-.465,2.274-.946,4.625-1.4,6.934-.137.691-.265,1.386-.4,2.121-.282,1.529-.574,3.111-.947,4.674A.315.315,0,0,1,73.219,208.743Z" fill="#2e5378"/>
            </g>
            <g id="Grupo_135083" data-name="Grupo 135083">
              <path id="Trazado_192617" data-name="Trazado 192617" d="M72.652,161.3a.312.312,0,0,1-.223-.093,90.044,90.044,0,0,1-7.826-9.288.315.315,0,0,1,.5-.381,89.4,89.4,0,0,0,7.771,9.225.315.315,0,0,1-.223.537Z" fill="#2e5378"/>
            </g>
            <g id="Grupo_135084" data-name="Grupo 135084">
              <path id="Trazado_192618" data-name="Trazado 192618" d="M67.56,168.422a15.571,15.571,0,0,1-4.8-.842.314.314,0,1,1,.194-.6,12.789,12.789,0,0,0,7,.539.315.315,0,1,1,.142.613A11.134,11.134,0,0,1,67.56,168.422Z" fill="#2e5378"/>
            </g>
            <g id="Grupo_135085" data-name="Grupo 135085">
              <path id="Trazado_192619" data-name="Trazado 192619" d="M161.924,231.015h0a.315.315,0,0,1-.311-.318c.019-2.162-.171-4.394-.355-6.552-.159-1.874-.324-3.813-.351-5.7-.049-3.468-.224-6.994-.394-10.4-.061-1.228-.124-2.5-.181-3.748-.334-7.4-.839-14.428-1.544-21.5a136.644,136.644,0,0,1-.923-22.011,68.854,68.854,0,0,1,3.538-17.143.315.315,0,1,1,.6.2,68.265,68.265,0,0,0-3.508,16.986,136.169,136.169,0,0,0,.921,21.909c.707,7.085,1.213,14.13,1.547,21.536.056,1.248.119,2.517.181,3.745.169,3.415.345,6.947.394,10.426.027,1.86.191,3.787.349,5.651.185,2.173.377,4.419.357,6.611A.315.315,0,0,1,161.924,231.015Z" fill="#2e5378"/>
            </g>
            <g id="Grupo_135086" data-name="Grupo 135086">
              <path id="Trazado_192620" data-name="Trazado 192620" d="M171.533,218.859a.315.315,0,0,1-.2-.556,25.746,25.746,0,0,0,6.942-8.334.315.315,0,0,1,.57.267,26.344,26.344,0,0,1-7.107,8.548A.313.313,0,0,1,171.533,218.859Z" fill="#2e5378"/>
            </g>
            <g id="Grupo_135087" data-name="Grupo 135087">
              <path id="Trazado_192621" data-name="Trazado 192621" d="M52.521,79.859a.745.745,0,0,1-.279-.055c-.293-.118-.585-.255-.867-.387a10.659,10.659,0,0,0-1.188-.5c-2.081-.683-4.166-1.569-6.182-2.425l-.583-.247a.749.749,0,0,1,.585-1.379l.583.248c1.988.844,4.043,1.717,6.064,2.38a11.813,11.813,0,0,1,1.358.571c.275.129.535.251.789.353a.749.749,0,0,1-.28,1.444Z" fill="#a19086"/>
            </g>
            <g id="Grupo_135088" data-name="Grupo 135088">
              <path id="Trazado_192622" data-name="Trazado 192622" d="M53.593,76.345a1.445,1.445,0,0,1-.5-.11l-.063-.022c-.29-.1-.536-.187-.752-.275l-.17-.07a7.262,7.262,0,0,0-1.192-.412c-1.978-.467-3.955-1.118-5.866-1.747-.627-.206-1.252-.412-1.874-.611a.748.748,0,1,1,.455-1.426c.627.2,1.256.407,1.887.615,1.881.619,3.827,1.26,5.742,1.711a8.739,8.739,0,0,1,1.417.485l.166.068c.186.076.4.155.661.241l.064.022a.753.753,0,0,1,.75.5.769.769,0,0,1-.185.808A.744.744,0,0,1,53.593,76.345Zm-.69-.539h0Z" fill="#a19086"/>
            </g>
            <g id="Grupo_135089" data-name="Grupo 135089">
              <path id="Trazado_192623" data-name="Trazado 192623" d="M53.823,73.407a1.514,1.514,0,0,1-.83-.319,1.216,1.216,0,0,0-.108-.07,18.041,18.041,0,0,0-3.483-1.2c-.455-.124-.926-.252-1.392-.392-.327-.1-3.355-1.125-4.641-1.687a.749.749,0,1,1,.6-1.372c1.21.528,4.171,1.533,4.475,1.625.446.135.906.26,1.352.381a19.447,19.447,0,0,1,3.768,1.313,2.577,2.577,0,0,1,.267.164l.076.05a.749.749,0,0,1,.228,1.457A.954.954,0,0,1,53.823,73.407Z" fill="#a19086"/>
            </g>
            <g id="Grupo_135090" data-name="Grupo 135090">
              <path id="Trazado_192624" data-name="Trazado 192624" d="M50.048,68.468h-.006a.749.749,0,0,1-.743-.754,22.123,22.123,0,0,1,.71-4.678c.2-.872.384-1.7.51-2.522.1-.66.193-1.329.287-2a38.159,38.159,0,0,1,1.675-7.922q.1-.281.21-.545a10.1,10.1,0,0,1-1.513-.441,7.669,7.669,0,0,1-3.232-2.183c-.216.212-.444.4-.656.578-.128.106-.254.21-.373.317A6,6,0,0,1,44.948,49.6a10.1,10.1,0,0,1-1.513.441q.106.264.21.545a38.288,38.288,0,0,1,1.675,7.922c.093.672.186,1.341.287,2,.153,1.008.379,2.035.6,3.027a37.471,37.471,0,0,1,.741,4.089.749.749,0,1,1-1.489.157,36.331,36.331,0,0,0-.714-3.924c-.224-1.016-.455-2.066-.616-3.122-.1-.667-.2-1.342-.29-2.021a37.155,37.155,0,0,0-1.6-7.613c-.122-.333-.248-.645-.379-.939-1.224.048-2.721-.017-3.537-.916a2.283,2.283,0,0,1-.5-1.986A1.749,1.749,0,0,1,38.9,45.752a2.066,2.066,0,0,1,2.029.558,8.291,8.291,0,0,1,1.833,2.309l.052,0a6.433,6.433,0,0,0,1.64-.423,4.674,4.674,0,0,0,1.467-.993c.133-.118.273-.235.414-.352a6.357,6.357,0,0,0,.721-.66,8.7,8.7,0,0,1-1.048-2.849c-.241-1.314-.087-3.089,1.141-3.765a1.245,1.245,0,0,1,1.248,0c1.07.619,1.178,2.761,1.178,2.782a8.441,8.441,0,0,1-.734,3.8,6.2,6.2,0,0,0,2.835,2.042,6.412,6.412,0,0,0,1.64.423l.052,0A8.3,8.3,0,0,1,55.2,46.311a2.064,2.064,0,0,1,2.03-.559A1.752,1.752,0,0,1,58.3,47.265a2.286,2.286,0,0,1-.5,1.986c-.816.9-2.313.965-3.537.916-.131.294-.257.606-.379.939a37.089,37.089,0,0,0-1.6,7.613c-.094.679-.188,1.354-.29,2.021-.134.878-.335,1.767-.529,2.626a21.063,21.063,0,0,0-.674,4.359A.748.748,0,0,1,50.048,68.468ZM56.7,47.151a1.138,1.138,0,0,0-.522.293,6.343,6.343,0,0,0-1.088,1.232,2.444,2.444,0,0,0,1.6-.431c.052-.057.21-.231.128-.745a.646.646,0,0,0-.122-.349ZM39.41,47.16a.95.95,0,0,0-.1.34c-.082.514.076.688.127.745a2.449,2.449,0,0,0,1.606.431,6.346,6.346,0,0,0-1.089-1.232A.954.954,0,0,0,39.41,47.16ZM47.733,41a2.94,2.94,0,0,0-.254,2.068,7.473,7.473,0,0,0,.389,1.374,8.016,8.016,0,0,0,.208-2.061A4.139,4.139,0,0,0,47.733,41Z" fill="#a84216"/>
            </g>
            <g id="Grupo_135091" data-name="Grupo 135091">
              <path id="Trazado_192625" data-name="Trazado 192625" d="M104.1,188.255a.314.314,0,0,1-.311-.269,54.937,54.937,0,0,0-2.325-9.128c-.3-.92-.67-1.867-1.024-2.783a28.473,28.473,0,0,1-1.852-6.092.315.315,0,1,1,.623-.089,28.031,28.031,0,0,0,1.815,5.954c.358.923.727,1.878,1.036,2.813a55.548,55.548,0,0,1,2.35,9.233.316.316,0,0,1-.266.358A.355.355,0,0,1,104.1,188.255Z" fill="#2e5378"/>
            </g>
            <g id="Grupo_135092" data-name="Grupo 135092">
              <path id="Trazado_192626" data-name="Trazado 192626" d="M163.18,141.549a.314.314,0,0,1-.291-.433,22.438,22.438,0,0,1,1.938-3.5c.475-.748.966-1.52,1.376-2.307a.314.314,0,1,1,.558.29c-.422.811-.921,1.6-1.4,2.354a21.932,21.932,0,0,0-1.886,3.4A.315.315,0,0,1,163.18,141.549Z" fill="#2e5378"/>
            </g>
          </g>
        </g>
      </g>
    </g>
  </g>
</svg>
