<svg id="Grupo_135096" data-name="Grupo 135096" xmlns="http://www.w3.org/2000/svg" width="190" height="190" viewBox="0 0 190 190">
  <path id="Trazado_188103" data-name="Trazado 188103" d="M161.45,29.606a68.591,68.591,0,0,1,9.2,12.375c19.38,31.865,11.947,67.058,9.458,77.932-4.02,17.542-6.954,32.369-19.057,44.71-27.5,28.043-82.258,24.347-115.294.672-3.916-2.807-35.891-26.4-39.053-62.116-.077-.874-.115-1.525-.152-2.1-.352-5.518-2-39.7,22.376-66.494A83.676,83.676,0,0,1,48.076,19.057C82.419-1.238,134.213.847,161.45,29.606Z" fill="#e5e1f1"/>
  <path id="Trazado_139920" data-name="Trazado 139920" d="M182.11,182.3a2.725,2.725,0,0,0,.3.081,2.011,2.011,0,0,0,2.487-2.229,3.69,3.69,0,0,0-2.75-3.31,69.086,69.086,0,0,1-14.973-5.087,81.959,81.959,0,0,1-14.246-8.512l-.849-.626-.833-.652c-.557-.431-1.1-.88-1.645-1.331q-1.635-1.344-3.187-2.79c-.523-.475-1.023-.977-1.533-1.462s-.995-1-1.492-1.5c-.479-.519-.969-1.02-1.434-1.552s-.938-1.048-1.381-1.589-.9-1.07-1.324-1.622c-.215-.274-.433-.544-.64-.822l-.617-.834c-.42-.549-.792-1.124-1.189-1.682-.376-.569-.751-1.136-1.109-1.709s-.708-1.145-1.024-1.729c-.16-.29-.328-.577-.484-.868l-.451-.871c-.074-.147-.153-.288-.224-.437l-.211-.453-.42-.9c-.257-.612-.528-1.214-.767-1.828a64,64,0,0,1-3.832-15.121c-.716-5.166-1.009-10.419-1.3-15.873-.15-2.729-.286-5.506-.489-8.367-.094-1.427-.222-2.882-.359-4.35-.078-.741-.146-1.478-.236-2.229l-.26-2.191c-.677-5.608-1.45-11.4-2.611-17.41a123.952,123.952,0,0,0-5.07-18.767,87.65,87.65,0,0,0-4.3-9.941A75.81,75.81,0,0,0,107.539,33.7c-1.192-1.647-2.476-3.268-3.84-4.84-.681-.789-1.388-1.559-2.108-2.323-.362-.378-.712-.746-1.1-1.127s-.772-.765-1.167-1.134a61.717,61.717,0,0,0-10.117-7.787c-.893-.547-1.791-1.075-2.7-1.567-.48-.264-.848-.451-1.255-.671l-1.2-.632c-.8-.419-1.624-.812-2.449-1.2s-1.663-.743-2.5-1.112A64.882,64.882,0,0,0,68.7,7.894,54.7,54.7,0,0,0,58.04,6.428a50.474,50.474,0,0,0-28.234,7.34A64.4,64.4,0,0,0,15.95,25.037a77.538,77.538,0,0,0-5.684,6.788c-.89,1.2-1.752,2.434-2.6,3.733-.421.652-.841,1.316-1.261,2.022-.211.354-.421.713-.637,1.1l-.333.614-.179.35-.1.214-.146.324C.756,51.067,6.609,65.9,18.08,73.31s24.22,4.6,28.474-6.283l-.06.11c-.016.025-.014.009-.014.009l-.006-.009c-.008-.006,0-.048,0-.074a2.236,2.236,0,0,1,.033-.228c.027-.168.074-.364.12-.56.1-.4.211-.82.338-1.245.26-.855.554-1.731.877-2.6a46.291,46.291,0,0,1,2.222-5.063A39.434,39.434,0,0,1,55.85,48.8a24.663,24.663,0,0,1,7.179-5.578,18.025,18.025,0,0,1,4.082-1.479,19.853,19.853,0,0,1,4.53-.523,25.489,25.489,0,0,1,5.066.49c.448.1.895.185,1.352.3s.917.226,1.382.362l1.353.4c.355.1.713.216,1.068.333a20.022,20.022,0,0,1,4.166,2.042c.169.1.334.217.5.328l.533.381c.357.262.713.532,1.064.821.705.573,1.4,1.2,2.1,1.879a46.3,46.3,0,0,1,7.789,10.7q.9,1.61,1.72,3.32t1.6,3.5c1.029,2.386,1.991,4.865,2.9,7.408,1.815,5.088,3.4,10.415,4.946,15.907l.553,1.972c.18.636.345,1.284.52,1.931.332,1.305.66,2.619.97,3.962.626,2.675,1.214,5.423,1.8,8.221,1.183,5.594,2.4,11.415,4.157,17.366a84.6,84.6,0,0,0,7.316,17.82c.4.722.836,1.432,1.257,2.142.449.705.875,1.4,1.345,2.1l.7,1.05c.237.346.483.683.723,1.024.476.686.99,1.338,1.489,2a72.2,72.2,0,0,0,6.506,7.214,96.649,96.649,0,0,0,14.45,11.461,120.756,120.756,0,0,0,15.352,8.475,149.069,149.069,0,0,0,15.787,6.175Z" fill="#fdb74d"/>
  <circle id="Elipse_5890" data-name="Elipse 5890" cx="15.61" cy="15.61" r="15.61" transform="translate(11.913 125.484)" fill="#fdb74d" opacity="0.5"/>
  <g id="Elipse_4972" data-name="Elipse 4972">
    <circle id="Elipse_5891" data-name="Elipse 5891" cx="14.415" cy="14.415" r="14.415" transform="translate(13.107 126.679)" fill="none"/>
    <circle id="Elipse_5892" data-name="Elipse 5892" cx="13.646" cy="13.646" r="13.646" transform="translate(13.876 127.448)" fill="none" stroke="#fff" stroke-linecap="round" stroke-width="1.538" stroke-dasharray="1.153 3.075"/>
  </g>
  <g id="Grupo_135120" data-name="Grupo 135120">
    <g id="Grupo_135096-2" data-name="Grupo 135096">
      <path id="Rectángulo_44790" data-name="Rectángulo 44790" d="M1.8,0H187.859a0,0,0,0,1,0,0V1.849a1.8,1.8,0,0,1-1.8,1.8H1.8A1.8,1.8,0,0,1,0,1.849V1.8A1.8,1.8,0,0,1,1.8,0Z" transform="translate(1.071 186.354)" fill="#bdccd4"/>
      <path id="Rectángulo_44791" data-name="Rectángulo 44791" d="M0,0H69.78a0,0,0,0,1,0,0V1.849a1.8,1.8,0,0,1-1.8,1.8H1.8A1.8,1.8,0,0,1,0,1.849V0A0,0,0,0,1,0,0Z" transform="translate(1.071 186.354)" fill="#8c6df2"/>
    </g>
    <g id="Grupo_135099" data-name="Grupo 135099">
      <path id="Trazado_192627" data-name="Trazado 192627" d="M96.661,116.858c-8.122,15.608-17.248,21.966-17.248,21.966l7.881,12.583,13.762-14.3Z" fill="#fdb74d"/>
      <path id="Trazado_192628" data-name="Trazado 192628" d="M116.8,113.133l-20.138,3.725c-1.276,38.1-1.754,69.491-1.754,69.491h36.147s1.049-58.343-4.766-71.073Z" fill="#fdb74d"/>
      <line id="Línea_260" data-name="Línea 260" y1="0.83" x2="9.811" transform="translate(114.46 131.719)" fill="none" stroke="#fedc72" stroke-miterlimit="10" stroke-width="1.71"/>
      <path id="Trazado_192629" data-name="Trazado 192629" d="M109.957,124.36s6.227,42.494.809,59.688" fill="none" stroke="#fedc72" stroke-miterlimit="10" stroke-width="0.428"/>
      <path id="Trazado_192630" data-name="Trazado 192630" d="M103.437,145.646a44.838,44.838,0,0,0,13.812,2.677c7.8.256,2.946,4.4-8.614,3.618" fill="none" stroke="#fedc72" stroke-miterlimit="10" stroke-width="0.428"/>
      <path id="Trazado_192631" data-name="Trazado 192631" d="M104.987,111.583l4.97,13.2,6.842-11.655-4.509-7.369Z" fill="#e9a394"/>
      <path id="Trazado_192632" data-name="Trazado 192632" d="M109.957,124.788l9.278-2.561-2.436-9.094Z" fill="#fedc72"/>
      <path id="Trazado_192633" data-name="Trazado 192633" d="M106.091,114.517l-5.035,5.624,8.9,4.646Z" fill="#fedc72"/>
      <path id="Trazado_192634" data-name="Trazado 192634" d="M87.294,151.407s2.94-6.132-3.374-14.031c-3.5-4.38-5.114-11.938-5.114-11.938l-5.261.8,4.817,25.169Z" fill="#e9a394"/>
      <path id="Trazado_192635" data-name="Trazado 192635" d="M72.47,117.547,70.316,119.5l2.879,2.542-9.016-.154-.193,3.094,9.559,1.252,5.261-.8Z" fill="#e9a394"/>
      <path id="Trazado_192636" data-name="Trazado 192636" d="M74.046,122.365,65.395,118.8l-.558,1.537,7.22,3.034Z" fill="#e9a394"/>
      <path id="Trazado_192637" data-name="Trazado 192637" d="M126.288,115.276s11.621,6.616,15.291,31.4L128.1,149.93Z" fill="#fdb74d"/>
      <g id="Grupo_135098" data-name="Grupo 135098">
        <path id="Trazado_192638" data-name="Trazado 192638" d="M101.05,95.447l-4.389,11.231,3.356,1.033,1.033,6.325,10.715-2.453,1.549-17.169Z" fill="#e9a394"/>
        <path id="Trazado_192639" data-name="Trazado 192639" d="M108.2,98.116h-8.194l.893-2.421,7.3-.452Z" fill="#e37a82"/>
        <path id="Trazado_192640" data-name="Trazado 192640" d="M112.482,103.24s-5.228-1.082-5.228-6.49c0,0-7.756,1.056-10.434-3.154-3.172-4.988,1.675-10.719,5.678-9.554,0,0-2.522,2.5,1.309,2.794,2.732.21,7.724-3.425,9.506.09,0,0,13.751,3.141,3.486,15.953Z" fill="#16005c"/>
        <path id="Trazado_192641" data-name="Trazado 192641" d="M107.254,96.323s-10.368,2-12.536-5.432c-1.268-4.347,3.089-6.822,3.089-6.822" fill="none" stroke="#16005c" stroke-miterlimit="10" stroke-width="0.855"/>
        <g id="Grupo_135097" data-name="Grupo 135097">
          <circle id="Elipse_5893" data-name="Elipse 5893" cx="3.914" cy="3.914" r="3.914" transform="translate(98.953 98.492)" fill="none" stroke="#16005c" stroke-miterlimit="10" stroke-width="0.214"/>
          <line id="Línea_261" data-name="Línea 261" x2="5.574" y2="0.305" transform="translate(106.57 101.14)" fill="none" stroke="#16005c" stroke-miterlimit="10" stroke-width="0.214"/>
        </g>
        <path id="Trazado_192642" data-name="Trazado 192642" d="M119.235,104.225c0,2.424-3.248,4.389-5.672,4.389s-3.106-1.965-3.106-4.389a4.389,4.389,0,0,1,8.778,0Z" fill="#e9a394"/>
      </g>
      <path id="Trazado_192643" data-name="Trazado 192643" d="M139.97,147.065V167.3H129.878l-.84-17.6Z" fill="#e9a394"/>
      <path id="Trazado_192644" data-name="Trazado 192644" d="M95.875,142.49l.424-14.1-6.537,20.456Z" fill="#fedc72"/>
      <path id="Trazado_192645" data-name="Trazado 192645" d="M105.507,112.927l6.258-1.343-5.13,4.376Z" fill="#e37a82"/>
    </g>
    <g id="Grupo_135102" data-name="Grupo 135102">
      <path id="Trazado_192646" data-name="Trazado 192646" d="M50.8,147.763s16.084-2.488,16.4,25.558c.051,4.552,2.949,13.033,2.949,13.033H55.574Z" fill="#8c6df2"/>
      <path id="Trazado_192647" data-name="Trazado 192647" d="M33.984,145.275l-9.721,2.294,2.966,38.785H65.052s-1.269-30.686-15.532-39.892Z" fill="#5038a1"/>
      <path id="Trazado_192648" data-name="Trazado 192648" d="M24.263,147.569c-10.019,2.286-7.674,9.976-5.739,25.767-5,4.061-.2,5.89-.2,5.89-5.493,5.821,1.359,7.128,1.359,7.128H37.97S34.289,145.283,24.263,147.569Z" fill="#5038a1"/>
      <line id="Línea_262" data-name="Línea 262" x1="4.389" y1="20.149" transform="translate(32.493 157.247)" fill="none" stroke="#8c6df2" stroke-miterlimit="10" stroke-width="0.428"/>
      <path id="Trazado_192649" data-name="Trazado 192649" d="M19.68,186.354s3.088-7.09,12.848-10.654c8.092-2.956,19.93,4.716,27.508-2.574l1.4,8.208-23.469,5.02Z" fill="#e9a394"/>
      <g id="Grupo_135101" data-name="Grupo 135101">
        <g id="Grupo_135100" data-name="Grupo 135100">
          <path id="Trazado_192650" data-name="Trazado 192650" d="M51.854,125.3l7.236,11.014-4.643,1.658-.8,8.951-13.954-4.848L41,123.867Z" fill="#e9a394"/>
          <path id="Trazado_192651" data-name="Trazado 192651" d="M41.117,136.869l-7.133,8.405,9.147,11.21,4.125-13.093Z" fill="#e37a82"/>
          <path id="Trazado_192652" data-name="Trazado 192652" d="M43.5,131.665l10.207-3.541L51.854,125.3l-10.083,1.049Z" fill="#e37a82"/>
          <path id="Trazado_192653" data-name="Trazado 192653" d="M42.621,135.523s3.09,6.187.94-5.739c0,0,2.933.329,5.229-3.541,0,0-.714,6.307,6.023,0S52.986,115,42.521,116.858c-9.071,1.609-18.149,6.734-4.882,24.109Z" fill="#16005c"/>
          <path id="Trazado_192654" data-name="Trazado 192654" d="M40.969,137.983a5.089,5.089,0,0,1-3.136,1.962,4.847,4.847,0,0,1-5.278-4.088c-.362-2.487.894-3.778,3.381-4.141a6.174,6.174,0,0,1,4.23,1.055C40.533,133.228,40.969,137.983,40.969,137.983Z" fill="#e9a394"/>
        </g>
        <path id="Trazado_192655" data-name="Trazado 192655" d="M32.842,145.619l1.656-1.9-.608-1.41,3.749-1.339,10.754,5.408.4,4.129-1.82-.575L44,161Z" fill="#5038a1"/>
        <path id="Trazado_192656" data-name="Trazado 192656" d="M42.553,148.323l6.237,2.182-.4-4.129" fill="none" stroke="#8c6df2" stroke-miterlimit="10" stroke-width="0.428"/>
        <path id="Trazado_192657" data-name="Trazado 192657" d="M43.561,129.784s1.255,7.3,3.09,8.8c.6.493,1.743-.761,6.993-.866,3.21-.065,3.207,11.14-1.053,10.819s-10.733-2.977-11.7-11.144C40.037,130.231,43.561,129.784,43.561,129.784Z" fill="#16005c"/>
      </g>
    </g>
    <g id="Grupo_135104" data-name="Grupo 135104">
      <path id="Rectángulo_44792" data-name="Rectángulo 44792" d="M0,0H35.905a1.951,1.951,0,0,1,1.951,1.951V2.66a1.951,1.951,0,0,1-1.951,1.951H1.951A1.951,1.951,0,0,1,0,2.66V0A0,0,0,0,1,0,0Z" transform="translate(37.229 181.743)" fill="#1c145e"/>
      <g id="Grupo_135103" data-name="Grupo 135103">
        <path id="Trazado_192658" data-name="Trazado 192658" d="M102.294,155.075H60.528a2.467,2.467,0,0,0-2.447,2.154l-3.365,26.346a2.467,2.467,0,0,0,2.447,2.779H98.93a2.466,2.466,0,0,0,2.446-2.154l3.365-26.346A2.467,2.467,0,0,0,102.294,155.075Z" fill="#1c145e"/>
        <path id="Trazado_192659" data-name="Trazado 192659" d="M104.316,155.075H62.549a2.468,2.468,0,0,0-2.447,2.154l-3.364,26.346a2.466,2.466,0,0,0,2.446,2.779h41.767A2.468,2.468,0,0,0,103.4,184.2l3.364-26.346A2.466,2.466,0,0,0,104.316,155.075Z" fill="#4d4d4d"/>
        <ellipse id="Elipse_5894" data-name="Elipse 5894" cx="4.342" cy="3.909" rx="4.342" ry="3.909" transform="matrix(0.725, -0.688, 0.688, 0.725, 75.91, 170.867)" fill="#fff"/>
      </g>
      <line id="Línea_263" data-name="Línea 263" x1="51.988" transform="translate(51.416 186.131)" fill="none" stroke="#1c145e" stroke-miterlimit="10" stroke-width="0.428"/>
    </g>
    <g id="Grupo_135110" data-name="Grupo 135110">
      <g id="Grupo_135108" data-name="Grupo 135108">
        <g id="Grupo_135105" data-name="Grupo 135105">
          <path id="Trazado_192660" data-name="Trazado 192660" d="M126.381,150.873l17.258.327-3.912-21.112-9.177,1.039s-4.134,6.1-.87,10.845C133.364,147.324,126,147.524,126.381,150.873Z" fill="#16005c"/>
          <path id="Trazado_192661" data-name="Trazado 192661" d="M130.55,131.127s-4.134,6.1-.87,10.845c3.684,5.352-3.678,5.552-3.3,8.9" fill="none" stroke="#7079f1" stroke-miterlimit="10" stroke-width="0.855"/>
        </g>
        <path id="Trazado_192662" data-name="Trazado 192662" d="M133.993,148.323S126.14,156.028,122,185.067h8.741Z" fill="#5038a1"/>
        <path id="Trazado_192663" data-name="Trazado 192663" d="M154.746,146.176l-3.417,38.891H125.941l3.16-14.854s-9.665-5.042,4.892-21.89l3.618-1.861,15.718-1.187Z" fill="#c3c8ff"/>
        <path id="Trazado_192664" data-name="Trazado 192664" d="M133.993,165.728s-1.522,2.607-.059,4.7l-2.155,14.64" fill="none" stroke="#7079f1" stroke-miterlimit="10" stroke-width="0.428"/>
        <line id="Línea_264" data-name="Línea 264" x2="14.705" y2="0.434" transform="translate(130.444 170.28)" fill="none" stroke="#7079f1" stroke-miterlimit="10" stroke-width="0.428"/>
        <line id="Línea_265" data-name="Línea 265" x1="1.555" y1="18.705" transform="translate(146.493 158.895)" fill="none" stroke="#7079f1" stroke-miterlimit="10" stroke-width="0.428"/>
        <path id="Trazado_192665" data-name="Trazado 192665" d="M154.746,146.176a25.049,25.049,0,0,1,3.025,5.855c2.3,5.8,5.047,16.277,4.867,33.036H151.329Z" fill="#c3c8ff"/>
        <path id="Trazado_192666" data-name="Trazado 192666" d="M162.638,186.349s-5.651-12.922-19.863-9.224c-15.518,4.038-21.281,3.283-21.281,3.283l-1.176,5.941Z" fill="#e9a394"/>
        <g id="Grupo_135106" data-name="Grupo 135106">
          <path id="Trazado_192667" data-name="Trazado 192667" d="M147.845,174.409l-5.043,1.128,11.455,10.812h10.8S160.4,175.066,147.845,174.409Z" fill="#5038a1"/>
          <line id="Línea_266" data-name="Línea 266" y1="0.734" x2="2.402" transform="translate(148.157 177.029)" fill="#5038a1" stroke="#c3c8ff" stroke-miterlimit="10" stroke-width="0.428"/>
        </g>
        <path id="Trazado_192668" data-name="Trazado 192668" d="M121.494,180.408l-7.374-1.525-5.286,7.466h11.483Z" fill="#e9a394"/>
        <path id="Trazado_192669" data-name="Trazado 192669" d="M133.993,165.728l13.7-13.7-2.546-1.2,9.6-4.648-4.407-2.8H140.083l-6.09,7.612,1.683.423-1.683,1.18Z" fill="#5038a1"/>
        <g id="Grupo_135107" data-name="Grupo 135107">
          <path id="Trazado_192670" data-name="Trazado 192670" d="M143.572,148.03l4.476-3.093-4.832-10.8-7.489,4.7,2.11,8.962-3.844,17.93Z" fill="#e9a394"/>
          <path id="Trazado_192671" data-name="Trazado 192671" d="M136.33,141.4l5.256-2.741-4.693,5.134Z" fill="#e37a82"/>
          <path id="Trazado_192672" data-name="Trazado 192672" d="M126.728,125.754l-2.3,12.72h3.443l3.865,5.315,9.845-5.134L134.7,123.314Z" fill="#e9a394"/>
          <path id="Trazado_192673" data-name="Trazado 192673" d="M126.171,128.839l-.23,1.4L135.02,129l-.139-1.74Z" fill="#e37a82"/>
          <path id="Trazado_192674" data-name="Trazado 192674" d="M151.823,124.788c-2.273-6.161-5.052-8.536-5.052-8.537-5.57-5.534-15.091.607-15.091.607-12.2-2.953-7.247,12.194-7.247,12.194l9.935-1.219c1.39,8.335,6.358,4.114,6.358,4.114l2.317,4.18s-2.338,2.066.1,5.608c2.007,2.917-2.8,3.911-1.556,7.015l19.205-3.98C160.791,132.134,155.93,135.923,151.823,124.788Z" fill="#16005c"/>
          <path id="Trazado_192675" data-name="Trazado 192675" d="M123.654,129.15s-1.757-8.648,1.471-11.462c1.683-1.468,6.983-.83,6.983-.83" fill="none" stroke="#7079f1" stroke-miterlimit="10" stroke-width="0.855"/>
          <path id="Trazado_192676" data-name="Trazado 192676" d="M162.048,144.407s1.534-5.752-6.822-12.273" fill="none" stroke="#16005c" stroke-miterlimit="10" stroke-width="0.855"/>
          <circle id="Elipse_5895" data-name="Elipse 5895" cx="4.137" cy="4.137" r="4.137" transform="translate(136.875 128.387)" fill="#e9a394"/>
        </g>
      </g>
      <path id="Trazado_192677" data-name="Trazado 192677" d="M130.444,138.006l2.565-.63S133.909,144.691,130.444,138.006Z" fill="#fff"/>
      <g id="Grupo_135109" data-name="Grupo 135109">
        <path id="Trazado_192678" data-name="Trazado 192678" d="M128.309,133.683s.816-4.975,2.6,0" fill="none" stroke="#1c145e" stroke-miterlimit="10" stroke-width="0.214"/>
        <path id="Trazado_192679" data-name="Trazado 192679" d="M128.939,129.9a1.181,1.181,0,0,1,2.172,0Z" fill="#16005c"/>
      </g>
    </g>
    <g id="Grupo_135112" data-name="Grupo 135112">
      <g id="Grupo_135111" data-name="Grupo 135111">
        <path id="Trazado_192680" data-name="Trazado 192680" d="M85.785,72.414a7.669,7.669,0,1,0-10.848,9.35,11.007,11.007,0,0,1,3.974,3.591l.29.435,5.745-2.066-.053-.518a11.435,11.435,0,0,1,.809-5.382A7.637,7.637,0,0,0,85.785,72.414Z" fill="#c3c8ff"/>
        <path id="Trazado_192681" data-name="Trazado 192681" d="M85.785,72.414a7.669,7.669,0,1,0-10.848,9.35,11.007,11.007,0,0,1,3.974,3.591l.29.435,5.745-2.066-.053-.518a11.435,11.435,0,0,1,.809-5.382A7.637,7.637,0,0,0,85.785,72.414Z" fill="#c3c8ff"/>
        <path id="Trazado_192682" data-name="Trazado 192682" d="M80.515,84.1l-4.58-6.46a1.215,1.215,0,0,1,1.521-1.1c1.438.207,2.3,2.476,1.27,2.11s-1.389-3.033.552-3.44,2.59,4,1.517,3.154-.846-3.658,1.233-3.681L83.248,84" fill="none" stroke="#fff" stroke-miterlimit="10" stroke-width="0.428"/>
        <rect id="Rectángulo_44793" data-name="Rectángulo 44793" width="6.815" height="5.634" rx="1.974" transform="translate(78.351 84.476) rotate(-19.776)" fill="#16005c"/>
        <rect id="Rectángulo_44794" data-name="Rectángulo 44794" width="8.635" height="4.215" transform="translate(77.328 84.321) rotate(-19.776)" fill="#6876eb"/>
      </g>
      <line id="Línea_267" data-name="Línea 267" x1="0.81" y1="4.648" transform="translate(77.563 60.733)" fill="none" stroke="#c3c8ff" stroke-miterlimit="10" stroke-width="0.428"/>
      <line id="Línea_268" data-name="Línea 268" x1="3.882" y1="3.792" transform="translate(68.636 64.358)" fill="none" stroke="#c3c8ff" stroke-miterlimit="10" stroke-width="0.428"/>
      <line id="Línea_269" data-name="Línea 269" x1="4.429" y2="0.317" transform="translate(64.043 75.037)" fill="none" stroke="#c3c8ff" stroke-miterlimit="10" stroke-width="0.428"/>
      <line id="Línea_270" data-name="Línea 270" y1="3.696" x2="1.993" transform="translate(84.758 64.231)" fill="none" stroke="#c3c8ff" stroke-miterlimit="10" stroke-width="0.428"/>
    </g>
    <g id="Grupo_135119" data-name="Grupo 135119">
      <g id="Grupo_135115" data-name="Grupo 135115">
        <g id="Grupo_135114" data-name="Grupo 135114">
          <path id="Trazado_192683" data-name="Trazado 192683" d="M149.745,108.063h27.464a2.166,2.166,0,0,0,2.043-1.729l2.838-15.658a1.4,1.4,0,0,0-1.416-1.729H153.21a2.166,2.166,0,0,0-2.043,1.729l-2.838,15.658A1.4,1.4,0,0,0,149.745,108.063Z" fill="#1c145c"/>
          <g id="Grupo_135113" data-name="Grupo 135113">
            <ellipse id="Elipse_5896" data-name="Elipse 5896" cx="1.966" cy="1.641" rx="1.966" ry="1.641" transform="matrix(0.738, -0.674, 0.674, 0.738, 168.107, 98.62)" fill="#fff"/>
            <ellipse id="Elipse_5897" data-name="Elipse 5897" cx="1.966" cy="1.641" rx="1.966" ry="1.641" transform="matrix(0.738, -0.674, 0.674, 0.738, 162.651, 98.62)" fill="#fff"/>
            <ellipse id="Elipse_5898" data-name="Elipse 5898" cx="1.966" cy="1.641" rx="1.966" ry="1.641" transform="matrix(0.738, -0.674, 0.674, 0.738, 157.196, 98.62)" fill="#fff"/>
          </g>
        </g>
        <path id="Trazado_192684" data-name="Trazado 192684" d="M164.526,107.033l-9.543,5.672,1.71-6.119Z" fill="#1c145c"/>
      </g>
      <g id="Grupo_135118" data-name="Grupo 135118">
        <g id="Grupo_135117" data-name="Grupo 135117">
          <path id="Trazado_192685" data-name="Trazado 192685" d="M61.269,105.742H33.8a2.165,2.165,0,0,1-2.042-1.729L28.924,88.355a1.4,1.4,0,0,1,1.415-1.729H57.8a2.165,2.165,0,0,1,2.042,1.729l2.838,15.658A1.4,1.4,0,0,1,61.269,105.742Z" fill="#c3c8ff"/>
          <g id="Grupo_135116" data-name="Grupo 135116">
            <ellipse id="Elipse_5899" data-name="Elipse 5899" cx="1.641" cy="1.966" rx="1.641" ry="1.966" transform="matrix(0.674, -0.738, 0.738, 0.674, 37.791, 96.069)" fill="#fff"/>
            <ellipse id="Elipse_5900" data-name="Elipse 5900" cx="1.641" cy="1.966" rx="1.641" ry="1.966" transform="matrix(0.674, -0.738, 0.738, 0.674, 43.246, 96.069)" fill="#fff"/>
            <ellipse id="Elipse_5901" data-name="Elipse 5901" cx="1.641" cy="1.966" rx="1.641" ry="1.966" transform="matrix(0.674, -0.738, 0.738, 0.674, 48.701, 96.069)" fill="#fff"/>
          </g>
        </g>
        <path id="Trazado_192686" data-name="Trazado 192686" d="M51.471,104.712l1.506,5.475,6.093-5.858Z" fill="#c3c8ff"/>
      </g>
    </g>
  </g>
  <g id="Grupo_135121" data-name="Grupo 135121">
    <circle id="Elipse_5247" data-name="Elipse 5247" cx="14.58" cy="14.58" r="14.58" transform="translate(34.934 26.758)" fill="#5038a1" opacity="0.7" style="isolation: isolate"/>
    <g id="Elipse_5249" data-name="Elipse 5249">
      <circle id="Elipse_5902" data-name="Elipse 5902" cx="5.494" cy="5.494" r="5.494" transform="translate(45.822 31.404)" fill="none"/>
      <circle id="Elipse_5903" data-name="Elipse 5903" cx="4.86" cy="4.86" r="4.86" transform="translate(46.456 32.038)" fill="none" stroke="#fff" stroke-width="1.268"/>
    </g>
    <g id="Elipse_5250" data-name="Elipse 5250">
      <circle id="Elipse_5904" data-name="Elipse 5904" cx="2.958" cy="2.958" r="2.958" transform="translate(9.365 23.362)" fill="#fdb74d"/>
      <circle id="Elipse_5905" data-name="Elipse 5905" cx="2.324" cy="2.324" r="2.324" transform="translate(9.999 23.995)" fill="#fdb74d" stroke="#8c6df2" stroke-width="1.268"/>
    </g>
    <circle id="Elipse_5251" data-name="Elipse 5251" cx="1.902" cy="1.902" r="1.902" transform="translate(28.687 39.564)" fill="#fdb74d"/>
  </g>
  <g id="Grupo_135122" data-name="Grupo 135122">
    <circle id="Elipse_5906" data-name="Elipse 5906" cx="20.765" cy="20.765" r="20.765" transform="translate(138.989 7.879)" fill="#fdb74d" opacity="0.5"/>
    <g id="Elipse_4972-2" data-name="Elipse 4972">
      <circle id="Elipse_5907" data-name="Elipse 5907" cx="19.176" cy="19.176" r="19.176" transform="translate(140.578 9.469)" fill="none"/>
      <circle id="Elipse_5908" data-name="Elipse 5908" cx="18.153" cy="18.153" r="18.153" transform="translate(141.601 10.491)" fill="none" stroke="#fff" stroke-linecap="round" stroke-width="2.045" stroke-dasharray="1.534 4.091"/>
    </g>
  </g>
  <rect id="Rectángulo_44795" data-name="Rectángulo 44795" width="190" height="190" transform="translate(0)" fill="none"/>
</svg>
