<svg xmlns="http://www.w3.org/2000/svg" width="400" height="620" viewBox="0 0 400 620">
  <g id="Grupo_136099" data-name="Grupo 136099" transform="translate(-180.334 -874)">
    <path id="Trazado_199638" data-name="Trazado 199638" d="M0,0H400V620H0Z" transform="translate(180.334 874)" fill="none"/>
    <path id="Trazado_139920" data-name="Trazado 139920" d="M294.938,948.759a4.866,4.866,0,0,0,.141-.53c.52-2.514-1.217-4.453-3.878-4.327a6.423,6.423,0,0,0-5.761,4.786,120.112,120.112,0,0,1-8.851,26.053,142.573,142.573,0,0,1-14.81,24.788l-1.089,1.478-1.135,1.448c-.751.97-1.532,1.918-2.316,2.863q-2.34,2.846-4.855,5.546c-.827.909-1.7,1.779-2.543,2.668-.861.877-1.743,1.731-2.609,2.6-.9.833-1.775,1.686-2.7,2.5s-1.823,1.631-2.765,2.4-1.862,1.563-2.821,2.3c-.478.373-.947.753-1.43,1.114l-1.451,1.072c-.956.732-1.957,1.379-2.928,2.069-.989.655-1.977,1.307-2.973,1.929-1,.6-1.994,1.233-3.008,1.782-.506.278-1,.572-1.511.843l-1.516.785c-.255.129-.5.266-.761.389l-.788.368-1.571.73c-1.064.448-2.112.92-3.181,1.335a111.384,111.384,0,0,1-26.311,6.669c-8.988,1.245-18.128,1.755-27.619,2.269-4.748.262-9.58.5-14.559.851-2.482.163-5.014.387-7.569.625-1.29.135-2.571.255-3.879.411l-3.812.453c-9.757,1.178-19.837,2.522-30.293,4.543a215.523,215.523,0,0,0-32.654,8.821,152.525,152.525,0,0,0-17.3,7.482,132.031,132.031,0,0,0-17.466,10.644c-2.866,2.075-5.686,4.308-8.422,6.682-1.372,1.184-2.713,2.414-4.041,3.668-.659.63-1.3,1.238-1.963,1.911s-1.33,1.343-1.972,2.029a107.337,107.337,0,0,0-13.549,17.605c-.952,1.553-1.871,3.116-2.727,4.7-.46.835-.786,1.477-1.168,2.184l-1.1,2.093c-.729,1.4-1.413,2.827-2.084,4.261s-1.3,2.894-1.936,4.348a112.917,112.917,0,0,0-5.946,18.093,95.335,95.335,0,0,0-2.551,18.554A87.828,87.828,0,0,0,1.68,1213.771a112.088,112.088,0,0,0,19.608,24.11,135.19,135.19,0,0,0,11.812,9.891c2.088,1.549,4.236,3.048,6.5,4.516,1.135.733,2.29,1.463,3.519,2.2.615.367,1.241.731,1.921,1.108l1.069.58.608.31.373.182.564.253c18.932,7.4,44.74-2.781,57.636-22.741s8-42.143-10.933-49.545l.191.1c.044.028.016.025.016.025l-.016.01c-.01.015-.084,0-.128,0-.133-.012-.265-.032-.4-.057-.293-.047-.635-.13-.975-.21-.691-.165-1.428-.366-2.167-.588-1.487-.451-3.012-.964-4.519-1.525a80.544,80.544,0,0,1-8.809-3.867,68.519,68.519,0,0,1-14.914-10.071,42.876,42.876,0,0,1-9.7-12.491,31.353,31.353,0,0,1-2.575-7.1,34.57,34.57,0,0,1-.91-7.882,44.373,44.373,0,0,1,.853-8.815c.179-.778.321-1.558.514-2.352.216-.8.393-1.6.629-2.405l.695-2.353c.167-.619.375-1.242.58-1.86a34.726,34.726,0,0,1,3.553-7.247c.182-.295.378-.582.571-.873l.662-.928c.456-.62.925-1.241,1.428-1.852,1-1.225,2.083-2.443,3.269-3.649a80.621,80.621,0,0,1,18.623-13.554q2.8-1.56,5.776-2.992t6.1-2.777c4.15-1.79,8.465-3.464,12.889-5.04,8.853-3.158,18.122-5.91,27.679-8.607l3.431-.961c1.106-.313,2.234-.6,3.361-.9,2.269-.579,4.556-1.149,6.892-1.689,4.655-1.089,9.437-2.113,14.3-3.133,9.735-2.058,19.863-4.18,30.218-7.233a147.15,147.15,0,0,0,31.007-12.731c1.256-.7,2.491-1.455,3.727-2.187,1.226-.782,2.434-1.522,3.659-2.34l1.828-1.212c.6-.413,1.189-.841,1.781-1.26,1.193-.827,2.328-1.721,3.473-2.59a125.509,125.509,0,0,0,12.553-11.321,168.248,168.248,0,0,0,19.942-25.142,210.282,210.282,0,0,0,14.747-26.714,259.75,259.75,0,0,0,10.745-27.469Z" transform="translate(194.857 231.728)" fill="#fdb74d" opacity="0.25"/>
    <path id="Trazado_139920-2" data-name="Trazado 139920" d="M59.628,1015.3a4.948,4.948,0,0,0-.179.518,3.5,3.5,0,0,0,3.558,4.594,6.421,6.421,0,0,0,6.089-4.36,120.161,120.161,0,0,1,10.7-25.35,142.559,142.559,0,0,1,16.551-23.662l1.192-1.4,1.236-1.363c.818-.913,1.666-1.8,2.516-2.689q2.537-2.672,5.24-5.184c.89-.847,1.823-1.652,2.728-2.478.921-.813,1.863-1.6,2.789-2.4.96-.766,1.89-1.555,2.873-2.3s1.935-1.5,2.93-2.2,1.969-1.426,2.979-2.1c.5-.337,1-.683,1.506-1.008l1.525-.966c1-.661,2.05-1.234,3.068-1.854,1.034-.581,2.066-1.161,3.1-1.71,1.046-.529,2.077-1.086,3.128-1.562.525-.241,1.043-.5,1.568-.732l1.568-.674c.264-.111.519-.23.787-.334l.813-.31,1.619-.616c1.093-.37,2.173-.765,3.268-1.1A111.377,111.377,0,0,1,169.5,929.3c9.054-.6,18.207-.45,27.711-.282,4.754.079,9.591.192,14.582.2,2.488.015,5.029-.026,7.6-.08,1.3-.042,2.582-.07,3.9-.131l3.835-.179c9.816-.474,19.967-1.092,30.54-2.358a215.5,215.5,0,0,0,33.2-6.454,152.775,152.775,0,0,0,17.791-6.222,132.046,132.046,0,0,0,18.185-9.363c3.007-1.864,5.98-3.889,8.88-6.06,1.453-1.083,2.879-2.214,4.294-3.369.7-.581,1.384-1.142,2.094-1.765s1.423-1.244,2.113-1.883A107.36,107.36,0,0,0,359,874.767c1.061-1.481,2.09-2.974,3.057-4.494.519-.8.89-1.416,1.322-2.1l1.247-2.008c.827-1.343,1.611-2.719,2.384-4.1s1.5-2.793,2.243-4.2a113.046,113.046,0,0,0,7.229-17.619,95.313,95.313,0,0,0,3.875-18.324,87.833,87.833,0,0,0-9.213-49.918,112.121,112.121,0,0,0-17.827-25.454,134.9,134.9,0,0,0-11.073-10.713c-1.971-1.7-4.005-3.345-6.153-4.971-1.08-.813-2.18-1.624-3.352-2.441-.588-.411-1.186-.819-1.838-1.244l-1.024-.654-.584-.354-.359-.208-.544-.293c-18.353-8.742-44.825-.436-59.12,18.546s-11,41.461,7.35,50.2l-.184-.117c-.041-.031-.013-.026-.013-.026l.016-.009c.012-.014.084,0,.128.005a3.99,3.99,0,0,1,.391.086c.289.068.624.175.957.279.677.215,1.4.467,2.119.742,1.452.557,2.936,1.178,4.4,1.845a80.572,80.572,0,0,1,8.51,4.49A68.537,68.537,0,0,1,307.1,812.837a42.878,42.878,0,0,1,8.784,13.155,31.322,31.322,0,0,1,2.058,7.27,34.544,34.544,0,0,1,.342,7.927,44.235,44.235,0,0,1-1.483,8.731c-.234.764-.432,1.531-.681,2.309-.273.78-.507,1.563-.8,2.354l-.862,2.3c-.211.6-.463,1.212-.711,1.814a34.735,34.735,0,0,1-4.064,6.974c-.2.281-.419.553-.632.829l-.727.878c-.5.586-1.012,1.171-1.557,1.744-1.083,1.151-2.253,2.288-3.523,3.406a80.584,80.584,0,0,1-19.548,12.183q-2.9,1.355-5.975,2.569t-6.28,2.333c-4.269,1.488-8.692,2.848-13.218,4.1-9.057,2.514-18.5,4.6-28.226,6.6l-3.49.713c-1.126.232-2.272.438-3.417.66-2.3.415-4.627.819-7,1.19-4.721.752-9.565,1.43-14.493,2.1-9.858,1.355-20.112,2.745-30.659,5.047A147.175,147.175,0,0,0,139.1,920.491c-1.3.6-2.589,1.272-3.874,1.913-1.279.692-2.537,1.344-3.818,2.072l-1.91,1.078c-.629.369-1.246.753-1.867,1.129-1.249.739-2.445,1.549-3.649,2.334a125.435,125.435,0,0,0-13.333,10.391,168.147,168.147,0,0,0-21.7,23.646,210.1,210.1,0,0,0-16.626,25.587,259.653,259.653,0,0,0-12.689,26.627Z" transform="translate(194.857 231.728)" fill="#fdb74d" opacity="0.25"/>
    <path id="Trazado_192687" data-name="Trazado 192687" d="M277.06,710.606s75.445,36.7,55.475,114.106S200.86,857.189,218.658,965.548s55.49,107.961,94.631,131.717,43.639,46.928,33.618,58.053" transform="translate(194.857 231.728)" fill="none" stroke="#5038a1" stroke-linecap="round" stroke-miterlimit="10" stroke-width="1" stroke-dasharray="5"/>
    <path id="Trazado_192688" data-name="Trazado 192688" d="M101.88,708.352s-20.569,27.419-15.463,75.143C99.988,910.337-17.28,914.427,14.281,975.519" transform="translate(194.857 231.728)" fill="none" stroke="#5038a1" stroke-linecap="round" stroke-miterlimit="10" stroke-width="1" stroke-dasharray="5"/>
    <path id="Trazado_192689" data-name="Trazado 192689" d="M60.268,708.352s27.277,23.068,9.558,53.573S4.085,828.435,44.2,856.178" transform="translate(194.857 231.728)" fill="none" stroke="#8c6df2" stroke-linecap="round" stroke-miterlimit="10" stroke-width="1" stroke-dasharray="5"/>
    <path id="Trazado_192690" data-name="Trazado 192690" d="M142.007,708.526s-32.068,15.469-28.97,59.231,34.749,99.362,14.379,150.311c-29.779,74.485-155.2,72-105.912,182.819" transform="translate(194.857 231.728)" fill="none" stroke="#5038a1" stroke-linecap="round" stroke-miterlimit="10" stroke-width="1" stroke-dasharray="5"/>
    <path id="Trazado_192691" data-name="Trazado 192691" d="M237.907,710.606s-15.471,30.787,43.953,97.288c53.9,60.319-17.745,93.133,3.58,140.794s76.882,63.385,57.923,99.98" transform="translate(194.857 231.728)" fill="none" stroke="#5038a1" stroke-linecap="round" stroke-miterlimit="10" stroke-width="1" stroke-dasharray="5"/>
    <path id="Trazado_192692" data-name="Trazado 192692" d="M41.236,709.075s0,7.974-15.9,19.329c-12.7,9.068-48.1,20.238-24.442,43.571" transform="translate(194.857 231.728)" fill="none" stroke="#fdb74d" stroke-linecap="round" stroke-miterlimit="10" stroke-width="1" stroke-dasharray="5"/>
    <path id="Elipse_5247" data-name="Elipse 5247" d="M14.58,0A14.58,14.58,0,1,1,0,14.58,14.58,14.58,0,0,1,14.58,0Z" transform="translate(351.171 1452.573)" fill="#5038a1" opacity="0.7"/>
    <g id="Elipse_5249" data-name="Elipse 5249" transform="translate(194.857 231.728)">
      <circle id="Elipse_5909" data-name="Elipse 5909" cx="5.494" cy="5.494" r="5.494" transform="translate(167.201 1225.491)" fill="none"/>
      <circle id="Elipse_5910" data-name="Elipse 5910" cx="4.86" cy="4.86" r="4.86" transform="translate(167.835 1226.125)" fill="none" stroke="#fff" stroke-width="1.268"/>
    </g>
    <g id="Elipse_5250" data-name="Elipse 5250" transform="translate(194.857 231.728)">
      <circle id="Elipse_5911" data-name="Elipse 5911" cx="2.958" cy="2.958" r="2.958" transform="translate(130.744 1217.449)" fill="#fdb74d"/>
      <circle id="Elipse_5912" data-name="Elipse 5912" cx="2.324" cy="2.324" r="2.324" transform="translate(131.378 1218.083)" fill="#fdb74d" stroke="#8c6df2" stroke-width="1.268"/>
    </g>
    <path id="Elipse_5251" data-name="Elipse 5251" d="M1.9,0A1.9,1.9,0,1,1,0,1.9,1.9,1.9,0,0,1,1.9,0Z" transform="translate(344.923 1465.379)" fill="#fdb74d"/>
    <path id="Trazado_199644" data-name="Trazado 199644" d="M20.765,0A20.765,20.765,0,1,1,0,20.765,20.765,20.765,0,0,1,20.765,0Z" transform="translate(193.952 1440.206)" fill="#fdb74d" opacity="0.5"/>
    <g id="Elipse_4972" data-name="Elipse 4972" transform="translate(194.857 231.728)">
      <circle id="Elipse_5914" data-name="Elipse 5914" cx="19.176" cy="19.176" r="19.176" transform="translate(0.684 1210.068)" fill="none"/>
      <circle id="Elipse_5915" data-name="Elipse 5915" cx="18.153" cy="18.153" r="18.153" transform="translate(1.707 1211.091)" fill="none" stroke="#fff" stroke-linecap="round" stroke-width="2.045" stroke-dasharray="1.534 4.091"/>
    </g>
    <path id="Trazado_188103" data-name="Trazado 188103" d="M161.606,743.757c3.751,2.27,27.729,17.853,20.324,50.342-3.692,9.637-6.348,17.791-18.212,24.4-26.956,15.014-76.5,10.31-108.4,3.982-19.651-5.974-43.8-15.474-47.164-42.026-1.8-14.24,7.218-34.682,39.966-44.641C82.394,729.748,133.857,727.33,161.606,743.757Z" transform="translate(194.857 231.728)" fill="#fdb74d"/>
    <path id="Trazado_188103-2" data-name="Trazado 188103" d="M210.63,871.173c-3.721-2.319-27.492-18.217-19.659-50.6,3.818-9.588,6.582-17.706,18.532-24.157,27.151-14.658,76.632-9.3,108.439-2.554,19.57,6.233,43.6,16.05,46.606,42.643,1.614,14.263-7.674,34.585-40.55,44.111C289.651,886.224,238.16,887.964,210.63,871.173Z" transform="translate(194.857 231.728)" fill="#e5e1f1"/>
    <path id="Trazado_188103-3" data-name="Trazado 188103" d="M179,863.354c3.751,2.27,27.729,17.853,20.324,50.342-3.692,9.637-6.348,17.791-18.212,24.4-26.956,15.015-76.5,10.31-108.4,3.982-19.651-5.974-43.8-15.474-47.164-42.026-1.8-14.24,7.218-34.682,39.965-44.641C99.79,849.345,151.253,846.927,179,863.354Z" transform="translate(194.857 231.728)" fill="#bdccd4"/>
    <path id="Trazado_188103-4" data-name="Trazado 188103" d="M211.816,1008.638c-4-2.334-29.529-18.328-21.263-50.693,4.054-9.575,6.983-17.684,19.763-24.089,29.035-14.555,82.075-9,116.182-2.13,20.994,6.311,46.774,16.224,50.105,42.835,1.786,14.272-8.087,34.562-43.276,43.961C296.546,1024,241.381,1025.541,211.816,1008.638Z" transform="translate(194.857 231.728)" fill="#8c6df2"/>
    <path id="Trazado_188103-5" data-name="Trazado 188103" d="M148.559,982.951c3.751,2.27,27.729,17.853,20.324,50.342-3.691,9.637-6.348,17.791-18.212,24.4-26.956,15.015-76.5,10.31-108.4,3.982-19.651-5.974-43.8-15.474-47.164-42.025-1.8-14.241,7.218-34.683,39.966-44.641C69.347,968.942,120.81,966.524,148.559,982.951Z" transform="translate(194.857 231.728)" fill="#e5e1f1"/>
    <path id="Trazado_188103-6" data-name="Trazado 188103" d="M197.583,1115.441c-3.721-2.319-27.492-18.217-19.659-50.6,3.818-9.588,6.582-17.706,18.532-24.157,27.151-14.658,76.632-9.3,108.439-2.554,19.57,6.233,43.6,16.05,46.606,42.643,1.614,14.263-7.674,34.585-40.55,44.111C276.6,1130.492,225.113,1132.232,197.583,1115.441Z" transform="translate(194.857 231.728)" fill="#fedc72"/>
    <path id="Trazado_188103-7" data-name="Trazado 188103" d="M175.525,1110.194c4.322,2.294,31.956,18.029,23.652,50.48-4.18,9.618-7.181,17.757-20.765,24.293-30.865,14.853-87.8,9.841-124.462,3.315-22.605-6.1-50.4-15.749-54.424-42.328-2.158-14.255,8.075-34.647,45.622-44.406C84.468,1095.693,143.555,1093.592,175.525,1110.194Z" transform="translate(194.857 231.728)" fill="#5038a1"/>
    <path id="Trazado_188103-8" data-name="Trazado 188103" d="M221.969,1233.588c-3.721-2.319-27.492-18.217-19.659-50.6,3.818-9.588,6.582-17.706,18.532-24.157,27.151-14.658,76.632-9.3,108.439-2.554,19.57,6.233,43.6,16.05,46.606,42.644,1.615,14.262-7.674,34.584-40.55,44.11C300.99,1248.639,249.5,1250.379,221.969,1233.588Z" transform="translate(194.857 231.728)" fill="#bdccd4"/>
    <g id="Grupo_135148" data-name="Grupo 135148" transform="translate(194.857 231.728)">
      <path id="Trazado_192693" data-name="Trazado 192693" d="M147.415,658.739v-1.483h10.144v1.483h-4.271V671.1h-1.6V658.739Z" fill="#5038a1"/>
      <path id="Trazado_192694" data-name="Trazado 192694" d="M160.245,657.453a.922.922,0,0,1,.969.97.979.979,0,1,1-.969-.97ZM161,671.1h-1.542v-9.452H161Z" fill="#5038a1"/>
      <path id="Trazado_192695" data-name="Trazado 192695" d="M164.317,675.963V663.841c0-.771.059-1.326-1.107-1.266l-.021-1.127c1.444-.257,2.433.139,2.433,1.622v.276a3.617,3.617,0,0,1,3.54-2.076c2.867,0,4.31,2.353,4.31,5s-1.364,5.043-4.291,5.043a3.5,3.5,0,0,1-3.421-1.918v6.565Zm4.528-13.269c-1.958,0-3.005,1.5-3.005,3.5,0,1.978.949,3.8,2.985,3.8,2.137,0,3.1-1.681,3.1-3.718C171.93,664.3,170.862,662.694,168.845,662.694Z" fill="#5038a1"/>
      <path id="Trazado_192696" data-name="Trazado 192696" d="M175.267,666.312c0-6.624,10.046-6.624,10.046,0C185.313,672.9,175.267,672.937,175.267,666.312Zm8.5,0a3.474,3.474,0,1,0-6.941,0A3.474,3.474,0,1,0,183.771,666.312Z" fill="#5038a1"/>
      <path id="Trazado_192697" data-name="Trazado 192697" d="M188.493,668.409c.1,1.206,1.443,1.681,2.728,1.681,1.326,0,2.631-.554,2.69-1.721,0-1.087-.909-1.324-2.669-1.582-1.879-.217-3.936-.612-4-2.59s1.977-2.828,3.955-2.828,4.014.89,3.955,2.728h-1.483c0-1.027-1.226-1.5-2.472-1.5-1.206,0-2.551.455-2.491,1.562.019.93.909,1.167,2.669,1.424,2,.257,4.093.534,4.035,2.788,0,1.958-1.979,2.907-4.194,2.967-2.076,0-4.073-.752-4.231-2.927Z" fill="#5038a1"/>
      <path id="Trazado_192698" data-name="Trazado 192698" d="M211.426,656.544v11.964c0,.949,0,1.483,1.147,1.384v1.166c-1.483.258-2.432-.118-2.432-1.621V669.1a3.6,3.6,0,0,1-3.52,2.136c-2.907,0-4.331-2.353-4.331-5,0-2.67,1.384-5.043,4.271-5.043,1.524,0,2.868.514,3.422,1.879v-6.526Zm-4.508,13.269c1.938,0,3.006-1.483,3.006-3.6,0-1.978-.95-3.7-3.006-3.7-2.136,0-3.066,1.682-3.066,3.719C203.852,668.231,204.921,669.813,206.918,669.813Z" fill="#5038a1"/>
      <path id="Trazado_192699" data-name="Trazado 192699" d="M222.694,670.564a7.589,7.589,0,0,1-3.3.712c-3.4.06-5.537-2.057-5.279-5.438A4.673,4.673,0,0,1,219,661.33c1.958,0,4.232.869,4.074,3.164-.1,1.976-2.077,2.709-3.737,2.767a6.7,6.7,0,0,1-3.758-.949c-.079,2.453,1.424,3.719,3.9,3.719a8.419,8.419,0,0,0,3.164-.692Zm-3.639-4.509c1.088,0,2.412-.4,2.512-1.621.158-1.3-1.424-1.839-2.571-1.839a3.1,3.1,0,0,0-3.282,2.532A5.834,5.834,0,0,0,219.055,666.055Z" fill="#5038a1"/>
    </g>
    <g id="Grupo_135150" data-name="Grupo 135150" transform="translate(194.857 231.728)">
      <path id="Trazado_192700" data-name="Trazado 192700" d="M37.857,689.2c0,1.247,1.43,1.871,2.885,1.871,1.351,0,2.78-.624,2.78-1.715,0-1.741-2.026-1.819-3.351-1.9-3.327-.208-6.653-1.534-6.653-5.327,0-3.95,3.352-5.951,7.068-5.951,3.508,0,7.068,2,6.99,5.951H43.132c-.026-1.248-1.195-1.767-2.468-1.767-1.066,0-2.469.285-2.469,1.663,0,1.221,1.04,1.507,2.781,1.688,3.871.338,7.25,1.249,7.25,5.666,0,3.82-3.717,5.821-7.432,5.821-3.846,0-7.536-1.923-7.458-6Z" fill="#5038a1"/>
      <path id="Trazado_192701" data-name="Trazado 192701" d="M56.7,695.075a6.6,6.6,0,1,1,.025-13.2,6.6,6.6,0,1,1-.025,13.2Zm0-3.872c1.169-.027,2.234-.936,2.234-2.729s-1.065-2.7-2.182-2.728a2.427,2.427,0,0,0-2.339,2.728C54.411,690.319,55.554,691.229,56.7,691.2Z" fill="#5038a1"/>
      <path id="Trazado_192702" data-name="Trazado 192702" d="M73.876,687.149a2.092,2.092,0,0,0-2.028-1.43,2.794,2.794,0,0,0-.051,5.536,2.071,2.071,0,0,0,2.079-1.585h4.21a6.16,6.16,0,0,1-6.445,5.379,6.336,6.336,0,0,1-6.652-6.575,6.457,6.457,0,0,1,6.678-6.626,6.1,6.1,0,0,1,6.392,5.3Z" fill="#5038a1"/>
      <path id="Trazado_192703" data-name="Trazado 192703" d="M82.554,676.417a2.508,2.508,0,1,1-2.546,2.495A2.445,2.445,0,0,1,82.554,676.417Zm2.209,18.372H80.346l.026-12.343h4.391Z" fill="#5038a1"/>
      <path id="Trazado_192704" data-name="Trazado 192704" d="M99.549,686.292c-.078,2.6-2.312,3.767-4.6,3.9a7.134,7.134,0,0,1-3.508-.649c.286,1.663,1.767,2.182,3.534,2.1a11.309,11.309,0,0,0,4.08-.987l.182,3.3a9.418,9.418,0,0,1-4.548,1.092c-4.313.208-7.38-1.793-7.51-6.263a6.367,6.367,0,0,1,6.341-6.886C96.431,681.822,99.628,682.939,99.549,686.292Zm-5.482,1.247a1.216,1.216,0,0,0,1.247-1.169c0-.884-1.04-1.066-1.715-1.066a2.132,2.132,0,0,0-1.975,1.793A5.263,5.263,0,0,0,94.067,687.539Z" fill="#5038a1"/>
      <path id="Trazado_192705" data-name="Trazado 192705" d="M110.646,692.892a4.017,4.017,0,0,1-3.638,2.1c-3.9-.078-5.638-3.04-5.638-6.653-.078-3.326,1.741-6.5,5.4-6.5a3.436,3.436,0,0,1,3.326,1.715v-7.9h4.107v15.123c0,1.014-.052,1.455,1.065,1.455v2.391c-1.585.337-4.626.8-4.626-1.585Zm-.676-4.574c0-1.585-.727-2.832-2.052-2.832-1.455,0-2.131,1.2-2.131,2.858,0,1.689.727,2.781,2.209,2.754C109.347,691.1,109.97,689.9,109.97,688.318Z" fill="#5038a1"/>
      <path id="Trazado_192706" data-name="Trazado 192706" d="M129.8,683.121v7.666c0,1.014-.052,1.455,1.065,1.455v2.391c-1.585.337-4.625.8-4.625-1.585v-.156A4.019,4.019,0,0,1,122.6,695c-3.9-.078-5.638-3.04-5.638-6.653.129-4.313,3.092-6.444,7.354-6.366A15.351,15.351,0,0,1,129.8,683.121Zm-4.288,2.547a6.635,6.635,0,0,0-1.533-.182c-1.559,0-2.52.884-2.6,2.962.025,1.663.752,2.677,2.209,2.65,1.325,0,1.9-1.142,1.922-2.7Z" fill="#5038a1"/>
      <path id="Trazado_192707" data-name="Trazado 192707" d="M141.882,692.892a4.016,4.016,0,0,1-3.637,2.1c-3.9-.078-5.639-3.04-5.639-6.653-.078-3.326,1.741-6.5,5.4-6.5a3.438,3.438,0,0,1,3.327,1.715v-7.9h4.106v15.123c0,1.014-.052,1.455,1.065,1.455v2.391c-1.584.337-4.626.8-4.626-1.585Zm-.675-4.574c0-1.585-.728-2.832-2.053-2.832-1.455,0-2.131,1.2-2.131,2.858,0,1.689.728,2.781,2.209,2.754C140.584,691.1,141.207,689.9,141.207,688.318Z" fill="#5038a1"/>
      <path id="Trazado_192708" data-name="Trazado 192708" d="M160.567,686.292c-.078,2.6-2.312,3.767-4.6,3.9a7.127,7.127,0,0,1-3.507-.649c.286,1.663,1.766,2.182,3.534,2.1a11.32,11.32,0,0,0,4.08-.987l.182,3.3a9.418,9.418,0,0,1-4.548,1.092c-4.314.208-7.38-1.793-7.51-6.263a6.366,6.366,0,0,1,6.341-6.886C157.449,681.822,160.645,682.939,160.567,686.292Zm-5.482,1.247a1.217,1.217,0,0,0,1.247-1.169c0-.884-1.04-1.066-1.715-1.066a2.134,2.134,0,0,0-1.976,1.793A5.268,5.268,0,0,0,155.085,687.539Z" fill="#5038a1"/>
      <path id="Trazado_192709" data-name="Trazado 192709" d="M166.674,690.813c0,.806.728,1.117,1.456,1.117s1.456-.338,1.456-.987c0-.779-.676-.884-1.378-.962-2.469-.285-5.639-.753-5.639-3.819,0-2.911,2.78-4.262,5.587-4.262,2.858,0,5.665,1.507,5.535,4.262h-3.872c-.078-.624-.832-.962-1.56-.936-.7.026-1.325.312-1.325.831-.077.781.858.806,1.455.884,2.782.286,5.743.676,5.665,4-.077,2.832-2.883,4.21-5.742,4.21s-5.873-.728-5.951-4.34Z" fill="#5038a1"/>
      <path id="Trazado_192710" data-name="Trazado 192710" d="M194.35,686.292c-.078,2.6-2.312,3.767-4.6,3.9a7.134,7.134,0,0,1-3.508-.649c.286,1.663,1.766,2.182,3.534,2.1a11.32,11.32,0,0,0,4.08-.987l.182,3.3a9.418,9.418,0,0,1-4.548,1.092c-4.314.208-7.38-1.793-7.51-6.263a6.366,6.366,0,0,1,6.341-6.886C191.232,681.822,194.428,682.939,194.35,686.292Zm-5.482,1.247a1.217,1.217,0,0,0,1.247-1.169c0-.884-1.04-1.066-1.715-1.066a2.134,2.134,0,0,0-1.976,1.793A5.27,5.27,0,0,0,188.868,687.539Z" fill="#5038a1"/>
      <path id="Trazado_192711" data-name="Trazado 192711" d="M201.731,694.789h-4.443v-8.705c0-1.092-.027-1.533-1.274-1.455v-2.417c1.793-.416,5.561-.884,5.561,1.922a4.047,4.047,0,0,1,3.612-2.156c3.638,0,4.964,2.416,4.886,5.613v3.377c0,.962.155,1.457,1.2,1.457v2.26c-2.573.7-5.613.545-5.613-2.884v-4.21a1.876,1.876,0,0,0-1.845-2.131,2.053,2.053,0,0,0-2.079,2.209Z" fill="#5038a1"/>
      <path id="Trazado_192712" data-name="Trazado 192712" d="M228.42,676.417c3.742,0,7.847,2.027,8.548,6.886H232.4a3.727,3.727,0,0,0-3.975-2.6c-2.755,0-4.548,1.974-4.548,4.989a4.645,4.645,0,0,0,4.548,4.937,3.777,3.777,0,0,0,4.027-2.884h4.574c-.7,5.171-4.729,7.223-8.6,7.223-4.652,0-9.3-3.118-9.3-9.251C219.117,679.457,223.768,676.417,228.42,676.417Z" fill="#5038a1"/>
      <path id="Trazado_192713" data-name="Trazado 192713" d="M245.39,695.075a6.6,6.6,0,1,1,6.626-6.6A6.384,6.384,0,0,1,245.39,695.075Zm0-3.872c1.169-.027,2.235-.936,2.235-2.729s-1.066-2.7-2.183-2.728a2.427,2.427,0,0,0-2.339,2.728C243.1,690.319,244.247,691.229,245.39,691.2Z" fill="#5038a1"/>
      <path id="Trazado_192714" data-name="Trazado 192714" d="M258.617,675.794v13.927c0,1.69.857,2.028,2.182,1.82l.131,3.3c-3.9.7-6.678-.26-6.678-5.093V675.794Z" fill="#5038a1"/>
      <path id="Trazado_192715" data-name="Trazado 192715" d="M268.778,695.075a6.6,6.6,0,1,1,6.626-6.6A6.385,6.385,0,0,1,268.778,695.075Zm0-3.872c1.169-.027,2.234-.936,2.234-2.729s-1.065-2.7-2.182-2.728a2.427,2.427,0,0,0-2.339,2.728C266.491,690.319,267.634,691.229,268.778,691.2Z" fill="#5038a1"/>
      <path id="Trazado_192716" data-name="Trazado 192716" d="M282.681,694.789h-4.417v-8.705c0-1.04-.156-1.455-1.273-1.455v-2.417c1.715-.624,5.56-.806,5.56,1.922a3.779,3.779,0,0,1,3.613-2.156c2.1,0,3.326.858,3.924,2.183a4.714,4.714,0,0,1,4.027-2.183c3.639,0,4.392,2.416,4.313,5.613v3.248c0,1.013.183,1.429,1.3,1.429v2.391c-2.78.754-5.743.546-5.743-2.91v-4.158c.026-1.456-.806-2.131-1.637-2.131a1.94,1.94,0,0,0-1.715,2.131v7.2h-4.314v-7.2a1.84,1.84,0,0,0-1.793-2.131,1.992,1.992,0,0,0-1.845,2.209Z" fill="#5038a1"/>
      <path id="Trazado_192717" data-name="Trazado 192717" d="M305.913,683.848a3.6,3.6,0,0,1,3.43-1.74c2.5,0,5.353,1.948,5.276,6.5-.078,4.86-3.509,6.679-7.328,6.549a14.714,14.714,0,0,1-5.432-1.144v-18.06h4.054Zm.26,7.458a6.869,6.869,0,0,0,1.559.235c1.455,0,2.417-.806,2.442-2.91.079-1.352-.493-2.859-2.078-2.859-1.456,0-1.923,1.715-1.923,2.859Z" fill="#5038a1"/>
      <path id="Trazado_192718" data-name="Trazado 192718" d="M319.27,676.417a2.508,2.508,0,1,1-2.546,2.495A2.444,2.444,0,0,1,319.27,676.417Zm2.209,18.372h-4.417l.026-12.343h4.391Z" fill="#5038a1"/>
      <path id="Trazado_192719" data-name="Trazado 192719" d="M336.733,683.121v7.666c0,1.014-.052,1.455,1.066,1.455v2.391c-1.585.337-4.625.8-4.625-1.585v-.156a4.022,4.022,0,0,1-3.639,2.1c-3.9-.078-5.639-3.04-5.639-6.653.13-4.313,3.093-6.444,7.355-6.366A15.342,15.342,0,0,1,336.733,683.121Zm-4.287,2.547a6.647,6.647,0,0,0-1.533-.182c-1.56,0-2.521.884-2.6,2.962.026,1.663.753,2.677,2.208,2.65,1.326,0,1.9-1.142,1.924-2.7Z" fill="#5038a1"/>
    </g>
    <path id="Trazado_192720" data-name="Trazado 192720" d="M57.137,771.131c.057,1.215,1.387,1.728,2.679,1.728,1.178,0,2.545-.284,2.545-1.671,0-1.52-1.634-1.653-2.906-1.748-2.412-.209-4.844-1.026-4.844-3.78,0-2.945,2.412-4.18,5.053-4.18,2.488,0,5.072,1.045,5.072,4.028H62.077c-.153-1.083-1.274-1.54-2.413-1.54s-2.261.609-2.261,1.634c0,1.178,1.159,1.445,2.546,1.6,2.811.247,5.225.874,5.225,3.99,0,3.134-2.717,4.1-5.339,4.16-2.66,0-5.414-1.31-5.414-4.217Z" transform="translate(194.857 231.728)" fill="#fff"/>
    <path id="Trazado_192721" data-name="Trazado 192721" d="M71.463,775.272a4.816,4.816,0,1,1,4.863-4.825A4.644,4.644,0,0,1,71.463,775.272Zm.018-2.337a2.494,2.494,0,1,0-2.223-2.488A2.25,2.25,0,0,0,71.481,772.935Z" transform="translate(194.857 231.728)" fill="#fff"/>
    <path id="Trazado_192722" data-name="Trazado 192722" d="M84.572,769.212a1.938,1.938,0,0,0-1.881-1.253,2.511,2.511,0,0,0,.02,5.014,2.02,2.02,0,0,0,1.9-1.424h2.527a4.4,4.4,0,0,1-4.446,3.705,4.819,4.819,0,1,1,0-9.632,4.35,4.35,0,0,1,4.408,3.59Z" transform="translate(194.857 231.728)" fill="#fff"/>
    <path id="Trazado_192723" data-name="Trazado 192723" d="M91.869,763.266a1.558,1.558,0,0,1-3.116,0A1.558,1.558,0,0,1,91.869,763.266Zm-.229,11.8H88.981V766.02H91.64Z" transform="translate(194.857 231.728)" fill="#fff"/>
    <path id="Trazado_192724" data-name="Trazado 192724" d="M102.222,774.493a7.006,7.006,0,0,1-3.266.761c-3.211.094-5.358-1.463-5.358-4.807a4.564,4.564,0,0,1,4.655-4.787c2.07-.058,4.312.778,4.254,3.153-.094,1.881-1.766,2.755-3.438,2.812a5.593,5.593,0,0,1-2.944-.589c.056,1.577,1.33,2.166,3,2.108a7.824,7.824,0,0,0,3-.7Zm-3.684-4.673c.76-.019,1.386-.323,1.4-1.007,0-.836-.931-1.1-1.652-1.1a2.023,2.023,0,0,0-2.014,1.633A4.552,4.552,0,0,0,98.538,769.82Z" transform="translate(194.857 231.728)" fill="#fff"/>
    <path id="Trazado_192725" data-name="Trazado 192725" d="M113.148,761.082v11.037c0,.778-.038,1.2.873,1.14v1.709c-1.234.266-3.02.361-3.02-1.52a3.131,3.131,0,0,1-2.907,1.768c-2.831-.058-4.141-2.243-4.141-4.845-.057-2.488,1.33-4.787,4.009-4.787a2.742,2.742,0,0,1,2.716,1.405v-5.907Zm-4.483,11.777c1.291,0,1.937-1.063,1.937-2.507,0-1.425-.684-2.565-1.975-2.565-1.387,0-2.014,1.121-2.014,2.584C106.613,771.815,107.3,772.879,108.665,772.859Z" transform="translate(194.857 231.728)" fill="#fff"/>
    <path id="Trazado_192726" data-name="Trazado 192726" d="M124.586,772.119c0,.778-.038,1.2.874,1.14v1.709c-1.236.266-3.021.361-3.021-1.52a3.129,3.129,0,0,1-2.906,1.768c-2.831-.058-4.142-2.243-4.142-4.845.1-3.1,2.2-4.731,5.3-4.673a10.486,10.486,0,0,1,3.895.854ZM122,768.092a4.08,4.08,0,0,0-1.52-.267c-1.443,0-2.374.8-2.432,2.546,0,1.444.685,2.508,2.052,2.488,1.273,0,1.843-1.007,1.9-2.393Z" transform="translate(194.857 231.728)" fill="#fff"/>
    <path id="Trazado_192727" data-name="Trazado 192727" d="M136.024,761.082v11.037c0,.778-.038,1.2.873,1.14v1.709c-1.234.266-3.02.361-3.02-1.52a3.131,3.131,0,0,1-2.907,1.768c-2.831-.058-4.141-2.243-4.141-4.845-.057-2.488,1.33-4.787,4.009-4.787a2.742,2.742,0,0,1,2.716,1.405v-5.907Zm-4.483,11.777c1.291,0,1.937-1.063,1.937-2.507,0-1.425-.683-2.565-1.975-2.565-1.387,0-2.014,1.121-2.014,2.584C129.489,771.815,130.173,772.879,131.541,772.859Z" transform="translate(194.857 231.728)" fill="#fff"/>
    <path id="Trazado_192728" data-name="Trazado 192728" d="M58.219,795.826l-1.025,2.2H54.23v-.38l6.117-13.032h1.311l6.079,13.032v.38H64.793l-1.045-2.2Zm.932-2.394h3.686l-1.843-4.387Z" transform="translate(194.857 231.728)" fill="#fff"/>
    <path id="Trazado_192729" data-name="Trazado 192729" d="M68.215,788.836c1.348-.247,3.5-.38,3.5,1.386a3.1,3.1,0,0,1,2.887-1.557c2.583,0,3.666,1.766,3.61,4.046V795.2c0,.855.038,1.273.968,1.216v1.558c-1.8.456-3.609.228-3.609-2.051v-3.211a1.736,1.736,0,0,0-1.767-1.938,1.863,1.863,0,0,0-1.918,1.994v5.263h-2.66V791.7c0-1.007.019-1.368-1.006-1.311Z" transform="translate(194.857 231.728)" fill="#fff"/>
    <path id="Trazado_192730" data-name="Trazado 192730" d="M80.336,793.414c0-6.4,9.708-6.4,9.708,0C90.044,799.835,80.336,799.835,80.336,793.414Zm7.067,0a2.226,2.226,0,1,0-4.427,0A2.226,2.226,0,1,0,87.4,793.414Zm-3.667-6.194v-.227l1.425-2.755,2.431.836v.209L85.9,787.22Z" transform="translate(194.857 231.728)" fill="#fff"/>
    <path id="Trazado_192731" data-name="Trazado 192731" d="M91.3,788.836c1.349-.247,3.5-.38,3.5,1.386a3.1,3.1,0,0,1,2.887-1.557c2.583,0,3.666,1.766,3.61,4.046V795.2c0,.855.038,1.273.968,1.216v1.558c-1.8.456-3.609.228-3.609-2.051v-3.211a1.736,1.736,0,0,0-1.767-1.938,1.864,1.864,0,0,0-1.919,1.994v5.263H92.306V791.7c0-1.007.019-1.368-1.007-1.311Z" transform="translate(194.857 231.728)" fill="#fff"/>
    <path id="Trazado_192732" data-name="Trazado 192732" d="M106.879,786.233a1.559,1.559,0,0,1-3.117,0A1.559,1.559,0,0,1,106.879,786.233Zm-.229,11.8h-2.659v-9.043h2.659Z" transform="translate(194.857 231.728)" fill="#fff"/>
    <path id="Trazado_192733" data-name="Trazado 192733" d="M108.475,788.836c1.329-.362,3.572-.418,3.572,1.463a2.868,2.868,0,0,1,2.849-1.634,2.607,2.607,0,0,1,2.812,1.709,3.321,3.321,0,0,1,3.134-1.709c2.583,0,3.172,1.785,3.116,4.046v2.507c0,.836.094,1.254,1.063,1.2v1.539c-1.975.513-3.723.209-3.723-2.128v-3.115c.057-1.216-.57-1.938-1.482-1.938a1.77,1.77,0,0,0-1.69,1.957v5.3h-2.584v-5.3c0-1.235-.646-1.957-1.615-1.957a1.812,1.812,0,0,0-1.767,2.014v5.243H109.5v-6.307c0-.988-.077-1.406-1.026-1.349Z" transform="translate(194.857 231.728)" fill="#fff"/>
    <path id="Trazado_192734" data-name="Trazado 192734" d="M135.415,795.086c0,.778-.038,1.2.874,1.139v1.71c-1.236.266-3.021.361-3.021-1.52a3.129,3.129,0,0,1-2.906,1.767c-2.831-.057-4.142-2.242-4.142-4.844.1-3.1,2.2-4.731,5.3-4.673a10.468,10.468,0,0,1,3.895.854Zm-2.584-4.028a4.078,4.078,0,0,0-1.52-.266c-1.443,0-2.374.8-2.431,2.546,0,1.444.684,2.507,2.051,2.488,1.274,0,1.843-1.007,1.9-2.394Z" transform="translate(194.857 231.728)" fill="#fff"/>
    <path id="Trazado_192735" data-name="Trazado 192735" d="M245.637,837.844c.077,1.635,1.865,2.325,3.6,2.325,1.584,0,3.423-.383,3.423-2.248,0-2.043-2.2-2.222-3.908-2.35-3.245-.281-6.514-1.38-6.514-5.083,0-3.96,3.244-5.62,6.795-5.62,3.346,0,6.819,1.405,6.819,5.415h-3.575c-.205-1.455-1.712-2.068-3.244-2.068s-3.04.817-3.04,2.2c0,1.584,1.558,1.941,3.423,2.145,3.78.332,7.024,1.176,7.024,5.365,0,4.214-3.652,5.517-7.178,5.593-3.576,0-7.279-1.761-7.279-5.67Z" transform="translate(194.857 231.728)"/>
    <path id="Trazado_192736" data-name="Trazado 192736" d="M258.9,841.573a2.128,2.128,0,1,1,2.12,1.941A1.966,1.966,0,0,1,258.9,841.573Z" transform="translate(194.857 231.728)"/>
    <path id="Trazado_192737" data-name="Trazado 192737" d="M269.778,840.169l-1.38,2.963h-3.984v-.511l8.224-17.523H274.4l8.174,17.523v.511h-3.959l-1.4-2.963Zm1.252-3.219h4.955l-2.478-5.9Z" transform="translate(194.857 231.728)"/>
    <path id="Trazado_192738" data-name="Trazado 192738" d="M283.881,841.573a2.128,2.128,0,1,1,2.12,1.941A1.965,1.965,0,0,1,283.881,841.573Z" transform="translate(194.857 231.728)"/>
    <path id="Trazado_192739" data-name="Trazado 192739" d="M294.277,837.844c.076,1.635,1.864,2.325,3.6,2.325,1.584,0,3.422-.383,3.422-2.248,0-2.043-2.2-2.222-3.908-2.35-3.244-.281-6.513-1.38-6.513-5.083,0-3.96,3.244-5.62,6.794-5.62,3.346,0,6.82,1.405,6.82,5.415h-3.575c-.205-1.455-1.712-2.068-3.245-2.068s-3.04.817-3.04,2.2c0,1.584,1.559,1.941,3.423,2.145,3.781.332,7.025,1.176,7.025,5.365,0,4.214-3.653,5.517-7.178,5.593-3.576,0-7.279-1.761-7.279-5.67Z" transform="translate(194.857 231.728)"/>
    <path id="Trazado_192740" data-name="Trazado 192740" d="M307.536,841.573a2.128,2.128,0,1,1,2.12,1.941A1.966,1.966,0,0,1,307.536,841.573Z" transform="translate(194.857 231.728)"/>
    <path id="Trazado_192741" data-name="Trazado 192741" d="M61.034,890.1c.056,1.216,1.387,1.729,2.679,1.729,1.177,0,2.544-.284,2.544-1.671,0-1.521-1.633-1.653-2.906-1.748-2.412-.209-4.844-1.027-4.844-3.78,0-2.946,2.413-4.18,5.053-4.18,2.489,0,5.072,1.045,5.072,4.027H65.973c-.152-1.083-1.273-1.539-2.413-1.539s-2.261.609-2.261,1.634c0,1.178,1.16,1.444,2.546,1.6,2.812.247,5.225.874,5.225,3.99,0,3.134-2.717,4.1-5.339,4.16-2.659,0-5.414-1.311-5.414-4.218Z" transform="translate(194.857 231.728)"/>
    <path id="Trazado_192742" data-name="Trazado 192742" d="M75.359,894.245a4.816,4.816,0,1,1,4.863-4.825A4.644,4.644,0,0,1,75.359,894.245Zm.019-2.337a2.494,2.494,0,1,0-2.223-2.488A2.25,2.25,0,0,0,75.378,891.908Z" transform="translate(194.857 231.728)"/>
    <path id="Trazado_192743" data-name="Trazado 192743" d="M88.468,888.184a1.937,1.937,0,0,0-1.88-1.253,2.512,2.512,0,0,0,.019,5.015,2.021,2.021,0,0,0,1.9-1.425h2.527a4.4,4.4,0,0,1-4.446,3.705,4.819,4.819,0,1,1,0-9.632A4.352,4.352,0,0,1,91,888.184Z" transform="translate(194.857 231.728)"/>
    <path id="Trazado_192744" data-name="Trazado 192744" d="M95.765,882.239a1.558,1.558,0,0,1-3.116,0A1.558,1.558,0,0,1,95.765,882.239Zm-.228,11.8H92.878v-9.043h2.659Z" transform="translate(194.857 231.728)"/>
    <path id="Trazado_192745" data-name="Trazado 192745" d="M106.119,893.466a7.008,7.008,0,0,1-3.267.76c-3.211.095-5.357-1.463-5.357-4.806a4.562,4.562,0,0,1,4.654-4.787c2.07-.058,4.313.778,4.255,3.153-.1,1.881-1.767,2.755-3.439,2.811a5.586,5.586,0,0,1-2.944-.588c.057,1.577,1.33,2.166,3,2.108a7.833,7.833,0,0,0,3-.7Zm-3.685-4.673c.76-.02,1.387-.324,1.406-1.007,0-.836-.931-1.1-1.653-1.1a2.024,2.024,0,0,0-2.013,1.634A4.568,4.568,0,0,0,102.434,888.793Z" transform="translate(194.857 231.728)"/>
    <path id="Trazado_192746" data-name="Trazado 192746" d="M117.045,880.054v11.038c0,.778-.038,1.2.873,1.139v1.71c-1.235.266-3.021.36-3.021-1.52a3.13,3.13,0,0,1-2.906,1.767c-2.831-.057-4.142-2.242-4.142-4.845-.056-2.488,1.33-4.787,4.009-4.787a2.745,2.745,0,0,1,2.717,1.406v-5.908Zm-4.484,11.778c1.291,0,1.938-1.064,1.938-2.507,0-1.425-.685-2.566-1.976-2.566-1.387,0-2.014,1.122-2.014,2.584C110.509,890.788,111.193,891.851,112.561,891.832Z" transform="translate(194.857 231.728)"/>
    <path id="Trazado_192747" data-name="Trazado 192747" d="M128.482,891.092c0,.778-.038,1.2.874,1.139v1.71c-1.235.266-3.02.36-3.02-1.52a3.131,3.131,0,0,1-2.907,1.767c-2.831-.057-4.141-2.242-4.141-4.845.094-3.1,2.2-4.73,5.3-4.672a10.447,10.447,0,0,1,3.894.854Zm-2.584-4.028a4.072,4.072,0,0,0-1.519-.266c-1.444,0-2.374.8-2.432,2.545,0,1.445.685,2.508,2.052,2.489,1.272,0,1.842-1.007,1.9-2.394Z" transform="translate(194.857 231.728)"/>
    <path id="Trazado_192748" data-name="Trazado 192748" d="M139.921,880.054v11.038c0,.778-.039,1.2.873,1.139v1.71c-1.235.266-3.021.36-3.021-1.52a3.13,3.13,0,0,1-2.906,1.767c-2.831-.057-4.142-2.242-4.142-4.845-.056-2.488,1.33-4.787,4.009-4.787a2.745,2.745,0,0,1,2.717,1.406v-5.908Zm-4.484,11.778c1.291,0,1.938-1.064,1.938-2.507,0-1.425-.684-2.566-1.976-2.566-1.387,0-2.014,1.122-2.014,2.584C133.385,890.788,134.069,891.851,135.437,891.832Z" transform="translate(194.857 231.728)"/>
    <path id="Trazado_192749" data-name="Trazado 192749" d="M155.537,893.466a7.008,7.008,0,0,1-3.267.76c-3.211.095-5.357-1.463-5.357-4.806a4.562,4.562,0,0,1,4.654-4.787c2.07-.058,4.313.778,4.255,3.153-.1,1.881-1.767,2.755-3.439,2.811a5.586,5.586,0,0,1-2.944-.588c.057,1.577,1.33,2.166,3,2.108a7.833,7.833,0,0,0,3-.7Zm-3.685-4.673c.76-.02,1.387-.324,1.4-1.007,0-.836-.93-1.1-1.652-1.1a2.026,2.026,0,0,0-2.014,1.634A4.574,4.574,0,0,0,151.852,888.793Z" transform="translate(194.857 231.728)"/>
    <path id="Trazado_192750" data-name="Trazado 192750" d="M157.116,884.842c1.349-.248,3.495-.38,3.495,1.386a3.1,3.1,0,0,1,2.888-1.557c2.583,0,3.666,1.766,3.609,4.046v2.488c0,.855.038,1.273.969,1.216v1.558c-1.8.456-3.61.228-3.61-2.052v-3.21a1.735,1.735,0,0,0-1.766-1.938,1.863,1.863,0,0,0-1.919,1.994v5.263h-2.659V887.71c0-1.007.018-1.368-1.007-1.311Z" transform="translate(194.857 231.728)"/>
    <path id="Trazado_192751" data-name="Trazado 192751" d="M69,903.572c2.678,0,5.528,1.443,6.136,4.729H72.385A3.313,3.313,0,0,0,69,906.136c-2.356,0-3.933,1.71-3.933,4.237a3.937,3.937,0,0,0,3.914,4.179,3.311,3.311,0,0,0,3.457-2.394h2.736c-.57,3.515-3.4,4.977-6.174,4.977a6.782,6.782,0,1,1,0-13.563Z" transform="translate(194.857 231.728)"/>
    <path id="Trazado_192752" data-name="Trazado 192752" d="M81.392,917.212a4.816,4.816,0,1,1,4.864-4.826A4.645,4.645,0,0,1,81.392,917.212Zm.019-2.337a2.494,2.494,0,1,0-2.223-2.489A2.251,2.251,0,0,0,81.411,914.875Z" transform="translate(194.857 231.728)"/>
    <path id="Trazado_192753" data-name="Trazado 192753" d="M87.51,907.808c1.33-.361,3.572-.418,3.572,1.463a2.869,2.869,0,0,1,2.849-1.634,2.607,2.607,0,0,1,2.812,1.709,3.325,3.325,0,0,1,3.135-1.709c2.583,0,3.171,1.786,3.115,4.046v2.508c0,.836.1,1.254,1.063,1.2v1.539c-1.975.513-3.723.209-3.723-2.127v-3.116c.057-1.216-.57-1.937-1.482-1.937a1.77,1.77,0,0,0-1.69,1.957V917H94.577v-5.3c0-1.236-.646-1.957-1.614-1.957a1.811,1.811,0,0,0-1.768,2.013V917H88.536V910.7c0-.988-.076-1.406-1.026-1.35Z" transform="translate(194.857 231.728)"/>
    <path id="Trazado_192754" data-name="Trazado 192754" d="M114.451,914.058c0,.779-.038,1.2.874,1.14v1.71c-1.235.266-3.021.36-3.021-1.521a3.128,3.128,0,0,1-2.906,1.768c-2.831-.058-4.141-2.242-4.141-4.845.094-3.1,2.2-4.73,5.3-4.673a10.468,10.468,0,0,1,3.895.855Zm-2.584-4.027a4.08,4.08,0,0,0-1.52-.267c-1.443,0-2.374.8-2.431,2.546,0,1.445.684,2.508,2.051,2.489,1.273,0,1.843-1.007,1.9-2.394Z" transform="translate(194.857 231.728)"/>
    <path id="Trazado_192755" data-name="Trazado 192755" d="M116.543,907.808c1.348-.247,3.5-.38,3.5,1.387a3.1,3.1,0,0,1,2.887-1.558c2.583,0,3.666,1.767,3.61,4.046v2.489c0,.855.038,1.273.969,1.215v1.559c-1.805.456-3.61.228-3.61-2.052v-3.211a1.735,1.735,0,0,0-1.766-1.937,1.862,1.862,0,0,0-1.919,1.994V917h-2.66v-6.327c0-1.006.019-1.368-1.006-1.31Z" transform="translate(194.857 231.728)"/>
    <path id="Trazado_192756" data-name="Trazado 192756" d="M137.9,903.021v11.037c0,.779-.038,1.2.873,1.14v1.71c-1.234.266-3.02.36-3.02-1.521a3.131,3.131,0,0,1-2.907,1.768c-2.831-.058-4.141-2.242-4.141-4.845-.057-2.488,1.33-4.787,4.009-4.787a2.742,2.742,0,0,1,2.716,1.4v-5.907ZM133.414,914.8c1.291,0,1.937-1.064,1.937-2.507,0-1.425-.683-2.566-1.975-2.566-1.387,0-2.014,1.121-2.014,2.584C131.362,913.755,132.046,914.818,133.414,914.8Z" transform="translate(194.857 231.728)"/>
    <path id="Trazado_192757" data-name="Trazado 192757" d="M143.674,905.206a1.559,1.559,0,0,1-3.117,0A1.559,1.559,0,0,1,143.674,905.206Zm-.229,11.8h-2.659V907.96h2.659Z" transform="translate(194.857 231.728)"/>
    <path id="Trazado_192758" data-name="Trazado 192758" d="M149.43,907.865h2.983v1.995H149.43v3.552c0,1.9,1.577,1.995,3.1,1.444l.247,2.014c-3.154.874-5.946.36-5.946-3.4V909.86l-1.729-.171v-1.824h1.918l.285-2.85h2.128Z" transform="translate(194.857 231.728)"/>
    <path id="Trazado_192759" data-name="Trazado 192759" d="M163.147,914.058c0,.779-.038,1.2.874,1.14v1.71c-1.235.266-3.02.36-3.02-1.521a3.131,3.131,0,0,1-2.907,1.768c-2.831-.058-4.141-2.242-4.141-4.845.1-3.1,2.2-4.73,5.3-4.673a10.467,10.467,0,0,1,3.894.855Zm-2.584-4.027a4.075,4.075,0,0,0-1.519-.267c-1.444,0-2.374.8-2.432,2.546,0,1.445.685,2.508,2.052,2.489,1.273,0,1.843-1.007,1.9-2.394Z" transform="translate(194.857 231.728)"/>
    <path id="Trazado_192760" data-name="Trazado 192760" d="M258.093,1180.3h-5.281v2.7h4.94v2.488h-4.94v3.039h5.434v2.584h-8.3v-13.3h8.149Z" transform="translate(194.857 231.728)"/>
    <path id="Trazado_192761" data-name="Trazado 192761" d="M259.843,1181.916c1.33-.362,3.572-.418,3.572,1.463a2.868,2.868,0,0,1,2.849-1.634,2.607,2.607,0,0,1,2.812,1.709,3.325,3.325,0,0,1,3.135-1.709c2.583,0,3.171,1.785,3.115,4.046v2.508c0,.835.1,1.253,1.063,1.2v1.539c-1.975.513-3.723.209-3.723-2.128v-3.115c.057-1.216-.57-1.938-1.482-1.938a1.77,1.77,0,0,0-1.69,1.957v5.3H266.91v-5.3c0-1.235-.646-1.957-1.614-1.957a1.812,1.812,0,0,0-1.768,2.014v5.243h-2.659V1184.8c0-.988-.076-1.406-1.026-1.349Z" transform="translate(194.857 231.728)"/>
    <path id="Trazado_192762" data-name="Trazado 192762" d="M278.424,1195.783v-10.828c0-.874.039-1.444-.874-1.387V1181.9c1.216-.247,3.04-.322,3.04,1.292v.228a3.185,3.185,0,0,1,2.907-1.767c2.83.058,4.14,2.242,4.14,4.845-.056,2.584-1.348,4.73-4.007,4.787a2.892,2.892,0,0,1-2.736-1.368v5.87Zm4.5-11.759c-1.292,0-1.919,1.026-1.919,2.47,0,1.405.647,2.584,1.939,2.584,1.425,0,2.07-1.083,2.07-2.584C285.016,1185.088,284.3,1183.967,282.926,1184.024Z" transform="translate(194.857 231.728)"/>
    <path id="Trazado_192763" data-name="Trazado 192763" d="M295.01,1181.669a3.164,3.164,0,0,1,1.956.589l-.588,2.222a2.88,2.88,0,0,0-1.71-.494,2.048,2.048,0,0,0-2.147,2.166v4.958h-2.6v-6.459c0-.76-.077-1.254-.912-1.121V1181.9c1.33-.3,3.287-.3,3.438,1.33A2.587,2.587,0,0,1,295.01,1181.669Z" transform="translate(194.857 231.728)"/>
    <path id="Trazado_192764" data-name="Trazado 192764" d="M306.257,1190.54a7,7,0,0,1-3.266.761c-3.211.094-5.358-1.463-5.358-4.807a4.563,4.563,0,0,1,4.655-4.787c2.07-.058,4.312.778,4.255,3.153-.1,1.881-1.767,2.755-3.439,2.812a5.593,5.593,0,0,1-2.944-.589c.056,1.577,1.33,2.166,3,2.108a7.822,7.822,0,0,0,3-.7Zm-3.684-4.673c.76-.02,1.387-.323,1.4-1.007,0-.836-.93-1.1-1.652-1.1a2.023,2.023,0,0,0-2.014,1.633A4.564,4.564,0,0,0,302.573,1185.867Z" transform="translate(194.857 231.728)"/>
    <path id="Trazado_192765" data-name="Trazado 192765" d="M310.59,1188.317c.02.761.742,1.1,1.5,1.083.78,0,1.558-.227,1.578-1.045,0-.74-.665-.816-1.312-.911-1.843-.247-4.236-.494-4.236-2.717,0-2.051,1.691-3.02,3.932-3.02,2.185,0,4.066.987,3.971,2.925h-2.508c-.018-.665-.665-.931-1.425-.931s-1.4.342-1.4.95c0,.684.722.779,1.311.836,2.052.247,4.388.418,4.331,2.868-.057,2.185-2.052,3-4.122,3s-4.18-.608-4.275-3.04Z" transform="translate(194.857 231.728)"/>
    <path id="Trazado_192766" data-name="Trazado 192766" d="M326.873,1188.166c0,.778-.038,1.2.874,1.139v1.71c-1.236.266-3.021.361-3.021-1.52a3.129,3.129,0,0,1-2.906,1.767c-2.831-.057-4.142-2.242-4.142-4.844.1-3.1,2.2-4.731,5.3-4.673a10.467,10.467,0,0,1,3.895.854Zm-2.584-4.028a4.078,4.078,0,0,0-1.52-.266c-1.443,0-2.374.8-2.431,2.546,0,1.444.684,2.508,2.051,2.488,1.274,0,1.843-1.007,1.9-2.394Z" transform="translate(194.857 231.728)"/>
    <path id="Trazado_192767" data-name="Trazado 192767" d="M234.44,1209.65v-8.871h2.85v8.814a2.483,2.483,0,0,0,4.92,0v-8.814h2.811v8.871c0,2.984-2.45,4.6-5.262,4.6S234.44,1212.634,234.44,1209.65Z" transform="translate(194.857 231.728)"/>
    <path id="Trazado_192768" data-name="Trazado 192768" d="M246.924,1204.883c1.348-.248,3.5-.38,3.5,1.386a3.1,3.1,0,0,1,2.887-1.557c2.583,0,3.666,1.766,3.61,4.046v2.488c0,.855.038,1.273.968,1.216v1.558c-1.8.456-3.609.228-3.609-2.052v-3.21a1.736,1.736,0,0,0-1.767-1.938,1.863,1.863,0,0,0-1.918,1.994v5.263h-2.66v-6.326c0-1.007.019-1.368-1.006-1.311Z" transform="translate(194.857 231.728)"/>
    <path id="Trazado_192769" data-name="Trazado 192769" d="M262.5,1202.28a1.559,1.559,0,0,1-3.117,0A1.559,1.559,0,0,1,262.5,1202.28Zm-.229,11.8h-2.659v-9.043h2.659Z" transform="translate(194.857 231.728)"/>
    <path id="Trazado_192770" data-name="Trazado 192770" d="M265.068,1218.75v-10.828c0-.874.038-1.444-.874-1.387v-1.672c1.216-.247,3.039-.322,3.039,1.292v.228a3.185,3.185,0,0,1,2.907-1.767c2.83.058,4.141,2.242,4.141,4.845-.057,2.584-1.349,4.73-4.008,4.787a2.893,2.893,0,0,1-2.735-1.368v5.87Zm4.5-11.759c-1.292,0-1.919,1.025-1.919,2.47,0,1.4.647,2.584,1.939,2.584,1.424,0,2.07-1.083,2.07-2.584C271.66,1208.054,270.938,1206.934,269.57,1206.991Z" transform="translate(194.857 231.728)"/>
    <path id="Trazado_192771" data-name="Trazado 192771" d="M284.332,1213.507a7.008,7.008,0,0,1-3.267.76c-3.211.1-5.357-1.463-5.357-4.806a4.562,4.562,0,0,1,4.654-4.787c2.07-.058,4.312.778,4.255,3.153-.1,1.881-1.767,2.755-3.439,2.811a5.583,5.583,0,0,1-2.944-.588c.057,1.577,1.33,2.166,3,2.108a7.835,7.835,0,0,0,3-.7Zm-3.685-4.673c.76-.02,1.387-.324,1.4-1.007,0-.836-.93-1.1-1.652-1.1a2.025,2.025,0,0,0-2.014,1.634A4.575,4.575,0,0,0,280.647,1208.834Z" transform="translate(194.857 231.728)"/>
    <path id="Trazado_192772" data-name="Trazado 192772" d="M291.99,1204.635a3.177,3.177,0,0,1,1.956.589l-.589,2.223a2.88,2.88,0,0,0-1.71-.494,2.048,2.048,0,0,0-2.146,2.166v4.958h-2.6v-6.459c0-.76-.076-1.254-.912-1.121v-1.634c1.33-.3,3.287-.3,3.438,1.33A2.589,2.589,0,0,1,291.99,1204.635Z" transform="translate(194.857 231.728)"/>
    <path id="Trazado_192773" data-name="Trazado 192773" d="M297.347,1211.284c.02.761.742,1.1,1.5,1.083.78,0,1.558-.228,1.577-1.045,0-.74-.665-.816-1.311-.911-1.843-.247-4.236-.494-4.236-2.717,0-2.052,1.691-3.02,3.932-3.02,2.185,0,4.066.987,3.971,2.924h-2.508c-.018-.664-.665-.93-1.425-.93s-1.4.341-1.4.95c0,.683.722.779,1.311.836,2.051.247,4.387.418,4.331,2.868-.057,2.185-2.052,3-4.122,3s-4.18-.608-4.275-3.04Z" transform="translate(194.857 231.728)"/>
    <path id="Trazado_192774" data-name="Trazado 192774" d="M309.26,1214.286a4.816,4.816,0,1,1,4.864-4.825A4.644,4.644,0,0,1,309.26,1214.286Zm.019-2.337a2.494,2.494,0,1,0-2.223-2.488A2.25,2.25,0,0,0,309.279,1211.949Z" transform="translate(194.857 231.728)"/>
    <path id="Trazado_192775" data-name="Trazado 192775" d="M315.38,1204.883c1.348-.248,3.495-.38,3.495,1.386a3.1,3.1,0,0,1,2.887-1.557c2.583,0,3.666,1.766,3.61,4.046v2.488c0,.855.038,1.273.968,1.216v1.558c-1.8.456-3.609.228-3.609-2.052v-3.21a1.736,1.736,0,0,0-1.766-1.938,1.863,1.863,0,0,0-1.919,1.994v5.263h-2.66v-6.326c0-1.007.019-1.368-1.006-1.311Z" transform="translate(194.857 231.728)"/>
    <path id="Trazado_192776" data-name="Trazado 192776" d="M336.715,1211.133c0,.778-.039,1.2.874,1.139v1.71c-1.236.266-3.021.36-3.021-1.52a3.13,3.13,0,0,1-2.906,1.767c-2.831-.057-4.142-2.242-4.142-4.845.1-3.1,2.2-4.73,5.3-4.672a10.445,10.445,0,0,1,3.895.854Zm-2.584-4.028a4.078,4.078,0,0,0-1.52-.266c-1.443,0-2.374.8-2.432,2.545,0,1.445.685,2.508,2.052,2.489,1.274,0,1.843-1.007,1.9-2.394Z" transform="translate(194.857 231.728)"/>
    <path id="Trazado_192777" data-name="Trazado 192777" d="M342.016,1200.171V1210.6c0,1.407.551,1.691,1.824,1.482l.1,1.995c-2.831.513-4.54-.191-4.54-3.477v-10.429Z" transform="translate(194.857 231.728)"/>
    <path id="Trazado_192778" data-name="Trazado 192778" d="M47.985,1131.714c.057,1.215,1.387,1.728,2.679,1.728,1.177,0,2.545-.284,2.545-1.671,0-1.52-1.634-1.653-2.907-1.748-2.412-.209-4.843-1.026-4.843-3.78,0-2.945,2.412-4.18,5.052-4.18,2.489,0,5.073,1.045,5.073,4.028h-2.66c-.152-1.083-1.273-1.54-2.413-1.54s-2.26.609-2.26,1.634c0,1.178,1.159,1.445,2.546,1.6,2.811.247,5.224.874,5.224,3.99,0,3.134-2.717,4.1-5.339,4.16-2.659,0-5.414-1.31-5.414-4.217Z" transform="translate(194.857 231.728)" fill="#fff"/>
    <path id="Trazado_192779" data-name="Trazado 192779" d="M62.31,1135.855a4.816,4.816,0,1,1,4.864-4.825A4.645,4.645,0,0,1,62.31,1135.855Zm.019-2.337a2.494,2.494,0,1,0-2.223-2.488A2.25,2.25,0,0,0,62.329,1133.518Z" transform="translate(194.857 231.728)" fill="#fff"/>
    <path id="Trazado_192780" data-name="Trazado 192780" d="M75.42,1129.8a1.938,1.938,0,0,0-1.881-1.253,2.511,2.511,0,0,0,.019,5.014,2.021,2.021,0,0,0,1.9-1.424h2.527a4.4,4.4,0,0,1-4.446,3.705,4.819,4.819,0,1,1,0-9.632,4.35,4.35,0,0,1,4.408,3.59Z" transform="translate(194.857 231.728)" fill="#fff"/>
    <path id="Trazado_192781" data-name="Trazado 192781" d="M82.716,1123.849a1.558,1.558,0,0,1-3.116,0A1.558,1.558,0,0,1,82.716,1123.849Zm-.228,11.8H79.829V1126.6h2.659Z" transform="translate(194.857 231.728)" fill="#fff"/>
    <path id="Trazado_192782" data-name="Trazado 192782" d="M93.07,1135.076a7.006,7.006,0,0,1-3.267.761c-3.211.094-5.357-1.463-5.357-4.807a4.563,4.563,0,0,1,4.654-4.787c2.071-.058,4.313.778,4.255,3.153-.1,1.881-1.766,2.755-3.438,2.812a5.6,5.6,0,0,1-2.945-.589c.057,1.577,1.33,2.166,3,2.108a7.817,7.817,0,0,0,3-.7Zm-3.685-4.673c.76-.019,1.387-.323,1.406-1.007,0-.836-.931-1.1-1.653-1.1a2.023,2.023,0,0,0-2.013,1.633A4.548,4.548,0,0,0,89.385,1130.4Z" transform="translate(194.857 231.728)" fill="#fff"/>
    <path id="Trazado_192783" data-name="Trazado 192783" d="M104,1121.665V1132.7c0,.778-.038,1.2.873,1.14v1.709c-1.235.266-3.021.361-3.021-1.52a3.128,3.128,0,0,1-2.906,1.768c-2.831-.058-4.142-2.243-4.142-4.845-.056-2.488,1.331-4.787,4.009-4.787a2.744,2.744,0,0,1,2.717,1.405v-5.907Zm-4.484,11.777c1.291,0,1.938-1.063,1.938-2.507,0-1.425-.685-2.565-1.976-2.565-1.386,0-2.013,1.121-2.013,2.584C97.461,1132.4,98.144,1133.462,99.512,1133.442Z" transform="translate(194.857 231.728)" fill="#fff"/>
    <path id="Trazado_192784" data-name="Trazado 192784" d="M115.433,1132.7c0,.778-.038,1.2.874,1.14v1.709c-1.235.266-3.02.361-3.02-1.52a3.13,3.13,0,0,1-2.906,1.768c-2.832-.058-4.142-2.243-4.142-4.845.1-3.1,2.2-4.731,5.3-4.673a10.488,10.488,0,0,1,3.894.854Zm-2.584-4.027a4.069,4.069,0,0,0-1.519-.267c-1.444,0-2.374.8-2.432,2.546,0,1.444.685,2.508,2.052,2.488,1.272,0,1.843-1.007,1.9-2.393Z" transform="translate(194.857 231.728)" fill="#fff"/>
    <path id="Trazado_192785" data-name="Trazado 192785" d="M126.872,1121.665V1132.7c0,.778-.038,1.2.873,1.14v1.709c-1.235.266-3.021.361-3.021-1.52a3.128,3.128,0,0,1-2.906,1.768c-2.831-.058-4.142-2.243-4.142-4.845-.056-2.488,1.331-4.787,4.009-4.787a2.744,2.744,0,0,1,2.717,1.405v-5.907Zm-4.484,11.777c1.291,0,1.938-1.063,1.938-2.507,0-1.425-.684-2.565-1.976-2.565-1.386,0-2.013,1.121-2.013,2.584C120.337,1132.4,121.02,1133.462,122.388,1133.442Z" transform="translate(194.857 231.728)" fill="#fff"/>
    <path id="Trazado_192786" data-name="Trazado 192786" d="M142.488,1135.076a7.006,7.006,0,0,1-3.267.761c-3.211.094-5.357-1.463-5.357-4.807a4.563,4.563,0,0,1,4.654-4.787c2.071-.058,4.313.778,4.255,3.153-.1,1.881-1.766,2.755-3.438,2.812a5.6,5.6,0,0,1-2.945-.589c.057,1.577,1.33,2.166,3,2.108a7.817,7.817,0,0,0,3-.7ZM138.8,1130.4c.76-.019,1.387-.323,1.406-1.007,0-.836-.931-1.1-1.653-1.1a2.023,2.023,0,0,0-2.013,1.633A4.548,4.548,0,0,0,138.8,1130.4Z" transform="translate(194.857 231.728)" fill="#fff"/>
    <path id="Trazado_192787" data-name="Trazado 192787" d="M144.067,1126.452c1.349-.247,3.495-.38,3.495,1.387a3.1,3.1,0,0,1,2.888-1.558c2.583,0,3.666,1.767,3.609,4.046v2.488c0,.856.038,1.274.969,1.216v1.559c-1.8.456-3.609.227-3.609-2.052v-3.211a1.736,1.736,0,0,0-1.767-1.938,1.864,1.864,0,0,0-1.919,1.995v5.262h-2.659v-6.326c0-1.007.018-1.368-1.007-1.311Z" transform="translate(194.857 231.728)" fill="#fff"/>
    <path id="Trazado_192788" data-name="Trazado 192788" d="M22.288,1145.182c2.678,0,5.528,1.444,6.136,4.73H25.67a3.315,3.315,0,0,0-3.382-2.165c-2.356,0-3.933,1.71-3.933,4.236a3.938,3.938,0,0,0,3.914,4.18,3.31,3.31,0,0,0,3.457-2.4h2.737c-.571,3.515-3.4,4.978-6.175,4.978a6.782,6.782,0,1,1,0-13.564Z" transform="translate(194.857 231.728)" fill="#fff"/>
    <path id="Trazado_192789" data-name="Trazado 192789" d="M34.676,1158.822a4.816,4.816,0,1,1,0-9.632,4.816,4.816,0,1,1,0,9.632Zm.019-2.337A2.494,2.494,0,1,0,32.472,1154,2.25,2.25,0,0,0,34.695,1156.485Z" transform="translate(194.857 231.728)" fill="#fff"/>
    <path id="Trazado_192790" data-name="Trazado 192790" d="M40.795,1149.419c1.329-.362,3.571-.418,3.571,1.463a2.867,2.867,0,0,1,2.849-1.634,2.606,2.606,0,0,1,2.812,1.709,3.323,3.323,0,0,1,3.135-1.709c2.583,0,3.172,1.785,3.115,4.046v2.507c0,.836.1,1.254,1.063,1.2v1.539c-1.975.513-3.723.209-3.723-2.128v-3.115c.057-1.216-.569-1.938-1.482-1.938a1.771,1.771,0,0,0-1.69,1.957v5.3H47.861v-5.3c0-1.235-.646-1.957-1.614-1.957a1.812,1.812,0,0,0-1.767,2.014v5.243H41.82v-6.307c0-.988-.076-1.406-1.025-1.349Z" transform="translate(194.857 231.728)" fill="#fff"/>
    <path id="Trazado_192791" data-name="Trazado 192791" d="M67.735,1155.669c0,.778-.038,1.2.874,1.139v1.71c-1.235.266-3.02.361-3.02-1.52a3.132,3.132,0,0,1-2.907,1.767c-2.831-.057-4.141-2.242-4.141-4.844.094-3.1,2.2-4.731,5.3-4.673a10.464,10.464,0,0,1,3.9.854Zm-2.584-4.028a4.073,4.073,0,0,0-1.519-.266c-1.444,0-2.375.8-2.432,2.546,0,1.444.684,2.507,2.052,2.488,1.273,0,1.842-1.007,1.9-2.394Z" transform="translate(194.857 231.728)" fill="#fff"/>
    <path id="Trazado_192792" data-name="Trazado 192792" d="M69.827,1149.419c1.348-.247,3.495-.38,3.495,1.386a3.1,3.1,0,0,1,2.888-1.557c2.583,0,3.666,1.766,3.609,4.046v2.488c0,.855.038,1.273.969,1.216v1.558c-1.805.456-3.61.228-3.61-2.051v-3.211a1.735,1.735,0,0,0-1.766-1.938,1.864,1.864,0,0,0-1.919,1.994v5.263H70.834v-6.326c0-1.007.018-1.368-1.007-1.311Z" transform="translate(194.857 231.728)" fill="#fff"/>
    <path id="Trazado_192793" data-name="Trazado 192793" d="M91.181,1144.632v11.037c0,.778-.038,1.2.873,1.139v1.71c-1.234.266-3.02.361-3.02-1.52a3.131,3.131,0,0,1-2.906,1.767c-2.831-.057-4.142-2.242-4.142-4.844-.057-2.489,1.33-4.787,4.009-4.787a2.744,2.744,0,0,1,2.717,1.4v-5.907ZM86.7,1156.409c1.291,0,1.937-1.064,1.937-2.507,0-1.425-.684-2.565-1.975-2.565-1.387,0-2.014,1.121-2.014,2.584C84.646,1155.365,85.33,1156.428,86.7,1156.409Z" transform="translate(194.857 231.728)" fill="#fff"/>
    <path id="Trazado_192794" data-name="Trazado 192794" d="M96.958,1146.816a1.559,1.559,0,0,1-3.117,0A1.559,1.559,0,0,1,96.958,1146.816Zm-.229,11.8H94.07v-9.043h2.659Z" transform="translate(194.857 231.728)" fill="#fff"/>
    <path id="Trazado_192795" data-name="Trazado 192795" d="M102.715,1149.475H105.7v1.995h-2.982v3.552c0,1.9,1.576,1.995,3.1,1.445l.247,2.013c-3.154.874-5.946.361-5.946-3.4v-3.61l-1.729-.17v-1.825H100.3l.286-2.849h2.128Z" transform="translate(194.857 231.728)" fill="#fff"/>
    <path id="Trazado_192796" data-name="Trazado 192796" d="M116.431,1155.669c0,.778-.038,1.2.874,1.139v1.71c-1.235.266-3.02.361-3.02-1.52a3.131,3.131,0,0,1-2.906,1.767c-2.831-.057-4.142-2.242-4.142-4.844.1-3.1,2.2-4.731,5.3-4.673a10.464,10.464,0,0,1,3.894.854Zm-2.584-4.028a4.069,4.069,0,0,0-1.519-.266c-1.444,0-2.374.8-2.432,2.546,0,1.444.685,2.507,2.052,2.488,1.272,0,1.843-1.007,1.9-2.394Z" transform="translate(194.857 231.728)" fill="#fff"/>
    <path id="Trazado_192797" data-name="Trazado 192797" d="M126.122,1154.68c.056,1.216,1.386,1.729,2.678,1.729,1.178,0,2.545-.284,2.545-1.671,0-1.521-1.633-1.653-2.906-1.748-2.412-.209-4.844-1.026-4.844-3.78,0-2.946,2.412-4.18,5.053-4.18,2.488,0,5.072,1.045,5.072,4.027h-2.659c-.152-1.083-1.273-1.539-2.413-1.539s-2.261.609-2.261,1.634c0,1.178,1.16,1.444,2.546,1.6,2.812.247,5.225.874,5.225,3.99,0,3.134-2.717,4.1-5.339,4.16-2.659,0-5.414-1.31-5.414-4.218Z" transform="translate(194.857 231.728)" fill="#fff"/>
    <path id="Trazado_192798" data-name="Trazado 192798" d="M138.966,1146.816a1.558,1.558,0,0,1-3.116,0A1.558,1.558,0,0,1,138.966,1146.816Zm-.228,11.8h-2.659v-9.043h2.659Z" transform="translate(194.857 231.728)" fill="#fff"/>
    <path id="Trazado_192799" data-name="Trazado 192799" d="M140.563,1149.419c1.329-.362,3.571-.418,3.571,1.463a2.869,2.869,0,0,1,2.85-1.634,2.607,2.607,0,0,1,2.812,1.709,3.32,3.32,0,0,1,3.134-1.709c2.583,0,3.172,1.785,3.116,4.046v2.507c0,.836.094,1.254,1.063,1.2v1.539c-1.976.513-3.724.209-3.724-2.128v-3.115c.058-1.216-.569-1.938-1.481-1.938a1.77,1.77,0,0,0-1.69,1.957v5.3H147.63v-5.3c0-1.235-.646-1.957-1.615-1.957a1.813,1.813,0,0,0-1.767,2.014v5.243h-2.659v-6.307c0-.988-.077-1.406-1.026-1.349Z" transform="translate(194.857 231.728)" fill="#fff"/>
    <path id="Trazado_192800" data-name="Trazado 192800" d="M159.144,1163.286v-10.828c0-.874.038-1.444-.874-1.387V1149.4c1.216-.247,3.039-.322,3.039,1.292v.228a3.187,3.187,0,0,1,2.907-1.767c2.831.058,4.141,2.242,4.141,4.845-.057,2.584-1.349,4.73-4.008,4.787a2.9,2.9,0,0,1-2.735-1.368v5.87Zm4.5-11.759c-1.292,0-1.919,1.025-1.919,2.47,0,1.405.647,2.584,1.939,2.584,1.424,0,2.07-1.083,2.07-2.584C165.736,1152.591,165.014,1151.47,163.646,1151.527Z" transform="translate(194.857 231.728)" fill="#fff"/>
    <path id="Trazado_192801" data-name="Trazado 192801" d="M172.861,1144.707v10.429c0,1.407.551,1.691,1.824,1.482l.1,1.995c-2.831.513-4.54-.19-4.54-3.477v-10.429Z" transform="translate(194.857 231.728)" fill="#fff"/>
    <path id="Trazado_192802" data-name="Trazado 192802" d="M184.279,1158.043a6.993,6.993,0,0,1-3.267.76c-3.211.095-5.357-1.462-5.357-4.806a4.562,4.562,0,0,1,4.654-4.787c2.071-.058,4.313.778,4.255,3.153-.1,1.881-1.766,2.755-3.438,2.812a5.6,5.6,0,0,1-2.945-.589c.057,1.577,1.33,2.166,3,2.108a7.813,7.813,0,0,0,3-.7Zm-3.685-4.673c.76-.02,1.387-.323,1.406-1.007,0-.836-.931-1.1-1.653-1.1a2.025,2.025,0,0,0-2.013,1.634A4.57,4.57,0,0,0,180.594,1153.37Z" transform="translate(194.857 231.728)" fill="#fff"/>
    <path id="Trazado_192803" data-name="Trazado 192803" d="M34.115,1009.136c.057,1.216,1.387,1.729,2.679,1.729,1.177,0,2.545-.284,2.545-1.671,0-1.52-1.634-1.653-2.907-1.748-2.412-.209-4.843-1.026-4.843-3.78,0-2.946,2.412-4.18,5.052-4.18,2.489,0,5.073,1.045,5.073,4.027h-2.66c-.152-1.083-1.273-1.539-2.413-1.539s-2.26.609-2.26,1.634c0,1.178,1.159,1.444,2.545,1.6,2.812.247,5.224.874,5.224,3.99,0,3.134-2.716,4.1-5.338,4.16-2.659,0-5.414-1.31-5.414-4.218Z" transform="translate(194.857 231.728)"/>
    <path id="Trazado_192804" data-name="Trazado 192804" d="M48.44,1013.278a4.816,4.816,0,1,1,4.863-4.825A4.644,4.644,0,0,1,48.44,1013.278Zm.019-2.337a2.494,2.494,0,1,0-2.223-2.488A2.25,2.25,0,0,0,48.459,1010.941Z" transform="translate(194.857 231.728)"/>
    <path id="Trazado_192805" data-name="Trazado 192805" d="M61.549,1007.217a1.937,1.937,0,0,0-1.88-1.252,2.511,2.511,0,0,0,.019,5.014,2.02,2.02,0,0,0,1.9-1.425h2.527a4.4,4.4,0,0,1-4.446,3.7,4.819,4.819,0,1,1,0-9.631,4.35,4.35,0,0,1,4.408,3.589Z" transform="translate(194.857 231.728)"/>
    <path id="Trazado_192806" data-name="Trazado 192806" d="M68.846,1001.272a1.558,1.558,0,0,1-3.116,0A1.558,1.558,0,0,1,68.846,1001.272Zm-.228,11.8H65.959v-9.043h2.659Z" transform="translate(194.857 231.728)"/>
    <path id="Trazado_192807" data-name="Trazado 192807" d="M79.2,1012.5a7,7,0,0,1-3.267.76c-3.211.1-5.357-1.462-5.357-4.806a4.562,4.562,0,0,1,4.654-4.787c2.07-.058,4.313.778,4.255,3.153-.1,1.881-1.767,2.755-3.438,2.812a5.6,5.6,0,0,1-2.945-.589c.057,1.577,1.33,2.166,3,2.108a7.816,7.816,0,0,0,3-.7Zm-3.685-4.673c.76-.02,1.387-.323,1.406-1.007,0-.836-.931-1.1-1.653-1.1a2.025,2.025,0,0,0-2.013,1.634A4.557,4.557,0,0,0,75.515,1007.826Z" transform="translate(194.857 231.728)"/>
    <path id="Trazado_192808" data-name="Trazado 192808" d="M90.126,999.088v11.037c0,.778-.038,1.2.873,1.139v1.71c-1.235.266-3.021.361-3.021-1.52a3.13,3.13,0,0,1-2.906,1.767c-2.831-.057-4.142-2.242-4.142-4.844-.056-2.489,1.33-4.787,4.009-4.787a2.744,2.744,0,0,1,2.717,1.4v-5.907Zm-4.484,11.777c1.291,0,1.938-1.064,1.938-2.507,0-1.425-.684-2.565-1.976-2.565-1.387,0-2.014,1.121-2.014,2.584C83.59,1009.821,84.274,1010.884,85.642,1010.865Z" transform="translate(194.857 231.728)"/>
    <path id="Trazado_192809" data-name="Trazado 192809" d="M101.563,1010.125c0,.778-.038,1.2.874,1.139v1.71c-1.235.266-3.02.361-3.02-1.52a3.131,3.131,0,0,1-2.907,1.767c-2.831-.057-4.141-2.242-4.141-4.844.095-3.1,2.2-4.731,5.3-4.673a10.467,10.467,0,0,1,3.894.854Zm-2.584-4.028a4.073,4.073,0,0,0-1.519-.266c-1.444,0-2.374.8-2.432,2.546,0,1.444.685,2.507,2.052,2.488,1.273,0,1.843-1.007,1.9-2.394Z" transform="translate(194.857 231.728)"/>
    <path id="Trazado_192810" data-name="Trazado 192810" d="M113,999.088v11.037c0,.778-.038,1.2.873,1.139v1.71c-1.235.266-3.021.361-3.021-1.52a3.13,3.13,0,0,1-2.906,1.767c-2.831-.057-4.142-2.242-4.142-4.844-.056-2.489,1.33-4.787,4.009-4.787a2.744,2.744,0,0,1,2.717,1.4v-5.907Zm-4.484,11.777c1.291,0,1.938-1.064,1.938-2.507,0-1.425-.685-2.565-1.976-2.565-1.387,0-2.014,1.121-2.014,2.584C106.466,1009.821,107.15,1010.884,108.518,1010.865Z" transform="translate(194.857 231.728)"/>
    <path id="Trazado_192811" data-name="Trazado 192811" d="M123.869,1012.5a7,7,0,0,1-3.267.76c-3.211.1-5.357-1.462-5.357-4.806a4.562,4.562,0,0,1,4.654-4.787c2.07-.058,4.313.778,4.255,3.153-.1,1.881-1.767,2.755-3.439,2.812a5.6,5.6,0,0,1-2.944-.589c.057,1.577,1.33,2.166,3,2.108a7.816,7.816,0,0,0,3-.7Zm-3.685-4.673c.76-.02,1.387-.323,1.406-1.007,0-.836-.931-1.1-1.653-1.1a2.025,2.025,0,0,0-2.013,1.634A4.557,4.557,0,0,0,120.184,1007.826Z" transform="translate(194.857 231.728)"/>
    <path id="Trazado_192812" data-name="Trazado 192812" d="M128.2,1010.276c.019.761.741,1.1,1.5,1.083.779,0,1.557-.227,1.577-1.045,0-.74-.665-.816-1.312-.911-1.842-.247-4.236-.494-4.236-2.717,0-2.052,1.692-3.02,3.933-3.02,2.184,0,4.065.987,3.97,2.925h-2.507c-.019-.665-.665-.931-1.425-.931s-1.4.342-1.4.95c0,.684.721.779,1.31.836,2.052.247,4.388.418,4.331,2.868-.057,2.185-2.052,3-4.122,3s-4.18-.608-4.274-3.04Z" transform="translate(194.857 231.728)"/>
    <path id="Trazado_192813" data-name="Trazado 192813" d="M41.611,1033.49h5.547v2.546h-8.4v-13.3h2.85Z" transform="translate(194.857 231.728)"/>
    <path id="Trazado_192814" data-name="Trazado 192814" d="M51.6,1024.239a1.558,1.558,0,0,1-3.116,0A1.558,1.558,0,0,1,51.6,1024.239Zm-.228,11.8h-2.66v-9.043h2.66Z" transform="translate(194.857 231.728)"/>
    <path id="Trazado_192815" data-name="Trazado 192815" d="M53.2,1026.842c1.329-.362,3.571-.418,3.571,1.462a2.869,2.869,0,0,1,2.85-1.633,2.6,2.6,0,0,1,2.811,1.709,3.323,3.323,0,0,1,3.135-1.709c2.583,0,3.172,1.785,3.115,4.046v2.507c0,.836.1,1.254,1.064,1.2v1.539c-1.976.512-3.724.209-3.724-2.128v-3.115c.058-1.216-.569-1.938-1.481-1.938a1.771,1.771,0,0,0-1.691,1.957v5.3H60.267v-5.3c0-1.235-.645-1.957-1.614-1.957a1.812,1.812,0,0,0-1.767,2.014v5.243h-2.66v-6.307c0-.988-.076-1.406-1.025-1.349Z" transform="translate(194.857 231.728)"/>
    <path id="Trazado_192816" data-name="Trazado 192816" d="M74.385,1024.239a1.558,1.558,0,0,1-3.116,0A1.558,1.558,0,0,1,74.385,1024.239Zm-.228,11.8H71.5v-9.043h2.659Z" transform="translate(194.857 231.728)"/>
    <path id="Trazado_192817" data-name="Trazado 192817" d="M80.142,1026.9h2.983v1.995H80.142v3.552c0,1.9,1.576,1.995,3.1,1.444l.247,2.014c-3.154.874-5.946.36-5.946-3.4v-3.61l-1.729-.171V1026.9h1.918l.285-2.849h2.128Z" transform="translate(194.857 231.728)"/>
    <path id="Trazado_192818" data-name="Trazado 192818" d="M93.859,1033.092c0,.778-.038,1.2.874,1.139v1.71c-1.235.266-3.02.36-3.02-1.52a3.131,3.131,0,0,1-2.907,1.767c-2.831-.057-4.141-2.242-4.141-4.845.094-3.1,2.2-4.73,5.3-4.672a10.445,10.445,0,0,1,3.894.854Zm-2.584-4.028a4.073,4.073,0,0,0-1.519-.266c-1.444,0-2.374.8-2.432,2.545,0,1.445.684,2.508,2.052,2.489,1.272,0,1.842-1.007,1.9-2.394Z" transform="translate(194.857 231.728)"/>
    <path id="Trazado_192819" data-name="Trazado 192819" d="M105.3,1022.054v11.038c0,.778-.039,1.2.873,1.139v1.71c-1.235.266-3.021.36-3.021-1.52a3.13,3.13,0,0,1-2.906,1.767c-2.831-.057-4.142-2.242-4.142-4.845-.056-2.488,1.33-4.787,4.009-4.787a2.745,2.745,0,0,1,2.717,1.406v-5.908Zm-4.484,11.778c1.291,0,1.938-1.064,1.938-2.507,0-1.425-.684-2.566-1.976-2.566-1.387,0-2.014,1.122-2.014,2.584C98.762,1032.788,99.446,1033.851,100.814,1033.832Z" transform="translate(194.857 231.728)"/>
    <path id="Trazado_192820" data-name="Trazado 192820" d="M116.735,1033.092c0,.778-.038,1.2.874,1.139v1.71c-1.235.266-3.02.36-3.02-1.52a3.131,3.131,0,0,1-2.907,1.767c-2.831-.057-4.141-2.242-4.141-4.845.094-3.1,2.2-4.73,5.3-4.672a10.445,10.445,0,0,1,3.9.854Zm-2.584-4.028a4.073,4.073,0,0,0-1.519-.266c-1.444,0-2.375.8-2.432,2.545,0,1.445.684,2.508,2.052,2.489,1.273,0,1.842-1.007,1.9-2.394Z" transform="translate(194.857 231.728)"/>
    <path id="Trazado_192821" data-name="Trazado 192821" d="M121.581,1033.243c.019.761.741,1.1,1.5,1.083.779,0,1.557-.228,1.577-1.045,0-.74-.665-.816-1.312-.911-1.842-.247-4.236-.494-4.236-2.717,0-2.052,1.691-3.02,3.933-3.02,2.184,0,4.065.987,3.97,2.924h-2.507c-.019-.664-.666-.93-1.425-.93s-1.406.341-1.406.95c0,.683.722.779,1.311.836,2.052.247,4.388.418,4.331,2.868-.057,2.185-2.052,3-4.122,3s-4.18-.608-4.274-3.04Z" transform="translate(194.857 231.728)"/>
    <path id="Trazado_192822" data-name="Trazado 192822" d="M225.51,1070.506c.057,1.215,1.387,1.728,2.679,1.728,1.178,0,2.545-.284,2.545-1.671,0-1.52-1.634-1.653-2.906-1.748-2.412-.209-4.844-1.026-4.844-3.78,0-2.945,2.412-4.18,5.053-4.18,2.488,0,5.072,1.045,5.072,4.028H230.45c-.152-1.083-1.274-1.54-2.413-1.54s-2.261.609-2.261,1.634c0,1.178,1.159,1.445,2.546,1.6,2.811.247,5.225.874,5.225,3.99,0,3.134-2.717,4.1-5.339,4.16-2.659,0-5.414-1.31-5.414-4.217Z" transform="translate(194.857 231.728)"/>
    <path id="Trazado_192823" data-name="Trazado 192823" d="M239.836,1074.647a4.816,4.816,0,1,1,4.863-4.825A4.644,4.644,0,0,1,239.836,1074.647Zm.018-2.337a2.494,2.494,0,1,0-2.222-2.488A2.25,2.25,0,0,0,239.854,1072.31Z" transform="translate(194.857 231.728)"/>
    <path id="Trazado_192824" data-name="Trazado 192824" d="M252.945,1068.587a1.938,1.938,0,0,0-1.881-1.253,2.511,2.511,0,0,0,.02,5.014,2.019,2.019,0,0,0,1.9-1.424h2.527a4.4,4.4,0,0,1-4.446,3.705,4.819,4.819,0,1,1,0-9.632,4.35,4.35,0,0,1,4.408,3.59Z" transform="translate(194.857 231.728)"/>
    <path id="Trazado_192825" data-name="Trazado 192825" d="M260.242,1062.641a1.558,1.558,0,0,1-3.116,0A1.558,1.558,0,0,1,260.242,1062.641Zm-.229,11.8h-2.659V1065.4h2.659Z" transform="translate(194.857 231.728)"/>
    <path id="Trazado_192826" data-name="Trazado 192826" d="M270.6,1073.868a7.005,7.005,0,0,1-3.266.761c-3.211.094-5.358-1.463-5.358-4.807a4.564,4.564,0,0,1,4.655-4.787c2.07-.058,4.312.778,4.255,3.153-.1,1.881-1.767,2.755-3.439,2.812a5.593,5.593,0,0,1-2.944-.589c.056,1.577,1.33,2.166,3,2.108a7.826,7.826,0,0,0,3-.7Zm-3.684-4.673c.76-.019,1.387-.323,1.4-1.007,0-.836-.931-1.1-1.652-1.1a2.023,2.023,0,0,0-2.014,1.633A4.552,4.552,0,0,0,266.911,1069.195Z" transform="translate(194.857 231.728)"/>
    <path id="Trazado_192827" data-name="Trazado 192827" d="M281.521,1060.457v11.037c0,.778-.038,1.2.873,1.14v1.709c-1.234.266-3.02.361-3.02-1.52a3.131,3.131,0,0,1-2.907,1.768c-2.831-.058-4.141-2.243-4.141-4.845-.057-2.488,1.33-4.787,4.009-4.787a2.742,2.742,0,0,1,2.716,1.405v-5.907Zm-4.483,11.777c1.291,0,1.937-1.063,1.937-2.507,0-1.425-.684-2.565-1.975-2.565-1.387,0-2.014,1.121-2.014,2.584C274.986,1071.19,275.67,1072.254,277.038,1072.234Z" transform="translate(194.857 231.728)"/>
    <path id="Trazado_192828" data-name="Trazado 192828" d="M292.959,1071.494c0,.778-.038,1.2.874,1.14v1.709c-1.236.266-3.021.361-3.021-1.52a3.129,3.129,0,0,1-2.906,1.768c-2.831-.058-4.142-2.243-4.142-4.845.1-3.1,2.2-4.731,5.3-4.673a10.489,10.489,0,0,1,3.9.854Zm-2.584-4.027a4.08,4.08,0,0,0-1.52-.267c-1.443,0-2.374.8-2.431,2.546,0,1.444.684,2.508,2.051,2.488,1.273,0,1.843-1.007,1.9-2.393Z" transform="translate(194.857 231.728)"/>
    <path id="Trazado_192829" data-name="Trazado 192829" d="M304.4,1060.457v11.037c0,.778-.038,1.2.873,1.14v1.709c-1.234.266-3.02.361-3.02-1.52a3.131,3.131,0,0,1-2.907,1.768c-2.831-.058-4.141-2.243-4.141-4.845-.057-2.488,1.33-4.787,4.009-4.787a2.742,2.742,0,0,1,2.716,1.405v-5.907Zm-4.483,11.777c1.291,0,1.937-1.063,1.937-2.507,0-1.425-.683-2.565-1.975-2.565-1.387,0-2.014,1.121-2.014,2.584C297.862,1071.19,298.546,1072.254,299.914,1072.234Z" transform="translate(194.857 231.728)"/>
    <path id="Trazado_192830" data-name="Trazado 192830" d="M227.228,1083.974c2.679,0,5.529,1.444,6.137,4.73H230.61a3.314,3.314,0,0,0-3.382-2.165c-2.355,0-3.932,1.71-3.932,4.236a3.938,3.938,0,0,0,3.914,4.18,3.31,3.31,0,0,0,3.457-2.395H233.4c-.57,3.515-3.4,4.978-6.175,4.978a6.782,6.782,0,1,1,0-13.564Z" transform="translate(194.857 231.728)"/>
    <path id="Trazado_192831" data-name="Trazado 192831" d="M239.617,1097.614a4.816,4.816,0,1,1,4.863-4.825A4.644,4.644,0,0,1,239.617,1097.614Zm.018-2.337a2.494,2.494,0,1,0-2.222-2.488A2.25,2.25,0,0,0,239.635,1095.277Z" transform="translate(194.857 231.728)"/>
    <path id="Trazado_192832" data-name="Trazado 192832" d="M248.945,1083.5v10.429c0,1.407.551,1.691,1.824,1.482l.1,1.995c-2.831.513-4.54-.19-4.54-3.477V1083.5Z" transform="translate(194.857 231.728)"/>
    <path id="Trazado_192833" data-name="Trazado 192833" d="M260.363,1096.835a6.993,6.993,0,0,1-3.267.76c-3.211.095-5.357-1.462-5.357-4.806a4.562,4.562,0,0,1,4.654-4.787c2.071-.058,4.313.778,4.255,3.153-.1,1.881-1.766,2.755-3.438,2.812a5.6,5.6,0,0,1-2.945-.589c.057,1.577,1.33,2.166,3,2.108a7.831,7.831,0,0,0,3-.7Zm-3.685-4.673c.76-.02,1.387-.323,1.406-1.007,0-.836-.931-1.1-1.653-1.1a2.025,2.025,0,0,0-2.013,1.634A4.57,4.57,0,0,0,256.678,1092.162Z" transform="translate(194.857 231.728)"/>
    <path id="Trazado_192834" data-name="Trazado 192834" d="M268.932,1091.553a1.936,1.936,0,0,0-1.881-1.252,2.511,2.511,0,0,0,.02,5.014,2.018,2.018,0,0,0,1.9-1.425H271.5a4.4,4.4,0,0,1-4.447,3.7,4.819,4.819,0,1,1,0-9.631,4.35,4.35,0,0,1,4.409,3.589Z" transform="translate(194.857 231.728)"/>
    <path id="Trazado_192835" data-name="Trazado 192835" d="M276.818,1088.267H279.8v1.995h-2.982v3.552c0,1.9,1.576,1.995,3.1,1.445l.247,2.013c-3.155.874-5.947.361-5.947-3.4v-3.61l-1.728-.17v-1.825H274.4l.285-2.849h2.128Z" transform="translate(194.857 231.728)"/>
    <path id="Trazado_192836" data-name="Trazado 192836" d="M284.779,1085.608a1.558,1.558,0,0,1-3.116,0A1.558,1.558,0,0,1,284.779,1085.608Zm-.229,11.8h-2.659v-9.043h2.659Z" transform="translate(194.857 231.728)"/>
    <path id="Trazado_192837" data-name="Trazado 192837" d="M292.664,1088.249h2.621c1.292,3.78,1.8,9.251-3.61,9.251-2.622,0-4.5-1.367-4.5-4.046V1091.1c0-.893-.02-1.463-.989-1.406v-1.5c1.8-.4,3.667-.227,3.667,2.071v3.192a1.777,1.777,0,0,0,1.823,1.975C294.544,1095.429,293.347,1089.939,292.664,1088.249Z" transform="translate(194.857 231.728)"/>
    <path id="Trazado_192838" data-name="Trazado 192838" d="M306.875,1094.461c0,.778-.038,1.2.874,1.139v1.71c-1.236.266-3.021.361-3.021-1.52a3.13,3.13,0,0,1-2.906,1.767c-2.831-.057-4.142-2.242-4.142-4.844.1-3.1,2.2-4.731,5.3-4.673a10.464,10.464,0,0,1,3.895.854Zm-2.584-4.028a4.078,4.078,0,0,0-1.52-.266c-1.443,0-2.374.8-2.431,2.546,0,1.444.684,2.507,2.051,2.488,1.273,0,1.843-1.007,1.9-2.394Z" transform="translate(194.857 231.728)"/>
    <path id="Trazado_192839" data-name="Trazado 192839" d="M220.158,961.615c.057,1.217,1.387,1.728,2.679,1.728,1.177,0,2.545-.283,2.545-1.669,0-1.522-1.634-1.655-2.907-1.748-2.412-.209-4.843-1.028-4.843-3.782,0-2.945,2.412-4.179,5.052-4.179,2.489,0,5.073,1.044,5.073,4.027H225.1c-.152-1.082-1.273-1.539-2.413-1.539s-2.26.609-2.26,1.635c0,1.177,1.159,1.443,2.545,1.595,2.812.246,5.225.873,5.225,3.991s-2.717,4.1-5.339,4.16c-2.659,0-5.414-1.311-5.414-4.219Z" transform="translate(194.857 231.728)" fill="#fff"/>
    <path id="Trazado_192840" data-name="Trazado 192840" d="M234.483,965.758a4.817,4.817,0,1,1,4.863-4.827A4.645,4.645,0,0,1,234.483,965.758Zm.019-2.338a2.493,2.493,0,1,0-2.223-2.489A2.251,2.251,0,0,0,234.5,963.42Z" transform="translate(194.857 231.728)" fill="#fff"/>
    <path id="Trazado_192841" data-name="Trazado 192841" d="M247.592,959.7a1.936,1.936,0,0,0-1.88-1.254,2.512,2.512,0,0,0,.019,5.016,2.022,2.022,0,0,0,1.9-1.426h2.527a4.4,4.4,0,0,1-4.446,3.7,4.819,4.819,0,1,1,0-9.631,4.35,4.35,0,0,1,4.408,3.59Z" transform="translate(194.857 231.728)" fill="#fff"/>
    <path id="Trazado_192842" data-name="Trazado 192842" d="M254.889,953.752a1.558,1.558,0,0,1-3.116,0A1.558,1.558,0,0,1,254.889,953.752Zm-.228,11.8H252v-9.043h2.659Z" transform="translate(194.857 231.728)" fill="#fff"/>
    <path id="Trazado_192843" data-name="Trazado 192843" d="M265.243,964.978a7.008,7.008,0,0,1-3.267.76c-3.211.1-5.357-1.463-5.357-4.807a4.563,4.563,0,0,1,4.654-4.787c2.07-.056,4.313.78,4.255,3.155-.1,1.88-1.767,2.753-3.438,2.81a5.6,5.6,0,0,1-2.945-.588c.057,1.576,1.33,2.166,3,2.108a7.816,7.816,0,0,0,3-.7Zm-3.685-4.674c.76-.019,1.387-.322,1.406-1.005,0-.836-.931-1.1-1.653-1.1a2.023,2.023,0,0,0-2.013,1.633A4.558,4.558,0,0,0,261.558,960.3Z" transform="translate(194.857 231.728)" fill="#fff"/>
    <path id="Trazado_192844" data-name="Trazado 192844" d="M276.169,951.566V962.6c0,.78-.038,1.2.873,1.141v1.709c-1.235.265-3.021.361-3.021-1.52a3.129,3.129,0,0,1-2.906,1.768c-2.831-.059-4.142-2.242-4.142-4.846-.056-2.488,1.33-4.787,4.009-4.787a2.744,2.744,0,0,1,2.717,1.406v-5.908Zm-4.484,11.777c1.291,0,1.938-1.062,1.938-2.505,0-1.426-.685-2.567-1.976-2.567-1.387,0-2.014,1.121-2.014,2.584C269.633,962.3,270.317,963.363,271.685,963.343Z" transform="translate(194.857 231.728)" fill="#fff"/>
    <path id="Trazado_192845" data-name="Trazado 192845" d="M287.606,962.6c0,.78-.038,1.2.874,1.141v1.709c-1.235.265-3.02.361-3.02-1.52a3.131,3.131,0,0,1-2.907,1.768c-2.831-.059-4.141-2.242-4.141-4.846.1-3.1,2.2-4.73,5.3-4.672a10.467,10.467,0,0,1,3.894.854Zm-2.584-4.027a4.073,4.073,0,0,0-1.519-.266c-1.444,0-2.374.8-2.432,2.545,0,1.446.685,2.508,2.052,2.488,1.272,0,1.842-1.005,1.9-2.392Z" transform="translate(194.857 231.728)" fill="#fff"/>
    <path id="Trazado_192846" data-name="Trazado 192846" d="M299.045,951.566V962.6c0,.78-.038,1.2.873,1.141v1.709c-1.235.265-3.021.361-3.021-1.52a3.129,3.129,0,0,1-2.906,1.768c-2.831-.059-4.142-2.242-4.142-4.846-.056-2.488,1.33-4.787,4.009-4.787a2.744,2.744,0,0,1,2.717,1.406v-5.908Zm-4.484,11.777c1.291,0,1.938-1.062,1.938-2.505,0-1.426-.684-2.567-1.976-2.567-1.387,0-2.014,1.121-2.014,2.584C292.509,962.3,293.193,963.363,294.561,963.343Z" transform="translate(194.857 231.728)" fill="#fff"/>
    <path id="Trazado_192847" data-name="Trazado 192847" d="M309.912,964.978a7.008,7.008,0,0,1-3.267.76c-3.211.1-5.357-1.463-5.357-4.807a4.563,4.563,0,0,1,4.654-4.787c2.07-.056,4.313.78,4.255,3.155-.1,1.88-1.767,2.753-3.439,2.81a5.6,5.6,0,0,1-2.944-.588c.057,1.576,1.33,2.166,3,2.108a7.816,7.816,0,0,0,3-.7Zm-3.685-4.674c.76-.019,1.387-.322,1.4-1.005,0-.836-.93-1.1-1.652-1.1a2.025,2.025,0,0,0-2.014,1.633A4.565,4.565,0,0,0,306.227,960.3Z" transform="translate(194.857 231.728)" fill="#fff"/>
    <path id="Trazado_192848" data-name="Trazado 192848" d="M314.245,962.756c.019.759.741,1.1,1.5,1.082.779,0,1.557-.227,1.577-1.045,0-.741-.665-.817-1.312-.91-1.842-.249-4.236-.495-4.236-2.717,0-2.053,1.691-3.022,3.933-3.022,2.184,0,4.065.989,3.97,2.926h-2.507c-.019-.664-.665-.932-1.425-.932s-1.406.342-1.406.952c0,.683.722.779,1.311.836,2.052.246,4.389.417,4.331,2.867-.057,2.185-2.052,3-4.122,3s-4.18-.608-4.274-3.039Z" transform="translate(194.857 231.728)" fill="#fff"/>
    <path id="Trazado_192849" data-name="Trazado 192849" d="M335.2,951.566V962.6c0,.78-.038,1.2.873,1.141v1.709c-1.234.265-3.021.361-3.021-1.52a3.128,3.128,0,0,1-2.906,1.768c-2.831-.059-4.141-2.242-4.141-4.846-.057-2.488,1.33-4.787,4.008-4.787a2.742,2.742,0,0,1,2.717,1.406v-5.908Zm-4.484,11.777c1.291,0,1.938-1.062,1.938-2.505,0-1.426-.684-2.567-1.976-2.567-1.386,0-2.013,1.121-2.013,2.584C328.666,962.3,329.349,963.363,330.717,963.343Z" transform="translate(194.857 231.728)" fill="#fff"/>
    <path id="Trazado_192850" data-name="Trazado 192850" d="M346.068,964.978a7.005,7.005,0,0,1-3.267.76c-3.211.1-5.357-1.463-5.357-4.807a4.563,4.563,0,0,1,4.654-4.787c2.071-.056,4.313.78,4.255,3.155-.1,1.88-1.766,2.753-3.438,2.81a5.6,5.6,0,0,1-2.945-.588c.057,1.576,1.33,2.166,3,2.108a7.816,7.816,0,0,0,3-.7Zm-3.685-4.674c.76-.019,1.387-.322,1.406-1.005,0-.836-.931-1.1-1.653-1.1a2.023,2.023,0,0,0-2.013,1.633A4.563,4.563,0,0,0,342.383,960.3Z" transform="translate(194.857 231.728)" fill="#fff"/>
    <path id="Trazado_192851" data-name="Trazado 192851" d="M218.875,977.705h-5.282v2.7h4.94v2.488h-4.94v3.039h5.434v2.584h-8.3v-13.3h8.15Z" transform="translate(194.857 231.728)" fill="#fff"/>
    <path id="Trazado_192852" data-name="Trazado 192852" d="M227.424,982.664a1.936,1.936,0,0,0-1.88-1.254,2.512,2.512,0,0,0,.019,5.016,2.024,2.024,0,0,0,1.9-1.426h2.527a4.4,4.4,0,0,1-4.446,3.705,4.819,4.819,0,1,1,0-9.631,4.349,4.349,0,0,1,4.408,3.59Z" transform="translate(194.857 231.728)" fill="#fff"/>
    <path id="Trazado_192853" data-name="Trazado 192853" d="M236.108,988.724a4.816,4.816,0,1,1,4.863-4.826A4.645,4.645,0,0,1,236.108,988.724Zm.019-2.338A2.493,2.493,0,1,0,233.9,983.9,2.25,2.25,0,0,0,236.127,986.386Z" transform="translate(194.857 231.728)" fill="#fff"/>
    <path id="Trazado_192854" data-name="Trazado 192854" d="M242.227,979.32c1.349-.246,3.495-.379,3.495,1.387a3.1,3.1,0,0,1,2.888-1.557c2.583,0,3.666,1.766,3.609,4.045v2.488c0,.856.038,1.274.969,1.217v1.559c-1.805.455-3.609.226-3.609-2.053V983.2a1.737,1.737,0,0,0-1.767-1.937,1.863,1.863,0,0,0-1.919,1.994v5.263h-2.659v-6.326c0-1.008.019-1.369-1.007-1.31Z" transform="translate(194.857 231.728)" fill="#fff"/>
    <path id="Trazado_192855" data-name="Trazado 192855" d="M259.193,988.724a4.816,4.816,0,1,1,4.863-4.826A4.644,4.644,0,0,1,259.193,988.724Zm.019-2.338a2.493,2.493,0,1,0-2.223-2.488A2.25,2.25,0,0,0,259.212,986.386Z" transform="translate(194.857 231.728)" fill="#fff"/>
    <path id="Trazado_192856" data-name="Trazado 192856" d="M265.312,979.32c1.329-.361,3.571-.418,3.571,1.463a2.869,2.869,0,0,1,2.85-1.633,2.606,2.606,0,0,1,2.812,1.709,3.32,3.32,0,0,1,3.134-1.709c2.583,0,3.172,1.785,3.116,4.045V985.7c0,.836.094,1.254,1.063,1.2v1.539c-1.976.512-3.724.209-3.724-2.129V983.2c.058-1.215-.569-1.937-1.481-1.937a1.77,1.77,0,0,0-1.69,1.957v5.3h-2.584v-5.3c0-1.235-.646-1.957-1.615-1.957A1.812,1.812,0,0,0,269,983.271v5.244h-2.659v-6.306c0-.989-.077-1.407-1.026-1.35Z" transform="translate(194.857 231.728)" fill="#fff"/>
    <path id="Trazado_192857" data-name="Trazado 192857" d="M283.532,977.82v-.228l1.368-2.85,2.317.855v.227l-1.615,2Zm2.717,10.7h-2.641v-9.156h2.641Z" transform="translate(194.857 231.728)" fill="#fff"/>
    <path id="Trazado_192858" data-name="Trazado 192858" d="M297.4,985.57c0,.779-.038,1.2.874,1.141v1.709c-1.235.265-3.02.361-3.02-1.52a3.131,3.131,0,0,1-2.907,1.768c-2.831-.059-4.141-2.242-4.141-4.846.094-3.1,2.2-4.73,5.3-4.672A10.466,10.466,0,0,1,297.4,980Zm-2.584-4.027a4.072,4.072,0,0,0-1.519-.266c-1.444,0-2.374.8-2.432,2.545,0,1.445.684,2.508,2.052,2.488,1.272,0,1.842-1.006,1.9-2.392Z" transform="translate(194.857 231.728)" fill="#fff"/>
    <path id="Trazado_192859" data-name="Trazado 192859" d="M316.837,975.179h1.026v13.336h-2.85v-7.2l-3.343,4.18h-.362l-3.343-4.18v7.2h-2.849V975.179h1.045l5.338,6.327Z" transform="translate(194.857 231.728)" fill="#fff"/>
    <path id="Trazado_192860" data-name="Trazado 192860" d="M323.546,976.718a1.559,1.559,0,0,1-3.117,0A1.559,1.559,0,0,1,323.546,976.718Zm-.229,11.8h-2.659v-9.043h2.659Z" transform="translate(194.857 231.728)" fill="#fff"/>
    <path id="Trazado_192861" data-name="Trazado 192861" d="M329.568,985.285l-1.083,1.824-.987,1.406h-2.66v-.3l3.172-4.559-2.716-4.01v-.283h2.546l.816,1.2.874,1.539h.058l.854-1.556.8-1.178h2.717v.3l-2.812,4.084,3.1,4.465v.3h-2.566l-1.025-1.482-1.025-1.748Z" transform="translate(194.857 231.728)" fill="#fff"/>
    <path id="Trazado_192862" data-name="Trazado 192862" d="M339.3,979.377h2.982v2H339.3v3.551c0,1.9,1.576,2,3.1,1.445l.247,2.014c-3.154.873-5.946.359-5.946-3.4v-3.609l-1.728-.172v-1.824h1.917l.286-2.85H339.3Z" transform="translate(194.857 231.728)" fill="#fff"/>
    <path id="Trazado_192863" data-name="Trazado 192863" d="M353.012,985.57c0,.779-.038,1.2.874,1.141v1.709c-1.235.265-3.02.361-3.02-1.52a3.13,3.13,0,0,1-2.906,1.768c-2.831-.059-4.142-2.242-4.142-4.846.1-3.1,2.2-4.73,5.3-4.672a10.462,10.462,0,0,1,3.894.854Zm-2.584-4.027a4.068,4.068,0,0,0-1.519-.266c-1.444,0-2.374.8-2.432,2.545,0,1.445.685,2.508,2.052,2.488,1.272,0,1.843-1.006,1.9-2.392Z" transform="translate(194.857 231.728)" fill="#fff"/>
    <path id="Trazado_199647" data-name="Trazado 199647" d="M8.7,0A8.7,8.7,0,1,1,0,8.7,8.7,8.7,0,0,1,8.7,0Z" transform="translate(194.657 1000.118)" fill="#fdb74d" opacity="0.5"/>
    <g id="Elipse_4972-2" data-name="Elipse 4972" transform="translate(194.857 231.728)">
      <circle id="Elipse_5917" data-name="Elipse 5917" cx="8.032" cy="8.032" r="8.032" transform="translate(0.465 769.056)" fill="none"/>
      <circle id="Elipse_5918" data-name="Elipse 5918" cx="7.604" cy="7.604" r="7.604" transform="translate(0.894 769.485)" fill="none" stroke="#fff" stroke-linecap="round" stroke-width="0.857" stroke-dasharray="0.643 1.714"/>
    </g>
    <path id="Trazado_199642" data-name="Trazado 199642" d="M8.7,0A8.7,8.7,0,1,1,0,8.7,8.7,8.7,0,0,1,8.7,0Z" transform="translate(238.395 1082.544)" fill="#fdb74d" opacity="0.5"/>
    <g id="Elipse_4972-3" data-name="Elipse 4972" transform="translate(194.857 231.728)">
      <circle id="Elipse_5920" data-name="Elipse 5920" cx="8.032" cy="8.032" r="8.032" transform="translate(44.204 851.482)" fill="none"/>
      <circle id="Elipse_5921" data-name="Elipse 5921" cx="7.604" cy="7.604" r="7.604" transform="translate(44.632 851.911)" fill="none" stroke="#fff" stroke-linecap="round" stroke-width="0.857" stroke-dasharray="0.643 1.714"/>
    </g>
    <path id="Trazado_199645" data-name="Trazado 199645" d="M8.7,0A8.7,8.7,0,1,1,0,8.7,8.7,8.7,0,0,1,8.7,0Z" transform="translate(214.717 1328.992)" fill="#fdb74d" opacity="0.5"/>
    <g id="Elipse_4972-4" data-name="Elipse 4972" transform="translate(194.857 231.728)">
      <circle id="Elipse_5923" data-name="Elipse 5923" cx="8.032" cy="8.032" r="8.032" transform="translate(20.526 1097.931)" fill="none"/>
      <circle id="Elipse_5924" data-name="Elipse 5924" cx="7.604" cy="7.604" r="7.604" transform="translate(20.954 1098.359)" fill="none" stroke="#fff" stroke-linecap="round" stroke-width="0.857" stroke-dasharray="0.643 1.714"/>
    </g>
    <path id="Trazado_199646" data-name="Trazado 199646" d="M8.7,0A8.7,8.7,0,1,1,0,8.7,8.7,8.7,0,0,1,8.7,0Z" transform="translate(206.019 1205.219)" fill="#fdb74d" opacity="0.5"/>
    <g id="Elipse_4972-5" data-name="Elipse 4972" transform="translate(194.857 231.728)">
      <circle id="Elipse_5926" data-name="Elipse 5926" cx="8.032" cy="8.032" r="8.032" transform="translate(11.828 974.157)" fill="none"/>
      <circle id="Elipse_5927" data-name="Elipse 5927" cx="7.604" cy="7.604" r="7.604" transform="translate(12.256 974.586)" fill="none" stroke="#fff" stroke-linecap="round" stroke-width="0.857" stroke-dasharray="0.643 1.714"/>
    </g>
    <path id="Trazado_199643" data-name="Trazado 199643" d="M8.7,0A8.7,8.7,0,1,1,0,8.7,8.7,8.7,0,0,1,8.7,0Z" transform="translate(404.817 1016.42)" fill="#fdb74d" opacity="0.5"/>
    <g id="Elipse_4972-6" data-name="Elipse 4972" transform="translate(194.857 231.728)">
      <circle id="Elipse_5929" data-name="Elipse 5929" cx="8.032" cy="8.032" r="8.032" transform="translate(210.626 785.358)" fill="none"/>
      <circle id="Elipse_5930" data-name="Elipse 5930" cx="7.604" cy="7.604" r="7.604" transform="translate(211.055 785.787)" fill="none" stroke="#fff" stroke-linecap="round" stroke-width="0.857" stroke-dasharray="0.643 1.714"/>
    </g>
    <path id="Trazado_199641" data-name="Trazado 199641" d="M8.7,0A8.7,8.7,0,1,1,0,8.7,8.7,8.7,0,0,1,8.7,0Z" transform="translate(526.298 1159.588)" fill="#fdb74d" opacity="0.5"/>
    <g id="Elipse_4972-7" data-name="Elipse 4972" transform="translate(194.857 231.728)">
      <circle id="Elipse_5932" data-name="Elipse 5932" cx="8.032" cy="8.032" r="8.032" transform="translate(332.106 928.526)" fill="none"/>
      <circle id="Elipse_5933" data-name="Elipse 5933" cx="7.604" cy="7.604" r="7.604" transform="translate(332.535 928.954)" fill="none" stroke="#fff" stroke-linecap="round" stroke-width="0.857" stroke-dasharray="0.643 1.714"/>
    </g>
    <path id="Trazado_199639" data-name="Trazado 199639" d="M8.7,0A8.7,8.7,0,1,1,0,8.7,8.7,8.7,0,0,1,8.7,0Z" transform="translate(526.291 1383.803)" fill="#fdb74d" opacity="0.5"/>
    <g id="Elipse_4972-8" data-name="Elipse 4972" transform="translate(194.857 231.728)">
      <circle id="Elipse_5935" data-name="Elipse 5935" cx="8.032" cy="8.032" r="8.032" transform="translate(332.1 1152.74)" fill="none"/>
      <circle id="Elipse_5936" data-name="Elipse 5936" cx="7.604" cy="7.604" r="7.604" transform="translate(332.528 1153.169)" fill="none" stroke="#fff" stroke-linecap="round" stroke-width="0.857" stroke-dasharray="0.643 1.714"/>
    </g>
    <path id="Trazado_199640" data-name="Trazado 199640" d="M8.7,0A8.7,8.7,0,1,1,0,8.7,8.7,8.7,0,0,1,8.7,0Z" transform="translate(521.918 1275.916)" fill="#fdb74d" opacity="0.5"/>
    <g id="Elipse_4972-9" data-name="Elipse 4972" transform="translate(194.857 231.728)">
      <circle id="Elipse_5938" data-name="Elipse 5938" cx="8.032" cy="8.032" r="8.032" transform="translate(327.727 1044.854)" fill="none"/>
      <circle id="Elipse_5939" data-name="Elipse 5939" cx="7.604" cy="7.604" r="7.604" transform="translate(328.155 1045.283)" fill="none" stroke="#fff" stroke-linecap="round" stroke-width="0.857" stroke-dasharray="0.643 1.714"/>
    </g>
    <path id="Trazado_192864" data-name="Trazado 192864" d="M197.4,710.606s-10.716,16.258,3.34,31.968,31.29,29.591,21.626,42.784" transform="translate(194.857 231.728)" fill="none" stroke="#fdb74d" stroke-linecap="round" stroke-miterlimit="10" stroke-width="1" stroke-dasharray="5"/>
    <path id="Trazado_192865" data-name="Trazado 192865" d="M332.535,709.075s6.123,28.7,25.935,61.585,29.635,90.981-12.968,159.06" transform="translate(194.857 231.728)" fill="none" stroke="#fdb74d" stroke-linecap="round" stroke-miterlimit="10" stroke-width="1" stroke-dasharray="5"/>
  </g>
</svg>
