<svg id="Grupo_135175" data-name="Grupo 135175" xmlns="http://www.w3.org/2000/svg" width="400" height="335" viewBox="0 0 400 335">
  <path id="Trazado_188103" data-name="Trazado 188103" d="M338.664,50.928a129.209,129.209,0,0,1,19.467,22.384c41.06,57.582,25.9,120.822,20.815,140.358-8.218,31.519-14.189,58.164-39.43,80.222-57.346,50.122-172.293,42.789-241.9-.226C89.36,288.566,21.976,245.705,14.9,181.4c-.172-1.573-.258-2.745-.344-3.771-.807-9.935-4.7-71.461,46.123-119.38,10.6-10.181,24.052-19.505,39.974-27.713C172.457-5.559,281.158-1.164,338.664,50.928Z" fill="#e5e1f1"/>
  <path id="Trazado_139920" data-name="Trazado 139920" d="M32.751,21.952a5.447,5.447,0,0,0-.583-.095c-2.752-.294-4.65,1.773-4.235,4.614a6.923,6.923,0,0,0,5.74,5.678,129.5,129.5,0,0,1,28.879,6.76A153.613,153.613,0,0,1,90.7,52.194l1.7,1.013,1.673,1.066c1.119.7,2.218,1.442,3.314,2.184q3.3,2.211,6.461,4.626c1.061.791,2.086,1.636,3.128,2.448,1.031.831,2.04,1.688,3.058,2.526.989.881,2,1.727,2.962,2.636s1.941,1.784,2.868,2.714,1.873,1.833,2.768,2.784c.45.474.907.938,1.345,1.418l1.3,1.444c.886.948,1.685,1.954,2.528,2.923.806.993,1.61,1.984,2.381,2.987.752,1.015,1.532,2.01,2.228,3.04.351.513.719,1.017,1.062,1.533l1,1.543c.166.261.338.51.5.776l.477.807.948,1.608c.593,1.1,1.209,2.17,1.766,3.273a120.042,120.042,0,0,1,9.918,27.526c2.28,9.512,3.787,19.264,5.335,29.392.78,5.067,1.54,10.226,2.442,15.53.436,2.646.942,5.339,1.465,8.055.281,1.369.544,2.731.848,4.118l.887,4.042c2.288,10.344,4.79,21.017,8.056,32.022a232.383,232.383,0,0,0,12.892,34.106,164.631,164.631,0,0,0,9.844,17.773,142.474,142.474,0,0,0,13.253,17.62c2.527,2.856,5.22,5.647,8.053,8.333,1.415,1.348,2.876,2.657,4.36,3.95.745.641,1.465,1.264,2.256,1.9s1.581,1.286,2.384,1.9a115.739,115.739,0,0,0,20.31,12.686c1.766.859,3.539,1.68,5.33,2.432.944.406,1.666.688,2.466,1.023l2.36.96c1.578.635,3.181,1.219,4.79,1.789s3.241,1.084,4.868,1.619a121.664,121.664,0,0,0,20.035,4.479,102.7,102.7,0,0,0,20.173.788,94.677,94.677,0,0,0,51.365-18.861,120.863,120.863,0,0,0,23.806-23.568,145.478,145.478,0,0,0,9.37-13.711c1.443-2.4,2.826-4.864,4.163-7.442.668-1.295,1.33-2.611,1.985-4.006.33-.7.655-1.408.988-2.178l.509-1.207.27-.685.155-.419.213-.631c5.953-21.089-7.683-47.707-30.45-59.446s-46.053-4.157-52.006,16.933l.091-.216c.026-.05.025-.019.025-.019l.013.016c.016.009.011.089.017.136a4.168,4.168,0,0,1-.02.432c-.019.319-.072.694-.122,1.067-.105.759-.242,1.571-.4,2.387-.328,1.643-.718,3.333-1.162,5.008a86.747,86.747,0,0,1-3.223,9.857,73.957,73.957,0,0,1-9.238,17.058,46.253,46.253,0,0,1-12.382,11.724,33.789,33.789,0,0,1-7.35,3.507,37.2,37.2,0,0,1-8.361,1.8,47.73,47.73,0,0,1-9.546.011c-.854-.11-1.705-.181-2.577-.3-.878-.148-1.753-.254-2.647-.423l-2.6-.5c-.681-.114-1.372-.272-2.057-.426a37.476,37.476,0,0,1-8.148-3.051c-.335-.164-.664-.344-.995-.521l-1.066-.613c-.713-.424-1.428-.862-2.136-1.337-1.42-.942-2.841-1.978-4.259-3.125a86.861,86.861,0,0,1-16.5-18.555q-1.967-2.84-3.816-5.882t-3.62-6.249c-2.356-4.265-4.6-8.718-6.76-13.3-4.318-9.166-8.244-18.82-12.141-28.791l-1.392-3.579c-.451-1.154-.878-2.334-1.322-3.511-.859-2.373-1.711-4.767-2.536-7.217-1.657-4.879-3.258-9.9-4.863-15.017-3.231-10.228-6.571-20.87-10.934-31.659A158.64,158.64,0,0,0,147.926,89.16c-.878-1.274-1.823-2.52-2.738-3.769-.967-1.233-1.888-2.451-2.894-3.68L140.8,79.878c-.506-.6-1.026-1.187-1.538-1.779-1.013-1.193-2.091-2.316-3.144-3.453a135.27,135.27,0,0,0-13.463-12.278A181.322,181.322,0,0,0,93.588,43.614,226.444,226.444,0,0,0,63.38,30.6a279.989,279.989,0,0,0-30.6-8.643Z" fill="#fdb74d"/>
  <circle id="Elipse_5940" data-name="Elipse 5940" cx="52.805" cy="52.805" r="52.805" transform="translate(185.388 107.01)" fill="#fdb74d" opacity="0.5"/>
  <g id="Grupo_135175-2" data-name="Grupo 135175">
    <circle id="Elipse_5247" data-name="Elipse 5247" cx="28.38" cy="28.38" r="28.38" transform="translate(321.793 13.642)" fill="#5038a1" opacity="0.7" style="isolation: isolate"/>
    <g id="Elipse_5249" data-name="Elipse 5249">
      <circle id="Elipse_5941" data-name="Elipse 5941" cx="10.694" cy="10.694" r="10.694" transform="translate(334.281 23.583)" fill="none"/>
      <circle id="Elipse_5942" data-name="Elipse 5942" cx="9.46" cy="9.46" r="9.46" transform="translate(335.515 24.817)" fill="none" stroke="#fff" stroke-width="2.468"/>
    </g>
    <g id="Elipse_5250" data-name="Elipse 5250">
      <circle id="Elipse_5943" data-name="Elipse 5943" cx="5.758" cy="5.758" r="5.758" transform="translate(279.659 79.879)" fill="#fdb74d"/>
      <circle id="Elipse_5944" data-name="Elipse 5944" cx="4.524" cy="4.524" r="4.524" transform="translate(280.893 81.113)" fill="#fdb74d" stroke="#8c6df2" stroke-width="2.468"/>
    </g>
    <circle id="Elipse_5251" data-name="Elipse 5251" cx="3.702" cy="3.702" r="3.702" transform="translate(326.05 68.984)" fill="#fdb74d"/>
  </g>
  <g id="Elipse_4972" data-name="Elipse 4972">
    <circle id="Elipse_5945" data-name="Elipse 5945" cx="48.764" cy="48.764" r="48.764" transform="translate(189.43 111.052)" fill="none"/>
    <circle id="Elipse_5946" data-name="Elipse 5946" cx="46.163" cy="46.163" r="46.163" transform="translate(192.03 113.653)" fill="none" stroke="#fff" stroke-linecap="round" stroke-width="5.201" stroke-dasharray="3.901 10.403"/>
  </g>
  <g id="Grupo_135197" data-name="Grupo 135197">
    <g id="Grupo_135196" data-name="Grupo 135196">
      <g id="Grupo_135183" data-name="Grupo 135183">
        <path id="Trazado_192866" data-name="Trazado 192866" d="M64.66,70.055,69.8,304.02H250.759L230.734,79.09Z" fill="#8c6df2"/>
        <path id="Trazado_192867" data-name="Trazado 192867" d="M64.66,70.055,69.8,304.02H250.759l-4.949-55.594L82.919,71.048Z" fill="#5038a1"/>
        <path id="Trazado_192868" data-name="Trazado 192868" d="M64.66,70.055c-9.794,1.739-18.2,5.137-24.492,11.065l-.862,222.9H69.8Z" fill="#8c6df2"/>
        <path id="Trazado_192869" data-name="Trazado 192869" d="M50.465,74.31a37.838,37.838,0,0,0-10.3,6.81l-.862,222.9H54.4Z" fill="#5038a1"/>
        <g id="Grupo_135179" data-name="Grupo 135179">
          <g id="Grupo_135176" data-name="Grupo 135176">
            <path id="Trazado_192870" data-name="Trazado 192870" d="M44.178,252.9,63.1,250.5l1.558,46.319H43.472Z" fill="#ffdd79"/>
            <path id="Trazado_192871" data-name="Trazado 192871" d="M53.5,251.716,44.178,252.9l-.706,43.918h10.8Z" fill="#ffc03a"/>
          </g>
          <g id="Grupo_135177" data-name="Grupo 135177">
            <path id="Trazado_192872" data-name="Trazado 192872" d="M47.874,256.7l11.851-1.962.976,37.846H47.431Z" fill="#9d85af"/>
            <path id="Trazado_192873" data-name="Trazado 192873" d="M53.57,255.754l-5.7.943-.442,35.885H54.2Z" fill="#887ba4"/>
          </g>
          <g id="Grupo_135178" data-name="Grupo 135178">
            <path id="Trazado_192874" data-name="Trazado 192874" d="M50.683,266.1l-.291,15.885,7.838-.565-.636-16.452Z" fill="#ffdd79"/>
            <path id="Trazado_192875" data-name="Trazado 192875" d="M54.014,281.729,53.738,265.6l-3.055.5-.292,15.885Z" fill="#ffc03a"/>
          </g>
        </g>
        <g id="Grupo_135182" data-name="Grupo 135182">
          <g id="Grupo_135180" data-name="Grupo 135180">
            <path id="Trazado_192876" data-name="Trazado 192876" d="M39.94,140.09q9.992-3.837,26.2-2.588l-.989-44.993c-9.668.727-18.094,3.2-25.06,7.734Z" fill="#ffdd79"/>
            <path id="Trazado_192877" data-name="Trazado 192877" d="M39.94,140.09a44.432,44.432,0,0,1,11.606-2.57L50.822,95.2a44.818,44.818,0,0,0-10.728,5.039Z" fill="#ffc03a"/>
          </g>
          <g id="Grupo_135181" data-name="Grupo 135181">
            <path id="Trazado_192878" data-name="Trazado 192878" d="M44.955,108.363V126.51A25.248,25.248,0,0,1,58.3,125.1v-20.83C53.24,103.327,48.791,105.539,44.955,108.363Z" fill="#9d85af"/>
            <path id="Trazado_192879" data-name="Trazado 192879" d="M50.989,104.972a24.711,24.711,0,0,0-6.034,3.391V126.51a21.441,21.441,0,0,1,6.376-1.582Z" fill="#887ba4"/>
          </g>
        </g>
      </g>
      <g id="Grupo_135184" data-name="Grupo 135184">
        <path id="Trazado_192880" data-name="Trazado 192880" d="M160.135,111.517a549.723,549.723,0,0,1-52.264,37.835s8.51,47.382,24.966,68.02,34.922,27.083,34.922,27.083,17.608-8.514,31.6-30.9,17.026-70.428,17.026-70.428A291.6,291.6,0,0,1,160.135,111.517Z" fill="#ffdd79"/>
        <path id="Trazado_192881" data-name="Trazado 192881" d="M107.871,149.352s8.51,47.382,24.966,68.02,34.922,27.083,34.922,27.083,17.608-8.514,31.6-30.9a62.121,62.121,0,0,0,4.413-8.657l-68.021-74.57Q122.286,140.123,107.871,149.352Z" fill="#ffc03a"/>
        <path id="Trazado_192882" data-name="Trazado 192882" d="M206.326,148.131a257.272,257.272,0,0,1-44.24-24.81l-1.394-.985-1.328,1.072A482.942,482.942,0,0,1,118.322,153.1l-1.295.837.309,1.51c1.9,9.341,9.038,40.969,20.863,55.8,11.041,13.846,23.187,20.214,27.9,22.308l1.063.473,1-.591c4.439-2.619,15.778-10.332,25.165-25.352,10.023-16.04,13.506-48.209,14.335-57.687l.141-1.608ZM189.5,205.686a73.373,73.373,0,0,1-22.629,23.247,73.383,73.383,0,0,1-25.137-20.508c-10.643-13.347-17.42-41.791-19.657-52.38,13.471-8.774,26.512-18.2,38.8-28.056A262.147,262.147,0,0,0,203.016,151.6C201.991,162.41,198.495,191.283,189.5,205.686Z" fill="#fff"/>
        <path id="Trazado_192883" data-name="Trazado 192883" d="M197.954,198.525l-3.414-3.743a56.629,56.629,0,0,1-5.044,10.9,73.373,73.373,0,0,1-22.629,23.247,73.383,73.383,0,0,1-25.137-20.508c-10.643-13.347-17.42-41.791-19.657-52.38q11.627-7.572,22.758-15.757l-3.062-3.357q-11.436,8.381-23.447,16.164l-1.295.837.309,1.51c1.9,9.341,9.038,40.969,20.863,55.8,11.041,13.846,23.187,20.214,27.9,22.308l1.063.473,1-.591c4.439-2.619,15.778-10.332,25.165-25.352A56.52,56.52,0,0,0,197.954,198.525Z" fill="#ffdd79"/>
      </g>
      <g id="Grupo_135192" data-name="Grupo 135192">
        <g id="Grupo_135188" data-name="Grupo 135188">
          <g id="Grupo_135185" data-name="Grupo 135185">
            <path id="Trazado_192884" data-name="Trazado 192884" d="M328.342,304.05l-1.216-7.241-4.043.04L316.868,250.5h4.916l-.72-7.343H101.8L81.036,261.231v27.4L94.4,304.02Z" fill="#5c347a"/>
            <path id="Trazado_192885" data-name="Trazado 192885" d="M327.671,300.056l-.545-3.246-4.043.041L316.868,250.5h4.916l-.235-2.4H103.278L84.637,263.773v22.136L99.253,301.9Z" fill="#483473"/>
          </g>
          <g id="Grupo_135187" data-name="Grupo 135187">
            <path id="Trazado_192886" data-name="Trazado 192886" d="M316.868,250.5l-212.955,1.218L89.226,265.6v18.5l11.58,14.969,222.277-2.227Z" fill="#eef3f8"/>
            <g id="Grupo_135186" data-name="Grupo 135186">
              <path id="Trazado_192887" data-name="Trazado 192887" d="M268.29,278.459l-60.441-.989-56.91,3.107v1.553l55.217-.731,62.135-.822Z" fill="#cddae9"/>
              <path id="Trazado_192888" data-name="Trazado 192888" d="M114.4,259.324V260.6l78.058,2.224v-1.748l-43.107-1.748Z" fill="#cddae9"/>
              <path id="Trazado_192889" data-name="Trazado 192889" d="M238.193,283.9l-63.531,1.515v2.51l63.531-2.51Z" fill="#cddae9"/>
              <path id="Trazado_192890" data-name="Trazado 192890" d="M246.683,266.738H202.152v4.28l44.532-2.14Z" fill="#cddae9"/>
              <path id="Trazado_192891" data-name="Trazado 192891" d="M110.8,289.3v2.065l17.9,2.065,47.237-1.589v-1.8l-43.142.494Z" fill="#cddae9"/>
              <path id="Trazado_192892" data-name="Trazado 192892" d="M242.393,290.251l-1.217-.953-13.345,1.783H209.614v1.783h24.36Z" fill="#cddae9"/>
              <path id="Trazado_192893" data-name="Trazado 192893" d="M319.288,268.547l-68.529,2.428v1.553l69.2,1.028Z" fill="#cddae9"/>
              <path id="Trazado_192894" data-name="Trazado 192894" d="M321.908,288.086,253.4,291.08v1.5l69.065-.322Z" fill="#cddae9"/>
              <path id="Trazado_192895" data-name="Trazado 192895" d="M281.964,280.3l.271,1.836H321.11l-.452-3.368Z" fill="#cddae9"/>
              <path id="Trazado_192896" data-name="Trazado 192896" d="M203.895,258.548v2.259l114.541,1.381-.766-5.71Z" fill="#cddae9"/>
              <path id="Trazado_192897" data-name="Trazado 192897" d="M184.195,274.267v-1.386L146,270.127l-40.6,4.025-.424,1.695,41.941-2.365Z" fill="#cddae9"/>
            </g>
          </g>
        </g>
        <g id="Grupo_135189" data-name="Grupo 135189">
          <path id="Trazado_192898" data-name="Trazado 192898" d="M122.835,273.361l17.616-1.257-6.741,10.874L129.332,301.9l-6.5-8.473-9.6,8.473,2.118-17.37Z" fill="#ff6e93"/>
          <path id="Trazado_192899" data-name="Trazado 192899" d="M133.71,282.978l-18.358,1.553-2.118,17.37,9.6-8.473,6.5,8.473Z" fill="#ff5480"/>
        </g>
        <g id="Grupo_135191" data-name="Grupo 135191">
          <path id="Trazado_192900" data-name="Trazado 192900" d="M220.687,251.048l75.987-.435L311.5,275.847,230.373,279.8Z" fill="#fff"/>
          <g id="Grupo_135190" data-name="Grupo 135190">
            <path id="Trazado_192901" data-name="Trazado 192901" d="M226,254.17l1.616,4.236,67.078-3.248-1.553-3.53Z" fill="#3b4986"/>
            <path id="Trazado_192902" data-name="Trazado 192902" d="M229.314,263.49l1.977,4.65,31.915-2.933-2.041-3.709Z" fill="#3b4986"/>
            <path id="Trazado_192903" data-name="Trazado 192903" d="M270.832,261.072l1.236,2.7,24.89-2.7-1.553-2.665Z" fill="#3b4986"/>
            <path id="Trazado_192904" data-name="Trazado 192904" d="M246.673,269.762l2.471,3.526,33.7-4.376-2.192-3.385Z" fill="#3b4986"/>
          </g>
          <path id="Trazado_192905" data-name="Trazado 192905" d="M230.373,279.8l67.572-13.627,15.816-9.694L311.5,275.847Z" fill="#bbcde1"/>
        </g>
      </g>
      <g id="Grupo_135195" data-name="Grupo 135195">
        <text id="NORMAS" transform="translate(153.209 99.871) rotate(2.186)" fill="#fff" font-size="14.873" font-family="Montserrat-ExtraBold, Montserrat" font-weight="800"><tspan x="-35.539" y="0">NORMAS</tspan></text>
        <g id="Grupo_135193" data-name="Grupo 135193">
          <rect id="Rectángulo_44809" data-name="Rectángulo 44809" width="0.542" height="111.011" transform="translate(100.725 82.932) rotate(-87.703)" fill="#ffc03a"/>
          <rect id="Rectángulo_44810" data-name="Rectángulo 44810" width="0.542" height="111.011" transform="translate(100.725 80.708) rotate(-87.703)" fill="#ffc03a"/>
        </g>
        <g id="Grupo_135194" data-name="Grupo 135194">
          <rect id="Rectángulo_44811" data-name="Rectángulo 44811" width="0.542" height="111.011" transform="translate(100.725 104.764) rotate(-87.703)" fill="#ffc03a"/>
          <rect id="Rectángulo_44812" data-name="Rectángulo 44812" width="0.542" height="111.011" transform="matrix(0.04, -0.999, 0.999, 0.04, 100.725, 102.54)" fill="#ffc03a"/>
        </g>
      </g>
    </g>
  </g>
  <rect id="Rectángulo_44813" data-name="Rectángulo 44813" width="400" height="335" fill="none"/>
</svg>
