<svg xmlns="http://www.w3.org/2000/svg" xmlns:xlink="http://www.w3.org/1999/xlink" width="190" height="189.124" viewBox="0 0 190 189.124">
  <defs>
    <linearGradient id="linear-gradient" x1="435.924" y1="-188.261" x2="432.007" y2="-184.731" gradientUnits="objectBoundingBox">
      <stop offset="0" stop-color="#19b3d8"/>
      <stop offset="1" stop-color="#73ba72"/>
    </linearGradient>
    <linearGradient id="linear-gradient-2" x1="185.968" y1="-261.958" x2="185.995" y2="-269.223" gradientUnits="objectBoundingBox">
      <stop offset="0" stop-color="#0bb4db"/>
      <stop offset="1" stop-color="#0089b7"/>
    </linearGradient>
  </defs>
  <g id="Grupo_135253" data-name="Grupo 135253" transform="translate(0 -0.511)">
    <path id="Trazado_193023" data-name="Trazado 193023" d="M180.125,81.828c-4.755-32.249-24.248-71.87-62.758-76.016,0,0-29.239-3.686-58.063,1.9a64.79,64.79,0,0,0-41.6,27.368A61.115,61.115,0,0,0,8.892,83.047c2.5,10.71,4.188,21.793,3.725,32.8-.585,13.878-1.685,28.471,4.235,41.413,8.675,18.962,29.84,24.548,48.308,26.329,6.806.657,13.637.922,20.449,1.48a119.4,119.4,0,0,0,40.316-4.188C190.109,162.912,184.879,114.077,180.125,81.828Z" fill="#e5e1f1"/>
    <path id="Trazado_139920" data-name="Trazado 139920" d="M36.741,160.752a1.7,1.7,0,0,1-.165-.1,1.226,1.226,0,0,1-.1-2.033,2.252,2.252,0,0,1,2.614-.231,42.078,42.078,0,0,0,8.628,4.3,50.041,50.041,0,0,0,9.8,2.511l.636.1.639.08c.426.056.854.1,1.282.141q1.284.131,2.576.182c.43.022.861.023,1.29.036s.861,0,1.289,0c.43-.015.858-.018,1.288-.045s.856-.044,1.28-.085.849-.07,1.27-.123c.211-.025.422-.046.631-.076l.625-.091c.418-.054.827-.14,1.239-.207s.814-.163,1.215-.254.8-.185,1.187-.3c.195-.056.391-.106.584-.163l.571-.179c.1-.031.19-.057.285-.091l.287-.1.57-.206c.376-.151.753-.292,1.121-.453a38.953,38.953,0,0,0,8.188-4.832c2.542-1.907,4.941-4.035,7.428-6.249,1.246-1.106,2.506-2.24,3.831-3.38.657-.572,1.342-1.141,2.036-1.712.354-.284.7-.571,1.066-.855l1.06-.827c2.717-2.114,5.556-4.267,8.654-6.343a75.566,75.566,0,0,1,10.3-5.863,53.344,53.344,0,0,1,6.148-2.406,46.147,46.147,0,0,1,6.969-1.662c1.225-.191,2.477-.331,3.743-.416.633-.044,1.27-.069,1.91-.085.319-.006.628-.012.959-.009s.662.006.991.018a37.644,37.644,0,0,1,7.713,1.036c.619.151,1.233.313,1.837.5.321.094.56.174.83.255l.789.25c.527.168,1.049.354,1.57.545s1.036.4,1.554.6a39.563,39.563,0,0,1,5.942,3.033,33.31,33.31,0,0,1,5.211,3.984,30.769,30.769,0,0,1,8.944,15.369,39.254,39.254,0,0,1,1.071,10.832,47.176,47.176,0,0,1-.5,5.374c-.137.9-.3,1.8-.5,2.725-.1.463-.209.929-.334,1.414-.062.243-.128.488-.2.75l-.123.408-.075.227-.047.137-.078.2c-2.882,6.512-11.813,10.346-19.944,8.563s-12.386-8.506-9.5-15.018l-.022.073c0,.018,0,.01,0,.01l.006,0c.007,0,.022-.019.033-.03.03-.036.058-.073.085-.112.061-.084.126-.189.19-.293.131-.211.265-.443.394-.68.259-.48.511-.983.748-1.494a28.5,28.5,0,0,0,1.237-3.135,24.039,24.039,0,0,0,1.224-6.184,15.03,15.03,0,0,0-.668-5.5,11.02,11.02,0,0,0-1.112-2.4,12.1,12.1,0,0,0-1.719-2.185,15.511,15.511,0,0,0-2.386-1.982c-.237-.149-.464-.308-.708-.458s-.491-.3-.75-.443l-.753-.413c-.194-.113-.4-.217-.6-.32a12.2,12.2,0,0,0-2.672-.926c-.118-.028-.237-.051-.357-.076l-.393-.067c-.267-.042-.537-.081-.812-.109-.551-.058-1.121-.093-1.714-.1a28.221,28.221,0,0,0-7.975,1.224q-1.08.3-2.174.681t-2.2.813c-1.474.579-2.96,1.227-4.449,1.926-2.981,1.4-5.965,3-9.007,4.688l-1.09.607c-.352.2-.7.4-1.059.605-.707.416-1.416.838-2.13,1.28-1.427.878-2.868,1.8-4.331,2.75-2.928,1.89-5.971,3.86-9.3,5.656A51.51,51.51,0,0,1,79.5,167.81c-.484.137-.979.253-1.467.376s-.98.221-1.487.32l-.754.15c-.251.045-.5.084-.753.126-.5.089-1,.146-1.5.212a43.935,43.935,0,0,1-5.914.282,58.958,58.958,0,0,1-11.162-1.333,73.622,73.622,0,0,1-10.258-3,91,91,0,0,1-9.448-4.181Z" fill="#fdb74d"/>
    <path id="Trazado_139920-2" data-name="Trazado 139920" d="M157.069,29.618a1.8,1.8,0,0,0,.172-.111,1.308,1.308,0,0,0,.009-2.173,2.4,2.4,0,0,0-2.8-.117,44.885,44.885,0,0,1-8.988,5.008,53.278,53.278,0,0,1-10.324,3.163l-.673.137-.678.117c-.451.081-.9.148-1.36.214q-1.362.2-2.737.321c-.458.045-.918.067-1.375.1s-.917.043-1.374.066c-.46,0-.915.023-1.375.015s-.915,0-1.37-.026-.909-.034-1.36-.069c-.226-.016-.452-.028-.676-.049l-.672-.067c-.448-.036-.888-.108-1.331-.16s-.876-.133-1.308-.21-.862-.158-1.282-.26c-.21-.05-.421-.093-.63-.145l-.617-.162c-.1-.028-.206-.052-.309-.083l-.311-.1-.619-.191c-.407-.143-.816-.275-1.217-.427a41.674,41.674,0,0,1-8.971-4.748c-2.806-1.908-5.469-4.058-8.231-6.3-1.383-1.117-2.782-2.264-4.252-3.414-.73-.577-1.488-1.15-2.257-1.725-.391-.286-.777-.574-1.179-.858l-1.171-.831c-3-2.119-6.136-4.274-9.543-6.335a80.524,80.524,0,0,0-11.27-5.741A57.153,57.153,0,0,0,60.317,2.2,49.452,49.452,0,0,0,52.8.778C51.487.635,50.145.548,48.791.52,48.113.5,47.433.51,46.75.524c-.341.01-.671.018-1.024.039S45.02.6,44.67.631A40.172,40.172,0,0,0,36.5,2.117c-.653.192-1.3.4-1.935.621-.337.116-.588.212-.872.313l-.829.3c-.553.205-1.1.43-1.647.659s-1.085.478-1.627.721A42.244,42.244,0,0,0,23.4,8.264a35.588,35.588,0,0,0-5.36,4.508A32.842,32.842,0,0,0,9.265,29.6a41.9,41.9,0,0,0-.606,11.6,50.517,50.517,0,0,0,.8,5.706c.191.953.411,1.907.669,2.881.131.488.269.98.426,1.491.079.256.161.514.255.79l.151.428.091.239.058.144.093.211c3.4,6.8,13.109,10.447,21.691,8.144s12.787-9.685,9.39-16.486l.028.077c.005.018,0,.01,0,.01H42.3c-.007,0-.024-.02-.037-.031-.033-.037-.065-.075-.1-.115-.07-.087-.144-.195-.218-.3-.15-.219-.3-.459-.454-.706-.3-.5-.594-1.023-.871-1.556a30.144,30.144,0,0,1-1.474-3.282,25.646,25.646,0,0,1-1.612-6.533,16.027,16.027,0,0,1,.44-5.9A11.673,11.673,0,0,1,39.045,23.8a12.878,12.878,0,0,1,1.724-2.415,16.53,16.53,0,0,1,2.446-2.231c.245-.172.48-.352.733-.524s.509-.344.777-.51l.783-.478c.2-.13.416-.251.627-.371a13,13,0,0,1,2.8-1.119c.125-.037.251-.067.377-.1l.417-.092c.282-.057.568-.112.86-.155.584-.09,1.191-.156,1.822-.193a30.14,30.14,0,0,1,8.565.91q1.168.268,2.353.618t2.387.758c1.6.544,3.217,1.162,4.84,1.834,3.248,1.344,6.509,2.9,9.836,4.553l1.193.593c.385.191.77.394,1.159.592.775.409,1.552.824,2.336,1.26,1.564.865,3.147,1.78,4.753,2.718,3.217,1.87,6.559,3.821,10.2,5.57a55,55,0,0,0,11.794,4.243c.523.122,1.056.221,1.582.328.537.091,1.057.188,1.6.269l.811.122c.271.036.541.065.81.1.539.07,1.077.106,1.613.152a46.949,46.949,0,0,0,6.321.007A62.871,62.871,0,0,0,136.4,38.264a78.613,78.613,0,0,0,10.789-3.714,97.04,97.04,0,0,0,9.868-4.925Z" fill="#fdb74d"/>
    <path id="Trazado_188103" data-name="Trazado 188103" d="M27.923,133.4C23.865,131.165-2.118,115.775,4.27,81.171c3.473-10.33,5.918-19.05,18.146-26.542C50.2,37.6,102.683,40.4,136.61,45.672c21,5.442,46.9,14.406,51.606,42.273,2.527,14.946-6.094,36.911-40.209,48.854C112.115,144.7,57.922,149.511,27.923,133.4Z" fill="#fff"/>
    <g id="Grupo_135253-2" data-name="Grupo 135253">
      <circle id="Elipse_5247" data-name="Elipse 5247" cx="14.395" cy="14.395" r="14.395" transform="translate(121.236 10.17)" fill="#5038a1" opacity="0.7" style="isolation: isolate"/>
      <g id="Elipse_5249" data-name="Elipse 5249">
        <circle id="Elipse_5957" data-name="Elipse 5957" cx="5.424" cy="5.424" r="5.424" transform="translate(132.234 23.416)" fill="none"/>
        <circle id="Elipse_5958" data-name="Elipse 5958" cx="4.798" cy="4.798" r="4.798" transform="translate(132.86 24.042)" fill="none" stroke="#fff" stroke-width="1.252"/>
      </g>
      <g id="Elipse_5250" data-name="Elipse 5250">
        <circle id="Elipse_5959" data-name="Elipse 5959" cx="2.921" cy="2.921" r="2.921" transform="translate(168.466 4.62)" fill="#fdb74d"/>
        <circle id="Elipse_5960" data-name="Elipse 5960" cx="2.295" cy="2.295" r="2.295" transform="translate(169.092 5.246)" fill="#fdb74d" stroke="#8c6df2" stroke-width="1.252"/>
      </g>
      <circle id="Elipse_5251" data-name="Elipse 5251" cx="1.878" cy="1.878" r="1.878" transform="translate(146.298 8.836)" fill="#fdb74d"/>
    </g>
    <circle id="Elipse_5961" data-name="Elipse 5961" cx="14.044" cy="14.044" r="14.044" transform="translate(4.855 154.919)" fill="#fdb74d" opacity="0.5"/>
    <g id="Elipse_4972" data-name="Elipse 4972">
      <circle id="Elipse_5962" data-name="Elipse 5962" cx="12.969" cy="12.969" r="12.969" transform="translate(5.93 155.994)" fill="none"/>
      <circle id="Elipse_5963" data-name="Elipse 5963" cx="12.277" cy="12.277" r="12.277" transform="translate(6.621 156.686)" fill="none" stroke="#fff" stroke-linecap="round" stroke-width="1.383" stroke-dasharray="1.038 2.767"/>
    </g>
    <g id="Grupo_135255" data-name="Grupo 135255">
      <g id="Grupo_135254" data-name="Grupo 135254">
        <path id="Trazado_193024" data-name="Trazado 193024" d="M16.077,113.686v-4.474h1.1a2.066,2.066,0,0,1,1.3.336,1.25,1.25,0,0,1,.42,1.039,1.281,1.281,0,0,1-.423,1.021,1.725,1.725,0,0,1-1.172.37H17.04v1.708Zm.963-2.454h.138a.825.825,0,0,0,.568-.162.674.674,0,0,0,.178-.52.6.6,0,0,0-.178-.481.866.866,0,0,0-.568-.151H17.04Z" fill="#666"/>
        <path id="Trazado_193025" data-name="Trazado 193025" d="M25.843,111.458a2.334,2.334,0,0,1-.178.908,2.231,2.231,0,0,1-.516.752,2.49,2.49,0,0,1-.785.511,2.4,2.4,0,0,1-1.707.037,2.465,2.465,0,0,1-.72-.4,2.277,2.277,0,0,1-.871-1.81,2.323,2.323,0,0,1,.177-.906,2.243,2.243,0,0,1,.52-.753,2.42,2.42,0,0,1,2.606-.508,2.445,2.445,0,0,1,.78.508,2.243,2.243,0,0,1,.517.754A2.333,2.333,0,0,1,25.843,111.458Zm-2.384,1.5a1.31,1.31,0,0,0,1-.426,1.635,1.635,0,0,0,0-2.138,1.378,1.378,0,0,0-2.008,0,1.642,1.642,0,0,0-.007,2.142A1.324,1.324,0,0,0,23.459,112.953Z" fill="#666"/>
        <path id="Trazado_193026" data-name="Trazado 193026" d="M31.589,113.686h-1.1L29.31,111.6v2.09h-.957v-4.474h1.369a1.973,1.973,0,0,1,1.223.316,1.134,1.134,0,0,1,.406.952,1.179,1.179,0,0,1-.278.789,1.087,1.087,0,0,1-.718.382Zm-2.279-2.567h.143a1.526,1.526,0,0,0,.767-.127.494.494,0,0,0,.187-.442.532.532,0,0,0-.2-.469,1.435,1.435,0,0,0-.754-.139H29.31Z" fill="#666"/>
        <path id="Trazado_193027" data-name="Trazado 193027" d="M41.322,109.212V112a1.777,1.777,0,0,1-.48,1.36,2.047,2.047,0,0,1-1.446.449,2.071,2.071,0,0,1-1.461-.449,1.777,1.777,0,0,1-.48-1.36v-2.784h.951v2.634a1.233,1.233,0,0,0,.244.833.918.918,0,0,0,.731.28.938.938,0,0,0,.739-.281,1.217,1.217,0,0,0,.251-.832v-2.634Z" fill="#666"/>
        <path id="Trazado_193028" data-name="Trazado 193028" d="M44.015,113.686v-4.474h.993l1.981,2.6a2.075,2.075,0,0,1,.188.31q.1.2.212.472c-.022-.132-.038-.263-.049-.394s-.015-.294-.015-.489v-2.5h.914v4.474H47.3l-2.035-2.653a1.954,1.954,0,0,1-.187-.31c-.067-.133-.138-.293-.214-.478a3.862,3.862,0,0,1,.049.389c.011.132.016.3.016.5v2.555Z" fill="#666"/>
        <path id="Trazado_193029" data-name="Trazado 193029" d="M50.406,113.686l1.7-4.474H53.2l1.727,4.474H53.842l-.364-.95H51.745l-.312.95Zm2.849-1.7-.5-1.446c-.014-.043-.032-.116-.055-.22s-.045-.231-.07-.382c-.026.145-.052.275-.076.39s-.043.192-.055.231l-.483,1.427Z" fill="#666"/>
        <path id="Trazado_193030" data-name="Trazado 193030" d="M64.331,110.376a2,2,0,0,0-.6-.38,1.756,1.756,0,0,0-.654-.121,1.535,1.535,0,0,0-1.14.428,1.777,1.777,0,0,0-.031,2.269,1.411,1.411,0,0,0,1.076.414,1.978,1.978,0,0,0,.721-.129,2,2,0,0,0,.618-.39l-.007.981a2.523,2.523,0,0,1-.64.269,2.746,2.746,0,0,1-.705.088,2.417,2.417,0,0,1-1.755-.664,2.412,2.412,0,0,1,0-3.373,2.447,2.447,0,0,1,1.773-.663,3.084,3.084,0,0,1,1.372.311Z" fill="#666"/>
        <path id="Trazado_193031" data-name="Trazado 193031" d="M71.5,111.458a2.334,2.334,0,0,1-.178.908,2.242,2.242,0,0,1-.515.752,2.505,2.505,0,0,1-.786.511,2.4,2.4,0,0,1-1.707.037,2.465,2.465,0,0,1-.72-.4,2.277,2.277,0,0,1-.871-1.81,2.323,2.323,0,0,1,.177-.906,2.243,2.243,0,0,1,.52-.753,2.42,2.42,0,0,1,2.606-.508,2.46,2.46,0,0,1,.781.508,2.254,2.254,0,0,1,.516.754A2.333,2.333,0,0,1,71.5,111.458Zm-2.384,1.5a1.31,1.31,0,0,0,1-.426,1.635,1.635,0,0,0,0-2.138,1.3,1.3,0,0,0-1-.435,1.317,1.317,0,0,0-1.008.433,1.642,1.642,0,0,0-.007,2.142A1.325,1.325,0,0,0,69.121,112.953Z" fill="#666"/>
        <path id="Trazado_193032" data-name="Trazado 193032" d="M74.015,113.686v-4.474h.957v3.661H76.5v.813Z" fill="#666"/>
        <path id="Trazado_193033" data-name="Trazado 193033" d="M83.163,111.458a2.334,2.334,0,0,1-.179.908,2.214,2.214,0,0,1-.515.752,2.49,2.49,0,0,1-.785.511,2.4,2.4,0,0,1-1.707.037,2.465,2.465,0,0,1-.72-.4,2.269,2.269,0,0,1-.871-1.81,2.323,2.323,0,0,1,.177-.906,2.243,2.243,0,0,1,.52-.753,2.418,2.418,0,0,1,2.605-.508,2.438,2.438,0,0,1,.781.508,2.243,2.243,0,0,1,.517.754A2.333,2.333,0,0,1,83.163,111.458Zm-2.384,1.5a1.31,1.31,0,0,0,1-.426,1.635,1.635,0,0,0,0-2.138,1.378,1.378,0,0,0-2.008,0,1.642,1.642,0,0,0-.007,2.142A1.324,1.324,0,0,0,80.779,112.953Z" fill="#666"/>
        <path id="Trazado_193034" data-name="Trazado 193034" d="M85.285,113.686l.681-4.474h1l.862,2.634a2.207,2.207,0,0,1,.059.242c.022.106.041.227.06.364.016-.139.035-.263.055-.372a1.69,1.69,0,0,1,.058-.24l.877-2.628h.988l.684,4.474H89.7l-.327-2.7c-.024-.2-.041-.351-.049-.453s-.012-.2-.012-.284c0-.047,0-.082,0-.106s0-.044,0-.062c-.03.175-.059.327-.087.454a2.539,2.539,0,0,1-.075.289l-.947,2.86h-.538l-.932-2.86c-.008-.027-.026-.1-.054-.221s-.066-.3-.115-.525v.131a6.608,6.608,0,0,1-.054.764l0,.013-.324,2.7Z" fill="#666"/>
        <path id="Trazado_193035" data-name="Trazado 193035" d="M92.935,113.686v-4.474h.838a6.353,6.353,0,0,1,.952.05,1.724,1.724,0,0,1,.521.167,1.055,1.055,0,0,1,.544.947.872.872,0,0,1-.235.637,1.247,1.247,0,0,1-.7.32,1.426,1.426,0,0,1,.818.352.966.966,0,0,1,.277.724,1.176,1.176,0,0,1-.159.6,1.1,1.1,0,0,1-.437.424,1.891,1.891,0,0,1-.581.193,7.4,7.4,0,0,1-1.1.057h-.73ZM93.892,111h.214a1.147,1.147,0,0,0,.614-.122.46.46,0,0,0,.18-.41.451.451,0,0,0-.172-.4,1.113,1.113,0,0,0-.6-.119h-.232Zm0,1.941h.376a.83.83,0,0,0,.547-.158.569.569,0,0,0,.186-.46.525.525,0,0,0-.185-.434.833.833,0,0,0-.536-.15h-.388Z" fill="#666"/>
        <path id="Trazado_193036" data-name="Trazado 193036" d="M98.394,113.686v-4.474h.957v4.474Z" fill="#666"/>
        <path id="Trazado_193037" data-name="Trazado 193037" d="M101.543,113.686l1.7-4.474h1.094l1.727,4.474h-1.088l-.364-.95h-1.733l-.312.95Zm2.848-1.7-.5-1.446c-.014-.043-.033-.116-.055-.22s-.046-.231-.07-.382c-.027.145-.052.275-.077.39s-.043.192-.055.231l-.483,1.427Z" fill="#666"/>
        <path id="Trazado_193038" data-name="Trazado 193038" d="M111.477,113.686l.681-4.474h1l.862,2.634a2.208,2.208,0,0,1,.059.242c.022.106.041.227.06.364.016-.139.034-.263.055-.372a1.691,1.691,0,0,1,.058-.24l.877-2.628h.987l.685,4.474H115.9l-.327-2.7c-.024-.2-.041-.351-.049-.453s-.012-.2-.012-.284c0-.047,0-.082,0-.106s0-.044,0-.062c-.03.175-.059.327-.087.454a2.537,2.537,0,0,1-.075.289l-.947,2.86h-.538l-.932-2.86c-.009-.027-.027-.1-.054-.221s-.066-.3-.115-.525v.131a6.608,6.608,0,0,1-.054.764l0,.013-.324,2.7Z" fill="#666"/>
        <path id="Trazado_193039" data-name="Trazado 193039" d="M118.6,113.686l1.7-4.474h1.094l1.727,4.474h-1.088l-.364-.95h-1.733l-.312.95Zm2.849-1.7-.5-1.446c-.014-.043-.033-.116-.055-.22s-.046-.231-.07-.382c-.027.145-.052.275-.077.39s-.043.192-.055.231l-.483,1.427Zm.312-4.325-.957,1.128h-.434l.6-1.128Z" fill="#666"/>
        <path id="Trazado_193040" data-name="Trazado 193040" d="M125,113.118l.532-.6a.815.815,0,0,0,.324.39.919.919,0,0,0,.5.141.819.819,0,0,0,.532-.158.525.525,0,0,0,.2-.428q0-.318-.652-.633-.21-.1-.333-.165a2.5,2.5,0,0,1-.813-.6,1.17,1.17,0,0,1,.213-1.605,1.75,1.75,0,0,1,1.138-.356,1.6,1.6,0,0,1,.7.142,1.434,1.434,0,0,1,.521.445l-.565.541a.694.694,0,0,0-.268-.292.782.782,0,0,0-.4-.1.706.706,0,0,0-.458.142.456.456,0,0,0-.175.369q0,.354.691.648c.092.038.162.069.211.092a2.352,2.352,0,0,1,.842.586,1.13,1.13,0,0,1,.274.746,1.265,1.265,0,0,1-.43,1,1.691,1.691,0,0,1-1.153.374,2.012,2.012,0,0,1-.881-.176A1.2,1.2,0,0,1,125,113.118Z" fill="#666"/>
        <path id="Trazado_193041" data-name="Trazado 193041" d="M134.126,113.686v-4.474h.957v1.794h1.941v-1.794h.956v4.474h-.956v-1.87h-1.941v1.87Z" fill="#666"/>
        <path id="Trazado_193042" data-name="Trazado 193042" d="M145.261,111.458a2.334,2.334,0,0,1-.179.908,2.228,2.228,0,0,1-.515.752,2.483,2.483,0,0,1-.786.511,2.4,2.4,0,0,1-1.706.037,2.465,2.465,0,0,1-.72-.4,2.269,2.269,0,0,1-.871-1.81,2.323,2.323,0,0,1,.177-.906,2.24,2.24,0,0,1,.519-.753,2.452,2.452,0,0,1,1.7-.688,2.388,2.388,0,0,1,.909.18,2.438,2.438,0,0,1,.781.508,2.272,2.272,0,0,1,.517.754A2.333,2.333,0,0,1,145.261,111.458Zm-2.384,1.5a1.312,1.312,0,0,0,1-.426,1.633,1.633,0,0,0,0-2.138,1.3,1.3,0,0,0-1-.435,1.318,1.318,0,0,0-1.009.433,1.643,1.643,0,0,0-.006,2.142A1.322,1.322,0,0,0,142.877,112.953Z" fill="#666"/>
        <path id="Trazado_193043" data-name="Trazado 193043" d="M147.771,113.686v-4.474h.993l1.981,2.6a2.075,2.075,0,0,1,.188.31q.1.2.212.472c-.023-.132-.039-.263-.049-.394s-.015-.294-.015-.489v-2.5h.914v4.474h-.939l-2.035-2.653a1.882,1.882,0,0,1-.187-.31c-.067-.133-.138-.293-.214-.478a3.863,3.863,0,0,1,.049.389c.01.132.015.3.015.5v2.555Z" fill="#666"/>
        <path id="Trazado_193044" data-name="Trazado 193044" d="M154.694,113.686v-4.474h2.634v.807H155.65v.92h1.678v.813H155.65v1.121h1.678v.813Z" fill="#666"/>
        <path id="Trazado_193045" data-name="Trazado 193045" d="M159.682,113.118l.532-.6a.815.815,0,0,0,.324.39.917.917,0,0,0,.5.141.821.821,0,0,0,.532-.158.524.524,0,0,0,.2-.428c0-.212-.216-.423-.651-.633q-.21-.1-.333-.165a2.5,2.5,0,0,1-.813-.6,1.1,1.1,0,0,1-.226-.7,1.118,1.118,0,0,1,.439-.909,1.75,1.75,0,0,1,1.138-.356,1.6,1.6,0,0,1,.7.142,1.434,1.434,0,0,1,.521.445l-.566.541a.685.685,0,0,0-.267-.292.782.782,0,0,0-.4-.1.709.709,0,0,0-.459.142.455.455,0,0,0-.174.369q0,.354.691.648c.092.038.162.069.211.092a2.361,2.361,0,0,1,.842.586,1.134,1.134,0,0,1,.273.746,1.264,1.264,0,0,1-.429,1,1.692,1.692,0,0,1-1.154.374,2.011,2.011,0,0,1-.88-.176A1.2,1.2,0,0,1,159.682,113.118Z" fill="#666"/>
        <path id="Trazado_193046" data-name="Trazado 193046" d="M166.849,110.025v3.661h-.959v-3.661H164.8v-.813h3.148v.813Z" fill="#666"/>
        <path id="Trazado_193047" data-name="Trazado 193047" d="M169.4,113.686l1.7-4.474h1.1l1.727,4.474h-1.089l-.363-.95h-1.733l-.312.95Zm2.849-1.7-.5-1.446c-.014-.043-.032-.116-.055-.22s-.045-.231-.07-.382c-.027.145-.052.275-.076.39s-.043.192-.055.231l-.483,1.427Z" fill="#666"/>
      </g>
      <g id="_20aabcff" data-name="#20aabcff">
        <path id="path6" d="M100.948,76.195h2.375l22.935,25.2-4.59.036-19.386-21.5L90.276,93.192h16.245s1.537,1.725,2.3,2.593c-6.85.014-13.992-.068-20.841-.044,0,0-5.31,5.7-5.26,5.681-1.555.056-3.115.029-4.67-.012C78.054,101.41,94.157,83.647,100.948,76.195Z" fill="url(#linear-gradient)"/>
        <path id="path8" d="M133.327,76.44c-.618,0-1.113.017-1.113.017l.044,24.953,3.6,0,.009-20.746L170.592,101.4h3.319l.012-24.95h-3.638l.009,20.838s-21.979-13.08-32.973-19.611a15.285,15.285,0,0,0-2.142-1.186C134.686,76.447,133.945,76.437,133.327,76.44Zm-109.189.017-8.061,0,0,3.059s15.331-.021,23,.024A39.307,39.307,0,0,1,49.411,80.87a7.87,7.87,0,0,1,5.26,4.832,10.849,10.849,0,0,1-.071,6.956,7.49,7.49,0,0,1-4.974,4.5,38.706,38.706,0,0,1-10.552,1.213c-6.427.015-19.28.006-19.28.006l.009-5.186H16.089l.018,8.224c8.534-.015,17.068.026,25.6-.024,4.227-.127,8.72-.374,12.428-2.637a10.168,10.168,0,0,0,4.743-8.018,15,15,0,0,0-.684-6.448,10.552,10.552,0,0,0-6.614-6.133c-4.5-1.531-9.3-1.672-14.009-1.687C33.991,76.457,28.616,76.456,24.138,76.457Zm45.3,0h-1.36l.017,24.95h3.584l.027-24.944c-.605-.006-1.512-.007-2.268-.007Z" fill="url(#linear-gradient-2)"/>
      </g>
    </g>
    <rect id="Rectángulo_44815" data-name="Rectángulo 44815" width="190" height="189.124" transform="translate(0 0.511)" fill="none"/>
  </g>
</svg>
