<svg id="Grupo_135370" data-name="Grupo 135370" xmlns="http://www.w3.org/2000/svg" xmlns:xlink="http://www.w3.org/1999/xlink" width="205" height="157" viewBox="0 0 205 157">
  <defs>
    <clipPath id="clip-path">
      <path id="Trazado_188103" data-name="Trazado 188103" d="M175.233,23.829a64.26,64.26,0,0,1,10.3,10.57c21.76,27.172,13.924,56.872,11.292,66.045-4.253,14.8-7.336,27.316-20.577,37.628C146.17,161.5,40.726,156.991,25.759,138.5c-14.98-18.508-19.168-35.4-20.73-54.084-.094-.74-.142-1.291-.19-1.773C4.39,77.968,2.2,49.029,28.849,26.618A89.251,89.251,0,0,1,49.836,13.681C87.568-3.122,144.825-.8,175.233,23.829Z" fill="none"/>
    </clipPath>
  </defs>
  <path id="Trazado_188103-2" data-name="Trazado 188103" d="M175.233,23.829a64.26,64.26,0,0,1,10.3,10.57c21.76,27.172,13.924,56.872,11.292,66.045-4.253,14.8-7.336,27.316-20.577,37.628C146.17,161.5,40.726,156.991,25.759,138.5c-14.98-18.508-19.168-35.4-20.73-54.084-.094-.74-.142-1.291-.19-1.773C4.39,77.968,2.2,49.029,28.849,26.618A89.251,89.251,0,0,1,49.836,13.681C87.568-3.122,144.825-.8,175.233,23.829Z" fill="#e5e1f1"/>
  <path id="Trazado_139920" data-name="Trazado 139920" d="M168.838,148.051a1.648,1.648,0,0,0,.1.167,1.238,1.238,0,0,0,2.053.111,2.272,2.272,0,0,0,.242-2.64,42.482,42.482,0,0,1-4.311-8.731,50.435,50.435,0,0,1-2.506-9.907l-.1-.643-.079-.646c-.055-.431-.1-.863-.138-1.3q-.127-1.3-.175-2.6c-.021-.434-.021-.87-.032-1.3s0-.869,0-1.3c.017-.435.021-.866.05-1.3s.047-.864.09-1.293.074-.857.128-1.283c.026-.213.049-.425.079-.636l.094-.632c.056-.422.144-.835.214-1.251s.167-.822.26-1.227.19-.807.306-1.2c.057-.2.108-.394.167-.589l.182-.576c.032-.1.059-.192.093-.288l.1-.289.21-.576c.154-.379.3-.759.461-1.13a39.417,39.417,0,0,1,4.909-8.258c1.935-2.562,4.093-4.979,6.338-7.484,1.121-1.255,2.271-2.524,3.427-3.86.58-.662,1.157-1.352,1.736-2.052.289-.356.579-.707.867-1.074l.84-1.068c2.145-2.738,4.329-5.6,6.437-8.723a76.286,76.286,0,0,0,5.956-10.384,54.12,54.12,0,0,0,2.452-6.2,46.74,46.74,0,0,0,1.7-7.036c.2-1.237.343-2.5.433-3.78.046-.64.073-1.284.091-1.93.007-.322.015-.635.013-.969s0-.669-.015-1a38.008,38.008,0,0,0-1.022-7.8c-.15-.627-.312-1.248-.495-1.858-.094-.325-.174-.566-.255-.839l-.249-.8c-.169-.532-.355-1.06-.546-1.587s-.4-1.048-.606-1.572A39.958,39.958,0,0,0,195.3,22.7a33.82,33.82,0,0,0-4.009-5.278,31.085,31.085,0,0,0-15.5-9.086,39.676,39.676,0,0,0-10.942-1.118,47.928,47.928,0,0,0-5.43.486c-.91.135-1.823.3-2.756.5-.467.1-.939.208-1.429.332-.246.063-.494.128-.758.2l-.413.122-.229.075-.139.048-.205.078c-6.588,2.891-10.49,11.9-8.716,20.122s8.554,12.541,15.143,9.65l-.074.022c-.018,0-.01,0-.01,0v-.007c0-.006.02-.021.031-.033a1.34,1.34,0,0,1,.114-.084c.085-.062.191-.127.3-.192.214-.132.449-.266.689-.4.485-.26,1-.513,1.512-.75a28.532,28.532,0,0,1,3.171-1.24,24.29,24.29,0,0,1,6.252-1.217,15.2,15.2,0,0,1,5.555.693,11.116,11.116,0,0,1,2.423,1.131,12.27,12.27,0,0,1,2.2,1.744,15.711,15.711,0,0,1,1.994,2.417c.15.24.31.47.461.717s.3.5.445.759l.415.763c.113.2.217.4.321.61a12.277,12.277,0,0,1,.927,2.7c.028.119.051.24.076.361l.066.4c.042.269.08.542.107.821q.087.834.1,1.731a28.525,28.525,0,0,1-1.262,8.053q-.309,1.092-.7,2.195t-.829,2.221c-.59,1.488-1.249,2.987-1.961,4.489-1.423,3.007-3.051,6.016-4.766,9.084l-.616,1.1c-.2.355-.409.709-.615,1.068-.422.713-.851,1.428-1.3,2.148-.891,1.438-1.831,2.892-2.792,4.366-1.919,2.953-3.92,6.02-5.745,9.377a52.15,52.15,0,0,0-4.565,10.949c-.139.489-.258.988-.384,1.481-.111.5-.227.99-.329,1.5l-.153.761c-.047.254-.087.508-.13.761-.091.506-.151,1.014-.22,1.518a44.492,44.492,0,0,0-.3,5.974,59.536,59.536,0,0,0,1.31,11.282,74.315,74.315,0,0,0,3,10.373,92.16,92.16,0,0,0,4.193,9.56Z" fill="#fdb74d"/>
  <g id="Grupo_135370-2" data-name="Grupo 135370">
    <circle id="Elipse_5247" data-name="Elipse 5247" cx="14.58" cy="14.58" r="14.58" transform="translate(172.945 118.121)" fill="#5038a1" opacity="0.7" style="isolation: isolate"/>
    <g id="Elipse_5249" data-name="Elipse 5249">
      <circle id="Elipse_5996" data-name="Elipse 5996" cx="5.494" cy="5.494" r="5.494" transform="translate(183.833 122.766)" fill="none"/>
      <circle id="Elipse_5997" data-name="Elipse 5997" cx="4.86" cy="4.86" r="4.86" transform="translate(184.466 123.4)" fill="none" stroke="#fff" stroke-width="1.268"/>
    </g>
    <g id="Elipse_5250" data-name="Elipse 5250">
      <circle id="Elipse_5998" data-name="Elipse 5998" cx="2.958" cy="2.958" r="2.958" transform="translate(147.375 114.724)" fill="#fdb74d"/>
      <circle id="Elipse_5999" data-name="Elipse 5999" cx="2.324" cy="2.324" r="2.324" transform="translate(148.009 115.358)" fill="#fdb74d" stroke="#8c6df2" stroke-width="1.268"/>
    </g>
    <circle id="Elipse_5251" data-name="Elipse 5251" cx="1.902" cy="1.902" r="1.902" transform="translate(166.697 130.926)" fill="#fdb74d"/>
  </g>
  <g id="Grupo_135371" data-name="Grupo 135371">
    <circle id="Elipse_6000" data-name="Elipse 6000" cx="31.22" cy="31.22" r="31.22" transform="translate(4.604 88.771)" fill="#fdb74d" opacity="0.5"/>
    <g id="Elipse_4972" data-name="Elipse 4972">
      <circle id="Elipse_6001" data-name="Elipse 6001" cx="28.83" cy="28.83" r="28.83" transform="translate(6.994 91.161)" fill="none"/>
      <circle id="Elipse_6002" data-name="Elipse 6002" cx="27.293" cy="27.293" r="27.293" transform="translate(8.532 92.698)" fill="none" stroke="#fff" stroke-linecap="round" stroke-width="3.075" stroke-dasharray="2.306 6.15"/>
    </g>
  </g>
  <g id="Grupo_135387" data-name="Grupo 135387">
    <g id="Grupo_135386" data-name="Grupo 135386" clip-path="url(#clip-path)">
      <g id="Grupo_135385" data-name="Grupo 135385">
        <g id="Grupo_135372" data-name="Grupo 135372">
          <path id="Trazado_193902" data-name="Trazado 193902" d="M124.722,177.388l6.748-3.9,4.12,8.25-5.634,3.265Z" fill="#ffc3bd"/>
          <path id="Trazado_193903" data-name="Trazado 193903" d="M124.725,177.389l6.751-3.9,2.306,4.621-6.126,3.545Z" opacity="0.2"/>
        </g>
        <g id="Grupo_135375" data-name="Grupo 135375">
          <g id="Grupo_135373" data-name="Grupo 135373">
            <path id="Trazado_193904" data-name="Trazado 193904" d="M127.148,150.789c4.782-11.076,12.656-23.943,9.43-35.821l-21.487-3.4S110.648,138.116,111.53,149c.915,11.321,14.277,31.415,14.277,31.415L133.5,175.9S130.157,158.725,127.148,150.789Z" fill="#407bff"/>
          </g>
          <g id="Grupo_135374" data-name="Grupo 135374" opacity="0.4">
            <path id="Trazado_193905" data-name="Trazado 193905" d="M127.148,150.789c4.782-11.076,12.656-23.943,9.43-35.821l-21.487-3.4S110.648,138.116,111.53,149c.915,11.321,14.277,31.415,14.277,31.415L133.5,175.9S130.157,158.725,127.148,150.789Z"/>
          </g>
        </g>
        <path id="Trazado_193906" data-name="Trazado 193906" d="M134.279,175.812,125.487,181l-2.8-3.637,10.36-5.485Z" fill="#407bff"/>
        <path id="Trazado_193907" data-name="Trazado 193907" d="M128.722,147.29c2.584-5.606,5.568-11.577,7.255-17.582C130.9,130.573,126.6,134.694,128.722,147.29Z" opacity="0.2"/>
        <path id="Trazado_193908" data-name="Trazado 193908" d="M135.371,179.784a.319.319,0,0,0-.516.028c-1.108,1.9-4.3,3.724-5.532,4.377a1.245,1.245,0,0,0-.6.727,18.94,18.94,0,0,1-2.985,4.621,6.015,6.015,0,0,0,.434,1.235.9.9,0,0,0,1.376.314l9.807-7.967a.758.758,0,0,0,.049-1.135A21.818,21.818,0,0,1,135.371,179.784Z" fill="#263238"/>
        <g id="Grupo_135376" data-name="Grupo 135376">
          <path id="Trazado_193909" data-name="Trazado 193909" d="M137.4,181.147l7.792.075-.707,9.2-6.511-.052Z" fill="#ffc3bd"/>
          <path id="Trazado_193910" data-name="Trazado 193910" d="M145.163,189.007a.289.289,0,0,0-.39-.3c-2.122.778-5.7.182-7.05-.087a1.307,1.307,0,0,0-.94.185A18.857,18.857,0,0,1,132,190.509a6.587,6.587,0,0,0-.524,1.164.9.9,0,0,0,.851,1.18l12.013-.006a.758.758,0,0,0,.758-.789A21.864,21.864,0,0,1,145.163,189.007Z" fill="#263238"/>
          <path id="Trazado_193911" data-name="Trazado 193911" d="M137.4,181.15l7.795.074-.4,5.151-7.077-.061Z" opacity="0.2"/>
        </g>
        <g id="Grupo_135377" data-name="Grupo 135377">
          <path id="Trazado_193912" data-name="Trazado 193912" d="M150.121,150.155c2.428-11.571,6.8-26.612,3.721-32.583l-25.155-3.895s3.128,23.936,3.954,35.087c.857,11.594,4.249,35.545,4.249,35.545l8.432.022S151.192,163.956,150.121,150.155Z" fill="#407bff"/>
          <path id="Trazado_193913" data-name="Trazado 193913" d="M150.121,150.155c2.428-11.571,6.8-26.612,3.721-32.583l-25.155-3.895s3.128,23.936,3.954,35.087c.857,11.594,4.249,35.545,4.249,35.545l8.432.022S151.192,163.956,150.121,150.155Z" opacity="0.4"/>
        </g>
        <path id="Trazado_193914" data-name="Trazado 193914" d="M146.243,184.649H136.1l-.157-4.224,11.172.181Z" fill="#407bff"/>
        <g id="Grupo_135378" data-name="Grupo 135378">
          <path id="Trazado_193915" data-name="Trazado 193915" d="M135.329,77.137l-.641.515-.6.466c-.4.3-.8.593-1.2.883-.8.582-1.625,1.123-2.453,1.662a56.462,56.462,0,0,1-5.19,2.962,42.973,42.973,0,0,1-5.694,2.407,28.1,28.1,0,0,1-6.523,1.449l-.435.042a4.37,4.37,0,0,1-3.079-.885,12.046,12.046,0,0,1-3.555-4.527,14,14,0,0,1-.855-2.268,19.6,19.6,0,0,1-.51-2.188c-.115-.719-.2-1.426-.255-2.124s-.06-1.39-.058-2.073.052-1.363.111-2.037l.121-1.014.177-1.063a2.769,2.769,0,0,1,5.276-.638l.22.523c.083.2.18.5.274.753l.279.8c.18.531.381,1.055.576,1.569a28.358,28.358,0,0,0,1.275,2.9,11.622,11.622,0,0,0,1.431,2.242,2.556,2.556,0,0,0,1.187.908l-3.514-.843a23.336,23.336,0,0,0,4.079-1.412c.708-.307,1.423-.665,2.136-1.037s1.437-.759,2.152-1.17c1.427-.833,2.862-1.715,4.271-2.653.709-.462,1.4-.949,2.1-1.425l1.032-.725.954-.68.216-.154a5.546,5.546,0,0,1,6.69,8.842Z" fill="#ffc3bd"/>
        </g>
        <path id="Trazado_193916" data-name="Trazado 193916" d="M109.956,69.112l-2.75,1.794c-3.371.74-3.572-3.759-3.572-3.759l-.971-2.124a1.742,1.742,0,0,1,.751-2.124l1.914-1.269a1.814,1.814,0,0,1,2.511.316l1.138,1.69a3.582,3.582,0,0,1,.6,1.648Z" fill="#ffc3bd"/>
        <g id="Grupo_135379" data-name="Grupo 135379">
          <path id="Trazado_193917" data-name="Trazado 193917" d="M135.147,65.953c-5.271-.314-16.1,6.483-16.1,6.483-1.248,3.973.927,11.5,4.1,13.365,0,0,8.065-3.465,11.861-6.834C139.593,74.9,145.809,66.588,135.147,65.953Z" fill="#263238"/>
        </g>
        <path id="Trazado_193918" data-name="Trazado 193918" d="M135.635,65.962A98.087,98.087,0,0,1,157,69.619c4.02,1.212,6.524,4.219,4.723,12.557-3.653,16.913-3.353,30.732-6.476,36.533,0,0-36.57,2.259-41.46-6.176.991-20.883,11-36.8,15.465-43.377A7.28,7.28,0,0,1,135.635,65.962Z" fill="#263238"/>
        <path id="Trazado_193919" data-name="Trazado 193919" d="M137.707,68.274c.944-.676,1.726-.076,2.311-1.223A4.233,4.233,0,0,0,140,64.2L150.56,60.45c-.747,3.556-1.33,6.366.038,8.037.048,2.744-6.292,5.252-11.651,4.234C134.23,71.825,136.348,69.247,137.707,68.274Z" fill="#ffc3bd"/>
        <path id="Trazado_193920" data-name="Trazado 193920" d="M140.094,64.526l8-.733c-2.418,2.758-6.18,3.89-7.947,2.859A4.257,4.257,0,0,0,140.094,64.526Z" opacity="0.2"/>
        <path id="Trazado_193921" data-name="Trazado 193921" d="M139.319,54.516c-.421-4.093,3.568-9.273,6.9-7.486S139.319,54.516,139.319,54.516Z" fill="#263238"/>
        <path id="Trazado_193922" data-name="Trazado 193922" d="M153.379,56.852c-2.113,4.664-3.649,7.785-7.188,8.747-7.033,1.911-9.347-1.953-8.668-7.168.612-4.693,3.965-11.531,9.357-11.607A7.056,7.056,0,0,1,153.379,56.852Z" fill="#ffc3bd"/>
        <path id="Trazado_193923" data-name="Trazado 193923" d="M152.16,60.59c-2.411-.35-4.175-4.7-1.652-6.981s1.652-4.466-.179-5.113-5.157-.179-5.916-1.809,4.309-2.813,7.256-.937,2.791.736,2.791.736a.709.709,0,0,1-.553,1.161c2.317,1.541,4.884,5.247,2.495,6.765C159.416,56.109,154.75,60.136,152.16,60.59Z" fill="#263238"/>
        <path id="Trazado_193924" data-name="Trazado 193924" d="M155.658,54.155a1.858,1.858,0,0,0,2.292-.691S158.456,55.446,155.658,54.155Z" fill="#263238"/>
        <path id="Trazado_193925" data-name="Trazado 193925" d="M153.086,61.9a4.815,4.815,0,0,1-3.5,1.218c-1.7-.114-1.482-1.455-.546-2.769.842-1.183,2.223-2.874,3.709-2.111A2.2,2.2,0,0,1,153.086,61.9Z" fill="#ffc3bd"/>
        <g id="Grupo_135382" data-name="Grupo 135382">
          <g id="Grupo_135380" data-name="Grupo 135380">
            <path id="Trazado_193926" data-name="Trazado 193926" d="M83.12,82.448l-2.313,6.307A3.167,3.167,0,0,1,78.3,90.86L47.6,95.51c-1.981.3-3.153,2.333-2.617,4.541l10.75,44.271a4.327,4.327,0,0,0,4.557,3.454l73.087-11.071c1.982-.3,3.153-2.333,2.617-4.541L123.039,78.82a4.328,4.328,0,0,0-4.558-3.453L85.628,80.343A3.165,3.165,0,0,0,83.12,82.448Z" fill="#5038a1"/>
            <path id="Trazado_193927" data-name="Trazado 193927" d="M83.12,82.448l-2.313,6.307A3.167,3.167,0,0,1,78.3,90.86L47.6,95.51c-1.981.3-3.153,2.333-2.617,4.541l10.75,44.271a4.327,4.327,0,0,0,4.557,3.454l73.087-11.071c1.982-.3,3.153-2.333,2.617-4.541L123.039,78.82a4.328,4.328,0,0,0-4.558-3.453L85.628,80.343A3.165,3.165,0,0,0,83.12,82.448Z" fill="#5038a1" opacity="0.3"/>
          </g>
          <path id="Trazado_193928" data-name="Trazado 193928" d="M67.365,17.719a20.706,20.706,0,0,1,2.154.113,25.916,25.916,0,0,1,45.148,5.735,17.81,17.81,0,0,1-3.013,35.363H67.365a20.606,20.606,0,0,1,0-41.211Z" fill="#fdb74d"/>
          <g id="Grupo_135381" data-name="Grupo 135381">
            <path id="Trazado_193929" data-name="Trazado 193929" d="M69.274,51.725V103.1H106.95V62.908L95.768,51.725Z" fill="#407bff"/>
            <path id="Trazado_193930" data-name="Trazado 193930" d="M69.274,51.725V103.1H106.95V62.908L95.768,51.725Z" fill="#fff" opacity="0.6"/>
            <path id="Trazado_193931" data-name="Trazado 193931" d="M95.768,62.908V51.725L106.95,62.908Z" fill="#407bff" opacity="0.4"/>
          </g>
          <rect id="Rectángulo_44818" data-name="Rectángulo 44818" width="2.699" height="0.536" transform="translate(67.82 147.989) rotate(-8.589)" fill="#407bff"/>
          <rect id="Rectángulo_44819" data-name="Rectángulo 44819" width="9.428" height="0.536" transform="translate(73.479 147.131) rotate(-8.594)" fill="#407bff"/>
          <path id="Trazado_193932" data-name="Trazado 193932" d="M96.555,87.494l-3.475,5.8a4.086,4.086,0,0,1-2.846,1.959l-30.7,4.65a4.137,4.137,0,0,0-3.427,4.189l1.784,40.376a3.2,3.2,0,0,0,3.748,3.1L134.726,136.5a4.136,4.136,0,0,0,3.426-4.189L136,83.661a3.2,3.2,0,0,0-3.748-3.1L99.4,85.536A4.082,4.082,0,0,0,96.555,87.494Z" fill="#8c6df2"/>
          <path id="Trazado_193933" data-name="Trazado 193933" d="M97.625,44.275a.662.662,0,0,1-.467-1.129,12.792,12.792,0,1,0-18.091,0,.661.661,0,0,1-.935.935,14.114,14.114,0,1,1,19.96,0A.659.659,0,0,1,97.625,44.275Z" fill="#fff"/>
          <path id="Trazado_193934" data-name="Trazado 193934" d="M93.774,48.231V33.5a2.4,2.4,0,0,0-2.4-2.4H84.855a2.4,2.4,0,0,0-2.4,2.4V48.231H80l8.111,6.988,8.112-6.988Z" fill="#fff"/>
        </g>
        <g id="Grupo_135384" data-name="Grupo 135384">
          <path id="Trazado_193935" data-name="Trazado 193935" d="M159.446,84.831l-.323.731-.306.667c-.206.44-.424.867-.639,1.3-.429.857-.9,1.69-1.368,2.523a56.045,56.045,0,0,1-3.134,4.863c-.574.79-1.163,1.574-1.79,2.348s-1.292,1.524-2,2.267a29.344,29.344,0,0,1-4.841,4.194l-.367.252a2.985,2.985,0,0,1-.6.314,18.063,18.063,0,0,1-5.825,1.1,34.207,34.207,0,0,1-5.032-.2,46.888,46.888,0,0,1-4.737-.8,40.543,40.543,0,0,1-4.605-1.295,2.8,2.8,0,0,1,.689-5.429l.115-.009L129,97.285c1.435-.128,2.851-.267,4.226-.451.686-.093,1.362-.181,2.021-.295s1.292-.25,1.9-.381a10.355,10.355,0,0,0,2.859-1.025l-.966.566a25.337,25.337,0,0,0,2.866-3.134c.467-.591.918-1.223,1.362-1.865s.89-1.3,1.32-1.976c.848-1.359,1.688-2.755,2.477-4.19.4-.713.782-1.441,1.171-2.16l1.081-2.086.129-.251a5.546,5.546,0,0,1,10,4.794Z" fill="#ffc3bd"/>
          <g id="Grupo_135383" data-name="Grupo 135383">
            <path id="Trazado_193936" data-name="Trazado 193936" d="M161.141,75.42c2.561,9.2-3.94,18.346-3.94,18.346-3.448.987-12.523-2.551-14.45-5.936,0,0,3.164-8.7,6.926-13.323C153.16,70.225,159.641,70.029,161.141,75.42Z" fill="#263238"/>
          </g>
        </g>
        <path id="Trazado_193937" data-name="Trazado 193937" d="M125.645,97.873l.507,3.245c-.71,3.378-4.894,1.714-4.894,1.714l-2.335.013a1.742,1.742,0,0,1-1.629-1.557l-.372-2.266a1.815,1.815,0,0,1,1.319-2.16l2.009-.344a3.6,3.6,0,0,1,1.747.134Z" fill="#ffc3bd"/>
      </g>
    </g>
  </g>
  <rect id="Rectángulo_44820" data-name="Rectángulo 44820" width="205" height="157" fill="none"/>
</svg>
