<svg id="Grupo_135390" data-name="Grupo 135390" xmlns="http://www.w3.org/2000/svg" xmlns:xlink="http://www.w3.org/1999/xlink" width="190" height="190" viewBox="0 0 190 190">
  <defs>
    <linearGradient id="linear-gradient" x1="0.94" y1="-0.484" x2="-1.895" y2="6.012" gradientUnits="objectBoundingBox">
      <stop offset="0" stop-color="#09005d"/>
      <stop offset="1" stop-color="#1a0f91"/>
    </linearGradient>
    <linearGradient id="linear-gradient-2" y1="0.5" x2="1" y2="0.5" gradientUnits="objectBoundingBox">
      <stop offset="0" stop-color="#febbba"/>
      <stop offset="1" stop-color="#ff928e"/>
    </linearGradient>
    <linearGradient id="linear-gradient-3" x1="0" y1="0.5" x2="1" y2="0.5" xlink:href="#linear-gradient"/>
    <linearGradient id="linear-gradient-4" x1="3.079" y1="-2.223" x2="-3.937" y2="5.384" xlink:href="#linear-gradient"/>
    <linearGradient id="linear-gradient-5" x1="0" y1="0.5" x2="1" y2="0.5" xlink:href="#linear-gradient-2"/>
    <linearGradient id="linear-gradient-7" x1="1084.288" y1="1.605" x2="1086.288" y2="4.278" xlink:href="#linear-gradient-2"/>
    <linearGradient id="linear-gradient-8" x1="0.339" y1="0.706" x2="2.358" y2="-1.072" xlink:href="#linear-gradient-2"/>
    <linearGradient id="linear-gradient-9" x1="0" y1="0.5" x2="1" y2="0.5" xlink:href="#linear-gradient-2"/>
    <linearGradient id="linear-gradient-10" x1="0.384" y1="-0.062" x2="0.898" y2="2.428" xlink:href="#linear-gradient"/>
    <linearGradient id="linear-gradient-11" x1="1.306" y1="-2.279" x2="-0.546" y2="4.058" gradientUnits="objectBoundingBox">
      <stop offset="0" stop-color="#4f52ff"/>
      <stop offset="1" stop-color="#4042e2"/>
    </linearGradient>
    <linearGradient id="linear-gradient-12" x1="1.24" y1="-2.806" x2="0.27" y2="1.549" xlink:href="#linear-gradient-11"/>
    <linearGradient id="linear-gradient-14" x1="-0.324" y1="2.006" x2="0.663" y2="0.304" xlink:href="#linear-gradient-2"/>
    <linearGradient id="linear-gradient-15" x1="-268.405" y1="-115.258" x2="-269.477" y2="-113.976" xlink:href="#linear-gradient-2"/>
    <linearGradient id="linear-gradient-16" x1="-0.575" y1="1.37" x2="1.998" y2="-0.671" xlink:href="#linear-gradient-2"/>
    <linearGradient id="linear-gradient-17" x1="-1290.148" y1="-75.967" x2="-1288.094" y2="-81.36" xlink:href="#linear-gradient"/>
    <linearGradient id="linear-gradient-18" x1="-954.957" y1="1.602" x2="-953.922" y2="-1.187" xlink:href="#linear-gradient-2"/>
    <linearGradient id="linear-gradient-19" x1="-801.989" y1="-52.772" x2="-800.72" y2="-56.448" xlink:href="#linear-gradient"/>
    <linearGradient id="linear-gradient-20" x1="-425.482" y1="1.698" x2="-425.018" y2="-1.193" xlink:href="#linear-gradient-2"/>
    <linearGradient id="linear-gradient-21" x1="0.429" y1="1.282" x2="0.557" y2="0.002" xlink:href="#linear-gradient-2"/>
    <linearGradient id="linear-gradient-22" x1="-738.12" y1="0.5" x2="-737.12" y2="0.5" xlink:href="#linear-gradient-2"/>
    <linearGradient id="linear-gradient-23" x1="-917.983" y1="-107.028" x2="-916.449" y2="-109.282" xlink:href="#linear-gradient-2"/>
    <linearGradient id="linear-gradient-24" x1="-3466.659" y1="-339.958" x2="-3460.867" y2="-347.1" xlink:href="#linear-gradient-2"/>
  </defs>
  <path id="Trazado_193938" data-name="Trazado 193938" d="M176.23,127.654c-18.258,42.674-66.451,61-104.212,57.879-10.31-.853-31.054-2.57-47.251-17.888-31.106-29.415-26.315-90.9,3.462-127.1,3.834-4.661,30.377-35.895,71.74-35.477,30.283.306,51.539,17.413,54.123,19.544a83.36,83.36,0,0,1,16.957,19.239C186.3,67.695,187.639,100.987,176.23,127.654Z" fill="#e5e1f1"/>
  <g id="Grupo_135391" data-name="Grupo 135391">
    <path id="Trazado_193939" data-name="Trazado 193939" d="M120.681,156.978,155.488,90.3h-7.131a1.558,1.558,0,0,1-1.2-2.546l37.1-45.213a2.617,2.617,0,0,1,4.635,1.813l-2.608,44.214a4.417,4.417,0,0,1-4.912,4.129l-4.972-.569-34.535,74.79a5.5,5.5,0,0,1-4.993,3.194H124.895Z" fill="#fdb74d"/>
    <path id="Trazado_193940" data-name="Trazado 193940" d="M91.9,110.211,116.477,164.8a9.009,9.009,0,0,0,8.217,5.313h12.668a4.625,4.625,0,0,0,4.044-2.382l.451-.812h0a3.621,3.621,0,0,1-3.226-1.975l-32.74-64.15Z" fill="#fdb74d"/>
    <path id="Trazado_193941" data-name="Trazado 193941" d="M109.2,107.27h0a5.373,5.373,0,0,0-7.8,1.24L65.265,162.79a15.607,15.607,0,0,1-12.992,6.96H47.189l-4.137-11.918s33.587-51.5,42.244-59.291c0,0,8.621-7.77,17.121-1.895a14.18,14.18,0,0,1,4.992,6.29Z" fill="#fdb74d"/>
    <path id="Trazado_193942" data-name="Trazado 193942" d="M3.757,125.778a27.287,27.287,0,0,1,17.767-8.736s5.566,1.9,16.655,21.767,18.449,28.93,27.086,23.981l-.715,1.188a13.028,13.028,0,0,1-11.158,6.305H48.615c-5.26,0-9.827-8.1-12.9-12.371C27.086,145.915,9.058,127.64,3.757,125.778Z" fill="#fdb74d"/>
    <path id="Trazado_193943" data-name="Trazado 193943" d="M184.7,58.322l-.038,0a.334.334,0,0,1-.295-.37l.245-2.159a.335.335,0,1,1,.665.076l-.244,2.158A.337.337,0,0,1,184.7,58.322Z" fill="#fedc72"/>
    <path id="Trazado_193944" data-name="Trazado 193944" d="M153.731,85.573a.335.335,0,0,1-.265-.539l30.633-39.8a1.275,1.275,0,0,1,2.277.921l-.541,4.771a.335.335,0,0,1-.665-.075l.54-4.771a.605.605,0,0,0-1.081-.438L154,85.442A.332.332,0,0,1,153.731,85.573Z" fill="#fedc72"/>
    <path id="Trazado_193945" data-name="Trazado 193945" d="M84.237,127.3a.341.341,0,0,1-.187-.057.335.335,0,0,1-.09-.465L99.8,103.295a2.782,2.782,0,0,1,4.822.365.335.335,0,1,1-.605.287,2.113,2.113,0,0,0-3.661-.278L84.515,127.152A.333.333,0,0,1,84.237,127.3Z" fill="#fedc72"/>
    <g id="Grupo_135390-2" data-name="Grupo 135390">
      <path id="Trazado_193946" data-name="Trazado 193946" d="M80.12,133.4a.334.334,0,0,1-.277-.522l1.016-1.506a.335.335,0,0,1,.555.375L80.4,133.255A.332.332,0,0,1,80.12,133.4Z" fill="#fedc72"/>
    </g>
  </g>
  <g id="Grupo_135396" data-name="Grupo 135396">
    <path id="Trazado_193947" data-name="Trazado 193947" d="M85.657,180.167s-.443,2.512-.661,5a1.713,1.713,0,0,0,1.639,1.856c3.311.138,10.394.406,12.935.293a.558.558,0,0,0,.491-.764h0a1.252,1.252,0,0,0-.638-.672l-11.7-5.377Z" fill="url(#linear-gradient)"/>
    <path id="Trazado_193948" data-name="Trazado 193948" d="M85.294,178.691l.356,3s2.05.955,3.449-.12l-.848-3.348Z" fill="url(#linear-gradient-2)"/>
    <path id="Trazado_193949" data-name="Trazado 193949" d="M85.562,122.207c-.154.785-.827,39.153,3.275,56.347a.584.584,0,0,1-.343.679,10.147,10.147,0,0,1-3.34.678,1,1,0,0,1-1-.721c-1.172-3.989-6.79-23.977-7.523-43.07-.819-21.335,0-.727,0-.727l.481-13.188Z" fill="url(#linear-gradient-3)"/>
    <path id="Trazado_193950" data-name="Trazado 193950" d="M72.2,181.477a18.087,18.087,0,0,0-1.39,4.638,1.045,1.045,0,0,0,.92,1.251c1.093.108,2.777.246,4.125.237a1.043,1.043,0,0,0,1.032-1.163,8.8,8.8,0,0,0-2.052-4.82Z" fill="url(#linear-gradient-4)"/>
    <path id="Trazado_193951" data-name="Trazado 193951" d="M71.579,177.613l.833,4.543a2.938,2.938,0,0,0,2.453.169l-.4-4.889Z" fill="url(#linear-gradient-5)"/>
    <path id="Trazado_193952" data-name="Trazado 193952" d="M69.329,123.384c-3.354,20.244.728,50.034,2.1,55.864a.912.912,0,0,0,.734.691,6.117,6.117,0,0,0,2.624-.1.833.833,0,0,0,.6-.767c.185-4.714-.148-33.653,2.978-45.089a2.6,2.6,0,0,1,1-1.434l6.066-4.312.465-6.971Z" fill="url(#linear-gradient-3)"/>
    <g id="Grupo_135392" data-name="Grupo 135392">
      <path id="Trazado_193953" data-name="Trazado 193953" d="M90.7,85.027c-10.053-.166-21.144,2.64-21.144,2.64-3,17.483-.524,37.649-.524,37.649,7.782,2.041,16.561-1.248,16.561-1.248,1.293-7.307,7.328-27.874,7.328-27.874a33.093,33.093,0,0,0,12.29-3.9,21.557,21.557,0,0,1-4.261-8.91A33.746,33.746,0,0,1,90.7,85.027Z" fill="#fff"/>
      <path id="Trazado_193954" data-name="Trazado 193954" d="M120.395,70.221a1.923,1.923,0,0,0-2.237-.629c-1.48,6.249-9.236,11.315-17.2,13.792a21.557,21.557,0,0,0,4.261,8.91C118.438,84.859,120.395,70.221,120.395,70.221Z" fill="#fff"/>
    </g>
    <g id="Grupo_135393" data-name="Grupo 135393">
      <path id="Trazado_193955" data-name="Trazado 193955" d="M120.155,70.524c.1.329-1.093.829-1.8-.515-.025-.643-.417-3.4-.032-3.926a51.351,51.351,0,0,1,6.022-6.3.945.945,0,0,1,.118,1.313l-1.927,2.008a9.313,9.313,0,0,1,1.125,2.225,2.7,2.7,0,0,1-.269,1.987c-.338.61-.8,1.4-1.236,2.022A2.668,2.668,0,0,1,120.155,70.524Z" fill="url(#linear-gradient-7)"/>
      <path id="Trazado_193956" data-name="Trazado 193956" d="M121.7,64.411,119.94,65.9l-.552,1.482,1.566,1.737a20.243,20.243,0,0,1,.918-3.578C122.263,64.9,122.06,64.6,121.7,64.411Z" fill="url(#linear-gradient-8)"/>
    </g>
    <path id="Trazado_193957" data-name="Trazado 193957" d="M73.415,97.4l-3.856-9.733s-9.389,6.379-10.933,14.468a22.214,22.214,0,0,1,8.162,2.187C67.482,100.5,73.415,97.4,73.415,97.4Z" fill="#fff"/>
    <path id="Trazado_193958" data-name="Trazado 193958" d="M81.62,106.559s-10.542,5.958-14.1.87a4,4,0,0,1-.733-3.107,22.214,22.214,0,0,0-8.162-2.187,11.16,11.16,0,0,0,1.213,7.653c6.231,11.4,23.176-.63,23.176-.63Z" fill="url(#linear-gradient-9)"/>
    <g id="Grupo_135394" data-name="Grupo 135394">
      <path id="Trazado_193959" data-name="Trazado 193959" d="M80.353,114.1,86.107,94a.585.585,0,0,1,.495-.422c1.042-.121,4.063-.463,7.55-.758a85.724,85.724,0,0,1,12-.4.588.588,0,0,1,.48.846c-1.658,3.354-8.476,17-11.891,21.465a.589.589,0,0,1-.474.233l-13.349-.124A.588.588,0,0,1,80.353,114.1Z" fill="url(#linear-gradient-10)"/>
      <path id="Trazado_193960" data-name="Trazado 193960" d="M94.749,91.082l4.171-.695a.3.3,0,0,1,.334.389l-.413,1.252a.3.3,0,0,1-.245.2l-4.014.536a.3.3,0,0,1-.331-.365l.256-1.093A.3.3,0,0,1,94.749,91.082Z" fill="url(#linear-gradient-11)"/>
      <path id="Trazado_193961" data-name="Trazado 193961" d="M91.626,94.614l.343-1.79a.415.415,0,0,1,.365-.334l8.425-.855a.413.413,0,0,1,.444.508l-.536,2.231a.413.413,0,0,1-.381.316l-8.233.415A.414.414,0,0,1,91.626,94.614Z" fill="url(#linear-gradient-12)"/>
      <path id="Trazado_193962" data-name="Trazado 193962" d="M81.743,109.242s-.8-3.3-.478-4.465.95-2.672,3.038-2.338a30.591,30.591,0,0,1,4.55,1.213,1.2,1.2,0,0,1-1.711,1.032l.984.761s-.141,1.22-1.481.568l.915,1.01a1.067,1.067,0,0,1-1.562.359C85.012,106.74,84.54,109.639,81.743,109.242Z" fill="url(#linear-gradient-9)"/>
    </g>
    <path id="Trazado_193963" data-name="Trazado 193963" d="M80.521,76.866l-3.2,9.25a.333.333,0,0,0,.152.4,7.518,7.518,0,0,0,7.8-.524A1.569,1.569,0,0,0,86,84.872l1.036-8.006Z" fill="url(#linear-gradient-14)"/>
    <g id="Grupo_135395" data-name="Grupo 135395">
      <path id="Trazado_193964" data-name="Trazado 193964" d="M85.627,66.866C85.752,66.984,90.9,77.1,90.9,77.1L85.065,79.92l-6.307-8.863S83.534,64.9,85.627,66.866Z" fill="url(#linear-gradient-15)"/>
      <path id="Trazado_193965" data-name="Trazado 193965" d="M81.341,71.3a.936.936,0,0,0,.07.818l2.912,4.855a.926.926,0,0,0,.16.2,1.528,1.528,0,0,0,2.45-.016,8.229,8.229,0,0,1,2.3-2.488.931.931,0,0,1,1.256.414,34.722,34.722,0,0,1,1.993,4.728.927.927,0,0,1-.539,1.137,25.832,25.832,0,0,1-5.593,1.631.933.933,0,0,1-.881-.374c-.892-1.222-3.406-4.638-4.265-5.493-.8-.794-2.268-.495-2.932-.3a.939.939,0,0,1-.744-.1,2.052,2.052,0,0,1-.772-3.123.932.932,0,0,0-.289-1.266A2.06,2.06,0,0,1,75.679,69a2.9,2.9,0,0,1,3.146-1.54.965.965,0,0,0,1.014-.564.617.617,0,0,1,.481-.379.905.905,0,0,0,.732-1.062,2.385,2.385,0,0,1,1.332-2.733c2.519-1.385,4.726.872,5.287,2.777s-2.256,3.252-4.027,3.477C82.342,69.139,81.628,70.559,81.341,71.3Z" fill="#42210b"/>
      <path id="Trazado_193966" data-name="Trazado 193966" d="M82.3,78.5s-1.12-3.278-2.554-3.158-2.563,1.549-.786,3.155C81.17,80.49,82.3,78.5,82.3,78.5Z" fill="url(#linear-gradient-16)"/>
    </g>
  </g>
  <g id="Grupo_135398" data-name="Grupo 135398">
    <path id="Trazado_193967" data-name="Trazado 193967" d="M53.528,73.072s-2.613,1.271-3.093,2.73c-.385,1.172-3.274,1.323-3.559,3.626a2.643,2.643,0,0,1-2.212,2.323c-2.95.452-7.5,1.984-8.223,7.106-.556,3.909,1.437,5.392,3.529,5.9a2.962,2.962,0,0,1,2.246,3.422c-.3,1.488.147,3.207,2.724,4.567,5.775,3.048,11.543-7.219,11.543-7.219l1.182-17.927Z"/>
    <path id="Trazado_193968" data-name="Trazado 193968" d="M29.789,185.478l-.374,3.072a1.267,1.267,0,0,1-1.113,1.11,19.642,19.642,0,0,1-4.112.065,1.087,1.087,0,0,1-.912-1.41,11.182,11.182,0,0,1,2.061-4.014h3.408A1.05,1.05,0,0,1,29.789,185.478Z" fill="url(#linear-gradient-17)"/>
    <path id="Trazado_193969" data-name="Trazado 193969" d="M56.483,149.488l.575,3.384s-1.927,19.512-2.269,27.317a6.115,6.115,0,0,0,.9,3.476l3.349,5.439-8.512-5.023-.17-1.039,1.394-1.916-1.826-21.858a6.706,6.706,0,0,1,.764-3.71l1.76-3.308Z" fill="url(#linear-gradient-18)"/>
    <path id="Trazado_193970" data-name="Trazado 193970" d="M59.6,189.892H56.887a1.635,1.635,0,0,1-1.3-.636c-.847-1.1-2.6-3.247-3.44-3.3-1.13-.076-.985,3.939-.985,3.939h-.633l-.8-4.989a2.953,2.953,0,0,1,1.549-3.087h0a4.179,4.179,0,0,0,1.659,2.754c1.4.844,5.7,3.869,5.7,3.869a3.89,3.89,0,0,1,1.1.029A.718.718,0,0,1,59.6,189.892Z" fill="url(#linear-gradient-19)"/>
    <path id="Trazado_193971" data-name="Trazado 193971" d="M44.823,151.1S33.537,172.5,31.744,177.39a46.938,46.938,0,0,0-2.447,9.351c-.037.6-.788,1.181-2.856,1.181a1.984,1.984,0,0,1-1.847-.842,1.207,1.207,0,0,1-.045-1.168c.653-1.321,2.724-5.543,3.491-7.457.917-2.287,2.887-12.648,3.968-16.25s2.3-7.51,7.008-11.11C39.016,151.1,42.246,147.931,44.823,151.1Z" fill="url(#linear-gradient-20)"/>
    <path id="Trazado_193972" data-name="Trazado 193972" d="M51.952,116.019c2.911-12.335-4.464-19.312-4.464-19.312,4.653-4.466,13.131-6.5,13.131-6.5s8.09,5.915,7.131,10.544C67.187,103.465,62.063,117,62.063,117A11.254,11.254,0,0,1,51.952,116.019Z" fill="#fedc72"/>
    <path id="Trazado_193973" data-name="Trazado 193973" d="M45.5,122.126c1.185-3.569,6.455-6.107,6.455-6.107A11.254,11.254,0,0,0,62.063,117a20.269,20.269,0,0,1,.329,7.836c-.733,3.775-5.334,28.032-5.334,28.032-7.25,1.469-18.4-1.478-18.4-1.478C43.275,143.2,44.313,125.695,45.5,122.126Z" fill="#1a1a1a"/>
    <path id="Trazado_193974" data-name="Trazado 193974" d="M55.331,82.057,52.964,92.688c-.227.936.627.783,1.574.6,1.55-.292,3.548-.894,4.216-2.1a1.145,1.145,0,0,0,.121-.4l1.017-7.372a1.324,1.324,0,0,0-.775-1.392l-1.962-.87A1.324,1.324,0,0,0,55.331,82.057Z" fill="url(#linear-gradient-21)"/>
    <path id="Trazado_193975" data-name="Trazado 193975" d="M47.488,96.707s-16.519,11.819-2.112,24.237a3.717,3.717,0,0,0,1.629.945,17.936,17.936,0,0,1,2.978,2.02.561.561,0,0,0,.82-.147h0a.764.764,0,0,0,.043-.734L48.8,118.7a1.578,1.578,0,0,0-2.049-.088h0a.779.779,0,0,1-1.18-.268c-1.113-2.268-3.216-8.939,5.391-16.476a.935.935,0,0,0,.207-1.134C50.565,99.575,49.182,97.268,47.488,96.707Z" fill="url(#linear-gradient-22)"/>
    <g id="Grupo_135397" data-name="Grupo 135397">
      <path id="Trazado_193976" data-name="Trazado 193976" d="M59.864,72.365a10.487,10.487,0,0,1,3.6,6.05c1.083,4.343-.677,5.9-2.48,5.806a8.372,8.372,0,0,1-6.685-3.77C52.036,77.335,56.562,70.281,59.864,72.365Z" fill="url(#linear-gradient-23)"/>
      <path id="Trazado_193977" data-name="Trazado 193977" d="M56.586,78.7s-.923-6.223,4.245-5.271l1.044,1.087s2.53-2.848-.269-5-6.684-1.6-8.833,2.318-2.928,6.674-1.127,9.11,3.156.347,3.156.347-.826-2.108-.141-3.013,1.57.526,1.57.526Z"/>
      <path id="Trazado_193978" data-name="Trazado 193978" d="M55.88,79.232s-.456-3.2-2.091-2.286.589,2.991,1.481,3.7Z" fill="url(#linear-gradient-24)"/>
    </g>
  </g>
  <g id="Grupo_135401" data-name="Grupo 135401">
    <g id="Grupo_135400" data-name="Grupo 135400">
      <circle id="Elipse_6003" data-name="Elipse 6003" cx="19.66" cy="19.66" r="19.66" transform="matrix(0.401, -0.916, 0.916, 0.401, 136.598, 130.616)" fill="#8c6df2"/>
      <circle id="Elipse_6004" data-name="Elipse 6004" cx="19.006" cy="19.006" r="19.006" transform="matrix(0.555, -0.832, 0.832, 0.555, 136.136, 125.763)" fill="#5038a1"/>
      <path id="Trazado_193979" data-name="Trazado 193979" d="M146.82,113.032a.436.436,0,0,1-.389-.632,17.9,17.9,0,0,1,16.061-9.889,18.112,18.112,0,0,1,3.244.292.436.436,0,0,1-.157.858,17.137,17.137,0,0,0-18.37,9.132A.434.434,0,0,1,146.82,113.032Z" fill="#fff" opacity="0.78"/>
      <circle id="Elipse_6005" data-name="Elipse 6005" cx="16.086" cy="16.086" r="16.086" transform="matrix(0.984, -0.178, 0.178, 0.984, 144.208, 107.948)" fill="#fff" opacity="0.78"/>
      <g id="Grupo_135399" data-name="Grupo 135399">
        <path id="Trazado_193980" data-name="Trazado 193980" d="M161.328,132.864v-1.75a14.273,14.273,0,0,1-4.911-1.065,1.012,1.012,0,0,1-.559-1.2l.444-1.63a1.02,1.02,0,0,1,1.385-.667,11.855,11.855,0,0,0,4.534.954c1.758,0,3.068-.6,3.068-1.817,0-1.1-1.012-1.757-3.455-2.412-3.484-.953-5.986-2.472-5.986-5.54,0-2.77,2.025-4.884,5.54-5.45V110.54a1.019,1.019,0,0,1,1.019-1.019h1.029a1.019,1.019,0,0,1,1.019,1.019v1.572a13,13,0,0,1,3.893.7,1.016,1.016,0,0,1,.634,1.225l-.409,1.507a1.017,1.017,0,0,1-1.343.687,10.628,10.628,0,0,0-3.817-.693c-2.085,0-2.681.864-2.681,1.638,0,.953,1.251,1.608,3.961,2.443,3.872,1.161,5.481,2.769,5.481,5.658,0,2.651-1.966,5.034-5.778,5.63v1.958a1.02,1.02,0,0,1-1.02,1.02h-1.028A1.02,1.02,0,0,1,161.328,132.864Z" fill="#5038a1"/>
      </g>
    </g>
    <rect id="Rectángulo_44821" data-name="Rectángulo 44821" width="38.522" height="7.338" rx="0.242" transform="translate(143.231 145.249)" fill="#8c6df2"/>
    <rect id="Rectángulo_44822" data-name="Rectángulo 44822" width="38.522" height="7.338" rx="0.242" transform="translate(143.262 153.962)" fill="#8c6df2"/>
    <rect id="Rectángulo_44823" data-name="Rectángulo 44823" width="38.522" height="7.338" rx="0.242" transform="translate(143.292 162.675)" fill="#8c6df2"/>
    <rect id="Rectángulo_44824" data-name="Rectángulo 44824" width="38.522" height="7.338" rx="0.242" transform="translate(143.322 171.389)" fill="#8c6df2"/>
    <rect id="Rectángulo_44825" data-name="Rectángulo 44825" width="38.522" height="7.338" rx="0.242" transform="translate(143.352 180.102)" fill="#8c6df2"/>
  </g>
  <g id="Grupo_135404" data-name="Grupo 135404">
    <g id="Grupo_135403" data-name="Grupo 135403">
      <circle id="Elipse_6006" data-name="Elipse 6006" cx="19.66" cy="19.66" r="19.66" transform="translate(93.903 150.611) rotate(-68.561)" fill="#5038a1"/>
      <circle id="Elipse_6007" data-name="Elipse 6007" cx="19.006" cy="19.006" r="19.006" transform="matrix(0.472, -0.882, 0.882, 0.472, 93.663, 147.286)" fill="#8c6df2"/>
      <path id="Trazado_193981" data-name="Trazado 193981" d="M103.716,132.038a.436.436,0,0,1-.389-.632,17.9,17.9,0,0,1,16.061-9.889,18.187,18.187,0,0,1,3.244.291.436.436,0,0,1-.157.858,17.272,17.272,0,0,0-3.087-.277,17.036,17.036,0,0,0-15.282,9.41A.437.437,0,0,1,103.716,132.038Z" fill="#fff" opacity="0.78"/>
      <circle id="Elipse_6008" data-name="Elipse 6008" cx="16.086" cy="16.086" r="16.086" transform="translate(102.209 125.489) rotate(-5.655)" fill="#fff" opacity="0.78"/>
      <g id="Grupo_135402" data-name="Grupo 135402">
        <path id="Trazado_193982" data-name="Trazado 193982" d="M118.224,151.87v-1.75a14.273,14.273,0,0,1-4.911-1.065,1.012,1.012,0,0,1-.559-1.2l.444-1.63a1.021,1.021,0,0,1,1.386-.667,11.845,11.845,0,0,0,4.533.954c1.758,0,3.068-.6,3.068-1.817,0-1.1-1.012-1.757-3.455-2.412-3.484-.953-5.986-2.472-5.986-5.54,0-2.77,2.025-4.884,5.54-5.45v-1.751a1.019,1.019,0,0,1,1.019-1.019h1.029a1.019,1.019,0,0,1,1.019,1.019v1.572a13,13,0,0,1,3.893.7,1.016,1.016,0,0,1,.634,1.225l-.409,1.507a1.017,1.017,0,0,1-1.343.687,10.628,10.628,0,0,0-3.817-.693c-2.085,0-2.681.864-2.681,1.638,0,.953,1.251,1.608,3.962,2.443,3.871,1.161,5.48,2.769,5.48,5.658,0,2.651-1.966,5.034-5.778,5.63v1.958a1.02,1.02,0,0,1-1.02,1.02h-1.028A1.02,1.02,0,0,1,118.224,151.87Z" fill="#8c6df2"/>
      </g>
    </g>
    <rect id="Rectángulo_44826" data-name="Rectángulo 44826" width="38.522" height="7.338" rx="0.242" transform="translate(101.529 162.675)" fill="#5038a1"/>
    <rect id="Rectángulo_44827" data-name="Rectángulo 44827" width="38.522" height="7.338" rx="0.242" transform="translate(101.56 171.389)" fill="#5038a1"/>
    <rect id="Rectángulo_44828" data-name="Rectángulo 44828" width="38.522" height="7.338" rx="0.242" transform="translate(101.59 180.102)" fill="#5038a1"/>
  </g>
  <g id="Grupo_135405" data-name="Grupo 135405">
    <circle id="Elipse_5247" data-name="Elipse 5247" cx="14.58" cy="14.58" r="14.58" transform="translate(136.245 21.196)" fill="#5038a1" opacity="0.7" style="isolation: isolate"/>
    <g id="Elipse_5249" data-name="Elipse 5249">
      <circle id="Elipse_6009" data-name="Elipse 6009" cx="5.494" cy="5.494" r="5.494" transform="translate(147.132 25.842)" fill="none"/>
      <circle id="Elipse_6010" data-name="Elipse 6010" cx="4.86" cy="4.86" r="4.86" transform="translate(147.766 26.476)" fill="none" stroke="#fff" stroke-width="1.268"/>
    </g>
    <g id="Elipse_5250" data-name="Elipse 5250">
      <circle id="Elipse_6011" data-name="Elipse 6011" cx="2.958" cy="2.958" r="2.958" transform="translate(110.675 17.8)" fill="#fdb74d"/>
      <circle id="Elipse_6012" data-name="Elipse 6012" cx="2.324" cy="2.324" r="2.324" transform="translate(111.309 18.433)" fill="#fdb74d" stroke="#8c6df2" stroke-width="1.268"/>
    </g>
    <circle id="Elipse_5251" data-name="Elipse 5251" cx="1.902" cy="1.902" r="1.902" transform="translate(129.997 34.002)" fill="#fdb74d"/>
  </g>
  <g id="Grupo_135406" data-name="Grupo 135406">
    <circle id="Elipse_6013" data-name="Elipse 6013" cx="26.368" cy="26.368" r="26.368" transform="translate(5.744 5.585)" fill="#fdb74d" opacity="0.5"/>
    <g id="Elipse_4972" data-name="Elipse 4972">
      <circle id="Elipse_6014" data-name="Elipse 6014" cx="24.35" cy="24.35" r="24.35" transform="translate(7.762 7.604)" fill="none"/>
      <circle id="Elipse_6015" data-name="Elipse 6015" cx="23.051" cy="23.051" r="23.051" transform="translate(9.06 8.902)" fill="none" stroke="#fff" stroke-linecap="round" stroke-width="2.597" stroke-dasharray="1.948 5.195"/>
    </g>
  </g>
  <rect id="Rectángulo_44829" data-name="Rectángulo 44829" width="190" height="190" fill="none"/>
</svg>
