<svg id="Grupo_135407" data-name="Grupo 135407" xmlns="http://www.w3.org/2000/svg" xmlns:xlink="http://www.w3.org/1999/xlink" width="400" height="380" viewBox="0 0 400 380">
  <defs>
    <linearGradient id="linear-gradient" x1="0.357" y1="0.094" x2="0.787" y2="1.41" gradientUnits="objectBoundingBox">
      <stop offset="0" stop-color="#444b8c"/>
      <stop offset="0.996" stop-color="#26264f"/>
    </linearGradient>
    <linearGradient id="linear-gradient-2" x1="0.361" y1="0.093" x2="0.789" y2="1.427" gradientUnits="objectBoundingBox">
      <stop offset="0" stop-color="#aa80f9"/>
      <stop offset="0.996" stop-color="#6165d7"/>
    </linearGradient>
    <linearGradient id="linear-gradient-3" y1="0.5" x2="1" y2="0.5" gradientUnits="objectBoundingBox">
      <stop offset="0" stop-color="#fff"/>
      <stop offset="0.996" stop-color="#ebeff2"/>
    </linearGradient>
  </defs>
  <path id="Trazado_193983" data-name="Trazado 193983" d="M377.966,255.843c-39.358,87.3-143.249,124.793-224.649,118.4-22.226-1.745-66.944-5.258-101.861-36.591C-15.6,277.478-5.272,151.7,58.919,77.644c8.266-9.537,65.485-73.43,154.65-72.575,65.282.626,111.1,35.62,116.674,39.98A174,174,0,0,1,366.8,84.406C399.67,133.189,402.56,201.291,377.966,255.843Z" fill="#e5e1f1"/>
  <path id="Trazado_139920" data-name="Trazado 139920" d="M23.344,366.78a5.629,5.629,0,0,0-.163.612c-.6,2.906,1.411,5.146,4.486,5a7.423,7.423,0,0,0,6.654-5.538,138.917,138.917,0,0,1,10.206-30.119,164.816,164.816,0,0,1,17.094-28.664l1.258-1.709,1.311-1.676c.866-1.121,1.768-2.218,2.674-3.31q2.7-3.293,5.606-6.415c.954-1.052,1.962-2.058,2.937-3.085.993-1.015,2.013-2,3.013-3,1.042-.963,2.049-1.95,3.119-2.887s2.1-1.887,3.194-2.78,2.15-1.809,3.258-2.666c.552-.431,1.094-.871,1.652-1.288l1.676-1.241c1.1-.847,2.26-1.6,3.382-2.394,1.143-.758,2.284-1.513,3.434-2.232,1.162-.7,2.3-1.427,3.476-2.063.584-.322,1.16-.661,1.745-.975l1.751-.909c.295-.15.58-.308.879-.451l.911-.425,1.815-.846c1.229-.519,2.441-1.065,3.675-1.545a128.692,128.692,0,0,1,30.4-7.733c10.387-1.447,20.951-2.046,31.92-2.648,5.488-.308,11.073-.584,16.827-1,2.869-.192,5.795-.452,8.747-.73,1.491-.157,2.972-.3,4.483-.478l4.406-.527c11.276-1.371,22.925-2.934,35.008-5.28a249.018,249.018,0,0,0,37.734-10.225,176.493,176.493,0,0,0,19.987-8.664,152.648,152.648,0,0,0,20.177-12.318c3.31-2.4,6.568-4.985,9.728-7.731,1.585-1.37,3.133-2.793,4.667-4.244.761-.729,1.5-1.432,2.267-2.21s1.536-1.553,2.277-2.347a124.131,124.131,0,0,0,15.644-20.36c1.1-1.8,2.159-3.6,3.147-5.436.531-.966.907-1.708,1.348-2.526l1.269-2.42c.84-1.617,1.63-3.268,2.4-4.927s1.493-3.345,2.233-5.027a130.519,130.519,0,0,0,6.855-20.917,110.1,110.1,0,0,0,2.931-21.447,101.509,101.509,0,0,0-14.807-56.771,129.57,129.57,0,0,0-22.685-27.848A156.346,156.346,0,0,0,325.7,20.938c-2.414-1.788-4.9-3.519-7.511-5.214-1.313-.846-2.648-1.689-4.069-2.533-.711-.424-1.435-.845-2.222-1.28l-1.235-.668-.7-.359-.431-.209-.652-.293c-21.889-8.537-51.708,3.257-66.595,26.338s-9.207,48.716,12.683,57.254l-.221-.119c-.051-.032-.018-.029-.018-.029l.018-.011c.012-.017.1,0,.148-.005a4.391,4.391,0,0,1,.458.066c.339.054.734.149,1.127.241.8.191,1.651.421,2.505.677,1.72.521,3.482,1.112,5.224,1.759a93.253,93.253,0,0,1,10.186,4.461,79.222,79.222,0,0,1,17.247,11.627,49.566,49.566,0,0,1,11.229,14.428,36.283,36.283,0,0,1,2.982,8.208,40.024,40.024,0,0,1,1.059,9.109,51.245,51.245,0,0,1-.978,10.189c-.206.9-.37,1.8-.591,2.719-.25.921-.453,1.844-.726,2.781l-.8,2.72c-.192.715-.432,1.435-.667,2.15a40.181,40.181,0,0,1-4.1,8.38c-.21.341-.436.673-.658,1.008l-.765,1.074c-.527.718-1.068,1.435-1.649,2.141-1.152,1.418-2.4,2.827-3.775,4.221a93.167,93.167,0,0,1-21.512,15.684q-3.234,1.8-6.673,3.463t-7.044,3.215c-4.795,2.074-9.78,4.012-14.892,5.838-10.23,3.658-20.94,6.848-31.984,9.973l-3.964,1.115c-1.279.361-2.582.695-3.884,1.047-2.622.671-5.265,1.332-7.964,1.959-5.38,1.262-10.906,2.45-16.531,3.634-11.25,2.388-22.954,4.85-34.919,8.388A170.135,170.135,0,0,0,107,250.828c-1.451.806-2.878,1.684-4.306,2.531-1.416.905-2.811,1.762-4.227,2.708l-2.111,1.4c-.695.478-1.373.973-2.058,1.458-1.378.957-2.688,1.991-4.011,3a145.2,145.2,0,0,0-14.5,13.1A194.411,194.411,0,0,0,52.764,304.1a242.817,242.817,0,0,0-17.019,30.89,300.053,300.053,0,0,0-12.394,31.758Z" fill="#fdb74d" opacity="0.45"/>
  <g id="Grupo_135413" data-name="Grupo 135413">
    <g id="Grupo_135407-2" data-name="Grupo 135407" opacity="0.3">
      <path id="Trazado_193984" data-name="Trazado 193984" d="M230.507,50.427a.7.7,0,0,1,.83.444c.27.747.512,1.518.718,2.289a.7.7,0,0,1-.5.862l-.014,0a.7.7,0,0,1-.848-.5c-.2-.733-.426-1.465-.683-2.175a.7.7,0,0,1,.423-.9C230.459,50.44,230.483,50.433,230.507,50.427Zm1.428,5.961a.54.54,0,0,1,.082-.015.7.7,0,0,1,.786.61c.1.792.165,1.6.2,2.39a.7.7,0,0,1-1.406.056c-.03-.754-.093-1.518-.188-2.271A.7.7,0,0,1,231.935,56.388Zm.08,6.127a.7.7,0,0,1,.869.753c-.079.793-.194,1.592-.341,2.375a.7.7,0,1,1-1.383-.259c.14-.744.248-1.5.324-2.256A.7.7,0,0,1,232.015,62.515Zm-1.293,5.993a.7.7,0,0,1,.835.908c-.254.755-.545,1.508-.863,2.239a.7.7,0,1,1-1.29-.562c.3-.694.578-1.409.82-2.127A.7.7,0,0,1,230.722,68.508Zm-2.6,5.554a.7.7,0,0,1,.769,1.05c-.415.678-.864,1.348-1.337,1.991a.7.7,0,1,1-1.134-.833c.449-.611.877-1.248,1.271-1.893A.7.7,0,0,1,228.126,74.062Zm-3.76,4.84a.7.7,0,0,1,.674,1.174c-.555.571-1.142,1.125-1.745,1.646a.7.7,0,0,1-.921-1.063c.572-.5,1.13-1.022,1.658-1.565A.708.708,0,0,1,224.366,78.9ZM199.74,86.72a.71.71,0,0,1,.3-.008c.743.138,1.5.246,2.256.32a.7.7,0,1,1-.137,1.4c-.794-.077-1.594-.191-2.377-.336a.7.7,0,0,1-.04-1.376Zm19.89-3.933a.7.7,0,0,1,.552,1.274c-.669.433-1.364.842-2.068,1.216a.7.7,0,0,1-.66-1.243c.668-.355,1.328-.743,1.963-1.154A.681.681,0,0,1,219.63,82.787Zm-13.776,4.368a.716.716,0,0,1,.14-.02c.756-.031,1.52-.1,2.272-.192a.7.7,0,0,1,.178,1.4c-.791.1-1.6.169-2.391.2a.7.7,0,0,1-.2-1.386Zm8.291-1.639a.7.7,0,0,1,.409,1.345c-.748.272-1.518.515-2.288.723l-.014,0a.7.7,0,0,1-.352-1.363c.731-.2,1.462-.428,2.173-.687C214.1,85.53,214.121,85.522,214.145,85.516Z" fill="#91b3fa"/>
      <path id="Trazado_193985" data-name="Trazado 193985" d="M194.985,85.381a.7.7,0,0,1,.419.026c.339.129.686.254,1.032.37a.7.7,0,1,1-.449,1.334c-.364-.122-.729-.253-1.085-.39a.7.7,0,0,1,.083-1.34Z" fill="#91b3fa"/>
    </g>
    <g id="Grupo_135408" data-name="Grupo 135408" opacity="0.3">
      <path id="Trazado_193986" data-name="Trazado 193986" d="M179.529,70.5a.7.7,0,0,1,.816.408c.142.334.293.671.449,1a.7.7,0,1,1-1.271.6c-.165-.347-.324-.7-.473-1.053a.7.7,0,0,1,.372-.923A.742.742,0,0,1,179.529,70.5Z" fill="#91b3fa"/>
      <path id="Trazado_193987" data-name="Trazado 193987" d="M198.138,33.184q.473-.117.951-.218a.7.7,0,1,1,.292,1.376c-.737.157-1.466.342-2.174.555a.7.7,0,0,1-.4-1.348C197.24,33.418,197.69,33.295,198.138,33.184Zm4.629-.739a.763.763,0,0,1,.118-.018c.783-.058,1.577-.083,2.36-.074a.7.7,0,0,1-.015,1.407c-.744-.008-1.5.016-2.242.07a.7.7,0,0,1-.221-1.385Zm-9.429,2.412a.7.7,0,0,1,.461,1.323c-.676.309-1.348.651-2,1.017a.7.7,0,0,1-.691-1.226c.684-.385,1.392-.746,2.1-1.071A.73.73,0,0,1,193.338,34.857ZM208.8,32.669a.712.712,0,0,1,.273-.012c.776.116,1.556.266,2.319.447a.7.7,0,1,1-.325,1.369c-.724-.172-1.465-.314-2.2-.424a.7.7,0,0,1-.065-1.38Zm-20.63,5.285a.7.7,0,0,1,.6,1.243c-.592.45-1.172.932-1.725,1.432a.7.7,0,0,1-.944-1.045c.583-.526,1.194-1.033,1.817-1.507A.7.7,0,0,1,188.166,37.954ZM183.8,42.111a.7.7,0,0,1,.708,1.136c-.48.571-.942,1.167-1.372,1.775a.7.7,0,0,1-1.148-.814c.453-.639.938-1.267,1.444-1.867A.7.7,0,0,1,183.8,42.111Zm-3.357,5.011a.7.7,0,0,1,.494.059.7.7,0,0,1,.3.949c-.345.662-.666,1.344-.953,2.031a.7.7,0,0,1-1.3-.545c.3-.721.64-1.441,1-2.136A.7.7,0,0,1,180.442,47.122Zm-2.184,5.623a.688.688,0,0,1,.349,0,.7.7,0,0,1,.5.861c-.191.72-.355,1.457-.484,2.189a.7.7,0,0,1-1.386-.245c.137-.772.309-1.548.51-2.306A.7.7,0,0,1,178.258,52.745Zm-.9,5.967a.75.75,0,0,1,.2-.02.705.705,0,0,1,.677.73c-.028.743-.025,1.5.009,2.241a.7.7,0,1,1-1.4.066c-.037-.784-.04-1.578-.011-2.36A.706.706,0,0,1,177.361,58.712Zm.436,6.015.043-.01a.7.7,0,0,1,.819.565c.1.54.216,1.083.347,1.614.048.192.1.384.149.574a.7.7,0,0,1-.5.863.7.7,0,0,1-.862-.5q-.082-.3-.157-.6c-.138-.559-.261-1.13-.365-1.7A.7.7,0,0,1,177.8,64.727Z" fill="#91b3fa"/>
      <path id="Trazado_193988" data-name="Trazado 193988" d="M214.644,34.222a.7.7,0,0,1,.423.027c.355.138.714.286,1.067.44a.7.7,0,0,1-.563,1.289c-.335-.146-.676-.286-1.013-.417a.7.7,0,0,1,.086-1.339Z" fill="#91b3fa"/>
    </g>
    <path id="Trazado_193989" data-name="Trazado 193989" d="M215.682,42.372a.329.329,0,0,0-.382-.009l-3.314,2.243a17.424,17.424,0,0,0-5.471-1.406l-1.825-3.559a.33.33,0,0,0-.339-.176l-4.753.678a.327.327,0,0,0-.276.263l-.758,3.928a17.41,17.41,0,0,0-4.86,2.878l-3.81-1.228a.329.329,0,0,0-.364.116l-2.881,3.839a.329.329,0,0,0-.01.382l2.243,3.315a17.443,17.443,0,0,0-1.4,5.471l-3.56,1.824a.329.329,0,0,0-.175.339l.677,4.753a.331.331,0,0,0,.263.277l3.928.757a17.453,17.453,0,0,0,2.878,4.861l-1.228,3.809a.329.329,0,0,0,.116.364l3.84,2.882a.329.329,0,0,0,.382.009l3.314-2.243a17.424,17.424,0,0,0,5.471,1.406l1.825,3.559a.33.33,0,0,0,.339.176L210.3,81.2a.327.327,0,0,0,.276-.263l.758-3.928a17.409,17.409,0,0,0,4.86-2.878L220,75.361a.329.329,0,0,0,.364-.116l2.881-3.839a.331.331,0,0,0,.01-.382l-2.243-3.315a17.443,17.443,0,0,0,1.4-5.471l3.56-1.824a.33.33,0,0,0,.175-.339l-.677-4.753a.331.331,0,0,0-.264-.277l-3.927-.757a17.453,17.453,0,0,0-2.878-4.861l1.227-3.809a.327.327,0,0,0-.115-.364Z" fill="#8c6df2"/>
    <g id="Grupo_135409" data-name="Grupo 135409">
      <path id="Trazado_193990" data-name="Trazado 193990" d="M203.793,55.987a4.827,4.827,0,1,1-.674.22A4.832,4.832,0,0,1,203.793,55.987Zm2.037,8.28a3.835,3.835,0,0,0,.522-.171,3.678,3.678,0,1,0-.522.171Z" fill="#bdd0fb"/>
    </g>
    <path id="Trazado_193991" data-name="Trazado 193991" d="M202.023,49.244a12.164,12.164,0,0,1,1.2-.232h0c.128-.019.256-.035.384-.049a12.059,12.059,0,0,1,1.9-.057l.026,0,.073,0,.143.009a.281.281,0,0,1,.253.213.286.286,0,0,1,.008.088.283.283,0,0,1-.3.261,11.3,11.3,0,1,0,10.379,9.681,11.3,11.3,0,0,0-2.4-5.52.281.281,0,1,1,.437-.354,11.842,11.842,0,0,1,2.295,4.611q.144.583.23,1.183a11.867,11.867,0,0,1-23.262,4.548,12.207,12.207,0,0,1-.233-1.2,11.869,11.869,0,0,1,8.876-13.189Z" fill="#bdd0fb"/>
    <g id="Grupo_135410" data-name="Grupo 135410" opacity="0.3">
      <path id="Trazado_193992" data-name="Trazado 193992" d="M249.362,26.661a.433.433,0,0,1,.479.2c.186.319.365.647.532.977a.435.435,0,0,1-.776.392c-.159-.314-.329-.627-.506-.931a.436.436,0,0,1,.156-.595A.454.454,0,0,1,249.362,26.661Z" fill="#91b3fa"/>
      <path id="Trazado_193993" data-name="Trazado 193993" d="M250.774,29.691a.435.435,0,0,1,.513.275c.214.6.4,1.214.553,1.83.032.13.063.261.092.392a.45.45,0,0,1-.328.52.436.436,0,0,1-.52-.329c-.028-.125-.057-.25-.088-.374a17.966,17.966,0,0,0-.527-1.745.435.435,0,0,1,.262-.556Zm.991,4.4a.41.41,0,0,1,.061-.011.436.436,0,0,1,.476.39,18.794,18.794,0,0,1,.089,2.311.435.435,0,0,1-.869-.02,18.058,18.058,0,0,0-.085-2.205A.435.435,0,0,1,251.765,34.093Zm-.107,4.511a.455.455,0,0,1,.169-.008.434.434,0,0,1,.365.494,18.643,18.643,0,0,1-.482,2.264.435.435,0,0,1-.838-.234,17.7,17.7,0,0,0,.461-2.158A.434.434,0,0,1,251.658,38.6Zm-1.212,4.347a.434.434,0,0,1,.505.589,18.85,18.85,0,0,1-1.021,2.077.435.435,0,0,1-.755-.432,17.9,17.9,0,0,0,.974-1.98A.433.433,0,0,1,250.446,42.951Zm-2.237,3.919a.435.435,0,0,1,.453.682,18.917,18.917,0,0,1-1.494,1.764.434.434,0,1,1-.628-.6,18.166,18.166,0,0,0,1.425-1.684A.433.433,0,0,1,248.209,46.87Zm-3.12,3.257a.434.434,0,0,1,.379.758,18.529,18.529,0,0,1-1.879,1.347.434.434,0,0,1-.462-.736,17.816,17.816,0,0,0,1.792-1.284A.439.439,0,0,1,245.089,50.127Zm-3.82,2.394a.434.434,0,0,1,.287.816,18.814,18.814,0,0,1-2.153.845.435.435,0,1,1-.268-.827,17.75,17.75,0,0,0,2.054-.806A.475.475,0,0,1,241.269,52.521Zm-6.537,1.674a.482.482,0,0,1,.076-.012,17.932,17.932,0,0,0,1.9-.231c.1-.016.19-.033.283-.051a.435.435,0,0,1,.51.344.431.431,0,0,1-.345.509c-.1.019-.2.038-.3.055a18.749,18.749,0,0,1-1.995.241.434.434,0,0,1-.134-.855Z" fill="#91b3fa"/>
    </g>
    <g id="Grupo_135411" data-name="Grupo 135411" opacity="0.3">
      <path id="Trazado_193994" data-name="Trazado 193994" d="M228.868,18.164a.434.434,0,0,1,.214.842,18,18,0,0,0-2.062.675.435.435,0,0,1-.32-.809,19.156,19.156,0,0,1,2.162-.707Zm2.181-.432.047-.008a18.724,18.724,0,0,1,2.269-.172.435.435,0,1,1,.013.869,18.036,18.036,0,0,0-2.165.164.435.435,0,0,1-.164-.853ZM224.742,19.8a.435.435,0,0,1,.313.8,17.9,17.9,0,0,0-1.839,1.154.435.435,0,0,1-.506-.708,18.888,18.888,0,0,1,1.928-1.209A.474.474,0,0,1,224.742,19.8Zm10.747-2.13a.44.44,0,0,1,.15-.011,18.727,18.727,0,0,1,2.245.382.434.434,0,1,1-.2.846,17.772,17.772,0,0,0-2.14-.363.435.435,0,0,1-.057-.854Zm-14.355,4.711a.434.434,0,0,1,.4.742,18.074,18.074,0,0,0-1.507,1.562.435.435,0,0,1-.661-.565,18.944,18.944,0,0,1,1.581-1.637A.433.433,0,0,1,221.134,22.378ZM218.25,25.75a.435.435,0,0,1,.466.663,18.113,18.113,0,0,0-1.091,1.877.434.434,0,1,1-.776-.391,19.022,19.022,0,0,1,1.143-1.967A.44.44,0,0,1,218.25,25.75Zm-1.994,3.967a.424.424,0,0,1,.251.013.434.434,0,0,1,.262.556,17.9,17.9,0,0,0-.608,2.083.435.435,0,1,1-.848-.192,18.83,18.83,0,0,1,.638-2.186A.432.432,0,0,1,216.256,29.717Z" fill="#91b3fa"/>
      <path id="Trazado_193995" data-name="Trazado 193995" d="M239.831,18.683a.427.427,0,0,1,.254.014c.349.128.7.267,1.031.413a.435.435,0,1,1-.347.8c-.32-.139-.651-.272-.984-.4a.434.434,0,0,1,.046-.829Z" fill="#91b3fa"/>
    </g>
    <path id="Trazado_193996" data-name="Trazado 193996" d="M240.829,24.219a.221.221,0,0,0-.256-.006l-2.218,1.5a11.669,11.669,0,0,0-3.661-.941l-1.221-2.382a.221.221,0,0,0-.227-.117l-3.18.453a.22.22,0,0,0-.185.176l-.507,2.629a11.672,11.672,0,0,0-3.252,1.925l-2.549-.821a.22.22,0,0,0-.244.077l-1.928,2.57a.219.219,0,0,0-.007.255l1.5,2.218a11.7,11.7,0,0,0-.94,3.661l-2.382,1.221a.22.22,0,0,0-.117.227l.453,3.18a.219.219,0,0,0,.176.185l2.628.507a11.7,11.7,0,0,0,1.926,3.253l-.821,2.549a.219.219,0,0,0,.077.243l2.569,1.929a.223.223,0,0,0,.256.006l2.218-1.5a11.64,11.64,0,0,0,3.661.94l1.221,2.382a.22.22,0,0,0,.227.118l3.18-.454a.22.22,0,0,0,.185-.176l.507-2.628a11.651,11.651,0,0,0,3.252-1.926l2.549.822a.22.22,0,0,0,.244-.078l1.928-2.569a.219.219,0,0,0,.006-.256l-1.5-2.218a11.662,11.662,0,0,0,.941-3.661l2.382-1.22a.22.22,0,0,0,.117-.227l-.453-3.181a.22.22,0,0,0-.176-.185l-2.628-.507a11.675,11.675,0,0,0-1.926-3.252l.821-2.549a.221.221,0,0,0-.077-.244Z" fill="#fdb74d"/>
    <g id="Grupo_135412" data-name="Grupo 135412">
      <path id="Trazado_193997" data-name="Trazado 193997" d="M232.864,33.272a3.288,3.288,0,0,1,3.824,1.947,3.287,3.287,0,1,1-3.824-1.947Zm1.362,5.541a2.371,2.371,0,0,0,.337-.111,2.418,2.418,0,0,0-1.833-4.475h0a2.418,2.418,0,0,0,1.5,4.586Z" fill="#fedc72"/>
    </g>
    <path id="Trazado_193998" data-name="Trazado 193998" d="M231.638,28.577q.4-.1.817-.159a8.23,8.23,0,0,1,1.667-.067l.074.005a.436.436,0,0,1,.392.329.465.465,0,0,1,.011.135.435.435,0,0,1-.464.4,7.31,7.31,0,0,0-1.557.056h0l-.085.012a7.239,7.239,0,0,0-3.3,1.4,7.35,7.35,0,0,0-1.394,1.392l-.01.013-.03.039a7.271,7.271,0,0,0-1.392,5.425,7.479,7.479,0,0,0,.144.739,7.317,7.317,0,0,0,14.344-2.8,7.112,7.112,0,0,0-.142-.729,7.29,7.29,0,0,0-1.414-2.844.429.429,0,0,1-.085-.169.435.435,0,0,1,.76-.378,8.168,8.168,0,0,1,1.583,3.181q.1.4.159.816a8.187,8.187,0,0,1-16.049,3.138,8.389,8.389,0,0,1-.16-.827A8.2,8.2,0,0,1,231.638,28.577Z" fill="#fedc72"/>
  </g>
  <path id="Trazado_199638" data-name="Trazado 199638" d="M-53.178,0h-16.1V-30.381h15.424v3.22H-65.72v10.106h10.975v3.2H-65.72V-3.22h12.542Zm4.068-.784V-4.513a10.283,10.283,0,0,0,6.25,2.1q4.576,0,4.576-3.051a2.647,2.647,0,0,0-.392-1.472,3.906,3.906,0,0,0-1.059-1.07A8.154,8.154,0,0,0-41.3-8.845q-.9-.371-1.939-.773a24.967,24.967,0,0,1-2.532-1.155A7.648,7.648,0,0,1-47.6-12.087a4.888,4.888,0,0,1-1.1-1.663,5.884,5.884,0,0,1-.371-2.182,5.184,5.184,0,0,1,.7-2.7A6.2,6.2,0,0,1-46.5-20.6a8.694,8.694,0,0,1,2.659-1.2,11.794,11.794,0,0,1,3.083-.4,12.447,12.447,0,0,1,5.042.975v3.517a9.827,9.827,0,0,0-5.508-1.568,6.439,6.439,0,0,0-1.758.222,4.3,4.3,0,0,0-1.345.625,2.887,2.887,0,0,0-.869.964,2.539,2.539,0,0,0-.307,1.239,2.973,2.973,0,0,0,.307,1.419,3.125,3.125,0,0,0,.9,1.017,6.882,6.882,0,0,0,1.441.805q.847.36,1.928.784a26.832,26.832,0,0,1,2.585,1.133A8.865,8.865,0,0,1-36.4-9.756a5.133,5.133,0,0,1,1.239,1.684,5.432,5.432,0,0,1,.434,2.267,5.345,5.345,0,0,1-.71,2.8,6.083,6.083,0,0,1-1.9,1.97A8.685,8.685,0,0,1-40.064.127a13.494,13.494,0,0,1-3.242.381A12.309,12.309,0,0,1-49.11-.784Zm29.788.572a6.7,6.7,0,0,1-3.242.678q-5.7,0-5.7-6.356V-18.729h-3.729v-2.966h3.729v-5.3l3.475-1.123v6.419h5.466v2.966h-5.466V-6.5a5.068,5.068,0,0,0,.742,3.114,2.959,2.959,0,0,0,2.458.932,3.653,3.653,0,0,0,2.267-.72ZM.847,0H-2.627V-3.39h-.085A7.274,7.274,0,0,1-9.386.508,7.132,7.132,0,0,1-14.46-1.208a5.946,5.946,0,0,1-1.833-4.555q0-6.081,7.161-7.076l6.5-.911q0-5.53-4.47-5.53a10.68,10.68,0,0,0-7.076,2.669V-20.17A13.445,13.445,0,0,1-6.8-22.2Q.847-22.2.847-14.11ZM-2.627-10.975l-5.233.72a8.5,8.5,0,0,0-3.644,1.2,3.452,3.452,0,0,0-1.229,3.04,3.311,3.311,0,0,0,1.133,2.6A4.38,4.38,0,0,0-8.581-2.415,5.577,5.577,0,0,0-4.311-4.227,6.472,6.472,0,0,0-2.627-8.814ZM25.911,0H22.436V-3.686h-.085A8.021,8.021,0,0,1,14.894.508,8.1,8.1,0,0,1,8.358-2.4a11.951,11.951,0,0,1-2.447-7.934,13,13,0,0,1,2.712-8.623A8.944,8.944,0,0,1,15.847-22.2a6.954,6.954,0,0,1,6.5,3.517h.085V-32.119h3.475ZM22.436-9.809v-3.2A6.207,6.207,0,0,0,20.7-17.458a5.827,5.827,0,0,0-4.407-1.822,6,6,0,0,0-5,2.331A10.212,10.212,0,0,0,9.47-10.508a9.185,9.185,0,0,0,1.748,5.922,5.713,5.713,0,0,0,4.693,2.172,5.934,5.934,0,0,0,4.714-2.1A7.814,7.814,0,0,0,22.436-9.809ZM42.013.508a10.063,10.063,0,0,1-7.68-3.04,11.261,11.261,0,0,1-2.871-8.061q0-5.466,2.987-8.538A10.74,10.74,0,0,1,42.521-22.2,9.73,9.73,0,0,1,50.1-19.216q2.722,2.987,2.722,8.284a11.655,11.655,0,0,1-2.934,8.316A10.282,10.282,0,0,1,42.013.508Zm.254-19.788A6.609,6.609,0,0,0,36.97-17a9.354,9.354,0,0,0-1.949,6.282,8.846,8.846,0,0,0,1.97,6.081,6.7,6.7,0,0,0,5.275,2.225A6.352,6.352,0,0,0,47.447-4.6a9.47,9.47,0,0,0,1.811-6.208,9.632,9.632,0,0,0-1.811-6.271A6.324,6.324,0,0,0,42.267-19.28ZM57.055-.784V-4.513a10.283,10.283,0,0,0,6.25,2.1q4.576,0,4.576-3.051a2.647,2.647,0,0,0-.392-1.472,3.906,3.906,0,0,0-1.059-1.07,8.154,8.154,0,0,0-1.568-.837q-.9-.371-1.939-.773a24.967,24.967,0,0,1-2.532-1.155,7.648,7.648,0,0,1-1.822-1.314,4.888,4.888,0,0,1-1.1-1.663,5.884,5.884,0,0,1-.371-2.182,5.184,5.184,0,0,1,.7-2.7,6.2,6.2,0,0,1,1.864-1.97,8.694,8.694,0,0,1,2.659-1.2,11.794,11.794,0,0,1,3.083-.4,12.447,12.447,0,0,1,5.042.975v3.517a9.827,9.827,0,0,0-5.508-1.568,6.439,6.439,0,0,0-1.758.222,4.3,4.3,0,0,0-1.345.625,2.887,2.887,0,0,0-.869.964,2.539,2.539,0,0,0-.307,1.239,2.973,2.973,0,0,0,.307,1.419,3.125,3.125,0,0,0,.9,1.017,6.882,6.882,0,0,0,1.441.805q.847.36,1.928.784a26.834,26.834,0,0,1,2.585,1.133,8.865,8.865,0,0,1,1.949,1.314,5.133,5.133,0,0,1,1.239,1.684,5.432,5.432,0,0,1,.434,2.267,5.345,5.345,0,0,1-.71,2.8,6.083,6.083,0,0,1-1.9,1.97A8.685,8.685,0,0,1,66.1.127,13.494,13.494,0,0,1,62.86.508,12.309,12.309,0,0,1,57.055-.784Zm-145.17,12.2H-99.979V21.925H-89v3.2H-99.979V38.578h-3.559V8.2h15.424Zm7.076-.042a2.2,2.2,0,0,1-1.589-.636,2.145,2.145,0,0,1-.657-1.61,2.18,2.18,0,0,1,.657-1.621,2.183,2.183,0,0,1,1.589-.646,2.244,2.244,0,0,1,1.621.646,2.162,2.162,0,0,1,.667,1.621,2.147,2.147,0,0,1-.667,1.589A2.225,2.225,0,0,1-81.038,11.374Zm1.695,27.2h-3.475V16.883h3.475Zm25.042,0h-3.475V26.2q0-6.907-5.042-6.907a5.47,5.47,0,0,0-4.311,1.96A7.264,7.264,0,0,0-68.835,26.2V38.578h-3.475V16.883h3.475v3.6h.085a7.83,7.83,0,0,1,7.119-4.11,6.637,6.637,0,0,1,5.445,2.3q1.886,2.3,1.886,6.642Zm22.076,0H-35.7v-3.39h-.085a7.274,7.274,0,0,1-6.674,3.9,7.132,7.132,0,0,1-5.074-1.716,5.946,5.946,0,0,1-1.833-4.555q0-6.081,7.161-7.076l6.5-.911q0-5.53-4.47-5.53a10.68,10.68,0,0,0-7.076,2.669V18.408a13.445,13.445,0,0,1,7.373-2.034q7.648,0,7.648,8.093ZM-35.7,27.6l-5.233.72a8.5,8.5,0,0,0-3.644,1.2,3.452,3.452,0,0,0-1.229,3.04,3.311,3.311,0,0,0,1.133,2.6,4.38,4.38,0,0,0,3.019,1.006,5.577,5.577,0,0,0,4.269-1.811A6.472,6.472,0,0,0-35.7,29.764Zm28.03,10.975h-3.475V26.2q0-6.907-5.042-6.907a5.469,5.469,0,0,0-4.311,1.96A7.264,7.264,0,0,0-22.2,26.2V38.578h-3.475V16.883H-22.2v3.6h.085A7.83,7.83,0,0,1-15,16.374a6.637,6.637,0,0,1,5.445,2.3q1.886,2.3,1.886,6.642Zm21.335-1a11.29,11.29,0,0,1-5.932,1.5A9.822,9.822,0,0,1,.244,36.067a10.941,10.941,0,0,1-2.85-7.828A12.028,12.028,0,0,1,.466,19.626a10.747,10.747,0,0,1,8.2-3.252,11.413,11.413,0,0,1,5.042,1.059v3.559A8.834,8.834,0,0,0,8.538,19.3a6.986,6.986,0,0,0-5.456,2.383A9.044,9.044,0,0,0,.953,27.942a8.612,8.612,0,0,0,2,6.017,6.9,6.9,0,0,0,5.371,2.2,8.708,8.708,0,0,0,5.339-1.886ZM20.7,11.374a2.2,2.2,0,0,1-1.589-.636,2.145,2.145,0,0,1-.657-1.61A2.225,2.225,0,0,1,20.7,6.861a2.244,2.244,0,0,1,1.621.646,2.263,2.263,0,0,1,0,3.21A2.225,2.225,0,0,1,20.7,11.374Zm1.695,27.2H18.92V16.883h3.475ZM46.864,28.6H31.547A8.114,8.114,0,0,0,33.5,34.192a6.719,6.719,0,0,0,5.127,1.97,10.66,10.66,0,0,0,6.737-2.415V37.01A12.592,12.592,0,0,1,37.8,39.086a9.17,9.17,0,0,1-7.225-2.956q-2.627-2.956-2.627-8.316a11.863,11.863,0,0,1,2.871-8.252,9.2,9.2,0,0,1,7.129-3.189,8.156,8.156,0,0,1,6.589,2.754q2.331,2.754,2.331,7.648Zm-3.559-2.945a7.069,7.069,0,0,0-1.451-4.682A4.945,4.945,0,0,0,37.881,19.3a5.613,5.613,0,0,0-4.174,1.758,7.98,7.98,0,0,0-2.119,4.6ZM63.432,20.4a4.249,4.249,0,0,0-2.627-.7,4.434,4.434,0,0,0-3.718,2.1,9.7,9.7,0,0,0-1.494,5.72V38.578H52.119V16.883h3.475v4.47h.085a7.576,7.576,0,0,1,2.267-3.57A5.169,5.169,0,0,1,61.356,16.5a5.672,5.672,0,0,1,2.076.3ZM76.271,39.086a10.063,10.063,0,0,1-7.68-3.04,11.261,11.261,0,0,1-2.871-8.061q0-5.466,2.987-8.538a10.74,10.74,0,0,1,8.072-3.072,9.73,9.73,0,0,1,7.574,2.987q2.722,2.987,2.722,8.284a11.655,11.655,0,0,1-2.934,8.316A10.282,10.282,0,0,1,76.271,39.086ZM76.525,19.3a6.609,6.609,0,0,0-5.3,2.278,9.354,9.354,0,0,0-1.949,6.282,8.846,8.846,0,0,0,1.97,6.081,6.7,6.7,0,0,0,5.275,2.225,6.352,6.352,0,0,0,5.18-2.182,9.47,9.47,0,0,0,1.811-6.208A9.632,9.632,0,0,0,81.706,21.5,6.324,6.324,0,0,0,76.525,19.3Zm14.788,18.5V34.065a10.283,10.283,0,0,0,6.25,2.1q4.576,0,4.576-3.051a2.647,2.647,0,0,0-.392-1.472,3.906,3.906,0,0,0-1.059-1.07,8.154,8.154,0,0,0-1.568-.837q-.9-.371-1.939-.773A24.966,24.966,0,0,1,94.65,27.8a7.648,7.648,0,0,1-1.822-1.314,4.888,4.888,0,0,1-1.1-1.663,5.884,5.884,0,0,1-.371-2.182,5.184,5.184,0,0,1,.7-2.7,6.2,6.2,0,0,1,1.864-1.97,8.694,8.694,0,0,1,2.659-1.2,11.794,11.794,0,0,1,3.083-.4,12.447,12.447,0,0,1,5.042.975v3.517A9.827,9.827,0,0,0,99.195,19.3a6.439,6.439,0,0,0-1.758.222,4.3,4.3,0,0,0-1.345.625,2.887,2.887,0,0,0-.869.964,2.539,2.539,0,0,0-.307,1.239,2.972,2.972,0,0,0,.307,1.419,3.125,3.125,0,0,0,.9,1.017,6.882,6.882,0,0,0,1.441.805q.847.36,1.928.784a26.834,26.834,0,0,1,2.585,1.133,8.865,8.865,0,0,1,1.949,1.314,5.133,5.133,0,0,1,1.239,1.684,5.432,5.432,0,0,1,.434,2.267,5.345,5.345,0,0,1-.71,2.8,6.083,6.083,0,0,1-1.9,1.97A8.685,8.685,0,0,1,100.36,38.7a13.494,13.494,0,0,1-3.242.381A12.309,12.309,0,0,1,91.314,37.794Z" transform="translate(212.563 170.01)" fill="#5038a1"/>
  <g id="Grupo_135415" data-name="Grupo 135415">
    <rect id="Rectángulo_44830" data-name="Rectángulo 44830" width="49.539" height="28.741" transform="translate(131.402 262.167)" fill="#60a344"/>
    <rect id="Rectángulo_44831" data-name="Rectángulo 44831" width="49.539" height="1.513" transform="translate(131.402 290.909)" fill="#537837"/>
    <rect id="Rectángulo_44832" data-name="Rectángulo 44832" width="49.539" height="1.513" transform="translate(131.402 292.422)" fill="#60a344"/>
    <rect id="Rectángulo_44833" data-name="Rectángulo 44833" width="49.539" height="1.513" transform="translate(131.402 293.934)" fill="#74ae43"/>
    <rect id="Rectángulo_44834" data-name="Rectángulo 44834" width="49.539" height="1.513" transform="translate(131.402 295.447)" fill="#8ac53f"/>
    <path id="Trazado_193999" data-name="Trazado 193999" d="M131.4,290.909l49.539-28.741v28.741Z" fill="#5c9340"/>
    <path id="Trazado_194000" data-name="Trazado 194000" d="M162.557,276.539c0,4.6-2.811,8.435-6.385,8.435-3.65,0-6.385-3.935-6.385-8.435,0-4.66,2.859-8.437,6.385-8.437S162.557,271.879,162.557,276.539Z" fill="#def0ed"/>
    <g id="Grupo_135414" data-name="Grupo 135414">
      <path id="Trazado_194001" data-name="Trazado 194001" d="M138.991,264.439a5.208,5.208,0,0,1-5.2,5.2v8.054h1.343v-6.85a6.562,6.562,0,0,0,5.062-5.061h15.977v-1.344Z" fill="#def0ed"/>
      <path id="Trazado_194002" data-name="Trazado 194002" d="M138.991,288.637a5.207,5.207,0,0,0-5.2-5.2v-8.055h1.343v6.851a6.56,6.56,0,0,1,5.062,5.061h15.977v1.343Z" fill="#def0ed"/>
      <path id="Trazado_194003" data-name="Trazado 194003" d="M173.352,264.439a5.208,5.208,0,0,0,5.2,5.2v8.054h-1.342v-6.85a6.564,6.564,0,0,1-5.063-5.061H156.172v-1.344Z" fill="#def0ed"/>
      <path id="Trazado_194004" data-name="Trazado 194004" d="M173.352,288.637a5.207,5.207,0,0,1,5.2-5.2v-8.055h-1.342v6.851a6.563,6.563,0,0,0-5.063,5.061H156.172v1.343Z" fill="#def0ed"/>
    </g>
    <path id="Trazado_194005" data-name="Trazado 194005" d="M161.055,281.973a7.341,7.341,0,0,1-1.48,1.7l-.567-.872-.046,1.322a5.015,5.015,0,0,1-5.581,0l-.046-1.322-.567.872a7.365,7.365,0,0,1-1.48-1.7l.956-1.911a1.608,1.608,0,0,1,1.44-.891h1.834l0-.979a3.17,3.17,0,0,1-2.075-2.3.5.5,0,0,1-.555-.5v-.518a.5.5,0,0,1,.226-.419,4.732,4.732,0,0,1-.121-1.513,2.008,2.008,0,0,1,2.046-1.867h2.208a2.011,2.011,0,0,1,2.044,1.867,4.631,4.631,0,0,1-.115,1.486.492.492,0,0,1,.275.446v.518a.5.5,0,0,1-.554.5,3.176,3.176,0,0,1-2.072,2.3l0,.98h1.834a1.608,1.608,0,0,1,1.44.891Z" fill="#424042"/>
  </g>
  <g id="Grupo_135418" data-name="Grupo 135418">
    <g id="Grupo_135416" data-name="Grupo 135416">
      <path id="Trazado_194006" data-name="Trazado 194006" d="M316.626,117.38a16.735,16.735,0,1,1-16.734-16.736A16.733,16.733,0,0,1,316.626,117.38Z" fill="#f89c1c"/>
      <path id="Trazado_194007" data-name="Trazado 194007" d="M314.188,117.38a14.3,14.3,0,1,1-14.3-14.3A14.3,14.3,0,0,1,314.188,117.38Z" fill="#ffc708"/>
      <path id="Trazado_194008" data-name="Trazado 194008" d="M304.84,117.343a7.193,7.193,0,0,0-3.619-1.553l-1.677-.34a4.361,4.361,0,0,1-1.653-.587,1.128,1.128,0,0,1-.455-.957,1.3,1.3,0,0,1,.676-1.208,4.34,4.34,0,0,1,2.086-.388,9.668,9.668,0,0,1,2.262.287,14.008,14.008,0,0,1,2.455.849v-3.232a23.671,23.671,0,0,0-2.753-.571c-.268-.036-.53-.058-.792-.084v-1.782h-2.955v1.743a5.65,5.65,0,0,0-3.077,1.163,4.309,4.309,0,0,0-1.472,3.509,3.946,3.946,0,0,0,1.058,2.9,6.572,6.572,0,0,0,3.35,1.565l1.525.338a4.773,4.773,0,0,1,1.859.695,1.486,1.486,0,0,1-.222,2.331,3.719,3.719,0,0,1-1.972.431,9.42,9.42,0,0,1-2.637-.394,14.724,14.724,0,0,1-2.829-1.17v3.324a18.176,18.176,0,0,0,2.927.818,14.655,14.655,0,0,0,1.49.207v1.751h2.955v-1.771a5.832,5.832,0,0,0,3.048-1.142,4.585,4.585,0,0,0,1.5-3.759A3.946,3.946,0,0,0,304.84,117.343Z" fill="#fcee3b"/>
    </g>
    <g id="Grupo_135417" data-name="Grupo 135417">
      <path id="Trazado_194009" data-name="Trazado 194009" d="M325.1,137.585l-14.714-12.314,4.937,18.54,3.765-2.4,3.464,5.438,2.25-1.432-3.464-5.439Z" fill="#8c6df2"/>
      <path id="Trazado_194010" data-name="Trazado 194010" d="M328.891,137.831,306.388,119l7.552,28.357,4.457-2.838,3.463,5.438,6.039-3.846-3.464-5.439Zm-6.342,9.021-3.464-5.438-3.765,2.4-4.936-18.54L325.1,137.585l-3.763,2.4,3.464,5.44Z" fill="#5038a1"/>
    </g>
    <path id="Trazado_194011" data-name="Trazado 194011" d="M289.882,111.283a1.671,1.671,0,1,1-1.671-1.671A1.671,1.671,0,0,1,289.882,111.283Z" fill="#fff"/>
  </g>
  <g id="Grupo_135419" data-name="Grupo 135419">
    <path id="Trazado_194012" data-name="Trazado 194012" d="M69.2,327.7a1.356,1.356,0,0,0-1.356-1.358H64.654c-.09,0-.29.011-.57.028a6.121,6.121,0,0,1,3.723,5.427c0,3.421-3.213,6.193-7.176,6.193a8.358,8.358,0,0,1-1.1-.08l.423,1.113a1.356,1.356,0,0,0,1.356,1.355h9.887a1.357,1.357,0,0,0,1.356-1.356Z" fill="#da5656"/>
    <path id="Trazado_194013" data-name="Trazado 194013" d="M46.5,326.654a9.676,9.676,0,0,1,.257,2.183,8.892,8.892,0,0,1-8.612,9.15,8.135,8.135,0,0,1-3.067-.608l-.486,1.641a1.357,1.357,0,0,0,1.357,1.356h9.886a1.357,1.357,0,0,0,1.356-1.356L51.5,327.7C51.5,327.277,48.909,326.9,46.5,326.654Z" fill="#da5656"/>
    <path id="Trazado_194014" data-name="Trazado 194014" d="M35.459,289.377c-.538.011-2.521.478-1.918,1.375s2.846,2.452,4.027,5.383a15.779,15.779,0,0,1,1.419,5.382c0,.778.479,1.914,2.871,1.495s6.937-2.751,6.877-5.621S43.831,289.2,35.459,289.377Z" fill="#da5656"/>
    <path id="Trazado_194015" data-name="Trazado 194015" d="M80.994,312.7a5.343,5.343,0,0,0,1.106-.509,3.646,3.646,0,0,0,1.5-3.059c0-2.243-1.437-2.866-1.953-2.961a3.048,3.048,0,0,0-3.157,1.856,4.352,4.352,0,0,0,.228,3.706,10.448,10.448,0,0,1-1.232-.033c-2.08-9.98-12.756-17.583-25.622-17.583a31.437,31.437,0,0,0-8.016,1.03,14.984,14.984,0,0,0-11.36-4.286c-.538.012-2.521.479-1.918,1.376s2.846,2.451,4.026,5.382c.214.531.388,1.007.544,1.457a21.222,21.222,0,0,0-8.381,10.694c-.715-.093-1.213-.148-1.362-.148l-1.88-.515a1.6,1.6,0,0,0-1.6,1.6v9.008a1.6,1.6,0,0,0,1.6,1.6h.679a8.79,8.79,0,0,0,2.65-.322c.047.134.091.268.141.4a3.706,3.706,0,0,1-1.616.986c-2.734.836.159,2.316.159,2.316a7.487,7.487,0,0,1,3.024-.084,23.038,23.038,0,0,0,8.017,7.733l-1.489,5.035a8.135,8.135,0,0,0,3.067.608,8.317,8.317,0,0,0,5.958-2.553,31.826,31.826,0,0,0,14.568.221l.856,2.252a8.358,8.358,0,0,0,1.1.08c3.9,0,7.072-2.69,7.167-6.039,6.117-3.868,10.056-9.9,10.056-16.692a17.341,17.341,0,0,0-.128-2.1,10.129,10.129,0,0,0,2.045-.08,6.314,6.314,0,0,0,2.986,1.373S81.133,313.328,80.994,312.7Zm-1.1-1.43A4.232,4.232,0,0,1,79.769,308a1.35,1.35,0,0,1,1.229-.7,1.257,1.257,0,0,1,.237.021c.811.149.952,1.044.926,1.766a2.37,2.37,0,0,1-.914,1.957,3.989,3.989,0,0,1-1.115.516A3.045,3.045,0,0,1,79.892,311.271Z" fill="#f37d6a"/>
    <path id="Trazado_194016" data-name="Trazado 194016" d="M33.264,292.529c-.381-.035-1.819.137-1.465.819s1.815,1.958,2.416,4.121a11.2,11.2,0,0,1,.575,3.914c-.062.549.186,1.39,1.908,1.284s5.118-1.391,5.3-3.423S39.19,293.068,33.264,292.529Z" fill="#da5656"/>
    <path id="Trazado_194017" data-name="Trazado 194017" d="M35.234,308.714c0,2.03-1.373,3.678-3.066,3.678s-3.066-1.648-3.066-3.678,1.372-3.678,3.066-3.678S35.234,306.682,35.234,308.714Z" fill="#fff"/>
    <path id="Trazado_194018" data-name="Trazado 194018" d="M33.016,308.1a1.779,1.779,0,0,1-1.488,1.967,2.043,2.043,0,0,1,0-3.933A1.778,1.778,0,0,1,33.016,308.1Z" fill="#51636d"/>
    <path id="Trazado_194019" data-name="Trazado 194019" d="M71.174,304.635a1.447,1.447,0,0,1-1.79.974L46.155,300.49a1.448,1.448,0,0,1-1.215-1.636l.405-1.836a1.448,1.448,0,0,1,1.79-.973l23.229,5.119a1.448,1.448,0,0,1,1.215,1.636Z" fill="#da5656"/>
    <path id="Trazado_194020" data-name="Trazado 194020" d="M66.024,316.759c0,4.444-4.955,8.046-11.068,8.046s-11.067-3.6-11.067-8.046,4.955-8.045,11.067-8.045S66.024,312.316,66.024,316.759Z" fill="#f9af89"/>
    <path id="Trazado_194021" data-name="Trazado 194021" d="M23.06,316.759c-.243,0-.441-1.126-.441-2.515s.2-2.516.441-2.516.442,1.127.442,2.516S23.3,316.759,23.06,316.759Z" fill="#da5656"/>
    <path id="Trazado_194022" data-name="Trazado 194022" d="M39.119,333.515s4.97,1.971,6.228,2.208-.741.8-.741.8A24.134,24.134,0,0,1,39.119,333.515Z" fill="#da5656"/>
    <path id="Trazado_194023" data-name="Trazado 194023" d="M62.45,335.164s4.68-2.585,5.663-3.406.144,1.078.144,1.078A24.132,24.132,0,0,1,62.45,335.164Z" fill="#da5656"/>
    <path id="Trazado_194024" data-name="Trazado 194024" d="M24.244,310.81s.93,5.332-.218,7.067C24.519,317.56,26.516,314.461,24.244,310.81Z" fill="#f9af89"/>
    <path id="Trazado_194025" data-name="Trazado 194025" d="M70.49,303.709c-.1.465-.805.706-1.57.538l-21.4-4.716c-.764-.168-1.3-.682-1.2-1.148l.261-1.186c.1-.466.8-.707,1.569-.538l21.4,4.715c.765.169,1.3.683,1.2,1.149Z" fill="#a53333"/>
    <path id="Trazado_194026" data-name="Trazado 194026" d="M47.019,298.7l21.816,4.9a4.948,4.948,0,0,0,.874-.328l.848-27.766a1.119,1.119,0,0,0-1.085-1.152L48.7,273.73a1.117,1.117,0,0,0-1.152,1.082l-.688,22.555c-.044.542-.055.636-.055.636A.726.726,0,0,0,47.019,298.7Z" fill="#2a8341"/>
    <path id="Trazado_194027" data-name="Trazado 194027" d="M75.479,277.962l-20.158-5.04a1.119,1.119,0,0,0-1.356.812l-6.28,25.121,21.253,4.777c.874-.291,1.422-.7,1.519-1.221,0-.013,0-.026,0-.039l.244-.862c.01.019.016.038.025.057l5.563-22.249A1.117,1.117,0,0,0,75.479,277.962Z" fill="#2c9646"/>
    <path id="Trazado_194028" data-name="Trazado 194028" d="M73.692,278.338l-20.987-3.876a1.149,1.149,0,0,0-1.338.921l-4.308,23.331,21.886,4.92c1.062.106,1.311-.352,1.424-.973l4.245-22.986A1.149,1.149,0,0,0,73.692,278.338Z" fill="#4eb64a"/>
    <path id="Trazado_194029" data-name="Trazado 194029" d="M67.791,303.375,71.462,283.5a2.308,2.308,0,0,1-2.5-3.8l-11.969-2.21A2.309,2.309,0,0,1,53,279.783l-3.594,19.459Z" fill="#abd167"/>
    <path id="Trazado_194030" data-name="Trazado 194030" d="M61.368,286.776c4.484.829,7.581,4.413,6.917,8.008s-4.837,5.838-9.322,5.01-7.58-4.413-6.916-8.009S56.884,285.949,61.368,286.776Z" fill="#4eb64a"/>
    <path id="Trazado_194031" data-name="Trazado 194031" d="M62.425,280.6a2.122,2.122,0,1,1-2.473,1.7A2.124,2.124,0,0,1,62.425,280.6Z" fill="#4eb64a"/>
    <path id="Trazado_194032" data-name="Trazado 194032" d="M67.127,294.458a.948.948,0,0,1-1.1.76l-.242-.044a5.58,5.58,0,0,1-1.153,2.483.767.767,0,0,1-.981.119l-1.064-.692a.769.769,0,0,1-.339-.513.783.783,0,0,1,.147-.6,4.127,4.127,0,0,0,.658-1.3l-1.912-.353c-.967,1.236-2.183,2.418-3.852,2.111a3.5,3.5,0,0,1-2.729-3.325l-.465-.087a.948.948,0,1,1,.344-1.865l.3.055a5.86,5.86,0,0,1,.924-1.937.771.771,0,0,1,1.065-.179l1.055.743a.766.766,0,0,1,.161,1.1,2.922,2.922,0,0,0-.446.781l1.5.277c.944-1.206,2.232-2.456,4.024-2.125a3.507,3.507,0,0,1,2.9,3.4l.447.083A.948.948,0,0,1,67.127,294.458Zm-2.01-.23,1.052.194a.138.138,0,1,0,.05-.272l-1.084-.2-.008-.329a2.774,2.774,0,0,0-2.254-2.958c-1.434-.265-2.54.911-3.342,1.963l-.183.221-.258-.013-2.582-.478.079-.4a3.47,3.47,0,0,1,.688-1.485l-.985-.693a5.069,5.069,0,0,0-.851,1.976l-.079.393-1.073-.2a.138.138,0,1,0-.05.272l1.1.2.006.329a2.753,2.753,0,0,0,2.085,2.879c1.289.238,2.317-.838,3.151-1.923l.2-.246.263.015,2.932.541-.056.426c0,.041-.009.083-.017.127a4.745,4.745,0,0,1-.841,1.859l1,.648a5.122,5.122,0,0,0,.97-2.273ZM64.3,293.8l-3.613-.667,1.112-.539a1.545,1.545,0,0,1,1.01-.119,1.336,1.336,0,0,1,.817.478Zm-4.924-.628-.945.549a1.2,1.2,0,0,1-.9.14,1.157,1.157,0,0,1-.7-.441l-.639-.835Z" fill="#abd167"/>
  </g>
  <g id="Grupo_135421" data-name="Grupo 135421">
    <g id="Grupo_135420" data-name="Grupo 135420">
      <path id="Trazado_194033" data-name="Trazado 194033" d="M242.857,306.986a.346.346,0,0,1,.347.346v3.76a.347.347,0,1,1-.695,0v-3.759A.346.346,0,0,1,242.857,306.986Z" fill="#df4626"/>
      <path id="Trazado_194034" data-name="Trazado 194034" d="M235.556,308.512a.346.346,0,0,1,.277.137l1.925,2.511a.348.348,0,1,1-.552.423l-1.926-2.512a.347.347,0,0,1,.276-.559Z" fill="#df4626"/>
      <path id="Trazado_194035" data-name="Trazado 194035" d="M250,308.511a.358.358,0,0,1,.211.072.347.347,0,0,1,.064.487l-1.926,2.514a.348.348,0,0,1-.552-.423l1.926-2.512A.347.347,0,0,1,250,308.511Z" fill="#df4626"/>
    </g>
    <path id="Trazado_194036" data-name="Trazado 194036" d="M234.864,319.025a4.212,4.212,0,0,0-.8.079,4.125,4.125,0,0,0-3.167-1.346,3.9,3.9,0,0,0-3.5,1.841c-.06-.006-.121-.009-.182-.009a1.5,1.5,0,0,0-1.468.892,2.09,2.09,0,0,0-1.923,1.869,2.221,2.221,0,0,0,2.435,1.913c.034,0,.068,0,.1,0h8.456v-.006h.042c1.837,0,3.327-1.17,3.327-2.615S236.7,319.025,234.864,319.025Z" fill="#3ec0c8"/>
    <path id="Trazado_194037" data-name="Trazado 194037" d="M248.521,328.9a9.765,9.765,0,0,1,1.616.139,9.021,9.021,0,0,1,6.434-2.37c3.208,0,5.956,1.34,7.11,3.242.121-.011.244-.016.369-.016a3.109,3.109,0,0,1,2.983,1.572c2.231.326,3.9,1.676,3.9,3.293,0,1.861-2.214,3.369-4.944,3.369-.071,0-.14-.005-.209-.006H248.6v-.011l-.084,0c-3.735,0-6.762-2.062-6.762-4.606S244.786,328.9,248.521,328.9Z" fill="#3ec0c8"/>
    <path id="Trazado_194038" data-name="Trazado 194038" d="M244.646,333.655l-.9-.515.027-.661v-8.831l1.2.01a11.939,11.939,0,0,1,5.508,1.448l1.939-4.072a16.869,16.869,0,0,0-7.475-1.8l-1.173-.021v-3.553a.681.681,0,1,0-1.361,0v3.689l-.948.2c-5.148,1.07-8.609,4.713-8.609,9.063,0,4.629,4.343,7.479,8.591,9.659l.869.475.1.751v10.058l-1.245.086c-.155.009-.307.02-.47.02a16.089,16.089,0,0,1-6.875-1.737l-1.76,4.073c1.862,1.246,5.287,2.034,8.544,2.034.122,0,.238-.01.353-.01l1.453-.051v3.488a.681.681,0,0,0,1.361,0v-3.639l.945-.2c5.574-1.175,8.769-4.7,8.769-9.683C253.489,338.8,248.762,335.744,244.646,333.655Zm-4.324-3a3.952,3.952,0,0,1-.982-2.811,3.76,3.76,0,0,1,1-2.522l1.046-.839,1.034-.484-.01,8.457-1.087-.711Zm5.54,17.113-.952,1.059-1.135.742V339.11l1.3,1.2.852,1.307a5.128,5.128,0,0,1,.993,3.229A4.368,4.368,0,0,1,245.862,347.77Z" fill="#df4626"/>
    <path id="Trazado_194039" data-name="Trazado 194039" d="M244.019,333.128l-.9-.514.028-.661v-8.831l1.2.009a11.938,11.938,0,0,1,5.508,1.448l1.939-4.072a16.886,16.886,0,0,0-7.475-1.8l-1.173-.021v-3.552a.681.681,0,1,0-1.362,0v3.689l-.947.2c-5.148,1.071-8.609,4.714-8.609,9.064,0,4.628,4.343,7.479,8.591,9.659l.868.474.1.752v10.057l-1.245.086c-.155.01-.306.02-.469.02a16.118,16.118,0,0,1-6.876-1.736l-1.76,4.073c1.863,1.246,5.287,2.034,8.544,2.034.123,0,.238-.011.354-.011l1.452-.051v3.488a.681.681,0,0,0,1.362,0v-3.639l.944-.2c5.575-1.175,8.77-4.7,8.77-9.683C252.863,338.271,248.136,335.218,244.019,333.128Zm-4.323-3a3.952,3.952,0,0,1-.982-2.811,3.769,3.769,0,0,1,1-2.524l1.047-.837,1.033-.485-.01,8.458-1.087-.711Zm5.54,17.113-.952,1.059-1.135.742V338.583l1.295,1.2.852,1.307a5.131,5.131,0,0,1,.993,3.23A4.373,4.373,0,0,1,245.236,347.244Z" fill="#f9bc1c"/>
    <path id="Trazado_194040" data-name="Trazado 194040" d="M234.527,331.838a6.165,6.165,0,0,0-1.485.187A7.059,7.059,0,0,0,220.61,333.2a2.733,2.733,0,0,0-.34-.022,2.828,2.828,0,0,0-2.737,2.119,4.538,4.538,0,0,0,.953,8.975c.065,0,.128-.007.192-.01H234.45v-.013c.025,0,.051,0,.077,0a6.206,6.206,0,0,0,0-12.413Z" fill="#65a4d9"/>
    <path id="Trazado_194041" data-name="Trazado 194041" d="M271.986,358.769a.234.234,0,0,0-.085-.133.243.243,0,0,0-.214-.047l-1.788.443a10.588,10.588,0,0,0-2.169-2.893l.929-1.162a.247.247,0,0,0-.386-.308l-.907,1.137a12.164,12.164,0,0,0-3.4-2.077l.025-1.284a.246.246,0,0,0-.093-.2.233.233,0,0,0-.148-.053.245.245,0,0,0-.251.241l-.022,1.106a13.319,13.319,0,0,0-4.529-.784c-6.623,0-11.991,4.739-11.991,10.585h23.981a9.475,9.475,0,0,0-.824-3.856l1.692-.419A.246.246,0,0,0,271.986,358.769Z" fill="#95c83d"/>
    <path id="Trazado_194042" data-name="Trazado 194042" d="M226.7,353.939l.642-1.557a.482.482,0,0,0-.26-.628.481.481,0,0,0-.629.262l-.785,1.9a16.571,16.571,0,0,0-2.973.3l-.5-1.871a.482.482,0,1,0-.93.251l.493,1.83a14.065,14.065,0,0,0-3.018,1.151l-1.435-1.1a.484.484,0,0,0-.418-.083.478.478,0,0,0-.256.171.484.484,0,0,0,.089.676l1.119.857c-2.446,1.562-3.985,3.829-3.985,6.352a6.146,6.146,0,0,0,.065.893h23.85a6.146,6.146,0,0,0,.066-.893C237.835,357.941,232.923,354.253,226.7,353.939Z" fill="#1a924b"/>
    <path id="Trazado_194043" data-name="Trazado 194043" d="M256.432,354.229l.5-.459a1.017,1.017,0,0,0-.511-1.75,1.027,1.027,0,0,0-.866.254l-1.217,1.12a27.063,27.063,0,0,0-3.5-.932l.3-1.731a1.017,1.017,0,0,0-2-.348l-.306,1.751a32.966,32.966,0,0,0-3.7-.263l-.815-1.562a1.017,1.017,0,0,0-1.8.943l.344.659c-9.541.5-17.011,5.026-17.011,10.538a6.18,6.18,0,0,0,.071.893h37.392a6.041,6.041,0,0,0,.071-.893C263.378,359.13,260.668,356.17,256.432,354.229Z" fill="#4cb64a"/>
  </g>
  <g id="Grupo_135429" data-name="Grupo 135429">
    <g id="Grupo_135423" data-name="Grupo 135423">
      <path id="Trazado_194044" data-name="Trazado 194044" d="M382.3,60.95a11.732,11.732,0,1,1-11.732-11.731A11.733,11.733,0,0,1,382.3,60.95Z" fill="#96d1e3"/>
      <g id="Grupo_135422" data-name="Grupo 135422">
        <path id="Trazado_194045" data-name="Trazado 194045" d="M380.176,60.951a9.6,9.6,0,1,1-9.6-9.6A9.558,9.558,0,0,1,380.176,60.951Z" fill="#96d1e3"/>
      </g>
      <path id="Trazado_194046" data-name="Trazado 194046" d="M379.425,60.95a8.853,8.853,0,1,1-8.853-8.852A8.852,8.852,0,0,1,379.425,60.95Z" fill="#fde500"/>
      <path id="Trazado_194047" data-name="Trazado 194047" d="M370.572,53.651v14.6a7.3,7.3,0,0,1,0-14.6Z" fill="#fbae17"/>
      <path id="Trazado_194048" data-name="Trazado 194048" d="M377.872,60.951a7.3,7.3,0,0,1-7.3,7.3v-14.6A7.3,7.3,0,0,1,377.872,60.951Z" fill="#f7961d"/>
      <path id="Trazado_194049" data-name="Trazado 194049" d="M365.891,52.567a9.653,9.653,0,0,0-4.379,5.195l-.975-.344a10.689,10.689,0,0,1,4.85-5.755Z" fill="#fff"/>
      <path id="Trazado_194050" data-name="Trazado 194050" d="M378.6,67.928a10.653,10.653,0,0,1-5.506,3.359l-.246-1.006a9.6,9.6,0,0,0,4.971-3.033Z" fill="#fff"/>
      <path id="Trazado_194051" data-name="Trazado 194051" d="M374.566,58.917v-.67a1.838,1.838,0,0,0-1.838-1.838H371.7v-.946h-1.131v.946H369.6v-.946h-1.132v.946h-1.891v1.568h1.036V60h-1.036v1.512h1.036v2.022h-1.036V65.1h1.891v.7H369.6v-.7h.971v.7H371.7v-.7h1.025a1.837,1.837,0,0,0,1.838-1.837v-.67a1.838,1.838,0,0,0-1.838-1.838A1.838,1.838,0,0,0,374.566,58.917Zm-2.993-.94a1.011,1.011,0,1,1,0,2.022H369.6V57.977Zm0,5.556H369.6V61.511h1.972a1.011,1.011,0,1,1,0,2.022Z" fill="#fde500"/>
    </g>
    <g id="Grupo_135424" data-name="Grupo 135424">
      <path id="Trazado_194052" data-name="Trazado 194052" d="M367.332,34.988A11.749,11.749,0,1,1,355.583,23.24,11.749,11.749,0,0,1,367.332,34.988Z" fill="#faa819"/>
      <path id="Trazado_194053" data-name="Trazado 194053" d="M365.345,34.988a9.762,9.762,0,1,1-9.762-9.762A9.761,9.761,0,0,1,365.345,34.988Z" fill="#ffc708"/>
      <path id="Trazado_194054" data-name="Trazado 194054" d="M359.778,38.884a5.031,5.031,0,1,1,.014-7.782l1.087-1.325a6.745,6.745,0,1,0-.015,10.432Z" fill="#fcee3b"/>
      <path id="Trazado_194055" data-name="Trazado 194055" d="M356.509,34.436h-8.664V33.06h10.1Z" fill="#fcee3b"/>
      <path id="Trazado_194056" data-name="Trazado 194056" d="M354.829,36.914h-6.984V35.539H356.3Z" fill="#fcee3b"/>
    </g>
    <g id="Grupo_135425" data-name="Grupo 135425">
      <path id="Trazado_194057" data-name="Trazado 194057" d="M352.343,60.95A11.748,11.748,0,1,1,340.594,49.2,11.749,11.749,0,0,1,352.343,60.95Z" fill="#faa819"/>
      <path id="Trazado_194058" data-name="Trazado 194058" d="M350.356,60.95a9.762,9.762,0,1,1-9.762-9.762A9.761,9.761,0,0,1,350.356,60.95Z" fill="#ffc708"/>
      <path id="Trazado_194059" data-name="Trazado 194059" d="M343.655,60.928a4.444,4.444,0,0,0-2.238-.961l-1.037-.21a2.732,2.732,0,0,1-1.023-.363.7.7,0,0,1-.281-.593.8.8,0,0,1,.418-.747,2.687,2.687,0,0,1,1.29-.239,6.023,6.023,0,0,1,1.4.177,8.633,8.633,0,0,1,1.519.525v-2a14.53,14.53,0,0,0-1.7-.352c-.165-.023-.327-.037-.489-.053v-1.1h-1.827v1.078a3.5,3.5,0,0,0-1.9.719,2.663,2.663,0,0,0-.911,2.17,2.438,2.438,0,0,0,.655,1.791,4.047,4.047,0,0,0,2.072.968l.942.209a2.955,2.955,0,0,1,1.15.43.919.919,0,0,1-.137,1.442,2.3,2.3,0,0,1-1.22.266,5.854,5.854,0,0,1-1.631-.243,9.137,9.137,0,0,1-1.749-.724v2.056a11.186,11.186,0,0,0,1.81.506,9.117,9.117,0,0,0,.922.128v1.082h1.827v-1.1a3.6,3.6,0,0,0,1.885-.706,2.833,2.833,0,0,0,.927-2.325A2.435,2.435,0,0,0,343.655,60.928Z" fill="#fcee3b"/>
    </g>
    <g id="Grupo_135426" data-name="Grupo 135426">
      <path id="Trazado_194060" data-name="Trazado 194060" d="M364.772,74.015c-1.185,6.523-13.461,9.112-16.813,1.082l1.375-.341c2.5,3.9,9.756,4.01,11.281-1.023Z" fill="#586db3"/>
      <path id="Trazado_194061" data-name="Trazado 194061" d="M348.009,72.359l2.888,2.008-4.5,1.118Z" fill="#586db3"/>
    </g>
    <g id="Grupo_135427" data-name="Grupo 135427">
      <path id="Trazado_194062" data-name="Trazado 194062" d="M368.754,33.651c6.242-2.235,14.622,7.1,9.344,14.02l-.984-1.021c2.126-4.116-1.4-10.454-6.525-9.258Z" fill="#41b8d3"/>
      <path id="Trazado_194063" data-name="Trazado 194063" d="M375.7,49,376,45.491l3.219,3.34Z" fill="#41b8d3"/>
    </g>
    <g id="Grupo_135428" data-name="Grupo 135428">
      <path id="Trazado_194064" data-name="Trazado 194064" d="M333.494,49.814c-5.219-4.089-1.788-16.157,6.879-15.38l-.339,1.377c-4.615.4-8.1,6.762-4.353,10.457Z" fill="#41b8d3"/>
      <path id="Trazado_194065" data-name="Trazado 194065" d="M342.772,35.755l-3.123,1.619,1.109-4.5Z" fill="#41b8d3"/>
    </g>
  </g>
  <g id="Grupo_135452" data-name="Grupo 135452">
    <rect id="Rectángulo_44835" data-name="Rectángulo 44835" width="1.655" height="18.665" transform="translate(52.051 188.471)" fill="#748035"/>
    <path id="Trazado_194066" data-name="Trazado 194066" d="M41.326,184.865c3.015,6.521,10.61,6.705,11.491,3.606C53.712,185.787,47.443,182.055,41.326,184.865Z" fill="#b3d234"/>
    <g id="Grupo_135430" data-name="Grupo 135430">
      <path id="Trazado_194067" data-name="Trazado 194067" d="M58.541,185.629c4.084-.8,6.377-.942,8.981-1.829-12.325-6.138-15.4,2.592-14.705,4.671C52.817,188.471,54.458,186.428,58.541,185.629Z" fill="#a6ba39"/>
      <path id="Trazado_194068" data-name="Trazado 194068" d="M67.522,183.8c-2.6.887-4.9,1.03-8.981,1.829-3.848.752-5.733,2.385-5.724,2.842h0C54.764,193.443,65.9,190.586,67.522,183.8Z" fill="#8aa53d"/>
    </g>
    <g id="Grupo_135432" data-name="Grupo 135432">
      <g id="Grupo_135431" data-name="Grupo 135431">
        <path id="Trazado_194069" data-name="Trazado 194069" d="M52.774,204.981v12.9h-7l-3.142-12.9Z" fill="#bf5a27"/>
        <path id="Trazado_194070" data-name="Trazado 194070" d="M62.838,204.981l-3.142,12.9H52.774v-12.9Z" fill="#994722"/>
      </g>
      <rect id="Rectángulo_44836" data-name="Rectángulo 44836" width="22.642" height="2.58" transform="translate(41.453 202.401)" fill="#f89f39"/>
      <path id="Trazado_194071" data-name="Trazado 194071" d="M62.838,204.981l-.484,2.15H43.12l-.485-2.15Z" fill="#773618"/>
    </g>
    <g id="Grupo_135433" data-name="Grupo 135433">
      <path id="Trazado_194072" data-name="Trazado 194072" d="M6.031,201.7,4.7,200.587l12.266-14.746,9.692,10.076L42.981,167.8l9.088,9.7,7.485-7.5,1.23,1.228-8.754,8.772-8.719-9.3L27,198.782l-9.943-10.338Z" fill="#8c6df2"/>
    </g>
    <g id="Grupo_135435" data-name="Grupo 135435">
      <g id="Grupo_135434" data-name="Grupo 135434">
        <path id="Trazado_194073" data-name="Trazado 194073" d="M42.666,176.156a5.326,5.326,0,1,1-5.326-5.326A5.326,5.326,0,0,1,42.666,176.156Z" fill="#faa819"/>
        <path id="Trazado_194074" data-name="Trazado 194074" d="M37.7,170.843v.926h-.717v-.926A5.047,5.047,0,0,1,37.7,170.843Z" fill="#f58a1f"/>
        <path id="Trazado_194075" data-name="Trazado 194075" d="M36.04,170.992l.286.881-.682.222-.287-.881A5.086,5.086,0,0,1,36.04,170.992Z" fill="#f58a1f"/>
        <path id="Trazado_194076" data-name="Trazado 194076" d="M34.507,171.646l.546.75-.581.422-.544-.75A5.357,5.357,0,0,1,34.507,171.646Z" fill="#f58a1f"/>
        <path id="Trazado_194077" data-name="Trazado 194077" d="M33.253,172.742l.75.545-.422.58-.75-.544A5.306,5.306,0,0,1,33.253,172.742Z" fill="#f58a1f"/>
        <path id="Trazado_194078" data-name="Trazado 194078" d="M32.4,174.173l.88.285-.221.683-.881-.287A5.1,5.1,0,0,1,32.4,174.173Z" fill="#f58a1f"/>
        <path id="Trazado_194079" data-name="Trazado 194079" d="M32.028,175.8h.927v.718h-.927A5.061,5.061,0,0,1,32.028,175.8Z" fill="#f58a1f"/>
        <path id="Trazado_194080" data-name="Trazado 194080" d="M32.177,177.456l.881-.287.221.684-.88.286A5.236,5.236,0,0,1,32.177,177.456Z" fill="#f58a1f"/>
        <path id="Trazado_194081" data-name="Trazado 194081" d="M32.83,178.988l.751-.545.421.58-.749.545A5.186,5.186,0,0,1,32.83,178.988Z" fill="#f58a1f"/>
        <path id="Trazado_194082" data-name="Trazado 194082" d="M33.927,180.243l.545-.75.581.422-.546.749A5.286,5.286,0,0,1,33.927,180.243Z" fill="#f58a1f"/>
        <path id="Trazado_194083" data-name="Trazado 194083" d="M35.357,181.1l.287-.881.681.221-.286.881A5.369,5.369,0,0,1,35.357,181.1Z" fill="#f58a1f"/>
        <path id="Trazado_194084" data-name="Trazado 194084" d="M36.981,181.469v-.928H37.7v.928A5.061,5.061,0,0,1,36.981,181.469Z" fill="#f58a1f"/>
        <path id="Trazado_194085" data-name="Trazado 194085" d="M38.641,181.319l-.287-.881.683-.221.286.881A5.537,5.537,0,0,1,38.641,181.319Z" fill="#f58a1f"/>
        <path id="Trazado_194086" data-name="Trazado 194086" d="M40.172,180.665l-.544-.75.58-.421.544.75A5.169,5.169,0,0,1,40.172,180.665Z" fill="#f58a1f"/>
        <path id="Trazado_194087" data-name="Trazado 194087" d="M41.428,179.568l-.751-.543.422-.58.75.543A5.193,5.193,0,0,1,41.428,179.568Z" fill="#f58a1f"/>
        <path id="Trazado_194088" data-name="Trazado 194088" d="M42.282,178.139l-.881-.286.222-.682.881.285A5.039,5.039,0,0,1,42.282,178.139Z" fill="#f58a1f"/>
        <path id="Trazado_194089" data-name="Trazado 194089" d="M42.653,176.515h-.927V175.8h.927A5.376,5.376,0,0,1,42.653,176.515Z" fill="#f58a1f"/>
        <path id="Trazado_194090" data-name="Trazado 194090" d="M42.5,174.855l-.881.287-.222-.683.881-.286A5.172,5.172,0,0,1,42.5,174.855Z" fill="#f58a1f"/>
        <path id="Trazado_194091" data-name="Trazado 194091" d="M41.85,173.323l-.751.545-.421-.581.75-.545A5.417,5.417,0,0,1,41.85,173.323Z" fill="#f58a1f"/>
        <path id="Trazado_194092" data-name="Trazado 194092" d="M40.754,172.068l-.546.75-.58-.422.545-.75A5.548,5.548,0,0,1,40.754,172.068Z" fill="#f58a1f"/>
        <path id="Trazado_194093" data-name="Trazado 194093" d="M39.323,171.214l-.286.882-.682-.223.286-.881A5.023,5.023,0,0,1,39.323,171.214Z" fill="#f58a1f"/>
        <path id="Trazado_194094" data-name="Trazado 194094" d="M42.05,176.156a4.71,4.71,0,1,1-4.71-4.711A4.71,4.71,0,0,1,42.05,176.156Z" fill="#ffc708"/>
      </g>
      <path id="Trazado_194095" data-name="Trazado 194095" d="M38.765,176.146a1.842,1.842,0,0,0-.927-.4l-.428-.086a1.162,1.162,0,0,1-.423-.151.29.29,0,0,1-.117-.245.331.331,0,0,1,.173-.309,1.105,1.105,0,0,1,.534-.1,2.482,2.482,0,0,1,.578.074,3.664,3.664,0,0,1,.628.217v-.827a6.125,6.125,0,0,0-.7-.145c-.068-.01-.135-.015-.2-.022V173.7h-.755v.446a1.45,1.45,0,0,0-.788.3,1.107,1.107,0,0,0-.376.9,1.01,1.01,0,0,0,.271.74,1.673,1.673,0,0,0,.857.4l.39.085a1.255,1.255,0,0,1,.474.177.38.38,0,0,1-.056.6.955.955,0,0,1-.505.111,2.392,2.392,0,0,1-.673-.1,3.706,3.706,0,0,1-.724-.3v.849a4.527,4.527,0,0,0,.748.211c.127.023.255.041.382.052v.447h.755v-.451a1.487,1.487,0,0,0,.78-.294,1.173,1.173,0,0,0,.384-.961A1.011,1.011,0,0,0,38.765,176.146Z" fill="#fcee3b"/>
    </g>
    <g id="Grupo_135437" data-name="Grupo 135437">
      <g id="Grupo_135436" data-name="Grupo 135436">
        <path id="Trazado_194096" data-name="Trazado 194096" d="M40.32,189.05a6.752,6.752,0,1,1-8.8-3.719A6.751,6.751,0,0,1,40.32,189.05Z" fill="#faa819"/>
        <path id="Trazado_194097" data-name="Trazado 194097" d="M31.95,185.175l.443,1.09-.843.343-.442-1.091A7,7,0,0,1,31.95,185.175Z" fill="#f58a1f"/>
        <path id="Trazado_194098" data-name="Trazado 194098" d="M30.072,186.142l.757.9-.7.586-.757-.9A6.628,6.628,0,0,1,30.072,186.142Z" fill="#f58a1f"/>
        <path id="Trazado_194099" data-name="Trazado 194099" d="M28.584,187.642l1,.62-.48.774-1-.623A6.566,6.566,0,0,1,28.584,187.642Z" fill="#f58a1f"/>
        <path id="Trazado_194100" data-name="Trazado 194100" d="M27.633,189.527l1.141.283-.218.883-1.142-.282A6.712,6.712,0,0,1,27.633,189.527Z" fill="#f58a1f"/>
        <path id="Trazado_194101" data-name="Trazado 194101" d="M27.311,191.616l1.172-.085.065.907-1.172.085A6.854,6.854,0,0,1,27.311,191.616Z" fill="#f58a1f"/>
        <path id="Trazado_194102" data-name="Trazado 194102" d="M27.65,193.7l1.089-.442.342.841-1.089.444A6.64,6.64,0,0,1,27.65,193.7Z" fill="#f58a1f"/>
        <path id="Trazado_194103" data-name="Trazado 194103" d="M28.616,195.58l.9-.758.586.7-.9.758A6.731,6.731,0,0,1,28.616,195.58Z" fill="#f58a1f"/>
        <path id="Trazado_194104" data-name="Trazado 194104" d="M30.116,197.067l.621-1,.773.481-.622,1A6.391,6.391,0,0,1,30.116,197.067Z" fill="#f58a1f"/>
        <path id="Trazado_194105" data-name="Trazado 194105" d="M32,198.018l.281-1.141.884.22-.282,1.141A6.589,6.589,0,0,1,32,198.018Z" fill="#f58a1f"/>
        <path id="Trazado_194106" data-name="Trazado 194106" d="M34.09,198.341l-.084-1.173.908-.064L35,198.275A6.557,6.557,0,0,1,34.09,198.341Z" fill="#f58a1f"/>
        <path id="Trazado_194107" data-name="Trazado 194107" d="M36.175,198l-.441-1.088.842-.342.442,1.09A6.57,6.57,0,0,1,36.175,198Z" fill="#f58a1f"/>
        <path id="Trazado_194108" data-name="Trazado 194108" d="M38.054,197.036l-.757-.9.7-.586.756.9A6.642,6.642,0,0,1,38.054,197.036Z" fill="#f58a1f"/>
        <path id="Trazado_194109" data-name="Trazado 194109" d="M39.542,195.535l-1-.62.481-.774,1,.622A6.706,6.706,0,0,1,39.542,195.535Z" fill="#f58a1f"/>
        <path id="Trazado_194110" data-name="Trazado 194110" d="M40.493,193.65l-1.141-.283.219-.882,1.141.281A6.448,6.448,0,0,1,40.493,193.65Z" fill="#f58a1f"/>
        <path id="Trazado_194111" data-name="Trazado 194111" d="M40.816,191.561l-1.173.084-.065-.907,1.172-.084A6.382,6.382,0,0,1,40.816,191.561Z" fill="#f58a1f"/>
        <path id="Trazado_194112" data-name="Trazado 194112" d="M40.477,189.477l-1.09.441-.342-.843,1.09-.441A6.694,6.694,0,0,1,40.477,189.477Z" fill="#f58a1f"/>
        <path id="Trazado_194113" data-name="Trazado 194113" d="M39.509,187.6l-.9.757-.587-.7.9-.756A6.509,6.509,0,0,1,39.509,187.6Z" fill="#f58a1f"/>
        <path id="Trazado_194114" data-name="Trazado 194114" d="M38.01,186.11l-.621,1-.772-.483.621-1A6.713,6.713,0,0,1,38.01,186.11Z" fill="#f58a1f"/>
        <path id="Trazado_194115" data-name="Trazado 194115" d="M36.124,185.157l-.283,1.142-.883-.218.283-1.142A6.775,6.775,0,0,1,36.124,185.157Z" fill="#f58a1f"/>
        <path id="Trazado_194116" data-name="Trazado 194116" d="M34.036,184.836l.084,1.173-.907.065-.084-1.173A6.519,6.519,0,0,1,34.036,184.836Z" fill="#f58a1f"/>
        <path id="Trazado_194117" data-name="Trazado 194117" d="M39.6,189.342a5.973,5.973,0,1,1-7.782-3.287A5.976,5.976,0,0,1,39.6,189.342Z" fill="#ffc708"/>
      </g>
      <path id="Trazado_194118" data-name="Trazado 194118" d="M35.732,190.9a2.334,2.334,0,0,0-1.278-.025l-.545.1a1.429,1.429,0,0,1-.569.025.363.363,0,0,1-.253-.232.423.423,0,0,1,.055-.445,1.429,1.429,0,0,1,.581-.372,3.154,3.154,0,0,1,.714-.189,4.574,4.574,0,0,1,.841-.044l-.394-.972a7.566,7.566,0,0,0-.9.166c-.085.021-.166.046-.249.071l-.217-.537-.888.362.212.523a1.842,1.842,0,0,0-.782.725,1.4,1.4,0,0,0-.014,1.234,1.281,1.281,0,0,0,.671.742,2.113,2.113,0,0,0,1.2.06l.5-.084a1.511,1.511,0,0,1,.643-.017.483.483,0,0,1,.218.728,1.212,1.212,0,0,1-.541.37,3.116,3.116,0,0,1-.839.2,4.875,4.875,0,0,1-.994-.007l.405,1a5.687,5.687,0,0,0,.98-.11c.162-.033.319-.073.474-.119l.212.526.888-.362-.215-.531a1.9,1.9,0,0,0,.777-.716,1.484,1.484,0,0,0-.009-1.312A1.271,1.271,0,0,0,35.732,190.9Z" fill="#fcee3b"/>
    </g>
    <g id="Grupo_135439" data-name="Grupo 135439">
      <g id="Grupo_135438" data-name="Grupo 135438">
        <path id="Trazado_194119" data-name="Trazado 194119" d="M21.65,181.521a4.019,4.019,0,1,1-4.02-4.019A4.02,4.02,0,0,1,21.65,181.521Z" fill="#faa819"/>
        <path id="Trazado_194120" data-name="Trazado 194120" d="M17.9,177.512v.7H17.36v-.7A3.619,3.619,0,0,1,17.9,177.512Z" fill="#f58a1f"/>
        <path id="Trazado_194121" data-name="Trazado 194121" d="M16.648,177.624l.217.665-.516.168-.216-.665A3.732,3.732,0,0,1,16.648,177.624Z" fill="#f58a1f"/>
        <path id="Trazado_194122" data-name="Trazado 194122" d="M15.491,178.119l.412.565-.439.319-.41-.566A3.778,3.778,0,0,1,15.491,178.119Z" fill="#f58a1f"/>
        <path id="Trazado_194123" data-name="Trazado 194123" d="M14.544,178.946l.566.41-.318.438-.565-.411A3.856,3.856,0,0,1,14.544,178.946Z" fill="#f58a1f"/>
        <path id="Trazado_194124" data-name="Trazado 194124" d="M13.9,180.025l.665.215-.168.515-.665-.216A3.808,3.808,0,0,1,13.9,180.025Z" fill="#f58a1f"/>
        <path id="Trazado_194125" data-name="Trazado 194125" d="M13.62,181.25h.7v.543h-.7A3.936,3.936,0,0,1,13.62,181.25Z" fill="#f58a1f"/>
        <path id="Trazado_194126" data-name="Trazado 194126" d="M13.732,182.5l.665-.216.168.515-.665.217A3.885,3.885,0,0,1,13.732,182.5Z" fill="#f58a1f"/>
        <path id="Trazado_194127" data-name="Trazado 194127" d="M14.227,183.66l.565-.411.318.438-.566.411A3.782,3.782,0,0,1,14.227,183.66Z" fill="#f58a1f"/>
        <path id="Trazado_194128" data-name="Trazado 194128" d="M15.053,184.607l.411-.566.439.318-.412.565A3.746,3.746,0,0,1,15.053,184.607Z" fill="#f58a1f"/>
        <path id="Trazado_194129" data-name="Trazado 194129" d="M16.133,185.252l.216-.665.516.167-.217.665A3.914,3.914,0,0,1,16.133,185.252Z" fill="#f58a1f"/>
        <path id="Trazado_194130" data-name="Trazado 194130" d="M17.36,185.532v-.7H17.9v.7A4.067,4.067,0,0,1,17.36,185.532Z" fill="#f58a1f"/>
        <path id="Trazado_194131" data-name="Trazado 194131" d="M18.611,185.419l-.216-.665.516-.167.216.665A3.88,3.88,0,0,1,18.611,185.419Z" fill="#f58a1f"/>
        <path id="Trazado_194132" data-name="Trazado 194132" d="M19.768,184.926l-.412-.567.439-.318.41.566A3.849,3.849,0,0,1,19.768,184.926Z" fill="#f58a1f"/>
        <path id="Trazado_194133" data-name="Trazado 194133" d="M20.715,184.1l-.567-.411.319-.438.566.411A3.935,3.935,0,0,1,20.715,184.1Z" fill="#f58a1f"/>
        <path id="Trazado_194134" data-name="Trazado 194134" d="M21.36,183.019l-.666-.217.168-.515.665.217A3.863,3.863,0,0,1,21.36,183.019Z" fill="#f58a1f"/>
        <path id="Trazado_194135" data-name="Trazado 194135" d="M21.64,181.793h-.7v-.543h.7A3.921,3.921,0,0,1,21.64,181.793Z" fill="#f58a1f"/>
        <path id="Trazado_194136" data-name="Trazado 194136" d="M21.527,180.54l-.665.216-.168-.516.666-.215A3.776,3.776,0,0,1,21.527,180.54Z" fill="#f58a1f"/>
        <path id="Trazado_194137" data-name="Trazado 194137" d="M21.033,179.383l-.566.412-.317-.439.565-.41A3.9,3.9,0,0,1,21.033,179.383Z" fill="#f58a1f"/>
        <path id="Trazado_194138" data-name="Trazado 194138" d="M20.206,178.437,19.8,179l-.439-.319.413-.565A3.6,3.6,0,0,1,20.206,178.437Z" fill="#f58a1f"/>
        <path id="Trazado_194139" data-name="Trazado 194139" d="M19.127,177.792l-.216.665-.516-.168.216-.665A3.79,3.79,0,0,1,19.127,177.792Z" fill="#f58a1f"/>
        <path id="Trazado_194140" data-name="Trazado 194140" d="M21.185,181.521a3.555,3.555,0,1,1-3.555-3.554A3.555,3.555,0,0,1,21.185,181.521Z" fill="#ffc708"/>
      </g>
      <path id="Trazado_194141" data-name="Trazado 194141" d="M18.7,181.514a1.409,1.409,0,0,0-.7-.3l-.323-.066a.852.852,0,0,1-.32-.113.218.218,0,0,1-.088-.184.25.25,0,0,1,.132-.233.828.828,0,0,1,.4-.075,1.918,1.918,0,0,1,.437.054,2.928,2.928,0,0,1,.473.164v-.623a4.844,4.844,0,0,0-.531-.111c-.051-.007-.1-.011-.153-.016v-.344h-.571V180a1.1,1.1,0,0,0-.593.225.833.833,0,0,0-.284.678.759.759,0,0,0,.2.559,1.257,1.257,0,0,0,.647.3l.294.066a.917.917,0,0,1,.358.133.262.262,0,0,1,.09.214.265.265,0,0,1-.131.237.722.722,0,0,1-.382.084,1.9,1.9,0,0,1-.509-.076,3,3,0,0,1-.546-.226v.641a3.5,3.5,0,0,0,.564.158,2.69,2.69,0,0,0,.288.04v.337h.571v-.341a1.133,1.133,0,0,0,.589-.22.888.888,0,0,0,.289-.727A.765.765,0,0,0,18.7,181.514Z" fill="#fcee3b"/>
    </g>
    <g id="Grupo_135441" data-name="Grupo 135441">
      <g id="Grupo_135440" data-name="Grupo 135440">
        <path id="Trazado_194142" data-name="Trazado 194142" d="M69.217,169.089a9.691,9.691,0,1,1-9.691-9.691A9.692,9.692,0,0,1,69.217,169.089Z" fill="#faa819"/>
        <path id="Trazado_194143" data-name="Trazado 194143" d="M60.179,159.42v1.686H58.873V159.42A9.333,9.333,0,0,1,60.179,159.42Z" fill="#f58a1f"/>
        <path id="Trazado_194144" data-name="Trazado 194144" d="M57.159,159.692l.521,1.6-1.241.4-.522-1.605A9.324,9.324,0,0,1,57.159,159.692Z" fill="#f58a1f"/>
        <path id="Trazado_194145" data-name="Trazado 194145" d="M54.371,160.883l.991,1.365-1.056.766-.991-1.365A9.32,9.32,0,0,1,54.371,160.883Z" fill="#f58a1f"/>
        <path id="Trazado_194146" data-name="Trazado 194146" d="M52.087,162.878l1.365.99-.768,1.057-1.364-.992A9.27,9.27,0,0,1,52.087,162.878Z" fill="#f58a1f"/>
        <path id="Trazado_194147" data-name="Trazado 194147" d="M50.533,165.479l1.6.522-.4,1.241-1.605-.52A9.539,9.539,0,0,1,50.533,165.479Z" fill="#f58a1f"/>
        <path id="Trazado_194148" data-name="Trazado 194148" d="M49.856,168.435h1.688v1.305H49.856A9.8,9.8,0,0,1,49.856,168.435Z" fill="#f58a1f"/>
        <path id="Trazado_194149" data-name="Trazado 194149" d="M50.128,171.456l1.605-.522.4,1.242-1.6.522A9.531,9.531,0,0,1,50.128,171.456Z" fill="#f58a1f"/>
        <path id="Trazado_194150" data-name="Trazado 194150" d="M51.319,174.243l1.365-.992.767,1.056-1.364.992A9.461,9.461,0,0,1,51.319,174.243Z" fill="#f58a1f"/>
        <path id="Trazado_194151" data-name="Trazado 194151" d="M53.315,176.527l.99-1.365,1.056.767-.991,1.365A9.307,9.307,0,0,1,53.315,176.527Z" fill="#f58a1f"/>
        <path id="Trazado_194152" data-name="Trazado 194152" d="M55.917,178.082l.521-1.6,1.242.4-.522,1.6A9.551,9.551,0,0,1,55.917,178.082Z" fill="#f58a1f"/>
        <path id="Trazado_194153" data-name="Trazado 194153" d="M58.872,178.758v-1.687h1.306v1.687A9.814,9.814,0,0,1,58.872,178.758Z" fill="#f58a1f"/>
        <path id="Trazado_194154" data-name="Trazado 194154" d="M61.892,178.486l-.522-1.6,1.242-.4.521,1.6A9.464,9.464,0,0,1,61.892,178.486Z" fill="#f58a1f"/>
        <path id="Trazado_194155" data-name="Trazado 194155" d="M64.68,177.294l-.991-1.365,1.056-.766.991,1.365A9.576,9.576,0,0,1,64.68,177.294Z" fill="#f58a1f"/>
        <path id="Trazado_194156" data-name="Trazado 194156" d="M66.964,175.3l-1.365-.993.768-1.055,1.364.991A9.605,9.605,0,0,1,66.964,175.3Z" fill="#f58a1f"/>
        <path id="Trazado_194157" data-name="Trazado 194157" d="M68.519,172.7l-1.6-.521.4-1.242,1.6.522A9.709,9.709,0,0,1,68.519,172.7Z" fill="#f58a1f"/>
        <path id="Trazado_194158" data-name="Trazado 194158" d="M69.195,169.742H67.508v-1.306h1.686A9.647,9.647,0,0,1,69.195,169.742Z" fill="#f58a1f"/>
        <path id="Trazado_194159" data-name="Trazado 194159" d="M68.923,166.722l-1.6.522-.4-1.243,1.6-.521A9.478,9.478,0,0,1,68.923,166.722Z" fill="#f58a1f"/>
        <path id="Trazado_194160" data-name="Trazado 194160" d="M67.732,163.933l-1.365.992-.767-1.056,1.364-.991A9.733,9.733,0,0,1,67.732,163.933Z" fill="#f58a1f"/>
        <path id="Trazado_194161" data-name="Trazado 194161" d="M65.737,161.65l-.991,1.365-1.057-.767.993-1.365A9.453,9.453,0,0,1,65.737,161.65Z" fill="#f58a1f"/>
        <path id="Trazado_194162" data-name="Trazado 194162" d="M63.134,160.094l-.521,1.606-1.241-.4.52-1.6A9.516,9.516,0,0,1,63.134,160.094Z" fill="#f58a1f"/>
        <path id="Trazado_194163" data-name="Trazado 194163" d="M68.1,169.089a8.573,8.573,0,1,1-8.572-8.573A8.571,8.571,0,0,1,68.1,169.089Z" fill="#ffc708"/>
      </g>
      <path id="Trazado_194164" data-name="Trazado 194164" d="M62.117,169.071a3.349,3.349,0,0,0-1.685-.723l-.781-.158a2.037,2.037,0,0,1-.769-.273.525.525,0,0,1-.212-.446.6.6,0,0,1,.315-.562,2.014,2.014,0,0,1,.971-.181,4.514,4.514,0,0,1,1.052.134,6.511,6.511,0,0,1,1.144.4v-1.5a10.857,10.857,0,0,0-1.282-.266c-.125-.017-.246-.027-.369-.04v-.829H59.126v.811a2.638,2.638,0,0,0-1.433.542,2,2,0,0,0-.685,1.633,1.836,1.836,0,0,0,.493,1.349,3.047,3.047,0,0,0,1.559.728l.71.157a2.215,2.215,0,0,1,.865.324.692.692,0,0,1-.1,1.085,1.732,1.732,0,0,1-.918.2,4.4,4.4,0,0,1-1.228-.184,6.809,6.809,0,0,1-1.317-.545v1.548a8.393,8.393,0,0,0,1.363.381,6.926,6.926,0,0,0,.694.1v.815H60.5v-.824a2.713,2.713,0,0,0,1.419-.532,2.132,2.132,0,0,0,.7-1.749A1.838,1.838,0,0,0,62.117,169.071Z" fill="#fcee3b"/>
    </g>
    <g id="Grupo_135446" data-name="Grupo 135446">
      <g id="Grupo_135442" data-name="Grupo 135442">
        <path id="Trazado_194165" data-name="Trazado 194165" d="M33.8,214.507v3.372H28.881a.761.761,0,0,1-.763-.76v-2.565a.242.242,0,0,1,0-.047Z" fill="#fdcd08"/>
        <path id="Trazado_194166" data-name="Trazado 194166" d="M39.49,214.507H28.121a.759.759,0,0,1,.76-.714h9.85A.759.759,0,0,1,39.49,214.507Z" fill="#f8ec30"/>
        <path id="Trazado_194167" data-name="Trazado 194167" d="M39.493,214.554v2.565a.761.761,0,0,1-.762.76H33.8v-3.372H39.49A.242.242,0,0,1,39.493,214.554Z" fill="#f58a1f"/>
      </g>
      <g id="Grupo_135443" data-name="Grupo 135443">
        <path id="Trazado_194168" data-name="Trazado 194168" d="M33.8,210.422v3.371H28.881a.76.76,0,0,1-.763-.757v-2.565a.274.274,0,0,1,0-.049Z" fill="#fdcd08"/>
        <path id="Trazado_194169" data-name="Trazado 194169" d="M39.49,210.422H28.121a.757.757,0,0,1,.76-.712h9.85A.757.757,0,0,1,39.49,210.422Z" fill="#f8ec30"/>
        <path id="Trazado_194170" data-name="Trazado 194170" d="M39.493,210.471v2.565a.759.759,0,0,1-.762.757H33.8v-3.371H39.49A.274.274,0,0,1,39.493,210.471Z" fill="#f58a1f"/>
      </g>
      <g id="Grupo_135444" data-name="Grupo 135444">
        <path id="Trazado_194171" data-name="Trazado 194171" d="M33.8,206.338v3.372H28.881a.762.762,0,0,1-.763-.76v-2.565a.253.253,0,0,1,0-.047Z" fill="#fdcd08"/>
        <path id="Trazado_194172" data-name="Trazado 194172" d="M39.49,206.338H28.121a.758.758,0,0,1,.76-.712h9.85A.758.758,0,0,1,39.49,206.338Z" fill="#f8ec30"/>
        <path id="Trazado_194173" data-name="Trazado 194173" d="M39.493,206.385v2.565a.761.761,0,0,1-.762.76H33.8v-3.372H39.49A.253.253,0,0,1,39.493,206.385Z" fill="#f58a1f"/>
      </g>
      <g id="Grupo_135445" data-name="Grupo 135445">
        <path id="Trazado_194174" data-name="Trazado 194174" d="M33.8,202.254v3.372H28.881a.76.76,0,0,1-.763-.76V202.3a.263.263,0,0,1,0-.048Z" fill="#fdcd08"/>
        <path id="Trazado_194175" data-name="Trazado 194175" d="M39.49,202.254H28.121a.758.758,0,0,1,.76-.713h9.85A.757.757,0,0,1,39.49,202.254Z" fill="#f8ec30"/>
        <path id="Trazado_194176" data-name="Trazado 194176" d="M39.493,202.3v2.564a.76.76,0,0,1-.762.76H33.8v-3.372H39.49A.264.264,0,0,1,39.493,202.3Z" fill="#f58a1f"/>
      </g>
    </g>
    <g id="Grupo_135447" data-name="Grupo 135447">
      <path id="Trazado_194177" data-name="Trazado 194177" d="M43.9,214.507v3.372h4.924a.76.76,0,0,0,.762-.76v-2.564a.377.377,0,0,0,0-.048Z" fill="#fdcd08"/>
      <path id="Trazado_194178" data-name="Trazado 194178" d="M38.212,214.507h11.37a.758.758,0,0,0-.76-.712H38.973A.758.758,0,0,0,38.212,214.507Z" fill="#f8ec30"/>
      <path id="Trazado_194179" data-name="Trazado 194179" d="M38.209,214.555v2.564a.761.761,0,0,0,.764.76H43.9v-3.372H38.212A.252.252,0,0,0,38.209,214.555Z" fill="#fbae17"/>
    </g>
    <g id="Grupo_135448" data-name="Grupo 135448">
      <path id="Trazado_194180" data-name="Trazado 194180" d="M43.9,210.422v3.373h4.924a.761.761,0,0,0,.762-.759v-2.565a.41.41,0,0,0,0-.049Z" fill="#fdcd08"/>
      <path id="Trazado_194181" data-name="Trazado 194181" d="M38.212,210.422h11.37a.758.758,0,0,0-.76-.712H38.973A.758.758,0,0,0,38.212,210.422Z" fill="#f8ec30"/>
      <path id="Trazado_194182" data-name="Trazado 194182" d="M38.209,210.471v2.565a.761.761,0,0,0,.764.759H43.9v-3.373H38.212A.274.274,0,0,0,38.209,210.471Z" fill="#fbae17"/>
    </g>
    <g id="Grupo_135449" data-name="Grupo 135449">
      <path id="Trazado_194183" data-name="Trazado 194183" d="M43.9,206.338v3.372h4.924a.761.761,0,0,0,.762-.76v-2.565a.378.378,0,0,0,0-.047Z" fill="#fdcd08"/>
      <path id="Trazado_194184" data-name="Trazado 194184" d="M38.212,206.338h11.37a.759.759,0,0,0-.76-.712H38.973A.759.759,0,0,0,38.212,206.338Z" fill="#f8ec30"/>
      <path id="Trazado_194185" data-name="Trazado 194185" d="M38.209,206.385v2.565a.762.762,0,0,0,.764.76H43.9v-3.372H38.212A.253.253,0,0,0,38.209,206.385Z" fill="#fbae17"/>
    </g>
    <g id="Grupo_135450" data-name="Grupo 135450">
      <path id="Trazado_194186" data-name="Trazado 194186" d="M43.9,202.254v3.372h4.924a.76.76,0,0,0,.762-.76V202.3a.394.394,0,0,0,0-.048Z" fill="#fdcd08"/>
      <path id="Trazado_194187" data-name="Trazado 194187" d="M38.212,202.254h11.37a.759.759,0,0,0-.76-.713H38.973A.759.759,0,0,0,38.212,202.254Z" fill="#f8ec30"/>
      <path id="Trazado_194188" data-name="Trazado 194188" d="M38.209,202.3v2.564a.761.761,0,0,0,.764.76H43.9v-3.372H38.212A.263.263,0,0,0,38.209,202.3Z" fill="#fbae17"/>
    </g>
    <g id="Grupo_135451" data-name="Grupo 135451">
      <path id="Trazado_194189" data-name="Trazado 194189" d="M43.9,198.17v3.371H48.82a.76.76,0,0,0,.762-.76v-2.563a.378.378,0,0,0,0-.048Z" fill="#fdcd08"/>
      <path id="Trazado_194190" data-name="Trazado 194190" d="M38.211,198.17H49.58a.758.758,0,0,0-.76-.713H38.971A.757.757,0,0,0,38.211,198.17Z" fill="#f8ec30"/>
      <path id="Trazado_194191" data-name="Trazado 194191" d="M38.207,198.218v2.563a.761.761,0,0,0,.764.76H43.9V198.17H38.211A.191.191,0,0,0,38.207,198.218Z" fill="#fbae17"/>
    </g>
  </g>
  <g id="Grupo_135453" data-name="Grupo 135453">
    <path id="Trazado_194192" data-name="Trazado 194192" d="M331.832,291.387v4.271H325.6a.965.965,0,0,1-.967-.963v-3.248a.3.3,0,0,1,0-.06Z" fill="#f9ef75"/>
    <path id="Trazado_194193" data-name="Trazado 194193" d="M339.035,291.387h-14.4a.961.961,0,0,1,.963-.9h12.476A.96.96,0,0,1,339.035,291.387Z" fill="#fbf4a4"/>
    <path id="Trazado_194194" data-name="Trazado 194194" d="M339.039,291.447V294.7a.964.964,0,0,1-.967.963h-6.24v-4.271h7.2A.3.3,0,0,1,339.039,291.447Z" fill="#f8da47"/>
    <path id="Trazado_194195" data-name="Trazado 194195" d="M329.036,296.561v4.271H322.8a.964.964,0,0,1-.967-.963v-3.248a.3.3,0,0,1,0-.06Z" fill="#f9ef75"/>
    <path id="Trazado_194196" data-name="Trazado 194196" d="M336.239,296.561h-14.4a.961.961,0,0,1,.963-.9h12.476A.961.961,0,0,1,336.239,296.561Z" fill="#fbf4a4"/>
    <path id="Trazado_194197" data-name="Trazado 194197" d="M336.243,296.621v3.248a.965.965,0,0,1-.967.963h-6.24v-4.271h7.2A.3.3,0,0,1,336.243,296.621Z" fill="#f8da47"/>
    <path id="Trazado_194198" data-name="Trazado 194198" d="M330.634,301.735v4.27H324.4a.963.963,0,0,1-.967-.962v-3.249a.293.293,0,0,1,0-.059Z" fill="#f9ef75"/>
    <path id="Trazado_194199" data-name="Trazado 194199" d="M337.836,301.735h-14.4a.96.96,0,0,1,.963-.9h12.476A.959.959,0,0,1,337.836,301.735Z" fill="#fbf4a4"/>
    <path id="Trazado_194200" data-name="Trazado 194200" d="M337.841,301.794v3.249a.964.964,0,0,1-.967.962h-6.24v-4.27h7.2A.235.235,0,0,1,337.841,301.794Z" fill="#f8da47"/>
    <path id="Trazado_194201" data-name="Trazado 194201" d="M330.634,306.908v4.271H324.4a.964.964,0,0,1-.967-.963v-3.248a.3.3,0,0,1,0-.06Z" fill="#f9ef75"/>
    <path id="Trazado_194202" data-name="Trazado 194202" d="M337.836,306.908h-14.4a.96.96,0,0,1,.963-.9h12.476A.959.959,0,0,1,337.836,306.908Z" fill="#fbf4a4"/>
    <path id="Trazado_194203" data-name="Trazado 194203" d="M337.841,306.968v3.248a.965.965,0,0,1-.967.963h-6.24v-4.271h7.2A.243.243,0,0,1,337.841,306.968Z" fill="#f8da47"/>
    <path id="Trazado_194204" data-name="Trazado 194204" d="M330.634,312.082v4.27H324.4a.963.963,0,0,1-.967-.962v-3.248a.3.3,0,0,1,0-.06Z" fill="#f9ef75"/>
    <path id="Trazado_194205" data-name="Trazado 194205" d="M337.836,312.082h-14.4a.96.96,0,0,1,.963-.9h12.476A.959.959,0,0,1,337.836,312.082Z" fill="#fbf4a4"/>
    <path id="Trazado_194206" data-name="Trazado 194206" d="M337.841,312.142v3.248a.964.964,0,0,1-.967.962h-6.24v-4.27h7.2A.243.243,0,0,1,337.841,312.142Z" fill="#f8da47"/>
    <path id="Trazado_194207" data-name="Trazado 194207" d="M330.634,317.255v4.271H324.4a.964.964,0,0,1-.967-.963v-3.247a.308.308,0,0,1,0-.061Z" fill="#f9ef75"/>
    <path id="Trazado_194208" data-name="Trazado 194208" d="M337.836,317.255h-14.4a.96.96,0,0,1,.963-.9h12.476A.959.959,0,0,1,337.836,317.255Z" fill="#fbf4a4"/>
    <path id="Trazado_194209" data-name="Trazado 194209" d="M337.841,317.316v3.247a.964.964,0,0,1-.967.963h-6.24v-4.271h7.2A.247.247,0,0,1,337.841,317.316Z" fill="#f8da47"/>
    <path id="Trazado_194210" data-name="Trazado 194210" d="M310.342,301.735v4.27h-6.236a.964.964,0,0,1-.967-.962v-3.249a.293.293,0,0,1,0-.059Z" fill="#f9ef75"/>
    <path id="Trazado_194211" data-name="Trazado 194211" d="M317.545,301.735h-14.4a.96.96,0,0,1,.963-.9h12.476A.96.96,0,0,1,317.545,301.735Z" fill="#fbf4a4"/>
    <path id="Trazado_194212" data-name="Trazado 194212" d="M317.549,301.794v3.249a.963.963,0,0,1-.967.962h-6.24v-4.27h7.2A.293.293,0,0,1,317.549,301.794Z" fill="#f8da47"/>
    <path id="Trazado_194213" data-name="Trazado 194213" d="M310.342,306.908v4.271h-6.236a.965.965,0,0,1-.967-.963v-3.248a.3.3,0,0,1,0-.06Z" fill="#f9ef75"/>
    <path id="Trazado_194214" data-name="Trazado 194214" d="M317.545,306.908h-14.4a.961.961,0,0,1,.963-.9h12.476A.961.961,0,0,1,317.545,306.908Z" fill="#fbf4a4"/>
    <path id="Trazado_194215" data-name="Trazado 194215" d="M317.549,306.968v3.248a.964.964,0,0,1-.967.963h-6.24v-4.271h7.2A.3.3,0,0,1,317.549,306.968Z" fill="#f8da47"/>
    <path id="Trazado_194216" data-name="Trazado 194216" d="M310.342,312.082v4.27h-6.236a.964.964,0,0,1-.967-.962v-3.248a.3.3,0,0,1,0-.06Z" fill="#f9ef75"/>
    <path id="Trazado_194217" data-name="Trazado 194217" d="M317.545,312.082h-14.4a.96.96,0,0,1,.963-.9h12.476A.96.96,0,0,1,317.545,312.082Z" fill="#fbf4a4"/>
    <path id="Trazado_194218" data-name="Trazado 194218" d="M317.549,312.142v3.248a.963.963,0,0,1-.967.962h-6.24v-4.27h7.2A.3.3,0,0,1,317.549,312.142Z" fill="#f8da47"/>
    <path id="Trazado_194219" data-name="Trazado 194219" d="M310.342,317.255v4.271h-6.236a.964.964,0,0,1-.967-.963v-3.247a.308.308,0,0,1,0-.061Z" fill="#f9ef75"/>
    <path id="Trazado_194220" data-name="Trazado 194220" d="M317.545,317.255h-14.4a.961.961,0,0,1,.963-.9h12.476A.961.961,0,0,1,317.545,317.255Z" fill="#fbf4a4"/>
    <path id="Trazado_194221" data-name="Trazado 194221" d="M317.549,317.316v3.247a.964.964,0,0,1-.967.963h-6.24v-4.271h7.2A.308.308,0,0,1,317.549,317.316Z" fill="#f8da47"/>
    <path id="Trazado_194222" data-name="Trazado 194222" d="M349.038,291.387v4.271H342.8a.964.964,0,0,1-.966-.963v-3.248a.4.4,0,0,1,0-.06Z" fill="#f9ef75"/>
    <path id="Trazado_194223" data-name="Trazado 194223" d="M356.241,291.387h-14.4a.962.962,0,0,1,.963-.9h12.476A.96.96,0,0,1,356.241,291.387Z" fill="#fbf4a4"/>
    <path id="Trazado_194224" data-name="Trazado 194224" d="M356.245,291.447V294.7a.964.964,0,0,1-.967.963h-6.24v-4.271h7.2A.3.3,0,0,1,356.245,291.447Z" fill="#f8da47"/>
    <path id="Trazado_194225" data-name="Trazado 194225" d="M349.038,286.213v4.271H342.8a.963.963,0,0,1-.966-.963v-3.248a.4.4,0,0,1,0-.06Z" fill="#f9ef75"/>
    <path id="Trazado_194226" data-name="Trazado 194226" d="M356.241,286.213h-14.4a.962.962,0,0,1,.963-.9h12.476A.96.96,0,0,1,356.241,286.213Z" fill="#fbf4a4"/>
    <path id="Trazado_194227" data-name="Trazado 194227" d="M356.245,286.273v3.248a.964.964,0,0,1-.967.963h-6.24v-4.271h7.2A.3.3,0,0,1,356.245,286.273Z" fill="#f8da47"/>
    <path id="Trazado_194228" data-name="Trazado 194228" d="M347.041,281.04v4.27H340.8a.964.964,0,0,1-.967-.962V281.1a.3.3,0,0,1,0-.059Z" fill="#f9ef75"/>
    <path id="Trazado_194229" data-name="Trazado 194229" d="M354.244,281.04h-14.4a.96.96,0,0,1,.963-.9h12.476A.96.96,0,0,1,354.244,281.04Z" fill="#fbf4a4"/>
    <path id="Trazado_194230" data-name="Trazado 194230" d="M354.248,281.1v3.249a.964.964,0,0,1-.967.962h-6.24v-4.27h7.2A.3.3,0,0,1,354.248,281.1Z" fill="#f8da47"/>
    <path id="Trazado_194231" data-name="Trazado 194231" d="M349.844,296.561v4.271h-6.237a.964.964,0,0,1-.966-.963v-3.248a.3.3,0,0,1,0-.06Z" fill="#f9ef75"/>
    <path id="Trazado_194232" data-name="Trazado 194232" d="M357.046,296.561h-14.4a.96.96,0,0,1,.962-.9h12.477A.96.96,0,0,1,357.046,296.561Z" fill="#fbf4a4"/>
    <path id="Trazado_194233" data-name="Trazado 194233" d="M357.05,296.621v3.248a.964.964,0,0,1-.966.963h-6.24v-4.271h7.2A.3.3,0,0,1,357.05,296.621Z" fill="#f8da47"/>
    <path id="Trazado_194234" data-name="Trazado 194234" d="M351.441,301.735v4.27H345.2a.964.964,0,0,1-.967-.962v-3.249a.293.293,0,0,1,0-.059Z" fill="#f9ef75"/>
    <path id="Trazado_194235" data-name="Trazado 194235" d="M358.644,301.735h-14.4a.96.96,0,0,1,.963-.9h12.477A.96.96,0,0,1,358.644,301.735Z" fill="#fbf4a4"/>
    <path id="Trazado_194236" data-name="Trazado 194236" d="M358.648,301.794v3.249a.963.963,0,0,1-.966.962h-6.241v-4.27h7.2A.293.293,0,0,1,358.648,301.794Z" fill="#f8da47"/>
    <path id="Trazado_194237" data-name="Trazado 194237" d="M351.441,306.908v4.271H345.2a.965.965,0,0,1-.967-.963v-3.248a.3.3,0,0,1,0-.06Z" fill="#f9ef75"/>
    <path id="Trazado_194238" data-name="Trazado 194238" d="M358.644,306.908h-14.4a.961.961,0,0,1,.963-.9h12.477A.961.961,0,0,1,358.644,306.908Z" fill="#fbf4a4"/>
    <path id="Trazado_194239" data-name="Trazado 194239" d="M358.648,306.968v3.248a.964.964,0,0,1-.966.963h-6.241v-4.271h7.2A.3.3,0,0,1,358.648,306.968Z" fill="#f8da47"/>
    <path id="Trazado_194240" data-name="Trazado 194240" d="M351.441,312.082v4.27H345.2a.964.964,0,0,1-.967-.962v-3.248a.3.3,0,0,1,0-.06Z" fill="#f9ef75"/>
    <path id="Trazado_194241" data-name="Trazado 194241" d="M358.644,312.082h-14.4a.96.96,0,0,1,.963-.9h12.477A.96.96,0,0,1,358.644,312.082Z" fill="#fbf4a4"/>
    <path id="Trazado_194242" data-name="Trazado 194242" d="M358.648,312.142v3.248a.963.963,0,0,1-.966.962h-6.241v-4.27h7.2A.3.3,0,0,1,358.648,312.142Z" fill="#f8da47"/>
    <path id="Trazado_194243" data-name="Trazado 194243" d="M351.441,317.255v4.271H345.2a.964.964,0,0,1-.967-.963v-3.247a.308.308,0,0,1,0-.061Z" fill="#f9ef75"/>
    <path id="Trazado_194244" data-name="Trazado 194244" d="M358.644,317.255h-14.4a.961.961,0,0,1,.963-.9h12.477A.961.961,0,0,1,358.644,317.255Z" fill="#fbf4a4"/>
    <path id="Trazado_194245" data-name="Trazado 194245" d="M358.648,317.316v3.247a.963.963,0,0,1-.966.963h-6.241v-4.271h7.2A.308.308,0,0,1,358.648,317.316Z" fill="#f8da47"/>
    <path id="Trazado_194246" data-name="Trazado 194246" d="M355.442,256.641l-3.045.894.89,1.112L332.648,275.06l-6.467-4.292L303.3,288.88l2.274,2.6,20.709-16.755,6.47,4.641L354.529,260.2l.875,1.095,1.541-2.774,1.542-2.774Z" fill="#8c6df2"/>
  </g>
  <g id="Grupo_135459" data-name="Grupo 135459">
    <g id="Grupo_135454" data-name="Grupo 135454">
      <path id="Trazado_194247" data-name="Trazado 194247" d="M108.973,106.237a7.1,7.1,0,1,1-7.1-7.1A7.1,7.1,0,0,1,108.973,106.237Z" fill="#fdcd08"/>
      <path id="Trazado_194248" data-name="Trazado 194248" d="M107.658,106.237a5.787,5.787,0,1,1-5.787-5.788A5.786,5.786,0,0,1,107.658,106.237Z" fill="#f58a1f"/>
      <path id="Trazado_194249" data-name="Trazado 194249" d="M106.28,106.237a4.409,4.409,0,1,1-4.409-4.408A4.409,4.409,0,0,1,106.28,106.237Z" fill="#fdcd08"/>
      <path id="Trazado_194250" data-name="Trazado 194250" d="M103.644,106.223a2.607,2.607,0,0,0-1.3-.557l-.6-.12a1.571,1.571,0,0,1-.591-.21.405.405,0,0,1-.163-.343.462.462,0,0,1,.241-.431,1.533,1.533,0,0,1,.747-.14,3.458,3.458,0,0,1,.81.1,5.008,5.008,0,0,1,.878.3v-1.156a8.548,8.548,0,0,0-.984-.2c-.1-.014-.191-.021-.284-.031V102.8h-1.058v.623a2.03,2.03,0,0,0-1.1.417,1.541,1.541,0,0,0-.528,1.256,1.407,1.407,0,0,0,.38,1.035,2.348,2.348,0,0,0,1.2.562l.545.12a1.682,1.682,0,0,1,.665.249.531.531,0,0,1-.079.835,1.333,1.333,0,0,1-.706.154,3.392,3.392,0,0,1-.943-.141,5.3,5.3,0,0,1-1.013-.419v1.189a6.4,6.4,0,0,0,1.047.293c.178.034.357.058.534.075v.625H102.4v-.633a2.089,2.089,0,0,0,1.091-.409,1.639,1.639,0,0,0,.536-1.346A1.415,1.415,0,0,0,103.644,106.223Z" fill="#fcee3b"/>
      <rect id="Rectángulo_44837" data-name="Rectángulo 44837" width="1.383" height="1.383" transform="matrix(0.707, -0.707, 0.707, 0.707, 96.485, 102.596)" fill="#fff"/>
    </g>
    <path id="Trazado_194251" data-name="Trazado 194251" d="M110.911,64.408c-.292,10.039.332,12.806-3.5,12.806V62.137l8.845-6.922Z" fill="#f69d45"/>
    <path id="Trazado_194252" data-name="Trazado 194252" d="M107.795,115.939l16.02-6.976c6.01-2.854,6.85,1.274,2.387,3.664-4.936,2.641-14.623,6.782-14.623,6.782l-3.784-1.018Z" fill="#f39c56"/>
    <g id="Grupo_135456" data-name="Grupo 135456">
      <g id="Grupo_135455" data-name="Grupo 135455">
        <path id="Trazado_194253" data-name="Trazado 194253" d="M107.795,125.109c-5.537-.664-27.077-4.42-27.6-4.43l-2.73-.01v-12.75l3.308-.048c5.793-1.526,7.431-3.929,15.41-2.627,2.132.351,13.041.948,18.566,1.632,3.688.456,4.617,4.93-3.119,5.233-8.176.318-11.987.46-11.987.46s7.43,3.064,9.884,3.982l17.635-6.3c4.859-2.263,5.6,1.876,2.394,3.679A239.678,239.678,0,0,1,107.795,125.109Z" fill="#fab67a"/>
      </g>
    </g>
    <rect id="Rectángulo_44838" data-name="Rectángulo 44838" width="9.253" height="15.81" transform="translate(70.803 106.216)" fill="#5ac8e7"/>
    <rect id="Rectángulo_44839" data-name="Rectángulo 44839" width="14.083" height="17.732" transform="translate(63.716 105.255)" fill="#2d2d2d"/>
    <path id="Trazado_194254" data-name="Trazado 194254" d="M111.628,107.875v2.734c2,.992,4.979.133,4.979-1.367S113.632,106.879,111.628,107.875Z" fill="#f37b3e"/>
    <path id="Trazado_194255" data-name="Trazado 194255" d="M74.61,109.514a1.52,1.52,0,1,1-1.52-1.52A1.52,1.52,0,0,1,74.61,109.514Z" fill="#adcac6"/>
    <path id="Trazado_194256" data-name="Trazado 194256" d="M142.408,48.869l-6.729,6.346c-1.731,6.345-8.075,10-8.075,10-6.345,1.155-13.461,6.155-13.461,6.155-.349.684-.652,1.377-.943,2.014-.424.929-1.425,3.262-2.635,2.906-1.616-.478-1.738-6.173.117-9.537l6.923-5c.36-4.741-.636-8.9-8.075,1.73l-.578,10.769c0,2.249-1.644,3.7-2.839,3.471-.6-.114-1.091-.657-1.2-1.74-.228-3.116-.031-.435-.961-13.075,6.63-15.126,6.463-13.406,19.23-17.408l10.96-6.436Z" fill="#fab67a"/>
    <g id="Grupo_135457" data-name="Grupo 135457">
      <path id="Trazado_194257" data-name="Trazado 194257" d="M108.937,87.322a7.1,7.1,0,1,1-7.1-7.1A7.1,7.1,0,0,1,108.937,87.322Z" fill="#fdcd08"/>
      <circle id="Elipse_6016" data-name="Elipse 6016" cx="5.787" cy="5.787" r="5.787" transform="translate(95.842 92.896) rotate(-87.926)" fill="#f58a1f"/>
      <path id="Trazado_194258" data-name="Trazado 194258" d="M106.242,87.322a4.408,4.408,0,1,1-4.408-4.408A4.408,4.408,0,0,1,106.242,87.322Z" fill="#fdcd08"/>
      <path id="Trazado_194259" data-name="Trazado 194259" d="M103.607,87.309a2.6,2.6,0,0,0-1.3-.557l-.6-.12a1.551,1.551,0,0,1-.591-.211.4.4,0,0,1-.163-.342.468.468,0,0,1,.241-.433,1.559,1.559,0,0,1,.747-.139,3.458,3.458,0,0,1,.81.1,5.091,5.091,0,0,1,.878.3V84.757a8.764,8.764,0,0,0-.984-.2c-.1-.013-.19-.021-.284-.031v-.637h-1.057v.623a2.023,2.023,0,0,0-1.1.418,1.541,1.541,0,0,0-.528,1.255,1.409,1.409,0,0,0,.38,1.036,2.34,2.34,0,0,0,1.2.561l.545.121a1.682,1.682,0,0,1,.665.249.482.482,0,0,1,.167.395.489.489,0,0,1-.246.439,1.331,1.331,0,0,1-.706.154,3.356,3.356,0,0,1-.943-.141,5.326,5.326,0,0,1-1.013-.419v1.19a6.545,6.545,0,0,0,1.048.293c.177.034.356.058.534.074v.625h1.057v-.633a2.077,2.077,0,0,0,1.091-.409,1.638,1.638,0,0,0,.536-1.345A1.414,1.414,0,0,0,103.607,87.309Z" fill="#fcee3b"/>
      <rect id="Rectángulo_44840" data-name="Rectángulo 44840" width="1.383" height="1.383" transform="translate(96.448 83.681) rotate(-45)" fill="#fff"/>
    </g>
    <g id="Grupo_135458" data-name="Grupo 135458">
      <path id="Trazado_194260" data-name="Trazado 194260" d="M122.889,94.424a7.1,7.1,0,1,1-7.1-7.1A7.1,7.1,0,0,1,122.889,94.424Z" fill="#fdcd08"/>
      <path id="Trazado_194261" data-name="Trazado 194261" d="M121.574,94.424a5.787,5.787,0,1,1-5.787-5.787A5.787,5.787,0,0,1,121.574,94.424Z" fill="#f58a1f"/>
      <path id="Trazado_194262" data-name="Trazado 194262" d="M120.195,94.424a4.408,4.408,0,1,1-4.408-4.408A4.409,4.409,0,0,1,120.195,94.424Z" fill="#fdcd08"/>
      <path id="Trazado_194263" data-name="Trazado 194263" d="M117.559,94.41a2.594,2.594,0,0,0-1.3-.556l-.6-.12a1.561,1.561,0,0,1-.591-.211.405.405,0,0,1-.164-.342.469.469,0,0,1,.242-.433,1.559,1.559,0,0,1,.747-.139,3.45,3.45,0,0,1,.809.1,4.98,4.98,0,0,1,.878.3V91.859a8.5,8.5,0,0,0-.984-.2c-.1-.013-.19-.021-.284-.031v-.637h-1.057v.623a2.024,2.024,0,0,0-1.1.418,1.542,1.542,0,0,0-.527,1.255,1.408,1.408,0,0,0,.379,1.036,2.356,2.356,0,0,0,1.2.56l.546.122a1.675,1.675,0,0,1,.664.249.529.529,0,0,1-.078.834,1.335,1.335,0,0,1-.707.154,3.354,3.354,0,0,1-.942-.141,5.236,5.236,0,0,1-1.013-.419v1.189a6.408,6.408,0,0,0,1.047.294c.178.034.356.058.534.074v.626h1.057v-.634a2.086,2.086,0,0,0,1.091-.409,1.64,1.64,0,0,0,.537-1.346A1.413,1.413,0,0,0,117.559,94.41Z" fill="#fcee3b"/>
      <rect id="Rectángulo_44841" data-name="Rectángulo 44841" width="1.383" height="1.383" transform="translate(110.401 90.783) rotate(-44.987)" fill="#fff"/>
    </g>
    <path id="Trazado_194264" data-name="Trazado 194264" d="M113.2,73.382a7.49,7.49,0,0,1-1.567,2.57,1.176,1.176,0,0,1-1.068.336,5.85,5.85,0,0,1,.141-.722,4.082,4.082,0,0,1,1.66-2.45C112.61,73.191,112.893,73.28,113.2,73.382Z" fill="#f37b3e"/>
    <path id="Trazado_194265" data-name="Trazado 194265" d="M106.335,76.32a4.286,4.286,0,0,1-.222,1.4c-.6-.114-1.091-.657-1.2-1.74l-.169-2.311a.542.542,0,0,1,.127-.012C105.68,73.659,106.335,74.852,106.335,76.32Z" fill="#f37b3e"/>
    <rect id="Rectángulo_44842" data-name="Rectángulo 44842" width="9.254" height="15.81" transform="translate(128.44 41.269) rotate(-41.222)" fill="#5ac8e7"/>
    <rect id="Rectángulo_44843" data-name="Rectángulo 44843" width="14.082" height="17.732" transform="matrix(0.752, -0.659, 0.659, 0.752, 129.505, 39.057)" fill="#2d2d2d"/>
    <path id="Trazado_194266" data-name="Trazado 194266" d="M145.31,43.471a1.52,1.52,0,1,1,2.146.142A1.519,1.519,0,0,1,145.31,43.471Z" fill="#adcac6"/>
  </g>
  <g id="Grupo_135462" data-name="Grupo 135462">
    <g id="Grupo_135460" data-name="Grupo 135460">
      <path id="Trazado_194267" data-name="Trazado 194267" d="M18.623,36.536A22.439,22.439,0,0,0,41.062,58.975V14.1A22.438,22.438,0,0,0,18.623,36.536Z" fill="#bdccd4"/>
      <path id="Trazado_194268" data-name="Trazado 194268" d="M63.5,36.536A22.438,22.438,0,0,0,41.062,14.1V58.975A22.438,22.438,0,0,0,63.5,36.536Z" fill="#bdccd4"/>
      <path id="Trazado_194269" data-name="Trazado 194269" d="M41.062,59.632V13.444c-10.425-.427-23.123,8.634-23.123,23.1C17.939,52.924,32.761,59.971,41.062,59.632Zm-1.22-3.539a22.726,22.726,0,0,1-6.951-10,62.959,62.959,0,0,0,6.951.7Zm0-11.745a57.625,57.625,0,0,1-7.722-.859,29.174,29.174,0,0,1-.765-5.73h8.487Zm0-9.031H31.355a29.088,29.088,0,0,1,.765-5.729,57.3,57.3,0,0,1,7.722-.859Zm0-18.335v9.3a62.958,62.958,0,0,0-6.951.7A22.755,22.755,0,0,1,39.842,16.982Zm-2.885-.713A25.6,25.6,0,0,0,30.169,27.5a24.126,24.126,0,0,0-9.1,3.74A20.75,20.75,0,0,1,36.957,16.269Zm-7.45,13.9a31.715,31.715,0,0,0-.593,5.153H20.672C21.95,32.576,26.558,30.925,29.507,30.164Zm-.593,7.595a31.728,31.728,0,0,0,.593,5.154c-2.921-.752-7.557-2.4-8.837-5.154Zm1.257,7.819a25.572,25.572,0,0,0,6.786,11.228A20.743,20.743,0,0,1,21.074,41.842C22.759,43.119,25.527,44.546,30.171,45.578Z" fill="#8c6df2"/>
      <path id="Trazado_194270" data-name="Trazado 194270" d="M64.184,36.54c0-17.119-15.741-23.4-23.122-23.1V59.632C46.1,59.837,64.184,55.456,64.184,36.54ZM45.167,56.806a25.591,25.591,0,0,0,6.786-11.228c4.643-1.032,7.412-2.459,9.1-3.736A20.745,20.745,0,0,1,45.167,56.806Zm7.45-13.893a31.843,31.843,0,0,0,.592-5.154h8.245C60.174,40.51,55.538,42.161,52.617,42.913Zm.592-7.6a31.831,31.831,0,0,0-.592-5.153c2.949.761,7.557,2.412,8.835,5.153Zm7.842-4.078a24.113,24.113,0,0,0-9.1-3.74,25.593,25.593,0,0,0-6.787-11.23A20.749,20.749,0,0,1,61.051,31.239ZM42.282,16.982a22.755,22.755,0,0,1,6.951,10,62.982,62.982,0,0,0-6.951-.7Zm0,11.747A57.3,57.3,0,0,1,50,29.588a29.163,29.163,0,0,1,.765,5.729H42.282Zm0,9.03h8.487A29.174,29.174,0,0,1,50,43.489a57.625,57.625,0,0,1-7.722.859Zm0,9.033a62.983,62.983,0,0,0,6.951-.7,22.742,22.742,0,0,1-6.951,10Z" fill="#5038a1"/>
    </g>
    <g id="Grupo_135461" data-name="Grupo 135461">
      <path id="Trazado_194271" data-name="Trazado 194271" d="M56.2,36.55V65.3a1.334,1.334,0,0,1-1.336-1.336c0-.023,0-.046,0-.067l-.061-.008c0,.023-.006.044-.011.067a1.336,1.336,0,1,1-2.614-.555c.005-.023.013-.043.017-.066l-.056-.018c-.009.02-.016.043-.026.063a1.336,1.336,0,1,1-2.441-1.087c.011-.021.022-.041.032-.063-.017-.01-.035-.019-.052-.03-.014.02-.024.04-.038.059a1.336,1.336,0,1,1-2.162-1.571l.044-.055c-.015-.012-.03-.026-.046-.04-.017.017-.032.034-.049.049a1.336,1.336,0,1,1-1.788-1.985c.018-.016.036-.03.054-.044-.012-.017-.022-.034-.034-.051l-.06.04a1.336,1.336,0,1,1-1.336-2.315c.02-.012.041-.021.061-.031-.008-.019-.017-.038-.025-.056a.494.494,0,0,1-.064.024,1.335,1.335,0,1,1-.826-2.54c.021-.007.044-.012.066-.018l-.014-.06-.066.011a1.336,1.336,0,1,1-.28-2.658l.069,0V50.9l-.069,0a1.336,1.336,0,1,1,.28-2.658.456.456,0,0,1,.066.01l.014-.059c-.022-.007-.045-.011-.066-.019a1.336,1.336,0,0,1,.826-2.541c.022.007.043.016.064.024.008-.018.016-.037.025-.055l-.061-.031a1.336,1.336,0,1,1,1.336-2.315c.021.012.04.026.06.038.012-.015.022-.032.034-.049a.522.522,0,0,1-.054-.044,1.336,1.336,0,1,1,1.788-1.985l.049.048a.573.573,0,0,0,.046-.04c-.015-.017-.03-.035-.044-.054a1.336,1.336,0,0,1,2.162-1.571c.014.02.026.04.038.06l.052-.031c-.01-.021-.021-.041-.03-.063a1.335,1.335,0,1,1,2.44-1.086c.009.021.017.043.025.064l.058-.02c-.006-.021-.014-.043-.019-.066a1.336,1.336,0,1,1,2.614-.555c.005.023.008.046.011.067a.6.6,0,0,0,.061-.007c0-.022,0-.045,0-.068A1.336,1.336,0,0,1,56.2,36.55Z" fill="#faa819"/>
      <path id="Trazado_194272" data-name="Trazado 194272" d="M70.5,52.428a1.334,1.334,0,0,1-1.467,1.189.534.534,0,0,1-.068-.011c0,.02-.009.04-.012.06.021.006.043.011.064.018a1.336,1.336,0,1,1-.825,2.542l-.063-.025c-.01.019-.018.037-.027.055l.061.031A1.336,1.336,0,1,1,66.826,58.6c-.02-.012-.04-.026-.06-.04l-.035.051c.018.014.038.028.055.044A1.336,1.336,0,1,1,65,60.642c-.018-.015-.033-.032-.048-.047-.016.012-.033.026-.048.039.015.017.031.036.044.054a1.335,1.335,0,1,1-2.16,1.571c-.014-.019-.026-.039-.038-.059l-.054.03c.011.022.023.042.032.063a1.336,1.336,0,1,1-2.44,1.087c-.01-.022-.017-.043-.025-.063l-.058.018c.006.023.012.045.017.066a1.336,1.336,0,1,1-2.614.555c0-.023-.008-.045-.011-.067l-.061.008c0,.021.005.044.005.067A1.336,1.336,0,0,1,56.2,65.3V36.55a1.337,1.337,0,0,1,1.336,1.336c0,.023,0,.046,0,.068a.592.592,0,0,0,.059.007c0-.021.007-.044.011-.067a1.336,1.336,0,1,1,2.614.555c-.005.023-.011.045-.017.066l.058.02c.008-.021.015-.043.025-.064a1.335,1.335,0,1,1,2.44,1.086.62.62,0,0,1-.032.063l.054.031c.012-.02.024-.04.038-.059a1.335,1.335,0,1,1,2.16,1.57c-.013.019-.029.037-.044.056l.048.039A.552.552,0,0,1,65,41.208a1.336,1.336,0,1,1,1.788,1.985.523.523,0,0,1-.054.044q.016.026.036.051a.362.362,0,0,1,.058-.038,1.335,1.335,0,1,1,1.335,2.313l-.059.031c.007.018.017.037.025.056a.48.48,0,0,1,.063-.024,1.335,1.335,0,1,1,.825,2.54c-.021.008-.043.012-.064.019,0,.019.009.039.014.059l.064-.01a1.336,1.336,0,1,1,.28,2.658l-.069,0,0,.03,0,.031.069,0A1.338,1.338,0,0,1,70.5,52.428Z" fill="#f58a1f"/>
      <path id="Trazado_194273" data-name="Trazado 194273" d="M67.692,50.925A11.49,11.49,0,1,1,56.2,39.436,11.488,11.488,0,0,1,67.692,50.925Z" fill="#ffc708"/>
      <path id="Trazado_194274" data-name="Trazado 194274" d="M60.18,50.9a5.783,5.783,0,0,0-2.908-1.249l-1.348-.273A3.529,3.529,0,0,1,54.6,48.9a.91.91,0,0,1-.366-.77,1.044,1.044,0,0,1,.544-.97,3.481,3.481,0,0,1,1.676-.312,7.844,7.844,0,0,1,1.818.23,11.248,11.248,0,0,1,1.973.683v-2.6a18.822,18.822,0,0,0-2.213-.459c-.215-.029-.425-.047-.636-.068V43.208H55.017v1.4a4.533,4.533,0,0,0-2.473.935,3.457,3.457,0,0,0-1.183,2.819,3.167,3.167,0,0,0,.851,2.327A5.268,5.268,0,0,0,54.9,51.948l1.224.272a3.831,3.831,0,0,1,1.494.558,1.194,1.194,0,0,1-.178,1.873A2.982,2.982,0,0,1,55.859,55a7.566,7.566,0,0,1-2.119-.317,11.808,11.808,0,0,1-2.274-.941v2.672a14.552,14.552,0,0,0,2.353.657,11.732,11.732,0,0,0,1.2.167v1.406h2.374V57.219A4.685,4.685,0,0,0,59.84,56.3a3.683,3.683,0,0,0,1.2-3.02A3.169,3.169,0,0,0,60.18,50.9Z" fill="#fcee3b"/>
    </g>
  </g>
  <g id="Grupo_135463" data-name="Grupo 135463">
    <path id="Trazado_194275" data-name="Trazado 194275" d="M95.816,219.745c23.347,0,23.347,8,46.695,8s23.349-8,46.7-8,23.348,8,46.7,8,23.351-8,46.7-8,23.352,8,46.7,8" fill="none" stroke="#bdccd4" stroke-linecap="round" stroke-linejoin="round" stroke-width="4"/>
  </g>
  <g id="Grupo_135464" data-name="Grupo 135464">
    <path id="Rectángulo_44844" data-name="Rectángulo 44844" d="M0,0H7.129a0,0,0,0,1,0,0V2.669a.775.775,0,0,1-.775.775H.775A.775.775,0,0,1,0,2.669V0A0,0,0,0,1,0,0Z" transform="translate(232.876 278.279) rotate(46.869)" fill="#fdb74d"/>
    <path id="Trazado_194276" data-name="Trazado 194276" d="M251.119,266.072a11.531,11.531,0,1,0-.532,16.3A11.531,11.531,0,0,0,251.119,266.072ZM236.465,279.8a8.549,8.549,0,1,1,12.083.4A8.548,8.548,0,0,1,236.465,279.8Z" fill="#bdccd4"/>
    <path id="Rectángulo_44845" data-name="Rectángulo 44845" d="M0,0H4.41a0,0,0,0,1,0,0V4.674A1.112,1.112,0,0,1,3.3,5.786H1.112A1.112,1.112,0,0,1,0,4.674V0A0,0,0,0,1,0,0Z" transform="translate(231.292 281.625) rotate(46.869)" fill="#fedc72"/>
  </g>
  <g id="Grupo_135466" data-name="Grupo 135466">
    <path id="Trazado_194277" data-name="Trazado 194277" d="M379.815,193.824a.593.593,0,0,1-.126.029h-.972v2.791h-25.9a.7.7,0,0,1-.641-.525l-.212-.8a23.731,23.731,0,0,1-.759-4.317c-.053-.64-.085-1.293-.085-1.938v-14.1a.667.667,0,0,1,.688-.664l26.351.792c.6.017-.473,1.287-.473,1.883l.984,7.772.562,4.444A28.209,28.209,0,0,0,379.815,193.824Z" opacity="0.1" fill="url(#linear-gradient)" style="mix-blend-mode: multiply;isolation: isolate"/>
    <path id="Trazado_194278" data-name="Trazado 194278" d="M379.815,193.824a.593.593,0,0,1-.126.029H352.812a.678.678,0,0,1-.641-.5l-.212-.786c-.14-.513-.262-1.037-.366-1.558-.144-.714-.256-1.436-.332-2.16-.054-.506-.1-1.015-.118-1.524-.014-.333-.028-.668-.028-1v-14.1a.667.667,0,0,1,.688-.663l26.351.792a1.013,1.013,0,0,1,.488.141,1.084,1.084,0,0,1,.54.96v12.99a39.025,39.025,0,0,0,1.04,6.7A.563.563,0,0,1,379.815,193.824Z" fill="url(#linear-gradient-2)"/>
    <path id="Trazado_194279" data-name="Trazado 194279" d="M376.748,176.837h-.01l-23.091-.58a.4.4,0,0,1,.02-.8l23.091.581a.4.4,0,0,1-.01.8Z" fill="#fff" style="mix-blend-mode: soft-light;isolation: isolate"/>
    <path id="Trazado_194280" data-name="Trazado 194280" d="M373.771,186.5l-2.674-.026v-1.92l2.674.043Z" fill="#fff"/>
    <g id="Grupo_135465" data-name="Grupo 135465">
      <path id="Trazado_194281" data-name="Trazado 194281" d="M363.586,180.507l-2.864-.084v-1.987l2.864.1Z" opacity="0.2" fill="url(#linear-gradient-3)"/>
      <path id="Trazado_194282" data-name="Trazado 194282" d="M367.059,180.608l-2.8-.082v-1.964l2.8.1Z" opacity="0.2" fill="url(#linear-gradient-3)"/>
      <path id="Trazado_194283" data-name="Trazado 194283" d="M370.453,180.707l-2.735-.08v-1.942l2.735.1Z" opacity="0.2" fill="url(#linear-gradient-3)"/>
      <path id="Trazado_194284" data-name="Trazado 194284" d="M373.771,180.8l-2.674-.078v-1.92l2.674.1Z" opacity="0.2" fill="url(#linear-gradient-3)"/>
      <path id="Trazado_194285" data-name="Trazado 194285" d="M377.015,180.9l-2.615-.076v-1.9l2.615.093Z" opacity="0.2" fill="url(#linear-gradient-3)"/>
      <path id="Trazado_194286" data-name="Trazado 194286" d="M356.393,183.312l-3-.058v-2.035l3,.078Z" opacity="0.2" fill="url(#linear-gradient-3)"/>
      <path id="Trazado_194287" data-name="Trazado 194287" d="M360.032,183.383l-2.932-.057v-2.011l2.932.076Z" opacity="0.2" fill="url(#linear-gradient-3)"/>
      <path id="Trazado_194288" data-name="Trazado 194288" d="M363.586,183.452l-2.864-.056v-1.987l2.864.074Z" opacity="0.2" fill="url(#linear-gradient-3)"/>
      <path id="Trazado_194289" data-name="Trazado 194289" d="M367.059,183.52l-2.8-.054V181.5l2.8.073Z" opacity="0.2" fill="url(#linear-gradient-3)"/>
      <path id="Trazado_194290" data-name="Trazado 194290" d="M370.453,183.586l-2.735-.053v-1.942l2.735.071Z" opacity="0.2" fill="url(#linear-gradient-3)"/>
      <path id="Trazado_194291" data-name="Trazado 194291" d="M373.771,183.651,371.1,183.6v-1.92l2.674.069Z" opacity="0.2" fill="url(#linear-gradient-3)"/>
      <path id="Trazado_194292" data-name="Trazado 194292" d="M377.015,183.714l-2.615-.051v-1.9l2.615.068Z" opacity="0.2" fill="url(#linear-gradient-3)"/>
      <path id="Trazado_194293" data-name="Trazado 194293" d="M356.393,186.328l-3-.029v-2.035l3,.049Z" opacity="0.2" fill="url(#linear-gradient-3)"/>
      <path id="Trazado_194294" data-name="Trazado 194294" d="M360.032,186.363l-2.932-.029v-2.011l2.932.048Z" opacity="0.2" fill="url(#linear-gradient-3)"/>
      <path id="Trazado_194295" data-name="Trazado 194295" d="M363.586,186.4l-2.864-.028v-1.987l2.864.047Z" opacity="0.2" fill="url(#linear-gradient-3)"/>
      <path id="Trazado_194296" data-name="Trazado 194296" d="M367.059,186.432l-2.8-.027V184.44l2.8.045Z" opacity="0.2" fill="url(#linear-gradient-3)"/>
      <path id="Trazado_194297" data-name="Trazado 194297" d="M370.453,186.465l-2.735-.027V184.5l2.735.044Z" opacity="0.2" fill="url(#linear-gradient-3)"/>
      <path id="Trazado_194298" data-name="Trazado 194298" d="M377.015,186.529,374.4,186.5v-1.9l2.615.042Z" opacity="0.2" fill="url(#linear-gradient-3)"/>
      <path id="Trazado_194299" data-name="Trazado 194299" d="M356.393,189.344h-3v-2.035l3,.02Z" opacity="0.2" fill="url(#linear-gradient-3)"/>
      <path id="Trazado_194300" data-name="Trazado 194300" d="M360.032,189.344H357.1v-2.011l2.932.019Z" opacity="0.2" fill="url(#linear-gradient-3)"/>
      <path id="Trazado_194301" data-name="Trazado 194301" d="M363.586,189.344h-2.864v-1.987l2.864.019Z" opacity="0.2" fill="url(#linear-gradient-3)"/>
      <path id="Trazado_194302" data-name="Trazado 194302" d="M367.059,189.344h-2.8v-1.964l2.8.018Z" opacity="0.2" fill="url(#linear-gradient-3)"/>
      <path id="Trazado_194303" data-name="Trazado 194303" d="M370.453,189.344h-2.735V187.4l2.735.018Z" opacity="0.2" fill="url(#linear-gradient-3)"/>
    </g>
  </g>
  <g id="Grupo_135467" data-name="Grupo 135467">
    <circle id="Elipse_5247" data-name="Elipse 5247" cx="14.58" cy="14.58" r="14.58" transform="translate(355.303 339.311)" fill="#5038a1" opacity="0.7" style="isolation: isolate"/>
    <g id="Elipse_5249" data-name="Elipse 5249">
      <circle id="Elipse_6017" data-name="Elipse 6017" cx="5.494" cy="5.494" r="5.494" transform="translate(366.191 343.956)" fill="none"/>
      <circle id="Elipse_6018" data-name="Elipse 6018" cx="4.86" cy="4.86" r="4.86" transform="translate(366.825 344.59)" fill="none" stroke="#fff" stroke-width="1.268"/>
    </g>
    <g id="Elipse_5250" data-name="Elipse 5250">
      <circle id="Elipse_6019" data-name="Elipse 6019" cx="2.958" cy="2.958" r="2.958" transform="translate(329.733 335.914)" fill="#fdb74d"/>
      <circle id="Elipse_6020" data-name="Elipse 6020" cx="2.324" cy="2.324" r="2.324" transform="translate(330.367 336.548)" fill="#fdb74d" stroke="#8c6df2" stroke-width="1.268"/>
    </g>
    <circle id="Elipse_5251" data-name="Elipse 5251" cx="1.902" cy="1.902" r="1.902" transform="translate(349.055 352.116)" fill="#fdb74d"/>
  </g>
  <rect id="Rectángulo_44846" data-name="Rectángulo 44846" width="400" height="380" fill="none"/>
</svg>
