<svg id="Grupo_135560" data-name="Grupo 135560" xmlns="http://www.w3.org/2000/svg" width="295" height="280" viewBox="0 0 295 280">
  <g id="Grupo_135560-2" data-name="Grupo 135560">
    <circle id="Elipse_6041" data-name="Elipse 6041" cx="26.368" cy="26.368" r="26.368" transform="translate(237.621 5.452)" fill="#fdb74d" opacity="0.5"/>
    <g id="Elipse_4972" data-name="Elipse 4972">
      <circle id="Elipse_6042" data-name="Elipse 6042" cx="24.35" cy="24.35" r="24.35" transform="translate(239.639 7.47)" fill="none"/>
      <circle id="Elipse_6043" data-name="Elipse 6043" cx="23.051" cy="23.051" r="23.051" transform="translate(240.937 8.769)" fill="none" stroke="#fff" stroke-linecap="round" stroke-width="2.597" stroke-dasharray="1.948 5.195"/>
    </g>
  </g>
  <path id="Trazado_195497" data-name="Trazado 195497" d="M278.874,188.364c-29.054,64.124-105.746,91.666-165.836,86.97-16.407-1.282-49.418-3.862-75.193-26.878-49.5-44.2-41.876-136.591,5.509-190.986,6.1-7.005,48.341-53.937,114.163-53.309,48.191.46,82.016,26.164,86.129,29.367a128.091,128.091,0,0,1,26.983,28.909C294.9,98.27,297.03,148.294,278.874,188.364Z" fill="#e5e1f1"/>
  <g id="Grupo_135568" data-name="Grupo 135568">
    <g id="Grupo_135561" data-name="Grupo 135561">
      <rect id="Rectángulo_44873" data-name="Rectángulo 44873" width="270.603" height="26.215" transform="translate(11.597 63.107)" fill="#f2f2f2"/>
      <rect id="Rectángulo_44874" data-name="Rectángulo 44874" width="270.603" height="26.215" transform="translate(11.597 89.322)" fill="#e6e6e6"/>
      <rect id="Rectángulo_44875" data-name="Rectángulo 44875" width="270.603" height="26.215" transform="translate(11.597 115.537)" fill="#f2f2f2"/>
      <rect id="Rectángulo_44876" data-name="Rectángulo 44876" width="270.603" height="26.215" transform="translate(11.597 141.752)" fill="#e6e6e6"/>
      <rect id="Rectángulo_44877" data-name="Rectángulo 44877" width="270.603" height="26.215" transform="translate(11.597 167.966)" fill="#f2f2f2"/>
      <rect id="Rectángulo_44878" data-name="Rectángulo 44878" width="270.603" height="26.215" transform="translate(11.597 194.181)" fill="#e6e6e6"/>
      <rect id="Rectángulo_44879" data-name="Rectángulo 44879" width="270.603" height="26.215" transform="translate(11.597 220.396)" fill="#f2f2f2"/>
    </g>
    <rect id="Rectángulo_44880" data-name="Rectángulo 44880" width="270.603" height="34.792" transform="translate(11.597 28.316)" fill="#5038a1"/>
    <g id="Grupo_135562" data-name="Grupo 135562">
      <rect id="Rectángulo_44881" data-name="Rectángulo 44881" width="44.247" height="26.215" transform="translate(11.597 63.107)" fill="#8c6df2"/>
      <rect id="Rectángulo_44882" data-name="Rectángulo 44882" width="44.247" height="26.215" transform="translate(11.597 89.322)" fill="#8c6df2"/>
      <rect id="Rectángulo_44883" data-name="Rectángulo 44883" width="44.247" height="26.215" transform="translate(11.597 115.537)" fill="#8c6df2"/>
      <rect id="Rectángulo_44884" data-name="Rectángulo 44884" width="44.247" height="26.215" transform="translate(11.597 141.752)" fill="#8c6df2"/>
      <rect id="Rectángulo_44885" data-name="Rectángulo 44885" width="44.247" height="26.215" transform="translate(11.597 167.966)" fill="#8c6df2"/>
      <rect id="Rectángulo_44886" data-name="Rectángulo 44886" width="44.247" height="26.215" transform="translate(11.597 194.181)" fill="#8c6df2"/>
      <rect id="Rectángulo_44887" data-name="Rectángulo 44887" width="44.247" height="26.215" transform="translate(11.597 220.396)" fill="#8c6df2"/>
    </g>
    <g id="Grupo_135564" data-name="Grupo 135564">
      <g id="Grupo_135563" data-name="Grupo 135563">
        <path id="Trazado_195498" data-name="Trazado 195498" d="M40.671,44.307h4.017v3.454H40.671v2.462h4.578v3.6H36.958V38.714h8.119v3.434H40.671Z" fill="#fff"/>
        <path id="Trazado_195499" data-name="Trazado 195499" d="M50.365,49.057a1.543,1.543,0,0,0,1.7,1.576c1.014,0,1.663-.5,1.663-1.36,0-1.231-1.318-1.318-2.1-1.382-2.353-.173-4.707-1.425-4.707-4.6,0-2.958,2.029-4.794,5.053-4.794a4.6,4.6,0,0,1,4.966,4.945h-3.5a1.35,1.35,0,0,0-1.4-1.554A1.31,1.31,0,0,0,50.6,43.271c0,.669.475,1.143,1.662,1.3,2.742.281,5.16,1.057,5.16,4.75,0,2.872-2.115,4.728-5.311,4.728-3.239,0-5.4-1.986-5.289-4.987Z" fill="#fff"/>
        <path id="Trazado_195500" data-name="Trazado 195500" d="M67.83,38.714v3.455H64.872V53.828H61.245V42.169H58.266V38.714Z" fill="#fff"/>
        <path id="Trazado_195501" data-name="Trazado 195501" d="M76.552,53.828l-.669-1.879h-4.3l-.67,1.879H67.009v-.237L72.817,38.5h1.856l5.743,15.093v.237Zm-1.684-4.944a22.669,22.669,0,0,1-1.144-4.361,41.754,41.754,0,0,1-1.1,4.361Z" fill="#fff"/>
        <path id="Trazado_195502" data-name="Trazado 195502" d="M86.655,38.737c3.8,0,6.347,2.979,6.347,7.469.065,4.578-2.5,7.622-6.347,7.622H81.667V38.737Zm-.043,11.529c1.576,0,2.633-1.6,2.633-4.016,0-2.353-1.079-3.973-2.633-3.973H85.4v7.989Z" fill="#fff"/>
        <path id="Trazado_195503" data-name="Trazado 195503" d="M100.99,54.044c-3.973,0-6.629-3.109-6.629-7.772S97.017,38.5,100.99,38.5c3.951,0,6.585,3.11,6.585,7.774S104.941,54.044,100.99,54.044Zm0-3.692c1.706,0,2.828-1.662,2.828-4.08s-1.122-4.06-2.828-4.06c-1.749,0-2.915,1.641-2.915,4.06S99.241,50.352,100.99,50.352Z" fill="#fff"/>
        <path id="Trazado_195504" data-name="Trazado 195504" d="M118.713,38.737c3.8,0,6.348,2.979,6.348,7.469.064,4.578-2.5,7.622-6.348,7.622h-4.987V38.737Zm-.043,11.529c1.576,0,2.634-1.6,2.634-4.016,0-2.353-1.079-3.973-2.634-3.973h-1.209v7.989Z" fill="#fff"/>
        <path id="Trazado_195505" data-name="Trazado 195505" d="M130.781,44.307H134.8v3.454h-4.016v2.462h4.578v3.6h-8.291V38.714h8.118v3.434h-4.4Z" fill="#fff"/>
        <path id="Trazado_195506" data-name="Trazado 195506" d="M148.807,53.807l-1.943-4.729h-1.425v4.729H141.7V38.714h5.333c3.044,0,5.1,2.138,5.1,5.333a4.677,4.677,0,0,1-1.814,4.081l2.569,5.485v.194Zm-1.792-7.945c.928,0,1.511-.756,1.511-1.9,0-1.1-.583-1.835-1.511-1.835h-1.642v3.736Z" fill="#fff"/>
        <path id="Trazado_195507" data-name="Trazado 195507" d="M158.284,44.307H162.3v3.454h-4.016v2.462h4.578v3.6h-8.291V38.714h8.118v3.434h-4.4Z" fill="#fff"/>
        <path id="Trazado_195508" data-name="Trazado 195508" d="M167.977,49.057a1.543,1.543,0,0,0,1.705,1.576c1.015,0,1.663-.5,1.663-1.36,0-1.231-1.317-1.318-2.1-1.382-2.353-.173-4.707-1.425-4.707-4.6,0-2.958,2.03-4.794,5.053-4.794a4.6,4.6,0,0,1,4.966,4.945h-3.5a1.35,1.35,0,0,0-1.4-1.554,1.311,1.311,0,0,0-1.447,1.382c0,.669.475,1.143,1.662,1.3,2.743.281,5.16,1.057,5.16,4.75,0,2.872-2.115,4.728-5.311,4.728-3.238,0-5.4-1.986-5.289-4.987Z" fill="#fff"/>
        <path id="Trazado_195509" data-name="Trazado 195509" d="M176.87,48.754V38.714h3.736v9.954c0,1.123.626,1.878,1.576,1.878.929,0,1.533-.755,1.533-1.878V38.714h3.714v10.04a5.28,5.28,0,0,1-10.559,0Z" fill="#fff"/>
        <path id="Trazado_195510" data-name="Trazado 195510" d="M197.877,53.828h-7.924V38.714h3.736V50.287h4.188Z" fill="#fff"/>
        <path id="Trazado_195511" data-name="Trazado 195511" d="M207.008,38.714v3.455H204.05V53.828h-3.627V42.169h-2.979V38.714Z" fill="#fff"/>
        <path id="Trazado_195512" data-name="Trazado 195512" d="M215.73,53.828l-.669-1.879h-4.3l-.67,1.879h-3.907v-.237L211.994,38.5h1.857l5.743,15.093v.237Zm-1.685-4.944a22.728,22.728,0,0,1-1.143-4.361,41.753,41.753,0,0,1-1.1,4.361Z" fill="#fff"/>
        <path id="Trazado_195513" data-name="Trazado 195513" d="M225.833,38.737c3.8,0,6.348,2.979,6.348,7.469.064,4.578-2.505,7.622-6.348,7.622h-4.987V38.737Zm-.043,11.529c1.577,0,2.634-1.6,2.634-4.016,0-2.353-1.079-3.973-2.634-3.973h-1.209v7.989Z" fill="#fff"/>
        <path id="Trazado_195514" data-name="Trazado 195514" d="M240.167,54.044c-3.972,0-6.629-3.109-6.629-7.772S236.2,38.5,240.167,38.5c3.952,0,6.585,3.11,6.585,7.774S244.119,54.044,240.167,54.044Zm0-3.692c1.706,0,2.828-1.662,2.828-4.08s-1.122-4.06-2.828-4.06c-1.749,0-2.915,1.641-2.915,4.06S238.418,50.352,240.167,50.352Z" fill="#fff"/>
        <path id="Trazado_195515" data-name="Trazado 195515" d="M251.674,49.057a1.544,1.544,0,0,0,1.705,1.576c1.015,0,1.663-.5,1.663-1.36,0-1.231-1.317-1.318-2.094-1.382-2.354-.173-4.707-1.425-4.707-4.6,0-2.958,2.029-4.794,5.052-4.794a4.6,4.6,0,0,1,4.966,4.945h-3.5a1.349,1.349,0,0,0-1.4-1.554,1.311,1.311,0,0,0-1.447,1.382c0,.669.475,1.143,1.663,1.3,2.742.281,5.16,1.057,5.16,4.75,0,2.872-2.115,4.728-5.312,4.728-3.238,0-5.4-1.986-5.289-4.987Z" fill="#fff"/>
      </g>
    </g>
    <g id="Grupo_135565" data-name="Grupo 135565">
      <path id="Trazado_195516" data-name="Trazado 195516" d="M70.038,75.668l2.223-6.193h2.793v.38L70.038,82.906H68.69L63.712,69.855v-.38h2.812l2.109,6.174.722,2.546Z"/>
      <path id="Trazado_195517" data-name="Trazado 195517" d="M79.178,80.873a4.846,4.846,0,0,0,2.45-.722L81.572,82.2a4.751,4.751,0,0,1-2.7.761c-2.7,0-4.558-1.311-4.558-4.806,0-3.25,2.184-4.731,4.179-4.731,2.355,0,3.438,1.235,3.438,2.755,0,2.09-2.052,3.761-5.167,2.906C77.012,80.474,77.962,80.873,79.178,80.873ZM76.785,77.4c1.614.512,2.773.094,2.773-.969,0-.589-.38-.932-1.121-.932C77.848,75.5,76.993,75.952,76.785,77.4Z"/>
      <path id="Trazado_195518" data-name="Trazado 195518" d="M83.795,76.523c0-1.007-.1-1.33-.912-1.2V73.692c1.14-.3,3.1-.684,3.306,1.292a2.809,2.809,0,0,1,2.546-1.558c1.842,0,2.868,1.368,2.868,4.047v2.3c0,1.235.152,1.425.969,1.368V82.7c-1.748.494-3.477.247-3.477-2.3V77.473c0-1.216-.494-1.939-1.33-1.939-.74,0-1.443.7-1.443,2v5.243H83.795Z"/>
      <path id="Trazado_195519" data-name="Trazado 195519" d="M99.261,75.592H96.81v3.552c0,1.273.627,1.71,1.387,1.729a2.584,2.584,0,0,0,1.178-.209L99.6,82.6a7.023,7.023,0,0,1-2.07.361c-1.768,0-3.173-1.007-3.173-3.762V75.592l-1.425-.152V73.616h1.5l.266-2.831H96.81v2.831h2.451Z"/>
      <path id="Trazado_195520" data-name="Trazado 195520" d="M108.285,74.281v5.585c0,.779.056,1.2.8,1.14v1.71c-1.177.4-2.735.342-2.83-1.52a2.839,2.839,0,0,1-2.508,1.767c-2.051,0-3.362-1.539-3.362-4.427,0-3.058,1.8-5.11,4.54-5.11A7.807,7.807,0,0,1,108.285,74.281Zm-2.432,1.539a2.085,2.085,0,0,0-1.007-.286c-1.2,0-1.976,1.1-1.976,3,0,1.2.457,2.071,1.425,2.071s1.558-1.12,1.558-2.716Z"/>
      <path id="Trazado_195521" data-name="Trazado 195521" d="M112.561,79.923a1.067,1.067,0,0,0,1.082,1.121c.665,0,1.121-.342,1.121-.95a.988.988,0,0,0-.969-.987c-1.519-.247-3.552-.742-3.552-2.813,0-1.747,1.348-2.868,3.4-2.868,1.824,0,3.476.969,3.382,2.888H114.8a1.011,1.011,0,0,0-1.1-.893c-.609,0-1.007.3-1.007.836,0,.684.55.836,1.007.893,1.747.247,3.589.55,3.589,2.906,0,1.748-1.4,2.907-3.533,2.907-2.375,0-3.609-1.216-3.666-3.04Z"/>
      <path id="Trazado_195522" data-name="Trazado 195522" d="M70.038,95.3a5.119,5.119,0,0,1,5.263,4.73H72.755a2.508,2.508,0,0,0-2.717-2.166c-1.842,0-3.077,1.691-3.077,4.275,0,2.526,1.235,4.217,3.077,4.217a2.711,2.711,0,0,0,2.717-2.394h2.584c-.456,3.609-2.926,4.978-5.3,4.978-3.438,0-5.775-2.7-5.775-6.8S66.6,95.3,70.038,95.3Z"/>
      <path id="Trazado_195523" data-name="Trazado 195523" d="M80.641,108.963c-2.527,0-4.218-1.919-4.218-4.806,0-2.832,1.691-4.731,4.218-4.731,2.488,0,4.16,1.9,4.16,4.731C84.8,107.044,83.129,108.963,80.641,108.963Zm0-2.318c1.007,0,1.672-.969,1.672-2.488,0-1.445-.665-2.394-1.672-2.394-1.045,0-1.71.949-1.71,2.394C78.931,105.676,79.6,106.645,80.641,106.645Z"/>
      <path id="Trazado_195524" data-name="Trazado 195524" d="M88.355,105.923a1.067,1.067,0,0,0,1.082,1.121c.665,0,1.121-.342,1.121-.95a.988.988,0,0,0-.969-.987c-1.519-.247-3.553-.742-3.553-2.813,0-1.747,1.349-2.868,3.4-2.868,1.824,0,3.476.969,3.382,2.888H90.6a1.011,1.011,0,0,0-1.1-.893c-.608,0-1.006.3-1.006.836,0,.684.55.836,1.006.893,1.748.247,3.59.55,3.59,2.906,0,1.748-1.4,2.907-3.533,2.907-2.374,0-3.609-1.216-3.666-3.04Z"/>
      <path id="Trazado_195525" data-name="Trazado 195525" d="M100.134,101.592H97.683v3.552c0,1.273.627,1.71,1.387,1.729a2.584,2.584,0,0,0,1.178-.209l.228,1.938a7.023,7.023,0,0,1-2.07.361c-1.768,0-3.173-1.007-3.173-3.762v-3.609l-1.425-.152V99.616h1.5l.266-2.831h2.108v2.831h2.451Z"/>
      <path id="Trazado_195526" data-name="Trazado 195526" d="M105.454,108.963c-2.527,0-4.217-1.919-4.217-4.806,0-2.832,1.69-4.731,4.217-4.731,2.489,0,4.161,1.9,4.161,4.731C109.615,107.044,107.943,108.963,105.454,108.963Zm0-2.318c1.007,0,1.672-.969,1.672-2.488,0-1.445-.665-2.394-1.672-2.394-1.044,0-1.71.949-1.71,2.394C103.744,105.676,104.41,106.645,105.454,106.645Z"/>
      <path id="Trazado_195527" data-name="Trazado 195527" d="M118.013,108.963c-2.223,0-3.5-1.767-3.5-4.806,0-2.661,1.368-4.731,3.553-4.731a2.018,2.018,0,0,1,2.051,1.2V94.79h2.318v11.3c0,.779.3.95.854.874v1.71c-1.12.247-2.773.418-2.868-1.521A2.7,2.7,0,0,1,118.013,108.963Zm2.033-4.9c0-1.33-.512-2.432-1.481-2.432-.912,0-1.521,1.026-1.521,2.488,0,1.578.551,2.489,1.521,2.489S120.046,105.5,120.046,104.062Z"/>
      <path id="Trazado_195528" data-name="Trazado 195528" d="M129.185,106.873a4.846,4.846,0,0,0,2.45-.722l-.057,2.051a4.745,4.745,0,0,1-2.7.761c-2.7,0-4.558-1.311-4.558-4.806,0-3.25,2.184-4.731,4.178-4.731,2.356,0,3.439,1.235,3.439,2.755,0,2.09-2.052,3.761-5.167,2.906C127.019,106.474,127.969,106.873,129.185,106.873ZM126.79,103.4c1.616.512,2.775.094,2.775-.969,0-.589-.38-.932-1.121-.932C127.855,101.5,127,101.952,126.79,103.4Z"/>
      <path id="Trazado_195529" data-name="Trazado 195529" d="M137.109,102.561c0-.893-.19-1.254-.931-1.2v-1.71c1.558-.4,3.439-.285,3.439,2.185v3.153c0,1.14.474,1.881,1.368,1.881,2.146,0,1.216-5.566.683-7.257h2.47c1.14,3.781,1.4,9.347-3.153,9.347a3.6,3.6,0,0,1-3.9-3.971Z"/>
      <path id="Trazado_195530" data-name="Trazado 195530" d="M150.94,106.873a4.846,4.846,0,0,0,2.45-.722l-.057,2.051a4.745,4.745,0,0,1-2.7.761c-2.7,0-4.558-1.311-4.558-4.806,0-3.25,2.184-4.731,4.178-4.731,2.356,0,3.439,1.235,3.439,2.755,0,2.09-2.052,3.761-5.167,2.906C148.774,106.474,149.724,106.873,150.94,106.873Zm-2.394-3.476c1.615.512,2.774.094,2.774-.969,0-.589-.38-.932-1.121-.932C149.61,101.5,148.754,101.952,148.546,103.4Z"/>
      <path id="Trazado_195531" data-name="Trazado 195531" d="M155.558,102.523c0-1.007-.1-1.33-.912-1.2V99.692c1.14-.3,3.1-.684,3.306,1.292a2.807,2.807,0,0,1,2.545-1.558c1.842,0,2.869,1.368,2.869,4.047v2.3c0,1.235.152,1.425.968,1.368V108.7c-1.748.494-3.476.247-3.476-2.3v-2.925c0-1.216-.494-1.939-1.33-1.939-.741,0-1.444.7-1.444,2v5.243h-2.526Z"/>
      <path id="Trazado_195532" data-name="Trazado 195532" d="M171.023,101.592h-2.451v3.552c0,1.273.627,1.71,1.386,1.729a2.586,2.586,0,0,0,1.179-.209l.228,1.938a7.035,7.035,0,0,1-2.071.361c-1.767,0-3.173-1.007-3.173-3.762v-3.609l-1.424-.152V99.616h1.5l.265-2.831h2.109v2.831h2.451Z"/>
      <path id="Trazado_195533" data-name="Trazado 195533" d="M180.047,100.281v5.585c0,.779.057,1.2.8,1.14v1.71c-1.178.4-2.735.342-2.83-1.52a2.84,2.84,0,0,1-2.508,1.767c-2.052,0-3.362-1.539-3.362-4.427,0-3.058,1.8-5.11,4.54-5.11A7.8,7.8,0,0,1,180.047,100.281Zm-2.431,1.539a2.085,2.085,0,0,0-1.007-.286c-1.2,0-1.976,1.1-1.976,3,0,1.2.456,2.071,1.425,2.071s1.558-1.12,1.558-2.716Z"/>
      <path id="Trazado_195534" data-name="Trazado 195534" d="M184.324,105.923a1.067,1.067,0,0,0,1.082,1.121c.665,0,1.121-.342,1.121-.95a.988.988,0,0,0-.969-.987c-1.52-.247-3.553-.742-3.553-2.813,0-1.747,1.349-2.868,3.4-2.868,1.824,0,3.476.969,3.381,2.888h-2.222a1.011,1.011,0,0,0-1.1-.893c-.608,0-1.007.3-1.007.836,0,.684.551.836,1.007.893,1.747.247,3.59.55,3.59,2.906,0,1.748-1.4,2.907-3.533,2.907-2.374,0-3.609-1.216-3.666-3.04Z"/>
      <path id="Trazado_195535" data-name="Trazado 195535" d="M64.777,130.346v-8.871h2.7v8.814a1.906,1.906,0,0,0,1.881,2.147c1.121,0,1.843-.855,1.843-2.147v-8.814h2.659v8.871a4.54,4.54,0,1,1-9.08,0Z"/>
      <path id="Trazado_195536" data-name="Trazado 195536" d="M81.552,127.592H79.1v3.552c0,1.273.627,1.71,1.387,1.729a2.584,2.584,0,0,0,1.178-.209l.228,1.938a7.023,7.023,0,0,1-2.07.361c-1.768,0-3.173-1.007-3.173-3.762v-3.609l-1.425-.152v-1.824h1.5l.266-2.831H79.1v2.831h2.451Z"/>
      <path id="Trazado_195537" data-name="Trazado 195537" d="M84.365,121.284a1.533,1.533,0,0,1,.018,3.059,1.442,1.442,0,0,1-1.5-1.538A1.412,1.412,0,0,1,84.365,121.284Zm-1.273,4.332H85.6v9.157H83.092Z"/>
      <path id="Trazado_195538" data-name="Trazado 195538" d="M90.007,131.334c0,1.14.3,1.558.969,1.558a1.839,1.839,0,0,0,.494-.076l.076,2a4.715,4.715,0,0,1-1.31.152c-1.654,0-2.7-.988-2.7-3.629V120.866h2.47Z"/>
      <path id="Trazado_195539" data-name="Trazado 195539" d="M93.788,121.284a1.533,1.533,0,0,1,.019,3.059,1.442,1.442,0,0,1-1.5-1.538A1.412,1.412,0,0,1,93.788,121.284Zm-1.272,4.332h2.507v9.157H92.516Z"/>
      <path id="Trazado_195540" data-name="Trazado 195540" d="M100.115,134.963c-2.223,0-3.5-1.767-3.5-4.806,0-2.661,1.369-4.731,3.553-4.731a2.02,2.02,0,0,1,2.052,1.2V120.79h2.317v11.3c0,.779.3.95.855.874v1.71c-1.12.247-2.774.418-2.868-1.521A2.7,2.7,0,0,1,100.115,134.963Zm2.033-4.9c0-1.33-.513-2.432-1.482-2.432-.912,0-1.52,1.026-1.52,2.488,0,1.578.551,2.489,1.52,2.489S102.148,131.505,102.148,130.062Z"/>
      <path id="Trazado_195541" data-name="Trazado 195541" d="M114.327,126.281v5.585c0,.779.056,1.2.8,1.14v1.71c-1.177.4-2.735.342-2.83-1.52a2.839,2.839,0,0,1-2.508,1.767c-2.051,0-3.362-1.539-3.362-4.427,0-3.058,1.8-5.11,4.54-5.11A7.807,7.807,0,0,1,114.327,126.281Zm-2.432,1.539a2.085,2.085,0,0,0-1.007-.286c-1.2,0-1.976,1.1-1.976,3,0,1.2.457,2.071,1.425,2.071s1.558-1.12,1.558-2.716Z"/>
      <path id="Trazado_195542" data-name="Trazado 195542" d="M119.685,134.963c-2.223,0-3.495-1.767-3.495-4.806,0-2.661,1.368-4.731,3.553-4.731a2.018,2.018,0,0,1,2.051,1.2V120.79h2.318v11.3c0,.779.3.95.854.874v1.71c-1.12.247-2.773.418-2.868-1.521A2.7,2.7,0,0,1,119.685,134.963Zm2.033-4.9c0-1.33-.513-2.432-1.481-2.432-.912,0-1.521,1.026-1.521,2.488,0,1.578.551,2.489,1.521,2.489S121.718,131.505,121.718,130.062Z"/>
      <path id="Trazado_195543" data-name="Trazado 195543" d="M132.453,126.851a2.811,2.811,0,0,1,2.375-1.425c1.938,0,3.23,1.786,3.172,4.674-.056,3.475-2.128,4.863-4.5,4.863a7.668,7.668,0,0,1-3.343-.855V121h2.3Zm.153,5.681a2.6,2.6,0,0,0,1.12.246c1.064,0,1.691-.836,1.748-2.66.057-1.6-.437-2.375-1.406-2.375-1.007,0-1.462,1.312-1.462,2.528Z"/>
      <path id="Trazado_195544" data-name="Trazado 195544" d="M144.442,125.426a2.649,2.649,0,0,1,1.766.684l-.722,2.051a2.321,2.321,0,0,0-1.349-.418c-.969,0-1.767.685-1.767,2.205v4.825h-2.45v-6.421c0-.76-.209-1.254-.893-1.121V125.6c1.121-.3,3.116-.323,3.267,1.292A2.251,2.251,0,0,1,144.442,125.426Z"/>
      <path id="Trazado_195545" data-name="Trazado 195545" d="M154.777,131.847c0,1.045.094,1.349.836,1.216v1.653c-1.065.3-2.964.569-3.116-1.273a2.8,2.8,0,0,1-2.469,1.52c-1.919,0-2.888-1.349-2.888-4.047v-5.3h2.526v5.244c-.038,1.348.362,2.013,1.178,2.013.779.019,1.425-.836,1.425-2.071v-5.186h2.508Z"/>
      <path id="Trazado_195546" data-name="Trazado 195546" d="M162.6,127.592h-2.451v3.552c0,1.273.627,1.71,1.386,1.729a2.586,2.586,0,0,0,1.179-.209l.228,1.938a7.035,7.035,0,0,1-2.071.361c-1.767,0-3.173-1.007-3.173-3.762v-3.609l-1.424-.152v-1.824h1.5l.265-2.831h2.109v2.831H162.6Z"/>
      <path id="Trazado_195547" data-name="Trazado 195547" d="M171.629,126.281v5.585c0,.779.057,1.2.8,1.14v1.71c-1.178.4-2.735.342-2.83-1.52a2.84,2.84,0,0,1-2.508,1.767c-2.052,0-3.362-1.539-3.362-4.427,0-3.058,1.8-5.11,4.54-5.11A7.8,7.8,0,0,1,171.629,126.281ZM169.2,127.82a2.085,2.085,0,0,0-1.007-.286c-1.2,0-1.976,1.1-1.976,3,0,1.2.456,2.071,1.425,2.071s1.558-1.12,1.558-2.716Z"/>
      <path id="Trazado_195548" data-name="Trazado 195548" d="M70.058,147.3a5.074,5.074,0,0,1,5.147,4.369H72.546a2.428,2.428,0,0,0-2.488-1.805c-1.843,0-3.078,1.71-3.078,4.255s1.235,4.237,3.078,4.237c1.367,0,2.488-.551,2.792-2.545H70.115v-2.394h5.3a10.167,10.167,0,0,1-.322,3.723,5.077,5.077,0,0,1-5.034,3.8c-3.477,0-5.795-2.736-5.795-6.821S66.581,147.3,70.058,147.3Z"/>
      <path id="Trazado_195549" data-name="Trazado 195549" d="M84.478,152.281v5.585c0,.779.057,1.2.8,1.14v1.71c-1.178.4-2.736.342-2.83-1.52a2.84,2.84,0,0,1-2.508,1.767c-2.052,0-3.362-1.539-3.362-4.427,0-3.058,1.8-5.11,4.54-5.11A7.8,7.8,0,0,1,84.478,152.281Zm-2.432,1.539a2.082,2.082,0,0,0-1.007-.286c-1.2,0-1.975,1.1-1.975,3,0,1.2.456,2.071,1.425,2.071s1.557-1.12,1.557-2.716Z"/>
      <path id="Trazado_195550" data-name="Trazado 195550" d="M88.754,157.923a1.068,1.068,0,0,0,1.082,1.121c.665,0,1.121-.342,1.121-.95a.988.988,0,0,0-.968-.987c-1.52-.247-3.553-.742-3.553-2.813,0-1.747,1.349-2.868,3.4-2.868,1.825,0,3.477.969,3.382,2.888H91a1.01,1.01,0,0,0-1.1-.893c-.608,0-1.007.3-1.007.836,0,.684.551.836,1.007.893,1.747.247,3.59.55,3.59,2.906,0,1.748-1.406,2.907-3.533,2.907-2.375,0-3.61-1.216-3.666-3.04Z"/>
      <path id="Trazado_195551" data-name="Trazado 195551" d="M100.534,153.592H98.082v3.552c0,1.273.627,1.71,1.388,1.729a2.587,2.587,0,0,0,1.178-.209l.227,1.938a7.018,7.018,0,0,1-2.07.361c-1.767,0-3.173-1.007-3.173-3.762v-3.609l-1.425-.152v-1.824h1.5l.266-2.831h2.108v2.831h2.452Z"/>
      <path id="Trazado_195552" data-name="Trazado 195552" d="M105.853,160.963c-2.527,0-4.218-1.919-4.218-4.806,0-2.832,1.691-4.731,4.218-4.731,2.488,0,4.16,1.9,4.16,4.731C110.013,159.044,108.341,160.963,105.853,160.963Zm0-2.318c1.007,0,1.672-.969,1.672-2.488,0-1.445-.665-2.394-1.672-2.394-1.045,0-1.71.949-1.71,2.394C104.143,157.676,104.808,158.645,105.853,158.645Z"/>
      <path id="Trazado_195553" data-name="Trazado 195553" d="M113.568,157.923a1.067,1.067,0,0,0,1.082,1.121c.665,0,1.121-.342,1.121-.95a.988.988,0,0,0-.969-.987c-1.519-.247-3.553-.742-3.553-2.813,0-1.747,1.349-2.868,3.4-2.868,1.824,0,3.476.969,3.382,2.888h-2.223a1.011,1.011,0,0,0-1.1-.893c-.608,0-1.006.3-1.006.836,0,.684.55.836,1.006.893,1.747.247,3.59.55,3.59,2.906,0,1.748-1.4,2.907-3.533,2.907-2.374,0-3.609-1.216-3.666-3.04Z"/>
      <path id="Trazado_195554" data-name="Trazado 195554" d="M126.658,160.963c-2.223,0-3.5-1.767-3.5-4.806,0-2.661,1.369-4.731,3.553-4.731a2.02,2.02,0,0,1,2.052,1.2V146.79h2.317v11.3c0,.779.3.95.855.874v1.71c-1.12.247-2.774.418-2.868-1.521A2.7,2.7,0,0,1,126.658,160.963Zm2.033-4.9c0-1.33-.513-2.432-1.482-2.432-.912,0-1.52,1.026-1.52,2.488,0,1.578.551,2.489,1.52,2.489S128.691,157.505,128.691,156.062Z"/>
      <path id="Trazado_195555" data-name="Trazado 195555" d="M137.829,158.873a4.85,4.85,0,0,0,2.451-.722l-.057,2.051a4.745,4.745,0,0,1-2.7.761c-2.7,0-4.559-1.311-4.559-4.806,0-3.25,2.185-4.731,4.179-4.731,2.355,0,3.438,1.235,3.438,2.755,0,2.09-2.051,3.761-5.167,2.906C135.663,158.474,136.614,158.873,137.829,158.873Zm-2.394-3.476c1.615.512,2.774.094,2.774-.969,0-.589-.38-.932-1.121-.932C136.5,153.5,135.644,153.952,135.435,155.4Z"/>
      <path id="Trazado_195556" data-name="Trazado 195556" d="M149.648,160.963c-2.528,0-4.218-1.919-4.218-4.806,0-2.832,1.69-4.731,4.218-4.731,2.488,0,4.16,1.9,4.16,4.731C153.808,159.044,152.136,160.963,149.648,160.963Zm0-2.318c1.007,0,1.672-.969,1.672-2.488,0-1.445-.665-2.394-1.672-2.394-1.045,0-1.71.949-1.71,2.394C147.938,157.676,148.6,158.645,149.648,158.645Z"/>
      <path id="Trazado_195557" data-name="Trazado 195557" d="M160.077,151.426c2.223,0,3.5,1.767,3.5,4.807,0,2.659-1.369,4.73-3.553,4.73a2.022,2.022,0,0,1-2.052-1.2v5.68h-2.317V154.294c0-.778-.3-.949-.856-.873v-1.71c1.121-.247,2.775-.418,2.869,1.52A2.7,2.7,0,0,1,160.077,151.426Zm-2.032,4.9c0,1.33.513,2.432,1.5,2.432.911,0,1.5-1.025,1.5-2.488,0-1.577-.493-2.489-1.462-2.489S158.045,154.884,158.045,156.327Z"/>
      <path id="Trazado_195558" data-name="Trazado 195558" d="M169.6,158.873a4.846,4.846,0,0,0,2.45-.722l-.056,2.051a4.751,4.751,0,0,1-2.7.761c-2.7,0-4.558-1.311-4.558-4.806,0-3.25,2.184-4.731,4.178-4.731,2.356,0,3.439,1.235,3.439,2.755,0,2.09-2.052,3.761-5.167,2.906C167.432,158.474,168.382,158.873,169.6,158.873ZM167.2,155.4c1.615.512,2.774.094,2.774-.969,0-.589-.38-.932-1.121-.932C168.268,153.5,167.412,153.952,167.2,155.4Z"/>
      <path id="Trazado_195559" data-name="Trazado 195559" d="M178.737,151.426a2.65,2.65,0,0,1,1.766.684l-.722,2.051a2.321,2.321,0,0,0-1.349-.418c-.969,0-1.767.685-1.767,2.205v4.825h-2.45v-6.421c0-.76-.209-1.254-.893-1.121V151.6c1.121-.3,3.116-.323,3.267,1.292A2.251,2.251,0,0,1,178.737,151.426Z"/>
      <path id="Trazado_195560" data-name="Trazado 195560" d="M188.71,152.281v5.585c0,.779.057,1.2.8,1.14v1.71c-1.178.4-2.735.342-2.83-1.52a2.84,2.84,0,0,1-2.508,1.767c-2.051,0-3.362-1.539-3.362-4.427,0-3.058,1.805-5.11,4.54-5.11A7.8,7.8,0,0,1,188.71,152.281Zm-2.431,1.539a2.085,2.085,0,0,0-1.007-.286c-1.2,0-1.976,1.1-1.976,3,0,1.2.456,2.071,1.425,2.071s1.558-1.12,1.558-2.716Z"/>
      <path id="Trazado_195561" data-name="Trazado 195561" d="M196.235,154.921a1.5,1.5,0,0,0-1.52-1.158c-.988,0-1.653.949-1.653,2.394,0,1.519.665,2.526,1.71,2.526a1.606,1.606,0,0,0,1.482-1.425h2.374a3.757,3.757,0,0,1-3.856,3.705c-2.527,0-4.217-1.919-4.217-4.806,0-2.832,1.671-4.731,4.179-4.731a3.786,3.786,0,0,1,3.876,3.5Z"/>
      <path id="Trazado_195562" data-name="Trazado 195562" d="M201.366,147.284a1.533,1.533,0,0,1,.018,3.059,1.442,1.442,0,0,1-1.5-1.538A1.412,1.412,0,0,1,201.366,147.284Zm-1.273,4.332H202.6v9.157h-2.507Z"/>
      <path id="Trazado_195563" data-name="Trazado 195563" d="M208.376,160.963c-2.527,0-4.217-1.919-4.217-4.806,0-2.832,1.69-4.731,4.217-4.731,2.489,0,4.16,1.9,4.16,4.731C212.536,159.044,210.865,160.963,208.376,160.963Zm0-2.318c1.007,0,1.672-.969,1.672-2.488,0-1.445-.665-2.394-1.672-2.394-1.045,0-1.71.949-1.71,2.394C206.666,157.676,207.331,158.645,208.376,158.645Zm.646-8.491h-1.957v-.229l1.216-2.754,2.222.836v.208Z"/>
      <path id="Trazado_195564" data-name="Trazado 195564" d="M214.418,154.523c0-1.007-.1-1.33-.912-1.2v-1.633c1.14-.3,3.1-.684,3.306,1.292a2.809,2.809,0,0,1,2.546-1.558c1.842,0,2.868,1.368,2.868,4.047v2.3c0,1.235.152,1.425.969,1.368V160.7c-1.748.494-3.477.247-3.477-2.3v-2.925c0-1.216-.494-1.939-1.33-1.939-.74,0-1.443.7-1.443,2v5.243h-2.527Z"/>
      <path id="Trazado_195565" data-name="Trazado 195565" d="M89.115,181.586H83.377v-2.279h5.738Z"/>
      <path id="Trazado_195566" data-name="Trazado 195566" d="M100.268,173.3a5.074,5.074,0,0,1,5.147,4.369h-2.659a2.428,2.428,0,0,0-2.488-1.805c-1.843,0-3.078,1.71-3.078,4.255s1.235,4.237,3.078,4.237c1.367,0,2.488-.551,2.792-2.545h-2.735v-2.394h5.3a10.167,10.167,0,0,1-.322,3.723,5.077,5.077,0,0,1-5.034,3.8c-3.477,0-5.795-2.736-5.795-6.821S96.791,173.3,100.268,173.3Z"/>
      <path id="Trazado_195567" data-name="Trazado 195567" d="M114.688,178.281v5.585c0,.779.056,1.2.8,1.14v1.71c-1.178.4-2.736.342-2.83-1.52a2.84,2.84,0,0,1-2.508,1.767c-2.052,0-3.362-1.539-3.362-4.427,0-3.058,1.8-5.11,4.54-5.11A7.8,7.8,0,0,1,114.688,178.281Zm-2.432,1.539a2.082,2.082,0,0,0-1.007-.286c-1.2,0-1.975,1.1-1.975,3,0,1.2.456,2.071,1.425,2.071s1.557-1.12,1.557-2.716Z"/>
      <path id="Trazado_195568" data-name="Trazado 195568" d="M118.963,183.923a1.068,1.068,0,0,0,1.082,1.121c.665,0,1.121-.342,1.121-.95a.988.988,0,0,0-.968-.987c-1.52-.247-3.553-.742-3.553-2.813,0-1.747,1.349-2.868,3.4-2.868,1.824,0,3.477.969,3.382,2.888H121.2a1.01,1.01,0,0,0-1.1-.893c-.609,0-1.007.3-1.007.836,0,.684.551.836,1.007.893,1.747.247,3.59.55,3.59,2.906,0,1.748-1.406,2.907-3.533,2.907-2.375,0-3.61-1.216-3.666-3.04Z"/>
      <path id="Trazado_195569" data-name="Trazado 195569" d="M130.743,179.592h-2.452v3.552c0,1.273.627,1.71,1.388,1.729a2.589,2.589,0,0,0,1.178-.209l.227,1.938a7.018,7.018,0,0,1-2.07.361c-1.767,0-3.173-1.007-3.173-3.762v-3.609l-1.425-.152v-1.824h1.5l.266-2.831h2.108v2.831h2.452Z"/>
      <path id="Trazado_195570" data-name="Trazado 195570" d="M136.063,186.963c-2.527,0-4.218-1.919-4.218-4.806,0-2.832,1.691-4.731,4.218-4.731,2.488,0,4.16,1.9,4.16,4.731C140.223,185.044,138.551,186.963,136.063,186.963Zm0-2.318c1.007,0,1.672-.969,1.672-2.488,0-1.445-.665-2.394-1.672-2.394-1.045,0-1.71.949-1.71,2.394C134.353,183.676,135.018,184.645,136.063,184.645Z"/>
      <path id="Trazado_195571" data-name="Trazado 195571" d="M143.777,183.923a1.067,1.067,0,0,0,1.082,1.121c.665,0,1.121-.342,1.121-.95a.988.988,0,0,0-.969-.987c-1.519-.247-3.553-.742-3.553-2.813,0-1.747,1.349-2.868,3.4-2.868,1.824,0,3.476.969,3.382,2.888h-2.223a1.011,1.011,0,0,0-1.1-.893c-.608,0-1.006.3-1.006.836,0,.684.55.836,1.006.893,1.747.247,3.59.55,3.59,2.906,0,1.748-1.4,2.907-3.533,2.907-2.374,0-3.609-1.216-3.666-3.04Z"/>
      <path id="Trazado_195572" data-name="Trazado 195572" d="M161.161,186.773l-.817-2.2h-4.369l-.8,2.2h-2.811v-.38l5.128-13.051h1.349l5.11,13.051v.38Zm-3-8.682-.76,2.508-.571,1.576h2.641l-.589-1.6Z"/>
      <path id="Trazado_195573" data-name="Trazado 195573" d="M167.983,186.963c-2.223,0-3.495-1.767-3.495-4.806,0-2.661,1.368-4.731,3.552-4.731a2.02,2.02,0,0,1,2.052,1.2V172.79h2.318v11.3c0,.779.3.95.854.874v1.71c-1.12.247-2.773.418-2.868-1.521A2.7,2.7,0,0,1,167.983,186.963Zm2.033-4.9c0-1.33-.513-2.432-1.481-2.432-.913,0-1.521,1.026-1.521,2.488,0,1.578.551,2.489,1.521,2.489S170.016,183.505,170.016,182.062Z"/>
      <path id="Trazado_195574" data-name="Trazado 195574" d="M175.127,180.6c0-.969-.076-1.483-1.026-1.33V177.6c1.292-.342,3.344-.437,3.438,1.463a2.406,2.406,0,0,1,2.337-1.634,2.258,2.258,0,0,1,2.412,1.71,2.672,2.672,0,0,1,2.584-1.71c2.223,0,2.66,1.786,2.66,4.047v2.621c0,.836.057,1.272.988,1.063v1.54c-1.729.512-3.5.209-3.5-2.128v-3.1c0-1.35-.343-1.939-1.159-1.939-.665,0-1.235.665-1.235,1.957v5.282H180.2v-5.282c0-1.234-.418-1.957-1.254-1.957-.742,0-1.312.723-1.312,2.014v5.225h-2.507Z"/>
      <path id="Trazado_195575" data-name="Trazado 195575" d="M190.973,173.284a1.533,1.533,0,0,1,.019,3.059,1.442,1.442,0,0,1-1.5-1.538A1.412,1.412,0,0,1,190.973,173.284Zm-1.272,4.332h2.506v9.157H189.7Z"/>
      <path id="Trazado_195576" data-name="Trazado 195576" d="M194.545,180.523c0-1.007-.1-1.33-.912-1.2v-1.633c1.14-.3,3.1-.684,3.306,1.292a2.809,2.809,0,0,1,2.546-1.558c1.842,0,2.868,1.368,2.868,4.047v2.3c0,1.235.152,1.425.969,1.368V186.7c-1.748.494-3.477.247-3.477-2.3v-2.925c0-1.216-.494-1.939-1.33-1.939-.74,0-1.443.7-1.443,2v5.243h-2.527Z"/>
      <path id="Trazado_195577" data-name="Trazado 195577" d="M205.792,173.284a1.533,1.533,0,0,1,.019,3.059,1.442,1.442,0,0,1-1.5-1.538A1.412,1.412,0,0,1,205.792,173.284Zm-1.272,4.332h2.507v9.157H204.52Z"/>
      <path id="Trazado_195578" data-name="Trazado 195578" d="M211.037,183.923a1.068,1.068,0,0,0,1.082,1.121c.666,0,1.122-.342,1.122-.95a.988.988,0,0,0-.969-.987c-1.52-.247-3.553-.742-3.553-2.813,0-1.747,1.349-2.868,3.4-2.868,1.825,0,3.477.969,3.382,2.888h-2.222a1.011,1.011,0,0,0-1.1-.893c-.608,0-1.007.3-1.007.836,0,.684.551.836,1.007.893,1.747.247,3.59.55,3.59,2.906,0,1.748-1.4,2.907-3.533,2.907-2.375,0-3.61-1.216-3.666-3.04Z"/>
      <path id="Trazado_195579" data-name="Trazado 195579" d="M222.816,179.592h-2.451v3.552c0,1.273.627,1.71,1.386,1.729a2.586,2.586,0,0,0,1.179-.209l.228,1.938a7.035,7.035,0,0,1-2.071.361c-1.767,0-3.173-1.007-3.173-3.762v-3.609l-1.424-.152v-1.824h1.5l.265-2.831h2.109v2.831h2.451Z"/>
      <path id="Trazado_195580" data-name="Trazado 195580" d="M229.219,177.426a2.654,2.654,0,0,1,1.767.684l-.723,2.051a2.318,2.318,0,0,0-1.349-.418c-.968,0-1.766.685-1.766,2.205v4.825H224.7v-6.421c0-.76-.209-1.254-.894-1.121V177.6c1.121-.3,3.116-.323,3.268,1.292A2.249,2.249,0,0,1,229.219,177.426Z"/>
      <path id="Trazado_195581" data-name="Trazado 195581" d="M239.193,178.281v5.585c0,.779.056,1.2.8,1.14v1.71c-1.178.4-2.736.342-2.83-1.52a2.841,2.841,0,0,1-2.508,1.767c-2.052,0-3.363-1.539-3.363-4.427,0-3.058,1.805-5.11,4.54-5.11A7.8,7.8,0,0,1,239.193,178.281Zm-2.432,1.539a2.085,2.085,0,0,0-1.007-.286c-1.2,0-1.975,1.1-1.975,3,0,1.2.456,2.071,1.424,2.071s1.558-1.12,1.558-2.716Z"/>
      <path id="Trazado_195582" data-name="Trazado 195582" d="M246.717,180.921a1.5,1.5,0,0,0-1.519-1.158c-.989,0-1.654.949-1.654,2.394,0,1.519.665,2.526,1.71,2.526a1.608,1.608,0,0,0,1.483-1.425h2.374a3.758,3.758,0,0,1-3.857,3.705c-2.526,0-4.217-1.919-4.217-4.806,0-2.832,1.671-4.731,4.179-4.731a3.786,3.786,0,0,1,3.876,3.5Z"/>
      <path id="Trazado_195583" data-name="Trazado 195583" d="M251.848,173.284a1.533,1.533,0,0,1,.019,3.059,1.442,1.442,0,0,1-1.5-1.538A1.412,1.412,0,0,1,251.848,173.284Zm-1.272,4.332h2.506v9.157h-2.506Z"/>
      <path id="Trazado_195584" data-name="Trazado 195584" d="M258.859,186.963c-2.528,0-4.218-1.919-4.218-4.806,0-2.832,1.69-4.731,4.218-4.731,2.488,0,4.16,1.9,4.16,4.731C263.019,185.044,261.347,186.963,258.859,186.963Zm0-2.318c1.007,0,1.672-.969,1.672-2.488,0-1.445-.665-2.394-1.672-2.394-1.045,0-1.71.949-1.71,2.394C257.149,183.676,257.814,184.645,258.859,184.645Zm.645-8.491h-1.957v-.229l1.216-2.754,2.223.836v.208Z"/>
      <path id="Trazado_195585" data-name="Trazado 195585" d="M264.9,180.523c0-1.007-.1-1.33-.912-1.2v-1.633c1.139-.3,3.1-.684,3.3,1.292a2.809,2.809,0,0,1,2.546-1.558c1.842,0,2.868,1.368,2.868,4.047v2.3c0,1.235.153,1.425.969,1.368V186.7c-1.748.494-3.476.247-3.476-2.3v-2.925c0-1.216-.495-1.939-1.331-1.939-.74,0-1.443.7-1.443,2v5.243H264.9Z"/>
      <path id="Trazado_195586" data-name="Trazado 195586" d="M89.115,207.586H83.377v-2.279h5.738Z"/>
      <path id="Trazado_195587" data-name="Trazado 195587" d="M100.268,199.3a5.074,5.074,0,0,1,5.147,4.369h-2.659a2.428,2.428,0,0,0-2.488-1.805c-1.843,0-3.078,1.71-3.078,4.255s1.235,4.237,3.078,4.237c1.367,0,2.488-.551,2.792-2.545h-2.735v-2.394h5.3a10.167,10.167,0,0,1-.322,3.723,5.077,5.077,0,0,1-5.034,3.8c-3.477,0-5.795-2.736-5.795-6.821S96.791,199.3,100.268,199.3Z"/>
      <path id="Trazado_195588" data-name="Trazado 195588" d="M114.688,204.281v5.585c0,.779.056,1.2.8,1.14v1.71c-1.178.4-2.736.342-2.83-1.52a2.84,2.84,0,0,1-2.508,1.767c-2.052,0-3.362-1.539-3.362-4.427,0-3.058,1.8-5.11,4.54-5.11A7.8,7.8,0,0,1,114.688,204.281Zm-2.432,1.539a2.082,2.082,0,0,0-1.007-.286c-1.2,0-1.975,1.1-1.975,3,0,1.2.456,2.071,1.425,2.071s1.557-1.12,1.557-2.716Z"/>
      <path id="Trazado_195589" data-name="Trazado 195589" d="M118.963,209.923a1.068,1.068,0,0,0,1.082,1.121c.665,0,1.121-.342,1.121-.95a.988.988,0,0,0-.968-.987c-1.52-.247-3.553-.742-3.553-2.813,0-1.747,1.349-2.868,3.4-2.868,1.824,0,3.477.969,3.382,2.888H121.2a1.01,1.01,0,0,0-1.1-.893c-.609,0-1.007.3-1.007.836,0,.684.551.836,1.007.893,1.747.247,3.59.55,3.59,2.906,0,1.748-1.406,2.907-3.533,2.907-2.375,0-3.61-1.216-3.666-3.04Z"/>
      <path id="Trazado_195590" data-name="Trazado 195590" d="M130.743,205.592h-2.452v3.552c0,1.273.627,1.71,1.388,1.729a2.589,2.589,0,0,0,1.178-.209l.227,1.938a7.018,7.018,0,0,1-2.07.361c-1.767,0-3.173-1.007-3.173-3.762v-3.609l-1.425-.152v-1.824h1.5l.266-2.831h2.108v2.831h2.452Z"/>
      <path id="Trazado_195591" data-name="Trazado 195591" d="M136.063,212.963c-2.527,0-4.218-1.919-4.218-4.806,0-2.832,1.691-4.731,4.218-4.731,2.488,0,4.16,1.9,4.16,4.731C140.223,211.044,138.551,212.963,136.063,212.963Zm0-2.318c1.007,0,1.672-.969,1.672-2.488,0-1.445-.665-2.394-1.672-2.394-1.045,0-1.71.949-1.71,2.394C134.353,209.676,135.018,210.645,136.063,210.645Z"/>
      <path id="Trazado_195592" data-name="Trazado 195592" d="M143.777,209.923a1.067,1.067,0,0,0,1.082,1.121c.665,0,1.121-.342,1.121-.95a.988.988,0,0,0-.969-.987c-1.519-.247-3.553-.742-3.553-2.813,0-1.747,1.349-2.868,3.4-2.868,1.824,0,3.476.969,3.382,2.888h-2.223a1.011,1.011,0,0,0-1.1-.893c-.608,0-1.006.3-1.006.836,0,.684.55.836,1.006.893,1.747.247,3.59.55,3.59,2.906,0,1.748-1.4,2.907-3.533,2.907-2.374,0-3.609-1.216-3.666-3.04Z"/>
      <path id="Trazado_195593" data-name="Trazado 195593" d="M156.867,212.963c-2.223,0-3.5-1.767-3.5-4.806,0-2.661,1.369-4.731,3.553-4.731a2.02,2.02,0,0,1,2.052,1.2V198.79h2.317v11.3c0,.779.3.95.855.874v1.71c-1.12.247-2.774.418-2.868-1.521A2.7,2.7,0,0,1,156.867,212.963Zm2.033-4.9c0-1.33-.513-2.432-1.482-2.432-.912,0-1.52,1.026-1.52,2.488,0,1.578.551,2.489,1.52,2.489S158.9,209.505,158.9,208.062Z"/>
      <path id="Trazado_195594" data-name="Trazado 195594" d="M168.039,210.873a4.853,4.853,0,0,0,2.451-.722l-.057,2.051a4.745,4.745,0,0,1-2.7.761c-2.7,0-4.559-1.311-4.559-4.806,0-3.25,2.185-4.731,4.179-4.731,2.355,0,3.438,1.235,3.438,2.755,0,2.09-2.051,3.761-5.167,2.906C165.873,210.474,166.824,210.873,168.039,210.873Zm-2.393-3.476c1.614.512,2.773.094,2.773-.969,0-.589-.38-.932-1.121-.932C166.709,205.5,165.854,205.952,165.646,207.4Z"/>
      <path id="Trazado_195595" data-name="Trazado 195595" d="M180.978,205.668l2.223-6.193h2.793v.38l-5.016,13.051h-1.349l-4.977-13.051v-.38h2.811l2.11,6.174.721,2.546Z"/>
      <path id="Trazado_195596" data-name="Trazado 195596" d="M190.118,210.873a4.849,4.849,0,0,0,2.45-.722l-.057,2.051a4.745,4.745,0,0,1-2.7.761c-2.7,0-4.559-1.311-4.559-4.806,0-3.25,2.185-4.731,4.179-4.731,2.355,0,3.438,1.235,3.438,2.755,0,2.09-2.051,3.761-5.167,2.906C187.952,210.474,188.9,210.873,190.118,210.873Zm-2.394-3.476c1.614.512,2.773.094,2.773-.969,0-.589-.379-.932-1.121-.932C188.787,205.5,187.932,205.952,187.724,207.4Z"/>
      <path id="Trazado_195597" data-name="Trazado 195597" d="M194.735,206.523c0-1.007-.1-1.33-.912-1.2v-1.633c1.139-.3,3.1-.684,3.305,1.292a2.809,2.809,0,0,1,2.546-1.558c1.842,0,2.868,1.368,2.868,4.047v2.3c0,1.235.153,1.425.969,1.368V212.7c-1.748.494-3.476.247-3.476-2.3v-2.925c0-1.216-.5-1.939-1.331-1.939-.74,0-1.443.7-1.443,2v5.243h-2.526Z"/>
      <path id="Trazado_195598" data-name="Trazado 195598" d="M210.2,205.592h-2.452v3.552c0,1.273.627,1.71,1.388,1.729a2.587,2.587,0,0,0,1.178-.209l.227,1.938a7.018,7.018,0,0,1-2.07.361c-1.767,0-3.173-1.007-3.173-3.762v-3.609l-1.425-.152v-1.824h1.5l.266-2.831h2.108v2.831H210.2Z"/>
      <path id="Trazado_195599" data-name="Trazado 195599" d="M219.224,204.281v5.585c0,.779.057,1.2.8,1.14v1.71c-1.178.4-2.736.342-2.83-1.52a2.84,2.84,0,0,1-2.508,1.767c-2.052,0-3.362-1.539-3.362-4.427,0-3.058,1.8-5.11,4.54-5.11A7.8,7.8,0,0,1,219.224,204.281Zm-2.432,1.539a2.079,2.079,0,0,0-1.006-.286c-1.2,0-1.976,1.1-1.976,3,0,1.2.456,2.071,1.425,2.071s1.557-1.12,1.557-2.716Z"/>
      <path id="Trazado_195600" data-name="Trazado 195600" d="M223.5,209.923a1.068,1.068,0,0,0,1.082,1.121c.665,0,1.121-.342,1.121-.95a.988.988,0,0,0-.968-.987c-1.52-.247-3.553-.742-3.553-2.813,0-1.747,1.349-2.868,3.4-2.868,1.825,0,3.477.969,3.382,2.888h-2.222a1.011,1.011,0,0,0-1.1-.893c-.608,0-1.007.3-1.007.836,0,.684.551.836,1.007.893,1.747.247,3.59.55,3.59,2.906,0,1.748-1.4,2.907-3.533,2.907-2.375,0-3.61-1.216-3.666-3.04Z"/>
      <path id="Trazado_195601" data-name="Trazado 195601" d="M64.777,234.346v-8.871h2.7v8.814a1.906,1.906,0,0,0,1.881,2.147c1.121,0,1.843-.855,1.843-2.147v-8.814h2.659v8.871a4.54,4.54,0,1,1-9.08,0Z"/>
      <path id="Trazado_195602" data-name="Trazado 195602" d="M81.552,231.592H79.1v3.552c0,1.273.627,1.71,1.387,1.729a2.584,2.584,0,0,0,1.178-.209l.228,1.938a7.023,7.023,0,0,1-2.07.361c-1.768,0-3.173-1.007-3.173-3.762v-3.609l-1.425-.152v-1.824h1.5l.266-2.831H79.1v2.831h2.451Z"/>
      <path id="Trazado_195603" data-name="Trazado 195603" d="M84.365,225.284a1.533,1.533,0,0,1,.018,3.059,1.442,1.442,0,0,1-1.5-1.538A1.412,1.412,0,0,1,84.365,225.284Zm-1.273,4.332H85.6v9.157H83.092Z"/>
      <path id="Trazado_195604" data-name="Trazado 195604" d="M90.007,235.334c0,1.14.3,1.558.969,1.558a1.839,1.839,0,0,0,.494-.076l.076,2a4.715,4.715,0,0,1-1.31.152c-1.654,0-2.7-.988-2.7-3.629V224.866h2.47Z"/>
      <path id="Trazado_195605" data-name="Trazado 195605" d="M93.788,225.284a1.533,1.533,0,0,1,.019,3.059,1.442,1.442,0,0,1-1.5-1.538A1.412,1.412,0,0,1,93.788,225.284Zm-1.272,4.332h2.507v9.157H92.516Z"/>
      <path id="Trazado_195606" data-name="Trazado 195606" d="M100.115,238.963c-2.223,0-3.5-1.767-3.5-4.806,0-2.661,1.369-4.731,3.553-4.731a2.02,2.02,0,0,1,2.052,1.2V224.79h2.317v11.3c0,.779.3.95.855.874v1.71c-1.12.247-2.774.418-2.868-1.521A2.7,2.7,0,0,1,100.115,238.963Zm2.033-4.9c0-1.33-.513-2.432-1.482-2.432-.912,0-1.52,1.026-1.52,2.488,0,1.578.551,2.489,1.52,2.489S102.148,235.505,102.148,234.062Z"/>
      <path id="Trazado_195607" data-name="Trazado 195607" d="M114.327,230.281v5.585c0,.779.056,1.2.8,1.14v1.71c-1.177.4-2.735.342-2.83-1.52a2.839,2.839,0,0,1-2.508,1.767c-2.051,0-3.362-1.539-3.362-4.427,0-3.058,1.8-5.11,4.54-5.11A7.807,7.807,0,0,1,114.327,230.281Zm-2.432,1.539a2.085,2.085,0,0,0-1.007-.286c-1.2,0-1.976,1.1-1.976,3,0,1.2.457,2.071,1.425,2.071s1.558-1.12,1.558-2.716Z"/>
      <path id="Trazado_195608" data-name="Trazado 195608" d="M119.685,238.963c-2.223,0-3.495-1.767-3.495-4.806,0-2.661,1.368-4.731,3.553-4.731a2.018,2.018,0,0,1,2.051,1.2V224.79h2.318v11.3c0,.779.3.95.854.874v1.71c-1.12.247-2.773.418-2.868-1.521A2.7,2.7,0,0,1,119.685,238.963Zm2.033-4.9c0-1.33-.513-2.432-1.481-2.432-.912,0-1.521,1.026-1.521,2.488,0,1.578.551,2.489,1.521,2.489S121.718,235.505,121.718,234.062Z"/>
      <path id="Trazado_195609" data-name="Trazado 195609" d="M133.954,238.963c-2.527,0-4.217-1.919-4.217-4.806,0-2.832,1.69-4.731,4.217-4.731,2.489,0,4.161,1.9,4.161,4.731C138.115,237.044,136.443,238.963,133.954,238.963Zm0-2.318c1.007,0,1.672-.969,1.672-2.488,0-1.445-.665-2.394-1.672-2.394-1.044,0-1.71.949-1.71,2.394C132.244,235.676,132.91,236.645,133.954,236.645Z"/>
      <path id="Trazado_195610" data-name="Trazado 195610" d="M144.384,229.426c2.223,0,3.5,1.767,3.5,4.807,0,2.659-1.368,4.73-3.553,4.73a2.02,2.02,0,0,1-2.051-1.2v5.68h-2.318V232.294c0-.778-.3-.949-.855-.873v-1.71c1.121-.247,2.774-.418,2.869,1.52A2.7,2.7,0,0,1,144.384,229.426Zm-2.032,4.9c0,1.33.513,2.432,1.5,2.432.911,0,1.5-1.025,1.5-2.488,0-1.577-.493-2.489-1.462-2.489S142.352,232.884,142.352,234.327Z"/>
      <path id="Trazado_195611" data-name="Trazado 195611" d="M153.9,236.873a4.846,4.846,0,0,0,2.45-.722L156.3,238.2a4.745,4.745,0,0,1-2.7.761c-2.7,0-4.559-1.311-4.559-4.806,0-3.25,2.185-4.731,4.179-4.731,2.356,0,3.439,1.235,3.439,2.755,0,2.09-2.052,3.761-5.167,2.906C151.738,236.474,152.688,236.873,153.9,236.873Zm-2.4-3.476c1.615.512,2.775.094,2.775-.969,0-.589-.38-.932-1.122-.932C152.574,231.5,151.718,231.952,151.509,233.4Z"/>
      <path id="Trazado_195612" data-name="Trazado 195612" d="M163.042,229.426a2.654,2.654,0,0,1,1.767.684l-.723,2.051a2.318,2.318,0,0,0-1.348-.418c-.969,0-1.767.685-1.767,2.205v4.825h-2.45v-6.421c0-.76-.209-1.254-.894-1.121V229.6c1.121-.3,3.117-.323,3.268,1.292A2.25,2.25,0,0,1,163.042,229.426Z"/>
      <path id="Trazado_195613" data-name="Trazado 195613" d="M173.017,230.281v5.585c0,.779.057,1.2.8,1.14v1.71c-1.178.4-2.736.342-2.83-1.52a2.84,2.84,0,0,1-2.508,1.767c-2.052,0-3.362-1.539-3.362-4.427,0-3.058,1.8-5.11,4.54-5.11A7.8,7.8,0,0,1,173.017,230.281Zm-2.432,1.539a2.079,2.079,0,0,0-1.007-.286c-1.2,0-1.975,1.1-1.975,3,0,1.2.456,2.071,1.425,2.071s1.557-1.12,1.557-2.716Z"/>
      <path id="Trazado_195614" data-name="Trazado 195614" d="M180.54,232.921a1.5,1.5,0,0,0-1.519-1.158c-.988,0-1.653.949-1.653,2.394,0,1.519.665,2.526,1.709,2.526a1.608,1.608,0,0,0,1.483-1.425h2.374a3.758,3.758,0,0,1-3.857,3.705c-2.526,0-4.216-1.919-4.216-4.806,0-2.832,1.671-4.731,4.178-4.731a3.785,3.785,0,0,1,3.876,3.5Z"/>
      <path id="Trazado_195615" data-name="Trazado 195615" d="M185.671,225.284a1.53,1.53,0,1,1-1.481,1.521A1.412,1.412,0,0,1,185.671,225.284Zm-1.272,4.332h2.507v9.157H184.4Z"/>
      <path id="Trazado_195616" data-name="Trazado 195616" d="M192.682,238.963c-2.527,0-4.218-1.919-4.218-4.806,0-2.832,1.691-4.731,4.218-4.731,2.488,0,4.16,1.9,4.16,4.731C196.842,237.044,195.17,238.963,192.682,238.963Zm0-2.318c1.007,0,1.672-.969,1.672-2.488,0-1.445-.665-2.394-1.672-2.394-1.045,0-1.71.949-1.71,2.394C190.972,235.676,191.637,236.645,192.682,236.645Zm.645-8.491H191.37v-.229l1.216-2.754,2.223.836v.208Z"/>
      <path id="Trazado_195617" data-name="Trazado 195617" d="M198.725,232.523c0-1.007-.1-1.33-.912-1.2v-1.633c1.139-.3,3.1-.684,3.306,1.292a2.807,2.807,0,0,1,2.545-1.558c1.842,0,2.869,1.368,2.869,4.047v2.3c0,1.235.152,1.425.968,1.368V238.7c-1.748.494-3.476.247-3.476-2.3v-2.925c0-1.216-.494-1.939-1.33-1.939-.741,0-1.444.7-1.444,2v5.243h-2.526Z"/>
    </g>
    <g id="Grupo_135566" data-name="Grupo 135566">
      <path id="Trazado_195618" data-name="Trazado 195618" d="M32.906,72.182h2.375v2.26h2.032V77.2H35.281v2.261H32.906V77.2H30.911V74.442h1.995Z"/>
      <path id="Trazado_195619" data-name="Trazado 195619" d="M36.914,103.823H30.968v-2.774h5.946Z"/>
      <path id="Trazado_195620" data-name="Trazado 195620" d="M38.092,127.658H31.063V125h7.029Zm0,4.2H31.063V129.2h7.029Z"/>
      <path id="Trazado_195621" data-name="Trazado 195621" d="M36.914,155.823H30.968v-2.774h5.946Z"/>
      <path id="Trazado_195622" data-name="Trazado 195622" d="M38.092,231.658H31.063V229h7.029Zm0,4.2H31.063V233.2h7.029Z"/>
    </g>
    <g id="Grupo_135567" data-name="Grupo 135567" opacity="0.5">
      <rect id="Rectángulo_44888" data-name="Rectángulo 44888" width="270.603" height="26.215" transform="translate(11.597 63.107)" fill="none" stroke="#fff" stroke-miterlimit="10" stroke-width="1"/>
      <rect id="Rectángulo_44889" data-name="Rectángulo 44889" width="270.603" height="26.215" transform="translate(11.597 89.322)" fill="none" stroke="#fff" stroke-miterlimit="10" stroke-width="1"/>
      <rect id="Rectángulo_44890" data-name="Rectángulo 44890" width="270.603" height="26.215" transform="translate(11.597 115.537)" fill="none" stroke="#fff" stroke-miterlimit="10" stroke-width="1"/>
      <rect id="Rectángulo_44891" data-name="Rectángulo 44891" width="270.603" height="26.215" transform="translate(11.597 141.752)" fill="none" stroke="#fff" stroke-miterlimit="10" stroke-width="1"/>
      <rect id="Rectángulo_44892" data-name="Rectángulo 44892" width="270.603" height="26.215" transform="translate(11.597 167.966)" fill="none" stroke="#fff" stroke-miterlimit="10" stroke-width="1"/>
      <rect id="Rectángulo_44893" data-name="Rectángulo 44893" width="270.603" height="26.215" transform="translate(11.597 194.181)" fill="none" stroke="#fff" stroke-miterlimit="10" stroke-width="1"/>
      <rect id="Rectángulo_44894" data-name="Rectángulo 44894" width="270.603" height="26.215" transform="translate(11.597 220.396)" fill="none" stroke="#fff" stroke-miterlimit="10" stroke-width="1"/>
    </g>
  </g>
  <g id="Grupo_135569" data-name="Grupo 135569">
    <circle id="Elipse_5247" data-name="Elipse 5247" cx="14.58" cy="14.58" r="14.58" transform="translate(28.298 249.93)" fill="#5038a1" opacity="0.7" style="isolation: isolate"/>
    <g id="Elipse_5249" data-name="Elipse 5249">
      <circle id="Elipse_6044" data-name="Elipse 6044" cx="5.494" cy="5.494" r="5.494" transform="translate(39.185 254.575)" fill="none"/>
      <circle id="Elipse_6045" data-name="Elipse 6045" cx="4.86" cy="4.86" r="4.86" transform="translate(39.819 255.209)" fill="none" stroke="#fff" stroke-width="1.268"/>
    </g>
    <g id="Elipse_5250" data-name="Elipse 5250">
      <circle id="Elipse_6046" data-name="Elipse 6046" cx="2.958" cy="2.958" r="2.958" transform="translate(2.728 246.533)" fill="#fdb74d"/>
      <circle id="Elipse_6047" data-name="Elipse 6047" cx="2.324" cy="2.324" r="2.324" transform="translate(3.362 247.167)" fill="#fdb74d" stroke="#8c6df2" stroke-width="1.268"/>
    </g>
    <circle id="Elipse_5251" data-name="Elipse 5251" cx="1.902" cy="1.902" r="1.902" transform="translate(22.05 262.735)" fill="#fdb74d"/>
  </g>
  <rect id="Rectángulo_44895" data-name="Rectángulo 44895" width="295" height="280" fill="none"/>
</svg>
