<svg id="Grupo_135506" data-name="Grupo 135506" xmlns="http://www.w3.org/2000/svg" xmlns:xlink="http://www.w3.org/1999/xlink" width="210" height="212" viewBox="0 0 210 212">
  <defs>
    <linearGradient id="linear-gradient" x1="0.5" y1="1.147" x2="0.5" y2="0.24" gradientUnits="objectBoundingBox">
      <stop offset="0" stop-color="#d1d7e0"/>
      <stop offset="1" stop-color="#ebebff"/>
    </linearGradient>
    <linearGradient id="linear-gradient-2" x1="0.571" y1="1.795" x2="0.493" y2="0.379" xlink:href="#linear-gradient"/>
    <linearGradient id="linear-gradient-3" y1="2.165" y2="0.322" xlink:href="#linear-gradient"/>
  </defs>
  <path id="Trazado_195455" data-name="Trazado 195455" d="M198.5,142.454c-20.678,48.331-75.26,69.091-118.027,65.552C68.8,207.039,45.3,205.1,26.958,187.747-8.271,154.432-2.846,84.793,30.879,43.794c4.343-5.279,34.4-40.654,81.25-40.18,34.3.346,58.371,19.721,61.3,22.134a94.441,94.441,0,0,1,19.205,21.79C209.9,74.547,211.421,112.251,198.5,142.454Z" fill="#e5e1f1"/>
  <path id="Trazado_139920" data-name="Trazado 139920" d="M16.757,13.005a3.242,3.242,0,0,0-.316-.1A2.121,2.121,0,0,0,13.686,15.1a3.893,3.893,0,0,0,2.694,3.655,72.837,72.837,0,0,1,15.456,6.274A86.375,86.375,0,0,1,46.318,34.86l.856.711.836.738c.561.488,1.107.994,1.651,1.5q1.641,1.515,3.187,3.133c.52.532,1.016,1.091,1.524,1.633s.987,1.116,1.479,1.67c.473.576.958,1.133,1.416,1.723s.923,1.16,1.357,1.758.881,1.181,1.295,1.788c.209.3.423.6.624.905l.6.916c.409.6.766,1.232,1.149,1.844.362.622.722,1.243,1.063,1.867s.676,1.25.973,1.884c.15.316.31.628.457.944l.421.945c.07.159.144.313.209.474l.195.49.387.976c.234.66.482,1.311.7,1.973A67.49,67.49,0,0,1,69.8,78.893c.438,5.484.425,11.034.4,16.8-.008,2.883-.036,5.815,0,8.841.012,1.508.058,3.048.112,4.6.037.785.064,1.565.112,2.362l.14,2.323c.37,5.947.829,12.1,1.685,18.494a130.532,130.532,0,0,0,4.19,20.074,92.585,92.585,0,0,0,3.919,10.732,80.082,80.082,0,0,0,5.828,10.946c1.155,1.807,2.407,3.592,3.747,5.332.669.872,1.367,1.727,2.079,2.575.358.421.7.83,1.087,1.254s.766.853,1.159,1.266a65.082,65.082,0,0,0,10.178,8.819c.906.631,1.82,1.242,2.749,1.816.49.308.866.527,1.281.783l1.228.74c.821.49,1.661.954,2.506,1.411s1.705.885,2.563,1.324a68.471,68.471,0,0,0,10.741,4.235,57.806,57.806,0,0,0,11.14,2.2,53.252,53.252,0,0,0,30.183-6,67.959,67.959,0,0,0,15.281-11.019,81.791,81.791,0,0,0,6.4-6.8c1.011-1.209,1.994-2.456,2.961-3.772.484-.661.967-1.335,1.453-2.052.243-.36.486-.726.738-1.125l.388-.626.21-.357.123-.219.173-.333c5.146-11.2-.11-27.176-11.736-35.682S157.6,131.5,152.455,142.7l.07-.112c.018-.026.015-.009.015-.009l.006.01c.008.007,0,.051,0,.077-.013.081-.029.16-.049.238-.039.176-.1.38-.161.583-.125.412-.272.851-.432,1.291-.326.884-.69,1.789-1.082,2.681a48.723,48.723,0,0,1-2.651,5.2,41.581,41.581,0,0,1-6.619,8.672,26.016,26.016,0,0,1-7.9,5.434,19,19,0,0,1-4.389,1.308,21,21,0,0,1-4.8.274,26.962,26.962,0,0,1-5.305-.826c-.465-.136-.931-.25-1.4-.394s-.952-.294-1.434-.466l-1.4-.5c-.368-.123-.738-.271-1.105-.416a21.066,21.066,0,0,1-4.261-2.406c-.172-.12-.339-.249-.508-.376l-.538-.433c-.36-.3-.719-.6-1.071-.929-.707-.648-1.406-1.347-2.094-2.108a48.864,48.864,0,0,1-7.548-11.748q-.846-1.748-1.607-3.6t-1.467-3.788c-.937-2.575-1.8-5.245-2.6-7.978-1.6-5.469-2.939-11.176-4.235-17.055l-.461-2.11c-.15-.681-.284-1.373-.429-2.066-.27-1.394-.535-2.8-.78-4.231-.495-2.855-.946-5.786-1.392-8.767-.9-5.965-1.832-12.169-3.315-18.544a89.181,89.181,0,0,0-6.615-19.213c-.377-.785-.793-1.56-1.192-2.333-.43-.77-.836-1.527-1.287-2.3l-.67-1.149c-.229-.378-.467-.749-.7-1.122-.458-.752-.959-1.469-1.445-2.193a76.151,76.151,0,0,0-6.41-8A102.083,102.083,0,0,0,48.67,30.344,127.344,127.344,0,0,0,33.02,20.48a157.265,157.265,0,0,0-16.247-7.47Z" fill="#fdb74d"/>
  <g id="Grupo_135506-2" data-name="Grupo 135506">
    <circle id="Elipse_5247" data-name="Elipse 5247" cx="14.58" cy="14.58" r="14.58" transform="translate(170.648 171.558)" fill="#5038a1" opacity="0.7" style="isolation: isolate"/>
    <g id="Elipse_5249" data-name="Elipse 5249">
      <circle id="Elipse_6033" data-name="Elipse 6033" cx="5.494" cy="5.494" r="5.494" transform="translate(181.536 176.204)" fill="none"/>
      <circle id="Elipse_6034" data-name="Elipse 6034" cx="4.86" cy="4.86" r="4.86" transform="translate(182.17 176.838)" fill="none" stroke="#fff" stroke-width="1.268"/>
    </g>
    <g id="Elipse_5250" data-name="Elipse 5250">
      <circle id="Elipse_6035" data-name="Elipse 6035" cx="2.958" cy="2.958" r="2.958" transform="translate(145.078 168.162)" fill="#fdb74d"/>
      <circle id="Elipse_6036" data-name="Elipse 6036" cx="2.324" cy="2.324" r="2.324" transform="translate(145.712 168.795)" fill="#fdb74d" stroke="#8c6df2" stroke-width="1.268"/>
    </g>
    <circle id="Elipse_5251" data-name="Elipse 5251" cx="1.902" cy="1.902" r="1.902" transform="translate(164.4 184.364)" fill="#fdb74d"/>
  </g>
  <g id="Grupo_135507" data-name="Grupo 135507">
    <circle id="Elipse_6037" data-name="Elipse 6037" cx="26.368" cy="26.368" r="26.368" transform="translate(7.089 54.902)" fill="#fdb74d" opacity="0.5"/>
    <g id="Elipse_4972" data-name="Elipse 4972">
      <circle id="Elipse_6038" data-name="Elipse 6038" cx="24.35" cy="24.35" r="24.35" transform="translate(9.107 56.92)" fill="none"/>
      <circle id="Elipse_6039" data-name="Elipse 6039" cx="23.051" cy="23.051" r="23.051" transform="translate(10.405 58.219)" fill="none" stroke="#fff" stroke-linecap="round" stroke-width="2.597" stroke-dasharray="1.948 5.195"/>
    </g>
  </g>
  <g id="Grupo_135526" data-name="Grupo 135526">
    <rect id="Rectángulo_44860" data-name="Rectángulo 44860" width="69.915" height="62.967" rx="8.702" transform="translate(9.833 40.584)" opacity="0.5" fill="url(#linear-gradient)"/>
    <g id="Grupo_135508" data-name="Grupo 135508">
      <rect id="Rectángulo_44861" data-name="Rectángulo 44861" width="5.545" height="1.027" transform="translate(41.753 91.642)" fill="#4598e6"/>
    </g>
    <g id="Grupo_135524" data-name="Grupo 135524">
      <g id="Grupo_135511" data-name="Grupo 135511">
        <g id="Grupo_135510" data-name="Grupo 135510">
          <g id="Grupo_135509" data-name="Grupo 135509">
            <path id="Trazado_195456" data-name="Trazado 195456" d="M49.54,35.069s4.467,2.453,3.049,8.486-1.958,6.829-.805,9.267,2.165,12.652.936,14.521-13.691-9.115-15.076-17.9,1.733-12.519,2.838-13.912S45.6,32.829,49.54,35.069Z" fill="#344052"/>
          </g>
        </g>
      </g>
      <g id="Grupo_135512" data-name="Grupo 135512">
        <path id="Trazado_195457" data-name="Trazado 195457" d="M57.928,84.928H53.145c-.231-2.36-.445-4-.4-4.245.07-.4-4.76-13.071-5.211-14.119s-2.224-3.855-2.456-6.5,3.218-3.715,3.218-3.715c4.657.834,6.235,7.277,6.235,7.277s1.955,13.065,2.945,16.742A23.346,23.346,0,0,1,57.928,84.928Z" fill="#eea886"/>
      </g>
      <path id="Trazado_195458" data-name="Trazado 195458" d="M55.521,66.772l-7.123,3s-6.548-16.247-1.06-14.433C52.81,57.15,55.271,60.55,55.521,66.772Z" fill="#eb4747"/>
      <g id="Grupo_135513" data-name="Grupo 135513">
        <path id="Trazado_195459" data-name="Trazado 195459" d="M53.936,74.421c-.208,1.613-1.06,7.328-.87,8.87.032.255.138.841.3,1.637H36.187c.456-1.631.872-3.074,1.124-3.914.834-2.767.035-3.507-.386-5.72-.164-.867-.741-2.512-1.371-4.371-.21-.62-.427-1.267-.635-1.917a39.69,39.69,0,0,1-1.323-6.13c-1.036-6.607,4.046-7.242,4.046-7.242,1.888-.349,5.187-1.368,5.187-1.368L48,55.341a5.582,5.582,0,0,1,1.209.714l0,0a9.481,9.481,0,0,1,1.162,1.019,31.132,31.132,0,0,1,2.81,4.063c.343.559.688,1.133,1.013,1.7,1.051,1.818,1.8,3.284,1.774,4.938C55.947,69.4,54.143,72.809,53.936,74.421Z" fill="#eb4747"/>
      </g>
      <path id="Trazado_195460" data-name="Trazado 195460" d="M48,55.342s3.237,5.533,2.033,5.946S42.481,60.3,40,55.077C40,55.077,44.167,53.185,48,55.342Z" fill="#eea886"/>
      <path id="Trazado_195461" data-name="Trazado 195461" d="M47.533,57.869s-2.876,1.217-5.479-2.789c0,0,.7-4.548-.78-7.179s6.465,3.154,6.465,3.154-.128.542-.262,1.343c-.068.41-.138.886-.191,1.392-.045.422-.079.864-.095,1.305A7.12,7.12,0,0,0,47.533,57.869Z" fill="#eea886"/>
      <path id="Trazado_195462" data-name="Trazado 195462" d="M40.393,64.065c-.592,3.045-4.839,6.859-4.839,6.859-.21-.622-.426-1.268-.634-1.917A27.76,27.76,0,0,0,40.393,64.065Z" fill="#393d63"/>
      <g id="Grupo_135514" data-name="Grupo 135514">
        <path id="Trazado_195463" data-name="Trazado 195463" d="M39.328,66.488c-.269,1.11-1.508,12.348-1.373,12.731.079.22.679,2.82,1.279,5.709H33.69a13.622,13.622,0,0,1-.823-4.283c.354-3.791-.931-15.875-.931-15.875s-1.15-7.31,4.915-8.223c0,0,3.584.471,3.8,3.118S39.6,65.382,39.328,66.488Z" fill="#eea886"/>
      </g>
      <path id="Trazado_195464" data-name="Trazado 195464" d="M31.489,68.041,39.016,69.8s5.972-11.594.593-13.711C33.941,53.857,30.13,61.716,31.489,68.041Z" fill="#eb4747"/>
      <g id="Grupo_135517" data-name="Grupo 135517">
        <g id="Grupo_135516" data-name="Grupo 135516">
          <g id="Grupo_135515" data-name="Grupo 135515">
            <path id="Trazado_195465" data-name="Trazado 195465" d="M48.845,35.713s6.542,2.4,2.4,13.69-12.611-1.927-11.333-8.865S48.845,35.713,48.845,35.713Z" fill="#eea987"/>
          </g>
        </g>
      </g>
      <g id="Grupo_135520" data-name="Grupo 135520">
        <g id="Grupo_135519" data-name="Grupo 135519">
          <g id="Grupo_135518" data-name="Grupo 135518">
            <path id="Trazado_195466" data-name="Trazado 195466" d="M52.243,42.575A15,15,0,0,1,43.249,45.8s-1.3,3.157-1.5,4.125c0,0-5.475-9.4.819-14.147S54.567,40.606,52.243,42.575Z" fill="#344052"/>
          </g>
        </g>
      </g>
      <g id="Grupo_135523" data-name="Grupo 135523">
        <g id="Grupo_135522" data-name="Grupo 135522">
          <g id="Grupo_135521" data-name="Grupo 135521">
            <path id="Trazado_195467" data-name="Trazado 195467" d="M44,46.478c0-.836-.427-2.758-1.692-2.286s-.132,4.4.7,4.2C43.007,48.393,44.005,48.456,44,46.478Z" fill="#eea987"/>
          </g>
        </g>
      </g>
      <path id="Trazado_195468" data-name="Trazado 195468" d="M47.2,54.9a6.955,6.955,0,0,1-4.3-3.878c2.5,3.23,4.386,2.766,4.386,2.766C47.241,54.212,47.238,54.475,47.2,54.9Z" fill="#a77860"/>
    </g>
    <g id="Grupo_135525" data-name="Grupo 135525">
      <path id="Trazado_195469" data-name="Trazado 195469" d="M61.409,51.979v1h5.912v5.55h1V51.979ZM21.256,58.533h1v-5.55h5.913v-1H21.256ZM67.321,87.167v5.551H61.409v1h6.917V87.167Zm-45.061,0h-1v6.555h6.917v-1H22.26Z" fill="#4598e6"/>
    </g>
  </g>
  <g id="Grupo_135534" data-name="Grupo 135534">
    <rect id="Rectángulo_44862" data-name="Rectángulo 44862" width="63.557" height="63.557" rx="7.069" transform="translate(23.742 119.074)" opacity="0.5" fill="url(#linear-gradient-2)"/>
    <rect id="Rectángulo_44863" data-name="Rectángulo 44863" width="29.426" height="1.454" transform="translate(40.808 168.161)" fill="#96bfe6"/>
    <rect id="Rectángulo_44864" data-name="Rectángulo 44864" width="21.09" height="1.454" transform="translate(44.976 172.741)" fill="#96bfe6"/>
    <rect id="Rectángulo_44865" data-name="Rectángulo 44865" width="42.839" height="36.756" transform="translate(34.101 121.45)" opacity="0.95" fill="url(#linear-gradient-3)"/>
    <g id="Grupo_135531" data-name="Grupo 135531">
      <path id="Trazado_195470" data-name="Trazado 195470" d="M71.884,143.826a10.542,10.542,0,0,0-6.4-5.98c-.569-.189-1.587-.521-2.659-.868-1.933-.625-4.044-1.3-4.044-1.3H52.113s-2.309.774-4.763,1.634l0,0c-2.26.793-4.641,1.657-5.444,2.061-1.676.836-4.495,6.818-5.065,7.5a52.64,52.64,0,0,0-2.889,5.286h7.182c.76-1.3,1.344-2.315,1.344-2.315s.454,1,1,2.315H66.493c.364-1.531.591-3.459.591-3.459s1.232,1.676,2.577,3.459h6.632A66.635,66.635,0,0,1,71.884,143.826Z" fill="#385369"/>
      <g id="Grupo_135527" data-name="Grupo 135527">
        <path id="Trazado_195471" data-name="Trazado 195471" d="M56.241,117.352s5.213.822,4.419,8.978-5.4,7.489-5.7,7.48S50.339,133.959,50,124C50,124,49.856,116.636,56.241,117.352Z" fill="#eea886"/>
      </g>
      <g id="Grupo_135528" data-name="Grupo 135528">
        <path id="Trazado_195472" data-name="Trazado 195472" d="M60.741,124.026s.571-.609.78.008-.778,3.37-.814,3.5c0,0-.1.24-.241.108A29.891,29.891,0,0,1,60.741,124.026Z" fill="#eea886"/>
      </g>
      <g id="Grupo_135529" data-name="Grupo 135529">
        <path id="Trazado_195473" data-name="Trazado 195473" d="M50.143,123.923s-.559-.621-.78-.007.7,3.384.746,3.514c0,0,.1.241.239.112A29.789,29.789,0,0,0,50.143,123.923Z" fill="#eea886"/>
      </g>
      <g id="Grupo_135530" data-name="Grupo 135530">
        <path id="Trazado_195474" data-name="Trazado 195474" d="M60.739,125.277l-.747,1a20.035,20.035,0,0,0-.1-2.53c-.12-.343-.3-1.391-.4-1.638s-4.476-1.474-8.343.358c0,0,.171,1.573-.2,1.713s-.189,2.562-.189,2.562l-.614-.693s-.939-6.275-.707-6.929.971-4.587,8.9-2.252c0,0,2.472-.524,2.969,1.183S60.739,125.277,60.739,125.277Z" fill="#434343"/>
      </g>
      <path id="Trazado_195475" data-name="Trazado 195475" d="M59.427,135.527c0-.007-.669-.329-.669-.329a15.245,15.245,0,0,1-.084-3.79s-6.64-1.69-6.45-.4a16.687,16.687,0,0,1-.572,4.295L48.246,137s3.629,9.745,7.8,8.488,5.746-8.839,5.746-8.839Z" fill="#eea886"/>
      <path id="Trazado_195476" data-name="Trazado 195476" d="M52.32,132.446a3.935,3.935,0,0,0,2.926,1.381,4.281,4.281,0,0,0,3.315-1.529,3.5,3.5,0,0,1-3.307,2.463S53.239,135.017,52.32,132.446Z" fill="#a77860"/>
    </g>
    <g id="Grupo_135532" data-name="Grupo 135532">
      <rect id="Rectángulo_44866" data-name="Rectángulo 44866" width="4.947" height="0.916" transform="translate(53.047 161.059)" fill="#4598e6"/>
    </g>
    <g id="Grupo_135533" data-name="Grupo 135533">
      <path id="Trazado_195477" data-name="Trazado 195477" d="M70.345,125.676v.9H75.62v4.95h.9v-5.846Zm-35.82,5.846h.9v-4.95H40.7v-.9H34.525Zm41.1,25.545v4.952H70.345v.9h6.171v-5.848Zm-40.2,0h-.9v5.848H40.7v-.9H35.421Z" fill="#4598e6"/>
    </g>
  </g>
  <g id="Grupo_135557" data-name="Grupo 135557">
    <rect id="Rectángulo_44867" data-name="Rectángulo 44867" width="103.729" height="121.754" rx="9.931" transform="translate(96.251 14.792)" opacity="0.5" fill="url(#linear-gradient)"/>
    <g id="Grupo_135535" data-name="Grupo 135535">
      <rect id="Rectángulo_44868" data-name="Rectángulo 44868" width="8.227" height="1.524" transform="translate(143.283 86.619)" fill="#4598e6"/>
    </g>
    <g id="Grupo_135536" data-name="Grupo 135536">
      <rect id="Rectángulo_44869" data-name="Rectángulo 44869" width="47.872" height="2.95" transform="translate(112.048 100.581)" fill="#96bfe6"/>
      <rect id="Rectángulo_44870" data-name="Rectángulo 44870" width="38.712" height="2.95" transform="translate(112.048 114.744)" fill="#96bfe6"/>
      <rect id="Rectángulo_44871" data-name="Rectángulo 44871" width="22.695" height="2.95" transform="translate(112.048 107.663)" fill="#96bfe6"/>
    </g>
    <g id="Grupo_135537" data-name="Grupo 135537">
      <path id="Trazado_195478" data-name="Trazado 195478" d="M172.445,26.934v1.49h8.772v8.233h1.49V26.934Zm-59.573,9.723h1.49V28.424h8.773v-1.49H112.872ZM181.217,79.14v8.236h-8.772v1.49h10.262V79.14Zm-66.855,0h-1.49v9.726h10.263v-1.49h-8.773Z" fill="#4598e6"/>
    </g>
    <g id="Grupo_135540" data-name="Grupo 135540">
      <g id="Grupo_135538" data-name="Grupo 135538">
        <path id="Trazado_195479" data-name="Trazado 195479" d="M178.063,117.911a8.773,8.773,0,1,1,8.773-8.773A8.784,8.784,0,0,1,178.063,117.911Zm0-15.848a7.075,7.075,0,1,0,7.075,7.075A7.083,7.083,0,0,0,178.063,102.063Z" fill="#4598e6"/>
      </g>
      <g id="Grupo_135539" data-name="Grupo 135539">
        <path id="Trazado_195480" data-name="Trazado 195480" d="M177.5,112.591l-3.986-3.986,1.2-1.2,2.785,2.785,3.9-3.9,1.2,1.2Z" fill="#4598e6"/>
      </g>
    </g>
    <g id="Grupo_135556" data-name="Grupo 135556">
      <g id="Grupo_135541" data-name="Grupo 135541">
        <path id="Trazado_195481" data-name="Trazado 195481" d="M177.658,78.457h-4.99c-.091-.2-.165-.373-.226-.512-1.481-3.5-9.111-11.512-9.111-11.512v.017l0,.009v.009l-.013.034c0,.017-.009.039-.017.065a.138.138,0,0,0-.009.044l-.013.034c-.313,1.169-1.85,6.988-2.619,11.812H126.892c-.078-.447-.169-.873-.273-1.268a27.423,27.423,0,0,1-.652-3.491c0-.056-.013-.109-.017-.165-.026-.2-.048-.408-.065-.608a32.074,32.074,0,0,1-.057-5.589c-.1.2-.777,2.705-1.671,5.793-.491,1.694-1.047,3.565-1.6,5.328h-7.973l10.006-28.865c.221-.174,2.818-1.429,4.711-2.332,1.933-.921,4.265-2.271,6.371-3.426,1.077-.591,2.093-1.125,2.975-1.529l.135-.061v0c1.454-.665,2.423-1.1,2.423-1.1h0l.63-.061c2.032-.195,8.338-.786,10.448-.907.174-.014.321-.018.434-.022a1.827,1.827,0,0,1,.213,0,26.481,26.481,0,0,1,3.274,1.12c.066.022.131.048.2.074.082.03.16.061.243.091.148.057.3.113.452.174.3.121.621.243.938.369l.334.13a66.665,66.665,0,0,1,8.264,3.705c.617.438,2.532,4.047,4.751,8.511A249.366,249.366,0,0,1,177.658,78.457Z" fill="#decbc4"/>
      </g>
      <g id="Grupo_135542" data-name="Grupo 135542">
        <path id="Trazado_195482" data-name="Trazado 195482" d="M152.88,39.165C152.79,43.7,144,46.187,144,46.187s-3.676-4.608-2.8-5.05c.345-.173.485-.861.528-1.632a15.933,15.933,0,0,0-.05-2.059c-.026-.321-.051-.527-.051-.527s1.255-1.325,2.853-2.9c2.791-2.76,6.628-6.3,6.634-4.889a1.246,1.246,0,0,1-.032.267C150.413,32.559,152.88,39.165,152.88,39.165Z" fill="#eea886"/>
      </g>
      <g id="Grupo_135543" data-name="Grupo 135543">
        <path id="Trazado_195483" data-name="Trazado 195483" d="M149.5,32.515h0c-.017.027-.39.584-1.026,1.385-1.349,1.7-3.885,4.484-6.736,5.6a15.933,15.933,0,0,0-.05-2.059,4.536,4.536,0,0,1-.873-.1,27.08,27.08,0,0,1,1.911-2.8l1.764-.528Z" fill="#a77860"/>
      </g>
      <g id="Grupo_135544" data-name="Grupo 135544">
        <path id="Trazado_195484" data-name="Trazado 195484" d="M151.183,29.188c-.76,1.654-1.482,2.853-1.687,3.327h0a5.857,5.857,0,0,1-1.026,1.385c-1.448,1.56-4.14,3.617-6.786,3.545a4.536,4.536,0,0,1-.873-.1,4.151,4.151,0,0,1-3.024-2.089c-5.483-10.734-1.514-19.511-1.514-19.511s14.991-4.239,17.336.273C155.254,19.18,152.969,25.3,151.183,29.188Z" fill="#eea886"/>
      </g>
      <g id="Grupo_135545" data-name="Grupo 135545">
        <path id="Trazado_195485" data-name="Trazado 195485" d="M136.272,15.741s-1.392-.077-1.736-2.717c-.34-2.607.348-3.33.348-3.33s6.188-2.591,8.411-2.928,7.687-.66,8.968.805c0,0,3.112-.723,3.96,4.443,1.345,8.2-4.584,16.155-4.584,16.155s.051-5.354-1.13-6.064-2.2.978-2.2.978l-2.416.433s3.669-7.922-.732-8.216S138.792,16.2,136.272,15.741Z" fill="#e8734d"/>
      </g>
      <g id="Grupo_135546" data-name="Grupo 135546">
        <path id="Trazado_195486" data-name="Trazado 195486" d="M148.375,20.948c.23-2.359,4.5-3.259,4.21-.787s-2.387,4.848-3.357,4.765S148.2,22.746,148.375,20.948Z" fill="#eea886"/>
      </g>
      <g id="Grupo_135547" data-name="Grupo 135547">
        <path id="Trazado_195487" data-name="Trazado 195487" d="M173.345,54.543c-1.389-4.452-2.592-7.973-3.126-8.356-.934-.668-8.334-2.705-11.847-4.082l-.334-.13c-.317-.126-.634-.248-.938-.369-.152-.061-.3-.117-.452-.174-.083-.03-.161-.061-.243-.091-.065-.026-.13-.052-.2-.074a.046.046,0,0,1-.017.017,57.681,57.681,0,0,0-3.878,4.96c-3.63,5.159-8.359,13.518-7.634,21.235.234,2.476.521,6.032,1,10.023.035.317.074.634.117.955h16.381c.2-4.177.555-9.679,1.094-11.812l.013-.034a.138.138,0,0,1,.009-.044c0-.021.013-.043.017-.065l.013-.034v-.009l0-.009s3.965,6.2,4.169,12.007h10.31C177.306,73.06,175.73,62.181,173.345,54.543Z" fill="#3c4145"/>
      </g>
      <g id="Grupo_135548" data-name="Grupo 135548">
        <path id="Trazado_195488" data-name="Trazado 195488" d="M138.717,42.357a123.293,123.293,0,0,0-2.835,14.4v0c-.057.343-.109.695-.165,1.055,0,.04-.013.083-.018.126-.039.235-.074.478-.108.721-.005.031-.009.057-.013.087-.026.161-.052.326-.074.5-.061.4-.122.821-.183,1.242-.6,4.195-1.4,10.861-2.21,17.974h-6.475a30.157,30.157,0,0,1-.656-5.007.692.692,0,0,0-.03.083c-.517,1.433-1.086,2.992-1.663,4.508-.052.139-.1.277-.157.416H112.97l11.117-29.082c.221-.174,3.083-1.715,4.977-2.614,1.976-.943,4.473-2.1,6.687-3.123,1.06-.49,2.054-.946,2.9-1.333Z" fill="#3c4145"/>
      </g>
      <g id="Grupo_135549" data-name="Grupo 135549">
        <path id="Trazado_195489" data-name="Trazado 195489" d="M153.773,52.528,149.5,54.942l1.828,1.863-4.013,21.652H145.8c-.556-4.377-.873-8.307-1.12-10.978-1.116-11.933,10.791-25.391,11.529-26.212.574.217,1.19.456,1.829.708Z" fill="#51565c"/>
      </g>
      <g id="Grupo_135550" data-name="Grupo 135550">
        <path id="Trazado_195490" data-name="Trazado 195490" d="M138.783,42.244s-1.6,5.216-3.457,18.239c-.6,4.191-1.4,10.861-2.215,17.974h-.63L131.652,58l2.037-2.206-1.811-2.262,3.873-9.893c1.06-.49,2.054-.946,2.9-1.333Z" fill="#51565c"/>
      </g>
      <g id="Grupo_135551" data-name="Grupo 135551">
        <path id="Trazado_195491" data-name="Trazado 195491" d="M156.425,41.318l-3.545-2.153s-.1,1.944-8.877,7.022l2.493,7.022Z" fill="#f5e2d9"/>
      </g>
      <g id="Grupo_135552" data-name="Grupo 135552">
        <path id="Trazado_195492" data-name="Trazado 195492" d="M141.668,40.145s.138,2.1,2.335,6.042l-4.866,6.343-.354-10.287Z" fill="#f5e2d9"/>
      </g>
      <g id="Grupo_135553" data-name="Grupo 135553">
        <path id="Trazado_195493" data-name="Trazado 195493" d="M144.016,46.187s.943,3.772.6,4.828a4.605,4.605,0,0,1-3.564-.189A16.557,16.557,0,0,1,144.016,46.187Z" fill="#d44040"/>
      </g>
      <g id="Grupo_135554" data-name="Grupo 135554">
        <path id="Trazado_195494" data-name="Trazado 195494" d="M142.873,59.011a94.868,94.868,0,0,0-.625,19.446h-4.156q-.084-1.23-.161-2.57a67.016,67.016,0,0,1,3.969-25.4l2.115-.53S143.334,55.884,142.873,59.011Z" fill="#d44040"/>
      </g>
      <g id="Grupo_135555" data-name="Grupo 135555">
        <path id="Trazado_195495" data-name="Trazado 195495" d="M126.115,67.37c-.159,3.219-.135,6.077-.135,6.077v0c0,.016-.005.1-.011.247l-.021-.162c-.514,1.433-1.085,2.99-1.661,4.507a48.547,48.547,0,0,1-.129-4.911c.231-9.025,3.069-13.758,3.069-13.758C126.576,60.945,126.264,64.32,126.115,67.37Z" fill="#2d3133"/>
      </g>
    </g>
  </g>
  <g id="Grupo_135559" data-name="Grupo 135559">
    <circle id="Elipse_6040" data-name="Elipse 6040" cx="15.003" cy="15.003" r="15.003" transform="translate(165.775 12.781)" fill="#fdb74d"/>
    <g id="Grupo_135558" data-name="Grupo 135558">
      <path id="Trazado_195496" data-name="Trazado 195496" d="M171.472,28.127c.536,1.872,1.63,9.739,5.529,7.44.9-.53,1.639-1.893,2.3-2.683l3.577-4.259,7.154-8.518c.611-.728-2.2-2.451-2.971-1.537L180.7,26.142l-3.179,3.786c-.736.876-2.418,3.684-3.534,3.956l1.843.548c.439.343-.42-2.144-.439-2.212l-.994-3.469c-.274-.955-3.335-2.04-2.929-.624Z" fill="#5038a1"/>
    </g>
  </g>
  <rect id="Rectángulo_44872" data-name="Rectángulo 44872" width="210" height="212" fill="none"/>
</svg>
