<svg id="Grupo_135613" data-name="Grupo 135613" xmlns="http://www.w3.org/2000/svg" xmlns:xlink="http://www.w3.org/1999/xlink" width="315" height="315" viewBox="0 0 315 315">
  <defs>
    <linearGradient id="linear-gradient" x1="0.5" y1="0.941" x2="0.429" y2="-0.71" gradientUnits="objectBoundingBox">
      <stop offset="0" stop-color="#2b3582"/>
      <stop offset="1" stop-color="#150e42"/>
    </linearGradient>
    <linearGradient id="linear-gradient-2" x1="1.696" y1="-1.329" x2="-1.544" y2="3.626" gradientUnits="objectBoundingBox">
      <stop offset="0" stop-color="#53d8ff"/>
      <stop offset="1" stop-color="#3840f7"/>
    </linearGradient>
    <linearGradient id="linear-gradient-3" x1="-30.66" y1="-2.445" x2="159.586" y2="15.535" gradientUnits="objectBoundingBox">
      <stop offset="0" stop-color="#a737d5"/>
      <stop offset="1" stop-color="#ef497a"/>
    </linearGradient>
    <linearGradient id="linear-gradient-4" x1="1.519" y1="-0.775" x2="-1.484" y2="2.908" xlink:href="#linear-gradient"/>
    <linearGradient id="linear-gradient-5" x1="1.004" y1="-2.464" x2="-0.074" y2="4.125" xlink:href="#linear-gradient"/>
    <linearGradient id="linear-gradient-6" x1="7.653" y1="-0.269" x2="4.815" y2="6.119" xlink:href="#linear-gradient"/>
    <linearGradient id="linear-gradient-7" x1="24.001" y1="0.887" x2="25.008" y2="0.887" gradientUnits="objectBoundingBox">
      <stop offset="0" stop-color="#f9b776"/>
      <stop offset="1" stop-color="#f47960"/>
    </linearGradient>
    <linearGradient id="linear-gradient-8" x1="-4.437" y1="1.356" x2="1.744" y2="0.236" xlink:href="#linear-gradient-2"/>
    <linearGradient id="linear-gradient-9" x1="13.555" y1="-1.945" x2="6.535" y2="5.62" xlink:href="#linear-gradient"/>
    <linearGradient id="linear-gradient-10" x1="19.356" y1="0.821" x2="20.37" y2="0.821" xlink:href="#linear-gradient-7"/>
    <linearGradient id="linear-gradient-11" x1="-2.967" y1="1.398" x2="1.167" y2="0.295" xlink:href="#linear-gradient-2"/>
    <linearGradient id="linear-gradient-12" x1="0.664" y1="0.005" x2="0.06" y2="2.053" gradientUnits="objectBoundingBox">
      <stop offset="0" stop-color="#fdf53f"/>
      <stop offset="1" stop-color="#d93c65"/>
    </linearGradient>
    <linearGradient id="linear-gradient-13" x1="7.089" y1="0.555" x2="8.082" y2="0.555" xlink:href="#linear-gradient-7"/>
    <linearGradient id="linear-gradient-14" x1="-168.949" y1="1.671" x2="-166.969" y2="4.355" xlink:href="#linear-gradient-7"/>
    <linearGradient id="linear-gradient-15" x1="58.754" y1="0.955" x2="60.756" y2="-0.825" xlink:href="#linear-gradient-7"/>
    <linearGradient id="linear-gradient-16" x1="0.698" y1="0.045" x2="-0.82" y2="5.26" xlink:href="#linear-gradient-12"/>
    <linearGradient id="linear-gradient-17" x1="2.378" y1="0.636" x2="3.38" y2="0.636" xlink:href="#linear-gradient-7"/>
    <linearGradient id="linear-gradient-18" x1="8.315" y1="0.648" x2="9.306" y2="0.648" xlink:href="#linear-gradient-7"/>
    <linearGradient id="linear-gradient-19" x1="-1.934" y1="-0.062" x2="-1.421" y2="2.428" xlink:href="#linear-gradient"/>
    <linearGradient id="linear-gradient-20" x1="-10.188" y1="0.5" x2="-9.188" y2="0.5" xlink:href="#linear-gradient-7"/>
    <linearGradient id="linear-gradient-21" x1="0.366" y1="-0.059" x2="0.965" y2="2.436" xlink:href="#linear-gradient-2"/>
    <linearGradient id="linear-gradient-22" x1="-410.668" y1="-100.766" x2="-411.805" y2="-99.485" xlink:href="#linear-gradient-7"/>
    <linearGradient id="linear-gradient-23" x1="-291.146" y1="-66.328" x2="-290.207" y2="-66.328" xlink:href="#linear-gradient"/>
    <linearGradient id="linear-gradient-24" x1="-1180.111" y1="-333.507" x2="-1177.505" y2="-336.154" xlink:href="#linear-gradient-7"/>
  </defs>
  <path id="Trazado_197986" data-name="Trazado 197986" d="M301.232,211.62c-29.41,69.248-107.75,108.041-175.687,97.576-11.055-1.7-41.362-6.775-68.194-30.7C5.7,232.427-5.35,141.212,36.318,76.931,66.645,30.146,121.009,3.624,172.666,4.951,183.793,5.237,226.435,7,263.911,37.9A140.558,140.558,0,0,1,292.5,70.334C318.19,110.513,320.4,166.49,301.232,211.62Z" fill="#e5e1f1"/>
  <path id="Trazado_139920" data-name="Trazado 139920" d="M270.8,55.333a4.251,4.251,0,0,0,.141-.44,2.945,2.945,0,0,0-3.08-3.8,5.407,5.407,0,0,0-5.045,3.783,101.137,101.137,0,0,1-8.536,21.538,119.95,119.95,0,0,1-13.493,20.225l-.978,1.2-1.016,1.171c-.671.784-1.368,1.548-2.067,2.31q-2.087,2.295-4.315,4.461c-.734.729-1.5,1.424-2.251,2.136s-1.538,1.383-2.3,2.073c-.794.663-1.563,1.344-2.376,1.986s-1.6,1.3-2.426,1.9-1.631,1.237-2.469,1.819c-.417.294-.828.594-1.249.877l-1.265.841c-.835.575-1.7,1.077-2.549,1.617-.859.509-1.717,1.017-2.581,1.5-.871.464-1.728.953-2.6,1.372-.437.213-.869.439-1.306.646l-1.308.6c-.22.1-.433.2-.656.3l-.679.276-1.351.548c-.914.332-1.815.685-2.731.989a93.731,93.731,0,0,1-22.406,4.505c-7.611.671-15.319.717-23.321.751-4,.022-8.078.017-12.28.105-2.094.034-4.232.115-6.391.208-1.09.06-2.173.107-3.279.183l-3.225.221c-8.254.582-16.788,1.29-25.665,2.551a181.614,181.614,0,0,0-27.831,6.049,128.523,128.523,0,0,0-14.861,5.567,111.257,111.257,0,0,0-15.135,8.219c-2.5,1.625-4.962,3.385-7.362,5.266-1.2.938-2.383,1.917-3.552,2.916-.581.5-1.145.986-1.731,1.524s-1.175,1.074-1.743,1.624a90.334,90.334,0,0,0-12.132,14.237c-.866,1.266-1.7,2.542-2.491,3.839-.422.683-.722,1.209-1.073,1.788l-1.013,1.713c-.671,1.147-1.306,2.319-1.931,3.5s-1.21,2.38-1.81,3.576a95.14,95.14,0,0,0-5.759,14.966,80.282,80.282,0,0,0-2.922,15.5,73.953,73.953,0,0,0,8.68,41.85A94.372,94.372,0,0,0,28.551,287a113.651,113.651,0,0,0,9.519,8.813c1.691,1.39,3.434,2.741,5.272,4.07.924.664,1.865,1.327,2.867,1.993.5.335,1.013.668,1.57,1.013l.874.532.5.287.305.168.464.237c15.611,7.018,37.742-.463,49.423-16.708s8.495-35.1-7.118-42.124l.157.1c.036.026.012.022.012.022l-.013.008c-.01.011-.071,0-.108,0a3.115,3.115,0,0,1-.331-.064c-.245-.052-.529-.136-.811-.217-.574-.169-1.185-.368-1.8-.585-1.232-.443-2.492-.938-3.736-1.473a67.8,67.8,0,0,1-7.246-3.621,57.737,57.737,0,0,1-12.12-9.1,36.131,36.131,0,0,1-7.638-10.911,26.4,26.4,0,0,1-1.867-6.081,29.157,29.157,0,0,1-.435-6.667,37.282,37.282,0,0,1,1.087-7.377c.183-.647.336-1.3.53-1.957.216-.661.4-1.325.631-2l.683-1.95c.166-.513.367-1.028.565-1.54a29.291,29.291,0,0,1,3.292-5.945c.165-.24.342-.474.517-.71l.6-.752c.41-.5.83-1.005,1.279-1.5.89-.989,1.854-1.968,2.9-2.932A67.861,67.861,0,0,1,84.6,169.413q2.418-1.194,4.982-2.273t5.243-2.08c3.566-1.332,7.264-2.559,11.051-3.7,7.578-2.285,15.488-4.211,23.638-6.078l2.925-.665c.944-.216,1.9-.41,2.864-.618,1.933-.392,3.88-.776,5.867-1.132,3.961-.72,8.025-1.381,12.161-2.035,8.273-1.323,16.879-2.683,25.716-4.816a123.954,123.954,0,0,0,26.608-9.406c1.086-.533,2.157-1.119,3.227-1.683,1.064-.606,2.11-1.178,3.175-1.814l1.588-.943c.523-.322,1.034-.657,1.55-.985,1.039-.645,2.03-1.35,3.029-2.033a105.573,105.573,0,0,0,11.031-8.994,141.606,141.606,0,0,0,17.825-20.307A177.062,177.062,0,0,0,260.6,78.006a218.713,218.713,0,0,0,10.188-22.65Z" fill="#fdb74d"/>
  <g id="Grupo_135613-2" data-name="Grupo 135613">
    <circle id="Elipse_5247" data-name="Elipse 5247" cx="14.58" cy="14.58" r="14.58" transform="translate(276.58 14.097)" fill="#5038a1" opacity="0.7" style="isolation: isolate"/>
    <g id="Elipse_5249" data-name="Elipse 5249">
      <circle id="Elipse_6048" data-name="Elipse 6048" cx="5.494" cy="5.494" r="5.494" transform="translate(287.468 18.742)" fill="none"/>
      <circle id="Elipse_6049" data-name="Elipse 6049" cx="4.86" cy="4.86" r="4.86" transform="translate(288.102 19.376)" fill="none" stroke="#fff" stroke-width="1.268"/>
    </g>
    <g id="Elipse_5250" data-name="Elipse 5250">
      <circle id="Elipse_6050" data-name="Elipse 6050" cx="2.958" cy="2.958" r="2.958" transform="translate(251.01 10.7)" fill="#fdb74d"/>
      <circle id="Elipse_6051" data-name="Elipse 6051" cx="2.324" cy="2.324" r="2.324" transform="translate(251.644 11.334)" fill="#fdb74d" stroke="#8c6df2" stroke-width="1.268"/>
    </g>
    <circle id="Elipse_5251" data-name="Elipse 5251" cx="1.902" cy="1.902" r="1.902" transform="translate(270.332 26.902)" fill="#fdb74d"/>
  </g>
  <g id="Grupo_135614" data-name="Grupo 135614">
    <circle id="Elipse_6052" data-name="Elipse 6052" cx="26.368" cy="26.368" r="26.368" transform="translate(18.835 13.761)" fill="#fdb74d" opacity="0.5"/>
    <g id="Elipse_4972" data-name="Elipse 4972">
      <circle id="Elipse_6053" data-name="Elipse 6053" cx="24.35" cy="24.35" r="24.35" transform="translate(20.853 15.78)" fill="none"/>
      <circle id="Elipse_6054" data-name="Elipse 6054" cx="23.051" cy="23.051" r="23.051" transform="translate(22.152 17.078)" fill="none" stroke="#fff" stroke-linecap="round" stroke-width="2.597" stroke-dasharray="1.948 5.195"/>
    </g>
  </g>
  <g id="Grupo_135630" data-name="Grupo 135630">
    <path id="Trazado_197987" data-name="Trazado 197987" d="M71.571,58.909A18.779,18.779,0,0,1,90.35,40.13h159.7a16.544,16.544,0,0,1,16.523,15.7L278.36,287.367A12.2,12.2,0,0,1,266.4,300.185L83.362,303.512a11.581,11.581,0,0,1-11.791-11.579Z" fill="url(#linear-gradient)"/>
    <path id="Trazado_197988" data-name="Trazado 197988" d="M110.113,299.576h0l-20.481-.265a12.632,12.632,0,0,1-12.42-12.581V255.808a.438.438,0,0,1,.875,0V286.73a11.753,11.753,0,0,0,11.556,11.707l20.481.264a.438.438,0,0,1-.006.875Z" fill="url(#linear-gradient-2)"/>
    <path id="Trazado_197989" data-name="Trazado 197989" d="M77.645,246.667a.437.437,0,0,1-.438-.437v-5.008a.438.438,0,0,1,.875,0v5.008A.437.437,0,0,1,77.645,246.667Z" fill="url(#linear-gradient-3)"/>
    <g id="Grupo_135629" data-name="Grupo 135629">
      <path id="Trazado_197990" data-name="Trazado 197990" d="M84.654,43.693a5.455,5.455,0,0,1,6.187-5.44c21.809,2.957,96.8,12.1,158.8,7.344a5.044,5.044,0,0,1,5.432,4.758l12.36,232.565a5.8,5.8,0,0,1-5.453,6.1c-26.077,1.544-133.472,7.509-171.779,3.5a4.6,4.6,0,0,1-4.115-4.551Z" fill="#5038a1"/>
      <path id="Trazado_197991" data-name="Trazado 197991" d="M87.223,49.521a5.249,5.249,0,0,1,5.954-5.235C114.164,47.132,186.333,55.934,246,51.354a4.853,4.853,0,0,1,5.227,4.578L263.124,279.74a5.585,5.585,0,0,1-5.248,5.874c-25.1,1.485-128.446,7.226-165.31,3.365a4.425,4.425,0,0,1-3.96-4.38Z" fill="#fff" opacity="0.6"/>
      <path id="Trazado_197992" data-name="Trazado 197992" d="M106.651,66.777l2.229,47.982a3.051,3.051,0,0,0,2.961,2.91c8.886.25,36.576.926,52.211.111a3.408,3.408,0,0,0,3.227-3.293c.3-9,.95-35.189-1.1-46.138a3.844,3.844,0,0,0-3.65-3.127L110,63.385A3.244,3.244,0,0,0,106.651,66.777Z" fill="#fff" opacity="0.78"/>
      <g id="Grupo_135615" data-name="Grupo 135615" opacity="0.6">
        <path id="Trazado_197993" data-name="Trazado 197993" d="M238.236,70.953a1.6,1.6,0,0,0,1.648-1.609,1.756,1.756,0,0,0-1.742-1.64l-57.949-1.033a1.1,1.1,0,0,0-1.132,1.569l.393,1.114a2.569,2.569,0,0,0,2.258,1.6Z" fill="#fff"/>
      </g>
      <g id="Grupo_135616" data-name="Grupo 135616" opacity="0.6">
        <path id="Trazado_197994" data-name="Trazado 197994" d="M180.193,75.616a1.1,1.1,0,0,0-1.132,1.569l.393,1.114a2.569,2.569,0,0,0,2.258,1.6h56.524a1.6,1.6,0,0,0,1.648-1.609,1.756,1.756,0,0,0-1.742-1.64Z" fill="#fff"/>
      </g>
      <g id="Grupo_135617" data-name="Grupo 135617" opacity="0.6">
        <path id="Trazado_197995" data-name="Trazado 197995" d="M180.193,84.691a1.1,1.1,0,0,0-1.132,1.569l.393,1.114a2.569,2.569,0,0,0,2.258,1.6h56.524a1.6,1.6,0,0,0,1.648-1.609,1.756,1.756,0,0,0-1.742-1.64Z" fill="#fff"/>
      </g>
      <g id="Grupo_135618" data-name="Grupo 135618" opacity="0.6">
        <path id="Trazado_197996" data-name="Trazado 197996" d="M180.193,95.02a1.1,1.1,0,0,0-1.132,1.569l.393,1.114a2.569,2.569,0,0,0,2.258,1.6h56.524a1.6,1.6,0,0,0,1.648-1.61,1.756,1.756,0,0,0-1.742-1.639Z" fill="#fff"/>
      </g>
      <g id="Grupo_135619" data-name="Grupo 135619" opacity="0.6">
        <path id="Trazado_197997" data-name="Trazado 197997" d="M180.193,105.21a1.1,1.1,0,0,0-1.132,1.569l.393,1.114a2.569,2.569,0,0,0,2.258,1.6h56.524a1.6,1.6,0,0,0,1.648-1.609,1.756,1.756,0,0,0-1.742-1.64Z" fill="#fff"/>
      </g>
      <g id="Grupo_135620" data-name="Grupo 135620" opacity="0.6">
        <path id="Trazado_197998" data-name="Trazado 197998" d="M243.83,132.738a1.533,1.533,0,0,0,1.589-1.61,1.816,1.816,0,0,0-1.8-1.623l-135.287-1.066c-.932-.007-1.22.583-.639,1.313l1.322,1.66a3.99,3.99,0,0,0,2.751,1.326Z" fill="#fff"/>
      </g>
      <g id="Grupo_135621" data-name="Grupo 135621" opacity="0.6">
        <path id="Trazado_197999" data-name="Trazado 197999" d="M108.331,137.384c-.932-.007-1.22.583-.639,1.313l1.322,1.66a3.99,3.99,0,0,0,2.751,1.326H243.83a1.533,1.533,0,0,0,1.589-1.61,1.816,1.816,0,0,0-1.8-1.623Z" fill="#fff"/>
      </g>
      <path id="Trazado_198000" data-name="Trazado 198000" d="M107.9,152.32c3.244-.248,9.32-.364,12.664-.41a3.03,3.03,0,0,1,2.992,2.318,49.37,49.37,0,0,1,1.424,12.245,2.691,2.691,0,0,1-2.716,2.635l-12.341-.133A2.963,2.963,0,0,1,107,166.287l-1.085-11.61A2.159,2.159,0,0,1,107.9,152.32Z" fill="#fff" opacity="0.6"/>
      <g id="Grupo_135622" data-name="Grupo 135622" opacity="0.6">
        <path id="Trazado_198001" data-name="Trazado 198001" d="M130.545,157.081a1.349,1.349,0,0,0-1.442,1.605l.351,2.338A2.038,2.038,0,0,0,131.4,162.7h30.326a1.675,1.675,0,0,0,1.674-1.7l-.011-.859a1.815,1.815,0,0,0-1.715-1.766Z" fill="#fff"/>
      </g>
      <path id="Trazado_198002" data-name="Trazado 198002" d="M175.133,152.32c3.245-.248,9.32-.364,12.665-.41a3.03,3.03,0,0,1,2.992,2.318,49.418,49.418,0,0,1,1.424,12.245,2.692,2.692,0,0,1-2.716,2.635l-12.342-.133a2.964,2.964,0,0,1-2.919-2.688l-1.085-11.61A2.16,2.16,0,0,1,175.133,152.32Z" fill="#fff" opacity="0.6"/>
      <g id="Grupo_135623" data-name="Grupo 135623" opacity="0.6">
        <path id="Trazado_198003" data-name="Trazado 198003" d="M197.781,157.081a1.348,1.348,0,0,0-1.442,1.605l.351,2.338a2.036,2.036,0,0,0,1.947,1.677h30.325a1.674,1.674,0,0,0,1.674-1.7l-.01-.859a1.817,1.817,0,0,0-1.715-1.766Z" fill="#fff"/>
      </g>
      <g id="Grupo_135628" data-name="Grupo 135628">
        <path id="Trazado_198004" data-name="Trazado 198004" d="M125.311,198.385h-.031l-11.388-.11a3.06,3.06,0,0,1-3.124-2.6l-1-9.556a2.073,2.073,0,0,1,.49-1.561A2.5,2.5,0,0,1,112,183.7h0c.96-.065,2.311-.181,3.742-.3,3.012-.257,6.76-.576,8.869-.6a3.182,3.182,0,0,1,3.189,2.23c.594,2.194.542,6.346.429,10.769A2.815,2.815,0,0,1,125.311,198.385Zm-13.252-13.817a1.621,1.621,0,0,0-1.133.55,1.21,1.21,0,0,0-.29.907l1,9.555A2.192,2.192,0,0,0,113.9,197.4l11.389.109h.022a1.94,1.94,0,0,0,2.043-1.742c.111-4.356.164-8.438-.4-10.519a2.351,2.351,0,0,0-2.334-1.584c-2.077.026-5.808.344-8.806.6-1.434.122-2.789.238-3.756.3Z" fill="#fff"/>
        <path id="Trazado_198005" data-name="Trazado 198005" d="M113.284,185.554c2.393-.164,7.593-.692,10.059-.722a2.2,2.2,0,0,1,2.206,1.524c.476,1.76.413,5.268.331,8.506a1.9,1.9,0,0,1-2,1.733l-9.1-.088a2.1,2.1,0,0,1-2.152-1.767l-.8-7.636A1.478,1.478,0,0,1,113.284,185.554Z" fill="#fff" opacity="0.6"/>
        <g id="Grupo_135624" data-name="Grupo 135624" opacity="0.6">
          <path id="Trazado_198006" data-name="Trazado 198006" d="M135.314,192.04a2.828,2.828,0,0,0,2.758,2.107l105.37-.9a2.138,2.138,0,0,0-.009-4.276l-105.372-.481A2.828,2.828,0,0,0,135.314,192.04Z" fill="#fff"/>
        </g>
        <path id="Trazado_198007" data-name="Trazado 198007" d="M113.769,187.052h0a1.748,1.748,0,0,1,2.411.656l2.247,4.027a.561.561,0,0,0,1-.044l5.571-12.4a.622.622,0,0,1,1.189.269,24.488,24.488,0,0,1-7.125,17.042s-3.341-1.3-6.031-7.206A1.833,1.833,0,0,1,113.769,187.052Z" fill="#fdb74d"/>
        <path id="Trazado_198008" data-name="Trazado 198008" d="M125.311,222.793h-.031l-11.388-.11a3.06,3.06,0,0,1-3.124-2.6l-1-9.556a2.073,2.073,0,0,1,.49-1.561A2.5,2.5,0,0,1,112,208.1h0c.96-.065,2.311-.181,3.742-.3,3.012-.257,6.76-.576,8.869-.6h.046a3.176,3.176,0,0,1,3.143,2.231c.594,2.194.542,6.346.429,10.769A2.815,2.815,0,0,1,125.311,222.793Zm-13.252-13.817a1.621,1.621,0,0,0-1.133.55,1.21,1.21,0,0,0-.29.907l1,9.555a2.192,2.192,0,0,0,2.263,1.821l11.389.109h.022a1.94,1.94,0,0,0,2.043-1.742c.111-4.356.164-8.438-.4-10.519a2.339,2.339,0,0,0-2.334-1.584c-2.077.026-5.808.344-8.806.6-1.434.122-2.789.238-3.756.3Z" fill="#fff"/>
        <path id="Trazado_198009" data-name="Trazado 198009" d="M113.284,209.962c2.393-.164,7.593-.691,10.059-.722a2.2,2.2,0,0,1,2.206,1.524c.476,1.76.413,5.268.331,8.506a1.9,1.9,0,0,1-2,1.733l-9.1-.088a2.1,2.1,0,0,1-2.152-1.767l-.8-7.636A1.478,1.478,0,0,1,113.284,209.962Z" fill="#fff" opacity="0.6"/>
        <g id="Grupo_135625" data-name="Grupo 135625" opacity="0.6">
          <path id="Trazado_198010" data-name="Trazado 198010" d="M135.314,216.448a2.828,2.828,0,0,0,2.758,2.107l105.37-.9a2.138,2.138,0,0,0-.009-4.276L138.061,212.9A2.828,2.828,0,0,0,135.314,216.448Z" fill="#fff"/>
        </g>
        <path id="Trazado_198011" data-name="Trazado 198011" d="M113.769,211.46h0a1.748,1.748,0,0,1,2.411.656l2.247,4.027a.561.561,0,0,0,1-.043L125,203.7a.622.622,0,0,1,1.189.269,24.488,24.488,0,0,1-7.125,17.042s-3.341-1.3-6.031-7.206A1.833,1.833,0,0,1,113.769,211.46Z" fill="#fdb74d"/>
        <path id="Trazado_198012" data-name="Trazado 198012" d="M125.311,247.2h-.031l-11.388-.109a3.061,3.061,0,0,1-3.124-2.6l-1-9.555a2.076,2.076,0,0,1,.49-1.562,2.5,2.5,0,0,1,1.742-.86h0c.96-.065,2.311-.181,3.742-.3,3.012-.257,6.76-.576,8.869-.6h.046a3.176,3.176,0,0,1,3.143,2.231c.594,2.194.542,6.346.429,10.769A2.815,2.815,0,0,1,125.311,247.2Zm-13.252-13.817a1.62,1.62,0,0,0-1.133.55,1.211,1.211,0,0,0-.29.908l1,9.555a2.191,2.191,0,0,0,2.263,1.82l11.389.109h.022a1.94,1.94,0,0,0,2.043-1.742c.111-4.356.164-8.438-.4-10.519a2.334,2.334,0,0,0-2.334-1.584c-2.077.026-5.808.344-8.806.6-1.434.122-2.789.238-3.756.3Z" fill="#fff"/>
        <path id="Trazado_198013" data-name="Trazado 198013" d="M113.284,234.37c2.393-.163,7.593-.691,10.059-.722a2.2,2.2,0,0,1,2.206,1.524c.476,1.76.413,5.268.331,8.506a1.9,1.9,0,0,1-2,1.733l-9.1-.088a2.1,2.1,0,0,1-2.152-1.767l-.8-7.636A1.478,1.478,0,0,1,113.284,234.37Z" fill="#fff" opacity="0.6"/>
        <g id="Grupo_135626" data-name="Grupo 135626" opacity="0.6">
          <path id="Trazado_198014" data-name="Trazado 198014" d="M135.314,240.856a2.828,2.828,0,0,0,2.758,2.107l105.37-.9a2.138,2.138,0,0,0-.009-4.276l-105.372-.481A2.828,2.828,0,0,0,135.314,240.856Z" fill="#fff"/>
        </g>
        <path id="Trazado_198015" data-name="Trazado 198015" d="M113.769,235.868h0a1.748,1.748,0,0,1,2.411.656l2.247,4.027a.561.561,0,0,0,1-.043L125,228.1a.622.622,0,0,1,1.189.269,24.486,24.486,0,0,1-7.125,17.042s-3.341-1.3-6.031-7.206A1.833,1.833,0,0,1,113.769,235.868Z" fill="#fdb74d"/>
        <path id="Trazado_198016" data-name="Trazado 198016" d="M125.311,271.609h-.031l-11.388-.109a3.061,3.061,0,0,1-3.124-2.6l-1-9.555a2.076,2.076,0,0,1,.49-1.562,2.5,2.5,0,0,1,1.742-.86h0c.96-.065,2.311-.181,3.742-.3,3.012-.257,6.76-.576,8.869-.6h.046a3.176,3.176,0,0,1,3.143,2.231c.594,2.194.542,6.346.429,10.769A2.815,2.815,0,0,1,125.311,271.609Zm-13.252-13.817a1.621,1.621,0,0,0-1.133.55,1.211,1.211,0,0,0-.29.908l1,9.555a2.191,2.191,0,0,0,2.263,1.82l11.389.109h.022a1.94,1.94,0,0,0,2.043-1.742c.111-4.356.164-8.438-.4-10.519a2.33,2.33,0,0,0-2.334-1.584c-2.077.026-5.808.344-8.806.6-1.434.122-2.789.238-3.756.3Z" fill="#fff"/>
        <path id="Trazado_198017" data-name="Trazado 198017" d="M113.284,258.778c2.393-.163,7.593-.691,10.059-.722a2.2,2.2,0,0,1,2.206,1.524c.476,1.76.413,5.268.331,8.506a1.9,1.9,0,0,1-2,1.733l-9.1-.087a2.1,2.1,0,0,1-2.152-1.768l-.8-7.636A1.478,1.478,0,0,1,113.284,258.778Z" fill="#fff" opacity="0.6"/>
        <g id="Grupo_135627" data-name="Grupo 135627" opacity="0.6">
          <path id="Trazado_198018" data-name="Trazado 198018" d="M135.314,265.264h0a2.828,2.828,0,0,0,2.758,2.107l105.37-.9a2.138,2.138,0,0,0-.009-4.276l-105.372-.481A2.828,2.828,0,0,0,135.314,265.264Z" fill="#fff"/>
        </g>
        <path id="Trazado_198019" data-name="Trazado 198019" d="M113.769,260.277h0a1.746,1.746,0,0,1,2.411.656l2.247,4.026a.561.561,0,0,0,1-.043l5.571-12.4a.622.622,0,0,1,1.189.269,24.486,24.486,0,0,1-7.125,17.042s-3.341-1.3-6.031-7.206A1.832,1.832,0,0,1,113.769,260.277Z" fill="#fdb74d"/>
      </g>
    </g>
    <path id="Trazado_198020" data-name="Trazado 198020" d="M180.1,8.561c-5.768-4.013-10.784-3.933-14.315-2.891a7.041,7.041,0,0,0-5,7.4l1.522,16.62,18.12,1.608S191.417,16.431,180.1,8.561ZM172.136,21.97a4.518,4.518,0,1,1,4.518-4.518A4.518,4.518,0,0,1,172.136,21.97Z" fill="url(#linear-gradient-4)"/>
    <path id="Trazado_198021" data-name="Trazado 198021" d="M164.119,22.7a.437.437,0,0,1-.434-.4l-.243-2.647a.437.437,0,1,1,.871-.079l.242,2.647a.437.437,0,0,1-.395.475Zm-.475-5.187a.438.438,0,0,1-.435-.4l-.184-2.009a6.724,6.724,0,0,1,4.766-7.054,13.558,13.558,0,0,1,6.623-.272.437.437,0,0,1-.176.857,12.688,12.688,0,0,0-6.2.254,5.846,5.846,0,0,0-4.143,6.135l.184,2.01a.437.437,0,0,1-.4.475Z" fill="#fff"/>
    <path id="Trazado_198022" data-name="Trazado 198022" d="M137.579,40.435V32.079a5.1,5.1,0,0,1,5.274-5.1l57.613,1.974a4.959,4.959,0,0,1,4.78,4.659l.482,8.03Z" fill="url(#linear-gradient-5)"/>
    <path id="Trazado_198023" data-name="Trazado 198023" d="M159.062,30.132h-2.478a.438.438,0,0,1,0-.875h2.478a.438.438,0,0,1,0,.875Z" fill="#fff"/>
    <path id="Trazado_198024" data-name="Trazado 198024" d="M140.7,37.811a.437.437,0,0,1-.438-.437v-3.38A4.742,4.742,0,0,1,145,29.257h9.109a.438.438,0,0,1,0,.875H145a3.866,3.866,0,0,0-3.862,3.862v3.38A.437.437,0,0,1,140.7,37.811Z" fill="#fff"/>
    <path id="Trazado_198025" data-name="Trazado 198025" d="M114.1,42.545a5.429,5.429,0,0,1,5.423-5.168l100.747,0a7.447,7.447,0,0,1,7.337,6.177l.086.492a6.4,6.4,0,0,1-6.3,7.486H118.035a4.157,4.157,0,0,1-4.153-4.357Z" fill="#8c6df2"/>
  </g>
  <g id="Grupo_135636" data-name="Grupo 135636">
    <path id="Trazado_198026" data-name="Trazado 198026" d="M219.89,298.9s.892,4.785,1.352,9.526A3.268,3.268,0,0,1,218.149,312c-6.316.323-19.827.964-24.679.794a1.064,1.064,0,0,1-.95-1.448,2.38,2.38,0,0,1,1.206-1.295l22.227-10.474Z" fill="url(#linear-gradient-6)"/>
    <path id="Trazado_198027" data-name="Trazado 198027" d="M220.557,296.081l-.626,5.74s-3.894,1.858-6.584-.167l1.559-6.4Z" fill="url(#linear-gradient-7)"/>
    <path id="Trazado_198028" data-name="Trazado 198028" d="M219.017,188.3c.308,1.494,2.29,74.7-5.223,107.587a1.113,1.113,0,0,0,.665,1.289,19.372,19.372,0,0,0,6.386,1.234,1.917,1.917,0,0,0,1.89-1.394c2.165-7.634,12.521-45.879,13.572-82.328,1.174-40.729-.013-1.387-.013-1.387l-1.157-25.158Z" fill="url(#linear-gradient-8)"/>
    <path id="Trazado_198029" data-name="Trazado 198029" d="M245.6,301.16s1.371,2.407,2.737,8.824a2,2,0,0,1-1.732,2.4c-2.085.226-5.294.52-7.868.527a1.988,1.988,0,0,1-1.989-2.2,16.768,16.768,0,0,1,3.827-9.236Z" fill="url(#linear-gradient-9)"/>
    <path id="Trazado_198030" data-name="Trazado 198030" d="M246.709,293.774,245.2,302.46s-1.56,1.184-4.677.366l.669-9.336Z" fill="url(#linear-gradient-10)"/>
    <path id="Trazado_198031" data-name="Trazado 198031" d="M250.016,190.248c6.769,38.57-.478,95.492-3,106.644a1.734,1.734,0,0,1-1.388,1.331,11.673,11.673,0,0,1-5.009-.152,1.591,1.591,0,0,1-1.157-1.454c-.438-8.992-.331-64.221-6.5-85.989a4.963,4.963,0,0,0-1.939-2.717l-11.654-8.119L218.352,186.5Z" fill="url(#linear-gradient-11)"/>
    <g id="Grupo_135631" data-name="Grupo 135631">
      <path id="Trazado_198032" data-name="Trazado 198032" d="M208.53,117.44c19.18-.5,40.4,4.652,40.4,4.652,6.037,33.309,1.686,71.837,1.686,71.837-14.814,4.036-31.626-2.079-31.626-2.079-2.6-13.922-14.492-53.059-14.492-53.059a63.183,63.183,0,0,1-23.523-7.219c4.8-5.668,7.015-12.843,7.967-17.081A64.376,64.376,0,0,0,208.53,117.44Z" fill="url(#linear-gradient-12)"/>
      <path id="Trazado_198033" data-name="Trazado 198033" d="M151.6,89.726a3.67,3.67,0,0,1,4.258-1.24c2.937,11.9,17.831,21.424,33.082,26-.952,4.238-3.171,11.413-7.967,17.081C155.6,117.624,151.6,89.726,151.6,89.726Z" fill="url(#linear-gradient-13)"/>
    </g>
    <g id="Grupo_135632" data-name="Grupo 135632">
      <path id="Trazado_198034" data-name="Trazado 198034" d="M152.061,90.3c-.191.629,2.1,1.561,3.422-1.015.035-1.229.732-6.5-.012-7.494-3.961-5.294-11.606-11.9-11.606-11.9a1.8,1.8,0,0,0-.2,2.508l3.714,3.8a17.782,17.782,0,0,0-2.106,4.266,5.15,5.15,0,0,0,.55,3.788c.656,1.157,1.551,2.66,2.4,3.835A5.088,5.088,0,0,0,152.061,90.3Z" fill="url(#linear-gradient-14)"/>
      <path id="Trazado_198035" data-name="Trazado 198035" d="M149.01,78.662l3.378,2.809,1.08,2.819-2.957,3.343s-1.058-5.6-1.817-6.811S148.318,79.024,149.01,78.662Z" fill="url(#linear-gradient-15)"/>
    </g>
    <path id="Trazado_198036" data-name="Trazado 198036" d="M241.746,140.736l7.18-18.644s18.034,12,21.128,27.411a42.4,42.4,0,0,0-15.536,4.323C253.123,146.55,241.746,140.736,241.746,140.736Z" fill="url(#linear-gradient-16)"/>
    <path id="Trazado_198037" data-name="Trazado 198037" d="M226.255,158.364s20.225,11.177,26.92,1.4a7.632,7.632,0,0,0,1.343-5.942,42.4,42.4,0,0,1,15.536-4.323,21.3,21.3,0,0,1-2.176,14.626c-11.682,21.864-44.238-.78-44.238-.78Z" fill="url(#linear-gradient-17)"/>
    <path id="Trazado_198038" data-name="Trazado 198038" d="M227.812,101.681l6.272,17.593a.635.635,0,0,1-.283.769c-1.655.936-7.624,3.652-14.891-.859a2.992,2.992,0,0,1-1.4-2.126L215.388,101.8Z" fill="url(#linear-gradient-18)"/>
    <g id="Grupo_135634" data-name="Grupo 135634">
      <g id="Grupo_135633" data-name="Grupo 135633">
        <path id="Trazado_198039" data-name="Trazado 198039" d="M230.388,176.028l-11.017-38.476a1.122,1.122,0,0,0-.949-.808c-2-.233-7.781-.887-14.459-1.452-8.045-.68-17.387-1.231-22.969-.762a1.126,1.126,0,0,0-.921,1.62c3.175,6.422,16.233,32.547,22.772,41.106a1.133,1.133,0,0,0,.909.446l25.562-.238A1.126,1.126,0,0,0,230.388,176.028Z" fill="url(#linear-gradient-19)"/>
        <path id="Trazado_198040" data-name="Trazado 198040" d="M227.726,166.732s1.535-6.311.916-8.55-1.819-5.117-5.817-4.478a58.538,58.538,0,0,0-8.714,2.324A2.289,2.289,0,0,0,217.388,158l-1.885,1.458s.27,2.335,2.836,1.087l-1.752,1.934a2.042,2.042,0,0,0,2.99.688C221.466,161.941,222.371,167.492,227.726,166.732Z" fill="url(#linear-gradient-20)"/>
      </g>
      <path id="Trazado_198041" data-name="Trazado 198041" d="M204.7,146.778a3.234,3.234,0,1,1-3.234-3.234A3.233,3.233,0,0,1,204.7,146.778Z" fill="url(#linear-gradient-21)"/>
      <path id="Trazado_198042" data-name="Trazado 198042" d="M218.124,148.91l-2.243-7.609a2.611,2.611,0,0,0-1.961-1.832c-7.031-1.466-26.274-1.778-26.468-1.78l.013-.86c.794.012,19.52.316,26.631,1.8a3.471,3.471,0,0,1,2.61,2.429l2.243,7.61Z" fill="#fff"/>
    </g>
    <g id="Grupo_135635" data-name="Grupo 135635">
      <path id="Trazado_198043" data-name="Trazado 198043" d="M218,83.761c-.219.219-9.234,19-9.234,19L218.988,108l11.038-16.455S221.667,80.1,218,83.761Z" fill="url(#linear-gradient-22)"/>
      <path id="Trazado_198044" data-name="Trazado 198044" d="M225.505,92a1.827,1.827,0,0,1-.123,1.519l-5.1,9.013a1.671,1.671,0,0,1-.28.369c-.606.6-2.682,2.342-4.287-.031-1.368-2.022-2.651-3.86-4.026-4.618a1.586,1.586,0,0,0-2.2.768,66.848,66.848,0,0,0-3.488,8.777,1.752,1.752,0,0,0,.944,2.111,43.291,43.291,0,0,0,9.788,3.029,1.588,1.588,0,0,0,1.541-.695c1.561-2.269,5.962-8.61,7.464-10.2,1.4-1.475,3.97-.919,5.13-.565a1.557,1.557,0,0,0,1.3-.182,3.913,3.913,0,0,0,1.353-5.8,1.8,1.8,0,0,1,.5-2.351,3.939,3.939,0,0,0,1.382-5.427,4.989,4.989,0,0,0-5.505-2.86,1.677,1.677,0,0,1-1.776-1.047,1.093,1.093,0,0,0-.841-.7,1.674,1.674,0,0,1-1.28-1.971,4.526,4.526,0,0,0-2.332-5.075c-4.409-2.571-8.271,1.619-9.253,5.157s3.948,6.037,7.049,6.454C223.754,87.98,225,90.618,225.505,92Z" fill="url(#linear-gradient-23)"/>
      <path id="Trazado_198045" data-name="Trazado 198045" d="M223.828,105.35s1.961-6.085,4.47-5.862,4.485,2.876,1.375,5.857C225.8,109.054,223.828,105.35,223.828,105.35Z" fill="url(#linear-gradient-24)"/>
    </g>
  </g>
  <path id="Trazado_139920-2" data-name="Trazado 139920" d="M47.911,153.611c-2.5,1.625-4.962,3.385-7.362,5.266-1.2.938-2.383,1.917-3.552,2.916-.581.5-1.145.986-1.731,1.524s-1.175,1.074-1.743,1.624a90.334,90.334,0,0,0-12.132,14.237c-.866,1.266-1.7,2.542-2.491,3.839-.422.683-.722,1.209-1.073,1.788l-1.013,1.713c-.671,1.147-1.306,2.319-1.931,3.5s-1.21,2.38-1.81,3.576a95.14,95.14,0,0,0-5.759,14.966,80.282,80.282,0,0,0-2.922,15.5,73.953,73.953,0,0,0,8.68,41.85A94.372,94.372,0,0,0,28.551,287a113.651,113.651,0,0,0,9.519,8.813c1.691,1.39,3.434,2.741,5.272,4.07.924.664,1.865,1.327,2.867,1.993.5.335,1.013.668,1.57,1.013l.874.532.5.287.305.168.464.237c15.611,7.018,37.742-.463,49.423-16.708s8.495-35.1-7.118-42.124l.157.1c.036.026.012.022.012.022l-.013.008c-.01.011-.071,0-.108,0a3.115,3.115,0,0,1-.331-.064c-.245-.052-.529-.136-.811-.217-.574-.169-1.185-.368-1.8-.585-1.232-.443-2.492-.938-3.736-1.473a67.8,67.8,0,0,1-7.246-3.621,57.737,57.737,0,0,1-12.12-9.1,36.131,36.131,0,0,1-7.638-10.911,26.4,26.4,0,0,1-1.867-6.081,29.157,29.157,0,0,1-.435-6.667,37.282,37.282,0,0,1,1.087-7.377c.183-.647.336-1.3.53-1.957.216-.661.4-1.325.631-2l.683-1.95c.166-.513.367-1.028.565-1.54a29.291,29.291,0,0,1,3.292-5.945c.165-.24.342-.474.517-.71l.6-.752c.41-.5.83-1.005,1.279-1.5" fill="#fdb74d"/>
  <rect id="Rectángulo_44919" data-name="Rectángulo 44919" width="315" height="315" fill="none"/>
</svg>
