<svg id="Grupo_135637" data-name="Grupo 135637" xmlns="http://www.w3.org/2000/svg" xmlns:xlink="http://www.w3.org/1999/xlink" width="413.373" height="543" viewBox="0 0 413.373 543">
  <defs>
    <linearGradient id="linear-gradient" x1="0.746" y1="-0.046" x2="0.409" y2="0.502" gradientUnits="objectBoundingBox">
      <stop offset="0" stop-color="#ff9f55"/>
      <stop offset="1" stop-color="#ffd255"/>
    </linearGradient>
    <linearGradient id="linear-gradient-2" x1="0.5" y1="1.192" x2="0.5" y2="0.045" xlink:href="#linear-gradient"/>
    <linearGradient id="linear-gradient-3" x1="0.312" y1="-2.867" x2="0.521" y2="0.871" gradientUnits="objectBoundingBox">
      <stop offset="0" stop-color="#40d5e6"/>
      <stop offset="1" stop-color="#57f"/>
    </linearGradient>
  </defs>
  <path id="Trazado_188103" data-name="Trazado 188103" d="M359.582,447.981a169.356,169.356,0,0,1-23.341,30.927c-61.566,66.887-139.348,55.67-163.444,51.639-38.878-6.52-71.58-10.662-102.077-42.614-69.3-72.594-79.97-235.3-40.549-339.983C34.845,135.538,74.458,34.006,149.755,13.8c1.841-.493,3.221-.8,4.426-1.085,11.683-2.72,84.212-18,149.786,45.774,13.9,13.277,27.26,30.69,39.71,51.755C398.729,205.4,411.842,358.858,359.582,447.981Z" fill="#e5e1f1"/>
  <path id="Trazado_139920" data-name="Trazado 139920" d="M352.737,499.44a6.823,6.823,0,0,0,.674.364c3.248,1.523,6.448-.209,7.14-3.865a8.974,8.974,0,0,0-4.634-9.384,167.9,167.9,0,0,1-32.533-20.49A199.17,199.17,0,0,1,294.5,437.888l-1.654-1.96-1.6-2.013c-1.074-1.335-2.109-2.705-3.138-4.078q-3.108-4.1-5.962-8.4c-.967-1.418-1.865-2.887-2.8-4.322-.912-1.454-1.787-2.931-2.68-4.389-.839-1.5-1.716-2.959-2.516-4.481s-1.625-3.007-2.367-4.538-1.521-3.038-2.216-4.583c-.351-.77-.715-1.531-1.049-2.3l-.986-2.32c-.684-1.537-1.239-3.107-1.862-4.651-.568-1.557-1.134-3.111-1.656-4.667-.492-1.562-1.028-3.11-1.445-4.667-.214-.777-.451-1.55-.655-2.327l-.574-2.315c-.093-.389-.2-.768-.282-1.16l-.244-1.191-.483-2.372c-.263-1.592-.563-3.17-.781-4.757a155.643,155.643,0,0,1-.519-37.924c1.226-12.62,3.5-25.208,5.884-38.273,1.185-6.539,2.435-13.183,3.571-20.064.584-3.427,1.1-6.94,1.608-10.49.235-1.8.489-3.577.7-5.4l.622-5.328c1.567-13.643,3.013-27.78,3.662-42.646a301.335,301.335,0,0,0-1.385-47.245,213.243,213.243,0,0,0-4.551-25.94,184.688,184.688,0,0,0-8.8-27.194c-1.889-4.568-4.009-9.126-6.346-13.616-1.164-2.249-2.4-4.471-3.674-6.683-.642-1.1-1.26-2.168-1.96-3.288s-1.393-2.244-2.117-3.339a150.081,150.081,0,0,0-19.526-24.131c-1.8-1.8-3.628-3.554-5.5-5.232-.986-.9-1.752-1.548-2.59-2.3l-2.487-2.174c-1.665-1.444-3.383-2.837-5.114-4.216s-3.513-2.7-5.281-4.042a157.752,157.752,0,0,0-22.659-13.957,133.132,133.132,0,0,0-24.388-9.491,122.728,122.728,0,0,0-70.917,1.4,156.61,156.61,0,0,0-39.134,18.82A188.454,188.454,0,0,0,31.377,46.485c-2.783,2.334-5.518,4.766-8.247,7.36C21.765,55.15,20.4,56.483,19,57.915c-.7.717-1.4,1.449-2.13,2.251L15.74,61.431l-.62.725-.368.448-.527.684C-1.983,86.616,3.476,125,26.416,149.005s54.678,24.559,70.887,1.229l-.2.227c-.052.05-.039.013-.039.013l-.008-.025c-.017-.019.023-.114.036-.175q.09-.266.206-.52c.159-.383.382-.821.6-1.256.449-.886.96-1.822,1.5-2.755,1.1-1.875,2.289-3.78,3.54-5.646a112.5,112.5,0,0,1,8.117-10.717,95.773,95.773,0,0,1,18.53-17,59.926,59.926,0,0,1,20.128-9.134,43.8,43.8,0,0,1,10.49-1.192,48.3,48.3,0,0,1,11.008,1.323,61.877,61.877,0,0,1,11.7,4.021c1,.5,2.013.942,3.03,1.461,1.013.554,2.041,1.053,3.065,1.637l2.972,1.709c.786.428,1.566.913,2.34,1.391a48.585,48.585,0,0,1,8.7,7.183c.341.343.668.7,1,1.059l1.046,1.2c.7.822,1.387,1.661,2.053,2.542,1.342,1.754,2.645,3.624,3.9,5.629a112.617,112.617,0,0,1,12.375,29.711q1.211,4.311,2.19,8.822t1.795,9.187c1.085,6.222,1.959,12.629,2.664,19.154,1.417,13.058,2.148,26.549,2.709,40.413l.193,4.975c.065,1.6.09,3.231.137,4.861.05,3.272.082,6.566.057,9.916-.032,6.68-.193,13.512-.387,20.459-.364,13.9-.768,28.353.018,43.418A205.614,205.614,0,0,0,240,368.4c.538,1.933,1.169,3.859,1.762,5.776.664,1.921,1.279,3.8,1.992,5.733l1.054,2.878c.366.951.756,1.888,1.134,2.83.736,1.89,1.583,3.722,2.393,5.56a175.322,175.322,0,0,0,11.309,20.737,235.047,235.047,0,0,0,27.695,35.267A293.577,293.577,0,0,0,318.857,475.9,362.8,362.8,0,0,0,352.7,499.422Z" fill="#fdb74d"/>
  <g id="Grupo_135637-2" data-name="Grupo 135637">
    <circle id="Elipse_6055" data-name="Elipse 6055" cx="45.556" cy="45.556" r="45.556" transform="translate(143.041 23.256)" fill="#fdb74d" opacity="0.5"/>
    <g id="Elipse_4972" data-name="Elipse 4972">
      <circle id="Elipse_6056" data-name="Elipse 6056" cx="42.069" cy="42.069" r="42.069" transform="translate(146.528 26.743)" fill="none"/>
      <circle id="Elipse_6057" data-name="Elipse 6057" cx="39.825" cy="39.825" r="39.825" transform="translate(148.772 28.987)" fill="none" stroke="#fff" stroke-linecap="round" stroke-width="4.487" stroke-dasharray="3.366 8.975"/>
    </g>
  </g>
  <g id="Grupo_135822" data-name="Grupo 135822">
    <g id="Grupo_135638" data-name="Grupo 135638">
      <path id="Trazado_198046" data-name="Trazado 198046" d="M400,274.044,265.038,409.006l-11.062,11.062-23.617,23.616-54.767,54.767-169.1-169.1L47.63,288.227l50.345,50.346,48.387,48.387,29.23,29.23,29.23-29.23L382.937,208.836,400,193.87Z" fill="url(#linear-gradient)"/>
    </g>
    <g id="Grupo_135639" data-name="Grupo 135639">
      <path id="Trazado_198047" data-name="Trazado 198047" d="M257.329,376.856v39.681L246.267,427.6,222.65,451.216v-74.36Z" fill="#e3892b"/>
    </g>
    <g id="Grupo_135640" data-name="Grupo 135640">
      <path id="Trazado_198048" data-name="Trazado 198048" d="M397.421,224.047v52.576L253.976,420.068H113.206a15.233,15.233,0,0,1-15.231-15.231V224.047a15.226,15.226,0,0,1,15.231-15.23H382.19c.253,0,.495.01.747.019A15.227,15.227,0,0,1,397.421,224.047Z" fill="url(#linear-gradient-2)"/>
    </g>
    <g id="Grupo_135641" data-name="Grupo 135641">
      <path id="Trazado_198049" data-name="Trazado 198049" d="M385.7,186.334V288.343L287.084,386.96H109.7V186.334Z" fill="#fff"/>
    </g>
    <g id="Grupo_135642" data-name="Grupo 135642">
      <rect id="Rectángulo_44921" data-name="Rectángulo 44921" width="275.999" height="24.232" transform="translate(385.698 210.564) rotate(180)" fill="#5d96ff"/>
    </g>
    <path id="Rectángulo_44922" data-name="Rectángulo 44922" d="M3.292,0H36.073a3.292,3.292,0,0,1,3.292,3.292V5.865a3.292,3.292,0,0,1-3.292,3.292H3.291A3.291,3.291,0,0,1,0,5.865V3.292A3.292,3.292,0,0,1,3.292,0Z" transform="translate(121.226 193.87)" fill="#f5f7ff"/>
    <g id="Grupo_135645" data-name="Grupo 135645">
      <g id="Grupo_135644" data-name="Grupo 135644">
        <g id="Grupo_135643" data-name="Grupo 135643">
          <path id="Trazado_198050" data-name="Trazado 198050" d="M413.359,401.062a.032.032,0,0,1,.014,0C413.314,401.087,413.306,401.09,413.359,401.062Z" fill="#323657"/>
        </g>
      </g>
    </g>
    <g id="Grupo_135654" data-name="Grupo 135654">
      <g id="Grupo_135647" data-name="Grupo 135647">
        <g id="Grupo_135646" data-name="Grupo 135646">
          <path id="Trazado_198051" data-name="Trazado 198051" d="M44.369,96.215a23.475,23.475,0,1,0-20.08,42.439c.477.225.959.435,1.443.626A23.476,23.476,0,0,0,44.369,96.215Zm5.869,28.747a17.579,17.579,0,0,1-22.354,8.85c-.363-.143-.725-.3-1.083-.469a17.6,17.6,0,1,1,23.437-8.381Z" fill="#fedc72"/>
        </g>
      </g>
      <g id="Grupo_135649" data-name="Grupo 135649">
        <g id="Grupo_135648" data-name="Grupo 135648">
          <path id="Trazado_198052" data-name="Trazado 198052" d="M18.739,125.605l-5.2,2.728a23.51,23.51,0,0,1,3.7-27l4.277,4.029a17.632,17.632,0,0,0-2.774,20.242Z" fill="#2273b5"/>
        </g>
      </g>
      <g id="Grupo_135651" data-name="Grupo 135651">
        <g id="Grupo_135650" data-name="Grupo 135650">
          <path id="Trazado_198053" data-name="Trazado 198053" d="M27.884,133.812l-2.152,5.468c-.484-.191-.966-.4-1.443-.626a23.373,23.373,0,0,1-10.754-10.321l5.2-2.728a17.525,17.525,0,0,0,8.062,7.738C27.159,133.512,27.521,133.669,27.884,133.812Z" fill="#4dafff"/>
        </g>
      </g>
      <g id="Grupo_135653" data-name="Grupo 135653">
        <g id="Grupo_135652" data-name="Grupo 135652">
          <path id="Trazado_198054" data-name="Trazado 198054" d="M32.438,140.839a23.39,23.39,0,0,1-6.706-1.559l2.152-5.468a17.525,17.525,0,0,0,5.027,1.17Z" fill="#4dafff"/>
        </g>
      </g>
    </g>
    <g id="Grupo_135669" data-name="Grupo 135669">
      <g id="Grupo_135655" data-name="Grupo 135655">
        <rect id="Rectángulo_44923" data-name="Rectángulo 44923" width="4.579" height="30.368" transform="translate(6.883 168.3)" fill="#e0e0e0"/>
      </g>
      <g id="Grupo_135656" data-name="Grupo 135656">
        <rect id="Rectángulo_44924" data-name="Rectángulo 44924" width="4.579" height="24.198" transform="translate(18.254 174.47)" fill="#e0e0e0"/>
      </g>
      <g id="Grupo_135657" data-name="Grupo 135657">
        <rect id="Rectángulo_44925" data-name="Rectángulo 44925" width="4.579" height="28.738" transform="translate(29.625 169.93)" fill="#e0e0e0"/>
      </g>
      <g id="Grupo_135658" data-name="Grupo 135658">
        <rect id="Rectángulo_44926" data-name="Rectángulo 44926" width="4.579" height="19.774" transform="translate(40.996 178.895)" fill="#e0e0e0"/>
      </g>
      <g id="Grupo_135659" data-name="Grupo 135659">
        <rect id="Rectángulo_44927" data-name="Rectángulo 44927" width="4.579" height="27.807" transform="translate(52.367 170.861)" fill="#e0e0e0"/>
      </g>
      <g id="Grupo_135660" data-name="Grupo 135660">
        <rect id="Rectángulo_44928" data-name="Rectángulo 44928" width="4.579" height="31.998" transform="translate(63.738 166.67)" fill="#e0e0e0"/>
      </g>
      <g id="Grupo_135661" data-name="Grupo 135661">
        <rect id="Rectángulo_44929" data-name="Rectángulo 44929" width="4.579" height="33.745" transform="translate(75.109 164.923)" fill="#e0e0e0"/>
      </g>
      <g id="Grupo_135662" data-name="Grupo 135662">
        <rect id="Rectángulo_44930" data-name="Rectángulo 44930" width="4.579" height="19.052" transform="translate(6.883 179.616)" fill="#5d96ff"/>
      </g>
      <g id="Grupo_135663" data-name="Grupo 135663">
        <rect id="Rectángulo_44931" data-name="Rectángulo 44931" width="4.579" height="15.181" transform="translate(18.254 183.487)" fill="#5d96ff"/>
      </g>
      <g id="Grupo_135664" data-name="Grupo 135664">
        <rect id="Rectángulo_44932" data-name="Rectángulo 44932" width="4.579" height="18.03" transform="translate(29.625 180.638)" fill="#5d96ff"/>
      </g>
      <g id="Grupo_135665" data-name="Grupo 135665">
        <rect id="Rectángulo_44933" data-name="Rectángulo 44933" width="4.579" height="12.406" transform="translate(40.996 186.263)" fill="#5d96ff"/>
      </g>
      <g id="Grupo_135666" data-name="Grupo 135666">
        <rect id="Rectángulo_44934" data-name="Rectángulo 44934" width="4.579" height="17.445" transform="translate(52.367 181.223)" fill="#5d96ff"/>
      </g>
      <g id="Grupo_135667" data-name="Grupo 135667">
        <rect id="Rectángulo_44935" data-name="Rectángulo 44935" width="4.579" height="20.075" transform="translate(63.738 178.593)" fill="#5d96ff"/>
      </g>
      <g id="Grupo_135668" data-name="Grupo 135668">
        <rect id="Rectángulo_44936" data-name="Rectángulo 44936" width="4.579" height="21.171" transform="translate(75.109 177.497)" fill="#5d96ff"/>
      </g>
    </g>
    <rect id="Rectángulo_44937" data-name="Rectángulo 44937" width="26.468" height="3.823" transform="translate(75.109 135.352)" fill="#fff"/>
    <rect id="Rectángulo_44938" data-name="Rectángulo 44938" width="37.544" height="3.823" transform="translate(75.109 142.418)" fill="#fff"/>
    <g id="Grupo_135678" data-name="Grupo 135678">
      <g id="Grupo_135671" data-name="Grupo 135671">
        <g id="Grupo_135670" data-name="Grupo 135670">
          <path id="Trazado_198055" data-name="Trazado 198055" d="M94.153,93.512A17.793,17.793,0,1,0,60.645,105.5c.134.376.281.747.438,1.109a17.794,17.794,0,0,0,33.07-13.093ZM81.891,112.065a13.324,13.324,0,0,1-16.724-7.237c-.118-.272-.228-.55-.33-.832a13.341,13.341,0,1,1,17.054,8.069Z" fill="#fedc72"/>
        </g>
      </g>
      <g id="Grupo_135673" data-name="Grupo 135673">
        <g id="Grupo_135672" data-name="Grupo 135672">
          <path id="Trazado_198056" data-name="Trazado 198056" d="M64.664,95.528,60.413,94.2A17.819,17.819,0,0,1,76.867,81.713L77,86.165a13.361,13.361,0,0,0-12.336,9.363Z" fill="#1a598c"/>
        </g>
      </g>
      <g id="Grupo_135675" data-name="Grupo 135675">
        <g id="Grupo_135674" data-name="Grupo 135674">
          <path id="Trazado_198057" data-name="Trazado 198057" d="M65.167,104.828l-4.084,1.777c-.157-.362-.3-.733-.438-1.109a17.713,17.713,0,0,1-.232-11.3l4.251,1.328A13.288,13.288,0,0,0,64.837,104C64.939,104.278,65.049,104.556,65.167,104.828Z" fill="#2273b5"/>
        </g>
      </g>
      <g id="Grupo_135677" data-name="Grupo 135677">
        <g id="Grupo_135676" data-name="Grupo 135676">
          <path id="Trazado_198058" data-name="Trazado 198058" d="M63.841,111.034a17.681,17.681,0,0,1-2.758-4.429l4.084-1.777a13.25,13.25,0,0,0,2.067,3.321Z" fill="#4dafff"/>
        </g>
      </g>
    </g>
    <g id="Grupo_135698" data-name="Grupo 135698">
      <g id="Grupo_135679" data-name="Grupo 135679">
        <rect id="Rectángulo_44939" data-name="Rectángulo 44939" width="139.11" height="4.845" transform="translate(160.97 243.296)" fill="#e8e8e8"/>
        <rect id="Rectángulo_44940" data-name="Rectángulo 44940" width="139.11" height="4.845" transform="translate(160.97 259.085)" fill="#e8e8e8"/>
        <rect id="Rectángulo_44941" data-name="Rectángulo 44941" width="139.11" height="4.845" transform="translate(160.97 274.316)" fill="#e8e8e8"/>
        <rect id="Rectángulo_44942" data-name="Rectángulo 44942" width="139.11" height="4.845" transform="translate(160.97 290.105)" fill="#e8e8e8"/>
        <rect id="Rectángulo_44943" data-name="Rectángulo 44943" width="139.11" height="4.845" transform="translate(160.97 307.842)" fill="#e8e8e8"/>
        <rect id="Rectángulo_44944" data-name="Rectángulo 44944" width="139.11" height="4.845" transform="translate(160.97 323.631)" fill="#e8e8e8"/>
        <rect id="Rectángulo_44945" data-name="Rectángulo 44945" width="139.11" height="4.845" transform="translate(160.97 338.862)" fill="#e8e8e8"/>
        <rect id="Rectángulo_44946" data-name="Rectángulo 44946" width="139.11" height="4.845" transform="translate(160.97 354.651)" fill="#e8e8e8"/>
      </g>
      <rect id="Rectángulo_44947" data-name="Rectángulo 44947" width="19.74" height="19.74" rx="3.919" transform="translate(129.069 239.142)" fill="#4ca1f4"/>
      <g id="Grupo_135685" data-name="Grupo 135685">
        <rect id="Rectángulo_44948" data-name="Rectángulo 44948" width="19.74" height="19.74" rx="3.919" transform="translate(129.069 301.02)" fill="#4ca1f4"/>
        <g id="Grupo_135684" data-name="Grupo 135684">
          <g id="Grupo_135683" data-name="Grupo 135683">
            <g id="Grupo_135682" data-name="Grupo 135682">
              <g id="Grupo_135681" data-name="Grupo 135681">
                <g id="Grupo_135680" data-name="Grupo 135680">
                  <path id="Trazado_198059" data-name="Trazado 198059" d="M138.265,315.66l-5.478-4.759a1.078,1.078,0,0,1,1.414-1.627l3.873,3.366,5.506-6.162a1.078,1.078,0,0,1,1.607,1.436Z" fill="#fff"/>
                </g>
              </g>
            </g>
          </g>
        </g>
      </g>
      <g id="Grupo_135696" data-name="Grupo 135696">
        <rect id="Rectángulo_44949" data-name="Rectángulo 44949" width="19.74" height="19.74" rx="3.919" transform="translate(129.069 269.959)" fill="#4ca1f4"/>
        <g id="Grupo_135690" data-name="Grupo 135690">
          <g id="Grupo_135689" data-name="Grupo 135689">
            <g id="Grupo_135688" data-name="Grupo 135688">
              <g id="Grupo_135687" data-name="Grupo 135687">
                <g id="Grupo_135686" data-name="Grupo 135686">
                  <path id="Trazado_198060" data-name="Trazado 198060" d="M138.265,284.6l-5.478-4.76a1.077,1.077,0,0,1,1.414-1.626l3.873,3.365,5.506-6.161a1.077,1.077,0,1,1,1.607,1.435Z" fill="#fff"/>
                </g>
              </g>
            </g>
          </g>
        </g>
        <rect id="Rectángulo_44950" data-name="Rectángulo 44950" width="19.74" height="19.74" rx="3.919" transform="translate(129.069 332.08)" fill="#4ca1f4"/>
        <g id="Grupo_135695" data-name="Grupo 135695">
          <g id="Grupo_135694" data-name="Grupo 135694">
            <g id="Grupo_135693" data-name="Grupo 135693">
              <g id="Grupo_135692" data-name="Grupo 135692">
                <g id="Grupo_135691" data-name="Grupo 135691">
                  <path id="Trazado_198061" data-name="Trazado 198061" d="M138.265,346.721l-5.478-4.76a1.077,1.077,0,0,1,1.414-1.626l3.873,3.365,5.506-6.161a1.078,1.078,0,1,1,1.607,1.436Z" fill="#fff"/>
                </g>
              </g>
            </g>
          </g>
        </g>
      </g>
      <g id="Grupo_135697" data-name="Grupo 135697">
        <path id="Trazado_198062" data-name="Trazado 198062" d="M136.634,250.518a5.11,5.11,0,0,1,.051-.735,2.591,2.591,0,0,1,.192-.677,2.117,2.117,0,0,1,.409-.609,2.745,2.745,0,0,1,.7-.518l.576-.309a5.908,5.908,0,0,0,.7-.442,2.89,2.89,0,0,0,.592-.576,1.161,1.161,0,0,0,.251-.727,1.023,1.023,0,0,0-.4-.86,1.462,1.462,0,0,0-.918-.309,1.35,1.35,0,0,0-.593.125,2.237,2.237,0,0,0-.467.3,1.994,1.994,0,0,0-.36.393l-.267.384-1.72-1.2a3.326,3.326,0,0,1,1.378-1.586,4.042,4.042,0,0,1,2.129-.568,4.525,4.525,0,0,1,1.269.184,3.238,3.238,0,0,1,1.136.584,3.052,3.052,0,0,1,.818,1.036,3.412,3.412,0,0,1,.317,1.536,3.019,3.019,0,0,1-.392,1.6,3.537,3.537,0,0,1-1.161,1.127,7.3,7.3,0,0,1-.709.418,6.558,6.558,0,0,0-.66.383,1.9,1.9,0,0,0-.484.451.987.987,0,0,0-.184.6Zm.051,4.091v-2.5h2.187v2.5Z" fill="#fff"/>
      </g>
    </g>
    <g id="Grupo_135702" data-name="Grupo 135702">
      <path id="Trazado_198063" data-name="Trazado 198063" d="M208.171,235.173a22.583,22.583,0,0,0-3.458,4.051c-1.636,2.454-5.979,2.584-6.165,5.934s5.9,3.453,9.1,2.363,3.682-4.363,5.615-5.181,2.937-1.48,2.789-3.077a19.46,19.46,0,0,0-1.219-4.189,13.22,13.22,0,0,1-1.908.461A15.823,15.823,0,0,1,208.171,235.173Z" fill="#252840"/>
      <path id="Trazado_198064" data-name="Trazado 198064" d="M230.089,144.413s-1.225,7.288-2.213,12.1h0a28.772,28.772,0,0,1-.987,3.984,56.029,56.029,0,0,1-5.4,5.981c-4.94,5.085-11.467,11.489-11.467,11.489l-2.551-4.843s5.8-6.8,9.727-11.331c1.819-2.1,3.238-3.713,3.5-3.945.822-.735,1.775-7.978,3.116-13.945a24.029,24.029,0,0,1,4.027-9.266Z" fill="#ffbf55"/>
      <path id="Trazado_198065" data-name="Trazado 198065" d="M221.491,166.481c-4.94,5.085-11.467,11.489-11.467,11.489l-2.551-4.843s5.8-6.8,9.727-11.331A8.244,8.244,0,0,1,221.491,166.481Z" fill="#eea886"/>
      <g id="Grupo_135699" data-name="Grupo 135699">
        <path id="Trazado_198066" data-name="Trazado 198066" d="M253.172,233.177s1.677,1.856,2.669,2.98,4.793,3.135,4.813,6.475c.022,3.622-2.8,3.3-5.317,3.172a6.945,6.945,0,0,1-5.615-3.92c-1.058-2.05-3.874-2.589-4.073-4.243s1.3-4.631,1.3-4.631Z" fill="#252840"/>
      </g>
      <path id="Trazado_198067" data-name="Trazado 198067" d="M247.279,229.928l-.325,3.082s5.247,2.287,6.218.167l-.226-2.745Z" fill="#5f8cc9"/>
      <path id="Trazado_198068" data-name="Trazado 198068" d="M208.457,232.941l-.286,2.232a11.005,11.005,0,0,0,6.664-.1l.071-1.985Z" fill="#5f8cc9"/>
      <path id="Trazado_198069" data-name="Trazado 198069" d="M253.468,176.985c.183.649-33.584,0-33.584,0s9.341-6.8,9.946-8.615-2.379-12.714-2.768-16.259c-.311-2.838-1.091-15.532.779-17.471,1.955-2.027,8.994-4.151,8.994-4.151l10.263.381a16.128,16.128,0,0,1,2.9.916c1.211.562,8.135,3.029,9.26,6.488s-6.91,14.582-6.91,14.582-.015.5-.039,1.319h0c-.032,1.092-.077,2.752-.119,4.553-.054,2.332-.1,4.9-.1,6.776A67.006,67.006,0,0,0,253.468,176.985Z" fill="#ffbf55"/>
      <path id="Trazado_198070" data-name="Trazado 198070" d="M253.468,176.985s4.593,6.746,4.658,11.351-1.7,17.375-1.831,19.9-2.508,23.611-2.508,23.611-1.838,1.708-7.352-.433c0,0-1.216-19.992-1.346-22.132s-.13-12-1.362-13.427-8.692-5.9-9.665-6.745-17.923,3.2-19.7,3.663c-4.6,1.192-2.5,9.194-1.486,12.782,1.7,6,3.19,27.676,3.19,27.676s-3.276,1.4-8.762.216c0,0-10.774-39.136-11.12-43.028s-.516-10.309,26.035-15.187Z" fill="#323657"/>
      <path id="Trazado_198071" data-name="Trazado 198071" d="M239.651,108.19s-8.909-2.009-6.874,9.2,4.178,12.092,9.553,9.772,4.893-9.5,5.164-13.026S242.493,108.313,239.651,108.19Z" fill="#eea886"/>
      <path id="Trazado_198072" data-name="Trazado 198072" d="M237.294,133.367s3.946,4.183,10.181.381c0,0-1.394-9.065-.66-13.481s-8.136,6.842-8.136,6.842c.117.061.194.482.212,1.082a12.058,12.058,0,0,1-.094,1.8C238.614,131.455,238.158,133.006,237.294,133.367Z" fill="#eea886"/>
      <path id="Trazado_198073" data-name="Trazado 198073" d="M244.429,115.906a1.137,1.137,0,0,1,2.231.131c.157,1.483-.889,4.086-1.631,3.83S244.268,117.269,244.429,115.906Z" fill="#eea886"/>
      <path id="Trazado_198074" data-name="Trazado 198074" d="M247.06,119.892s-.23-3.532-1.52-3.642-1.489,1.312-1.489,1.312l-1.3.246s.412-3.1-.877-3.637-8.347,1.7-9.381.8-.548-7.19,1.323-8.049,7.035-2.786,10.82-.224c0,0,2.95-.336,3.387,2.044S247.862,118.122,247.06,119.892Z" fill="#3a3f47"/>
      <path id="Trazado_198075" data-name="Trazado 198075" d="M238.8,129.988c6.434-1.984,6.918-5.858,6.925-5.918-2.118,3.64-6.831,4.121-6.831,4.121A12.058,12.058,0,0,1,238.8,129.988Z" fill="#a77860"/>
      <path id="Trazado_198076" data-name="Trazado 198076" d="M250.109,131.835s-4.711,9.378-12.322,8.773-1.3-10.032-.952-10.119C237.215,130.393,244.641,128.543,250.109,131.835Z" fill="#eea886"/>
      <path id="Trazado_198077" data-name="Trazado 198077" d="M216.021,176.51s23.32,2.875,37.447.475l-26.995-3.372S226.314,174.3,216.021,176.51Z" fill="#ffbf55"/>
      <path id="Trazado_198078" data-name="Trazado 198078" d="M233.462,172.55l-1.737.88s.4,2.76,1.347,3.6l1.95-.5S234.616,173.5,233.462,172.55Z" fill="#eea886"/>
      <path id="Trazado_198079" data-name="Trazado 198079" d="M260.446,166.9c-.347.4-4.932,2.246-10.11,4.241h0c-7.075,2.726-15.056,5.3-15.056,5.3l-1.817-3.894s8.358-4.542,14.006-7.727c2.667-1.5,4.73-2.706,5.022-2.984.908-.865,1.143-2.251.475-4.67s-2.205-13.535-2.378-14.832.432-4.757,3.676-4.93a9.732,9.732,0,0,1,4.893.742s.815.339,1.42,8.209S261.268,165.948,260.446,166.9Z" fill="#ffbf55"/>
      <path id="Trazado_198080" data-name="Trazado 198080" d="M252.314,154.175h0c-.032,1.092-.077,2.752-.119,4.553a22.744,22.744,0,0,1-1.306-14.055C250.547,146.779,252.289,154.072,252.314,154.175Z" fill="#b08439"/>
      <path id="Trazado_198081" data-name="Trazado 198081" d="M227.876,156.515h0a28.772,28.772,0,0,1-.987,3.984c-1.081-5.233-.108-11.932-.108-11.932A67.411,67.411,0,0,0,227.876,156.515Z" fill="#b08439"/>
      <path id="Trazado_198082" data-name="Trazado 198082" d="M250.336,171.141h0c-7.075,2.726-15.313,5.388-15.313,5.388l-1.56-3.978s8.358-4.542,14.006-7.727C247.468,164.824,249.522,165.825,250.336,171.141Z" fill="#eea886"/>
      <path id="Trazado_198083" data-name="Trazado 198083" d="M232.959,176.759l-33.145-.488,16.735,8.5Z" fill="#5e5853"/>
      <path id="Trazado_198084" data-name="Trazado 198084" d="M216.549,184.769l16.41-6.356v-1.653l-17.707,6.388Z" fill="#91887f"/>
      <g id="Grupo_135700" data-name="Grupo 135700">
        <path id="Trazado_198085" data-name="Trazado 198085" d="M232.1,173.491s-2.071-.322-3.5-.656c-1.107-.258-3.861.1-4.562.808s-2.932,5.663-3.354,5.965.216,1,.957.65c0,0,.68,2.167,2.359,1.356s2.818-2.582,3.7-2.894,6-1.886,6-1.886S233.42,172.963,232.1,173.491Z" fill="#eea886"/>
      </g>
      <g id="Grupo_135701" data-name="Grupo 135701">
        <path id="Trazado_198086" data-name="Trazado 198086" d="M224.542,173.319a14.462,14.462,0,0,0-1.677.928c-.347.287-1.754,1.34-2.1,1.588s.514.953,3.03-.137S224.542,173.319,224.542,173.319Z" fill="#eea886"/>
      </g>
      <path id="Trazado_198087" data-name="Trazado 198087" d="M216.549,184.769l-9.859-26.918-31.783.519,9.4,24.805Z" fill="#6e6760"/>
      <path id="Trazado_198088" data-name="Trazado 198088" d="M196.521,169.759c.97,1.939.677,4.05-.654,4.716s-3.2-.366-4.167-2.305-.677-4.05.654-4.716S195.551,167.82,196.521,169.759Z" fill="#807066"/>
    </g>
    <g id="Grupo_135709" data-name="Grupo 135709">
      <g id="Grupo_135703" data-name="Grupo 135703">
        <path id="Rectángulo_44951" data-name="Rectángulo 44951" d="M.789,0h12.9a.788.788,0,0,1,.788.788V3.575a.789.789,0,0,1-.789.789H.789A.789.789,0,0,1,0,3.575V.789A.789.789,0,0,1,.789,0Z" transform="translate(324.787 286.257)" fill="#e0e0e0"/>
      </g>
      <g id="Grupo_135704" data-name="Grupo 135704">
        <rect id="Rectángulo_44952" data-name="Rectángulo 44952" width="14.479" height="4.364" rx="0.789" transform="translate(324.787 296.72)" fill="#e0e0e0"/>
      </g>
      <g id="Grupo_135705" data-name="Grupo 135705">
        <path id="Rectángulo_44953" data-name="Rectángulo 44953" d="M.789,0h12.9a.789.789,0,0,1,.789.789V3.575a.788.788,0,0,1-.788.788H.789A.789.789,0,0,1,0,3.575V.789A.789.789,0,0,1,.789,0Z" transform="translate(324.787 307.183)" fill="#e0e0e0"/>
      </g>
      <g id="Grupo_135706" data-name="Grupo 135706">
        <path id="Rectángulo_44954" data-name="Rectángulo 44954" d="M.789,0h12.9a.788.788,0,0,1,.788.788V3.575a.789.789,0,0,1-.789.789H.789A.789.789,0,0,1,0,3.575V.789A.789.789,0,0,1,.789,0Z" transform="translate(324.787 317.647)" fill="#e0e0e0"/>
      </g>
      <g id="Grupo_135707" data-name="Grupo 135707">
        <path id="Rectángulo_44955" data-name="Rectángulo 44955" d="M.789,0h12.9a.788.788,0,0,1,.788.788V3.575a.789.789,0,0,1-.789.789H.789A.789.789,0,0,1,0,3.575V.789A.789.789,0,0,1,.789,0Z" transform="translate(324.787 328.11)" fill="#e0e0e0"/>
      </g>
      <g id="Grupo_135708" data-name="Grupo 135708">
        <path id="Rectángulo_44956" data-name="Rectángulo 44956" d="M.789,0h12.9a.788.788,0,0,1,.788.788V3.575a.789.789,0,0,1-.789.789H.789A.789.789,0,0,1,0,3.575V.789A.789.789,0,0,1,.789,0Z" transform="translate(324.787 338.574)" fill="#e0e0e0"/>
      </g>
    </g>
    <g id="Grupo_135716" data-name="Grupo 135716">
      <g id="Grupo_135710" data-name="Grupo 135710">
        <rect id="Rectángulo_44957" data-name="Rectángulo 44957" width="4.12" height="4.364" rx="0.789" transform="translate(345.244 286.257)" fill="#e0e0e0"/>
      </g>
      <g id="Grupo_135711" data-name="Grupo 135711">
        <rect id="Rectángulo_44958" data-name="Rectángulo 44958" width="4.12" height="4.364" rx="0.789" transform="translate(345.244 296.72)" fill="#e0e0e0"/>
      </g>
      <g id="Grupo_135712" data-name="Grupo 135712">
        <rect id="Rectángulo_44959" data-name="Rectángulo 44959" width="4.12" height="4.364" rx="0.789" transform="translate(345.244 307.183)" fill="#e0e0e0"/>
      </g>
      <g id="Grupo_135713" data-name="Grupo 135713">
        <rect id="Rectángulo_44960" data-name="Rectángulo 44960" width="4.12" height="4.364" rx="0.789" transform="translate(345.244 317.647)" fill="#e0e0e0"/>
      </g>
      <g id="Grupo_135714" data-name="Grupo 135714">
        <rect id="Rectángulo_44961" data-name="Rectángulo 44961" width="4.12" height="4.364" rx="0.789" transform="translate(345.244 328.11)" fill="#e0e0e0"/>
      </g>
      <g id="Grupo_135715" data-name="Grupo 135715">
        <rect id="Rectángulo_44962" data-name="Rectángulo 44962" width="4.12" height="4.364" rx="0.789" transform="translate(345.244 338.574)" fill="#e0e0e0"/>
      </g>
    </g>
    <g id="Grupo_135717" data-name="Grupo 135717">
      <path id="Trazado_198089" data-name="Trazado 198089" d="M346.495,343.7s-6.188-14.02.991-12.859a26.174,26.174,0,0,1,4.952,6.136c1.9,3.118,5.85,11.368,5.7,14.16s-2.131,4.871-4.274,9.353c0,0-4.456,8.318-4.644,9.32l-4.71-2.445s3.992-7.953,6.8-14.946Z" fill="#6f5be0"/>
      <rect id="Rectángulo_44963" data-name="Rectángulo 44963" width="83.669" height="12.796" transform="translate(287.625 352.257) rotate(9.72)" fill="url(#linear-gradient-3)"/>
      <rect id="Rectángulo_44964" data-name="Rectángulo 44964" width="4.021" height="9.713" transform="translate(283.396 353.1) rotate(9.661)" fill="#2d3038"/>
      <path id="Trazado_198090" data-name="Trazado 198090" d="M310.675,462.469h-1.168s.39-4.41-.691-4.453-3.761,3.588-5.361,4.151-9.813,1.036-9.857-.476,3.156-2.119,4.15-2.551,5.837-5.144,6.7-5.706,2.34-4.47,2.34-4.47l4.586-.2s.259,3.653.537,5.586a17.234,17.234,0,0,1,.189,1.812C312.144,457.8,310.675,462.469,310.675,462.469Z" fill="#eea886"/>
      <path id="Trazado_198091" data-name="Trazado 198091" d="M340.215,461.6h-.973v-4.1c-.811.068-3.535,2.646-4.379,3.392s-2,.712-5.549.938-3.885-1.9-3.324-2.623,2.378-1.041,3.324-1.492,4.674-4.658,5.669-5.653,1.6-3.844,1.6-3.844l4.15.362a25.4,25.4,0,0,0,.446,4.793h0l0,.017c.041.186.085.369.133.547C341.933,456.2,340.215,461.6,340.215,461.6Z" fill="#eea886"/>
      <path id="Trazado_198092" data-name="Trazado 198092" d="M324.869,368.562a41.384,41.384,0,0,0-1.707,4.646c-.139.937-3.811,9.813-4.872,15.8-.636,3.582-2.391,14.8-2.534,16.221-.243,2.441-1.392,7.827-1.569,10.319-.1,1.393-6.961,22.78-8.622,33.945a20.584,20.584,0,0,0,6.911-.2,117.017,117.017,0,0,0,9.37-27.908,112.369,112.369,0,0,1,5.357-19.175c1.56-4.06,10.4-15.559,11.323-16.851s6.7-8.431,1.229-16.165S324.869,368.562,324.869,368.562Z" fill="#292c47"/>
      <path id="Trazado_198093" data-name="Trazado 198093" d="M344.63,401.415c-.5,3.33.026,7.7,1.072,19.879s-1.831,26.917-1.831,26.917a14.617,14.617,0,0,1-7.775,0c.1-.856,0-29.676,0-32.244s-.738-5.483-.927-8.43a60.133,60.133,0,0,0-2.116-9.493c-.316-1.133-.641-2.271-.958-3.374v0c-.178-.618-.352-1.225-.522-1.813-1.481-5.136-3.472-24.969-3.472-24.969s11.038-8.891,16.412-.52,2.615,14.456,2.426,15.5S345.131,398.087,344.63,401.415Z" fill="#292c47"/>
      <path id="Trazado_198094" data-name="Trazado 198094" d="M340.053,383.529c-.085.189-5.585,12.4-7,14.515-.316-1.133-.641-2.271-.958-3.374v0S339.869,383.8,340.053,383.529Z" fill="#191b2b"/>
      <path id="Trazado_198095" data-name="Trazado 198095" d="M340.215,461.6h-.973v-4.1c-.811.068-3.535,2.646-4.379,3.392s-2,.712-5.549.938-3.885-1.9-3.324-2.623,2.378-1.041,3.324-1.492c3.8.2,8.433-5.137,10.658-5.126,1.182.006,1.171.661,1.207.784h0l0,.017c.041.186.085.369.133.547C341.933,456.2,340.215,461.6,340.215,461.6Z" fill="#c6c9cc"/>
      <path id="Trazado_198096" data-name="Trazado 198096" d="M310.675,462.469h-1.168s.39-4.41-.691-4.453-3.761,3.588-5.361,4.151-9.813,1.036-9.857-.476,3.156-2.119,4.15-2.551c3.388-.007,8.9-3.736,10.606-4.492a6.17,6.17,0,0,1,3.558-.3,17.234,17.234,0,0,1,.189,1.812C312.144,457.8,310.675,462.469,310.675,462.469Z" fill="#c6c9cc"/>
      <path id="Trazado_198097" data-name="Trazado 198097" d="M334.614,322.005s1.762,4.66.392,8.262c0,0,6.458-.42,6.7-1.174s-.26-7.736.628-9.8S334.614,322.005,334.614,322.005Z" fill="#eea886"/>
      <path id="Trazado_198098" data-name="Trazado 198098" d="M333.991,328.691s-3.817,1.357-5.541,1.734-5.333,2.086-5.04,8.52a134.344,134.344,0,0,0,1.762,14.779,58.316,58.316,0,0,1-.49,13.22,48.377,48.377,0,0,0,19.913,0s-1.908-5.831-1.859-7.339,6.361-13.924,6.654-15.885,1.566-10.606-1.321-12.516-5.235-1.659-6.458-2.513S335.776,328.077,333.991,328.691Z" fill="#6f5be0"/>
      <path id="Trazado_198099" data-name="Trazado 198099" d="M348.716,377.055a53.494,53.494,0,0,1-28.07.016,38.693,38.693,0,0,0,2.573-6.91v0a41.58,41.58,0,0,0,.962-4.637h0a41.992,41.992,0,0,0-.386-15.037c1.8-14.85,24.273-19.281,26.073-14.574s-3.488,24.935-3.756,26.67S348.716,377.055,348.716,377.055Z" fill="#6f5be0"/>
      <path id="Trazado_198100" data-name="Trazado 198100" d="M340.243,303.309c-2.6-.891-9.614-1.839-11.411,8.933s2.118,10.957,6.14,10.651,10.315-7.578,10.8-9.788S347.652,305.85,340.243,303.309Z" fill="#eea886"/>
      <path id="Trazado_198101" data-name="Trazado 198101" d="M330.278,307.446s2.143,4.586,4.955,6.184c0,0,1.762,4.873,5.577,6.844,0,0,10.123-6.706,4.249-14.675S330.941,304.176,330.278,307.446Z" fill="#0f324f"/>
      <path id="Trazado_198102" data-name="Trazado 198102" d="M334.985,312.04a1.322,1.322,0,0,1,2.425.066c.681,1.537-1.763,4.246-2.432,4.1S334.121,314.167,334.985,312.04Z" fill="#eea886"/>
      <path id="Trazado_198103" data-name="Trazado 198103" d="M344.716,307.031c.221-.346,6.925-3.449,8.319,3.036s-5.4,14.024-6.589,17.266.538,10.842.538,10.842-4.088-3.864-5.324-7.908C340.3,325.825,339.846,314.626,344.716,307.031Z" fill="#0f324f"/>
      <path id="Trazado_198104" data-name="Trazado 198104" d="M345.054,306.809a6.767,6.767,0,0,0-2.317,4.185,5.028,5.028,0,0,1,.443-3.219A1.85,1.85,0,0,1,345.054,306.809Z" fill="#e54242"/>
      <path id="Trazado_198105" data-name="Trazado 198105" d="M323.22,370.159c.427-1.591.983-5.074,1.2-6.566h0a3.779,3.779,0,0,0,1.135-1.31c.335-1.051,2.935-13.92,2.935-13.92S331.233,360.453,323.22,370.159Z" fill="#1d3b54"/>
      <path id="Trazado_198106" data-name="Trazado 198106" d="M311.973,367.033s-2.795,1.3-3.447,1.5-1.908-.908-6.537-1.252c-.406-.03-1.121.336-.952.873a7.224,7.224,0,0,0,3.045,2.22c.862.223,4.929,1.839,6.912,1.046a8.13,8.13,0,0,0,3.331-3.316Z" fill="#eea886"/>
      <path id="Trazado_198107" data-name="Trazado 198107" d="M327.37,330.777s-5.352,2.122-5.669,9.562-.608,11.323-.9,12.471-.845,5.764-2.192,8.541c-1.307,2.694-9.916,6.953-9.916,6.953l2.618,3.331s13.521-7.158,14.248-9.352,3.715-17.46,3.954-20.034C329.706,340.175,332.442,330.932,327.37,330.777Z" fill="#6f5be0"/>
      <path id="Trazado_198108" data-name="Trazado 198108" d="M276.858,349.992c-.007.2-.021.4-.034.6h7.66c.014-.2.021-.4.028-.6Zm-85.44-2.116c0,.233,0,.46.007.694.013.968.055,1.93.137,2.885a45.467,45.467,0,0,0,1.3,7.956A46.345,46.345,0,0,0,205.1,380.833c.226.234.453.454.68.673.914.88,1.869,1.725,2.858,2.522a46.338,46.338,0,0,0,29.357,10.422c.186,0,.371,0,.557-.007a46.31,46.31,0,0,0,23.146-6.471,46.732,46.732,0,0,0,20.446-25.235c.365-1.093.694-2.2.983-3.326a46.988,46.988,0,0,0,1.134-6.163v-.006c.048-.447.1-.894.13-1.347.041-.433.076-.866.1-1.3.014-.2.021-.4.028-.6.02-.44.034-.873.041-1.312.007-.268.007-.536.007-.8a46.575,46.575,0,0,0-39.491-46.032c-.433-.069-.866-.13-1.306-.185-.48-.055-.961-.11-1.443-.152-.432-.041-.872-.075-1.305-.1-1-.068-2.013-.1-3.023-.1-.859,0-1.711.021-2.556.069-1.449.075-2.878.227-4.294.433A46.685,46.685,0,0,0,195.2,329.477c-.068.151-.13.309-.192.46s-.124.3-.179.44c-.357.859-.68,1.731-.975,2.611a45.691,45.691,0,0,0-1.773,7.069c-.117.639-.206,1.285-.295,1.938-.007.11-.021.22-.034.337-.007.006-.007.013-.007.027a1.311,1.311,0,0,0-.014.165,1.408,1.408,0,0,0-.027.192v.048a.4.4,0,0,0-.014.1,1.016,1.016,0,0,0-.014.145c-.014.117-.028.233-.034.35-.069.715-.124,1.436-.158,2.157-.007.1-.014.2-.014.3l-.021.474C191.425,346.811,191.418,347.34,191.418,347.876Zm10.436,14.489-.179-.453c-.13-.337-.254-.673-.378-1.017l-.281-.824c-.069-.206-.138-.412-.2-.619-.007-.013-.007-.027-.013-.041a.712.712,0,0,1-.035-.117c-.11-.343-.206-.694-.3-1.044l-.11-.4c-.1-.371-.192-.749-.282-1.127-.007-.034-.02-.075-.027-.117-.076-.35-.151-.7-.22-1.051-.034-.144-.062-.289-.089-.433-.083-.439-.158-.886-.227-1.333-.124-.783-.213-1.573-.289-2.37-.027-.268-.048-.543-.068-.818,0,0,.007,0,0-.006,0-.09-.007-.172-.014-.261-.021-.372-.041-.742-.055-1.113v-.11c-.007-.083-.007-.172-.007-.262-.007-.322-.014-.645-.014-.968,0-.3,0-.605.014-.9a33.941,33.941,0,0,1,.248-3.573,3.137,3.137,0,0,1,.041-.371.026.026,0,0,1,.007-.021c-.007-.006,0-.006,0-.006a.013.013,0,0,1,0-.021.259.259,0,0,1,.007-.076v-.013c0-.014,0-.021.006-.028a38.656,38.656,0,0,1,5.778-15.919,39.078,39.078,0,0,1,14.126-13.211,37.868,37.868,0,0,1,4.727-2.2c.515-.2,1.044-.391,1.573-.563a38.119,38.119,0,0,1,9.282-1.89c1.031-.089,2.068-.13,3.119-.13.316,0,.625,0,.942.014.364.007.721.02,1.085.034.261.014.522.034.783.055a2.026,2.026,0,0,1,.213.014c.433.027.873.068,1.305.117l.33.041c.172.02.351.041.522.068.2.021.392.048.591.083.44.062.873.137,1.306.213l.117.02q.5.093,1.009.207c.021.007.042.007.062.013.138.028.282.062.419.1.317.068.626.144.935.226a4.058,4.058,0,0,1,.405.1c.357.1.715.193,1.072.3s.68.206,1.017.316c.158.048.316.1.467.158.673.226,1.34.474,1.992.742.179.068.358.144.536.219.275.117.543.234.818.358.22.1.44.192.653.3.323.144.638.3.954.46q.537.268,1.052.557c.4.213.783.433,1.168.659.8.468,1.566.962,2.322,1.484.323.22.639.447.955.687.4.282.783.578,1.161.88.337.268.673.543,1,.824s.673.578,1,.88a38.818,38.818,0,0,1,12.724,28.787c0,.268,0,.536-.007.8-.007.439-.02.872-.048,1.312-.007.2-.021.4-.034.6-.034.439-.069.872-.117,1.3q-.186,1.855-.55,3.655a37.938,37.938,0,0,1-.982,3.861c-.309,1-.66,1.993-1.051,2.954A38.916,38.916,0,0,1,238.549,386.8c-.186.006-.371.006-.557.006a38.919,38.919,0,0,1-34.386-20.666c-.172-.33-.344-.659-.509-.989l-.3-.632c-.124-.247-.234-.495-.35-.749l-.11-.247c-.1-.22-.193-.44-.282-.667Z" fill="#3f444f"/>
      <circle id="Elipse_6058" data-name="Elipse 6058" cx="38.787" cy="38.787" r="38.787" transform="translate(185.676 364.369) rotate(-62.496)" fill="#b8b8b8" opacity="0.1"/>
      <path id="Trazado_198109" data-name="Trazado 198109" d="M264.186,319.086s-50.514-6.261-60.58,47.052h0a38.929,38.929,0,0,1,60.58-47.051Z" fill="#869ac2" opacity="0.3"/>
    </g>
    <g id="Grupo_135740" data-name="Grupo 135740">
      <g id="Grupo_135718" data-name="Grupo 135718">
        <path id="Trazado_198110" data-name="Trazado 198110" d="M95.648,391.567l16.879,9.278,16.95-26.674-20.5-7.121Z" fill="#292c47"/>
      </g>
      <g id="Grupo_135719" data-name="Grupo 135719">
        <path id="Trazado_198111" data-name="Trazado 198111" d="M96.718,390.766l15.785,8.676L128.354,374.5l-19.172-6.659Z" fill="#e2d2ca"/>
      </g>
      <g id="Grupo_135720" data-name="Grupo 135720">
        <path id="Trazado_198112" data-name="Trazado 198112" d="M90.938,386.1s2.938-1.4,4.227-2.139,4.607-1.743,4.874-1.982,9.833-.83,10.413-1.33,1.145,1.173-1.334,1.716-5.929,1.871-6.118,2.839,2.546,1.2,2.823,2-.077.619-.469.79-3.254-1.413-4.511-.964-3.182-.172-4.146.158-5.653,1.907-5.653,1.907Z" fill="#eea886"/>
      </g>
      <g id="Grupo_135721" data-name="Grupo 135721">
        <path id="Trazado_198113" data-name="Trazado 198113" d="M113.349,397.5s2.468-2.221,3.663-3.15,3.435-3.663,3.765-3.822,4.611-8.943,5.308-9.3-.66-1.535-2.137.59-4.071,4.859-5.058,4.659-.137-2.866-.782-3.438-.614-.167-.927.135.065,3.616-.849,4.626-1.076,3.066-1.762,3.846-4,4.584-4,4.584Z" fill="#eea886"/>
      </g>
      <g id="Grupo_135722" data-name="Grupo 135722">
        <path id="Trazado_198114" data-name="Trazado 198114" d="M60.2,516.224s-.534,3.706-.6,4.262-5.938-.328-5.938-.328l-.476-4.411S59.464,515.7,60.2,516.224Z" fill="#424773"/>
      </g>
      <g id="Grupo_135723" data-name="Grupo 135723">
        <path id="Trazado_198115" data-name="Trazado 198115" d="M59.66,520.015a15.837,15.837,0,0,0,3.66,3.206c1.8.973,4.627,1.359,5.691,2.366.768.728,2.8,3.858-4.676,3.8s-11.077.443-11.877-.758,1.158-8.86,1.158-8.86S55.386,520.4,59.66,520.015Z" fill="#292c47"/>
      </g>
      <g id="Grupo_135724" data-name="Grupo 135724">
        <path id="Trazado_198116" data-name="Trazado 198116" d="M102.273,516.224s-.534,3.706-.6,4.262-5.939-.328-5.939-.328l-.475-4.411S101.539,515.7,102.273,516.224Z" fill="#424773"/>
      </g>
      <g id="Grupo_135725" data-name="Grupo 135725">
        <path id="Trazado_198117" data-name="Trazado 198117" d="M101.735,520.015a15.837,15.837,0,0,0,3.66,3.206c1.8.973,8.421,1.773,9.485,2.78.768.728,2.046,3.655-8.47,3.381-7.471-.194-11.077.443-11.878-.758s1.159-8.86,1.159-8.86S97.358,520.444,101.735,520.015Z" fill="#292c47"/>
      </g>
      <g id="Grupo_135726" data-name="Grupo 135726">
        <path id="Trazado_198118" data-name="Trazado 198118" d="M65.061,421.006s-5.518,8.767-5.106,16.691-2,16.576-2.83,24.853c-.924,9.229-4.705,31.076-4.842,36.012s.587,20.7.587,20.7l7.569.173s6.358-38.194,8-42.091,9.812-31.681,10.087-34.8S65.061,421.006,65.061,421.006Z" fill="#292c47"/>
      </g>
      <g id="Grupo_135727" data-name="Grupo 135727">
        <path id="Trazado_198119" data-name="Trazado 198119" d="M94.106,422.194s4.158,21.719,4.707,26.569.915,23.471,1.189,26.5,1.83,39.666,3.294,44.17H93.618S86.19,492.8,86.19,480.2s-5.739-27.394-9.444-35.708-12.185-8.511-14.462-23.936C62.284,420.558,91.023,417.3,94.106,422.194Z" fill="#292c47"/>
      </g>
      <g id="Grupo_135728" data-name="Grupo 135728">
        <path id="Trazado_198120" data-name="Trazado 198120" d="M74.268,347.3s7.406-2.766,10.821,2.872,3.085,16.923-.648,18.311-9.34.662-11.252-2.865-3.636-8.628-3.553-12.036S72.323,348.288,74.268,347.3Z" fill="#eea886"/>
      </g>
      <g id="Grupo_135729" data-name="Grupo 135729">
        <path id="Trazado_198121" data-name="Trazado 198121" d="M83.637,368.745a6.4,6.4,0,0,0,.2,2.985c.509.985-9.595,1.01-9.595,1.01a66.559,66.559,0,0,0-2.375-9.884C70.314,358.329,83.637,368.745,83.637,368.745Z" fill="#eea886"/>
      </g>
      <g id="Grupo_135730" data-name="Grupo 135730">
        <path id="Trazado_198122" data-name="Trazado 198122" d="M71.869,362.856s.7,1.151,3.543.7,6.32-4.234,7.509-4.649,1.2-1.114,1.2-1.114l.744,1.087,1.262.08s-1.152-3.388.586-4.77-1.8-10.966-10.933-7.775c0,0-7.012,1.933-6.757,5.921S70.3,360.87,71.869,362.856Z" fill="#3a3f47"/>
      </g>
      <g id="Grupo_135731" data-name="Grupo 135731">
        <path id="Trazado_198123" data-name="Trazado 198123" d="M84.438,371.611s-.032-1.882-.885-2.062-9.415-1-10.463-.592v2.192S75.108,372.391,84.438,371.611Z" fill="#e2d2ca"/>
      </g>
      <g id="Grupo_135732" data-name="Grupo 135732">
        <path id="Trazado_198124" data-name="Trazado 198124" d="M83.932,356.346c-.16-.669-1.861-2.58-2.512-.533s.984,4.8,1.9,4.563S84.337,358.042,83.932,356.346Z" fill="#eea886"/>
      </g>
      <g id="Grupo_135733" data-name="Grupo 135733">
        <path id="Trazado_198125" data-name="Trazado 198125" d="M118.423,393.847a.037.037,0,0,0-.015,0C118.467,393.872,118.475,393.874,118.423,393.847Z" fill="#323657"/>
      </g>
      <g id="Grupo_135734" data-name="Grupo 135734">
        <path id="Trazado_198126" data-name="Trazado 198126" d="M58.836,441.89a78.231,78.231,0,0,0,12.287,2.191c7.745.854,27.1-.308,27.218-1.223s-4.162-34.071-3.919-35.779.375-7.792.375-7.792a42.89,42.89,0,0,0,3.844,12.189c.741,1.341,3.226,5.544,4.423,4.588,5.8-4.628,14.775-22.071,15.344-22.218-.479-.208-4.255-1.947-4.785-2.123-.463-.155-4.646,4.273-7.18,7.018-1.13,1.224-1.932,2.113-1.932,2.113-.732-1.647-3.4-12.018-4.225-15.608-1.869-8.1-1.581-8.433-1.581-8.433-5.666-1.714-14.267-5.2-14.267-5.2l-11.348-.462s-10.415,2.292-14.517,4.145c-.389.175-.391,9.291-1.458,11.682l3.4,7.174s1.965,14.212,2.373,20.532C63.075,417.584,58.836,441.89,58.836,441.89Z" fill="#323657"/>
      </g>
      <g id="Grupo_135735" data-name="Grupo 135735">
        <path id="Trazado_198127" data-name="Trazado 198127" d="M56.644,398.811c.3.956,1.641,1.764,2.515,2.118a3.265,3.265,0,0,0,1.817.183l.445-.083h0l7.776-1.442s1.7-19.6-10.624-24.293C58.247,375.4,53.922,390.036,56.644,398.811Z" fill="#323657"/>
      </g>
      <g id="Grupo_135736" data-name="Grupo 135736">
        <path id="Trazado_198128" data-name="Trazado 198128" d="M59.159,400.928h0a3.265,3.265,0,0,0,1.817.183l.445-.083h0l-.767-10.015Z" fill="#252840"/>
      </g>
      <g id="Grupo_135737" data-name="Grupo 135737">
        <path id="Trazado_198129" data-name="Trazado 198129" d="M104.511,400.854l.95,4.025a31.791,31.791,0,0,0,.982-6.138C105.313,399.965,104.511,400.854,104.511,400.854Z" fill="#252840"/>
      </g>
      <g id="Grupo_135738" data-name="Grupo 135738">
        <path id="Trazado_198130" data-name="Trazado 198130" d="M72.159,347.969s-9.707-1.119-.166,15.093Z" fill="#3a3f47"/>
      </g>
      <g id="Grupo_135739" data-name="Grupo 135739">
        <path id="Trazado_198131" data-name="Trazado 198131" d="M121.674,372.74l.986-1.695-7.771-2.681-.986,1.686Z" fill="#292c47"/>
      </g>
    </g>
    <g id="Grupo_135790" data-name="Grupo 135790">
      <g id="Grupo_135749" data-name="Grupo 135749">
        <g id="Grupo_135744" data-name="Grupo 135744">
          <g id="Grupo_135743" data-name="Grupo 135743">
            <g id="Grupo_135742" data-name="Grupo 135742">
              <g id="Grupo_135741" data-name="Grupo 135741">
                <path id="Trazado_198132" data-name="Trazado 198132" d="M220.041,388.088s1.539-1.427,1.233-2.5a4.589,4.589,0,0,1,.229-2.348c.132-.561.184-2.376.6-2.276.707.17.543,3.069.63,3.687s1.957-1.451,2.6-1.559,3.889,3.183,2.441,4.453-3.445,1.787-3.655,2.061a11.3,11.3,0,0,1-1.2,1.027Z" fill="#eea987"/>
              </g>
            </g>
          </g>
        </g>
        <g id="Grupo_135748" data-name="Grupo 135748">
          <g id="Grupo_135747" data-name="Grupo 135747">
            <g id="Grupo_135746" data-name="Grupo 135746">
              <g id="Grupo_135745" data-name="Grupo 135745">
                <path id="Trazado_198133" data-name="Trazado 198133" d="M224.924,383.313s4.691-3.6,5.2-3.574.693.288.268.642-4.431,3.6-4.431,3.6,6.267-3.322,6.691-3.4c.249-.043.436.431.227.642s-6.043,3.878-6.043,3.878,5.858-3.091,6.231-3.047a.456.456,0,0,1,.142.838c-.419.259-5.693,3.436-5.693,3.436s4.4-1.982,4.7-1.759c.179.137.433.438-.72.913a41.138,41.138,0,0,0-3.66,1.995Z" fill="#eea987"/>
              </g>
            </g>
          </g>
        </g>
      </g>
      <g id="Grupo_135750" data-name="Grupo 135750">
        <path id="Trazado_198134" data-name="Trazado 198134" d="M187.456,344.72s11.221-.933,10.914,10.871-2.178,13.58.006,21.921-10.94-4.736-10.94-4.736Z" fill="#e8734d"/>
      </g>
      <g id="Grupo_135752" data-name="Grupo 135752">
        <g id="Grupo_135751" data-name="Grupo 135751">
          <path id="Trazado_198135" data-name="Trazado 198135" d="M153.274,521.386s-4.167,5.853-3.6,6.781,4.953,1.06,7.62,0,2.731-7.92,3.937-10.868c.505-1.234-.576-4.876-2.095-5.14a6.163,6.163,0,0,0-3.173.512S157.544,516.822,153.274,521.386Z" fill="#363a5e"/>
        </g>
      </g>
      <g id="Grupo_135755" data-name="Grupo 135755">
        <g id="Grupo_135754" data-name="Grupo 135754">
          <g id="Grupo_135753" data-name="Grupo 135753">
            <path id="Trazado_198136" data-name="Trazado 198136" d="M155.939,512.623a28.613,28.613,0,0,0-1.2,4.873c-.266,1.974-2.969,6.165-2.842,6.7s3.556,1.01,4.954-.356,2.295-5.342,2.6-7.719a19.889,19.889,0,0,1,.648-3.308S157.273,511.165,155.939,512.623Z" fill="#eea886"/>
          </g>
        </g>
      </g>
      <g id="Grupo_135757" data-name="Grupo 135757">
        <g id="Grupo_135756" data-name="Grupo 135756">
          <path id="Trazado_198137" data-name="Trazado 198137" d="M189.541,521.483s-4.017,5.756-3.445,6.684,4.953,1.06,7.62,0,2.731-7.92,3.938-10.868c.5-1.234-.576-4.876-2.1-5.14a6.569,6.569,0,0,0-3.3.568S193.811,516.92,189.541,521.483Z" fill="#363a5e"/>
        </g>
      </g>
      <g id="Grupo_135760" data-name="Grupo 135760">
        <g id="Grupo_135759" data-name="Grupo 135759">
          <g id="Grupo_135758" data-name="Grupo 135758">
            <path id="Trazado_198138" data-name="Trazado 198138" d="M192.256,512.727a40.873,40.873,0,0,1-.826,4.639c-.508,1.921-3.239,6.295-3.112,6.825s3.557,1.01,4.954-.356,2.476-5.324,2.6-7.719a13.282,13.282,0,0,0-.317-3.957A3,3,0,0,0,192.256,512.727Z" fill="#eea886"/>
          </g>
        </g>
      </g>
      <g id="Grupo_135763" data-name="Grupo 135763">
        <g id="Grupo_135762" data-name="Grupo 135762">
          <g id="Grupo_135761" data-name="Grupo 135761">
            <path id="Trazado_198139" data-name="Trazado 198139" d="M172.185,417.432s-3.575,17.357-4.4,21.727-3.121,25.535-3.367,29.134-3.731,17.159-3.567,18.444S155.2,513.5,155.2,513.5s4.126.445,5.771-.243c1.124-.471,10.157-23.448,10.157-29.874,0-8.884,4.96-20.481,5.68-22.5,7.078-19.9,8.377-24.625,9.362-25.824,0,0,.149,1.623.486,4.32.386,3.1,2.076,25.252,2.815,28.165s.165,12.767.575,17.737,1.173,27.64,1.173,27.64,3.706.161,5.339-.812c.548-.326,2.438-24.36,2.52-30.272s.17-14.067.329-16.624c1.521-24.5,5.26-28-.629-45.34C187.748,387.4,172.185,417.432,172.185,417.432Z" fill="#313657"/>
          </g>
        </g>
      </g>
      <g id="Grupo_135765" data-name="Grupo 135765">
        <g id="Grupo_135764" data-name="Grupo 135764">
          <path id="Trazado_198140" data-name="Trazado 198140" d="M161.348,516.784v6.128h-.762v-4.737Z" fill="#363a5e"/>
        </g>
      </g>
      <g id="Grupo_135767" data-name="Grupo 135767">
        <g id="Grupo_135766" data-name="Grupo 135766">
          <path id="Trazado_198141" data-name="Trazado 198141" d="M197.765,516.784v6.128H197v-4.737Z" fill="#363a5e"/>
        </g>
      </g>
      <g id="Grupo_135768" data-name="Grupo 135768">
        <path id="Trazado_198142" data-name="Trazado 198142" d="M182.786,376.129a46.752,46.752,0,0,0,1.72-4.921c.034-.123.067-.247.1-.373.088-.339.168-.681.241-1.022.041-.194.079-.386.114-.578a8.106,8.106,0,0,0,0-3.783c-1.088-3.214,6.823-.989,6.823-.989s-1.534,8.5,0,11.369S182.786,376.129,182.786,376.129Z" fill="#eea886"/>
      </g>
      <g id="Grupo_135769" data-name="Grupo 135769">
        <path id="Trazado_198143" data-name="Trazado 198143" d="M196.2,375.989c.882-1.1-5.313-1.488-5.313-1.488l-7.228-.623a64.507,64.507,0,0,0-8.825,2.162c-3.856,1.335-8.907,8.64-8.907,8.64s6.969,16.363,8.3,21.059-1.514,16.645-1.514,16.645c8.354,4.548,24.854.485,24.854.485S191,382.506,196.2,375.989Z" fill="#eddad3"/>
      </g>
      <g id="Grupo_135770" data-name="Grupo 135770">
        <path id="Trazado_198144" data-name="Trazado 198144" d="M199.149,395.711s-.325.686-1.216,3.386a54.03,54.03,0,0,1-.433-11.533A28.51,28.51,0,0,0,199.149,395.711Z" fill="#cfbeb8"/>
      </g>
      <g id="Grupo_135771" data-name="Grupo 135771">
        <path id="Trazado_198145" data-name="Trazado 198145" d="M191.291,374.249l-8.506,6.933.876-7.3S188.621,372.807,191.291,374.249Z" fill="#eea886"/>
      </g>
      <g id="Grupo_135772" data-name="Grupo 135772">
        <path id="Trazado_198146" data-name="Trazado 198146" d="M196.9,403.465c-1.17,4.851,4.748,20.036,4.748,20.036l-9.988,3.381a2.129,2.129,0,0,1-2.781-1.643c-1.126-6.316-4.046-23.252-4.377-30.762-.41-9.329,6.382-20.334,6.382-20.334,12.072,2.071,8.762,20.334,8.762,20.334s-.438,1.151-1.023,2.949h0c-.148.451-.3.944-.466,1.47C197.747,400.247,197.3,401.814,196.9,403.465Z" fill="#494f80"/>
      </g>
      <g id="Grupo_135773" data-name="Grupo 135773">
        <path id="Trazado_198147" data-name="Trazado 198147" d="M182.806,374.277l.149-.4s-6.182.94-9.324,2.509-9.158,9.677-9.158,9.677l7.868,10.387c.009,7.982-2.776,26.71-2.776,26.71l5.467,2.236a1.306,1.306,0,0,0,1.8-1.188c.089-5.7.353-22.584.488-29.172.163-7.984,5.86-20.894,5.86-20.894C183.054,374.186,182.93,374.231,182.806,374.277Z" fill="#494f80"/>
      </g>
      <g id="Grupo_135774" data-name="Grupo 135774">
        <path id="Trazado_198148" data-name="Trazado 198148" d="M171.6,411.7a67.458,67.458,0,0,0,6.855,0c.922-.231,7.078-2.9,7.448-5.537s-14.3,2.364-14.3,2.364Z" fill="#eea886"/>
      </g>
      <g id="Grupo_135775" data-name="Grupo 135775">
        <path id="Trazado_198149" data-name="Trazado 198149" d="M190,403.465l-24.074-2.818L176.8,409.5Z" fill="#707070"/>
      </g>
      <g id="Grupo_135776" data-name="Grupo 135776">
        <path id="Trazado_198150" data-name="Trazado 198150" d="M176.8,409.5,190,405v-1.532l-13.643,4.377Z" fill="#a1a1a1"/>
      </g>
      <g id="Grupo_135777" data-name="Grupo 135777">
        <path id="Trazado_198151" data-name="Trazado 198151" d="M184.106,372.53l-4.573,7.257-2.212,1.395,5.155-7.226Z" fill="#fae6de"/>
      </g>
      <g id="Grupo_135778" data-name="Grupo 135778">
        <path id="Trazado_198152" data-name="Trazado 198152" d="M179.533,379.787l3.252,1.395.876-7.3.445-1.348Z" fill="#d6c5be"/>
      </g>
      <g id="Grupo_135779" data-name="Grupo 135779">
        <path id="Trazado_198153" data-name="Trazado 198153" d="M172.322,408.309a18.288,18.288,0,0,0,0,3.708s-14.846-1.483-16.23-3.559a8.944,8.944,0,0,1-1.335-4.6Z" fill="#494f80"/>
      </g>
      <g id="Grupo_135780" data-name="Grupo 135780">
        <path id="Trazado_198154" data-name="Trazado 198154" d="M176.8,409.5l-7.019-26.1-26.694-2.818,7.316,24.024Z" fill="#a1a1a1"/>
      </g>
      <g id="Grupo_135781" data-name="Grupo 135781">
        <path id="Trazado_198155" data-name="Trazado 198155" d="M211.4,394.575c1.339-1.1,2.126-1.509,3.74-2.9,2.51-2.162,5.72-4.9,5.72-4.9l3.05,4.479s-7.378,6.486-11.3,10.336h0s-4.963,5.329-6.073,4.858-5.065-6.207-8.224-11.72-4.574-9.034-4.732-11.434,7.79-3.558,7.79-3.558l6.223,13.592a20.15,20.15,0,0,0,1.671,2.531S210.668,395.066,211.4,394.575Z" fill="#494f80"/>
      </g>
      <g id="Grupo_135782" data-name="Grupo 135782">
        <path id="Trazado_198156" data-name="Trazado 198156" d="M188.553,345.916a9.537,9.537,0,0,0-10.949,7.545,23.156,23.156,0,0,0,.3,3.649c.305,1.626-1.631,6.094-1.29,6.364a10.265,10.265,0,0,0,1.825.736s1.053,5.243,2.833,5.4a14.813,14.813,0,0,0,12.545-6.389C197.7,357.3,199.784,347.754,188.553,345.916Z" fill="#eea886"/>
      </g>
      <g id="Grupo_135783" data-name="Grupo 135783">
        <path id="Trazado_198157" data-name="Trazado 198157" d="M177.6,353.461s4.186,3.614,8.621,4.755,6.782,6.121,6.782,6.121,7.845-7.826,3.11-15.42S177.612,344.71,177.6,353.461Z" fill="#e8734d"/>
      </g>
      <g id="Grupo_135784" data-name="Grupo 135784">
        <path id="Trazado_198158" data-name="Trazado 198158" d="M187.041,358.476s4.641,12.181,4.1,15.117c0,0,2.294-.4,6.569.908C197.708,374.5,195.642,352.742,187.041,358.476Z" fill="#e8734d"/>
      </g>
      <g id="Grupo_135785" data-name="Grupo 135785">
        <path id="Trazado_198159" data-name="Trazado 198159" d="M185.243,380.005l-2.458,1.177,8.354-8.281Z" fill="#d6c5be"/>
      </g>
      <g id="Grupo_135786" data-name="Grupo 135786">
        <path id="Trazado_198160" data-name="Trazado 198160" d="M191.139,372.9l-5.9,7.1,3.226,2.877,3.482-8.505Z" fill="#fae6de"/>
      </g>
      <g id="Grupo_135787" data-name="Grupo 135787">
        <path id="Trazado_198161" data-name="Trazado 198161" d="M189.521,367.381a10.274,10.274,0,0,1-4.917,3.454c.088-.339.168-.681.241-1.022.041-.194.079-.386.114-.578A16.677,16.677,0,0,0,189.521,367.381Z" fill="#a77860"/>
      </g>
      <g id="Grupo_135788" data-name="Grupo 135788">
        <path id="Trazado_198162" data-name="Trazado 198162" d="M160.791,394.308c.742,1.4.73,2.856-.027,3.258s-1.974-.4-2.717-1.8-.73-2.856.027-3.259S160.048,392.911,160.791,394.308Z" fill="#828282"/>
      </g>
      <g id="Grupo_135789" data-name="Grupo 135789">
        <path id="Trazado_198163" data-name="Trazado 198163" d="M191.951,374.377a9.249,9.249,0,0,1,10.04,7.085S192.1,380.4,191.951,374.377Z" fill="#494f80"/>
      </g>
    </g>
    <g id="Grupo_135821" data-name="Grupo 135821">
      <g id="Grupo_135791" data-name="Grupo 135791" style="mix-blend-mode: hard-light;isolation: isolate">
        <rect id="Rectángulo_44965" data-name="Rectángulo 44965" width="121.847" height="141.518" rx="8.706" transform="translate(273.163 11.569)" fill="#f5f5f5"/>
      </g>
      <g id="Grupo_135800" data-name="Grupo 135800">
        <g id="Grupo_135793" data-name="Grupo 135793">
          <g id="Grupo_135792" data-name="Grupo 135792">
            <path id="Trazado_198164" data-name="Trazado 198164" d="M347.133,70.267a31.138,31.138,0,1,0-58.639,20.972c.235.659.492,1.308.767,1.941a31.139,31.139,0,0,0,57.872-22.913Zm-21.458,32.468A23.32,23.32,0,0,1,296.407,90.07q-.309-.714-.576-1.456a23.346,23.346,0,1,1,29.844,14.121Z" fill="#4aafff"/>
          </g>
        </g>
        <g id="Grupo_135795" data-name="Grupo 135795">
          <g id="Grupo_135794" data-name="Grupo 135794">
            <path id="Trazado_198165" data-name="Trazado 198165" d="M295.528,73.795l-7.44-2.323A31.184,31.184,0,0,1,316.882,49.62l.233,7.791a23.382,23.382,0,0,0-21.587,16.384Z" fill="#1a598c"/>
          </g>
        </g>
        <g id="Grupo_135797" data-name="Grupo 135797">
          <g id="Grupo_135796" data-name="Grupo 135796">
            <path id="Trazado_198166" data-name="Trazado 198166" d="M296.407,90.07l-7.146,3.11c-.275-.633-.532-1.282-.767-1.941a31,31,0,0,1-.406-19.767l7.44,2.323a23.241,23.241,0,0,0,.3,14.819Q296.1,89.355,296.407,90.07Z" fill="#2273b5"/>
          </g>
        </g>
        <g id="Grupo_135799" data-name="Grupo 135799">
          <g id="Grupo_135798" data-name="Grupo 135798">
            <path id="Trazado_198167" data-name="Trazado 198167" d="M294.088,100.931a30.962,30.962,0,0,1-4.827-7.751l7.146-3.11a23.228,23.228,0,0,0,3.618,5.812Z" fill="#3788cc"/>
          </g>
        </g>
      </g>
      <g id="Grupo_135807" data-name="Grupo 135807">
        <g id="Grupo_135802" data-name="Grupo 135802">
          <g id="Grupo_135801" data-name="Grupo 135801">
            <path id="Trazado_198168" data-name="Trazado 198168" d="M374.131,89.288a12.88,12.88,0,1,0-11.017,23.286c.261.124.526.239.791.344a12.881,12.881,0,0,0,10.226-23.63Zm3.221,15.773a9.65,9.65,0,0,1-12.266,4.857c-.2-.079-.4-.165-.594-.258a9.657,9.657,0,1,1,12.86-4.6Z" fill="#4aafff"/>
          </g>
        </g>
        <g id="Grupo_135804" data-name="Grupo 135804">
          <g id="Grupo_135803" data-name="Grupo 135803">
            <path id="Trazado_198169" data-name="Trazado 198169" d="M360.068,105.414l-2.855,1.5A12.9,12.9,0,0,1,359.244,92.1l2.346,2.211a9.674,9.674,0,0,0-1.522,11.106Z" fill="#1a598c"/>
          </g>
        </g>
        <g id="Grupo_135806" data-name="Grupo 135806">
          <g id="Grupo_135805" data-name="Grupo 135805">
            <path id="Trazado_198170" data-name="Trazado 198170" d="M365.086,109.918l-1.181,3c-.265-.1-.53-.22-.791-.344a12.815,12.815,0,0,1-5.9-5.663l2.855-1.5a9.616,9.616,0,0,0,4.424,4.246C364.688,109.753,364.887,109.839,365.086,109.918Z" fill="#2273b5"/>
          </g>
        </g>
      </g>
      <g id="Grupo_135808" data-name="Grupo 135808">
        <path id="Trazado_198171" data-name="Trazado 198171" d="M364.665,122.262H340.613v-.478h23.574V112.7h.478Z" fill="#e2f3fe"/>
      </g>
      <g id="Grupo_135809" data-name="Grupo 135809">
        <rect id="Rectángulo_44966" data-name="Rectángulo 44966" width="21.525" height="2.868" transform="translate(288.088 116.809)" fill="#4aafff"/>
      </g>
      <g id="Grupo_135810" data-name="Grupo 135810">
        <rect id="Rectángulo_44967" data-name="Rectángulo 44967" width="12.661" height="2.868" transform="translate(340.613 116.809)" fill="#4aafff"/>
      </g>
      <g id="Grupo_135811" data-name="Grupo 135811">
        <rect id="Rectángulo_44968" data-name="Rectángulo 44968" width="10.302" height="2.202" transform="translate(283.212 23.717)" fill="#4aafff"/>
      </g>
      <g id="Grupo_135812" data-name="Grupo 135812">
        <rect id="Rectángulo_44969" data-name="Rectángulo 44969" width="15.983" height="2.202" transform="translate(326.158 32.006)" fill="#4aafff"/>
      </g>
      <g id="Grupo_135813" data-name="Grupo 135813">
        <rect id="Rectángulo_44970" data-name="Rectángulo 44970" width="9.757" height="2.202" transform="translate(305.492 32.006)" fill="#4aafff"/>
      </g>
      <g id="Grupo_135814" data-name="Grupo 135814">
        <rect id="Rectángulo_44971" data-name="Rectángulo 44971" width="19.332" height="2.202" transform="translate(283.212 32.006)" fill="#4aafff"/>
      </g>
      <g id="Grupo_135815" data-name="Grupo 135815">
        <rect id="Rectángulo_44972" data-name="Rectángulo 44972" width="15.264" height="2.202" transform="translate(296.65 23.717)" fill="#4aafff"/>
      </g>
      <g id="Grupo_135816" data-name="Grupo 135816">
        <rect id="Rectángulo_44973" data-name="Rectángulo 44973" width="4.193" height="2.202" transform="translate(318.303 32.006)" fill="#4aafff"/>
      </g>
      <g id="Grupo_135817" data-name="Grupo 135817">
        <rect id="Rectángulo_44974" data-name="Rectángulo 44974" width="11.403" height="2.202" transform="translate(330.739 23.839)" fill="#4aafff"/>
      </g>
      <g id="Grupo_135818" data-name="Grupo 135818">
        <rect id="Rectángulo_44975" data-name="Rectángulo 44975" width="9.724" height="2.202" transform="translate(346.209 32.006)" fill="#4aafff"/>
      </g>
      <g id="Grupo_135819" data-name="Grupo 135819">
        <rect id="Rectángulo_44976" data-name="Rectángulo 44976" width="12.088" height="2.202" transform="translate(315.668 23.839)" fill="#4aafff"/>
      </g>
      <g id="Grupo_135820" data-name="Grupo 135820">
        <rect id="Rectángulo_44977" data-name="Rectángulo 44977" width="30.789" height="30.789" rx="5.811" transform="translate(318.692 135.588)" fill="#fff"/>
        <rect id="Rectángulo_44978" data-name="Rectángulo 44978" width="2.913" height="12.25" transform="translate(332.63 144.858)" fill="#c5ccd1"/>
        <rect id="Rectángulo_44979" data-name="Rectángulo 44979" width="2.913" height="12.25" transform="translate(340.211 149.527) rotate(90)" fill="#c5ccd1"/>
      </g>
    </g>
  </g>
  <rect id="Rectángulo_44980" data-name="Rectángulo 44980" width="295" height="280" transform="translate(41.491 115.683)" fill="none"/>
  <g id="Grupo_135823" data-name="Grupo 135823">
    <circle id="Elipse_5247" data-name="Elipse 5247" cx="19.478" cy="19.478" r="19.478" transform="translate(334.091 477.488)" fill="#5038a1" opacity="0.7" style="isolation: isolate"/>
    <g id="Elipse_5249" data-name="Elipse 5249">
      <circle id="Elipse_6059" data-name="Elipse 6059" cx="7.34" cy="7.34" r="7.34" transform="translate(348.637 483.694)" fill="none"/>
      <circle id="Elipse_6060" data-name="Elipse 6060" cx="6.493" cy="6.493" r="6.493" transform="translate(349.484 484.541)" fill="none" stroke="#fff" stroke-width="1.694"/>
    </g>
    <g id="Elipse_5250" data-name="Elipse 5250">
      <circle id="Elipse_6061" data-name="Elipse 6061" cx="3.952" cy="3.952" r="3.952" transform="translate(299.931 472.95)" fill="#fdb74d"/>
      <circle id="Elipse_6062" data-name="Elipse 6062" cx="3.105" cy="3.105" r="3.105" transform="translate(300.778 473.797)" fill="#fdb74d" stroke="#8c6df2" stroke-width="1.694"/>
    </g>
    <circle id="Elipse_5251" data-name="Elipse 5251" cx="2.541" cy="2.541" r="2.541" transform="translate(325.745 494.595)" fill="#fdb74d"/>
  </g>
  <rect id="Rectángulo_44981" data-name="Rectángulo 44981" width="400" height="543" fill="none"/>
</svg>
