<svg id="Grupo_135849" data-name="Grupo 135849" xmlns="http://www.w3.org/2000/svg" width="962.578" height="700.337" viewBox="0 0 962.578 700.337">
  <path id="Trazado_115444" data-name="Trazado 115444" d="M15.824,671.627c.953,9.293,2.026,18.355,3.182,27.12h0c.075.54.141,1.063.214,1.59H918.8c5.269-26.164,9.567-53.3,12.849-81.113q.891-7.543,1.683-15.167c3.548-33.551,5.442-67.909,5.645-102.429q.009-2.956,0-5.891c0-.965-.006-1.925-.012-2.892q-.111-17.81-.947-35.215-.6-12.39-1.6-24.469-1.206-14.658-3.066-28.972c-4.133-31.73-10.681-60.925-20.076-85.749a202.166,202.166,0,0,0-14.131-30.131q-1.272-2.2-2.592-4.3c-27.3-43.667-69.421-61.683-130.946-34.556a47.446,47.446,0,0,1-30.28,2.961,57.748,57.748,0,0,1-6.806-1.972c-11.755-4.082-23.257-11.344-34.265-21.634q-4.8-4.5-9.4-8.683a.03.03,0,0,0-.019-.014c-152.724-138.548-154.657-15.858-237.238-24.6-47.809-5.062-94.578-131.728-157.794-41.028-.263.377-.524.756-.789,1.143-21.261,31.046-43.539,68.677-66.932,113.848q-5.247,10.139-10.291,18.846C161.4,375.529,125.76,362.14,91.655,376.65c-12.287,5.227-24.372,14.073-36.872,32.564C43.726,425.563,35.22,444.141,28.8,464.146,18.859,495.1,13.91,529.461,12.239,564.212q-.286,5.9-.448,11.814a711.611,711.611,0,0,0,2.146,74.892Q14.769,661.435,15.824,671.627Z" fill="#fedc72" opacity="0.15" style="isolation: isolate"/>
  <path id="Trazado_139920" data-name="Trazado 139920" d="M43.536,99.661a11.423,11.423,0,0,0-1.282-.012c-6,.279-9.392,5.344-7.562,11.3a15.031,15.031,0,0,0,14.194,10.285,281.184,281.184,0,0,1,64.2,4.954,333.685,333.685,0,0,1,64.793,19.2L181.863,147l3.943,1.733c2.634,1.139,5.237,2.36,7.834,3.59q7.809,3.654,15.391,7.79c2.54,1.346,5.019,2.821,7.523,4.218,2.487,1.442,4.936,2.948,7.4,4.41,2.412,1.563,4.852,3.045,7.226,4.675s4.756,3.187,7.052,4.876,4.624,3.314,6.86,5.059c1.122.867,2.257,1.711,3.355,2.6l3.273,2.668c2.213,1.742,4.261,3.636,6.39,5.438,2.057,1.862,4.11,3.724,6.1,5.621,1.949,1.93,3.951,3.8,5.785,5.786.924.985,1.879,1.945,2.787,2.937l2.659,2.981c.442.5.895.983,1.324,1.5l1.291,1.575,2.567,3.137c1.634,2.153,3.311,4.256,4.872,6.438a260.646,260.646,0,0,1,30.383,55.785c8.038,19.655,14.5,40.083,21.167,61.3,3.35,10.614,6.686,21.433,10.376,32.516,1.81,5.533,3.786,11.143,5.807,16.8,1.055,2.846,2.07,5.681,3.182,8.556l3.238,8.381c8.332,21.438,17.228,43.512,27.875,66.045a504.373,504.373,0,0,0,38.943,68.919,357.117,357.117,0,0,0,27,34.881,309.123,309.123,0,0,0,34.264,33.424c6.367,5.293,13.067,10.392,20.035,15.219,3.481,2.423,7.049,4.749,10.662,7.034,1.81,1.128,3.561,2.227,5.471,3.34s3.816,2.238,5.744,3.295a251.254,251.254,0,0,0,47.774,20.506c4.074,1.258,8.15,2.434,12.241,3.455,2.16.559,3.8.925,5.63,1.381l5.382,1.279c3.595.84,7.229,1.562,10.87,2.253s7.312,1.256,10.98,1.866a264.336,264.336,0,0,0,44.471,2.985,223,223,0,0,0,43.547-4.981,205.538,205.538,0,0,0,103.977-57.456A262.351,262.351,0,0,0,857.8,552.368a316.137,316.137,0,0,0,15.572-32.519c2.3-5.631,4.454-11.371,6.471-17.345,1-3,1.989-6.041,2.935-9.25.475-1.609.939-3.239,1.4-5l.693-2.758.352-1.559.2-.951.247-1.425c5.8-47.22-32.26-99.825-84.995-117.484s-100.19,6.309-105.989,53.531l.124-.494c.037-.116.047-.05.047-.05l.031.03c.039.015.055.188.083.288a8.784,8.784,0,0,1,.1.932c.064.692.076,1.514.091,2.33.025,1.663,0,3.45-.075,5.255-.161,3.635-.439,7.389-.837,11.13a188.771,188.771,0,0,1-3.657,22.217A160.482,160.482,0,0,1,676.4,498.9a100.4,100.4,0,0,1-22.69,29.25,73.4,73.4,0,0,1-14.612,9.958,80.93,80.93,0,0,1-17.344,6.635,103.593,103.593,0,0,1-20.479,3.18c-1.869.047-3.719.176-5.631.2-1.932-.029-3.845.033-5.819-.032l-5.738-.211c-1.5-.02-3.033-.13-4.553-.234a81.418,81.418,0,0,1-18.493-3.852c-.773-.242-1.538-.519-2.308-.788l-2.489-.964c-1.671-.674-3.35-1.377-5.026-2.162-3.358-1.552-6.749-3.3-10.171-5.3a188.6,188.6,0,0,1-41.535-34.359q-5.16-5.441-10.133-11.36t-9.833-12.211c-6.467-8.372-12.765-17.182-18.9-26.3-12.3-18.242-23.914-37.659-35.571-57.763l-4.17-7.22c-1.35-2.328-2.656-4.718-4-7.1-2.628-4.809-5.248-9.664-7.827-14.647-5.169-9.923-10.265-20.171-15.4-30.615-10.314-20.877-21-42.609-33.929-64.316a344.444,344.444,0,0,0-46.852-62.914c-2.306-2.444-4.744-4.805-7.12-7.183-2.485-2.326-4.864-4.634-7.428-6.938l-3.81-3.441c-1.285-1.123-2.6-2.207-3.889-3.307-2.567-2.226-5.252-4.279-7.888-6.37a293.7,293.7,0,0,0-32.948-21.894,393.618,393.618,0,0,0-68.573-30.629,491.779,491.779,0,0,0-69.122-17.937A607.517,607.517,0,0,0,43.6,99.66Z" fill="#fdb74d" opacity="0.2"/>
  <rect id="Rectángulo_44983" data-name="Rectángulo 44983" width="487.68" height="71.294" rx="24.372" transform="translate(253.839 24.173)" fill="#bdccd4"/>
  <g id="Grupo_135829" data-name="Grupo 135829">
    <path id="Trazado_198172" data-name="Trazado 198172" d="M285.124,53.048h8.4V58.29h-8.4v6.4h9.322v5.441h-15V42.127h14.723v5.241h-9.043Z" fill="#5038a1"/>
    <path id="Trazado_198173" data-name="Trazado 198173" d="M298.65,57.049c0-1.88-.4-2.64-1.961-2.52v-3.6c3.281-.84,7.242-.6,7.242,4.6V62.17c0,2.4,1,3.961,2.881,3.961,4.519,0,2.56-11.722,1.439-15.283h5.2c2.4,7.962,2.961,19.685-6.64,19.685-5.243,0-8.243-3.2-8.2-8.363Z" fill="#5038a1"/>
    <path id="Trazado_198174" data-name="Trazado 198174" d="M334.177,52.249V64.011c0,1.641.121,2.521,1.682,2.4v3.6c-2.481.84-5.762.721-5.963-3.2a5.978,5.978,0,0,1-5.28,3.721c-4.322,0-7.082-3.241-7.082-9.323,0-6.441,3.8-10.762,9.563-10.762A16.44,16.44,0,0,1,334.177,52.249Zm-5.121,3.24a4.383,4.383,0,0,0-2.119-.6c-2.522,0-4.162,2.321-4.162,6.321,0,2.521.96,4.362,3,4.362s3.279-2.362,3.279-5.722Z" fill="#5038a1"/>
    <path id="Trazado_198175" data-name="Trazado 198175" d="M344.019,62.891c0,2.4.64,3.28,2.041,3.28a3.883,3.883,0,0,0,1.041-.16l.16,4.2a9.911,9.911,0,0,1-2.762.321c-3.48,0-5.681-2.081-5.681-7.642V40.846h5.2Z" fill="#5038a1"/>
    <path id="Trazado_198176" data-name="Trazado 198176" d="M365.224,63.971c0,2.2.2,2.841,1.761,2.561v3.48c-2.242.641-6.242,1.2-6.562-2.68a5.9,5.9,0,0,1-5.2,3.2c-4.041,0-6.082-2.841-6.082-8.523V50.848h5.322V61.89c-.08,2.841.76,4.241,2.481,4.241,1.64.04,3-1.76,3-4.36V50.848h5.281Z" fill="#5038a1"/>
    <path id="Trazado_198177" data-name="Trazado 198177" d="M385.788,52.249V64.011c0,1.641.121,2.521,1.682,2.4v3.6c-2.481.84-5.762.721-5.963-3.2a5.977,5.977,0,0,1-5.279,3.721c-4.323,0-7.082-3.241-7.082-9.323,0-6.441,3.8-10.762,9.562-10.762A16.437,16.437,0,0,1,385.788,52.249Zm-5.121,3.24a4.38,4.38,0,0,0-2.119-.6c-2.521,0-4.162,2.321-4.162,6.321,0,2.521.961,4.362,3,4.362s3.279-2.362,3.279-5.722Z" fill="#5038a1"/>
    <path id="Trazado_198178" data-name="Trazado 198178" d="M401.634,57.81a3.162,3.162,0,0,0-3.2-2.44c-2.08,0-3.481,2-3.481,5.041,0,3.2,1.4,5.32,3.6,5.32,1.32,0,2.641-.96,3.121-3h5c-.641,5.481-4.2,7.8-8.123,7.8-5.32,0-8.881-4.041-8.881-10.122,0-5.962,3.52-9.963,8.8-9.963a7.971,7.971,0,0,1,8.162,7.362Z" fill="#5038a1"/>
    <path id="Trazado_198179" data-name="Trazado 198179" d="M412.435,41.726a3.228,3.228,0,0,1,.041,6.442,3.037,3.037,0,0,1-3.16-3.241A2.973,2.973,0,0,1,412.435,41.726Zm-2.68,9.122h5.281V70.132h-5.281Z" fill="#5038a1"/>
    <path id="Trazado_198180" data-name="Trazado 198180" d="M427.2,70.533c-5.32,0-8.88-4.041-8.88-10.122,0-5.962,3.56-9.963,8.88-9.963,5.243,0,8.762,4,8.762,9.963C435.96,66.492,432.441,70.533,427.2,70.533Zm0-4.881c2.121,0,3.522-2.041,3.522-5.241,0-3.041-1.4-5.041-3.522-5.041-2.2,0-3.6,2-3.6,5.041C423.6,63.611,425,65.652,427.2,65.652Zm1.362-17.885h-4.121v-.479l2.56-5.8,4.682,1.761v.44Z" fill="#5038a1"/>
    <path id="Trazado_198181" data-name="Trazado 198181" d="M439.923,56.969c0-2.12-.2-2.8-1.92-2.52V51.008c2.4-.64,6.522-1.44,6.961,2.721a5.915,5.915,0,0,1,5.361-3.281c3.881,0,6.041,2.881,6.041,8.522v4.841c0,2.6.321,3,2.041,2.881v3.28c-3.681,1.04-7.322.521-7.322-4.841V58.97c0-2.56-1.039-4.081-2.8-4.081-1.56,0-3.039,1.481-3.039,4.2V70.132h-5.322Z" fill="#5038a1"/>
    <path id="Trazado_198182" data-name="Trazado 198182" d="M475.013,70.533c-4.682,0-7.361-3.721-7.361-10.122,0-5.6,2.88-9.963,7.48-9.963a4.255,4.255,0,0,1,4.322,2.52V40.686h4.881v23.8c0,1.64.639,2,1.8,1.841v3.6c-2.361.521-5.842.88-6.043-3.2A5.683,5.683,0,0,1,475.013,70.533Zm4.281-10.323c0-2.8-1.08-5.121-3.121-5.121-1.92,0-3.2,2.161-3.2,5.242,0,3.32,1.16,5.241,3.2,5.241S479.294,63.251,479.294,60.21Z" fill="#5038a1"/>
    <path id="Trazado_198183" data-name="Trazado 198183" d="M498.538,66.131a10.2,10.2,0,0,0,5.16-1.52l-.119,4.321a10.006,10.006,0,0,1-5.681,1.6c-5.682,0-9.6-2.761-9.6-10.122,0-6.842,4.6-9.963,8.8-9.963,4.961,0,7.242,2.6,7.242,5.8,0,4.4-4.32,7.921-10.883,6.121C493.978,65.292,495.978,66.131,498.538,66.131ZM493.5,58.81c3.4,1.08,5.84.2,5.84-2.041,0-1.24-.8-1.96-2.359-1.96C495.737,54.809,493.937,55.769,493.5,58.81Z" fill="#5038a1"/>
    <path id="Trazado_198184" data-name="Trazado 198184" d="M525.425,50.448c4.682,0,7.361,3.721,7.361,10.122,0,5.6-2.881,9.963-7.48,9.963a4.253,4.253,0,0,1-4.322-2.521V79.974H516.1V56.49c0-1.641-.641-2-1.8-1.841v-3.6c2.361-.52,5.842-.879,6.043,3.2A5.682,5.682,0,0,1,525.425,50.448ZM521.144,60.77c0,2.8,1.08,5.121,3.16,5.121,1.922,0,3.162-2.16,3.162-5.241,0-3.32-1.041-5.24-3.082-5.24S521.144,57.73,521.144,60.77Z" fill="#5038a1"/>
    <path id="Trazado_198185" data-name="Trazado 198185" d="M546.349,50.448a5.583,5.583,0,0,1,3.72,1.44L548.55,56.21a4.884,4.884,0,0,0-2.84-.88c-2.041,0-3.721,1.439-3.721,4.64V70.132h-5.162V56.61c0-1.6-.439-2.641-1.881-2.361V50.808c2.362-.639,6.563-.68,6.883,2.721A4.738,4.738,0,0,1,546.349,50.448Z" fill="#5038a1"/>
    <path id="Trazado_198186" data-name="Trazado 198186" d="M559.714,70.533c-5.322,0-8.883-4.041-8.883-10.122,0-5.962,3.561-9.963,8.883-9.963,5.24,0,8.762,4,8.762,9.963C568.476,66.492,564.954,70.533,559.714,70.533Zm0-4.881c2.119,0,3.52-2.041,3.52-5.241,0-3.041-1.4-5.041-3.52-5.041-2.2,0-3.6,2-3.6,5.041C556.112,63.611,557.513,65.652,559.714,65.652Z" fill="#5038a1"/>
    <path id="Trazado_198187" data-name="Trazado 198187" d="M572.116,57.049c0-1.88-.4-2.64-1.959-2.52v-3.6c3.28-.84,7.241-.6,7.241,4.6V62.17c0,2.4,1,3.961,2.88,3.961,4.522,0,2.561-11.722,1.442-15.283h5.2c2.4,7.962,2.961,19.685-6.641,19.685-5.24,0-8.242-3.2-8.2-8.363Z" fill="#5038a1"/>
    <path id="Trazado_198188" data-name="Trazado 198188" d="M601.245,66.131a10.2,10.2,0,0,0,5.16-1.52l-.119,4.321a10.006,10.006,0,0,1-5.681,1.6c-5.682,0-9.6-2.761-9.6-10.122,0-6.842,4.6-9.963,8.8-9.963,4.961,0,7.242,2.6,7.242,5.8,0,4.4-4.32,7.921-10.883,6.121C596.685,65.292,598.685,66.131,601.245,66.131ZM596.2,58.81c3.4,1.08,5.84.2,5.84-2.041,0-1.24-.8-1.96-2.359-1.96C598.444,54.809,596.644,55.769,596.2,58.81Z" fill="#5038a1"/>
    <path id="Trazado_198189" data-name="Trazado 198189" d="M619.609,66.131a10.208,10.208,0,0,0,5.162-1.52l-.121,4.321a10.01,10.01,0,0,1-5.68,1.6c-5.682,0-9.6-2.761-9.6-10.122,0-6.842,4.6-9.963,8.8-9.963,4.961,0,7.242,2.6,7.242,5.8,0,4.4-4.322,7.921-10.883,6.121C615.048,65.292,617.048,66.131,619.609,66.131Zm-5.041-7.321c3.4,1.08,5.841.2,5.841-2.041,0-1.24-.8-1.96-2.361-1.96C616.808,54.809,615.009,55.769,614.568,58.81Z" fill="#5038a1"/>
    <path id="Trazado_198190" data-name="Trazado 198190" d="M635.134,70.533c-4.682,0-7.361-3.721-7.361-10.122,0-5.6,2.88-9.963,7.48-9.963a4.254,4.254,0,0,1,4.322,2.52V40.686h4.881v23.8c0,1.64.639,2,1.8,1.841v3.6c-2.361.521-5.842.88-6.043-3.2A5.683,5.683,0,0,1,635.134,70.533Zm4.281-10.323c0-2.8-1.08-5.121-3.121-5.121-1.92,0-3.2,2.161-3.2,5.242,0,3.32,1.16,5.241,3.2,5.241S639.415,63.251,639.415,60.21Z" fill="#5038a1"/>
    <path id="Trazado_198191" data-name="Trazado 198191" d="M657.259,70.533c-5.322,0-8.883-4.041-8.883-10.122,0-5.962,3.561-9.963,8.883-9.963,5.24,0,8.762,4,8.762,9.963C666.021,66.492,662.5,70.533,657.259,70.533Zm0-4.881c2.119,0,3.519-2.041,3.519-5.241,0-3.041-1.4-5.041-3.519-5.041-2.2,0-3.6,2-3.6,5.041C653.657,63.611,655.058,65.652,657.259,65.652Z" fill="#5038a1"/>
    <path id="Trazado_198192" data-name="Trazado 198192" d="M679.5,50.448a5.586,5.586,0,0,1,3.721,1.44L681.7,56.21a4.881,4.881,0,0,0-2.84-.88c-2.041,0-3.72,1.439-3.72,4.64V70.132h-5.162V56.61c0-1.6-.44-2.641-1.881-2.361V50.808c2.361-.639,6.562-.68,6.883,2.721A4.736,4.736,0,0,1,679.5,50.448Z" fill="#5038a1"/>
    <path id="Trazado_198193" data-name="Trazado 198193" d="M694.269,66.131a10.207,10.207,0,0,0,5.16-1.52l-.119,4.321a10.012,10.012,0,0,1-5.682,1.6c-5.682,0-9.6-2.761-9.6-10.122,0-6.842,4.6-9.963,8.8-9.963,4.961,0,7.242,2.6,7.242,5.8,0,4.4-4.32,7.921-10.882,6.121C689.708,65.292,691.708,66.131,694.269,66.131Zm-5.041-7.321c3.4,1.08,5.84.2,5.84-2.041,0-1.24-.8-1.96-2.36-1.96C691.468,54.809,689.667,55.769,689.228,58.81Z" fill="#5038a1"/>
    <path id="Trazado_198194" data-name="Trazado 198194" d="M707.513,64.131a2.249,2.249,0,0,0,2.279,2.361c1.4,0,2.361-.721,2.361-2a2.083,2.083,0,0,0-2.041-2.08c-3.2-.521-7.48-1.561-7.48-5.921,0-3.681,2.84-6.042,7.16-6.042,3.842,0,7.322,2.041,7.123,6.082h-4.681a2.131,2.131,0,0,0-2.321-1.881c-1.281,0-2.121.641-2.121,1.761,0,1.44,1.16,1.759,2.121,1.88,3.68.52,7.561,1.16,7.561,6.121,0,3.681-2.959,6.122-7.442,6.122-5,0-7.6-2.561-7.72-6.4Z" fill="#5038a1"/>
  </g>
  <g id="Grupo_135848" data-name="Grupo 135848">
    <g id="Grupo_135831" data-name="Grupo 135831">
      <circle id="Elipse_6063" data-name="Elipse 6063" cx="28.405" cy="28.405" r="28.405" transform="translate(108.203 138.241)" fill="#5038a1"/>
      <g id="Grupo_135830" data-name="Grupo 135830">
        <path id="Trazado_198195" data-name="Trazado 198195" d="M122.675,179.827l11.154-29.318H141l11.315,29.318h-7.129L142.8,173.6H131.446l-2.043,6.228Zm18.664-11.155-3.284-9.471q-.141-.423-.361-1.443t-.46-2.5q-.261,1.423-.5,2.553t-.361,1.513l-3.164,9.351Z" fill="#fff"/>
      </g>
    </g>
    <g id="Grupo_135833" data-name="Grupo 135833">
      <circle id="Elipse_6064" data-name="Elipse 6064" cx="28.405" cy="28.405" r="28.405" transform="translate(346.985 631.46)" fill="#5038a1"/>
      <g id="Grupo_135832" data-name="Grupo 135832">
        <path id="Trazado_198196" data-name="Trazado 198196" d="M367.315,673.045V643.728H372.8a41.9,41.9,0,0,1,6.237.33,11.283,11.283,0,0,1,3.415,1.092,6.923,6.923,0,0,1,3.565,6.208,5.709,5.709,0,0,1-1.542,4.175,8.194,8.194,0,0,1-4.607,2.093,9.387,9.387,0,0,1,5.358,2.3,6.359,6.359,0,0,1,1.812,4.746A7.718,7.718,0,0,1,386,668.629a7.181,7.181,0,0,1-2.863,2.774,12.35,12.35,0,0,1-3.805,1.262,47.532,47.532,0,0,1-7.229.38h-4.786Zm6.267-17.6h1.4a7.493,7.493,0,0,0,4.025-.8,3.006,3.006,0,0,0,1.182-2.683,2.96,2.96,0,0,0-1.132-2.624,7.313,7.313,0,0,0-3.955-.781h-1.523Zm0,12.716h2.464a5.418,5.418,0,0,0,3.584-1.032,3.721,3.721,0,0,0,1.222-3.013,3.449,3.449,0,0,0-1.211-2.844,5.482,5.482,0,0,0-3.515-.98h-2.544Z" fill="#fff"/>
      </g>
    </g>
    <g id="Grupo_135834" data-name="Grupo 135834">
      <path id="Trazado_198197" data-name="Trazado 198197" d="M120.334,523.872H116.39V498.7h1.326L130.3,514.8l-.144-6.884v-9.144H134.1v25.137h-1.291L120.191,507.7l.143,7.063Z" fill="#5038a1"/>
      <path id="Trazado_198198" data-name="Trazado 198198" d="M148.879,524.23c-5.881,0-10.829-4.3-10.829-12.909s5.164-12.908,10.9-12.908c5.665,0,10.829,4.41,10.829,12.908C159.78,519.6,155.262,524.23,148.879,524.23Zm.072-3.729c3.729,0,6.885-3.12,6.885-9.18,0-6.024-3.12-9.18-6.85-9.18-3.836,0-6.992,3.192-6.992,9.18C141.994,517.381,145.078,520.5,148.951,520.5Z" fill="#5038a1"/>
    </g>
    <g id="Grupo_135835" data-name="Grupo 135835">
      <path id="Trazado_198199" data-name="Trazado 198199" d="M523.582,358.8h-3.944V333.627h1.326l12.587,16.1-.144-6.885V333.7h3.945v25.136h-1.291l-12.622-16.208.143,7.064Z" fill="#5038a1"/>
      <path id="Trazado_198200" data-name="Trazado 198200" d="M552.127,359.159c-5.881,0-10.829-4.3-10.829-12.909s5.164-12.909,10.9-12.909c5.665,0,10.829,4.411,10.829,12.909C563.028,354.533,558.51,359.159,552.127,359.159Zm.072-3.73c3.729,0,6.885-3.119,6.885-9.179,0-6.024-3.12-9.18-6.849-9.18-3.837,0-6.993,3.191-6.993,9.18C545.242,352.31,548.326,355.429,552.2,355.429Z" fill="#5038a1"/>
    </g>
    <rect id="Rectángulo_44984" data-name="Rectángulo 44984" width="169.659" height="64.762" rx="13.327" transform="translate(51.779 323.137)" fill="#8c6df2"/>
    <g id="Grupo_135837" data-name="Grupo 135837">
      <path id="Trazado_198203" data-name="Trazado 198203" d="M74.858,337.664c3.993,0,6.18,3.165,6.18,7.413,0,4.268-2.166,7.455-6.18,7.455h-4.61V337.664Zm-.022,12.659c2.485,0,3.93-2.146,3.93-5.2,0-3.037-1.466-5.246-3.93-5.246H72.542v10.45Z" fill="#fff"/>
      <path id="Trazado_198204" data-name="Trazado 198204" d="M90.593,350.111l.064,1.826a5.775,5.775,0,0,1-3.058.786c-3.1,0-5.119-1.954-5.014-5.587.065-3.292,2.209-5.054,4.418-5.054,2.528,0,3.973,1.211,3.973,3.313,0,3.207-3.951,3.675-6.287,2.677a2.758,2.758,0,0,0,3.037,2.8A6.184,6.184,0,0,0,90.593,350.111Zm-5.819-3.59c1.529.743,4.078.658,4.078-1.041,0-1-.68-1.551-1.806-1.551C85.878,343.929,84.964,344.737,84.774,346.521Z" fill="#fff"/>
      <path id="Trazado_198205" data-name="Trazado 198205" d="M91.971,342.294h1.657v-1.338c0-4.015,2.654-4.673,5.459-3.589l-.3,1.677c-1.444-.722-3.08-.616-3.08,1.955v1.3h2.868v1.742H95.709v8.5H93.585v-8.5H91.971Z" fill="#fff"/>
      <path id="Trazado_198206" data-name="Trazado 198206" d="M101.061,337.621a1.249,1.249,0,0,1,1.274,1.359,1.265,1.265,0,0,1-1.254,1.381,1.371,1.371,0,0,1-.02-2.74Zm-1.1,4.673h2.188v10.238H99.956Z" fill="#fff"/>
      <path id="Trazado_198207" data-name="Trazado 198207" d="M113.165,350.089c0,.68.107,1.041.956.935v1.466c-1.677.382-3.143.127-3.143-2.316v-3.653c0-1.614-.7-2.592-1.891-2.592-1.273,0-2.06,1.105-2.06,2.783v5.82h-2.188v-7.265c0-1.21-.042-1.508-.892-1.443v-1.551c1.211-.3,2.911-.4,2.911,1.338a3.077,3.077,0,0,1,2.888-1.529c2.57,0,3.419,1.912,3.419,4.439Z" fill="#fff"/>
      <path id="Trazado_198208" data-name="Trazado 198208" d="M116.795,337.621a1.249,1.249,0,0,1,1.274,1.359,1.264,1.264,0,0,1-1.253,1.381,1.371,1.371,0,0,1-.021-2.74Zm-1.1,4.673h2.187v10.238h-2.187Z" fill="#fff"/>
      <path id="Trazado_198209" data-name="Trazado 198209" d="M125.163,342.082a3.065,3.065,0,0,1,2.145.913l-.7,1.8a2.79,2.79,0,0,0-1.7-.616c-1.168,0-2.144.871-2.144,2.549v5.8h-2.188v-7.307c0-.913-.021-1.381-.892-1.317l-.022-1.572c1.275-.339,2.995-.191,2.995,1.36A2.486,2.486,0,0,1,125.163,342.082Z" fill="#fff"/>
      <path id="Trazado_198210" data-name="Trazado 198210" d="M138.774,345.735a1.972,1.972,0,0,0-2.1-1.636c-1.253,0-2.485,1-2.485,3.293,0,2.4,1.3,3.4,2.485,3.4a2.175,2.175,0,0,0,2.124-1.913h2.081a4.139,4.139,0,0,1-4.248,3.866c-2.293,0-4.588-1.53-4.588-5.352,0-3.654,2.337-5.31,4.61-5.31a3.944,3.944,0,0,1,4.184,3.653Z" fill="#fff"/>
      <path id="Trazado_198211" data-name="Trazado 198211" d="M147.566,342.082a3.063,3.063,0,0,1,2.144.913l-.7,1.8a2.787,2.787,0,0,0-1.7-.616c-1.168,0-2.145.871-2.145,2.549v5.8h-2.187v-7.307c0-.913-.022-1.381-.893-1.317l-.021-1.572c1.274-.339,3-.191,3,1.36A2.485,2.485,0,0,1,147.566,342.082Z" fill="#fff"/>
      <path id="Trazado_198212" data-name="Trazado 198212" d="M152.087,337.621a1.249,1.249,0,0,1,1.274,1.359,1.264,1.264,0,0,1-1.252,1.381,1.371,1.371,0,0,1-.022-2.74Zm-1.1,4.673h2.187v10.238h-2.187Z" fill="#fff"/>
      <path id="Trazado_198213" data-name="Trazado 198213" d="M161.41,344.036h-2.952v4.481c0,1.7.7,2.379,1.7,2.379a3.5,3.5,0,0,0,1.338-.361l.213,1.785a6.643,6.643,0,0,1-2.167.424c-1.975,0-3.228-1.232-3.228-4.2v-4.5l-1.72-.149v-1.572h1.783l.234-3.165h1.848v3.165h2.952Z" fill="#fff"/>
      <path id="Trazado_198214" data-name="Trazado 198214" d="M170.733,350.111l.063,1.826a5.774,5.774,0,0,1-3.059.786c-3.1,0-5.118-1.954-5.011-5.587.063-3.292,2.209-5.054,4.418-5.054,2.527,0,3.971,1.211,3.971,3.313,0,3.207-3.951,3.675-6.287,2.677a2.759,2.759,0,0,0,3.037,2.8A6.188,6.188,0,0,0,170.733,350.111Zm-5.82-3.59c1.53.743,4.078.658,4.078-1.041,0-1-.679-1.551-1.8-1.551C166.018,343.929,165.1,344.737,164.913,346.521Z" fill="#fff"/>
      <path id="Trazado_198215" data-name="Trazado 198215" d="M177.866,342.082a3.062,3.062,0,0,1,2.146.913l-.7,1.8a2.8,2.8,0,0,0-1.7-.616c-1.168,0-2.145.871-2.145,2.549v5.8h-2.189v-7.307c0-.913-.02-1.381-.891-1.317l-.022-1.572c1.275-.339,2.995-.191,2.995,1.36A2.486,2.486,0,0,1,177.866,342.082Z" fill="#fff"/>
      <path id="Trazado_198216" data-name="Trazado 198216" d="M182.39,337.621a1.249,1.249,0,0,1,1.274,1.359,1.265,1.265,0,0,1-1.253,1.381,1.371,1.371,0,0,1-.021-2.74Zm-1.1,4.673h2.188v10.238h-2.188Z" fill="#fff"/>
      <path id="Trazado_198217" data-name="Trazado 198217" d="M189.971,352.744c-2.762,0-4.588-2.145-4.588-5.373,0-3.165,1.826-5.289,4.588-5.289,2.782,0,4.608,2.124,4.608,5.289C194.579,350.6,192.753,352.744,189.971,352.744Zm0-1.975c1.529,0,2.506-1.359,2.506-3.4,0-2.018-.977-3.314-2.506-3.314-1.509,0-2.486,1.3-2.486,3.314C187.485,349.41,188.462,350.769,189.971,350.769Z" fill="#fff"/>
      <path id="Trazado_198218" data-name="Trazado 198218" d="M198.1,349.473a1.66,1.66,0,0,0,1.784,1.551c.891,0,1.763-.213,1.826-1.487-.063-1.125-1.041-1.125-1.911-1.36-1.721-.275-3.675-.913-3.675-2.952,0-2.209,1.848-3.143,3.823-3.143,2.146,0,3.7,1.041,3.632,3.08h-2c0-1.02-.914-1.338-1.721-1.338-.828,0-1.677.382-1.614,1.316,0,.85.7,1.126,1.741,1.3,1.891.276,3.845.722,3.845,3.144,0,2.294-1.89,3.164-3.972,3.164-1.932,0-3.844-.722-3.951-3.271Z" fill="#fff"/>
      <path id="Trazado_198219" data-name="Trazado 198219" d="M86.294,369.867c0,.933-.021,1.529.892,1.423v1.571c-1.36.34-2.634.191-2.634-1.911a3,3,0,0,1-2.931,2.124c-2.485,0-3.951-1.934-3.951-5.353,0-2.719,1.211-5.289,3.845-5.289A2.8,2.8,0,0,1,84.255,364V357.25h2.039Zm-4.206,1.146c1.423,0,2.1-1.423,2.1-3.377,0-1.635-.637-3.271-2.145-3.271-1.572,0-2.187,1.508-2.187,3.313C79.859,369.972,80.665,371.013,82.088,371.013Z" fill="#fff"/>
      <path id="Trazado_198220" data-name="Trazado 198220" d="M96.507,370.46l.064,1.828a5.775,5.775,0,0,1-3.058.786c-3.1,0-5.119-1.954-5.014-5.586.065-3.293,2.209-5.056,4.418-5.056,2.528,0,3.973,1.211,3.973,3.314,0,3.207-3.951,3.674-6.287,2.675a2.758,2.758,0,0,0,3.037,2.805A6.161,6.161,0,0,0,96.507,370.46Zm-5.819-3.588c1.529.743,4.078.658,4.078-1.041,0-1-.68-1.551-1.806-1.551C91.792,364.28,90.878,365.087,90.688,366.872Z" fill="#fff"/>
      <path id="Trazado_198221" data-name="Trazado 198221" d="M110.692,370.46l.063,1.828a5.774,5.774,0,0,1-3.059.786c-3.1,0-5.118-1.954-5.011-5.586.063-3.293,2.209-5.056,4.418-5.056,2.527,0,3.971,1.211,3.971,3.314,0,3.207-3.951,3.674-6.287,2.675a2.759,2.759,0,0,0,3.037,2.805A6.166,6.166,0,0,0,110.692,370.46Zm-5.82-3.588c1.53.743,4.078.658,4.078-1.041,0-1-.679-1.551-1.805-1.551C105.977,364.28,105.064,365.087,104.872,366.872Z" fill="#fff"/>
      <path id="Trazado_198222" data-name="Trazado 198222" d="M118.4,362.644h2.166c1.189,4.143,1.827,10.43-3.335,10.43-2.7,0-4.163-1.657-4.163-4.525v-2.7c0-1.211.042-1.742-.977-1.509v-1.677c1.678-.382,3.165-.17,3.165,2.167v3.716c0,1.53.722,2.613,1.975,2.613C120.27,371.162,119.165,364.939,118.4,362.644Z" fill="#fff"/>
      <path id="Trazado_198223" data-name="Trazado 198223" d="M131.566,369.867c0,.891-.022,1.529.892,1.423v1.571c-1.3.34-2.655.191-2.655-1.848a2.932,2.932,0,0,1-2.91,2.061c-2.486,0-3.929-1.954-3.929-5.332,0-3.164,2-5.31,4.991-5.31a7.265,7.265,0,0,1,3.611.978Zm-2.1-5.119a3.356,3.356,0,0,0-1.678-.4c-1.592,0-2.633,1.211-2.633,3.4,0,2.06.828,3.271,2.208,3.271,1.36,0,2.1-1.444,2.1-3.4Z" fill="#fff"/>
      <path id="Trazado_198224" data-name="Trazado 198224" d="M136.363,369.229c0,1.359.107,2.018,1.232,2.018a3.519,3.519,0,0,0,.6-.064l.063,1.763a7.573,7.573,0,0,1-1.3.149c-1.89,0-2.783-1.019-2.783-3.844v-11.9h2.188Z" fill="#fff"/>
      <path id="Trazado_198225" data-name="Trazado 198225" d="M147.514,369.909c0,1.253.063,1.571.891,1.466l.022,1.507c-.68.17-2.782.723-2.846-1.359a3,3,0,0,1-2.825,1.572c-2.485,0-3.4-1.869-3.4-4.376v-6.075h2.187v6.075c0,1.636.68,2.528,1.721,2.528,1.21,0,2.059-1.062,2.059-2.591v-6.012h2.189Z" fill="#fff"/>
      <path id="Trazado_198226" data-name="Trazado 198226" d="M158.321,369.867c0,.891-.021,1.529.893,1.423v1.571c-1.3.34-2.655.191-2.655-1.848a2.932,2.932,0,0,1-2.91,2.061c-2.486,0-3.929-1.954-3.929-5.332,0-3.164,2-5.31,4.991-5.31a7.262,7.262,0,0,1,3.61.978Zm-2.1-5.119a3.359,3.359,0,0,0-1.678-.4c-1.593,0-2.634,1.211-2.634,3.4,0,2.06.828,3.271,2.209,3.271,1.36,0,2.1-1.444,2.1-3.4Z" fill="#fff"/>
      <path id="Trazado_198227" data-name="Trazado 198227" d="M167.239,366.085a1.971,1.971,0,0,0-2.1-1.635c-1.253,0-2.485,1-2.485,3.292,0,2.4,1.3,3.4,2.485,3.4a2.174,2.174,0,0,0,2.124-1.911h2.082A4.14,4.14,0,0,1,165.1,373.1c-2.295,0-4.588-1.529-4.588-5.353,0-3.653,2.336-5.31,4.608-5.31a3.945,3.945,0,0,1,4.185,3.653Z" fill="#fff"/>
      <path id="Trazado_198228" data-name="Trazado 198228" d="M172.272,357.972a1.249,1.249,0,0,1,1.274,1.36,1.263,1.263,0,0,1-1.254,1.379,1.37,1.37,0,0,1-.02-2.739Zm-1.1,4.672h2.188v10.238h-2.188Z" fill="#fff"/>
      <path id="Trazado_198229" data-name="Trazado 198229" d="M179.853,373.1c-2.762,0-4.588-2.145-4.588-5.374,0-3.165,1.826-5.289,4.588-5.289,2.782,0,4.609,2.124,4.609,5.289C184.462,370.95,182.635,373.1,179.853,373.1Zm0-1.975c1.529,0,2.506-1.36,2.506-3.4,0-2.018-.977-3.313-2.506-3.313-1.508,0-2.486,1.3-2.486,3.313C177.367,369.76,178.345,371.12,179.853,371.12Zm.275-13.552,2,.808v.211l-1.593,2.337h-1.8v-.233Z" fill="#fff"/>
      <path id="Trazado_198230" data-name="Trazado 198230" d="M194.974,370.44c0,.68.1,1.04.955.935v1.464c-1.678.383-3.144.128-3.144-2.314v-3.653c0-1.615-.7-2.592-1.889-2.592-1.276,0-2.061,1.1-2.061,2.782v5.82h-2.187v-7.263c0-1.211-.043-1.509-.893-1.446v-1.549c1.211-.3,2.91-.4,2.91,1.337a3.079,3.079,0,0,1,2.889-1.529c2.57,0,3.42,1.911,3.42,4.44Z" fill="#fff"/>
    </g>
    <rect id="Rectángulo_44985" data-name="Rectángulo 44985" width="169.659" height="64.762" rx="13.327" transform="translate(51.779 551.391)" fill="#8c6df2"/>
    <g id="Grupo_135838" data-name="Grupo 135838">
      <path id="Trazado_198231" data-name="Trazado 198231" d="M110.269,580.787h-2.295l.021-8.943-3.525,5.268h-.318l-3.527-5.268v8.943H98.331v-14.91H99.2l5.119,7.688,5.1-7.688h.85Z" fill="#fff"/>
      <path id="Trazado_198232" data-name="Trazado 198232" d="M120.927,577.771c0,.892-.022,1.529.892,1.423v1.571c-1.295.34-2.655.192-2.655-1.847a2.932,2.932,0,0,1-2.91,2.06c-2.485,0-3.929-1.954-3.929-5.332,0-3.164,2-5.31,4.992-5.31a7.265,7.265,0,0,1,3.61.978Zm-2.1-5.119a3.364,3.364,0,0,0-1.677-.4c-1.593,0-2.634,1.211-2.634,3.4,0,2.061.828,3.272,2.209,3.272,1.359,0,2.1-1.445,2.1-3.4Z" fill="#fff"/>
      <path id="Trazado_198233" data-name="Trazado 198233" d="M129.42,572.291h-2.952v4.481c0,1.7.7,2.379,1.7,2.379a3.522,3.522,0,0,0,1.338-.36l.213,1.783a6.623,6.623,0,0,1-2.167.426c-1.976,0-3.229-1.233-3.229-4.206v-4.5l-1.719-.149V570.57h1.783l.234-3.164h1.848v3.164h2.952Z" fill="#fff"/>
      <path id="Trazado_198234" data-name="Trazado 198234" d="M136.089,570.336a3.068,3.068,0,0,1,2.145.914l-.7,1.8a2.785,2.785,0,0,0-1.7-.616c-1.168,0-2.144.871-2.144,2.549v5.8H131.5V573.48c0-.913-.021-1.381-.892-1.316l-.022-1.573c1.274-.339,2.995-.191,2.995,1.36A2.486,2.486,0,0,1,136.089,570.336Z" fill="#fff"/>
      <path id="Trazado_198235" data-name="Trazado 198235" d="M140.61,565.877a1.249,1.249,0,0,1,1.275,1.359,1.264,1.264,0,0,1-1.253,1.38,1.37,1.37,0,0,1-.022-2.739Zm-1.1,4.671h2.188v10.239h-2.188Z" fill="#fff"/>
      <path id="Trazado_198236" data-name="Trazado 198236" d="M150.741,578.769v2.018h-7.328v-.467l4.248-7.881H143.69v-1.891h7.051v.3l-4.269,7.923Z" fill="#fff"/>
      <path id="Trazado_198237" data-name="Trazado 198237" d="M165.138,577.771c0,.934-.022,1.529.891,1.423v1.571c-1.359.34-2.633.192-2.633-1.911a3,3,0,0,1-2.931,2.124c-2.485,0-3.951-1.934-3.951-5.352,0-2.719,1.211-5.29,3.845-5.29a2.8,2.8,0,0,1,2.74,1.572v-6.754h2.039Zm-4.206,1.147c1.423,0,2.1-1.423,2.1-3.377,0-1.636-.636-3.272-2.144-3.272-1.572,0-2.188,1.508-2.188,3.314C158.7,577.877,159.509,578.918,160.932,578.918Z" fill="#fff"/>
      <path id="Trazado_198238" data-name="Trazado 198238" d="M175.352,578.365l.063,1.827a5.77,5.77,0,0,1-3.058.786c-3.1,0-5.119-1.954-5.012-5.586.063-3.293,2.209-5.056,4.418-5.056,2.527,0,3.972,1.211,3.972,3.314,0,3.207-3.952,3.675-6.288,2.676a2.759,2.759,0,0,0,3.038,2.8A6.161,6.161,0,0,0,175.352,578.365Zm-5.82-3.589c1.53.743,4.078.658,4.078-1.041,0-1-.679-1.551-1.805-1.551C170.637,572.184,169.724,572.992,169.532,574.776Z" fill="#fff"/>
      <path id="Trazado_198239" data-name="Trazado 198239" d="M98.174,598.716l.063,1.827a5.77,5.77,0,0,1-3.058.786c-3.1,0-5.118-1.954-5.012-5.587.064-3.292,2.209-5.055,4.418-5.055,2.527,0,3.972,1.211,3.972,3.314,0,3.207-3.951,3.674-6.287,2.676a2.757,2.757,0,0,0,3.037,2.8A6.184,6.184,0,0,0,98.174,598.716Zm-5.819-3.589c1.529.743,4.078.658,4.078-1.042,0-1-.68-1.55-1.806-1.55C93.459,592.535,92.546,593.342,92.355,595.127Z" fill="#fff"/>
      <path id="Trazado_198240" data-name="Trazado 198240" d="M105.882,590.9h2.166c1.189,4.142,1.827,10.429-3.334,10.429-2.7,0-4.164-1.658-4.164-4.525v-2.7c0-1.211.043-1.742-.977-1.508V590.92c1.678-.381,3.165-.169,3.165,2.167V596.8c0,1.53.722,2.613,1.976,2.613C107.751,599.417,106.647,593.193,105.882,590.9Z" fill="#fff"/>
      <path id="Trazado_198241" data-name="Trazado 198241" d="M119.048,598.121c0,.892-.021,1.529.893,1.423v1.572c-1.3.34-2.656.191-2.656-1.848a2.932,2.932,0,0,1-2.91,2.061c-2.485,0-3.929-1.954-3.929-5.331,0-3.165,2-5.311,4.992-5.311a7.263,7.263,0,0,1,3.61.977Zm-2.1-5.119a3.352,3.352,0,0,0-1.677-.4c-1.593,0-2.634,1.21-2.634,3.4,0,2.059.828,3.27,2.209,3.27,1.359,0,2.1-1.444,2.1-3.4Z" fill="#fff"/>
      <path id="Trazado_198242" data-name="Trazado 198242" d="M123.846,597.484c0,1.359.106,2.018,1.231,2.018a3.605,3.605,0,0,0,.595-.064l.063,1.763a7.55,7.55,0,0,1-1.294.148c-1.891,0-2.784-1.019-2.784-3.844V585.611h2.189Z" fill="#fff"/>
      <path id="Trazado_198243" data-name="Trazado 198243" d="M134.995,598.164c0,1.253.064,1.572.892,1.465l.021,1.508c-.679.17-2.782.722-2.846-1.359a3,3,0,0,1-2.825,1.571c-2.485,0-3.4-1.869-3.4-4.375V590.9h2.188v6.074c0,1.636.679,2.528,1.72,2.528,1.211,0,2.061-1.062,2.061-2.591V590.9h2.187Z" fill="#fff"/>
      <path id="Trazado_198244" data-name="Trazado 198244" d="M145.8,598.121c0,.892-.022,1.529.892,1.423v1.572c-1.295.34-2.655.191-2.655-1.848a2.933,2.933,0,0,1-2.91,2.061c-2.485,0-3.929-1.954-3.929-5.331,0-3.165,2-5.311,4.992-5.311a7.263,7.263,0,0,1,3.61.977ZM143.7,593a3.352,3.352,0,0,0-1.677-.4c-1.593,0-2.634,1.21-2.634,3.4,0,2.059.828,3.27,2.209,3.27,1.359,0,2.1-1.444,2.1-3.4Z" fill="#fff"/>
      <path id="Trazado_198245" data-name="Trazado 198245" d="M154.722,594.34a1.972,1.972,0,0,0-2.1-1.635c-1.253,0-2.485,1-2.485,3.293,0,2.4,1.3,3.4,2.485,3.4a2.175,2.175,0,0,0,2.124-1.912h2.082a4.139,4.139,0,0,1-4.248,3.865c-2.295,0-4.588-1.529-4.588-5.351,0-3.655,2.336-5.311,4.609-5.311a3.944,3.944,0,0,1,4.184,3.653Z" fill="#fff"/>
      <path id="Trazado_198246" data-name="Trazado 198246" d="M159.753,586.226a1.249,1.249,0,0,1,1.274,1.359,1.263,1.263,0,0,1-1.252,1.381,1.371,1.371,0,0,1-.022-2.74Zm-1.1,4.674h2.187v10.237h-2.187Z" fill="#fff"/>
      <path id="Trazado_198247" data-name="Trazado 198247" d="M167.335,601.349c-2.762,0-4.588-2.144-4.588-5.373,0-3.165,1.826-5.289,4.588-5.289,2.782,0,4.609,2.124,4.609,5.289C171.944,599.205,170.117,601.349,167.335,601.349Zm0-1.974c1.529,0,2.506-1.36,2.506-3.4,0-2.017-.977-3.313-2.506-3.313-1.508,0-2.485,1.3-2.485,3.313C164.85,598.015,165.827,599.375,167.335,599.375Zm.275-13.552,2,.807v.212l-1.593,2.337h-1.806v-.234Z" fill="#fff"/>
      <path id="Trazado_198248" data-name="Trazado 198248" d="M182.454,598.7c0,.68.107,1.041.956.934v1.466c-1.677.382-3.143.127-3.143-2.315v-3.653c0-1.615-.7-2.592-1.891-2.592-1.273,0-2.059,1.1-2.059,2.783v5.819h-2.189v-7.264c0-1.21-.042-1.508-.892-1.444v-1.551c1.211-.3,2.911-.4,2.911,1.338a3.078,3.078,0,0,1,2.888-1.529c2.57,0,3.419,1.912,3.419,4.44Z" fill="#fff"/>
    </g>
    <rect id="Rectángulo_44986" data-name="Rectángulo 44986" width="169.659" height="64.762" rx="13.327" transform="translate(290.562 551.391)" fill="#fedc72"/>
    <g id="Grupo_135839" data-name="Grupo 135839">
      <path id="Trazado_198249" data-name="Trazado 198249" d="M346.044,572.014H351.2v2.1h-5.161v4.461h5.608v2.209h-7.838V565.919h7.71V568h-5.48Z" fill="#5038a1"/>
      <path id="Trazado_198250" data-name="Trazado 198250" d="M359.275,570.548h2.166c1.189,4.143,1.827,10.43-3.334,10.43-2.7,0-4.164-1.657-4.164-4.524v-2.7c0-1.211.042-1.742-.977-1.508V570.57c1.678-.382,3.165-.17,3.165,2.167v3.717c0,1.529.722,2.612,1.976,2.612C361.144,579.066,360.039,572.843,359.275,570.548Z" fill="#5038a1"/>
      <path id="Trazado_198251" data-name="Trazado 198251" d="M372.44,577.771c0,.892-.021,1.529.892,1.423v1.571c-1.3.34-2.655.192-2.655-1.847a2.931,2.931,0,0,1-2.91,2.06c-2.485,0-3.93-1.954-3.93-5.332,0-3.164,2-5.31,4.992-5.31a7.265,7.265,0,0,1,3.611.978Zm-2.1-5.119a3.363,3.363,0,0,0-1.678-.4c-1.593,0-2.633,1.211-2.633,3.4,0,2.061.828,3.272,2.209,3.272,1.359,0,2.1-1.445,2.1-3.4Z" fill="#5038a1"/>
      <path id="Trazado_198252" data-name="Trazado 198252" d="M377.238,577.133c0,1.36.107,2.018,1.232,2.018a3.516,3.516,0,0,0,.6-.064l.063,1.763a7.578,7.578,0,0,1-1.295.15c-1.89,0-2.783-1.02-2.783-3.845v-11.9h2.188Z" fill="#5038a1"/>
      <path id="Trazado_198253" data-name="Trazado 198253" d="M388.388,577.813c0,1.253.063,1.571.891,1.466l.022,1.508c-.68.17-2.782.722-2.847-1.36A3,3,0,0,1,383.63,581c-2.485,0-3.4-1.87-3.4-4.376v-6.076h2.187v6.076c0,1.635.68,2.527,1.721,2.527,1.211,0,2.06-1.062,2.06-2.591v-6.012h2.188Z" fill="#5038a1"/>
      <path id="Trazado_198254" data-name="Trazado 198254" d="M399.2,577.771c0,.892-.02,1.529.893,1.423v1.571c-1.3.34-2.655.192-2.655-1.847a2.931,2.931,0,0,1-2.91,2.06c-2.485,0-3.93-1.954-3.93-5.332,0-3.164,2-5.31,4.992-5.31a7.262,7.262,0,0,1,3.61.978Zm-2.1-5.119a3.365,3.365,0,0,0-1.678-.4c-1.594,0-2.634,1.211-2.634,3.4,0,2.061.829,3.272,2.209,3.272,1.36,0,2.1-1.445,2.1-3.4Z" fill="#5038a1"/>
      <path id="Trazado_198255" data-name="Trazado 198255" d="M406.734,570.336a3.064,3.064,0,0,1,2.144.914l-.7,1.8a2.787,2.787,0,0,0-1.7-.616c-1.168,0-2.145.871-2.145,2.549v5.8h-2.187V573.48c0-.913-.022-1.381-.893-1.316l-.021-1.573c1.274-.339,2.995-.191,2.995,1.36A2.486,2.486,0,0,1,406.734,570.336Z" fill="#5038a1"/>
      <path id="Trazado_198256" data-name="Trazado 198256" d="M332.474,593.916c0-1.02.021-1.551-.892-1.381V590.9c1.3-.34,2.676-.086,2.676,1.783a3,3,0,0,1,2.889-2c2.7,0,3.971,2.422,3.971,5.289,0,2.8-1.273,5.373-3.865,5.373a2.732,2.732,0,0,1-2.762-1.508v6.522h-2.017Zm4.269-1.147c-1.274,0-2.145,1.253-2.145,3.143,0,2.125.871,3.505,2.145,3.505,1.36,0,2.188-1.253,2.188-3.441C338.931,593.916,338.1,592.769,336.743,592.769Z" fill="#5038a1"/>
      <path id="Trazado_198257" data-name="Trazado 198257" d="M347.892,590.687a3.063,3.063,0,0,1,2.144.913l-.7,1.806a2.779,2.779,0,0,0-1.7-.616c-1.168,0-2.145.871-2.145,2.548v5.8H343.3v-7.306c0-.913-.022-1.381-.893-1.318l-.021-1.571c1.274-.34,2.995-.191,2.995,1.359A2.487,2.487,0,0,1,347.892,590.687Z" fill="#5038a1"/>
      <path id="Trazado_198258" data-name="Trazado 198258" d="M355.154,601.349c-2.761,0-4.587-2.144-4.587-5.373,0-3.165,1.826-5.289,4.587-5.289,2.783,0,4.609,2.124,4.609,5.289C359.763,599.205,357.937,601.349,355.154,601.349Zm0-1.974c1.53,0,2.506-1.36,2.506-3.4,0-2.017-.976-3.313-2.506-3.313-1.508,0-2.485,1.3-2.485,3.313C352.669,598.015,353.646,599.375,355.154,599.375Z" fill="#5038a1"/>
      <path id="Trazado_198259" data-name="Trazado 198259" d="M367.11,590.9h2.166c1.189,4.142,1.827,10.429-3.335,10.429-2.7,0-4.163-1.658-4.163-4.525v-2.7c0-1.211.042-1.742-.977-1.508V590.92c1.678-.381,3.165-.169,3.165,2.167V596.8c0,1.53.722,2.613,1.975,2.613C368.979,599.417,367.874,593.193,367.11,590.9Z" fill="#5038a1"/>
      <path id="Trazado_198260" data-name="Trazado 198260" d="M379.681,598.716l.064,1.827a5.775,5.775,0,0,1-3.058.786c-3.1,0-5.119-1.954-5.014-5.587.064-3.292,2.209-5.055,4.418-5.055,2.528,0,3.973,1.211,3.973,3.314,0,3.207-3.952,3.674-6.287,2.676a2.757,2.757,0,0,0,3.037,2.8A6.184,6.184,0,0,0,379.681,598.716Zm-5.82-3.589c1.53.743,4.079.658,4.079-1.042,0-1-.68-1.55-1.806-1.55C374.966,592.535,374.052,593.342,373.861,595.127Z" fill="#5038a1"/>
      <path id="Trazado_198261" data-name="Trazado 198261" d="M389.47,598.716l.064,1.827a5.775,5.775,0,0,1-3.058.786c-3.1,0-5.119-1.954-5.014-5.587.065-3.292,2.209-5.055,4.418-5.055,2.528,0,3.973,1.211,3.973,3.314,0,3.207-3.951,3.674-6.287,2.676a2.757,2.757,0,0,0,3.037,2.8A6.184,6.184,0,0,0,389.47,598.716Zm-5.819-3.589c1.529.743,4.078.658,4.078-1.042,0-1-.68-1.55-1.806-1.55C384.755,592.535,383.841,593.342,383.651,595.127Z" fill="#5038a1"/>
      <path id="Trazado_198262" data-name="Trazado 198262" d="M399.9,598.121c0,.935-.022,1.529.891,1.423v1.572c-1.359.34-2.634.191-2.634-1.911a3,3,0,0,1-2.93,2.124c-2.486,0-3.951-1.933-3.951-5.353,0-2.719,1.211-5.289,3.844-5.289a2.8,2.8,0,0,1,2.741,1.572V585.5H399.9Zm-4.206,1.147c1.423,0,2.1-1.423,2.1-3.377,0-1.636-.638-3.271-2.145-3.271-1.573,0-2.189,1.508-2.189,3.313C393.46,598.227,394.268,599.268,395.691,599.268Z" fill="#5038a1"/>
      <path id="Trazado_198263" data-name="Trazado 198263" d="M406.67,601.349c-2.762,0-4.588-2.144-4.588-5.373,0-3.165,1.826-5.289,4.588-5.289,2.782,0,4.608,2.124,4.608,5.289C411.278,599.205,409.452,601.349,406.67,601.349Zm0-1.974c1.529,0,2.506-1.36,2.506-3.4,0-2.017-.977-3.313-2.506-3.313-1.509,0-2.485,1.3-2.485,3.313C404.185,598.015,405.161,599.375,406.67,599.375Z" fill="#5038a1"/>
      <path id="Trazado_198264" data-name="Trazado 198264" d="M418.052,590.687a3.063,3.063,0,0,1,2.144.913l-.7,1.806a2.779,2.779,0,0,0-1.7-.616c-1.168,0-2.144.871-2.144,2.548v5.8h-2.188v-7.306c0-.913-.021-1.381-.893-1.318l-.021-1.571c1.274-.34,3-.191,3,1.359A2.487,2.487,0,0,1,418.052,590.687Z" fill="#5038a1"/>
    </g>
    <rect id="Rectángulo_44987" data-name="Rectángulo 44987" width="169.659" height="64.762" rx="13.327" transform="translate(290.562 424.894)" fill="#fedc72"/>
    <g id="Grupo_135840" data-name="Grupo 135840">
      <path id="Trazado_198265" data-name="Trazado 198265" d="M317.527,439.42c2.889,0,4.652,2.421,4.652,5.247,0,2.782-1.869,5.161-4.631,5.161h-2.761v4.461h-2.379V439.42Zm0,8.242c1.3,0,2.4-1.253,2.4-3.059s-1.062-3.037-2.4-3.037h-2.782v6.1Z" fill="#5038a1"/>
      <path id="Trazado_198266" data-name="Trazado 198266" d="M331.946,451.315c0,1.253.064,1.571.892,1.466l.022,1.508c-.68.17-2.783.722-2.847-1.36a3,3,0,0,1-2.824,1.573c-2.486,0-3.4-1.87-3.4-4.376V444.05h2.188v6.076c0,1.635.679,2.527,1.72,2.527,1.211,0,2.061-1.062,2.061-2.591V444.05h2.187Z" fill="#5038a1"/>
      <path id="Trazado_198267" data-name="Trazado 198267" d="M343.243,451.846c0,.68.106,1.04.955.935v1.465c-1.677.382-3.143.128-3.143-2.315v-3.653c0-1.614-.7-2.592-1.89-2.592-1.275,0-2.06,1.1-2.06,2.782v5.821h-2.188v-7.264c0-1.211-.043-1.509-.892-1.445v-1.55c1.21-.3,2.91-.4,2.91,1.338a3.077,3.077,0,0,1,2.888-1.53c2.571,0,3.42,1.912,3.42,4.44Z" fill="#5038a1"/>
      <path id="Trazado_198268" data-name="Trazado 198268" d="M351.5,445.793h-2.952v4.481c0,1.7.7,2.379,1.7,2.379a3.517,3.517,0,0,0,1.338-.36l.213,1.783a6.628,6.628,0,0,1-2.167.426c-1.975,0-3.229-1.233-3.229-4.207v-4.5l-1.72-.149v-1.572h1.785l.233-3.164h1.848v3.164H351.5Z" fill="#5038a1"/>
      <path id="Trazado_198269" data-name="Trazado 198269" d="M361.378,451.315c0,1.253.064,1.571.892,1.466l.021,1.508c-.68.17-2.782.722-2.847-1.36a3,3,0,0,1-2.824,1.573c-2.485,0-3.4-1.87-3.4-4.376V444.05h2.187v6.076c0,1.635.68,2.527,1.721,2.527,1.211,0,2.061-1.062,2.061-2.591V444.05h2.187Z" fill="#5038a1"/>
      <path id="Trazado_198270" data-name="Trazado 198270" d="M372.186,451.273c0,.892-.021,1.529.892,1.423v1.571c-1.3.34-2.655.192-2.655-1.848a2.931,2.931,0,0,1-2.91,2.061c-2.485,0-3.93-1.954-3.93-5.332,0-3.164,2-5.31,4.992-5.31a7.265,7.265,0,0,1,3.611.978Zm-2.1-5.119a3.352,3.352,0,0,0-1.678-.4c-1.593,0-2.633,1.21-2.633,3.4,0,2.061.828,3.271,2.209,3.271,1.359,0,2.1-1.444,2.1-3.4Z" fill="#5038a1"/>
      <path id="Trazado_198271" data-name="Trazado 198271" d="M381.1,447.492a1.972,1.972,0,0,0-2.1-1.636c-1.253,0-2.485,1-2.485,3.292,0,2.4,1.3,3.4,2.485,3.4a2.173,2.173,0,0,0,2.124-1.911h2.081a4.139,4.139,0,0,1-4.248,3.867c-2.293,0-4.588-1.53-4.588-5.354,0-3.652,2.337-5.31,4.61-5.31a3.945,3.945,0,0,1,4.184,3.654Z" fill="#5038a1"/>
      <path id="Trazado_198272" data-name="Trazado 198272" d="M386.136,439.378a1.249,1.249,0,0,1,1.274,1.36,1.263,1.263,0,0,1-1.253,1.38,1.371,1.371,0,0,1-.021-2.74Zm-1.1,4.672h2.188v10.239h-2.188Z" fill="#5038a1"/>
      <path id="Trazado_198273" data-name="Trazado 198273" d="M393.717,454.5c-2.762,0-4.588-2.146-4.588-5.375,0-3.165,1.826-5.289,4.588-5.289,2.782,0,4.608,2.124,4.608,5.289C398.325,452.356,396.5,454.5,393.717,454.5Zm0-1.976c1.529,0,2.506-1.359,2.506-3.4,0-2.018-.977-3.313-2.506-3.313-1.509,0-2.485,1.3-2.485,3.313C391.232,451.167,392.208,452.526,393.717,452.526Zm.276-13.552,2,.808v.212l-1.592,2.337h-1.806V442.1Z" fill="#5038a1"/>
      <path id="Trazado_198274" data-name="Trazado 198274" d="M408.837,451.846c0,.68.107,1.04.956.935v1.465c-1.678.382-3.143.128-3.143-2.315v-3.653c0-1.614-.7-2.592-1.891-2.592-1.274,0-2.06,1.1-2.06,2.782v5.821h-2.188v-7.264c0-1.211-.042-1.509-.892-1.445v-1.55c1.211-.3,2.91-.4,2.91,1.338a3.08,3.08,0,0,1,2.889-1.53c2.569,0,3.419,1.912,3.419,4.44Z" fill="#5038a1"/>
      <path id="Trazado_198275" data-name="Trazado 198275" d="M423.914,451.273c0,.934-.021,1.529.892,1.423v1.571c-1.36.34-2.634.192-2.634-1.911a3,3,0,0,1-2.931,2.124c-2.485,0-3.951-1.934-3.951-5.353,0-2.718,1.211-5.289,3.845-5.289a2.8,2.8,0,0,1,2.74,1.572v-6.754h2.039Zm-4.206,1.146c1.424,0,2.1-1.422,2.1-3.376,0-1.636-.638-3.272-2.146-3.272-1.572,0-2.188,1.508-2.188,3.314C417.478,451.378,418.285,452.419,419.708,452.419Z" fill="#5038a1"/>
      <path id="Trazado_198276" data-name="Trazado 198276" d="M434.127,451.867l.064,1.827a5.776,5.776,0,0,1-3.059.786c-3.1,0-5.118-1.954-5.012-5.586.064-3.293,2.209-5.056,4.418-5.056,2.528,0,3.972,1.211,3.972,3.314,0,3.207-3.951,3.675-6.287,2.676a2.758,2.758,0,0,0,3.037,2.8A6.161,6.161,0,0,0,434.127,451.867Zm-5.819-3.589c1.529.743,4.078.658,4.078-1.041,0-1-.68-1.551-1.806-1.551C429.412,445.686,428.5,446.494,428.308,448.278Z" fill="#5038a1"/>
      <path id="Trazado_198277" data-name="Trazado 198277" d="M438.522,450.635c0,1.36.106,2.018,1.231,2.018a3.509,3.509,0,0,0,.6-.064l.063,1.763a7.567,7.567,0,0,1-1.3.15c-1.89,0-2.783-1.02-2.783-3.845v-11.9h2.189Z" fill="#5038a1"/>
      <path id="Trazado_198278" data-name="Trazado 198278" d="M332.474,467.418c0-1.02.021-1.551-.892-1.381V464.4c1.3-.34,2.676-.086,2.676,1.783a3,3,0,0,1,2.889-2c2.7,0,3.971,2.422,3.971,5.289,0,2.8-1.273,5.373-3.865,5.373a2.732,2.732,0,0,1-2.762-1.508v6.522h-2.017Zm4.269-1.147c-1.274,0-2.145,1.253-2.145,3.143,0,2.125.871,3.505,2.145,3.505,1.36,0,2.188-1.253,2.188-3.441C338.931,467.418,338.1,466.271,336.743,466.271Z" fill="#5038a1"/>
      <path id="Trazado_198279" data-name="Trazado 198279" d="M347.892,464.189a3.063,3.063,0,0,1,2.144.913l-.7,1.806a2.779,2.779,0,0,0-1.7-.616c-1.168,0-2.145.871-2.145,2.548v5.8H343.3v-7.306c0-.914-.022-1.381-.893-1.318l-.021-1.571c1.274-.34,2.995-.192,2.995,1.359A2.487,2.487,0,0,1,347.892,464.189Z" fill="#5038a1"/>
      <path id="Trazado_198280" data-name="Trazado 198280" d="M355.154,474.851c-2.761,0-4.587-2.144-4.587-5.373,0-3.165,1.826-5.289,4.587-5.289,2.783,0,4.609,2.124,4.609,5.289C359.763,472.707,357.937,474.851,355.154,474.851Zm0-1.974c1.53,0,2.506-1.36,2.506-3.4,0-2.018-.976-3.313-2.506-3.313-1.508,0-2.485,1.295-2.485,3.313C352.669,471.517,353.646,472.877,355.154,472.877Z" fill="#5038a1"/>
      <path id="Trazado_198281" data-name="Trazado 198281" d="M367.11,464.4h2.166c1.189,4.142,1.827,10.429-3.335,10.429-2.7,0-4.163-1.658-4.163-4.525v-2.7c0-1.211.042-1.742-.977-1.508v-1.679c1.678-.381,3.165-.17,3.165,2.167v3.717c0,1.529.722,2.613,1.975,2.613C368.979,472.919,367.874,466.7,367.11,464.4Z" fill="#5038a1"/>
      <path id="Trazado_198282" data-name="Trazado 198282" d="M379.681,472.218l.064,1.826a5.767,5.767,0,0,1-3.058.787c-3.1,0-5.119-1.954-5.014-5.587.064-3.292,2.209-5.055,4.418-5.055,2.528,0,3.973,1.211,3.973,3.313,0,3.208-3.952,3.675-6.287,2.677a2.757,2.757,0,0,0,3.037,2.8A6.184,6.184,0,0,0,379.681,472.218Zm-5.82-3.59c1.53.744,4.079.659,4.079-1.041,0-1-.68-1.55-1.806-1.55C374.966,466.037,374.052,466.844,373.861,468.628Z" fill="#5038a1"/>
      <path id="Trazado_198283" data-name="Trazado 198283" d="M389.47,472.218l.064,1.826a5.767,5.767,0,0,1-3.058.787c-3.1,0-5.119-1.954-5.014-5.587.065-3.292,2.209-5.055,4.418-5.055,2.528,0,3.973,1.211,3.973,3.313,0,3.208-3.951,3.675-6.287,2.677a2.757,2.757,0,0,0,3.037,2.8A6.184,6.184,0,0,0,389.47,472.218Zm-5.819-3.59c1.529.744,4.078.659,4.078-1.041,0-1-.68-1.55-1.806-1.55C384.755,466.037,383.841,466.844,383.651,468.628Z" fill="#5038a1"/>
      <path id="Trazado_198284" data-name="Trazado 198284" d="M399.9,471.623c0,.935-.022,1.529.891,1.423v1.572c-1.359.34-2.634.191-2.634-1.911a3,3,0,0,1-2.93,2.124c-2.486,0-3.951-1.933-3.951-5.353,0-2.719,1.211-5.289,3.844-5.289a2.8,2.8,0,0,1,2.741,1.572v-6.755H399.9Zm-4.206,1.147c1.423,0,2.1-1.423,2.1-3.377,0-1.636-.638-3.271-2.145-3.271-1.573,0-2.189,1.508-2.189,3.313C393.46,471.729,394.268,472.77,395.691,472.77Z" fill="#5038a1"/>
      <path id="Trazado_198285" data-name="Trazado 198285" d="M406.67,474.851c-2.762,0-4.588-2.144-4.588-5.373,0-3.165,1.826-5.289,4.588-5.289,2.782,0,4.608,2.124,4.608,5.289C411.278,472.707,409.452,474.851,406.67,474.851Zm0-1.974c1.529,0,2.506-1.36,2.506-3.4,0-2.018-.977-3.313-2.506-3.313-1.509,0-2.485,1.295-2.485,3.313C404.185,471.517,405.161,472.877,406.67,472.877Z" fill="#5038a1"/>
      <path id="Trazado_198286" data-name="Trazado 198286" d="M418.052,464.189a3.063,3.063,0,0,1,2.144.913l-.7,1.806a2.779,2.779,0,0,0-1.7-.616c-1.168,0-2.144.871-2.144,2.548v5.8h-2.188v-7.306c0-.914-.021-1.381-.893-1.318l-.021-1.571c1.274-.34,3-.192,3,1.359A2.487,2.487,0,0,1,418.052,464.189Z" fill="#5038a1"/>
    </g>
    <rect id="Rectángulo_44988" data-name="Rectángulo 44988" width="169.659" height="64.762" rx="13.327" transform="translate(613.111 314.267)" fill="#fdb74d"/>
    <g id="Grupo_135841" data-name="Grupo 135841">
      <path id="Trazado_198287" data-name="Trazado 198287" d="M644.1,343.663l-2.889-5.161h-2.57v5.161h-2.379V328.794h5.2c2.8,0,4.5,2.188,4.5,4.843a4.57,4.57,0,0,1-2.507,4.4l3.08,5.267v.362Zm-2.656-7.264c1.275,0,2.251-1.126,2.251-2.74a2.454,2.454,0,0,0-2.251-2.719H638.6V336.4Z"/>
      <path id="Trazado_198288" data-name="Trazado 198288" d="M655.462,341.241l.064,1.827a5.776,5.776,0,0,1-3.059.786c-3.1,0-5.118-1.954-5.012-5.586.064-3.293,2.209-5.056,4.418-5.056,2.528,0,3.972,1.211,3.972,3.314,0,3.207-3.951,3.675-6.287,2.676a2.758,2.758,0,0,0,3.037,2.8A6.161,6.161,0,0,0,655.462,341.241Zm-5.819-3.589c1.529.743,4.078.658,4.078-1.041,0-1-.68-1.551-1.806-1.551C650.747,335.06,649.834,335.868,649.643,337.652Z"/>
      <path id="Trazado_198289" data-name="Trazado 198289" d="M658.029,336.441c0-1.02.022-1.551-.891-1.381v-1.636c1.3-.339,2.676-.084,2.676,1.786a3,3,0,0,1,2.888-2c2.7,0,3.972,2.421,3.972,5.29,0,2.8-1.273,5.374-3.865,5.374a2.734,2.734,0,0,1-2.762-1.509v6.52h-2.018Zm4.27-1.147c-1.274,0-2.146,1.253-2.146,3.144,0,2.123.872,3.5,2.146,3.5,1.359,0,2.187-1.253,2.187-3.44C664.486,336.441,663.658,335.294,662.3,335.294Z"/>
      <path id="Trazado_198290" data-name="Trazado 198290" d="M672.661,343.876c-2.761,0-4.588-2.146-4.588-5.374,0-3.166,1.827-5.29,4.588-5.29,2.783,0,4.609,2.124,4.609,5.29C677.27,341.73,675.444,343.876,672.661,343.876Zm0-1.976c1.53,0,2.506-1.359,2.506-3.4,0-2.019-.976-3.314-2.506-3.314-1.509,0-2.485,1.3-2.485,3.314C670.176,340.541,671.152,341.9,672.661,341.9Z"/>
      <path id="Trazado_198291" data-name="Trazado 198291" d="M684.043,333.212a3.067,3.067,0,0,1,2.146.914l-.7,1.8a2.792,2.792,0,0,0-1.7-.616c-1.169,0-2.145.871-2.145,2.549v5.8h-2.189v-7.307c0-.913-.02-1.381-.891-1.316l-.022-1.573c1.275-.34,2.995-.191,2.995,1.36A2.487,2.487,0,0,1,684.043,333.212Z"/>
      <path id="Trazado_198292" data-name="Trazado 198292" d="M693.28,335.167h-2.952v4.481c0,1.7.7,2.379,1.7,2.379a3.517,3.517,0,0,0,1.338-.36l.213,1.783a6.623,6.623,0,0,1-2.167.426c-1.975,0-3.228-1.233-3.228-4.207v-4.5l-1.72-.149v-1.572h1.783l.235-3.164h1.847v3.164h2.952Z"/>
      <path id="Trazado_198293" data-name="Trazado 198293" d="M702.6,341.241l.063,1.827a5.77,5.77,0,0,1-3.058.786c-3.1,0-5.119-1.954-5.012-5.586.063-3.293,2.209-5.056,4.418-5.056,2.527,0,3.971,1.211,3.971,3.314,0,3.207-3.951,3.675-6.287,2.676a2.759,2.759,0,0,0,3.037,2.8A6.162,6.162,0,0,0,702.6,341.241Zm-5.82-3.589c1.53.743,4.078.658,4.078-1.041,0-1-.679-1.551-1.8-1.551C697.888,335.06,696.975,335.868,696.783,337.652Z"/>
      <path id="Trazado_198294" data-name="Trazado 198294" d="M717.426,340.647c0,.934-.022,1.529.892,1.423v1.571c-1.36.34-2.634.192-2.634-1.911a3,3,0,0,1-2.931,2.124c-2.485,0-3.951-1.934-3.951-5.352,0-2.719,1.211-5.29,3.845-5.29a2.8,2.8,0,0,1,2.74,1.572V328.03h2.039Zm-4.206,1.147c1.423,0,2.1-1.423,2.1-3.377,0-1.636-.636-3.272-2.144-3.272-1.572,0-2.188,1.508-2.188,3.314C710.99,340.752,711.8,341.794,713.22,341.794Z"/>
      <path id="Trazado_198295" data-name="Trazado 198295" d="M727.639,341.241l.064,1.827a5.775,5.775,0,0,1-3.058.786c-3.1,0-5.119-1.954-5.014-5.586.064-3.293,2.209-5.056,4.418-5.056,2.528,0,3.973,1.211,3.973,3.314,0,3.207-3.952,3.675-6.287,2.676a2.758,2.758,0,0,0,3.037,2.8A6.161,6.161,0,0,0,727.639,341.241Zm-5.82-3.589c1.53.743,4.079.658,4.079-1.041,0-1-.68-1.551-1.806-1.551C722.924,335.06,722.01,335.868,721.819,337.652Z"/>
      <path id="Trazado_198296" data-name="Trazado 198296" d="M736.959,343.663h-2.336V328.752h.786l7.455,9.537-.085-4.079v-5.416h2.336v14.89h-.763l-7.477-9.6.084,4.184Z"/>
      <path id="Trazado_198297" data-name="Trazado 198297" d="M753.863,343.876c-3.483,0-6.415-2.549-6.415-7.647s3.059-7.646,6.457-7.646c3.357,0,6.415,2.612,6.415,7.646C760.32,341.135,757.644,343.876,753.863,343.876Zm.042-2.209c2.209,0,4.079-1.849,4.079-5.438,0-3.568-1.848-5.437-4.057-5.437-2.273,0-4.142,1.889-4.142,5.437C749.785,339.818,751.611,341.667,753.905,341.667Z"/>
      <path id="Trazado_198298" data-name="Trazado 198298" d="M659.071,361c0,.892-.02,1.529.893,1.423v1.572c-1.3.34-2.655.191-2.655-1.848a2.933,2.933,0,0,1-2.91,2.061c-2.485,0-3.93-1.954-3.93-5.331,0-3.165,2-5.311,4.992-5.311a7.26,7.26,0,0,1,3.61.977Zm-2.1-5.119a3.353,3.353,0,0,0-1.678-.4c-1.594,0-2.634,1.21-2.634,3.4,0,2.059.828,3.27,2.209,3.27,1.36,0,2.1-1.444,2.1-3.4Z"/>
      <path id="Trazado_198299" data-name="Trazado 198299" d="M667.989,357.216a1.971,1.971,0,0,0-2.1-1.635c-1.253,0-2.485,1-2.485,3.293,0,2.4,1.3,3.4,2.485,3.4a2.175,2.175,0,0,0,2.124-1.912h2.081a4.138,4.138,0,0,1-4.248,3.865c-2.293,0-4.588-1.529-4.588-5.351,0-3.655,2.337-5.311,4.609-5.311a3.945,3.945,0,0,1,4.185,3.653Z"/>
      <path id="Trazado_198300" data-name="Trazado 198300" d="M679.436,361.592l.064,1.827a5.775,5.775,0,0,1-3.058.786c-3.1,0-5.12-1.954-5.014-5.587.064-3.292,2.209-5.055,4.418-5.055,2.528,0,3.973,1.211,3.973,3.314,0,3.207-3.952,3.674-6.288,2.676a2.758,2.758,0,0,0,3.038,2.8A6.184,6.184,0,0,0,679.436,361.592Zm-5.82-3.59c1.53.744,4.078.659,4.078-1.041,0-1-.679-1.55-1.8-1.55C674.721,355.411,673.807,356.218,673.616,358Z"/>
      <path id="Trazado_198301" data-name="Trazado 198301" d="M682,356.792c0-1.02.022-1.551-.892-1.381v-1.635c1.295-.34,2.676-.086,2.676,1.783a3,3,0,0,1,2.889-2c2.7,0,3.973,2.422,3.973,5.289,0,2.8-1.276,5.373-3.867,5.373a2.728,2.728,0,0,1-2.76-1.508v6.522H682Zm4.27-1.147c-1.275,0-2.146,1.253-2.146,3.143,0,2.125.871,3.505,2.146,3.505,1.359,0,2.187-1.253,2.187-3.441C688.46,356.792,687.632,355.645,686.273,355.645Z"/>
      <path id="Trazado_198302" data-name="Trazado 198302" d="M698.249,355.517H695.3V360c0,1.7.7,2.378,1.7,2.378a3.484,3.484,0,0,0,1.338-.361l.213,1.785a6.616,6.616,0,0,1-2.167.424c-1.976,0-3.228-1.231-3.228-4.205v-4.5l-1.72-.148V353.8h1.783l.234-3.165H695.3V353.8h2.952Z"/>
      <path id="Trazado_198303" data-name="Trazado 198303" d="M708.166,361c0,.892-.021,1.529.893,1.423v1.572c-1.3.34-2.656.191-2.656-1.848a2.932,2.932,0,0,1-2.91,2.061c-2.485,0-3.928-1.954-3.928-5.331,0-3.165,2-5.311,4.991-5.311a7.263,7.263,0,0,1,3.61.977Zm-2.1-5.119a3.358,3.358,0,0,0-1.678-.4c-1.593,0-2.634,1.21-2.634,3.4,0,2.059.828,3.27,2.209,3.27,1.359,0,2.1-1.444,2.1-3.4Z"/>
      <path id="Trazado_198304" data-name="Trazado 198304" d="M717.084,357.216a1.972,1.972,0,0,0-2.1-1.635c-1.253,0-2.486,1-2.486,3.293,0,2.4,1.3,3.4,2.486,3.4a2.176,2.176,0,0,0,2.124-1.912h2.082a4.14,4.14,0,0,1-4.248,3.865c-2.295,0-4.588-1.529-4.588-5.351,0-3.655,2.336-5.311,4.608-5.311a3.945,3.945,0,0,1,4.185,3.653Z"/>
      <path id="Trazado_198305" data-name="Trazado 198305" d="M722.116,349.1a1.249,1.249,0,0,1,1.275,1.359,1.264,1.264,0,0,1-1.254,1.381,1.371,1.371,0,0,1-.021-2.74Zm-1.1,4.674H723.2v10.237h-2.187Z"/>
      <path id="Trazado_198306" data-name="Trazado 198306" d="M729.7,364.225c-2.761,0-4.587-2.144-4.587-5.373,0-3.165,1.826-5.289,4.587-5.289,2.783,0,4.61,2.124,4.61,5.289C734.307,362.081,732.48,364.225,729.7,364.225Zm0-1.974c1.53,0,2.506-1.36,2.506-3.4,0-2.017-.976-3.313-2.506-3.313-1.507,0-2.485,1.3-2.485,3.313C727.212,360.891,728.19,362.251,729.7,362.251Zm.276-13.552,2,.807v.212l-1.593,2.337h-1.806v-.234Z"/>
      <path id="Trazado_198307" data-name="Trazado 198307" d="M744.819,361.571c0,.68.105,1.041.955.934v1.466c-1.678.382-3.144.127-3.144-2.315V358c0-1.614-.7-2.591-1.89-2.591-1.275,0-2.06,1.1-2.06,2.783v5.819h-2.188v-7.264c0-1.21-.043-1.508-.892-1.444v-1.551c1.211-.3,2.91-.4,2.91,1.338a3.079,3.079,0,0,1,2.889-1.529c2.57,0,3.42,1.912,3.42,4.439Z"/>
    </g>
    <rect id="Rectángulo_44989" data-name="Rectángulo 44989" width="169.659" height="64.762" rx="13.327" transform="translate(613.111 213.081)" fill="#fdb74d"/>
    <g id="Grupo_135842" data-name="Grupo 135842">
      <path id="Trazado_198308" data-name="Trazado 198308" d="M653.6,242.476v-.255l5.841-14.719h1.084l5.8,14.7v.276h-2.315l-1.148-3.08h-5.8l-1.125,3.08Zm8.517-5.161-.871-2.252-1.274-3.759-1.3,3.8-.85,2.209Z"/>
      <path id="Trazado_198309" data-name="Trazado 198309" d="M673.734,235.679a1.972,1.972,0,0,0-2.1-1.635c-1.253,0-2.485,1-2.485,3.291,0,2.4,1.3,3.4,2.485,3.4a2.174,2.174,0,0,0,2.124-1.911h2.081a4.138,4.138,0,0,1-4.248,3.866c-2.293,0-4.588-1.529-4.588-5.354,0-3.652,2.337-5.309,4.61-5.309a3.945,3.945,0,0,1,4.184,3.653Z"/>
      <path id="Trazado_198310" data-name="Trazado 198310" d="M683.48,233.98h-2.953v4.481c0,1.7.7,2.379,1.7,2.379a3.526,3.526,0,0,0,1.338-.36l.212,1.783a6.592,6.592,0,0,1-2.167.426c-1.975,0-3.228-1.232-3.228-4.206v-4.5l-1.72-.148v-1.573h1.783l.235-3.164h1.847v3.164h2.953Z"/>
      <path id="Trazado_198311" data-name="Trazado 198311" d="M693.356,239.5c0,1.253.063,1.572.891,1.466l.022,1.508c-.68.17-2.783.723-2.847-1.359a3,3,0,0,1-2.824,1.572c-2.486,0-3.4-1.869-3.4-4.376v-6.075h2.188v6.075c0,1.636.68,2.527,1.721,2.527,1.211,0,2.06-1.061,2.06-2.59v-6.012h2.188Z"/>
      <path id="Trazado_198312" data-name="Trazado 198312" d="M704.163,239.46c0,.892-.02,1.53.893,1.423v1.572c-1.3.339-2.655.191-2.655-1.848a2.933,2.933,0,0,1-2.911,2.061c-2.484,0-3.929-1.955-3.929-5.333,0-3.164,2-5.309,4.992-5.309a7.263,7.263,0,0,1,3.61.977Zm-2.1-5.119a3.368,3.368,0,0,0-1.678-.4c-1.594,0-2.634,1.211-2.634,3.4,0,2.061.828,3.272,2.209,3.272,1.36,0,2.1-1.444,2.1-3.4Z"/>
      <path id="Trazado_198313" data-name="Trazado 198313" d="M708.961,238.823c0,1.359.106,2.017,1.232,2.017a3.47,3.47,0,0,0,.594-.063l.065,1.763a7.6,7.6,0,0,1-1.3.149c-1.891,0-2.782-1.02-2.782-3.845V226.95h2.187Z"/>
      <path id="Trazado_198314" data-name="Trazado 198314" d="M713.144,227.566a1.249,1.249,0,0,1,1.274,1.359,1.264,1.264,0,0,1-1.254,1.38,1.37,1.37,0,0,1-.02-2.739Zm-1.1,4.672h2.188v10.238h-2.188Z"/>
      <path id="Trazado_198315" data-name="Trazado 198315" d="M723.275,240.459v2.017h-7.329v-.467l4.248-7.881h-3.971v-1.89h7.052v.3l-4.27,7.923Z"/>
      <path id="Trazado_198316" data-name="Trazado 198316" d="M733.127,239.46c0,.892-.021,1.53.893,1.423v1.572c-1.3.339-2.656.191-2.656-1.848a2.932,2.932,0,0,1-2.91,2.061c-2.485,0-3.928-1.955-3.928-5.333,0-3.164,2-5.309,4.991-5.309a7.263,7.263,0,0,1,3.61.977Zm-2.1-5.119a3.37,3.37,0,0,0-1.678-.4c-1.593,0-2.634,1.211-2.634,3.4,0,2.061.828,3.272,2.209,3.272,1.359,0,2.1-1.444,2.1-3.4Z"/>
      <path id="Trazado_198317" data-name="Trazado 198317" d="M740.666,232.026a3.067,3.067,0,0,1,2.145.913l-.7,1.806a2.785,2.785,0,0,0-1.7-.617c-1.168,0-2.144.872-2.144,2.549v5.8h-2.188v-7.307c0-.913-.021-1.38-.892-1.316l-.022-1.572c1.275-.34,2.995-.192,2.995,1.359A2.487,2.487,0,0,1,740.666,232.026Z"/>
      <path id="Trazado_198318" data-name="Trazado 198318" d="M641.733,254.1a2.944,2.944,0,0,1,2.76-1.7c2.4,0,3.8,1.975,3.8,5.4,0,3.313-1.826,5.246-4.97,5.246a8.115,8.115,0,0,1-3.611-.955V247.427h2.019Zm.127,6.606a3.991,3.991,0,0,0,1.677.424c1.615,0,2.528-1.21,2.528-3.334,0-2.528-.722-3.462-2.166-3.462s-2.039,2.039-2.039,3.462Z"/>
      <path id="Trazado_198319" data-name="Trazado 198319" d="M658.36,259.81c0,.893-.02,1.529.893,1.424V262.8c-1.3.34-2.655.192-2.655-1.847a2.931,2.931,0,0,1-2.91,2.06c-2.485,0-3.93-1.954-3.93-5.331,0-3.165,2-5.31,4.992-5.31a7.267,7.267,0,0,1,3.61.976Zm-2.1-5.118a3.353,3.353,0,0,0-1.678-.4c-1.594,0-2.634,1.21-2.634,3.4,0,2.06.829,3.271,2.209,3.271,1.36,0,2.1-1.445,2.1-3.4Z"/>
      <path id="Trazado_198320" data-name="Trazado 198320" d="M662.649,259.768a1.66,1.66,0,0,0,1.784,1.551c.891,0,1.762-.213,1.826-1.487-.064-1.125-1.04-1.125-1.911-1.36-1.721-.275-3.675-.913-3.675-2.952,0-2.209,1.848-3.143,3.823-3.143,2.146,0,3.7,1.041,3.632,3.08h-2c0-1.02-.913-1.338-1.721-1.338-.828,0-1.677.382-1.614,1.316,0,.85.7,1.126,1.742,1.3,1.89.276,3.844.722,3.844,3.144,0,2.294-1.891,3.164-3.972,3.164-1.932,0-3.844-.722-3.95-3.271Z"/>
      <path id="Trazado_198321" data-name="Trazado 198321" d="M677.769,260.406l.063,1.826a5.77,5.77,0,0,1-3.058.786c-3.1,0-5.119-1.954-5.012-5.587.063-3.292,2.209-5.054,4.418-5.054,2.527,0,3.972,1.21,3.972,3.313,0,3.207-3.952,3.675-6.288,2.677a2.758,2.758,0,0,0,3.038,2.8A6.184,6.184,0,0,0,677.769,260.406Zm-5.82-3.59c1.53.743,4.078.658,4.078-1.041,0-1-.679-1.551-1.8-1.551C673.054,254.224,672.141,255.032,671.949,256.816Z"/>
      <path id="Trazado_198322" data-name="Trazado 198322" d="M692.591,259.81c0,.936-.022,1.529.892,1.424V262.8c-1.36.34-2.634.192-2.634-1.911a3,3,0,0,1-2.931,2.124c-2.485,0-3.951-1.933-3.951-5.352,0-2.719,1.211-5.289,3.845-5.289a2.8,2.8,0,0,1,2.74,1.572v-6.755h2.039Zm-4.206,1.148c1.424,0,2.1-1.423,2.1-3.377,0-1.636-.637-3.272-2.145-3.272-1.572,0-2.189,1.509-2.189,3.314C686.154,259.917,686.962,260.958,688.385,260.958Z"/>
      <path id="Trazado_198323" data-name="Trazado 198323" d="M702.8,260.406l.063,1.826a5.77,5.77,0,0,1-3.058.786c-3.1,0-5.118-1.954-5.012-5.587.063-3.292,2.209-5.054,4.418-5.054,2.527,0,3.972,1.21,3.972,3.313,0,3.207-3.952,3.675-6.287,2.677a2.757,2.757,0,0,0,3.037,2.8A6.184,6.184,0,0,0,702.8,260.406Zm-5.819-3.59c1.529.743,4.078.658,4.078-1.041,0-1-.68-1.551-1.806-1.551C698.089,254.224,697.176,255.032,696.985,256.816Z"/>
      <path id="Trazado_198324" data-name="Trazado 198324" d="M717.626,259.81c0,.936-.021,1.529.892,1.424V262.8c-1.36.34-2.634.192-2.634-1.911a3,3,0,0,1-2.931,2.124c-2.485,0-3.951-1.933-3.951-5.352,0-2.719,1.211-5.289,3.845-5.289a2.8,2.8,0,0,1,2.74,1.572v-6.755h2.039Zm-4.206,1.148c1.424,0,2.1-1.423,2.1-3.377,0-1.636-.638-3.272-2.146-3.272-1.572,0-2.188,1.509-2.188,3.314C711.19,259.917,712,260.958,713.42,260.958Z"/>
      <path id="Trazado_198325" data-name="Trazado 198325" d="M728.435,259.81c0,.893-.021,1.529.892,1.424V262.8c-1.3.34-2.655.192-2.655-1.847a2.931,2.931,0,0,1-2.91,2.06c-2.485,0-3.93-1.954-3.93-5.331,0-3.165,2-5.31,4.992-5.31a7.273,7.273,0,0,1,3.611.976Zm-2.1-5.118a3.351,3.351,0,0,0-1.678-.4c-1.593,0-2.633,1.21-2.633,3.4,0,2.06.828,3.271,2.209,3.271,1.359,0,2.1-1.445,2.1-3.4Z"/>
      <path id="Trazado_198326" data-name="Trazado 198326" d="M736.928,254.331h-2.952v4.481c0,1.7.7,2.379,1.7,2.379a3.5,3.5,0,0,0,1.338-.361l.213,1.785a6.647,6.647,0,0,1-2.167.424c-1.975,0-3.229-1.232-3.229-4.2v-4.5l-1.72-.149V252.61H731.9l.233-3.165h1.848v3.165h2.952Z"/>
      <path id="Trazado_198327" data-name="Trazado 198327" d="M742.81,263.039c-2.762,0-4.588-2.145-4.588-5.373,0-3.165,1.826-5.289,4.588-5.289,2.782,0,4.608,2.124,4.608,5.289C747.418,260.894,745.592,263.039,742.81,263.039Zm0-1.975c1.529,0,2.506-1.359,2.506-3.4,0-2.018-.977-3.314-2.506-3.314-1.509,0-2.486,1.3-2.486,3.314C740.324,259.7,741.3,261.064,742.81,261.064Z"/>
      <path id="Trazado_198328" data-name="Trazado 198328" d="M750.943,259.768a1.66,1.66,0,0,0,1.784,1.551c.891,0,1.762-.213,1.826-1.487-.064-1.125-1.041-1.125-1.911-1.36-1.721-.275-3.675-.913-3.675-2.952,0-2.209,1.848-3.143,3.823-3.143,2.146,0,3.7,1.041,3.632,3.08h-2c0-1.02-.914-1.338-1.721-1.338-.828,0-1.678.382-1.614,1.316,0,.85.7,1.126,1.741,1.3,1.891.276,3.845.722,3.845,3.144,0,2.294-1.89,3.164-3.972,3.164-1.932,0-3.845-.722-3.951-3.271Z"/>
    </g>
    <rect id="Rectángulo_44990" data-name="Rectángulo 44990" width="69.379" height="64.762" rx="32.381" transform="translate(841.421 213.082)" fill="#5038a1"/>
    <rect id="Rectángulo_44991" data-name="Rectángulo 44991" width="169.659" height="64.762" rx="13.327" transform="translate(290.562 134.266)" fill="#fedc72"/>
    <g id="Grupo_135844" data-name="Grupo 135844">
      <path id="Trazado_198332" data-name="Trazado 198332" d="M337.775,163.661l-2.889-5.161h-2.57v5.161h-2.379V148.793h5.2c2.8,0,4.5,2.187,4.5,4.842a4.57,4.57,0,0,1-2.507,4.4l3.08,5.267v.362Zm-2.656-7.264c1.275,0,2.251-1.126,2.251-2.74a2.454,2.454,0,0,0-2.251-2.719h-2.846V156.4Z" fill="#5038a1"/>
      <path id="Trazado_198333" data-name="Trazado 198333" d="M349.135,161.239l.063,1.827a5.77,5.77,0,0,1-3.058.786c-3.1,0-5.118-1.954-5.012-5.586.064-3.293,2.209-5.056,4.418-5.056,2.527,0,3.972,1.211,3.972,3.314,0,3.207-3.951,3.675-6.287,2.676a2.758,2.758,0,0,0,3.037,2.8A6.161,6.161,0,0,0,349.135,161.239Zm-5.819-3.589c1.529.743,4.078.658,4.078-1.041,0-1-.68-1.551-1.806-1.551C344.42,155.058,343.507,155.866,343.316,157.65Z" fill="#5038a1"/>
      <path id="Trazado_198334" data-name="Trazado 198334" d="M351.7,156.439c0-1.02.022-1.551-.891-1.381v-1.636c1.3-.339,2.675-.084,2.675,1.786a3,3,0,0,1,2.889-2c2.7,0,3.972,2.421,3.972,5.29,0,2.8-1.274,5.374-3.865,5.374a2.734,2.734,0,0,1-2.762-1.509v6.52H351.7Zm4.27-1.147c-1.275,0-2.146,1.253-2.146,3.144,0,2.123.871,3.5,2.146,3.5,1.359,0,2.187-1.253,2.187-3.44C358.159,156.439,357.331,155.292,355.972,155.292Z" fill="#5038a1"/>
      <path id="Trazado_198335" data-name="Trazado 198335" d="M366.334,163.874c-2.762,0-4.588-2.146-4.588-5.374,0-3.165,1.826-5.29,4.588-5.29,2.782,0,4.609,2.125,4.609,5.29C370.943,161.728,369.116,163.874,366.334,163.874Zm0-1.976c1.529,0,2.506-1.359,2.506-3.4,0-2.019-.977-3.314-2.506-3.314-1.509,0-2.485,1.295-2.485,3.314C363.849,160.539,364.825,161.9,366.334,161.9Z" fill="#5038a1"/>
      <path id="Trazado_198336" data-name="Trazado 198336" d="M377.716,153.21a3.063,3.063,0,0,1,2.145.914l-.7,1.805a2.792,2.792,0,0,0-1.7-.616c-1.169,0-2.145.871-2.145,2.549v5.8h-2.189v-7.307c0-.913-.02-1.381-.892-1.316l-.021-1.573c1.274-.339,2.995-.191,2.995,1.36A2.486,2.486,0,0,1,377.716,153.21Z" fill="#5038a1"/>
      <path id="Trazado_198337" data-name="Trazado 198337" d="M386.953,155.165H384v4.481c0,1.7.7,2.379,1.7,2.379a3.517,3.517,0,0,0,1.338-.36l.213,1.783a6.623,6.623,0,0,1-2.167.426c-1.975,0-3.228-1.233-3.228-4.206v-4.5l-1.72-.149v-1.572h1.783l.234-3.164H384v3.164h2.952Z" fill="#5038a1"/>
      <path id="Trazado_198338" data-name="Trazado 198338" d="M396.276,161.239l.063,1.827a5.774,5.774,0,0,1-3.059.786c-3.1,0-5.118-1.954-5.011-5.586.063-3.293,2.209-5.056,4.418-5.056,2.527,0,3.971,1.211,3.971,3.314,0,3.207-3.951,3.675-6.287,2.676a2.759,2.759,0,0,0,3.037,2.8A6.165,6.165,0,0,0,396.276,161.239Zm-5.82-3.589c1.529.743,4.078.658,4.078-1.041,0-1-.679-1.551-1.8-1.551C391.561,155.058,390.648,155.866,390.456,157.65Z" fill="#5038a1"/>
      <path id="Trazado_198339" data-name="Trazado 198339" d="M411.1,160.645c0,.934-.022,1.529.891,1.423v1.571c-1.359.34-2.633.192-2.633-1.911a3,3,0,0,1-2.931,2.124c-2.485,0-3.951-1.933-3.951-5.352,0-2.719,1.211-5.29,3.844-5.29a2.8,2.8,0,0,1,2.741,1.572v-6.754H411.1Zm-4.206,1.147c1.423,0,2.1-1.423,2.1-3.377,0-1.636-.636-3.272-2.144-3.272-1.573,0-2.188,1.508-2.188,3.314C404.663,160.751,405.47,161.792,406.893,161.792Z" fill="#5038a1"/>
      <path id="Trazado_198340" data-name="Trazado 198340" d="M421.312,161.239l.064,1.827a5.775,5.775,0,0,1-3.058.786c-3.1,0-5.12-1.954-5.014-5.586.064-3.293,2.209-5.056,4.418-5.056,2.528,0,3.972,1.211,3.972,3.314,0,3.207-3.951,3.675-6.287,2.676a2.759,2.759,0,0,0,3.037,2.8A6.162,6.162,0,0,0,421.312,161.239Zm-5.82-3.589c1.53.743,4.078.658,4.078-1.041,0-1-.679-1.551-1.8-1.551C416.6,155.058,415.683,155.866,415.492,157.65Z" fill="#5038a1"/>
      <path id="Trazado_198341" data-name="Trazado 198341" d="M336.522,180.995c0,.892-.021,1.529.892,1.424v1.571c-1.3.34-2.655.191-2.655-1.848a2.932,2.932,0,0,1-2.91,2.061c-2.485,0-3.93-1.954-3.93-5.331,0-3.165,2-5.311,4.992-5.311a7.264,7.264,0,0,1,3.611.977Zm-2.1-5.118a3.342,3.342,0,0,0-1.678-.4c-1.593,0-2.633,1.21-2.633,3.4,0,2.059.828,3.27,2.209,3.27,1.359,0,2.1-1.444,2.1-3.4Z" fill="#5038a1"/>
      <path id="Trazado_198342" data-name="Trazado 198342" d="M345.44,177.214a1.972,1.972,0,0,0-2.1-1.635c-1.253,0-2.485,1-2.485,3.293,0,2.4,1.3,3.4,2.485,3.4a2.175,2.175,0,0,0,2.124-1.912h2.081a4.138,4.138,0,0,1-4.248,3.865c-2.293,0-4.588-1.529-4.588-5.351,0-3.655,2.337-5.311,4.61-5.311a3.945,3.945,0,0,1,4.184,3.653Z" fill="#5038a1"/>
      <path id="Trazado_198343" data-name="Trazado 198343" d="M356.886,181.59l.064,1.827a5.775,5.775,0,0,1-3.058.786c-3.1,0-5.119-1.954-5.014-5.587.065-3.292,2.209-5.055,4.418-5.055,2.528,0,3.973,1.211,3.973,3.314,0,3.207-3.951,3.674-6.287,2.676a2.757,2.757,0,0,0,3.037,2.8A6.184,6.184,0,0,0,356.886,181.59ZM351.067,178c1.529.743,4.078.658,4.078-1.041,0-1-.68-1.551-1.806-1.551C352.171,175.409,351.257,176.216,351.067,178Z" fill="#5038a1"/>
      <path id="Trazado_198344" data-name="Trazado 198344" d="M359.453,176.79c0-1.02.022-1.551-.891-1.381v-1.635c1.295-.34,2.675-.086,2.675,1.783a3,3,0,0,1,2.889-2c2.7,0,3.973,2.422,3.973,5.289,0,2.8-1.276,5.373-3.866,5.373a2.73,2.73,0,0,1-2.761-1.508v6.522h-2.019Zm4.27-1.147c-1.275,0-2.146,1.253-2.146,3.143,0,2.125.871,3.505,2.146,3.505,1.359,0,2.187-1.253,2.187-3.441C365.91,176.79,365.082,175.643,363.723,175.643Z" fill="#5038a1"/>
      <path id="Trazado_198345" data-name="Trazado 198345" d="M375.7,175.515h-2.952V180c0,1.7.7,2.379,1.7,2.379a3.489,3.489,0,0,0,1.338-.362L376,183.8a6.616,6.616,0,0,1-2.167.424c-1.975,0-3.228-1.231-3.228-4.205v-4.5l-1.72-.148v-1.573h1.783l.235-3.165h1.847v3.165H375.7Z" fill="#5038a1"/>
      <path id="Trazado_198346" data-name="Trazado 198346" d="M385.616,180.995c0,.892-.021,1.529.893,1.424v1.571c-1.3.34-2.655.191-2.655-1.848a2.934,2.934,0,0,1-2.91,2.061c-2.486,0-3.929-1.954-3.929-5.331,0-3.165,2-5.311,4.991-5.311a7.263,7.263,0,0,1,3.61.977Zm-2.1-5.118a3.347,3.347,0,0,0-1.678-.4c-1.593,0-2.634,1.21-2.634,3.4,0,2.059.828,3.27,2.209,3.27,1.36,0,2.1-1.444,2.1-3.4Z" fill="#5038a1"/>
      <path id="Trazado_198347" data-name="Trazado 198347" d="M394.534,177.214a1.972,1.972,0,0,0-2.1-1.635c-1.253,0-2.486,1-2.486,3.293,0,2.4,1.3,3.4,2.486,3.4a2.176,2.176,0,0,0,2.124-1.912h2.082a4.139,4.139,0,0,1-4.248,3.865c-2.3,0-4.588-1.529-4.588-5.351,0-3.655,2.336-5.311,4.608-5.311a3.945,3.945,0,0,1,4.185,3.653Z" fill="#5038a1"/>
      <path id="Trazado_198348" data-name="Trazado 198348" d="M399.567,169.1a1.249,1.249,0,0,1,1.274,1.36,1.263,1.263,0,0,1-1.254,1.38,1.371,1.371,0,0,1-.02-2.74Zm-1.1,4.674h2.188v10.237h-2.188Z" fill="#5038a1"/>
      <path id="Trazado_198349" data-name="Trazado 198349" d="M407.148,184.223c-2.762,0-4.588-2.144-4.588-5.373,0-3.165,1.826-5.289,4.588-5.289,2.782,0,4.609,2.124,4.609,5.289C411.757,182.079,409.93,184.223,407.148,184.223Zm0-1.974c1.529,0,2.505-1.36,2.505-3.4,0-2.017-.976-3.313-2.505-3.313-1.508,0-2.486,1.3-2.486,3.313C404.662,180.889,405.64,182.249,407.148,182.249Zm.275-13.552,2,.807v.212l-1.593,2.337h-1.8v-.234Z" fill="#5038a1"/>
      <path id="Trazado_198350" data-name="Trazado 198350" d="M422.269,181.569c0,.68.1,1.041.955.934v1.466c-1.678.382-3.144.127-3.144-2.315V178c0-1.615-.7-2.592-1.889-2.592-1.276,0-2.061,1.1-2.061,2.783v5.819h-2.187v-7.264c0-1.21-.043-1.508-.893-1.444v-1.551c1.211-.3,2.91-.4,2.91,1.338a3.079,3.079,0,0,1,2.889-1.529c2.57,0,3.42,1.912,3.42,4.44Z" fill="#5038a1"/>
    </g>
    <rect id="Rectángulo_44992" data-name="Rectángulo 44992" width="169.659" height="47.023" rx="11.356" transform="translate(290.562 323.137)" fill="#fedc72"/>
    <g id="Grupo_135845" data-name="Grupo 135845">
      <path id="Trazado_198351" data-name="Trazado 198351" d="M331.456,345.5a6.088,6.088,0,0,1-1.635,4.375,4.652,4.652,0,0,0-1.232,2.74c0,1.529.765,2.23,1.848,2.23a2.048,2.048,0,0,0,1.869-2.018h1.933c-.064,2.718-1.657,4.184-3.8,4.184-2.209.107-4.035-1.359-4.035-4.354,0-3.079,3.037-3.972,2.867-7.157Zm.213-2.422a1.272,1.272,0,0,1-1.338,1.3,1.3,1.3,0,0,1,0-2.592A1.285,1.285,0,0,1,331.669,343.08Z" fill="#5038a1"/>
      <path id="Trazado_198352" data-name="Trazado 198352" d="M337.4,348.241c.064,1.678,1.529,2.3,2.825,2.3,1.274,0,2.718-.34,2.718-2.189,0-1.954-1.657-2.166-3.016-2.336-2.293-.233-4.588-1.253-4.588-4.206,0-3.058,2.273-4.353,4.758-4.353,2.592,0,4.758,1.273,4.758,4.311h-2.188c-.105-1.593-1.316-2.1-2.57-2.1-1.125,0-2.463.382-2.463,2.081s1.273,1.911,2.7,2.145c2.612.34,4.949,1.062,4.949,4.482,0,3.292-2.613,4.376-5.034,4.376-2.507.063-5.055-1.36-5.119-4.5Z" fill="#5038a1"/>
      <path id="Trazado_198353" data-name="Trazado 198353" d="M355.325,349.516c0,.892-.021,1.529.893,1.423v1.571c-1.3.34-2.655.192-2.655-1.847a2.933,2.933,0,0,1-2.911,2.06c-2.485,0-3.928-1.954-3.928-5.332,0-3.164,2-5.309,4.991-5.309a7.263,7.263,0,0,1,3.61.977Zm-2.1-5.119a3.368,3.368,0,0,0-1.678-.4c-1.593,0-2.634,1.211-2.634,3.4,0,2.061.828,3.272,2.209,3.272,1.36,0,2.1-1.445,2.1-3.4Z" fill="#5038a1"/>
      <path id="Trazado_198354" data-name="Trazado 198354" d="M363.819,344.036h-2.953v4.481c0,1.7.7,2.379,1.7,2.379a3.517,3.517,0,0,0,1.337-.36l.213,1.783a6.618,6.618,0,0,1-2.167.426c-1.975,0-3.228-1.233-3.228-4.206v-4.5l-1.72-.149v-1.572h1.783l.235-3.164h1.847v3.164h2.953Z" fill="#5038a1"/>
      <path id="Trazado_198355" data-name="Trazado 198355" d="M366.727,337.622A1.248,1.248,0,0,1,368,338.981a1.264,1.264,0,0,1-1.254,1.38,1.37,1.37,0,0,1-.02-2.739Zm-1.1,4.672h2.188v10.238h-2.188Z" fill="#5038a1"/>
      <path id="Trazado_198356" data-name="Trazado 198356" d="M371.845,349.473a1.659,1.659,0,0,0,1.784,1.551c.892,0,1.763-.213,1.826-1.487-.063-1.126-1.04-1.126-1.911-1.36-1.721-.276-3.675-.913-3.675-2.952,0-2.209,1.848-3.143,3.824-3.143,2.145,0,3.7,1.041,3.631,3.08h-2c0-1.02-.913-1.339-1.72-1.339-.829,0-1.678.383-1.615,1.317,0,.85.7,1.126,1.742,1.3,1.89.275,3.844.722,3.844,3.144,0,2.294-1.89,3.165-3.971,3.165-1.933,0-3.845-.723-3.951-3.272Z" fill="#5038a1"/>
      <path id="Trazado_198357" data-name="Trazado 198357" d="M378.554,342.294h1.657v-1.338c0-4.014,2.655-4.673,5.458-3.59l-.3,1.678c-1.444-.722-3.08-.616-3.08,1.955v1.3h2.867v1.742h-2.867v8.5h-2.124v-8.5h-1.614Z" fill="#5038a1"/>
      <path id="Trazado_198358" data-name="Trazado 198358" d="M394.419,349.516c0,.892-.021,1.529.893,1.423v1.571c-1.3.34-2.656.192-2.656-1.847a2.931,2.931,0,0,1-2.91,2.06c-2.485,0-3.928-1.954-3.928-5.332,0-3.164,2-5.309,4.991-5.309a7.263,7.263,0,0,1,3.61.977Zm-2.1-5.119a3.37,3.37,0,0,0-1.678-.4c-1.593,0-2.634,1.211-2.634,3.4,0,2.061.828,3.272,2.209,3.272,1.359,0,2.1-1.445,2.1-3.4Z" fill="#5038a1"/>
      <path id="Trazado_198359" data-name="Trazado 198359" d="M403.337,345.735a1.972,1.972,0,0,0-2.1-1.636c-1.253,0-2.486,1-2.486,3.292,0,2.4,1.3,3.4,2.486,3.4a2.175,2.175,0,0,0,2.124-1.912h2.082a4.142,4.142,0,0,1-4.248,3.867c-2.295,0-4.588-1.53-4.588-5.354,0-3.652,2.336-5.309,4.608-5.309a3.945,3.945,0,0,1,4.185,3.653Z" fill="#5038a1"/>
      <path id="Trazado_198360" data-name="Trazado 198360" d="M414.782,350.11l.065,1.827a5.778,5.778,0,0,1-3.059.786c-3.1,0-5.119-1.954-5.013-5.586.064-3.293,2.209-5.055,4.418-5.055,2.528,0,3.972,1.211,3.972,3.313,0,3.207-3.951,3.675-6.287,2.676a2.759,2.759,0,0,0,3.037,2.8A6.158,6.158,0,0,0,414.782,350.11Zm-5.819-3.589c1.529.743,4.078.658,4.078-1.041,0-1-.68-1.551-1.806-1.551C410.068,343.929,409.153,344.737,408.963,346.521Z" fill="#5038a1"/>
      <path id="Trazado_198361" data-name="Trazado 198361" d="M419.263,349.09c-.085-4.035,2.124-4.332,2.719-6.669.275-1.762-.489-2.676-1.721-2.676a1.82,1.82,0,0,0-1.869,2.018h-1.933c-.063-2.91,1.656-4.184,3.8-4.184,2.762-.064,4.248,1.954,4.015,4.673-.17,2.74-2.889,3.207-2.826,6.838Zm-.235,2.422a1.273,1.273,0,0,1,1.339-1.3,1.3,1.3,0,0,1,0,2.592A1.285,1.285,0,0,1,419.028,351.512Z" fill="#5038a1"/>
    </g>
    <rect id="Rectángulo_44993" data-name="Rectángulo 44993" width="169.659" height="39.063" rx="10.351" transform="translate(51.779 424.894)" fill="#8c6df2"/>
    <g id="Grupo_135846" data-name="Grupo 135846">
      <path id="Trazado_198362" data-name="Trazado 198362" d="M93.886,449.7H91.591l.021-8.943-3.525,5.268h-.318l-3.527-5.268V449.7H81.948v-14.91h.871l5.12,7.688,5.1-7.688h.85Z" fill="#fff"/>
      <path id="Trazado_198363" data-name="Trazado 198363" d="M104.544,446.685c0,.892-.021,1.529.893,1.423v1.571c-1.3.34-2.656.192-2.656-1.847a2.931,2.931,0,0,1-2.91,2.06c-2.485,0-3.928-1.954-3.928-5.332,0-3.164,2-5.309,4.991-5.309a7.263,7.263,0,0,1,3.61.977Zm-2.1-5.119a3.37,3.37,0,0,0-1.678-.4c-1.593,0-2.634,1.211-2.634,3.4,0,2.061.828,3.272,2.209,3.272,1.359,0,2.1-1.445,2.1-3.4Zm-1.381-6.882,1.848.743v.192l-1.465,2.081H99.786v-.191Z" fill="#fff"/>
      <path id="Trazado_198364" data-name="Trazado 198364" d="M108.832,446.642a1.66,1.66,0,0,0,1.784,1.551c.892,0,1.763-.213,1.827-1.487-.064-1.126-1.041-1.126-1.912-1.36-1.72-.276-3.674-.913-3.674-2.952,0-2.209,1.847-3.143,3.823-3.143,2.145,0,3.7,1.041,3.632,3.08h-2c0-1.02-.914-1.339-1.721-1.339-.828,0-1.678.383-1.614,1.317,0,.85.7,1.126,1.741,1.3,1.89.275,3.845.722,3.845,3.144,0,2.294-1.89,3.165-3.972,3.165-1.933,0-3.845-.723-3.951-3.272Z" fill="#fff"/>
      <path id="Trazado_198365" data-name="Trazado 198365" d="M127.073,442.9a1.971,1.971,0,0,0-2.1-1.636c-1.253,0-2.486,1-2.486,3.292,0,2.4,1.3,3.4,2.486,3.4a2.174,2.174,0,0,0,2.124-1.912h2.082a4.141,4.141,0,0,1-4.248,3.867c-2.295,0-4.588-1.53-4.588-5.354,0-3.652,2.336-5.309,4.608-5.309a3.945,3.945,0,0,1,4.185,3.653Z" fill="#fff"/>
      <path id="Trazado_198366" data-name="Trazado 198366" d="M135.864,439.251a3.062,3.062,0,0,1,2.146.913l-.7,1.8a2.8,2.8,0,0,0-1.7-.616c-1.168,0-2.145.871-2.145,2.549v5.8h-2.188v-7.307c0-.913-.021-1.381-.892-1.316l-.022-1.573c1.275-.339,3-.191,3,1.36A2.484,2.484,0,0,1,135.864,439.251Z" fill="#fff"/>
      <path id="Trazado_198367" data-name="Trazado 198367" d="M140.387,434.791a1.248,1.248,0,0,1,1.274,1.359,1.264,1.264,0,0,1-1.254,1.38,1.37,1.37,0,0,1-.02-2.739Zm-1.1,4.671h2.188V449.7h-2.188Z" fill="#fff"/>
      <path id="Trazado_198368" data-name="Trazado 198368" d="M149.71,441.2h-2.952v4.481c0,1.7.7,2.379,1.7,2.379a3.513,3.513,0,0,0,1.338-.36l.213,1.783a6.628,6.628,0,0,1-2.167.426c-1.975,0-3.229-1.233-3.229-4.206v-4.5l-1.72-.149v-1.572h1.785l.233-3.164h1.848v3.164h2.952Z" fill="#fff"/>
      <path id="Trazado_198369" data-name="Trazado 198369" d="M159.032,447.279l.065,1.827a5.779,5.779,0,0,1-3.059.786c-3.1,0-5.119-1.954-5.013-5.586.064-3.293,2.209-5.055,4.418-5.055,2.528,0,3.972,1.21,3.972,3.313,0,3.207-3.951,3.675-6.287,2.676a2.758,2.758,0,0,0,3.037,2.8A6.158,6.158,0,0,0,159.032,447.279Zm-5.819-3.589c1.529.743,4.078.658,4.078-1.041,0-1-.68-1.551-1.806-1.551C154.318,441.1,153.4,441.906,153.213,443.69Z" fill="#fff"/>
      <path id="Trazado_198370" data-name="Trazado 198370" d="M166.167,439.251a3.067,3.067,0,0,1,2.145.913l-.7,1.8a2.785,2.785,0,0,0-1.7-.616c-1.168,0-2.144.871-2.144,2.549v5.8h-2.188v-7.307c0-.913-.021-1.381-.892-1.316l-.022-1.573c1.275-.339,3-.191,3,1.36A2.486,2.486,0,0,1,166.167,439.251Z" fill="#fff"/>
      <path id="Trazado_198371" data-name="Trazado 198371" d="M170.69,434.791a1.248,1.248,0,0,1,1.274,1.359,1.264,1.264,0,0,1-1.254,1.38,1.37,1.37,0,0,1-.02-2.739Zm-1.1,4.671h2.188V449.7h-2.188Z" fill="#fff"/>
      <path id="Trazado_198372" data-name="Trazado 198372" d="M178.271,449.914c-2.762,0-4.588-2.146-4.588-5.374,0-3.165,1.826-5.289,4.588-5.289,2.782,0,4.609,2.124,4.609,5.289C182.88,447.768,181.053,449.914,178.271,449.914Zm0-1.976c1.529,0,2.506-1.359,2.506-3.4,0-2.019-.977-3.314-2.506-3.314-1.508,0-2.486,1.295-2.486,3.314C175.785,446.579,176.763,447.938,178.271,447.938Z" fill="#fff"/>
      <path id="Trazado_198373" data-name="Trazado 198373" d="M186.4,446.642a1.66,1.66,0,0,0,1.785,1.551c.891,0,1.762-.213,1.826-1.487-.064-1.126-1.04-1.126-1.911-1.36-1.721-.276-3.675-.913-3.675-2.952,0-2.209,1.848-3.143,3.823-3.143,2.146,0,3.695,1.041,3.632,3.08h-2c0-1.02-.913-1.339-1.721-1.339-.828,0-1.678.383-1.614,1.317,0,.85.7,1.126,1.742,1.3,1.89.275,3.844.722,3.844,3.144,0,2.294-1.891,3.165-3.972,3.165-1.932,0-3.845-.723-3.95-3.272Z" fill="#fff"/>
    </g>
    <rect id="Rectángulo_44994" data-name="Rectángulo 44994" width="169.659" height="64.762" rx="32.381" transform="translate(51.779 216.47)" fill="#8c6df2"/>
    <g id="Grupo_135847" data-name="Grupo 135847">
      <path id="Trazado_198374" data-name="Trazado 198374" d="M84.969,261.511v-3.328h3.153V240.175H85.214v-3.187h9.67v3.187H91.976v18.008h3.188v3.328Z" fill="#fff"/>
      <path id="Trazado_198375" data-name="Trazado 198375" d="M102.66,261.511H98.807V236.918h1.3l12.3,15.73-.14-6.727v-8.933h3.853v24.558h-1.26L102.521,245.71l.139,6.9Z" fill="#fff"/>
      <path id="Trazado_198376" data-name="Trazado 198376" d="M119.721,261.511v-3.328h3.153V240.175h-2.908v-3.187h9.67v3.187h-2.908v18.008h3.188v3.328Z" fill="#fff"/>
      <path id="Trazado_198377" data-name="Trazado 198377" d="M142.6,236.637c4.308,0,8.477,2.417,9.494,8.268h-3.679c-1.121-3.609-3.188-4.695-5.815-4.695-4.065,0-6.727,3.189-6.727,9.075,0,5.5,2.627,8.9,6.692,8.9,2.8,0,4.939-1.4,5.885-5.045H152.2c-.945,6.272-5.325,8.689-9.6,8.689-5.606,0-10.581-4.1-10.581-12.542S136.993,236.637,142.6,236.637Z" fill="#fff"/>
      <path id="Trazado_198378" data-name="Trazado 198378" d="M154.439,261.511v-3.328h3.153V240.175h-2.908v-3.187h9.67v3.187h-2.909v18.008h3.189v3.328Z" fill="#fff"/>
      <path id="Trazado_198379" data-name="Trazado 198379" d="M177.35,261.862c-5.745,0-10.58-4.2-10.58-12.612s5.045-12.613,10.65-12.613c5.535,0,10.58,4.309,10.58,12.613C188,257.342,183.586,261.862,177.35,261.862Zm.07-3.644c3.644,0,6.727-3.048,6.727-8.968,0-5.886-3.048-8.969-6.692-8.969-3.749,0-6.832,3.118-6.832,8.969C170.623,255.17,173.637,258.218,177.42,258.218Z" fill="#fff"/>
    </g>
    <path id="Trazado_198380" data-name="Trazado 198380" d="M237.28,366.7l-7.766-11.186,7.766-11.186" fill="none" stroke="#fdb74d" stroke-linecap="round" stroke-linejoin="round" stroke-width="2.654"/>
    <path id="Trazado_198381" data-name="Trazado 198381" d="M147.794,402.513l-11.186,7.766-11.186-7.766" fill="none" stroke="#fdb74d" stroke-linecap="round" stroke-linejoin="round" stroke-width="2.654"/>
    <path id="Trazado_198382" data-name="Trazado 198382" d="M147.794,478.572l-11.186,7.766-11.186-7.766" fill="none" stroke="#fdb74d" stroke-linecap="round" stroke-linejoin="round" stroke-width="2.654"/>
    <path id="Trazado_198383" data-name="Trazado 198383" d="M147.794,539.327l-11.186,7.766-11.186-7.766" fill="none" stroke="#fdb74d" stroke-linecap="round" stroke-linejoin="round" stroke-width="2.654"/>
    <path id="Trazado_198384" data-name="Trazado 198384" d="M364.2,522.581l11.186-7.766,11.186,7.766" fill="none" stroke="#5038a1" stroke-linecap="round" stroke-linejoin="round" stroke-width="2.654"/>
    <path id="Trazado_198385" data-name="Trazado 198385" d="M364.2,401.41l11.186-7.766,11.186,7.766" fill="none" stroke="#5038a1" stroke-linecap="round" stroke-linejoin="round" stroke-width="2.654"/>
    <path id="Trazado_198386" data-name="Trazado 198386" d="M364.2,306.067,375.39,298.3l11.186,7.766" fill="none" stroke="#5038a1" stroke-linecap="round" stroke-linejoin="round" stroke-width="2.654"/>
    <path id="Trazado_198387" data-name="Trazado 198387" d="M364.2,224.235l11.186-7.766,11.186,7.766" fill="none" stroke="#5038a1" stroke-linecap="round" stroke-linejoin="round" stroke-width="2.654"/>
    <path id="Trazado_198388" data-name="Trazado 198388" d="M252.349,576.007l7.766,11.186-7.766,11.186" fill="none" stroke="#5038a1" stroke-linecap="round" stroke-linejoin="round" stroke-width="2.654"/>
    <path id="Trazado_198389" data-name="Trazado 198389" d="M480.5,335.462l7.766,11.186L480.5,357.834" fill="none" stroke="#5038a1" stroke-linecap="round" stroke-linejoin="round" stroke-width="2.654"/>
    <path id="Trazado_198390" data-name="Trazado 198390" d="M587.532,335.462l7.766,11.186-7.766,11.186" fill="none" stroke="#5038a1" stroke-linecap="round" stroke-linejoin="round" stroke-width="2.654"/>
    <path id="Trazado_198391" data-name="Trazado 198391" d="M688.548,297.378l11.186-7.766,11.186,7.766" fill="none" stroke="#5038a1" stroke-linecap="round" stroke-linejoin="round" stroke-width="2.654"/>
    <path id="Trazado_198392" data-name="Trazado 198392" d="M147.794,298.3l-11.186,7.766L125.422,298.3" fill="none" stroke="#fdb74d" stroke-linecap="round" stroke-linejoin="round" stroke-width="2.654"/>
    <path id="Trazado_198393" data-name="Trazado 198393" d="M227.815,444.426h36.493V355.517H230.422" fill="none" stroke="#fdb74d" stroke-linecap="round" stroke-linejoin="round" stroke-width="3.539"/>
    <path id="Trazado_198394" data-name="Trazado 198394" d="M688.548,196.34l11.186,7.766,11.186-7.766" fill="none" stroke="#fdb74d" stroke-linecap="round" stroke-linejoin="round" stroke-width="2.654"/>
    <path id="Trazado_198395" data-name="Trazado 198395" d="M472.543,161.311H699.734V203.2" fill="none" stroke="#fdb74d" stroke-linecap="round" stroke-linejoin="round" stroke-width="3.539"/>
    <line id="Línea_273" data-name="Línea 273" y2="16.158" transform="translate(699.734 289.612)" fill="none" stroke="#5038a1" stroke-linecap="round" stroke-linejoin="round" stroke-width="2.654"/>
    <path id="Trazado_198396" data-name="Trazado 198396" d="M817.438,234.276l7.766,11.186-7.766,11.186" fill="none" stroke="#5038a1" stroke-linecap="round" stroke-linejoin="round" stroke-width="2.654"/>
    <line id="Línea_274" data-name="Línea 274" x1="36.151" transform="translate(789.052 245.462)" fill="none" stroke="#5038a1" stroke-linecap="round" stroke-linejoin="round" stroke-width="2.654"/>
    <text id="SÍ" transform="translate(358.833 275.516)" fill="#5038a1" font-size="35" font-family="Roboto-Black, Roboto" font-weight="800"><tspan x="0" y="0">SÍ</tspan></text>
    <text id="FIN" transform="translate(852.833 255.516)" fill="#fff" font-size="30" font-family="Roboto-Black, Roboto" font-weight="800"><tspan x="0" y="0">FIN</tspan></text>
  </g>
  <rect id="Rectángulo_44995" data-name="Rectángulo 44995" width="962.578" height="700.337" transform="translate(0)" fill="none"/>
</svg>
