<svg xmlns="http://www.w3.org/2000/svg" xmlns:xlink="http://www.w3.org/1999/xlink" width="356.385" height="188.444" viewBox="0 0 356.385 188.444">
  <defs>
    <linearGradient id="linear-gradient" x1="0.873" y1="0.898" x2="0.168" y2="0.145" gradientUnits="objectBoundingBox">
      <stop offset="0" stop-color="#b37cff"/>
      <stop offset="1" stop-color="#f895e7"/>
    </linearGradient>
    <linearGradient id="linear-gradient-2" x1="0.285" y1="-0.095" x2="0.721" y2="1.113" xlink:href="#linear-gradient"/>
    <linearGradient id="linear-gradient-3" x1="0.5" y1="-0.241" x2="0.5" y2="1.93" xlink:href="#linear-gradient"/>
    <linearGradient id="linear-gradient-4" x1="-824.593" y1="-217.873" x2="-824.994" y2="-216.967" gradientUnits="objectBoundingBox">
      <stop offset="0" stop-color="#f9b776"/>
      <stop offset="1" stop-color="#f47960"/>
    </linearGradient>
    <linearGradient id="linear-gradient-5" x1="-1101.51" y1="0.5" x2="-1100.51" y2="0.5" xlink:href="#linear-gradient-4"/>
    <linearGradient id="linear-gradient-6" x1="-2672.697" y1="-5.594" x2="-2673.9" y2="0.571" gradientUnits="objectBoundingBox">
      <stop offset="0" stop-color="#cb236d"/>
      <stop offset="0.9" stop-color="#59246d"/>
      <stop offset="1" stop-color="#4c246d"/>
    </linearGradient>
    <linearGradient id="linear-gradient-7" x1="-1913.122" y1="-14.748" x2="-1913.982" y2="-0.838" xlink:href="#linear-gradient-6"/>
    <linearGradient id="linear-gradient-8" x1="-1905.014" y1="0.5" x2="-1904.014" y2="0.5" xlink:href="#linear-gradient-4"/>
    <linearGradient id="linear-gradient-9" x1="-974.816" y1="0.5" x2="-973.816" y2="0.5" xlink:href="#linear-gradient-4"/>
    <linearGradient id="linear-gradient-10" x1="-1047.818" y1="-0.003" x2="-1045.799" y2="3.218" gradientUnits="objectBoundingBox">
      <stop offset="0" stop-color="#fdf53f"/>
      <stop offset="1" stop-color="#d93c65"/>
    </linearGradient>
    <linearGradient id="linear-gradient-11" x1="-3112.926" y1="0.5" x2="-3111.926" y2="0.5" xlink:href="#linear-gradient-4"/>
    <linearGradient id="linear-gradient-12" x1="-1701.266" y1="0.531" x2="-1697.285" y2="0.806" xlink:href="#linear-gradient-4"/>
    <linearGradient id="linear-gradient-13" x1="-861.753" y1="0.169" x2="-862.559" y2="1.068" gradientUnits="objectBoundingBox">
      <stop offset="0" stop-color="#2b3582"/>
      <stop offset="1" stop-color="#150e42"/>
    </linearGradient>
    <linearGradient id="linear-gradient-14" x1="0.63" y1="-1.8" x2="0.2" y2="6.403" xlink:href="#linear-gradient-6"/>
  </defs>
  <g id="Grupo_135851" data-name="Grupo 135851" transform="translate(0 -0.556)">
    <path id="Trazado_198397" data-name="Trazado 198397" d="M10.879,106.144c9.409,28.51,47.987,63.537,124.2,67.2,0,0,57.867,3.258,114.911-1.68,33.855-2.93,63.542-11.655,82.326-24.194s25.059-27.829,17.444-42.4c-4.946-9.468-8.288-19.267-7.371-29,1.157-12.269,3.335-25.17-8.382-36.611C316.842,22.7,274.954,17.759,238.4,16.184c-13.469-.58-26.988-.814-40.469-1.308a519.307,519.307,0,0,0-79.789,3.7C-8.881,34.462,1.469,77.635,10.879,106.144Z" fill="#e5e1f1"/>
    <path id="Trazado_139920" data-name="Trazado 139920" d="M339.256,169.456a4.2,4.2,0,0,0,.472-.086,3.065,3.065,0,0,0,1.98-4.69,5.625,5.625,0,0,0-5.945-2.776,105.289,105.289,0,0,1-23.952,2.719,124.848,124.848,0,0,1-25.177-2.474l-1.578-.311-1.572-.358c-1.048-.233-2.092-.5-3.133-.766q-3.131-.791-6.209-1.775c-1.029-.315-2.045-.682-3.064-1.019-1.017-.354-2.023-.734-3.032-1.1-1-.4-2-.776-2.987-1.207s-1.973-.835-2.937-1.294-1.934-.891-2.88-1.374c-.474-.24-.95-.47-1.417-.717l-1.392-.75c-.936-.484-1.823-1.035-2.733-1.547-.888-.539-1.775-1.078-2.639-1.635s-1.722-1.119-2.536-1.718c-.41-.3-.829-.582-1.233-.882l-1.188-.908c-.2-.154-.4-.3-.593-.457l-.586-.488-1.165-.972c-.753-.675-1.518-1.33-2.247-2.022A97.555,97.555,0,0,1,226.4,122.493c-4.345-6.657-8.164-13.709-12.117-21.038-1.982-3.665-3.974-7.406-6.114-11.22-1.057-1.9-2.18-3.828-3.323-5.764-.589-.972-1.163-1.942-1.775-2.92L201.286,78.7c-4.579-7.292-9.411-14.777-14.919-22.307a188.711,188.711,0,0,0-19.19-22.581A133.618,133.618,0,0,0,154.784,22.9a115.646,115.646,0,0,0-14.96-9.864c-2.715-1.5-5.538-2.9-8.441-4.178-1.451-.644-2.927-1.247-4.417-1.831-.746-.287-1.467-.567-2.248-.841s-1.561-.553-2.344-.8A94.062,94.062,0,0,0,103.361,1.22c-1.587-.175-3.168-.318-4.744-.405C97.783.763,97.153.744,96.449.706L94.38.616C93,.562,91.612.554,90.225.557s-2.777.056-4.169.091A98.891,98.891,0,0,0,69.5,2.7,83.509,83.509,0,0,0,53.841,7.607,76.945,76.945,0,0,0,19.682,36.083,98.2,98.2,0,0,0,7.9,60.629,118.149,118.149,0,0,0,4.478,73.685c-.447,2.233-.833,4.5-1.152,6.834-.157,1.174-.3,2.362-.425,3.608-.061.625-.116,1.257-.16,1.937l-.06,1.064-.019.6,0,.363.011.541c1.207,17.769,18.92,34.415,39.555,37.177S78.607,116.4,77.4,98.631l-.01.191c-.006.045-.014.022-.014.022l-.014-.009c-.015,0-.033-.065-.051-.1a3.253,3.253,0,0,1-.1-.336c-.073-.25-.135-.551-.2-.85-.128-.61-.244-1.268-.345-1.937-.2-1.348-.361-2.747-.479-4.151a70.517,70.517,0,0,1-.227-8.426,60.076,60.076,0,0,1,2.408-15.581A37.593,37.593,0,0,1,84.64,55.1,27.457,27.457,0,0,1,89.307,50.4a30.333,30.333,0,0,1,5.906-3.666,38.8,38.8,0,0,1,7.3-2.617c.684-.15,1.354-.328,2.055-.472.713-.126,1.412-.284,2.142-.4l2.124-.328c.553-.1,1.124-.167,1.691-.236a30.4,30.4,0,0,1,7.07.108c.3.034.6.082.9.126l.983.178c.663.13,1.33.27,2,.44,1.345.333,2.715.737,4.114,1.227a70.608,70.608,0,0,1,17.7,9.694q2.281,1.635,4.528,3.459t4.479,3.793c2.969,2.62,5.908,5.414,8.809,8.331,5.811,5.836,11.455,12.152,17.162,18.719l2.044,2.359c.661.76,1.31,1.546,1.972,2.325,1.306,1.582,2.613,3.182,3.913,4.831,2.6,3.282,5.2,6.689,7.828,10.165,5.268,6.946,10.734,14.179,17.022,21.244A128.971,128.971,0,0,0,232.73,149.5c1.021.735,2.084,1.431,3.125,2.137,1.078.679,2.116,1.359,3.222,2.025l1.644.995c.552.322,1.11.628,1.663.941,1.1.637,2.234,1.2,3.351,1.784a110.007,110.007,0,0,0,13.66,5.718,147.367,147.367,0,0,0,27.375,6.409,184.109,184.109,0,0,0,26.679,1.705,227.5,227.5,0,0,0,25.782-1.748Z" fill="#fdb74d"/>
    <g id="Grupo_135851-2" data-name="Grupo 135851">
      <circle id="Elipse_6065" data-name="Elipse 6065" cx="35.465" cy="35.465" r="35.465" transform="translate(275.576 5.118)" fill="#fdb74d" opacity="0.5"/>
      <g id="Elipse_4972" data-name="Elipse 4972">
        <circle id="Elipse_6066" data-name="Elipse 6066" cx="32.751" cy="32.751" r="32.751" transform="translate(278.291 7.833)" fill="none"/>
        <circle id="Elipse_6067" data-name="Elipse 6067" cx="31.004" cy="31.004" r="31.004" transform="translate(280.038 9.58)" fill="none" stroke="#fff" stroke-linecap="round" stroke-width="3.493" stroke-dasharray="2.62 6.987"/>
      </g>
    </g>
    <g id="Grupo_135852" data-name="Grupo 135852">
      <circle id="Elipse_5247" data-name="Elipse 5247" cx="19.478" cy="19.478" r="19.478" transform="translate(301.402 119.961)" fill="#5038a1" opacity="0.7" style="isolation: isolate"/>
      <g id="Elipse_5249" data-name="Elipse 5249">
        <circle id="Elipse_6068" data-name="Elipse 6068" cx="7.34" cy="7.34" r="7.34" transform="translate(315.948 126.167)" fill="none"/>
        <circle id="Elipse_6069" data-name="Elipse 6069" cx="6.493" cy="6.493" r="6.493" transform="translate(316.795 127.014)" fill="none" stroke="#fff" stroke-width="1.694"/>
      </g>
      <g id="Elipse_5250" data-name="Elipse 5250">
        <circle id="Elipse_6070" data-name="Elipse 6070" cx="3.952" cy="3.952" r="3.952" transform="translate(267.242 115.423)" fill="#fdb74d"/>
        <circle id="Elipse_6071" data-name="Elipse 6071" cx="3.105" cy="3.105" r="3.105" transform="translate(268.089 116.27)" fill="#fdb74d" stroke="#8c6df2" stroke-width="1.694"/>
      </g>
      <circle id="Elipse_5251" data-name="Elipse 5251" cx="2.541" cy="2.541" r="2.541" transform="translate(293.055 137.069)" fill="#fdb74d"/>
    </g>
    <g id="Grupo_135865" data-name="Grupo 135865">
      <g id="Grupo_135856" data-name="Grupo 135856">
        <g id="Grupo_135853" data-name="Grupo 135853" opacity="0.64">
          <path id="Trazado_198398" data-name="Trazado 198398" d="M100.192,63.94a.506.506,0,0,1-.468-.385q-.1-.4-.184-.8a.5.5,0,1,1,.987-.212c.056.259.116.517.178.773a.5.5,0,0,1-.513.625Z" fill="#fff"/>
          <path id="Trazado_198399" data-name="Trazado 198399" d="M99.58,60.6a.5.5,0,0,1-.478-.444c-.066-.535-.117-1.079-.153-1.617a.505.505,0,0,1,1.008-.066c.035.519.084,1.044.148,1.561a.505.505,0,0,1-.441.562A.477.477,0,0,1,99.58,60.6Zm-.205-4.182a.506.506,0,0,1-.482-.517c.005-.215.013-.431.022-.648.015-.323.035-.651.061-.974a.505.505,0,0,1,1.007.079c-.025.312-.044.629-.058.941q-.015.314-.022.626a.5.5,0,0,1-.517.493Zm.4-4.168-.062-.006a.505.505,0,0,1-.414-.582c.089-.532.194-1.068.312-1.593a.505.505,0,0,1,.986.221c-.114.508-.215,1.025-.3,1.539A.5.5,0,0,1,99.773,52.246Zm.988-4.067a.51.51,0,0,1-.132-.024.505.505,0,0,1-.327-.635c.165-.513.346-1.028.54-1.532a.505.505,0,1,1,.943.362c-.187.486-.362.984-.521,1.479A.505.505,0,0,1,100.761,48.179Zm1.566-3.882a.493.493,0,0,1-.2-.051.5.5,0,0,1-.231-.676c.238-.484.493-.969.758-1.439a.5.5,0,1,1,.88.495c-.256.454-.5.922-.731,1.389A.506.506,0,0,1,102.327,44.3Zm2.116-3.615a.5.5,0,0,1-.262-.088.506.506,0,0,1-.131-.7c.306-.444.628-.886.958-1.313a.505.505,0,0,1,.8.617c-.319.413-.63.84-.925,1.268A.5.5,0,0,1,104.443,40.682Zm2.617-3.27a.505.505,0,0,1-.347-.848c.367-.4.749-.787,1.136-1.161a.505.505,0,0,1,.7.727c-.373.361-.742.738-1.1,1.121A.5.5,0,0,1,107.06,37.412Zm3.06-2.859a.5.5,0,0,1-.3-.9c.419-.338.853-.67,1.291-.986a.505.505,0,0,1,.591.82c-.423.3-.842.625-1.247.952A.5.5,0,0,1,110.12,34.553Zm3.438-2.389a.505.505,0,0,1-.236-.939c.465-.276.942-.541,1.418-.79a.505.505,0,1,1,.467.9c-.46.24-.921.5-1.369.762A.5.5,0,0,1,113.558,32.164Zm29.473-.017a.512.512,0,0,1-.234-.07c-.447-.265-.908-.521-1.371-.761a.505.505,0,1,1,.465-.9c.48.249.958.515,1.421.789a.505.505,0,0,1-.281.939ZM117.3,30.294a.505.505,0,0,1-.17-.972c.5-.206,1.009-.4,1.516-.577a.505.505,0,0,1,.332.954c-.489.171-.981.358-1.463.557A.51.51,0,0,1,117.3,30.294Zm21.98-.012a.529.529,0,0,1-.168-.037c-.48-.2-.974-.383-1.467-.554a.505.505,0,1,1,.33-.955c.511.177,1.022.37,1.52.574a.505.505,0,0,1-.215.972Zm-18.007-1.3a.5.5,0,0,1-.1-.994c.524-.132,1.057-.25,1.586-.351a.505.505,0,0,1,.19.992c-.51.1-1.025.212-1.53.339A.486.486,0,0,1,121.275,28.984Zm14.027,0a.5.5,0,0,1-.1-.015c-.5-.124-1.019-.237-1.532-.335a.505.505,0,1,1,.189-.993c.531.1,1.065.218,1.586.348a.505.505,0,0,1-.144,1Zm-9.9-.716a.505.505,0,0,1-.027-1.007c.538-.054,1.083-.093,1.62-.117a.505.505,0,0,1,.044,1.01c-.518.022-1.044.06-1.563.112A.615.615,0,0,1,125.4,28.266Zm5.777,0-.027,0c-.5-.05-1.01-.088-1.51-.111l-.055,0a.505.505,0,0,1-.071-1l.048-.011.071,0c.536.024,1.08.064,1.617.118a.5.5,0,0,1-.073,1.007Z" fill="#fff"/>
          <path id="Trazado_198400" data-name="Trazado 198400" d="M145.864,34.059a.5.5,0,0,1-.284-.1c-.21-.161-.422-.318-.637-.473a.505.505,0,0,1,.591-.82c.223.161.442.324.66.491a.5.5,0,0,1-.33.9Z" fill="#fff"/>
        </g>
        <g id="Grupo_135854" data-name="Grupo 135854" opacity="0.64">
          <path id="Trazado_198401" data-name="Trazado 198401" d="M157.007,53.378a.506.506,0,0,1-.478-.441q-.05-.395-.111-.786a.505.505,0,0,1,1-.156c.042.27.081.542.116.814a.508.508,0,0,1-.525.569Z" fill="#fff"/>
          <path id="Trazado_198402" data-name="Trazado 198402" d="M127.97,85.992a.5.5,0,0,1,.03-1.009c.512.006,1.031,0,1.543-.023a.505.505,0,0,1,.042,1.01c-.53.022-1.067.03-1.6.023Zm-2.547-.144-.028,0c-.143-.014-.287-.029-.43-.046-.386-.044-.775-.1-1.155-.156a.5.5,0,1,1,.154-1c.367.057.743.107,1.116.15l.416.045a.505.505,0,0,1-.073,1.007Zm6.659-.1a.505.505,0,0,1-.042-1.006c.509-.066,1.022-.148,1.524-.242a.505.505,0,0,1,.186.993c-.521.1-1.052.182-1.579.251A.531.531,0,0,1,132.082,85.751Zm-10.721-.6a.565.565,0,0,1-.1-.014c-.517-.127-1.036-.27-1.542-.424a.5.5,0,1,1,.294-.966c.489.148.99.286,1.489.409a.505.505,0,0,1-.143,1Zm14.757-.225a.506.506,0,0,1-.114-.992c.492-.138.987-.291,1.471-.456a.505.505,0,0,1,.326.956c-.5.171-1.014.33-1.524.473A.513.513,0,0,1,136.118,84.925Zm-18.679-1.042a.523.523,0,0,1-.167-.037c-.492-.2-.986-.414-1.465-.639a.506.506,0,0,1,.43-.915c.462.218.938.425,1.414.618a.505.505,0,0,1-.212.973Zm22.553-.352a.505.505,0,0,1-.182-.967c.468-.207.937-.43,1.392-.662a.505.505,0,1,1,.459.9c-.472.24-.957.471-1.442.686A.507.507,0,0,1,139.992,83.531Zm-26.253-1.463a.514.514,0,0,1-.231-.068c-.458-.267-.915-.551-1.359-.843a.505.505,0,1,1,.556-.844c.429.283.87.556,1.312.814a.505.505,0,0,1-.278.941ZM143.63,81.6a.505.505,0,0,1-.246-.933c.435-.271.867-.558,1.286-.853a.5.5,0,1,1,.581.826c-.434.305-.881.6-1.331.884A.5.5,0,0,1,143.63,81.6Zm3.329-2.426a.505.505,0,0,1-.3-.891c.391-.33.779-.675,1.153-1.026a.505.505,0,0,1,.692.736c-.387.363-.789.721-1.194,1.063A.5.5,0,0,1,146.959,79.174Zm2.953-2.872a.506.506,0,0,1-.354-.841c.342-.383.677-.78,1-1.18a.5.5,0,1,1,.789.63c-.331.415-.678.826-1.031,1.222A.509.509,0,0,1,149.912,76.3Zm2.518-3.264a.5.5,0,0,1-.4-.783c.284-.428.559-.869.819-1.311a.505.505,0,0,1,.871.512c-.269.458-.554.914-.848,1.357A.5.5,0,0,1,152.43,73.038Zm2.027-3.589a.513.513,0,0,1-.193-.048.505.505,0,0,1-.24-.673c.219-.462.428-.937.622-1.412a.505.505,0,0,1,.935.382c-.2.492-.417.983-.644,1.463A.507.507,0,0,1,154.457,69.449Zm1.492-3.84a.505.505,0,0,1-.46-.653c.151-.489.29-.989.414-1.486a.5.5,0,1,1,.98.244c-.128.515-.272,1.033-.428,1.539A.506.506,0,0,1,155.949,65.609Zm.93-4.013a.547.547,0,0,1-.057-.005.507.507,0,0,1-.42-.578c.064-.4.119-.809.166-1.214.012-.1.023-.211.034-.317a.505.505,0,1,1,1,.105c-.011.109-.023.218-.035.327-.049.419-.106.842-.172,1.257A.5.5,0,0,1,156.879,61.6Zm.355-4.1a.5.5,0,0,1-.481-.512c.008-.512,0-1.031-.017-1.544a.5.5,0,1,1,1.009-.038c.02.53.026,1.068.018,1.6a.506.506,0,0,1-.514.5Z" fill="#fff"/>
          <path id="Trazado_198403" data-name="Trazado 198403" d="M110.321,79.73a.494.494,0,0,1-.291-.109c-.215-.17-.427-.344-.636-.52a.5.5,0,1,1,.65-.773c.2.17.407.338.614.5a.505.505,0,0,1-.337.9Z" fill="#fff"/>
        </g>
        <g id="Grupo_135855" data-name="Grupo 135855">
          <path id="Trazado_198404" data-name="Trazado 198404" d="M112,71.639a.349.349,0,0,0,.384.124l4.029-1.278a18.413,18.413,0,0,0,5.118,3.064l.78,4.151a.346.346,0,0,0,.291.279l5.015.739a.347.347,0,0,0,.359-.183l1.944-3.75a18.41,18.41,0,0,0,5.785-1.457l3.489,2.385a.345.345,0,0,0,.4-.008l4.069-3.024a.346.346,0,0,0,.124-.383l-1.277-4.029a18.425,18.425,0,0,0,3.063-5.118l4.151-.78a.349.349,0,0,0,.28-.291l.739-5.016a.348.348,0,0,0-.184-.358l-3.75-1.945a18.41,18.41,0,0,0-1.457-5.784l2.386-3.489a.349.349,0,0,0-.008-.4l-3.024-4.069a.348.348,0,0,0-.384-.124L140.3,42.169a18.387,18.387,0,0,0-5.118-3.063l-.78-4.152a.347.347,0,0,0-.291-.279l-5.015-.739a.346.346,0,0,0-.359.184l-1.945,3.749A18.411,18.411,0,0,0,121,39.326l-3.489-2.385a.347.347,0,0,0-.4.008l-4.069,3.024a.347.347,0,0,0-.124.384l1.277,4.028a18.43,18.43,0,0,0-3.063,5.119l-4.151.78a.347.347,0,0,0-.28.29l-.739,5.016a.348.348,0,0,0,.184.359l3.75,1.944a18.41,18.41,0,0,0,1.457,5.784l-2.386,3.49a.349.349,0,0,0,.008.4Z" fill="url(#linear-gradient)"/>
          <path id="Trazado_198405" data-name="Trazado 198405" d="M128.13,61.228a4.907,4.907,0,1,1,.72-.02A4.973,4.973,0,0,1,128.13,61.228Zm.414-8.994a4.056,4.056,0,0,0-.6.017,4.094,4.094,0,1,0,.6-.017Z" fill="#fff" opacity="0.56"/>
          <path id="Trazado_198406" data-name="Trazado 198406" d="M127.882,68.679a12.528,12.528,0,0,1-1.258-.121h0a12.478,12.478,0,0,1-2.564-.66.2.2,0,0,1-.131-.2.227.227,0,0,1,.012-.062.2.2,0,0,1,.261-.118,12.044,12.044,0,0,0,16.137-9.51,12.3,12.3,0,0,0,.118-1.233,12.032,12.032,0,1,0-23.137,4.085.206.206,0,0,1,.016.087.2.2,0,0,1-.389.068,12.4,12.4,0,0,1-.934-5.316q.028-.63.121-1.258a12.436,12.436,0,0,1,24.727,2.352q-.028.635-.122,1.274A12.454,12.454,0,0,1,127.882,68.679Z" fill="#fff" opacity="0.56"/>
        </g>
      </g>
      <g id="Grupo_135860" data-name="Grupo 135860">
        <g id="Grupo_135857" data-name="Grupo 135857" opacity="0.64">
          <path id="Trazado_198407" data-name="Trazado 198407" d="M78.941,78.114a.228.228,0,0,1-.211-.173c-.045-.186-.087-.374-.126-.562a.228.228,0,0,1,.446-.091c.037.183.077.365.122.545a.228.228,0,0,1-.167.275A.235.235,0,0,1,78.941,78.114Z" fill="#fff"/>
          <path id="Trazado_198408" data-name="Trazado 198408" d="M78.634,76.418a.227.227,0,0,1-.215-.2c-.045-.387-.075-.782-.089-1.172a.227.227,0,0,1,.454-.016c.013.378.042.76.086,1.135a.227.227,0,0,1-.2.253Zm-.079-2.312h0a.226.226,0,0,1-.216-.237c.016-.322.042-.647.079-.968.008-.068.016-.135.025-.2a.227.227,0,1,1,.45.058l-.024.2c-.036.311-.061.626-.076.937A.226.226,0,0,1,78.555,74.106Zm.3-2.293a.246.246,0,0,1-.037,0,.228.228,0,0,1-.175-.27c.082-.382.18-.765.292-1.138a.227.227,0,1,1,.435.13c-.109.362-.2.733-.282,1.1A.228.228,0,0,1,78.851,71.813Zm.665-2.214a.232.232,0,0,1-.072-.015.228.228,0,0,1-.129-.295c.143-.363.3-.725.475-1.075a.227.227,0,1,1,.408.2c-.167.339-.322.689-.46,1.041A.226.226,0,0,1,79.516,69.6Zm1.021-2.075a.215.215,0,0,1-.106-.032.227.227,0,0,1-.079-.311c.2-.336.419-.667.646-.983a.227.227,0,0,1,.369.265c-.22.306-.43.626-.625.951A.226.226,0,0,1,80.537,67.524Zm1.348-1.879a.225.225,0,0,1-.137-.054.228.228,0,0,1-.026-.32c.253-.3.521-.588.8-.864a.227.227,0,0,1,.321.321c-.268.268-.528.549-.773.837A.224.224,0,0,1,81.885,65.645Zm1.637-1.634a.227.227,0,0,1-.137-.4c.3-.252.61-.5.927-.723a.227.227,0,0,1,.265.369c-.308.221-.61.456-.9.7A.228.228,0,0,1,83.522,64.011Zm1.88-1.346a.227.227,0,0,1-.106-.422c.335-.2.683-.39,1.032-.561a.227.227,0,1,1,.2.407c-.339.166-.675.35-1,.544A.225.225,0,0,1,85.4,62.665Zm14.341-.075a.209.209,0,0,1-.1-.031c-.326-.19-.665-.37-1.006-.533a.227.227,0,1,1,.2-.41c.353.169.7.354,1.039.551a.227.227,0,0,1-.125.423Zm-12.267-.946a.227.227,0,0,1-.073-.438c.363-.143.737-.273,1.11-.386a.227.227,0,0,1,.131.435c-.361.109-.723.235-1.075.373A.231.231,0,0,1,87.476,61.644Zm10.181-.052a.22.22,0,0,1-.07-.015c-.353-.134-.717-.256-1.08-.361a.226.226,0,0,1-.155-.281.229.229,0,0,1,.281-.155c.375.108.751.234,1.115.373a.227.227,0,0,1-.091.439Zm-7.969-.616a.227.227,0,0,1-.037-.449c.383-.081.773-.148,1.159-.2a.227.227,0,1,1,.058.45c-.374.048-.751.112-1.122.192A.227.227,0,0,1,89.688,60.976Zm5.748-.026a.2.2,0,0,1-.035,0c-.369-.075-.748-.135-1.125-.18a.227.227,0,0,1,.053-.451c.39.046.781.109,1.162.186a.227.227,0,0,1-.055.449Zm-3.455-.268a.227.227,0,0,1,0-.453c.391-.018.787-.02,1.176-.005h0a.227.227,0,0,1-.019.454c-.377-.014-.76-.013-1.138,0Z" fill="#fff"/>
          <path id="Trazado_198409" data-name="Trazado 198409" d="M101.187,63.559a.224.224,0,0,1-.127-.046q-.222-.169-.451-.33a.228.228,0,1,1,.262-.372q.235.167.464.341a.227.227,0,0,1,.043.318A.223.223,0,0,1,101.187,63.559Z" fill="#fff"/>
        </g>
        <g id="Grupo_135858" data-name="Grupo 135858" opacity="0.64">
          <path id="Trazado_198410" data-name="Trazado 198410" d="M106.636,73.142a.226.226,0,0,1-.215-.2c-.022-.185-.047-.37-.075-.553a.227.227,0,1,1,.449-.07c.029.189.055.38.077.571a.227.227,0,0,1-.2.252A.217.217,0,0,1,106.636,73.142Z" fill="#fff"/>
          <path id="Trazado_198411" data-name="Trazado 198411" d="M92.008,88.842c-.224-.01-.451-.025-.673-.046a.227.227,0,1,1,.041-.452c.371.034.749.053,1.12.058a.221.221,0,0,1,.224.23.227.227,0,0,1-.23.224C92.33,88.854,92.169,88.85,92.008,88.842Zm1.612-.019a.227.227,0,0,1-.005-.453c.37-.025.744-.067,1.113-.122a.226.226,0,0,1,.259.19.229.229,0,0,1-.191.259c-.381.057-.768.1-1.15.126Zm-3.4-.176-.029,0c-.38-.066-.761-.147-1.132-.243a.227.227,0,0,1,.113-.44c.36.093.728.172,1.1.235a.227.227,0,0,1-.048.451Zm5.652-.164a.227.227,0,0,1-.041-.448c.362-.085.725-.187,1.078-.3a.227.227,0,1,1,.14.432c-.365.118-.74.223-1.114.311A.224.224,0,0,1,95.869,88.483Zm-7.857-.4a.241.241,0,0,1-.064-.012c-.364-.127-.726-.269-1.077-.423a.227.227,0,1,1,.183-.416c.339.15.69.287,1.043.409a.227.227,0,0,1-.085.442Zm10.021-.3a.227.227,0,0,1-.077-.437c.342-.142.684-.3,1.016-.472a.228.228,0,0,1,.208.4c-.343.176-.7.339-1.05.486A.22.22,0,0,1,98.033,87.783Zm-12.1-.62a.219.219,0,0,1-.1-.027c-.336-.182-.671-.381-.994-.592a.227.227,0,1,1,.247-.38c.314.2.637.4.963.572a.227.227,0,0,1-.118.427Zm14.127-.42a.227.227,0,0,1-.109-.42c.316-.2.628-.407.927-.628a.227.227,0,1,1,.27.365c-.309.228-.632.447-.958.649A.225.225,0,0,1,100.056,86.743Zm1.831-1.351a.226.226,0,0,1-.161-.078.229.229,0,0,1,.022-.321c.28-.243.554-.5.815-.768a.227.227,0,1,1,.325.318c-.27.275-.553.542-.842.793A.229.229,0,0,1,101.887,85.392Zm1.591-1.627a.225.225,0,0,1-.135-.052.228.228,0,0,1-.029-.32c.238-.286.467-.585.681-.889a.227.227,0,1,1,.371.261c-.221.314-.457.623-.7.919A.228.228,0,0,1,103.478,83.765Zm1.309-1.862a.213.213,0,0,1-.105-.031.227.227,0,0,1-.08-.311c.188-.319.366-.652.528-.988a.227.227,0,0,1,.409.2c-.168.347-.351.69-.546,1.021A.226.226,0,0,1,104.787,81.9Zm.991-2.048a.264.264,0,0,1-.072-.015.228.228,0,0,1-.13-.294c.134-.346.256-.7.361-1.06a.227.227,0,0,1,.436.129c-.109.369-.235.737-.373,1.1A.228.228,0,0,1,105.778,79.855Zm.646-2.182a.15.15,0,0,1-.037,0,.228.228,0,0,1-.176-.269c.077-.364.139-.736.186-1.105a.227.227,0,0,1,.451.058c-.049.381-.113.764-.192,1.14A.226.226,0,0,1,106.424,77.673Zm.288-2.256a.227.227,0,0,1-.217-.237v-.03c.017-.363.019-.73.007-1.092a.227.227,0,0,1,.454-.014c.013.373.01.752-.007,1.127V75.2A.228.228,0,0,1,106.712,75.417Z" fill="#fff"/>
          <path id="Trazado_198412" data-name="Trazado 198412" d="M84.011,85.913a.221.221,0,0,1-.128-.047c-.153-.118-.3-.239-.449-.363a.227.227,0,1,1,.292-.347c.143.12.287.237.435.351a.227.227,0,0,1-.15.406Z" fill="#fff"/>
        </g>
        <g id="Grupo_135859" data-name="Grupo 135859">
          <path id="Trazado_198413" data-name="Trazado 198413" d="M84.692,81.883a.171.171,0,0,0,.187.061l1.962-.623a8.979,8.979,0,0,0,2.493,1.493l.38,2.022a.172.172,0,0,0,.142.136l2.443.36a.171.171,0,0,0,.175-.09l.947-1.826a8.98,8.98,0,0,0,2.817-.71l1.7,1.162a.168.168,0,0,0,.2,0l1.982-1.473a.171.171,0,0,0,.061-.187l-.623-1.962a8.938,8.938,0,0,0,1.492-2.493l2.022-.38a.171.171,0,0,0,.137-.142l.36-2.443a.172.172,0,0,0-.09-.175l-1.826-.947a8.98,8.98,0,0,0-.71-2.817l1.162-1.7a.168.168,0,0,0,0-.2l-1.473-1.982a.169.169,0,0,0-.187-.06l-1.962.622a8.952,8.952,0,0,0-2.493-1.492l-.38-2.022a.169.169,0,0,0-.142-.136l-2.443-.36a.169.169,0,0,0-.175.089l-.947,1.826a8.98,8.98,0,0,0-2.817.71l-1.7-1.162a.17.17,0,0,0-.2,0L85.2,66.459a.169.169,0,0,0-.06.187l.622,1.962A8.952,8.952,0,0,0,84.27,71.1l-2.022.38a.172.172,0,0,0-.137.142l-.36,2.443a.171.171,0,0,0,.09.175l1.826.947A8.98,8.98,0,0,0,84.377,78l-1.162,1.7a.168.168,0,0,0,0,.2Z" fill="url(#linear-gradient-2)"/>
          <path id="Trazado_198414" data-name="Trazado 198414" d="M92.547,76.843a2.422,2.422,0,1,1,.355-.01h0A2.49,2.49,0,0,1,92.547,76.843Zm.332-.236h0Zm-.131-4.146a2.141,2.141,0,0,0-.288.008,1.966,1.966,0,1,0,.4,3.912h0a1.966,1.966,0,0,0-.108-3.92Z" fill="#fff" opacity="0.56"/>
          <path id="Trazado_198415" data-name="Trazado 198415" d="M92.429,80.571q-.316-.015-.633-.061a6.212,6.212,0,0,1-1.213-.305l-.062-.023a.228.228,0,0,1-.148-.223.22.22,0,0,1,.015-.07.228.228,0,0,1,.292-.133,5.751,5.751,0,0,0,1.182.305h0l.021,0a5.714,5.714,0,0,0,2.778-.286,5.774,5.774,0,0,0,1.455-.787,5.692,5.692,0,0,0,2.252-3.765,5.852,5.852,0,0,0,.056-.587A5.732,5.732,0,1,0,87.4,76.585a.237.237,0,0,1,.017.1.227.227,0,0,1-.437.077,6.176,6.176,0,0,1-.464-2.645,5.978,5.978,0,0,1,.06-.625,6.185,6.185,0,1,1,5.851,7.082Z" fill="#fff" opacity="0.56"/>
        </g>
      </g>
      <g id="Grupo_135864" data-name="Grupo 135864">
        <g id="Grupo_135861" data-name="Grupo 135861" opacity="0.64">
          <path id="Trazado_198416" data-name="Trazado 198416" d="M121.838,26.032a.218.218,0,0,1-.2-.166c-.044-.178-.083-.361-.117-.544a.218.218,0,0,1,.428-.08c.033.175.071.35.112.521a.216.216,0,0,1-.159.263A.221.221,0,0,1,121.838,26.032Z" fill="#fff"/>
          <path id="Trazado_198417" data-name="Trazado 198417" d="M121.582,24.406a.218.218,0,0,1-.207-.2,10.106,10.106,0,0,1-.018-1.128.218.218,0,0,1,.226-.209h0a.218.218,0,0,1,.208.226,9.477,9.477,0,0,0,.017,1.079.219.219,0,0,1-.2.233Zm.088-2.2-.023,0a.219.219,0,0,1-.183-.248,10.233,10.233,0,0,1,.231-1.1.218.218,0,1,1,.421.113,9.633,9.633,0,0,0-.22,1.055A.219.219,0,0,1,121.67,22.2Zm.57-2.126a.214.214,0,0,1-.069-.015.219.219,0,0,1-.124-.283,9.973,9.973,0,0,1,.472-1.024.218.218,0,1,1,.385.2,9.534,9.534,0,0,0-.451.98A.218.218,0,0,1,122.24,20.079Zm1.032-1.947a.212.212,0,0,1-.113-.038.217.217,0,0,1-.057-.3,10.037,10.037,0,0,1,.687-.893.218.218,0,0,1,.33.285,9.683,9.683,0,0,0-.657.854A.22.22,0,0,1,123.272,18.132Zm1.438-1.667a.218.218,0,0,1-.138-.378,10.474,10.474,0,0,1,.868-.719.218.218,0,1,1,.259.351,9.751,9.751,0,0,0-.831.688A.219.219,0,0,1,124.71,16.465Zm1.772-1.308a.219.219,0,0,1-.1-.407,10.4,10.4,0,0,1,1-.509.218.218,0,1,1,.175.4,9.517,9.517,0,0,0-.961.487A.223.223,0,0,1,126.482,15.157Zm9.512-.193a.23.23,0,0,1-.091-.025,9.522,9.522,0,0,0-.981-.447.218.218,0,1,1,.158-.407,9.973,9.973,0,0,1,1.026.468.218.218,0,0,1,.091.294A.221.221,0,0,1,135.994,14.964Zm-7.5-.69a.218.218,0,0,1-.055-.426,10.051,10.051,0,0,1,1.094-.273.218.218,0,1,1,.081.428,9.868,9.868,0,0,0-1.046.261A.213.213,0,0,1,128.5,14.274Zm5.444-.109a.244.244,0,0,1-.046-.007,9.8,9.8,0,0,0-1.057-.217.218.218,0,0,1,.064-.431,9.97,9.97,0,0,1,1.1.227.218.218,0,0,1-.066.428Zm-3.282-.3a.218.218,0,0,1-.006-.436,10.093,10.093,0,0,1,1.127-.021h0a.218.218,0,0,1-.018.436,9.456,9.456,0,0,0-1.078.02Z" fill="#fff"/>
          <path id="Trazado_198418" data-name="Trazado 198418" d="M137.391,15.856a.219.219,0,0,1-.122-.044c-.142-.109-.287-.213-.432-.312a.218.218,0,1,1,.246-.36c.151.1.3.212.451.325a.218.218,0,0,1-.143.391Z" fill="#fff"/>
        </g>
        <g id="Grupo_135862" data-name="Grupo 135862" opacity="0.64">
          <path id="Trazado_198419" data-name="Trazado 198419" d="M141.217,22.7a.218.218,0,0,1-.207-.2c-.017-.174-.04-.352-.068-.528a.218.218,0,0,1,.431-.068c.029.185.053.371.071.553a.218.218,0,0,1-.2.238A.107.107,0,0,1,141.217,22.7Z" fill="#fff"/>
          <path id="Trazado_198420" data-name="Trazado 198420" d="M130.974,33.533c-.156-.007-.314-.018-.472-.032a.218.218,0,0,1,.04-.435,9.65,9.65,0,0,0,1.06.04.218.218,0,1,1,.008.436C131.4,33.545,131.185,33.542,130.974,33.533Zm-1.535-.19a.137.137,0,0,1-.034,0,10.063,10.063,0,0,1-1.073-.28.218.218,0,1,1,.133-.415,9.741,9.741,0,0,0,1.027.268.218.218,0,0,1-.053.431Zm3.239.119a.218.218,0,0,1-.018-.434,9.668,9.668,0,0,0,1.043-.193.218.218,0,1,1,.1.423,9.817,9.817,0,0,1-1.09.2A.241.241,0,0,1,132.678,33.462Zm-5.3-.781a.208.208,0,0,1-.08-.019,10.189,10.189,0,0,1-.985-.509.218.218,0,0,1,.221-.376,9.548,9.548,0,0,0,.943.487.218.218,0,0,1-.1.417Zm7.407.268a.216.216,0,0,1-.2-.142.218.218,0,0,1,.13-.28,9.859,9.859,0,0,0,.975-.418.218.218,0,1,1,.193.391,10.249,10.249,0,0,1-1.018.436A.194.194,0,0,1,134.783,32.949Zm1.94-.961a.215.215,0,0,1-.173-.1.218.218,0,0,1,.065-.3,9.741,9.741,0,0,0,.861-.621.218.218,0,0,1,.274.339,9.985,9.985,0,0,1-.9.648A.214.214,0,0,1,136.723,31.988Zm1.685-1.362a.213.213,0,0,1-.143-.063.217.217,0,0,1,0-.308,9.644,9.644,0,0,0,.7-.793.218.218,0,0,1,.341.271,9.987,9.987,0,0,1-.737.829A.214.214,0,0,1,138.408,30.626Zm1.349-1.695a.231.231,0,0,1-.106-.033.219.219,0,0,1-.069-.3,9.77,9.77,0,0,0,.515-.928.218.218,0,1,1,.392.19,9.762,9.762,0,0,1-.538.97A.217.217,0,0,1,139.757,28.931Zm.944-1.951a.234.234,0,0,1-.063-.012.219.219,0,0,1-.133-.279,9.825,9.825,0,0,0,.3-1.018.218.218,0,0,1,.424.1,10,10,0,0,1-.311,1.065A.218.218,0,0,1,140.7,26.98Zm.492-2.11h-.016a.217.217,0,0,1-.19-.242l.006-.056c.026-.223.044-.449.054-.672.005-.111.008-.222.009-.332a.219.219,0,0,1,.221-.215.211.211,0,0,1,.215.22c0,.115,0,.231-.009.346-.011.233-.03.47-.057.7l-.006.057A.218.218,0,0,1,141.193,24.87Z" fill="#fff"/>
          <path id="Trazado_198421" data-name="Trazado 198421" d="M125.5,31.575a.218.218,0,0,1-.12-.044c-.146-.109-.293-.226-.436-.346a.218.218,0,1,1,.281-.334c.137.115.277.227.416.331a.218.218,0,0,1-.141.393Z" fill="#fff"/>
        </g>
        <g id="Grupo_135863" data-name="Grupo 135863">
          <path id="Trazado_198422" data-name="Trazado 198422" d="M125.862,28.608a.117.117,0,0,0,.13.043l1.372-.436a6.3,6.3,0,0,0,1.743,1.044l.266,1.413a.119.119,0,0,0,.1.1l1.708.251a.118.118,0,0,0,.122-.062l.662-1.277a6.28,6.28,0,0,0,1.97-.5l1.188.812a.12.12,0,0,0,.138,0l1.385-1.03a.117.117,0,0,0,.043-.13l-.435-1.372a6.273,6.273,0,0,0,1.043-1.743l1.414-.266a.119.119,0,0,0,.095-.1l.251-1.708a.116.116,0,0,0-.062-.122l-1.277-.662a6.272,6.272,0,0,0-.5-1.97l.812-1.189a.117.117,0,0,0,0-.137L137,18.179a.12.12,0,0,0-.131-.042l-1.372.435a6.273,6.273,0,0,0-1.743-1.043l-.266-1.414a.119.119,0,0,0-.1-.095l-1.708-.251a.116.116,0,0,0-.122.062l-.662,1.277a6.28,6.28,0,0,0-1.97.5l-1.188-.812a.119.119,0,0,0-.138,0l-1.385,1.029a.119.119,0,0,0-.043.131l.436,1.372a6.3,6.3,0,0,0-1.044,1.743l-1.413.266a.119.119,0,0,0-.1.1l-.251,1.708a.116.116,0,0,0,.062.122l1.277.662a6.287,6.287,0,0,0,.5,1.97l-.812,1.188a.12.12,0,0,0,0,.138Z" fill="url(#linear-gradient-3)"/>
          <path id="Trazado_198423" data-name="Trazado 198423" d="M131.348,25.143a1.752,1.752,0,1,1,.26-.007h0A1.745,1.745,0,0,1,131.348,25.143Zm.146-3.063a1.271,1.271,0,0,0-.2.006,1.315,1.315,0,1,0,.265,2.616h0a1.315,1.315,0,0,0-.07-2.622Z" fill="#fff" opacity="0.56"/>
          <path id="Trazado_198424" data-name="Trazado 198424" d="M131.263,27.75c-.147-.007-.295-.021-.443-.043h0a4.412,4.412,0,0,1-.845-.212l-.007,0-.051-.019a.219.219,0,0,1-.142-.214.229.229,0,0,1,.014-.067.219.219,0,0,1,.281-.127,3.956,3.956,0,0,0,.814.209l.027,0a3.949,3.949,0,0,0,4.443-3.263c0-.023.008-.047.011-.071a3.891,3.891,0,0,0,.039-.4,3.948,3.948,0,0,0-7.85-.751,3.845,3.845,0,0,0-.038.4,3.919,3.919,0,0,0,.3,1.688.2.2,0,0,1,.016.093.218.218,0,0,1-.419.074,4.366,4.366,0,0,1-.329-1.876q.01-.222.042-.441a4.384,4.384,0,0,1,8.717.833,4.211,4.211,0,0,1-.042.445A4.393,4.393,0,0,1,131.263,27.75Z" fill="#fff" opacity="0.56"/>
        </g>
      </g>
    </g>
    <g id="Grupo_135867" data-name="Grupo 135867">
      <rect id="Rectángulo_44996" data-name="Rectángulo 44996" width="55.53" height="55.53" rx="1.869" transform="translate(152.023 12.054)" fill="#8c6df2"/>
      <rect id="Rectángulo_44997" data-name="Rectángulo 44997" width="55.53" height="55.53" rx="1.869" transform="translate(164.881 12.054)" fill="#5038a1"/>
      <g id="Grupo_135866" data-name="Grupo 135866">
        <path id="Trazado_198425" data-name="Trazado 198425" d="M186.327,37.308H187.6a2.9,2.9,0,0,0,2.553-1.111l7.757-11.256a3.33,3.33,0,0,1,1.454-1.254,5.34,5.34,0,0,1,2-.331h6.953L198.1,37.285a6.859,6.859,0,0,1-1.135,1.253,7.166,7.166,0,0,1-1.206.828,6.09,6.09,0,0,1,1.643.91,6.025,6.025,0,0,1,1.36,1.549l10.4,15.986h-7.141a6.213,6.213,0,0,1-1.171-.1,2.981,2.981,0,0,1-.84-.284,2.371,2.371,0,0,1-.614-.461,4.486,4.486,0,0,1-.5-.626l-7.8-11.99a2.351,2.351,0,0,0-1.076-.934,4.669,4.669,0,0,0-1.761-.272h-1.939V57.811h-7.993V23.356h7.993Z" fill="#fff"/>
      </g>
    </g>
    <g id="Grupo_135869" data-name="Grupo 135869">
      <rect id="Rectángulo_44998" data-name="Rectángulo 44998" width="55.53" height="55.53" rx="1.869" transform="translate(131.794 66.581)" fill="#fdb74d"/>
      <rect id="Rectángulo_44999" data-name="Rectángulo 44999" width="55.53" height="55.53" rx="1.869" transform="translate(144.652 66.581)" fill="#fedc72"/>
      <g id="Grupo_135868" data-name="Grupo 135868">
        <path id="Trazado_198426" data-name="Trazado 198426" d="M166.545,101.323V112.84h-7.993V78.385h12.155a20.055,20.055,0,0,1,6.254.863,12.011,12.011,0,0,1,4.3,2.377A9.266,9.266,0,0,1,183.76,85.2a12.1,12.1,0,0,1,.8,4.445,13.065,13.065,0,0,1-.828,4.73,9.492,9.492,0,0,1-2.53,3.689,11.918,11.918,0,0,1-4.315,2.4,19.773,19.773,0,0,1-6.184.863Zm0-6.03h4.162q3.121,0,4.493-1.49a5.916,5.916,0,0,0,1.371-4.162,6.23,6.23,0,0,0-.354-2.151,4.393,4.393,0,0,0-1.076-1.668,4.864,4.864,0,0,0-1.821-1.076,8.065,8.065,0,0,0-2.613-.378h-4.162Z" fill="#5038a1"/>
      </g>
    </g>
    <g id="Grupo_135871" data-name="Grupo 135871">
      <rect id="Rectángulo_45000" data-name="Rectángulo 45000" width="55.53" height="55.53" rx="1.869" transform="translate(142.201 121.416)" fill="#5038a1"/>
      <rect id="Rectángulo_45001" data-name="Rectángulo 45001" width="55.53" height="55.53" rx="1.869" transform="translate(155.059 121.416)" fill="#8c6df2"/>
      <g id="Grupo_135870" data-name="Grupo 135870">
        <path id="Trazado_198427" data-name="Trazado 198427" d="M184.051,168.345h-8.04V133.891h8.04Z" fill="#fff"/>
      </g>
    </g>
    <g id="Grupo_135873" data-name="Grupo 135873">
      <path id="Trazado_198428" data-name="Trazado 198428" d="M137.886,84.516s-.39,16.96-18.223,19.934l-3.2-3.16s15.442-5.251,19.461-16.223l-.858-5.819.6-3.851Z" fill="url(#linear-gradient-4)"/>
      <g id="Grupo_135872" data-name="Grupo 135872">
        <path id="Trazado_198429" data-name="Trazado 198429" d="M120.644,142.626s-8.461,18.44-12.9,26.078c0,0-.882,4.806,0,6.317l.751.334-3.506-.1s-.312-6.465-.069-6.826a.893.893,0,0,1,.73-.337s1.5-11.913,5.858-14.455l4.221-14.535Z" fill="url(#linear-gradient-5)"/>
        <path id="Trazado_198430" data-name="Trazado 198430" d="M109.993,176.26c.005.085-2.738.046-4.229.019a1.185,1.185,0,0,1-1.136-.934l-1.126-5.913a1.063,1.063,0,0,1,.808-1.235l.628-.144a3.365,3.365,0,0,1,.614,2.387c-.282,1.157-.533,4.155.18,4.505a10.414,10.414,0,0,0,2.763.41S109.946,175.5,109.993,176.26Z" fill="url(#linear-gradient-6)"/>
        <path id="Trazado_198431" data-name="Trazado 198431" d="M128.663,176.368a.309.309,0,0,1-.156.578c-2.494-.025-8.083-.1-8.579-.31-.641-.267.233-2.571,1.154-3.35l5.083,1.659Z" fill="url(#linear-gradient-7)"/>
        <path id="Trazado_198432" data-name="Trazado 198432" d="M130.241,141.45s-5.468,26.45-7.014,31.609l3.658,2.3s-1.833-.312-3.193-.41a4.664,4.664,0,0,1-2.61-1.659l.438-.7s1.371-26.306,1.038-29.293Z" fill="url(#linear-gradient-8)"/>
        <path id="Trazado_198433" data-name="Trazado 198433" d="M143.813,79.755s.754,13.759-11.773,20.79l3.016,6.878s11.342-6.859,10.922-25.569a2.177,2.177,0,0,1,.532-1.465l2.411-2.8a4.329,4.329,0,0,0,.92-3.875l-.317-1.269a.659.659,0,0,0-.969-.409l-.252.147a4.424,4.424,0,0,0-1.817,2.02L145.3,76.852a2.544,2.544,0,0,1-2.54,1.5l-.732-.063Z" fill="url(#linear-gradient-9)"/>
        <path id="Trazado_198434" data-name="Trazado 198434" d="M132.476,99.514c-2.1.581-9.195,2.449-13.627,2.373l2.721,15.357-.217,2.5a23.005,23.005,0,0,0,8.873-.04,68.788,68.788,0,0,1,4.469-8.693c.569-.835.145-1.832-.177-2.789l.443-.3a1.206,1.206,0,0,0,.478-1.379l-2.161-6.611A.66.66,0,0,0,132.476,99.514Z" fill="url(#linear-gradient-10)"/>
        <path id="Trazado_198435" data-name="Trazado 198435" d="M127.464,100.752c.031-.041-1.853-5.687-1.853-5.687l-2.7.245-1.054,6.4S126.088,102.568,127.464,100.752Z" fill="url(#linear-gradient-11)"/>
        <path id="Trazado_198436" data-name="Trazado 198436" d="M123.559,86.162c.18.112,5.766,2.42,4.566,8.219a1.09,1.09,0,0,1-.62.776,9.472,9.472,0,0,1-4.694.777c-2.926-.3-4.843-5.4-4.762-6.889S121.776,85.052,123.559,86.162Z" fill="url(#linear-gradient-12)"/>
        <path id="Trazado_198437" data-name="Trazado 198437" d="M121.86,83.908c.146.019,3.227,1.092,1.7,3.325s-2.1,3.546-1.378,4.527c.658.893,2.117.384,1.99,2.242a1.04,1.04,0,0,0,.444.942c1.374.93,4.727,3.793,1.4,7.877a1.039,1.039,0,0,0-.117,1.164c1.843,3.306,1.153,8.839-1.265,11.739A11.879,11.879,0,0,1,119.084,119a16.006,16.006,0,0,1-5.518,1.013,7.3,7.3,0,0,1-5.093-2.068,4.47,4.47,0,0,1-1.062-1.765,5.155,5.155,0,0,1-.147-1.933c.278-3.15,2.262-5.9,4.5-8.127a7.748,7.748,0,0,0,2.428-3.338,5.787,5.787,0,0,0,.123-1.493,8.937,8.937,0,0,0-.56-3.221c-.335-.822-.851-1.56-1.2-2.378a8.038,8.038,0,0,1,.073-5.924,10.678,10.678,0,0,1,3.917-4.973A7.2,7.2,0,0,1,121.86,83.908Z" fill="url(#linear-gradient-13)"/>
      </g>
      <path id="Trazado_198438" data-name="Trazado 198438" d="M121.056,119.322a15.125,15.125,0,0,0-3.984,5.092c-2.121,6.592-3.841,17.927-5.564,29.214-2.558,1.263-4.051,6.369-5.5,11.613a5.319,5.319,0,0,0,2.979,1.247l15.968-31.655.691-13.818C123.985,121.258,121.962,119.939,121.056,119.322Z" fill="#333"/>
      <path id="Trazado_198439" data-name="Trazado 198439" d="M123.559,119.5a12.225,12.225,0,0,0,6.578-.159.5.5,0,0,1,.618.54h0c2.945,12.332-1.45,30.344-6.093,48.406a2.7,2.7,0,0,1-3.023,0l.367-32.372C120.416,130.376,122.333,125.873,123.559,119.5Z" fill="#333"/>
      <path id="Trazado_198440" data-name="Trazado 198440" d="M121.506,118.608c1.923.674,5.2.8,8.984.717a.176.176,0,0,1,.175.137l.276,1.264a.175.175,0,0,1-.164.212c-4.89.209-8.807.037-10.363-1.062a.176.176,0,0,1-.025-.267l.936-.958A.172.172,0,0,1,121.506,118.608Z" fill="url(#linear-gradient-14)"/>
    </g>
    <rect id="Rectángulo_45002" data-name="Rectángulo 45002" width="356.385" height="188.444" transform="translate(0 0.556)" fill="none"/>
  </g>
</svg>
