<svg id="Grupo_136099" data-name="Grupo 136099" xmlns="http://www.w3.org/2000/svg" xmlns:xlink="http://www.w3.org/1999/xlink" width="471" height="272.333" viewBox="0 0 471 272.333">
  <defs>
    <linearGradient id="linear-gradient" x1="-83.922" y1="0.417" x2="-83.264" y2="1.226" gradientUnits="objectBoundingBox">
      <stop offset="0" stop-color="#09005d"/>
      <stop offset="1" stop-color="#1a0f91"/>
    </linearGradient>
    <linearGradient id="linear-gradient-2" x1="-89.813" y1="0.26" x2="-88.453" y2="1.995" xlink:href="#linear-gradient"/>
    <linearGradient id="linear-gradient-3" x1="-46.083" y1="0.212" x2="-46.535" y2="0.899" gradientUnits="objectBoundingBox">
      <stop offset="0" stop-color="#febbba"/>
      <stop offset="1" stop-color="#ff928e"/>
    </linearGradient>
    <linearGradient id="linear-gradient-4" x1="-36.115" y1="0.791" x2="-35.417" y2="-1.379" xlink:href="#linear-gradient-3"/>
    <linearGradient id="linear-gradient-5" x1="-161.033" y1="1.062" x2="-160.923" y2="0.1" xlink:href="#linear-gradient-3"/>
    <linearGradient id="linear-gradient-6" x1="-101.818" y1="0.82" x2="-102.129" y2="-0.114" xlink:href="#linear-gradient-3"/>
    <linearGradient id="linear-gradient-7" x1="-487.55" y1="2.058" x2="-489.023" y2="-0.895" xlink:href="#linear-gradient-3"/>
    <linearGradient id="linear-gradient-8" x1="-66.108" y1="0.5" x2="-65.108" y2="0.5" xlink:href="#linear-gradient"/>
    <linearGradient id="linear-gradient-9" x1="-61.933" y1="-0.604" x2="-62.673" y2="0.973" xlink:href="#linear-gradient"/>
  </defs>
  <path id="Trazado_188103" data-name="Trazado 188103" d="M407.894,43.978a144.751,144.751,0,0,1,24.92,18.571c52.754,47.609,34.844,98.777,28.8,114.576-9.759,25.49-16.782,47.057-48.146,64.534-71.259,39.714-323.4,29.007-359.686-3.4C17.473,205.83,7,176.487,2.752,144.121c-.245-1.283-.376-2.238-.5-3.074-1.2-8.1-7.236-58.225,55.846-96.268,13.16-8.086,29.916-15.422,49.806-21.8C197.624-5.06,334.539.532,407.894,43.978Z" fill="#e5e1f1"/>
  <path id="Trazado_139920" data-name="Trazado 139920" d="M346.458,145.349a4.329,4.329,0,0,0,.458-.142,3.059,3.059,0,0,0,1.4-4.885,5.614,5.614,0,0,0-6.224-2.037,105.1,105.1,0,0,1-23.407,5.572,124.657,124.657,0,0,1-25.245.573l-1.6-.119-1.6-.166c-1.068-.1-2.133-.241-3.2-.382q-3.2-.408-6.365-1.013c-1.058-.189-2.108-.43-3.159-.641-1.049-.229-2.092-.485-3.135-.724-1.037-.281-2.074-.529-3.105-.838s-2.056-.59-3.066-.929-2.024-.65-3.019-1.016c-.5-.18-1-.351-1.49-.54l-1.469-.575c-.987-.367-1.931-.807-2.895-1.205-.945-.427-1.888-.855-2.811-1.3-.914-.464-1.841-.9-2.72-1.4-.441-.244-.89-.477-1.327-.726l-1.286-.757c-.215-.128-.431-.247-.643-.382l-.639-.412-1.272-.823c-.827-.58-1.664-1.136-2.468-1.734a97.406,97.406,0,0,1-17.183-16.375c-5.1-6.075-9.737-12.6-14.534-19.391-2.4-3.393-4.828-6.861-7.407-10.383-1.276-1.761-2.62-3.532-3.985-5.313-.7-.891-1.385-1.784-2.109-2.68l-2.11-2.611c-5.413-6.676-11.1-13.512-17.462-20.312a188.394,188.394,0,0,0-21.729-20.07,133.318,133.318,0,0,0-13.59-9.325,115.536,115.536,0,0,0-16.009-7.977c-2.87-1.155-5.836-2.2-8.867-3.125-1.515-.465-3.05-.885-4.6-1.284-.773-.195-1.521-.386-2.328-.564s-1.613-.36-2.42-.516A93.908,93.908,0,0,0,92.5,6.984c-1.593.018-3.177.065-4.749.169-.833.048-1.459.106-2.161.153l-2.061.159c-1.375.112-2.75.271-4.125.441s-2.744.388-4.119.59a98.892,98.892,0,0,0-16.163,4.019A83.4,83.4,0,0,0,44.2,19.262,76.805,76.805,0,0,0,13.773,51.583,97.983,97.983,0,0,0,5.05,77.32,118.093,118.093,0,0,0,3.225,90.669c-.175,2.266-.286,4.554-.321,6.91-.014,1.181-.017,2.376.013,3.626.015.627.036,1.259.074,1.939l.068,1.06.053.6.039.361.075.535c3.332,17.462,22.882,31.829,43.661,32.086s34.924-13.691,31.592-31.154l.012.19c0,.046-.011.023-.011.023l-.015-.007c-.015,0-.041-.06-.062-.092a3.4,3.4,0,0,1-.142-.321c-.1-.239-.2-.53-.3-.818-.2-.589-.394-1.228-.573-1.878-.358-1.312-.688-2.679-.974-4.056a70.371,70.371,0,0,1-1.237-8.322,59.913,59.913,0,0,1,.515-15.728,37.5,37.5,0,0,1,4.73-13,27.47,27.47,0,0,1,4.061-5.212A30.224,30.224,0,0,1,89.9,53.065a38.792,38.792,0,0,1,6.922-3.471c.66-.23,1.3-.487,1.981-.715.691-.21,1.364-.451,2.074-.653l2.065-.581c.536-.164,1.094-.3,1.647-.437a30.4,30.4,0,0,1,7.019-.742c.3,0,.607.009.911.017l1,.058c.671.049,1.349.107,2.035.195,1.372.169,2.779.4,4.224.722a70.507,70.507,0,0,1,18.7,7.479q2.457,1.345,4.9,2.884t4.893,3.221c3.257,2.239,6.5,4.654,9.73,7.2,6.459,5.085,12.81,10.666,19.254,16.486l2.309,2.092c.746.674,1.484,1.376,2.233,2.068,1.485,1.411,2.971,2.839,4.458,4.317,2.973,2.939,5.957,6,8.978,9.132,6.054,6.249,12.339,12.759,19.419,19a128.665,128.665,0,0,0,23.856,17.03c1.1.606,2.237,1.167,3.354,1.742,1.149.544,2.259,1.093,3.435,1.62l1.748.788c.586.253,1.176.489,1.762.733,1.168.5,2.357.922,3.534,1.365a109.788,109.788,0,0,0,14.223,4.025,147.185,147.185,0,0,0,27.895,3.062,183.788,183.788,0,0,0,26.641-1.516,226.869,226.869,0,0,0,25.337-4.83Z" fill="#fdb74d"/>
  <g id="Grupo_135929" data-name="Grupo 135929">
    <path id="Trazado_198491" data-name="Trazado 198491" d="M73.346,150.205c5.2-22.185,22.195-39.6,43.832-44.926a59.968,59.968,0,0,1,41.212,4.237,6.984,6.984,0,0,0,9.864-4.666c10.664-42.381,48.2-73.691,92.86-73.691,52.963,0,95.9,44.022,95.9,98.326,0,1.442-.028,3.411-.053,5.3.188,4.06,1.917,5.785,4.5,6.218,20.75,2.214,37.058,19.754,37.963,41.388,1.039,24.84-18.679,45.42-42.928,45.42H132.2C93.8,227.812,63.734,191.231,73.346,150.205Z" fill="#8c6df2"/>
    <path id="Trazado_198492" data-name="Trazado 198492" d="M90.718,158.519a53.723,53.723,0,0,1,75.933-36.33,6.235,6.235,0,0,0,8.807-4.166c9.522-37.841,43.032-65.8,82.912-65.8,47.289,0,85.625,39.307,85.625,87.793,0,1.287-.026,3.045-.048,4.733.168,3.625,1.712,5.165,4.017,5.551,18.527,1.978,33.088,17.638,33.9,36.954.928,22.179-16.678,40.555-38.329,40.555H143.262C108.979,227.812,82.136,195.15,90.718,158.519Z" fill="#91b3fa" opacity="0.21"/>
  </g>
  <g id="Grupo_135934" data-name="Grupo 135934">
    <path id="Trazado_198493" data-name="Trazado 198493" d="M116.761,254.387a3.317,3.317,0,0,0,3.308,3.3h178.9a3.317,3.317,0,0,0,3.309-3.3l1.488-102.812a5.761,5.761,0,0,0-6.067-5.1l-174.845-4.524a8.336,8.336,0,0,0-8.555,8.527Z" fill="#5038a1"/>
    <path id="Trazado_198494" data-name="Trazado 198494" d="M120.027,251.216a3.14,3.14,0,0,0,3.13,3.13h171.5a3.14,3.14,0,0,0,3.13-3.13l1.4-93.334a7.7,7.7,0,0,0-8.075-7.516l-167.574-4.5a5.861,5.861,0,0,0-6.011,6Z" fill="#7d97f4"/>
    <g id="Grupo_135930" data-name="Grupo 135930">
      <path id="Trazado_198495" data-name="Trazado 198495" d="M295.937,206.876h-.005a.459.459,0,0,1-.454-.466l.111-7.569a.458.458,0,0,1,.458-.452h.005a.459.459,0,0,1,.454.466l-.111,7.569A.459.459,0,0,1,295.937,206.876Z" fill="#fff"/>
      <path id="Trazado_198496" data-name="Trazado 198496" d="M296.209,188.327H296.2a.458.458,0,0,1-.452-.465l.426-28.99a5.448,5.448,0,0,0-1.554-4.078,7.664,7.664,0,0,0-5.069-1.73l-53.56-1.436a.459.459,0,0,1-.447-.471.44.44,0,0,1,.471-.446l53.529,1.437a8.419,8.419,0,0,1,5.711,1.984,6.332,6.332,0,0,1,1.836,4.744l-.426,29A.458.458,0,0,1,296.209,188.327Z" fill="#fff"/>
    </g>
    <rect id="Rectángulo_45078" data-name="Rectángulo 45078" width="210.922" height="9.033" rx="0.666" transform="translate(313.169 266.226) rotate(180)" fill="#5038a1"/>
    <path id="Trazado_198497" data-name="Trazado 198497" d="M194.433,249.793H128.4a4.408,4.408,0,0,1-4.408-4.409V159.191a4.408,4.408,0,0,1,4.577-4.4l66.032,2.527a4.408,4.408,0,0,1,4.24,4.4v83.666A4.409,4.409,0,0,1,194.433,249.793Z" fill="#91b3fa"/>
    <g id="Grupo_135931" data-name="Grupo 135931">
      <rect id="Rectángulo_45079" data-name="Rectángulo 45079" width="44.996" height="5.813" rx="0.629" transform="translate(136.931 188.598)" fill="#fff" opacity="0.51"/>
      <rect id="Rectángulo_45080" data-name="Rectángulo 45080" width="44.996" height="5.813" rx="0.629" transform="translate(137.019 197.881)" fill="#fff" opacity="0.51"/>
      <rect id="Rectángulo_45081" data-name="Rectángulo 45081" width="44.996" height="5.813" rx="0.629" transform="translate(137.283 207.358)" fill="#fff" opacity="0.51"/>
      <rect id="Rectángulo_45082" data-name="Rectángulo 45082" width="44.996" height="5.813" rx="0.629" transform="translate(137.371 216.641)" fill="#fff" opacity="0.51"/>
    </g>
    <g id="Grupo_135933" data-name="Grupo 135933">
      <rect id="Rectángulo_45083" data-name="Rectángulo 45083" width="64.691" height="5.813" rx="0.629" transform="translate(213.16 188.592)" fill="#fff" opacity="0.51"/>
      <rect id="Rectángulo_45084" data-name="Rectángulo 45084" width="64.691" height="5.813" rx="0.629" transform="translate(213.36 197.881)" fill="#fff" opacity="0.51"/>
      <rect id="Rectángulo_45085" data-name="Rectángulo 45085" width="38.333" height="5.813" rx="0.629" transform="translate(213.36 207.358)" fill="#fff" opacity="0.51"/>
      <g id="Grupo_135932" data-name="Grupo 135932" opacity="0.51">
        <path id="Trazado_198498" data-name="Trazado 198498" d="M247.5,166.927h-.986a.886.886,0,0,1-.886-.886v-3.368a2.183,2.183,0,0,0-2.183-2.183h-6.105a2.183,2.183,0,0,0-2.183,2.183v3.368a.886.886,0,0,1-.886.886h-.986a.886.886,0,0,1-.886-.886v-3.368a4.941,4.941,0,0,1,4.941-4.941h6.105a4.941,4.941,0,0,1,4.941,4.941v3.368A.886.886,0,0,1,247.5,166.927Z" fill="#fff"/>
        <path id="Trazado_198499" data-name="Trazado 198499" d="M248.723,167.722H232.066a1.848,1.848,0,0,0-1.848,1.848v12.784a1.848,1.848,0,0,0,1.848,1.848h16.657a1.848,1.848,0,0,0,1.848-1.848V169.57A1.848,1.848,0,0,0,248.723,167.722Zm-5.945,12.355a.685.685,0,0,1-.666.845h-3.435a.685.685,0,0,1-.666-.845l.8-3.336a3.087,3.087,0,1,1,3.163,0Z" fill="#fff"/>
      </g>
    </g>
  </g>
  <g id="Grupo_135937" data-name="Grupo 135937">
    <g id="Grupo_135935" data-name="Grupo 135935">
      <path id="Trazado_198500" data-name="Trazado 198500" d="M239.771,71.243a4.7,4.7,0,0,1,3.636-1.251c14.281,1.284,40.926-5.595,58.34-23.413,1.209-1.237,3.413-.538,4.8.5,19.367,14.474,51.47,17.472,62.614,18.085a4.7,4.7,0,0,1,4.414,4.211c10.135,97.885-53.6,133.355-66.815,139.616a4.712,4.712,0,0,1-4.5-.26C236.377,167.7,239.2,114.33,238.284,74.79A4.707,4.707,0,0,1,239.771,71.243Z" fill="#fdb74d"/>
      <path id="Trazado_198501" data-name="Trazado 198501" d="M304.976,201.88a1.568,1.568,0,0,1-.845-.247c-25.256-16.145-41.717-35.446-50.324-59.007-7.686-21.043-8.062-42.471-8.4-61.376l-.045-2.52a1.56,1.56,0,0,1,1.566-1.586h0c15.641,0,39.117-6.907,56.336-22.336a1.562,1.562,0,0,1,1.9-.137c18.919,12.553,45.906,16.209,60.309,17.27a1.556,1.556,0,0,1,1.439,1.421c3.348,38.193-4.6,70.49-23.612,95.993a113.347,113.347,0,0,1-37.623,32.354h0A1.562,1.562,0,0,1,304.976,201.88Zm.418-.742.146.285-.146-.285a112.656,112.656,0,0,0,37.4-32.166c18.918-25.374,26.82-57.522,23.487-95.554a.917.917,0,0,0-.847-.838c-14.465-1.066-41.576-4.74-60.617-17.375a.918.918,0,0,0-1.121.081c-17.345,15.542-41,22.5-56.751,22.5h0a.932.932,0,0,0-.677.277.906.906,0,0,0-.26.656l.045,2.52c.331,18.856.706,40.226,8.356,61.168,8.556,23.424,24.933,42.62,50.067,58.687A.925.925,0,0,0,305.394,201.138Z" fill="#fff" opacity="0.61"/>
    </g>
    <g id="Grupo_135936" data-name="Grupo 135936">
      <path id="Trazado_198502" data-name="Trazado 198502" d="M328,108.193h-2.979a2.678,2.678,0,0,1-2.678-2.678V95.332a6.6,6.6,0,0,0-6.6-6.6H297.288a6.6,6.6,0,0,0-6.6,6.6v10.183a2.678,2.678,0,0,1-2.679,2.678H285.03a2.678,2.678,0,0,1-2.678-2.678V95.332A14.935,14.935,0,0,1,297.288,80.4h18.459a14.935,14.935,0,0,1,14.936,14.935v10.183A2.679,2.679,0,0,1,328,108.193Z" fill="#fff" opacity="0.61"/>
      <path id="Trazado_198503" data-name="Trazado 198503" d="M331.7,110.6H281.338a5.588,5.588,0,0,0-5.588,5.588v38.648a5.588,5.588,0,0,0,5.588,5.588H331.7a5.587,5.587,0,0,0,5.587-5.588V116.184A5.587,5.587,0,0,0,331.7,110.6Zm-17.975,37.355a2.07,2.07,0,0,1-2.013,2.553H301.325a2.07,2.07,0,0,1-2.013-2.554l2.423-10.086a9.335,9.335,0,1,1,9.564,0Z" fill="#fff" opacity="0.61"/>
    </g>
  </g>
  <g id="Grupo_135939" data-name="Grupo 135939">
    <path id="Trazado_198504" data-name="Trazado 198504" d="M113.483,97.962s4.078.216,4.579,8.607c0,0-9.458,8.479-22.234,10.5-.959.151,1.341-6.548,1.687-7.455C99.16,105.294,104.341,102.513,113.483,97.962Z" fill="url(#linear-gradient)"/>
    <path id="Trazado_198505" data-name="Trazado 198505" d="M159.417,88.1H150.81S124.393,58.92,107.067,55.977c0,0-12.061,15.4.642,44.161a4.2,4.2,0,0,0,6.012,1.981,3.441,3.441,0,0,0,1.373-1.638L114.073,75.92s22.534,19.708,26.451,23.512S164.35,100.917,159.417,88.1Z" fill="#7d97f4"/>
    <path id="Trazado_198506" data-name="Trazado 198506" d="M76.206,149.351a32.35,32.35,0,0,1,17.649-7.724l2.806,1.716A30.583,30.583,0,0,1,91.6,148.77c-3,1.744-7.643,4.108-11.488,4.62C76.377,153.888,75.826,151.628,76.206,149.351Z" fill="url(#linear-gradient-2)"/>
    <path id="Trazado_198507" data-name="Trazado 198507" d="M97.515,109.611c2.222.719,3.2,3.867,8.837,1.786a49.918,49.918,0,0,0,11.6-6.11c.046.406.086.83.113,1.282,0,0-9.973,9.486-22.748,11.5a1.273,1.273,0,0,1-1.374-1.714A32.118,32.118,0,0,1,97.515,109.611Z" fill="#91b3fa"/>
    <path id="Trazado_198508" data-name="Trazado 198508" d="M73.488,152.05a29.664,29.664,0,0,1,2.718-2.7c-.38,2.277.171,4.537,3.91,4.039,3.845-.512,8.484-2.876,11.488-4.62-3.765,3.211-9.494,6.619-16.724,6.419A1.9,1.9,0,0,1,73.488,152.05Z" fill="#91b3fa"/>
    <path id="Trazado_198509" data-name="Trazado 198509" d="M159.1,94.323,118.8,94.76S95.779,113.8,91.6,142.842c0,0-.693,2.136,3.467,2.5a79.912,79.912,0,0,0,22.991-25.158c11.126-19.7,33.168-10.834,33.168-10.834,10.59,2.337,19.018,1.467,25.186-8.025Z" fill="#7d97f4"/>
    <path id="Trazado_198510" data-name="Trazado 198510" d="M158.15,61.855S153.811,83.6,132.551,92.2l-7.562-.891-1.784,2.845,17.738.565a48.516,48.516,0,0,0,23.2-22.371C164.406,71.811,168.83,62.676,158.15,61.855Z" fill="url(#linear-gradient-3)"/>
    <path id="Trazado_198511" data-name="Trazado 198511" d="M155.825,93.968s4.934-13.412,6-26.445a57.07,57.07,0,0,0-5.866-4.441,1.63,1.63,0,0,1-.637-2.115c1.658-3.436,11.69-16.929,12.441-17.117,4.085-1.019,20.836-8.984,32.633,7.153,5.063,6.926-1.005,28.245-23.975,50.323C169.025,102.53,162.114,100.4,155.825,93.968Z" fill="#5038a1"/>
    <path id="Trazado_198512" data-name="Trazado 198512" d="M174.838,70.462S161.129,86.694,143.6,89.067c0,0-4.529-4.13-7.9-2.655s-7.987,7.982-7.987,7.982h22.5s21.279-.75,31.912-13.653C181.278,76.225,178.716,73.528,174.838,70.462Z" fill="url(#linear-gradient-4)"/>
    <path id="Trazado_198513" data-name="Trazado 198513" d="M182.835,32.465l3,10a1.1,1.1,0,0,1-.427,1.225,11.179,11.179,0,0,1-10.4,1.045,1.631,1.631,0,0,1-1.049-1.4l-.711-8.715Z" fill="url(#linear-gradient-5)"/>
    <g id="Grupo_135938" data-name="Grupo 135938">
      <path id="Trazado_198514" data-name="Trazado 198514" d="M165.271,24.363s1.475,10.371,5.459,13.56,11.745.788,14.366-7.03l-5.223-13.367Z" fill="url(#linear-gradient-6)"/>
      <path id="Trazado_198515" data-name="Trazado 198515" d="M180.461,26.175a.512.512,0,0,1-.667-.411,13.4,13.4,0,0,0-1.23-4.142s.381-1.361-3.438.695-9.554,5.074-12.931,3.276c-3.292-1.753-6.627-10.574,2.074-8.94a.512.512,0,0,0,.61-.537c-.106-1.45.037-4.786,3.415-5.856,3.161-1,4.892.425,5.6,1.286a.51.51,0,0,0,.8-.013c.947-1.236,3.518-3.867,7.3-2.2,3.118,1.374,3.6,3.3,3.552,4.492a.512.512,0,0,0,.729.488c.955-.44,2.491-.669,3.962,1.175,2.034,2.549-.872,4.759-1.744,5.338a.515.515,0,0,0-.233.424c-.008,1.326-.215,7.107-3.113,10.369a.518.518,0,0,1-.861-.149l-2.231-5.316a.514.514,0,0,0-.633-.291Z"/>
      <path id="Trazado_198516" data-name="Trazado 198516" d="M180.414,27.255s1.363-5.549,3.432-3.748-.539,5.768-2.91,6.523Z" fill="url(#linear-gradient-7)"/>
    </g>
    <path id="Trazado_198517" data-name="Trazado 198517" d="M128.851,95.653l-10.1-33.7a3.447,3.447,0,0,0-3.066-2.448l-13.642-.933a1.935,1.935,0,0,0-1.958,2.571l11.3,32.18a2.832,2.832,0,0,0,2.388,1.88L127.2,96.7Z" fill="url(#linear-gradient-8)"/>
    <path id="Trazado_198518" data-name="Trazado 198518" d="M110.216,73.377c.754,1.523,2.057,2.415,2.91,1.992s.932-2,.178-3.522-2.057-2.414-2.91-1.992S109.462,71.854,110.216,73.377Z" fill="#91b3fa"/>
    <path id="Trazado_198519" data-name="Trazado 198519" d="M127.2,96.7l.066,0,28.625-1.447a1.283,1.283,0,1,0-.13-2.562l-28.625,1.447A1.283,1.283,0,0,0,127.2,96.7Z" fill="url(#linear-gradient-9)"/>
    <path id="Trazado_198520" data-name="Trazado 198520" d="M161.82,67.721a.2.2,0,0,1-.2-.2c-.02-6.043,2.3-14.04,2.329-14.12a.2.2,0,1,1,.381.111c-.024.08-2.333,8.023-2.313,14.007a.2.2,0,0,1-.2.2Z" fill="#8c6df2"/>
    <path id="Trazado_198521" data-name="Trazado 198521" d="M174.838,70.66a.2.2,0,0,1-.123-.042.2.2,0,0,1-.033-.279c.063-.079,6.285-7.989,8.414-13.385a.2.2,0,0,1,.258-.112.2.2,0,0,1,.111.258c-2.151,5.45-8.408,13.4-8.471,13.485A.2.2,0,0,1,174.838,70.66Z" fill="#8c6df2"/>
    <path id="Trazado_198522" data-name="Trazado 198522" d="M183.658,82.822l-1.132-1.6a.2.2,0,0,1,.324-.229l.946,1.338c8.829-3.87,14.294-14.432,14.349-14.539a.2.2,0,0,1,.353.181c-.055.108-5.644,10.913-14.693,14.787Z" fill="#8c6df2"/>
  </g>
  <g id="Grupo_135940" data-name="Grupo 135940">
    <circle id="Elipse_5247" data-name="Elipse 5247" cx="14.58" cy="14.58" r="14.58" transform="translate(427.297 21.746)" fill="#5038a1" opacity="0.7" style="isolation: isolate"/>
    <g id="Elipse_5249" data-name="Elipse 5249">
      <circle id="Elipse_6146" data-name="Elipse 6146" cx="5.494" cy="5.494" r="5.494" transform="translate(438.185 26.391)" fill="none"/>
      <circle id="Elipse_6147" data-name="Elipse 6147" cx="4.86" cy="4.86" r="4.86" transform="translate(438.819 27.025)" fill="none" stroke="#fff" stroke-width="1.268"/>
    </g>
    <g id="Elipse_5250" data-name="Elipse 5250">
      <circle id="Elipse_6148" data-name="Elipse 6148" cx="2.958" cy="2.958" r="2.958" transform="translate(401.727 18.349)" fill="#fdb74d"/>
      <circle id="Elipse_6149" data-name="Elipse 6149" cx="2.324" cy="2.324" r="2.324" transform="translate(402.361 18.983)" fill="#fdb74d" stroke="#8c6df2" stroke-width="1.268"/>
    </g>
    <circle id="Elipse_5251" data-name="Elipse 5251" cx="1.902" cy="1.902" r="1.902" transform="translate(421.049 34.551)" fill="#fdb74d"/>
  </g>
  <g id="Grupo_135941" data-name="Grupo 135941">
    <circle id="Elipse_6150" data-name="Elipse 6150" cx="31.22" cy="31.22" r="31.22" transform="translate(399.46 203.694)" fill="#fdb74d" opacity="0.5"/>
    <g id="Elipse_4972" data-name="Elipse 4972">
      <circle id="Elipse_6151" data-name="Elipse 6151" cx="28.83" cy="28.83" r="28.83" transform="translate(401.85 206.084)" fill="none"/>
      <circle id="Elipse_6152" data-name="Elipse 6152" cx="27.293" cy="27.293" r="27.293" transform="translate(403.387 207.621)" fill="none" stroke="#fff" stroke-linecap="round" stroke-width="3.075" stroke-dasharray="2.306 6.15"/>
    </g>
  </g>
  <rect id="Rectángulo_45086" data-name="Rectángulo 45086" width="471" height="272.333" fill="none"/>
</svg>
