<svg id="Grupo_134804" data-name="Grupo 134804" xmlns="http://www.w3.org/2000/svg" width="144" height="144" viewBox="0 0 144 144">
  <rect id="Rectángulo_44760" data-name="Rectángulo 44760" width="144" height="144" rx="21.594" fill="#5038a1"/>
  <circle id="Elipse_5813" data-name="Elipse 5813" cx="45.565" cy="45.565" r="45.565" transform="translate(26.435 27.629)" fill="#fdb74d" opacity="0.5"/>
  <path id="Trazado_192223" data-name="Trazado 192223" d="M122.726,94.131c-.557-.419-1.135-.814-1.674-1.256a1.412,1.412,0,0,1-.612-1.09c.017-.371,0-.747.04-1.118.019-.171-.061-.324,0-.517a2.365,2.365,0,0,1,.939-1.185c.5-.379,1.027-.72,1.509-1.117a3.113,3.113,0,0,0,.847-3.829,30.972,30.972,0,0,0-1.992-3.392,3.216,3.216,0,0,0-3.882-1.151c-.569.247-1.136.5-1.717.718a1.929,1.929,0,0,1-1.911-.13c-.227-.162-.484-.281-.726-.421a1.474,1.474,0,0,1-.744-1.1c-.109-.722-.208-1.445-.292-2.17a3.2,3.2,0,0,0-2.6-2.79,9.251,9.251,0,0,0-1.713-.046c-.852,0-1.706-.038-2.557,0a3.174,3.174,0,0,0-2.89,2.617c-.076.48-.15.963-.18,1.447a2.392,2.392,0,0,1-1.538,2.412.36.36,0,0,0-.094.056,1.809,1.809,0,0,1-1.9.126c-.574-.235-1.142-.485-1.716-.718a3.257,3.257,0,0,0-4.058,1.366q-.855,1.446-1.679,2.909a3.193,3.193,0,0,0,.885,4.233c.515.39,1.038.768,1.539,1.175a1.7,1.7,0,0,1,.744,1.538,3.5,3.5,0,0,0,0,.694,1.794,1.794,0,0,1-.819,1.651c-.508.4-1.031.774-1.54,1.17a3.141,3.141,0,0,0-.927,3.932c.6,1.14,1.253,2.256,1.932,3.352a3.221,3.221,0,0,0,3.248,1.36,13.715,13.715,0,0,0,2.278-.872,2.725,2.725,0,0,1,1.314-.187c.482.053.8.389,1.206.562a1.8,1.8,0,0,1,1.041,1.56c.095.625.158,1.255.234,1.883a3.2,3.2,0,0,0,2.563,2.745,11.914,11.914,0,0,0,2.186.053,8.6,8.6,0,0,0,2.918-.195,3.13,3.13,0,0,0,1.907-1.879,11.606,11.606,0,0,0,.378-2.347,3.8,3.8,0,0,1,.216-.928c.256-.613.835-.807,1.319-1.141a2.055,2.055,0,0,1,2.08-.129c.508.2,1.014.412,1.512.639a3.313,3.313,0,0,0,4.226-1.429c.552-.9,1.067-1.828,1.593-2.747A3.2,3.2,0,0,0,122.726,94.131Zm-12.351.707a4.8,4.8,0,0,1-2.911.923,4.7,4.7,0,1,1,4.5-6.386A4.637,4.637,0,0,1,110.375,94.838Z" fill="#fedc72"/>
  <path id="Trazado_192224" data-name="Trazado 192224" d="M118.021,67.754c-.081-.572-.188-1.14-.245-1.714a1.168,1.168,0,0,1,.28-1c.227-.207.436-.437.676-.63.112-.09.154-.225.3-.3a1.96,1.96,0,0,1,1.243-.144c.513.07,1.021.18,1.536.23a2.575,2.575,0,0,0,2.734-1.744,25.666,25.666,0,0,0,.818-3.148,2.659,2.659,0,0,0-1.6-2.943c-.477-.189-.957-.371-1.423-.584a1.593,1.593,0,0,1-1.042-1.194c-.038-.227-.119-.447-.178-.671a1.215,1.215,0,0,1,.206-1.076q.539-.728,1.1-1.439a2.649,2.649,0,0,0,.11-3.153,7.517,7.517,0,0,0-.974-1.028c-.5-.5-.975-1.02-1.5-1.5a2.625,2.625,0,0,0-3.22-.159c-.325.236-.651.475-.952.741a1.979,1.979,0,0,1-2.309.511.293.293,0,0,0-.088-.023,1.494,1.494,0,0,1-1.186-1.038c-.2-.474-.385-.952-.584-1.424a2.693,2.693,0,0,0-3.172-1.574q-1.344.345-2.683.719a2.64,2.64,0,0,0-1.957,2.993c.073.529.158,1.056.213,1.587a1.4,1.4,0,0,1-.465,1.334,2.931,2.931,0,0,0-.4.406,1.483,1.483,0,0,1-1.445.486c-.529-.064-1.055-.15-1.584-.215a2.6,2.6,0,0,0-2.842,1.756c-.314,1.019-.586,2.052-.829,3.09a2.66,2.66,0,0,0,1.1,2.694,11.337,11.337,0,0,0,1.842.823,2.256,2.256,0,0,1,.878.658,3.51,3.51,0,0,1,.376,1.034,1.49,1.49,0,0,1-.3,1.522c-.31.42-.641.826-.965,1.237a2.643,2.643,0,0,0-.106,3.1,9.9,9.9,0,0,0,1.248,1.309,7.118,7.118,0,0,0,1.82,1.592,2.587,2.587,0,0,0,2.213.017,9.565,9.565,0,0,0,1.594-1.151,3.125,3.125,0,0,1,.669-.417,2.378,2.378,0,0,1,1.438.1,1.7,1.7,0,0,1,1.292,1.141c.178.416.352.834.51,1.258a2.74,2.74,0,0,0,3.307,1.635c.851-.205,1.693-.445,2.538-.674A2.649,2.649,0,0,0,118.021,67.754Zm-7.636-6.809a3.97,3.97,0,0,1-2.242-1.162,3.883,3.883,0,1,1,6.367-1.1A3.836,3.836,0,0,1,110.385,60.945Z" fill="#fdb74d"/>
  <path id="Trazado_192225" data-name="Trazado 192225" d="M88.544,81.4c-.081-.572-.187-1.14-.244-1.714a1.167,1.167,0,0,1,.279-1c.227-.207.436-.437.677-.63.111-.09.154-.225.3-.3a1.957,1.957,0,0,1,1.242-.144c.513.07,1.022.18,1.536.23A2.575,2.575,0,0,0,95.069,76.1a25.671,25.671,0,0,0,.819-3.148,2.659,2.659,0,0,0-1.6-2.943c-.477-.189-.958-.371-1.423-.584a1.593,1.593,0,0,1-1.042-1.194c-.039-.228-.12-.447-.179-.671a1.218,1.218,0,0,1,.207-1.076q.537-.729,1.1-1.439a2.651,2.651,0,0,0,.11-3.153,7.577,7.577,0,0,0-.974-1.028c-.5-.5-.976-1.02-1.495-1.5a2.626,2.626,0,0,0-3.221-.159c-.325.236-.65.475-.951.741a1.98,1.98,0,0,1-2.31.511.3.3,0,0,0-.087-.023A1.5,1.5,0,0,1,82.837,59.4c-.2-.473-.384-.951-.584-1.423a2.692,2.692,0,0,0-3.171-1.574q-1.346.345-2.683.719a2.639,2.639,0,0,0-1.957,2.993c.073.529.157,1.056.212,1.587a1.4,1.4,0,0,1-.464,1.334,2.939,2.939,0,0,0-.406.406,1.482,1.482,0,0,1-1.444.486c-.529-.064-1.056-.15-1.585-.215a2.6,2.6,0,0,0-2.841,1.756c-.314,1.019-.586,2.052-.83,3.09a2.661,2.661,0,0,0,1.1,2.694,11.365,11.365,0,0,0,1.841.823,2.252,2.252,0,0,1,.879.658,3.527,3.527,0,0,1,.376,1.034,1.494,1.494,0,0,1-.3,1.522c-.311.42-.642.826-.965,1.237a2.643,2.643,0,0,0-.106,3.1,9.835,9.835,0,0,0,1.248,1.309,7.114,7.114,0,0,0,1.819,1.592,2.589,2.589,0,0,0,2.214.017A9.607,9.607,0,0,0,76.785,81.4a3.076,3.076,0,0,1,.669-.417,2.379,2.379,0,0,1,1.438.1,1.7,1.7,0,0,1,1.292,1.141c.177.416.351.834.51,1.257A2.738,2.738,0,0,0,84,85.122c.851-.205,1.694-.445,2.538-.674A2.649,2.649,0,0,0,88.544,81.4ZM80.909,74.6a3.97,3.97,0,0,1-2.242-1.162,3.883,3.883,0,1,1,6.366-1.1A3.836,3.836,0,0,1,80.909,74.6Z" fill="#fff"/>
  <g id="Grupo_134804-2" data-name="Grupo 134804">
    <path id="Rectángulo_44761" data-name="Rectángulo 44761" d="M0,0H15.14a0,0,0,0,1,0,0V5.668a1.646,1.646,0,0,1-1.646,1.646H1.646A1.646,1.646,0,0,1,0,5.668V0A0,0,0,0,1,0,0Z" transform="translate(30.969 45.172) rotate(46.869)" fill="#fdb74d"/>
    <path id="Trazado_192226" data-name="Trazado 192226" d="M69.714,19.249a24.489,24.489,0,1,0-1.13,34.615A24.49,24.49,0,0,0,69.714,19.249ZM38.592,48.4a18.155,18.155,0,1,1,25.662.837A18.155,18.155,0,0,1,38.592,48.4Z" fill="#bdccd4"/>
    <path id="Rectángulo_44762" data-name="Rectángulo 44762" d="M0,0H9.366a0,0,0,0,1,0,0V9.926a2.361,2.361,0,0,1-2.361,2.361H2.361A2.361,2.361,0,0,1,0,9.926V0A0,0,0,0,1,0,0Z" transform="translate(27.606 52.279) rotate(46.869)" fill="#fedc72"/>
  </g>
  <path id="Trazado_192227" data-name="Trazado 192227" d="M48.465,77.056a25.453,25.453,0,1,0,25.452,25.453A25.453,25.453,0,0,0,48.465,77.056Zm0,45.087A19.634,19.634,0,1,1,68.1,102.509,19.634,19.634,0,0,1,48.465,122.143Z" fill="#fff"/>
  <g id="Grupo_134807" data-name="Grupo 134807">
    <g id="Grupo_134805" data-name="Grupo 134805">
      <line id="Línea_248" data-name="Línea 248" x2="13.715" transform="translate(63.907 102.509)" fill="none" stroke="#fedc72" stroke-linecap="round" stroke-linejoin="round" stroke-width="3"/>
      <line id="Línea_249" data-name="Línea 249" x2="13.715" transform="translate(18.323 102.509)" fill="none" stroke="#fedc72" stroke-linecap="round" stroke-linejoin="round" stroke-width="3"/>
    </g>
    <g id="Grupo_134806" data-name="Grupo 134806">
      <line id="Línea_250" data-name="Línea 250" y1="13.715" transform="translate(47.973 72.86)" fill="none" stroke="#fedc72" stroke-linecap="round" stroke-linejoin="round" stroke-width="3"/>
      <line id="Línea_251" data-name="Línea 251" y1="13.715" transform="translate(47.973 118.443)" fill="none" stroke="#fedc72" stroke-linecap="round" stroke-linejoin="round" stroke-width="3"/>
    </g>
  </g>
  <circle id="Elipse_5814" data-name="Elipse 5814" cx="18.155" cy="18.155" r="18.155" transform="translate(28.454 25.398) rotate(-20.631)" fill="#fff" opacity="0.25"/>
</svg>
