<svg id="Grupo_134808" data-name="Grupo 134808" xmlns="http://www.w3.org/2000/svg" xmlns:xlink="http://www.w3.org/1999/xlink" width="144" height="144" viewBox="0 0 144 144">
  <defs>
    <clipPath id="clip-path">
      <ellipse id="Elipse_5815" data-name="Elipse 5815" cx="20.249" cy="20.413" rx="20.249" ry="20.413" transform="matrix(0.708, -0.706, 0.706, 0.708, 0.286, 48.583)" fill="none"/>
    </clipPath>
    <clipPath id="clip-path-2">
      <path id="Trazado_192228" data-name="Trazado 192228" d="M34.82,57.374c.091,1.625,2.027,2.019,3.017,2.216,3.131.662,9.392,1.947,9.392,1.947a4.992,4.992,0,0,1,3.036,2.54l.225,3.982L9.889,70.03l-.225-3.981A4.771,4.771,0,0,1,12.4,63.228s6.082-1.881,9.121-2.846c.96-.291,2.843-.871,2.751-2.495l-.25-4.427,10.551-.513Z" fill="none"/>
    </clipPath>
    <clipPath id="clip-path-3">
      <ellipse id="Elipse_5816" data-name="Elipse 5816" cx="20.249" cy="20.413" rx="20.249" ry="20.413" transform="matrix(0.708, -0.706, 0.706, 0.708, 0.286, 95.11)" fill="none"/>
    </clipPath>
    <clipPath id="clip-path-4">
      <path id="Trazado_192229" data-name="Trazado 192229" d="M34.82,103.9c.091,1.624,2.027,2.019,3.017,2.215,3.131.662,9.392,1.947,9.392,1.947a4.992,4.992,0,0,1,3.036,2.54l.225,3.982-40.6,1.971-.225-3.981a4.771,4.771,0,0,1,2.732-2.821s6.082-1.881,9.121-2.846c.96-.291,2.843-.87,2.751-2.495l-.25-4.427,10.551-.512Z" fill="none"/>
    </clipPath>
  </defs>
  <g id="Grupo_134808-2" data-name="Grupo 134808">
    <rect id="Rectángulo_44763" data-name="Rectángulo 44763" width="144" height="144" rx="21.594" fill="#5038a1"/>
  </g>
  <g id="Grupo_134824" data-name="Grupo 134824">
    <g id="Grupo_80476" data-name="Grupo 80476">
      <g id="Grupo_80475" data-name="Grupo 80475">
        <path id="Trazado_114564" data-name="Trazado 114564" d="M27.89,28.429A20.53,20.53,0,0,1,49.338,47.751,20.137,20.137,0,0,1,30.187,69.044,20.528,20.528,0,0,1,8.74,49.722,20.136,20.136,0,0,1,27.89,28.429Z" fill="#fff"/>
        <g id="Grupo_134812" data-name="Grupo 134812">
          <g id="Grupo_134811" data-name="Grupo 134811" clip-path="url(#clip-path)">
            <g id="Grupo_80474" data-name="Grupo 80474">
              <path id="Trazado_114562" data-name="Trazado 114562" d="M34.82,57.374c.091,1.625,2.027,2.019,3.017,2.216,3.131.662,9.392,1.947,9.392,1.947a4.992,4.992,0,0,1,3.036,2.54l.225,3.982L9.889,70.03l-.225-3.981A4.771,4.771,0,0,1,12.4,63.228s6.082-1.881,9.121-2.846c.96-.291,2.843-.871,2.751-2.495l-.25-4.427,10.551-.513Z" fill="#e6c19c"/>
              <g id="Grupo_134810" data-name="Grupo 134810">
                <g id="Grupo_134809" data-name="Grupo 134809" clip-path="url(#clip-path-2)">
                  <g id="Grupo_80473" data-name="Grupo 80473">
                    <path id="head-shadow" d="M28.224,32.892l.081,0a10.307,10.307,0,0,1,4.674.588,7.07,7.07,0,0,1,3.729,4.747c1.289,5.515-.039,14.418-1.584,17.344a7.214,7.214,0,0,1-5.264,4.084l-.244.012a7.361,7.361,0,0,1-5.7-3.552c-1.868-2.76-4.191-11.485-3.532-17.1a6.928,6.928,0,0,1,3.173-5.082A10.228,10.228,0,0,1,28.142,32.9Z" fill="#d4b08c"/>
                  </g>
                </g>
              </g>
            </g>
          </g>
        </g>
      </g>
      <path id="head" d="M28.093,34.935c8.373-.406,9.391,5.165,9.465,5.69.756,4.81-.669,11.477-2.206,13.834a8.07,8.07,0,0,1-5.727,3.659l-.219.01A8.441,8.441,0,0,1,23.25,55c-1.794-2.192-3.964-8.686-3.757-13.581C19.509,40.93,19.72,35.342,28.093,34.935Z" fill="#f2cea5"/>
    </g>
    <g id="Grupo_80476-2" data-name="Grupo 80476">
      <g id="Grupo_80475-2" data-name="Grupo 80475">
        <path id="Trazado_114564-2" data-name="Trazado 114564" d="M27.89,74.956A20.53,20.53,0,0,1,49.338,94.278a20.137,20.137,0,0,1-19.151,21.293A20.528,20.528,0,0,1,8.74,96.249,20.136,20.136,0,0,1,27.89,74.956Z" fill="#fff"/>
        <g id="Grupo_134816" data-name="Grupo 134816">
          <g id="Grupo_134815" data-name="Grupo 134815" clip-path="url(#clip-path-3)">
            <g id="Grupo_80474-2" data-name="Grupo 80474">
              <path id="Trazado_114562-2" data-name="Trazado 114562" d="M34.82,103.9c.091,1.624,2.027,2.019,3.017,2.215,3.131.662,9.392,1.947,9.392,1.947a4.992,4.992,0,0,1,3.036,2.54l.225,3.982-40.6,1.971-.225-3.981a4.771,4.771,0,0,1,2.732-2.821s6.082-1.881,9.121-2.846c.96-.291,2.843-.87,2.751-2.495l-.25-4.427,10.551-.512Z" fill="#e6c19c"/>
              <g id="Grupo_134814" data-name="Grupo 134814">
                <g id="Grupo_134813" data-name="Grupo 134813" clip-path="url(#clip-path-4)">
                  <g id="Grupo_80473-2" data-name="Grupo 80473">
                    <path id="head-shadow-2" data-name="head-shadow" d="M28.224,79.419l.081,0A10.293,10.293,0,0,1,32.979,80a7.072,7.072,0,0,1,3.729,4.747C38,90.265,36.669,99.169,35.124,102.1a7.215,7.215,0,0,1-5.264,4.083l-.244.012a7.362,7.362,0,0,1-5.7-3.551c-1.868-2.761-4.191-11.485-3.532-17.1A6.929,6.929,0,0,1,23.56,80.46a10.228,10.228,0,0,1,4.582-1.037Z" fill="#d4b08c"/>
                  </g>
                </g>
              </g>
            </g>
          </g>
        </g>
      </g>
      <path id="head-2" data-name="head" d="M28.093,81.462c8.373-.406,9.391,5.165,9.465,5.691.756,4.809-.669,11.476-2.206,13.833a8.07,8.07,0,0,1-5.727,3.659l-.219.01a8.437,8.437,0,0,1-6.156-3.124c-1.794-2.191-3.964-8.686-3.757-13.581C19.509,87.457,19.72,81.869,28.093,81.462Z" fill="#f2cea5"/>
    </g>
    <g id="Grupo_134817" data-name="Grupo 134817">
      <rect id="Rectángulo_44764" data-name="Rectángulo 44764" width="46.538" height="6.734" transform="translate(88.755 39.716)" fill="#708cd5"/>
      <rect id="Rectángulo_44765" data-name="Rectángulo 44765" width="18.634" height="6.734" transform="translate(88.755 54.399)" fill="#d3dfff"/>
    </g>
    <g id="Grupo_134819" data-name="Grupo 134819">
      <rect id="Rectángulo_44766" data-name="Rectángulo 44766" width="20.625" height="20.625" transform="translate(54.638 40.112)" fill="#fff" stroke="#708cd5" stroke-miterlimit="10" stroke-width="1.299"/>
      <g id="Grupo_134818" data-name="Grupo 134818">
        <path id="Trazado_192230" data-name="Trazado 192230" d="M58.126,45.457c.693,2.421,2.109,12.6,7.153,9.626,1.163-.686,2.12-2.45,2.978-3.471l4.628-5.51L82.14,35.081c.791-.941-2.851-3.17-3.843-1.988l-8.227,9.8-4.114,4.9C65,48.92,62.828,52.553,61.385,52.9l2.385.708c.568.445-.544-2.773-.569-2.861l-1.286-4.488c-.354-1.236-4.314-2.639-3.789-.807Z" fill="#ee6f57"/>
      </g>
    </g>
    <g id="Grupo_134823" data-name="Grupo 134823">
      <g id="Grupo_134820" data-name="Grupo 134820">
        <rect id="Rectángulo_44767" data-name="Rectángulo 44767" width="31.159" height="6.734" transform="translate(88.755 84.377)" fill="#708cd5"/>
        <rect id="Rectángulo_44768" data-name="Rectángulo 44768" width="46.538" height="6.734" transform="translate(88.755 99.06)" fill="#d3dfff"/>
      </g>
      <g id="Grupo_134822" data-name="Grupo 134822">
        <rect id="Rectángulo_44769" data-name="Rectángulo 44769" width="20.625" height="20.625" transform="translate(54.638 84.773)" fill="#fff" stroke="#708cd5" stroke-miterlimit="10" stroke-width="1.299"/>
        <g id="Grupo_134821" data-name="Grupo 134821">
          <path id="Trazado_192231" data-name="Trazado 192231" d="M58.126,90.7c.693,2.421,2.109,12.6,7.153,9.626,1.163-.686,2.12-2.45,2.978-3.471q2.314-2.756,4.628-5.51L82.14,80.324c.791-.941-2.851-3.17-3.843-1.988q-4.114,4.9-8.227,9.8l-4.114,4.9C65,94.163,62.828,97.8,61.385,98.148l2.385.708c.568.445-.544-2.773-.569-2.861l-1.286-4.488c-.354-1.236-4.314-2.638-3.789-.807Z" fill="#ee6f57"/>
        </g>
      </g>
    </g>
  </g>
</svg>
