<svg id="Grupo_135017" data-name="Grupo 135017" xmlns="http://www.w3.org/2000/svg" xmlns:xlink="http://www.w3.org/1999/xlink" width="144" height="144" viewBox="0 0 144 144">
  <defs>
    <clipPath id="clip-path">
      <rect id="Rectángulo_44774" data-name="Rectángulo 44774" width="144" height="144" rx="21.594" fill="none"/>
    </clipPath>
  </defs>
  <rect id="Rectángulo_44773" data-name="Rectángulo 44773" width="144" height="144" rx="21.594" fill="#5038a1"/>
  <g id="Grupo_135025" data-name="Grupo 135025">
    <g id="Grupo_135024" data-name="Grupo 135024" clip-path="url(#clip-path)">
      <g id="Grupo_135023" data-name="Grupo 135023">
        <g id="Grupo_135017-2" data-name="Grupo 135017">
          <path id="Trazado_192440" data-name="Trazado 192440" d="M70.737,58.788c-5.828,4.2-25.456,18.471-25.456,18.471l-5.313-8.2s22.21-12.847,26.084-14.987C70.052,51.859,75.882,55.083,70.737,58.788Z" fill="#d3a888"/>
          <path id="Trazado_192441" data-name="Trazado 192441" d="M78.852,63.181C72.889,67.278,50.926,83,50.926,83L46.11,76.538s25-15.94,28.536-18.607C79.171,54.514,83.409,60.05,78.852,63.181Z" fill="#d3a888"/>
          <path id="Trazado_192442" data-name="Trazado 192442" d="M81.39,71.993C76.129,76.1,55.468,89.6,55.468,89.6L51.5,83.492s22.279-15,25.584-17.4C81.446,62.93,86.937,67.665,81.39,71.993Z" fill="#d3a888"/>
          <path id="Trazado_192443" data-name="Trazado 192443" d="M82.406,79.8c-4.329,4.917-22.485,16.2-22.485,16.2l-4.229-5.649S76.235,77.069,79.686,74.889,85.681,76.077,82.406,79.8Z" fill="#d3a888"/>
          <path id="Trazado_192444" data-name="Trazado 192444" d="M59.84,95.987s-13.674,12.05-19.024,14.882c-5.041,2.669-8.766,1.026-8.766,1.026l-12.025,10.41L15,114.229l15.076-12.2L46.767,75.282Z" fill="#d3a888"/>
        </g>
        <g id="Grupo_135021" data-name="Grupo 135021">
          <path id="Trazado_192445" data-name="Trazado 192445" d="M108.581,124.522H33.422l8.161-22.473h75.158Z" fill="#fff" stroke="#d8d8d8" stroke-linecap="round" stroke-linejoin="round" stroke-width="0.816"/>
          <path id="Trazado_192446" data-name="Trazado 192446" d="M116.741,53.358H41.583L61.306,23.877h75.158Z" fill="#fff" stroke="#d8d8d8" stroke-linecap="round" stroke-linejoin="round" stroke-width="0.816"/>
          <path id="Trazado_192447" data-name="Trazado 192447" d="M109.807,109.109H42.353l1.082-3.245h67.643Z" fill="#b0b0af"/>
          <path id="Trazado_192448" data-name="Trazado 192448" d="M107.9,114.291H40.647l1.292-3.245h67.255Z" fill="#b0b0af"/>
          <path id="Trazado_192449" data-name="Trazado 192449" d="M76.739,119.471H39.627l1.02-3.243H76.739Z" fill="#b0b0af"/>
          <path id="Trazado_192450" data-name="Trazado 192450" d="M117.287,35.5H75.971l2.04-3.752h43.868Z" fill="#b0b0af"/>
          <path id="Trazado_192451" data-name="Trazado 192451" d="M112.969,41.493H73.221l2.01-3.752h40.845Z" fill="#b0b0af"/>
          <path id="Trazado_192452" data-name="Trazado 192452" d="M92.874,47.485h-21.8l1.806-3.752h21.85Z" fill="#b0b0af"/>
          <g id="Grupo_135020" data-name="Grupo 135020">
            <path id="Trazado_192453" data-name="Trazado 192453" d="M125.867,102.049H52.32L41.583,53.358h75.158Z" fill="#ededed" stroke="#d8d8d8" stroke-linecap="round" stroke-linejoin="round" stroke-width="0.816"/>
            <path id="Trazado_192454" data-name="Trazado 192454" d="M111.569,60.228H50.848l-.7-3.243h60.808Z" fill="#b0b0af"/>
            <path id="Trazado_192455" data-name="Trazado 192455" d="M112.555,65.41H51.973l-.7-3.244h60.669Z" fill="#b0b0af"/>
            <path id="Trazado_192456" data-name="Trazado 192456" d="M85.3,70.59H53.1l-.7-3.245H84.645Z" fill="#b0b0af"/>
            <g id="Grupo_135018" data-name="Grupo 135018">
              <path id="Trazado_192457" data-name="Trazado 192457" d="M115.431,80.527H55.255L53.65,73.133h60.376Z" fill="#4a5056"/>
            </g>
            <g id="Grupo_135019" data-name="Grupo 135019">
              <path id="Trazado_192458" data-name="Trazado 192458" d="M113.809,73.4l5.1,26.778H59.785L53.975,73.4h59.834m.216-.269H53.65l5.93,27.316h59.642l-5.2-27.316Z" fill="#4a5056"/>
            </g>
            <line id="Línea_252" data-name="Línea 252" x2="60.091" transform="translate(55.946 83.712)" fill="none" stroke="#4a5056" stroke-miterlimit="10" stroke-width="0.269"/>
            <line id="Línea_253" data-name="Línea 253" x2="60.003" transform="translate(56.662 87.01)" fill="none" stroke="#4a5056" stroke-miterlimit="10" stroke-width="0.269"/>
            <line id="Línea_254" data-name="Línea 254" x2="59.915" transform="translate(57.378 90.309)" fill="none" stroke="#4a5056" stroke-miterlimit="10" stroke-width="0.269"/>
            <line id="Línea_255" data-name="Línea 255" x2="59.826" transform="translate(58.094 93.606)" fill="none" stroke="#4a5056" stroke-miterlimit="10" stroke-width="0.269"/>
            <line id="Línea_256" data-name="Línea 256" x2="59.738" transform="translate(58.81 96.905)" fill="none" stroke="#4a5056" stroke-miterlimit="10" stroke-width="0.269"/>
            <line id="Línea_257" data-name="Línea 257" x1="5.859" y1="27.316" transform="translate(59.575 73.133)" fill="none" stroke="#4a5056" stroke-miterlimit="10" stroke-width="0.269"/>
            <line id="Línea_258" data-name="Línea 258" x1="5.422" y1="27.316" transform="translate(95.471 73.133)" fill="none" stroke="#4a5056" stroke-miterlimit="10" stroke-width="0.269"/>
            <line id="Línea_259" data-name="Línea 259" x1="5.308" y1="27.316" transform="translate(104.945 73.133)" fill="none" stroke="#4a5056" stroke-miterlimit="10" stroke-width="0.269"/>
          </g>
        </g>
        <path id="Trazado_192459" data-name="Trazado 192459" d="M10.333,105.613s6.282-2.871,7.538-5.742,1.077-15.974,3.41-18.846S38.691,67.744,41.921,68.1s20.89,5.3,25.844,6.641-.715,7.623-7.407,8.7c-6.5,1.05-14.488-2.6-14.488-2.6S47.485,95.922,35.1,104.178L15,114.229Z" fill="#e6b693"/>
        <g id="Grupo_135022" data-name="Grupo 135022">
          <path id="Trazado_192460" data-name="Trazado 192460" d="M25.539,120.3-.71,141.622l-14.825-22.984L12.482,103Z" fill="#fdb74d"/>
          <path id="Trazado_192461" data-name="Trazado 192461" d="M19.326,112.066c.909,5.783-5.077,8.235-11.2,11.332-6.97,3.529-13.476,4.683-20.076.8L-.71,141.622,25.539,120.3Z" fill="#cbd1d7" style="mix-blend-mode: multiply;isolation: isolate"/>
          <path id="Trazado_192462" data-name="Trazado 192462" d="M23,116.937c-.568,3.664-6.117,6.613-8.75,8.637-4.433,3.408-8.016,6.856-13.466,8.569-2.48.779-4.854-.742-6.974-1.016l5.479,8.495L25.539,120.3Z" fill="#cbd1d7" style="mix-blend-mode: multiply;isolation: isolate"/>
        </g>
      </g>
    </g>
  </g>
  <g id="Grupo_135027" data-name="Grupo 135027">
    <circle id="Elipse_5823" data-name="Elipse 5823" cx="14.006" cy="14.006" r="14.006" transform="translate(35.35 39.329) rotate(-67.5)" fill="#fedc72"/>
    <circle id="Elipse_5824" data-name="Elipse 5824" cx="13.54" cy="13.54" r="13.54" transform="translate(36.279 39.806) rotate(-69.882)" fill="#fdb74d"/>
    <path id="Trazado_192463" data-name="Trazado 192463" d="M42.485,26.312a.183.183,0,0,1-.085-.02.189.189,0,0,1-.083-.252,12.708,12.708,0,0,1,13.621-6.771.188.188,0,1,1-.067.369,12.332,12.332,0,0,0-13.219,6.571A.188.188,0,0,1,42.485,26.312Z" fill="#fff" opacity="0.62"/>
    <circle id="Elipse_5825" data-name="Elipse 5825" cx="11.46" cy="11.46" r="11.46" transform="translate(39.656 39.691) rotate(-73.155)" fill="#fff" opacity="0.78"/>
    <g id="Grupo_135026" data-name="Grupo 135026">
      <path id="Trazado_192464" data-name="Trazado 192464" d="M52.82,40.563V39.317a10.155,10.155,0,0,1-3.5-.759.721.721,0,0,1-.4-.852l.317-1.161a.727.727,0,0,1,.987-.476,8.432,8.432,0,0,0,3.23.68c1.251,0,2.185-.424,2.185-1.294,0-.785-.721-1.252-2.461-1.719-2.483-.679-4.265-1.761-4.265-3.946,0-1.974,1.443-3.48,3.946-3.883V24.66a.728.728,0,0,1,.727-.727h.732a.727.727,0,0,1,.727.727v1.119a9.3,9.3,0,0,1,2.773.5.723.723,0,0,1,.451.873l-.291,1.074a.724.724,0,0,1-.956.489,7.566,7.566,0,0,0-2.72-.493c-1.485,0-1.909.615-1.909,1.167,0,.679.891,1.145,2.822,1.739,2.758.828,3.9,1.974,3.9,4.032,0,1.888-1.4,3.586-4.116,4.01v1.4a.727.727,0,0,1-.727.727h-.733A.726.726,0,0,1,52.82,40.563Z" fill="#8c6df2"/>
    </g>
  </g>
  <g id="Grupo_135029" data-name="Grupo 135029">
    <g id="Grupo_135028" data-name="Grupo 135028">
      <path id="Trazado_192465" data-name="Trazado 192465" d="M60.559,33c.523,1.828,1.592,9.509,5.4,7.265.878-.518,1.6-1.849,2.248-2.62L71.7,33.488l6.985-8.318c.6-.71-2.152-2.392-2.9-1.5l-6.209,7.393-3.1,3.7c-.719.856-2.361,3.6-3.45,3.863l1.8.535c.429.335-.41-2.093-.429-2.159l-.971-3.388c-.267-.933-3.255-1.991-2.859-.609Z" fill="#ee6f57"/>
    </g>
  </g>
</svg>
