<svg id="Grupo_135030" data-name="Grupo 135030" xmlns="http://www.w3.org/2000/svg" width="144" height="144" viewBox="0 0 144 144">
  <rect id="Rectángulo_44775" data-name="Rectángulo 44775" width="144" height="144" rx="21.594" fill="#5038a1"/>
  <circle id="Elipse_5826" data-name="Elipse 5826" cx="58.59" cy="58.59" r="58.59" transform="translate(13.41 13.328)" fill="#fff" opacity="0.38"/>
  <g id="Grupo_135049" data-name="Grupo 135049">
    <g id="Grupo_135035" data-name="Grupo 135035">
      <rect id="Rectángulo_44776" data-name="Rectángulo 44776" width="95.877" height="73.284" transform="translate(33.846 111.118) rotate(-85.603)" fill="#ccb7a3"/>
      <g id="Grupo_135030-2" data-name="Grupo 135030">
        <path id="Trazado_192466" data-name="Trazado 192466" d="M106.1,33.864,82.755,36.829a28.032,28.032,0,0,1-11.279-.868l-22.62-6.5a9.769,9.769,0,0,1-7.162-10.348l.225-2.917,72.293,4.94-.179,3.707C113.661,29.686,110.721,33.442,106.1,33.864Z" fill="#272525" opacity="0.09"/>
        <path id="Trazado_192467" data-name="Trazado 192467" d="M105.327,33.186,81.98,36.15A28.014,28.014,0,0,1,70.7,35.283l-22.619-6.5a9.769,9.769,0,0,1-7.163-10.348l.225-2.917,73.068,5.618-.225,2.917A9.769,9.769,0,0,1,105.327,33.186Z" fill="#d3bfaf"/>
      </g>
      <g id="Grupo_135034" data-name="Grupo 135034">
        <g id="Grupo_135031" data-name="Grupo 135031">
          <path id="Trazado_192468" data-name="Trazado 192468" d="M75.462,53.208a5.8,5.8,0,0,1-5.33-6.219L71.2,33.151a5.792,5.792,0,1,1,11.549.888L81.681,47.877A5.8,5.8,0,0,1,75.462,53.208Zm1.914-24.887A5.3,5.3,0,0,0,71.7,33.19L70.632,47.028a5.29,5.29,0,1,0,10.549.811L82.245,34A5.3,5.3,0,0,0,77.376,28.321Z" fill="#f9dd82"/>
        </g>
        <g id="Grupo_135032" data-name="Grupo 135032">
          <circle id="Elipse_5827" data-name="Elipse 5827" cx="5.541" cy="5.541" r="5.541" transform="translate(71.579 26.112)" fill="#aa7355"/>
          <circle id="Elipse_5828" data-name="Elipse 5828" cx="2.84" cy="2.84" r="2.84" transform="translate(74.28 28.813)" fill="#bdb39b"/>
          <circle id="Elipse_5829" data-name="Elipse 5829" cx="1.321" cy="1.321" r="1.321" transform="translate(75.799 30.331)" fill="#434244"/>
        </g>
        <g id="Grupo_135033" data-name="Grupo 135033">
          <circle id="Elipse_5830" data-name="Elipse 5830" cx="5.541" cy="5.541" r="5.541" transform="translate(70.239 43.544)" fill="#aa7355"/>
          <circle id="Elipse_5831" data-name="Elipse 5831" cx="2.84" cy="2.84" r="2.84" transform="translate(72.94 46.245)" fill="#bdb39b"/>
          <path id="Trazado_192469" data-name="Trazado 192469" d="M77.1,49.187a1.321,1.321,0,1,1-1.216-1.419A1.322,1.322,0,0,1,77.1,49.187Z" fill="#434244"/>
        </g>
      </g>
    </g>
    <g id="Grupo_135042" data-name="Grupo 135042">
      <rect id="Rectángulo_44777" data-name="Rectángulo 44777" width="68.623" height="94.652" transform="translate(29.637 13.607)" fill="#fffff5"/>
      <g id="Grupo_135041" data-name="Grupo 135041">
        <g id="Grupo_135036" data-name="Grupo 135036">
          <path id="Trazado_192470" data-name="Trazado 192470" d="M50.727,32.443H89.205a.811.811,0,0,0,0-1.622H50.727a.811.811,0,0,0,0,1.622Z" fill="#bbbcbf"/>
        </g>
        <g id="Grupo_135037" data-name="Grupo 135037">
          <path id="Trazado_192471" data-name="Trazado 192471" d="M38.567,42.057H89.205a.812.812,0,0,0,0-1.623H38.567a.812.812,0,0,0,0,1.623Z" fill="#bbbcbf"/>
        </g>
        <g id="Grupo_135038" data-name="Grupo 135038">
          <path id="Trazado_192472" data-name="Trazado 192472" d="M38.567,51.67H89.205a.811.811,0,0,0,0-1.622H38.567a.811.811,0,0,0,0,1.622Z" fill="#bbbcbf"/>
        </g>
        <g id="Grupo_135039" data-name="Grupo 135039">
          <path id="Trazado_192473" data-name="Trazado 192473" d="M38.567,61.284H89.205a.812.812,0,0,0,0-1.623H38.567a.812.812,0,0,0,0,1.623Z" fill="#bbbcbf"/>
        </g>
        <g id="Grupo_135040" data-name="Grupo 135040">
          <path id="Trazado_192474" data-name="Trazado 192474" d="M38.567,70.9H89.205a.811.811,0,0,0,0-1.622H38.567a.811.811,0,0,0,0,1.622Z" fill="#bbbcbf"/>
        </g>
      </g>
    </g>
    <g id="Grupo_135043" data-name="Grupo 135043">
      <path id="Trazado_192475" data-name="Trazado 192475" d="M39.695,95.027H61.339a.456.456,0,0,0,0-.912H39.695a.456.456,0,0,0,0,.912Z" fill="#51927e"/>
    </g>
    <g id="Grupo_135047" data-name="Grupo 135047">
      <path id="Trazado_192476" data-name="Trazado 192476" d="M83.155,84.482c-2.539-.107-5.2-.094-7.386.911s-3.707,3.3-2.779,5.364c.354.785,5.912,2.217,6.555,2.863,4.929,4.944,4.957,9.119,9.886,14.063a9.068,9.068,0,0,0,4.077-5.167,43.23,43.23,0,0,0,1.521-5.4c.665-2.829,1.266-5.987-.554-8.532C92.228,85.439,87.367,84.659,83.155,84.482Z" fill="#e5cab1"/>
      <path id="Trazado_192477" data-name="Trazado 192477" d="M104.232,108.845l-1.441-6.631-1.144-10.9-13.357-9.9L71.762,86.7s-1.839,2.25.756,3.115,15.28-.865,15.28-.865l4.325,10.38.577,17.01,4.036,11.244,13.839-6.343Z" fill="#edd0b3"/>
      <g id="Grupo_135045" data-name="Grupo 135045">
        <path id="Trazado_192478" data-name="Trazado 192478" d="M64.621,93.688l-.944-.047c-.072,0-.088-.066-.026-.1l.926-.579,2.8-.957.334,1.1Z" fill="#d0d1d3"/>
        <path id="Trazado_192479" data-name="Trazado 192479" d="M69.812,93.452l-3.572.179c-.9.045-1.158-.9-.361-1.3l3.264-1.649L105.3,81.492l.858,3.544Z" fill="#3b464c"/>
        <g id="Grupo_135044" data-name="Grupo 135044">
          <path id="Trazado_192480" data-name="Trazado 192480" d="M105.7,85.292l-.947-3.874,3.012-.736a.959.959,0,0,1,1.106.776l.464,1.9a.96.96,0,0,1-.623,1.2Z" fill="#7e8587"/>
          <path id="Trazado_192481" data-name="Trazado 192481" d="M108,83.557l-.406-1.661,2.838-.693c.45-.11.861-.01.918.224l.2.813c.057.234-.261.513-.711.623Z" fill="#7e8587"/>
          <path id="Trazado_192482" data-name="Trazado 192482" d="M98.393,86.029l-.1-.386a.363.363,0,0,1,.312-.4l6.975-1.706a.364.364,0,0,1,.461.211l.094.386a.364.364,0,0,1-.311.4l-6.976,1.7A.362.362,0,0,1,98.393,86.029Z" fill="#7e8587"/>
        </g>
        <rect id="Rectángulo_44778" data-name="Rectángulo 44778" width="1.297" height="3.57" transform="translate(85.695 86.29) rotate(-13.738)" fill="#a36652"/>
      </g>
      <g id="Grupo_135046" data-name="Grupo 135046">
        <path id="Trazado_192483" data-name="Trazado 192483" d="M92.994,116.415c-.479-.155-.787-.965-1.187-1.514a25.065,25.065,0,0,0-2.364-1.966,63.072,63.072,0,0,0-5.9-5.626,33.7,33.7,0,0,1-4.787-4.38c-.072-.853-.419-1.658-.525-2.507q-.43-3.479-.862-6.955c-.221-1.784-.568-5.548,1.69-6.3,2.35-.78,3.575,2.437,3.688,4.2.106,1.632-.1,3.349.573,4.84.831,1.84,2.769,2.858,4.393,4.059,4.032,2.981,5.771.751,6.817,12.855A3.924,3.924,0,0,1,93.91,116C93.535,116.4,93.242,116.494,92.994,116.415Z" fill="#edd0b3"/>
      </g>
    </g>
    <path id="Trazado_192484" data-name="Trazado 192484" d="M94.807,131.2l-3.521-9.012,16.5-11.629,5.489,12.337-18.3,8.774Z" fill="#fff"/>
    <path id="Trazado_192485" data-name="Trazado 192485" d="M113.13,115.016s-15.971,15.748-19.593,17.8L96.2,144h23.342Z" fill="#fdb74d"/>
    <circle id="Elipse_5832" data-name="Elipse 5832" cx="1.079" cy="1.079" r="1.079" transform="translate(94.02 123.861)" fill="#59595b"/>
    <g id="Grupo_135048" data-name="Grupo 135048">
      <path id="Trazado_192486" data-name="Trazado 192486" d="M57.152,90.9a5.4,5.4,0,0,1-2.379.3l-.114-.326c-.085-.245-.489-.3-.548,0-.019.094-.211.924-.525.515-.185-.239-.082-.615-.049-.887a1.238,1.238,0,0,0-.171-.916c-.233-.281-.873-.566-1.171-.2-.462.575.234,1.353-.314,1.977-.321.365-.9.131-1.194-.167a2.083,2.083,0,0,0-.036-2.072.3.3,0,0,0-.509,0,2.665,2.665,0,0,0-.189,2.008.84.84,0,0,1-.9.057,3.373,3.373,0,0,0,.425-2.758.313.313,0,0,0-.566-.074,3.4,3.4,0,0,0-.842,2.152,1.545,1.545,0,0,0,.209.691,2.772,2.772,0,0,1-1.818.923c-.012-.042-.023-.085-.035-.127-.049-.171-.1-.34-.164-.508,0-.4.007-.793.024-1.189.061-.1.132-.2.2-.3a11.944,11.944,0,0,0,.878-1.524,12.493,12.493,0,0,0,1.18-6.813.3.3,0,0,0-.511-.211,3.908,3.908,0,0,0-1.152,1.981,26.891,26.891,0,0,0-1.174,6.633c-.023.035-.047.069-.071.1a1.514,1.514,0,0,0,.039,1.485q0,.384.016.77a.3.3,0,0,0,.291.29H46a13.013,13.013,0,0,1,.287,1.649,12.469,12.469,0,0,1-.413,4.735c-.583-.273-.662-3.344-.678-3.758a27.636,27.636,0,0,1,.119-3.206.254.254,0,0,0,.12-.275l-.081-.446a.282.282,0,0,0-.54,0,19.254,19.254,0,0,0-.214,3.927c.019.682.078,1.361.156,2.038a6.014,6.014,0,0,0,.317,1.65c.252.6,1.122,1.1,1.378.249a12.928,12.928,0,0,0,.508-3.642,12.6,12.6,0,0,0-.35-2.938,3.368,3.368,0,0,0,2.082-1.046,1.6,1.6,0,0,0,.388.206,1.378,1.378,0,0,0,1.2-.23,1.552,1.552,0,0,0,.208.173,1.358,1.358,0,0,0,2.126-.537,2.978,2.978,0,0,0,.012-1.42.2.2,0,0,1,.26.062c.172.137.076.613.054.8a1.418,1.418,0,0,0,.087.837.919.919,0,0,0,.855.565.7.7,0,0,0,.542-.41.388.388,0,0,0,.143.044,5.77,5.77,0,0,0,2.741-.3C57.652,91.326,57.5,90.769,57.152,90.9ZM46.669,86.8a26.323,26.323,0,0,1,.6-2.575,5.954,5.954,0,0,1,.742-1.862,12.124,12.124,0,0,1-1.632,6.665Q46.476,87.911,46.669,86.8Zm2.311,2.582a2.8,2.8,0,0,1-.319,1.271A1.872,1.872,0,0,1,48.98,89.383Z" fill="#3b464c"/>
      <path id="Trazado_192487" data-name="Trazado 192487" d="M58.624,92.111a.251.251,0,0,0,0,.5A.251.251,0,0,0,58.624,92.111Z" fill="#3b464c"/>
    </g>
  </g>
</svg>
