<svg id="Grupo_134327" data-name="Grupo 134327" xmlns="http://www.w3.org/2000/svg" xmlns:xlink="http://www.w3.org/1999/xlink" width="295" height="213" viewBox="0 0 295 213">
  <defs>
    <linearGradient id="linear-gradient" x1="0.571" y1="1.795" x2="0.493" y2="0.379" gradientUnits="objectBoundingBox">
      <stop offset="0" stop-color="#d1d7e0"/>
      <stop offset="1" stop-color="#ebebff"/>
    </linearGradient>
    <linearGradient id="linear-gradient-2" x1="0.5" y1="1.147" x2="0.5" y2="0.24" xlink:href="#linear-gradient"/>
    <linearGradient id="linear-gradient-3" x1="0.5" y1="2.165" x2="0.5" y2="0.322" xlink:href="#linear-gradient"/>
  </defs>
  <rect id="Rectángulo_44699" data-name="Rectángulo 44699" width="295" height="213" fill="none"/>
  <path id="Trazado_188103" data-name="Trazado 188103" d="M252.232,33.58a90.207,90.207,0,0,1,14.916,14.188c31.518,36.451,20.342,76.154,16.583,88.416-6.073,19.785-10.466,36.515-29.527,50.255-43.308,31.22-130.7,25.981-183.837-1.46-6.3-3.254-57.743-30.586-63.472-71.08-.14-.991-.212-1.728-.282-2.374-.668-6.255-3.958-44.984,34.4-74.854,8-6.347,18.173-12.14,30.228-17.217C125.615-2.863,208.246.5,252.232,33.58Z" fill="#e5e1f1"/>
  <circle id="Elipse_5774" data-name="Elipse 5774" cx="35.848" cy="35.848" r="35.848" transform="translate(6.834 128.465)" fill="#fdb74d" opacity="0.5"/>
  <g id="Grupo_134327-2" data-name="Grupo 134327">
    <circle id="Elipse_5247" data-name="Elipse 5247" cx="24.083" cy="24.083" r="24.083" transform="translate(240.58 159.52)" fill="#5038a1" opacity="0.7" style="isolation: isolate"/>
    <g id="Elipse_5249" data-name="Elipse 5249">
      <circle id="Elipse_5775" data-name="Elipse 5775" cx="9.075" cy="9.075" r="9.075" transform="translate(263.339 172.922)" fill="none"/>
      <circle id="Elipse_5776" data-name="Elipse 5776" cx="8.028" cy="8.028" r="8.028" transform="translate(264.386 173.969)" fill="none" stroke="#fff" stroke-width="2.094"/>
    </g>
    <g id="Elipse_5250" data-name="Elipse 5250">
      <circle id="Elipse_5777" data-name="Elipse 5777" cx="4.886" cy="4.886" r="4.886" transform="translate(246.217 113.866)" fill="#fdb74d"/>
      <circle id="Elipse_5778" data-name="Elipse 5778" cx="3.839" cy="3.839" r="3.839" transform="translate(247.264 114.913)" fill="#fdb74d" stroke="#8c6df2" stroke-width="2.094"/>
    </g>
    <circle id="Elipse_5251" data-name="Elipse 5251" cx="3.141" cy="3.141" r="3.141" transform="translate(243.956 154.601)" fill="#fdb74d"/>
  </g>
  <path id="Trazado_139920" data-name="Trazado 139920" d="M253.914,200.123a3.4,3.4,0,0,0,.391.035,2.506,2.506,0,0,0,2.582-3.265,4.6,4.6,0,0,0-4.081-3.483,86.14,86.14,0,0,1-19.471-3.073A102.187,102.187,0,0,1,214.03,182.9l-1.176-.589-1.161-.625c-.776-.412-1.54-.848-2.3-1.286q-2.294-1.305-4.507-2.751c-.742-.473-1.463-.983-2.193-1.471s-1.435-1.019-2.15-1.525c-.7-.536-1.407-1.047-2.092-1.6s-1.373-1.088-2.033-1.659-1.331-1.124-1.97-1.711c-.322-.292-.647-.577-.961-.874l-.934-.894c-.633-.585-1.212-1.213-1.818-1.814-.582-.619-1.163-1.237-1.724-1.864s-1.113-1.257-1.624-1.906c-.258-.323-.526-.639-.779-.964l-.739-.974c-.123-.165-.249-.322-.368-.49l-.356-.512-.707-1.02c-.446-.7-.906-1.379-1.33-2.083a79.831,79.831,0,0,1-7.915-17.761c-1.975-6.193-3.449-12.584-4.969-19.221-.764-3.32-1.519-6.7-2.375-10.175-.418-1.732-.884-3.492-1.364-5.267-.253-.894-.493-1.783-.763-2.688l-.784-2.636c-2.021-6.744-4.2-13.7-6.9-20.831a154.446,154.446,0,0,0-10.208-21.977,109.4,109.4,0,0,0-7.391-11.3A94.517,94.517,0,0,0,130.793,33.4c-1.814-1.77-3.735-3.489-5.744-5.131-1-.824-2.035-1.621-3.082-2.406-.525-.388-1.032-.766-1.588-1.152s-1.11-.776-1.673-1.145a76.9,76.9,0,0,0-14.08-7.419c-1.212-.483-2.427-.941-3.651-1.352-.646-.223-1.138-.375-1.684-.558l-1.612-.522c-1.076-.343-2.167-.652-3.262-.951s-2.2-.561-3.305-.837a81.026,81.026,0,0,0-13.5-1.992,68.313,68.313,0,0,0-13.409.461A62.925,62.925,0,0,0,31.08,25.4,80.307,80.307,0,0,0,16.449,42.184a96.777,96.777,0,0,0-5.542,9.544c-.839,1.663-1.636,3.362-2.4,5.136-.38.89-.754,1.8-1.121,2.751-.184.479-.365.965-.548,1.492l-.279.825-.145.467-.083.285-.11.429c-2.918,14.268,7.417,31.246,23.08,37.917s30.726.511,33.644-13.758l-.05.147c-.014.035-.015.014-.015.014l-.009-.01c-.012,0-.012-.058-.019-.089-.007-.1-.01-.191-.008-.287,0-.213.014-.464.03-.714.032-.508.084-1.052.15-1.6.138-1.105.314-2.244.526-3.376a57.634,57.634,0,0,1,1.656-6.691A49.119,49.119,0,0,1,70.5,62.909a30.743,30.743,0,0,1,7.635-8.374,22.469,22.469,0,0,1,4.7-2.683,24.734,24.734,0,0,1,5.454-1.6,31.7,31.7,0,0,1,6.326-.473c.572.031,1.139.037,1.723.076.589.056,1.174.083,1.775.151l1.746.2c.457.043.922.113,1.384.182a24.955,24.955,0,0,1,5.549,1.625c.23.093.457.2.685.3l.736.354c.494.247.989.5,1.482.782.987.556,1.979,1.173,2.974,1.864a57.7,57.7,0,0,1,11.839,11.495q1.443,1.785,2.816,3.712t2.7,3.965c1.77,2.712,3.477,5.554,5.129,8.485,3.309,5.866,6.382,12.073,9.45,18.491l1.1,2.305c.355.743.7,1.5,1.048,2.262.685,1.532,1.366,3.077,2.032,4.66,1.336,3.154,2.642,6.405,3.956,9.717,2.639,6.621,5.372,13.513,8.789,20.451A105.447,105.447,0,0,0,174.3,161.191c.644.8,1.331,1.582,2,2.365.7.77,1.371,1.532,2.1,2.3L179.475,167c.364.374.738.737,1.106,1.1.729.742,1.5,1.433,2.252,2.136a89.84,89.84,0,0,0,9.522,7.482,120.519,120.519,0,0,0,20.18,11.013,150.558,150.558,0,0,0,20.657,7.154,185.873,185.873,0,0,0,20.7,4.237Z" fill="#fdb74d"/>
  <g id="Elipse_4972" data-name="Elipse 4972">
    <circle id="Elipse_5779" data-name="Elipse 5779" cx="33.104" cy="33.104" r="33.104" transform="translate(9.578 131.209)" fill="none"/>
    <circle id="Elipse_5780" data-name="Elipse 5780" cx="31.338" cy="31.338" r="31.338" transform="translate(11.344 132.974)" fill="none" stroke="#fff" stroke-linecap="round" stroke-width="3.531" stroke-dasharray="2.648 7.062"/>
  </g>
  <rect id="Rectángulo_44700" data-name="Rectángulo 44700" width="260.417" height="205.686" transform="translate(1.213 1.375)" fill="none"/>
  <g id="Grupo_134455" data-name="Grupo 134455">
    <rect id="Rectángulo_44701" data-name="Rectángulo 44701" width="63.557" height="63.557" rx="7.069" transform="translate(12.971 8.177)" opacity="0.5" fill="url(#linear-gradient)"/>
    <rect id="Rectángulo_44702" data-name="Rectángulo 44702" width="29.426" height="1.454" transform="translate(30.037 57.264)" fill="#96bfe6"/>
    <rect id="Rectángulo_44703" data-name="Rectángulo 44703" width="21.09" height="1.454" transform="translate(34.205 61.845)" fill="#96bfe6"/>
    <rect id="Rectángulo_44704" data-name="Rectángulo 44704" width="103.729" height="121.754" rx="9.931" transform="translate(171.316 36.511)" opacity="0.5" fill="url(#linear-gradient-2)"/>
    <g id="Grupo_134328" data-name="Grupo 134328">
      <rect id="Rectángulo_44705" data-name="Rectángulo 44705" width="8.227" height="1.524" transform="translate(218.348 108.338)" fill="#4598e6"/>
    </g>
    <g id="Grupo_134329" data-name="Grupo 134329">
      <rect id="Rectángulo_44706" data-name="Rectángulo 44706" width="47.872" height="2.95" transform="translate(187.114 122.3)" fill="#96bfe6"/>
      <rect id="Rectángulo_44707" data-name="Rectángulo 44707" width="38.712" height="2.95" transform="translate(187.114 136.463)" fill="#96bfe6"/>
      <rect id="Rectángulo_44708" data-name="Rectángulo 44708" width="22.695" height="2.95" transform="translate(187.114 129.382)" fill="#96bfe6"/>
    </g>
    <g id="Grupo_134330" data-name="Grupo 134330">
      <path id="Trazado_191630" data-name="Trazado 191630" d="M247.51,48.653v1.49h8.773v8.233h1.49V48.653Zm-59.572,9.723h1.49V50.143H198.2v-1.49H187.938Zm68.345,42.483V109.1H247.51v1.49h10.263v-9.726Zm-66.855,0h-1.49v9.726H198.2V109.1h-8.773Z" fill="#4598e6"/>
    </g>
    <g id="Grupo_134333" data-name="Grupo 134333">
      <g id="Grupo_134331" data-name="Grupo 134331">
        <path id="Trazado_191631" data-name="Trazado 191631" d="M253.128,139.63a8.773,8.773,0,1,1,8.774-8.773A8.784,8.784,0,0,1,253.128,139.63Zm0-15.848a7.075,7.075,0,1,0,7.076,7.075A7.083,7.083,0,0,0,253.128,123.782Z" fill="#4598e6"/>
      </g>
      <g id="Grupo_134332" data-name="Grupo 134332">
        <path id="Trazado_191632" data-name="Trazado 191632" d="M252.569,134.31l-3.986-3.986,1.2-1.2,2.785,2.785,3.9-3.9,1.2,1.2Z" fill="#4598e6"/>
      </g>
    </g>
    <rect id="Rectángulo_44709" data-name="Rectángulo 44709" width="42.839" height="36.756" transform="translate(23.33 10.554)" opacity="0.95" fill="url(#linear-gradient-3)"/>
    <g id="Grupo_134338" data-name="Grupo 134338">
      <path id="Trazado_191633" data-name="Trazado 191633" d="M61.113,32.93a10.546,10.546,0,0,0-6.4-5.981c-.57-.189-1.588-.521-2.66-.868-1.933-.624-4.044-1.3-4.044-1.3H41.342s-2.309.773-4.763,1.633l0,0c-2.26.793-4.641,1.657-5.444,2.061-1.676.837-4.495,6.819-5.065,7.5a52.926,52.926,0,0,0-2.889,5.287h7.183c.759-1.3,1.343-2.316,1.343-2.316s.454,1,1,2.316H55.722c.364-1.531.591-3.459.591-3.459s1.232,1.675,2.578,3.459h6.631A66.908,66.908,0,0,1,61.113,32.93Z" fill="#385369"/>
      <g id="Grupo_134334" data-name="Grupo 134334">
        <path id="Trazado_191634" data-name="Trazado 191634" d="M45.47,6.456s5.213.821,4.42,8.978-5.4,7.488-5.7,7.48-4.619.148-4.955-9.811C39.232,13.1,39.085,5.739,45.47,6.456Z" fill="#eea886"/>
      </g>
      <g id="Grupo_134335" data-name="Grupo 134335">
        <path id="Trazado_191635" data-name="Trazado 191635" d="M49.97,13.13s.571-.61.78.007-.778,3.371-.814,3.5c0,0-.1.239-.241.107A29.874,29.874,0,0,1,49.97,13.13Z" fill="#eea886"/>
      </g>
      <g id="Grupo_134336" data-name="Grupo 134336">
        <path id="Trazado_191636" data-name="Trazado 191636" d="M39.372,13.027s-.559-.621-.78-.008.705,3.385.746,3.514c0,0,.1.242.239.113A29.789,29.789,0,0,0,39.372,13.027Z" fill="#eea886"/>
      </g>
      <g id="Grupo_134337" data-name="Grupo 134337">
        <path id="Trazado_191637" data-name="Trazado 191637" d="M49.968,14.381l-.747,1a20.05,20.05,0,0,0-.1-2.531c-.12-.343-.3-1.391-.4-1.638s-4.477-1.474-8.343.358c0,0,.17,1.573-.2,1.713s-.189,2.562-.189,2.562l-.613-.692s-.94-6.276-.708-6.93.971-4.586,8.9-2.252c0,0,2.473-.524,2.969,1.183S49.968,14.381,49.968,14.381Z" fill="#434343"/>
      </g>
      <path id="Trazado_191638" data-name="Trazado 191638" d="M48.656,24.63c0-.007-.669-.328-.669-.328a15.244,15.244,0,0,1-.083-3.791s-6.64-1.69-6.451-.4a16.677,16.677,0,0,1-.572,4.294L37.475,26.1s3.629,9.745,7.8,8.488,5.747-8.839,5.747-8.839Z" fill="#eea886"/>
      <path id="Trazado_191639" data-name="Trazado 191639" d="M41.549,21.549a3.935,3.935,0,0,0,2.926,1.381A4.276,4.276,0,0,0,47.79,21.4a3.5,3.5,0,0,1-3.307,2.463S42.468,24.12,41.549,21.549Z" fill="#a77860"/>
    </g>
    <g id="Grupo_134395" data-name="Grupo 134395">
      <g id="Grupo_134343" data-name="Grupo 134343">
        <g id="Grupo_134342" data-name="Grupo 134342">
          <g id="Grupo_134341" data-name="Grupo 134341">
            <g id="Grupo_134340" data-name="Grupo 134340">
              <g id="Grupo_134339" data-name="Grupo 134339">
                <path id="Trazado_191640" data-name="Trazado 191640" d="M55.305,65.191s4.569,2.234,3.439,8.314-1.629,6.9-.366,9.273,2.755,12.509,1.617,14.429S45.92,88.767,44.126,80.074s1.137-12.558,2.173-14S51.272,63.144,55.305,65.191Z" fill="#0e2d3d"/>
              </g>
            </g>
          </g>
        </g>
      </g>
      <g id="Grupo_134344" data-name="Grupo 134344">
        <path id="Trazado_191641" data-name="Trazado 191641" d="M53.581,206.275h1.036v-4.883a13.866,13.866,0,0,1,3.305,3.226c1.274,1.871,3.026,1.712,5.694,1.593s2.549-1.195,2.31-2.708-2.947-1.991-3.823-2.23-2.865-3.666-3.5-4.5a11.441,11.441,0,0,1-1.334-2.23s-.5-2.031-2.967,0-1.752,5.933-1.473,6.292A44.2,44.2,0,0,1,53.581,206.275Z" fill="#163342"/>
      </g>
      <g id="Grupo_134345" data-name="Grupo 134345">
        <path id="Trazado_191642" data-name="Trazado 191642" d="M58.8,201.273c.916.6,3.305,0,3.305,0-.677-.876-4.838-6.73-4.838-6.73-2.529-1.473-3.528.554-3.528.554C54.769,195.412,57.882,200.675,58.8,201.273Z" fill="#eea886"/>
      </g>
      <g id="Grupo_134349" data-name="Grupo 134349">
        <g id="Grupo_134348" data-name="Grupo 134348">
          <g id="Grupo_134347" data-name="Grupo 134347">
            <g id="Grupo_134346" data-name="Grupo 134346">
              <path id="Trazado_191643" data-name="Trazado 191643" d="M85.424,111.191s1.658.317,2.224-.462a5.423,5.423,0,0,1,1.921-1.328c.453-.21,1.6-1.373,1.874-.805s-1.8,2.009-2.178,2.4,2.034.561,2.449.939-.095,4.351-1.735,4.042-3.186-1.722-3.485-1.719a10.366,10.366,0,0,1-1.2-.178Z" fill="#eea886"/>
            </g>
          </g>
        </g>
      </g>
      <g id="Grupo_134353" data-name="Grupo 134353">
        <g id="Grupo_134352" data-name="Grupo 134352">
          <g id="Grupo_134351" data-name="Grupo 134351">
            <g id="Grupo_134350" data-name="Grupo 134350">
              <path id="Trazado_191644" data-name="Trazado 191644" d="M91.349,111.77s4.955,1.281,5.214,1.643.174.626-.294.525-4.825-1.1-4.825-1.1,5.611,2.5,5.888,2.751c.162.146.028.668-.228.638s-5.959-2.192-5.959-2.192,5.235,2.345,5.4,2.623a.4.4,0,0,1-.5.544c-.4-.147-5.381-2.049-5.381-2.049s3.7,1.946,3.707,2.266c0,.2-.093.652-1.033.12s-3.288-1.554-3.288-1.554Z" fill="#eea886"/>
            </g>
          </g>
        </g>
      </g>
      <g id="Grupo_134354" data-name="Grupo 134354">
        <path id="Trazado_191645" data-name="Trazado 191645" d="M40.166,206.609H40.8v-3.584a7.794,7.794,0,0,1,1.65,2.878c.518,1.712,2.372,2.22,5.2,2.14s2.867-1.195,2.628-2.868-2.628-2.548-2.628-2.548a44.759,44.759,0,0,1-3.743-4.918,3.728,3.728,0,0,0-3.056.627c-1.344,1.084-.926,3.534-.886,4.171S40.166,206.609,40.166,206.609Z" fill="#163342"/>
      </g>
      <g id="Grupo_134355" data-name="Grupo 134355">
        <path id="Trazado_191646" data-name="Trazado 191646" d="M42.117,121.232a25,25,0,0,0-4.283,9.577c-.914,5.2.54,22.638.5,25.207s-2.429,8.959-1.951,13.8,2.363,28.919,2.363,28.919l5.163-1.024s-.3-24.55,0-26.581.9-9.434,1.017-10.27,7.584-22.795,7.584-26.542S50.24,115.119,42.117,121.232Z" fill="#1d3b54"/>
      </g>
      <g id="Grupo_134356" data-name="Grupo 134356">
        <path id="Trazado_191647" data-name="Trazado 191647" d="M59.041,122.944S64.576,144.069,65.233,147s1.609,5.341,1.609,6.584a43.519,43.519,0,0,1-1.071,7.513L58.742,194.71H52.048s3.73-20.168,3.83-24.112,3.143-9.565,2.546-11.237S48.807,138.4,48.807,138.4,41.977,116.811,59.041,122.944Z" fill="#1d3b54"/>
      </g>
      <g id="Grupo_134357" data-name="Grupo 134357">
        <path id="Trazado_191648" data-name="Trazado 191648" d="M47.652,202.627l-3.743-4.918-3.056.627a13.851,13.851,0,0,0,2.308,3.857C44.92,204.154,47.652,202.627,47.652,202.627Z" fill="#eea886"/>
      </g>
      <g id="Grupo_134359" data-name="Grupo 134359">
        <g id="Grupo_134358" data-name="Grupo 134358">
          <path id="Trazado_191649" data-name="Trazado 191649" d="M56.755,87.044a6.9,6.9,0,0,1,4.006,2.063,26.417,26.417,0,0,1,3.795,5.779c.451.985,6.782,10.117,7.11,10.322s3.511,1.269,5.619,1.978c3.254,1.1,9.777,3.466,9.777,3.466l-1.3,4.1S73.5,110.74,70.43,109.983c-3.756-.925-12.4-12.018-12.4-12.018S51.582,90.411,56.755,87.044Z" fill="#285173"/>
        </g>
      </g>
      <g id="Grupo_134361" data-name="Grupo 134361">
        <g id="Grupo_134360" data-name="Grupo 134360">
          <path id="Trazado_191650" data-name="Trazado 191650" d="M52.772,85.443a30.927,30.927,0,0,0,3.983,1.6c1.026.205,5.009,5.378,5.707,7.267s0,4.721-1.437,8.047-.082,4.434-.739,7.759-.446,15.767-.323,17.615-19.217,4.647-23.035,1.281c0,0,2.585-11.212,5.645-14.413.662-.691.592-5.3.141-6.453s-5.543-9.73-5.543-9.73-.374-8.7,1.848-10.429c1.929-1.5,7.188-2.033,8.133-2.361A16.148,16.148,0,0,1,52.772,85.443Z" fill="#ffbf55"/>
        </g>
      </g>
      <g id="Grupo_134363" data-name="Grupo 134363">
        <g id="Grupo_134362" data-name="Grupo 134362">
          <path id="Trazado_191651" data-name="Trazado 191651" d="M54.184,82.032s-.088.814-.19,1.914c-.04.435-.083.915-.122,1.407a33.141,33.141,0,0,0-.155,3.867s-3.072,3.079-6.565-3.592a9.166,9.166,0,0,0,.363-6.5C46.409,75.384,54.184,82.032,54.184,82.032Z" fill="#eea886"/>
        </g>
      </g>
      <g id="Grupo_134364" data-name="Grupo 134364">
        <path id="Trazado_191652" data-name="Trazado 191652" d="M62.782,103.584s.739-4.918-.047-7.909a19.1,19.1,0,0,1-1.41,6.224Z" fill="#183c59"/>
      </g>
      <g id="Grupo_134365" data-name="Grupo 134365">
        <path id="Trazado_191653" data-name="Trazado 191653" d="M44.792,86.1s2.113,6.241,7.914,5.782,2.75-5.27,2.75-5.27a12.777,12.777,0,0,0-1.853-.907c-.407-.079-6.414-.155-6.414-.155Z" fill="#eea886"/>
      </g>
      <g id="Grupo_134366" data-name="Grupo 134366">
        <path id="Trazado_191654" data-name="Trazado 191654" d="M55.456,86.613a57.164,57.164,0,0,1,3.039,16.971c0,8.567.244,22.521,1.305,26.928s4.08,18.034,4.08,18.034l2.367-1.224s-5.691-21.75-6.12-23.318.326-18.137.734-19.524,2.144-7.563,1.874-9.276c-.34-2.16-2.361-5.356-5.625-8.1Z" fill="#285173"/>
      </g>
      <g id="Grupo_134367" data-name="Grupo 134367">
        <path id="Trazado_191655" data-name="Trazado 191655" d="M45.938,85.838A87.372,87.372,0,0,1,48.784,99.63c.957,7.745-2.938,43.693-5.55,51.854l-10.119-1.632s2.179-25.41,5.136-30.035,3.9-8.716.705-18.367,1.4-14.432,1.4-14.432S45.051,85.938,45.938,85.838Z" fill="#285173"/>
      </g>
      <g id="Grupo_134368" data-name="Grupo 134368">
        <path id="Trazado_191656" data-name="Trazado 191656" d="M56.855,111.482,44.586,132.733l-13.639-7.875L42.682,103.3Z" fill="#616161"/>
      </g>
      <g id="Grupo_134369" data-name="Grupo 134369">
        <path id="Trazado_191657" data-name="Trazado 191657" d="M55.376,112.213l-10.9,18.874-12.114-6.994,10.423-19.147Z" fill="#e0cec7"/>
      </g>
      <g id="Grupo_134370" data-name="Grupo 134370">
        <path id="Trazado_191658" data-name="Trazado 191658" d="M51.356,110.518l.765-1.325-4.9-2.828-.956,1.214Z" fill="#616161"/>
      </g>
      <g id="Grupo_134376" data-name="Grupo 134376">
        <g id="Grupo_134375" data-name="Grupo 134375">
          <g id="Grupo_134374" data-name="Grupo 134374">
            <g id="Grupo_134373" data-name="Grupo 134373">
              <g id="Grupo_134372" data-name="Grupo 134372">
                <g id="Grupo_134371" data-name="Grupo 134371">
                  <path id="Trazado_191659" data-name="Trazado 191659" d="M50.771,125.6a2.538,2.538,0,0,1-.8-.116s-.429-.249-.744-.407a2.539,2.539,0,0,0-.248-.112,4.6,4.6,0,0,1-1.368-.578,31.168,31.168,0,0,1-2.464-2.6l.908-1.379.665-1.413a31.353,31.353,0,0,1,4.58.552,1.679,1.679,0,0,1,.151.092,5.893,5.893,0,0,1,.853.873c.078.066.805.778.78,1.081a1,1,0,0,1-.483.837,2.385,2.385,0,0,1-.509,1.2,1.477,1.477,0,0,1-.711,1.093S51.22,125.485,50.771,125.6Z" fill="#eea886"/>
                </g>
              </g>
            </g>
          </g>
        </g>
      </g>
      <g id="Grupo_134378" data-name="Grupo 134378">
        <g id="Grupo_134377" data-name="Grupo 134377">
          <path id="Trazado_191660" data-name="Trazado 191660" d="M42.457,87.044s-3.726-1.067-5.861,3.038a18.729,18.729,0,0,0-2.409,7.862c-.27,1.893-1.486,7.062-1.609,7.6s-2.878,6.9-1.615,9.122,14.166,8.818,14.084,9.311S47.28,119,47.28,119s-5.218-2.909-6.072-3.8c-1.389-1.455-4.317-3.022-3.715-4.827.706-2.12,2.829-9.271,3.322-10.318S45.6,88.378,42.457,87.044Z" fill="#285173"/>
        </g>
      </g>
      <g id="Grupo_134383" data-name="Grupo 134383">
        <g id="Grupo_134382" data-name="Grupo 134382">
          <g id="Grupo_134381" data-name="Grupo 134381">
            <g id="Grupo_134380" data-name="Grupo 134380">
              <g id="Grupo_134379" data-name="Grupo 134379">
                <path id="Trazado_191661" data-name="Trazado 191661" d="M54.643,65.865s6.633,2.084,3.032,13.532-12.66-1.327-11.712-8.3S54.643,65.865,54.643,65.865Z" fill="#eea987"/>
              </g>
            </g>
          </g>
        </g>
      </g>
      <g id="Grupo_134388" data-name="Grupo 134388">
        <g id="Grupo_134387" data-name="Grupo 134387">
          <g id="Grupo_134386" data-name="Grupo 134386">
            <g id="Grupo_134385" data-name="Grupo 134385">
              <g id="Grupo_134384" data-name="Grupo 134384">
                <path id="Trazado_191662" data-name="Trazado 191662" d="M58.353,72.544a14.961,14.961,0,0,1-8.812,3.639s-2.12,2.486-2.283,3.461c0,0-4.921-8.389,1.129-13.417S60.577,70.472,58.353,72.544Z" fill="#0e2d3d"/>
              </g>
            </g>
          </g>
        </g>
      </g>
      <g id="Grupo_134393" data-name="Grupo 134393">
        <g id="Grupo_134392" data-name="Grupo 134392">
          <g id="Grupo_134391" data-name="Grupo 134391">
            <g id="Grupo_134390" data-name="Grupo 134390">
              <g id="Grupo_134389" data-name="Grupo 134389">
                <path id="Trazado_191663" data-name="Trazado 191663" d="M49.607,76.411c-.042-.833-.556-2.729-1.794-2.2s.076,4.392.9,4.154C48.71,78.366,49.708,78.382,49.607,76.411Z" fill="#eea987"/>
              </g>
            </g>
          </g>
        </g>
      </g>
      <g id="Grupo_134394" data-name="Grupo 134394">
        <path id="Trazado_191664" data-name="Trazado 191664" d="M53.994,83.946c-.04.435-.083.915-.122,1.407,0,0-2.927-.174-4.884-4.529C49.115,81.014,51.26,84.165,53.994,83.946Z" fill="#a77860"/>
      </g>
    </g>
    <rect id="Rectángulo_44710" data-name="Rectángulo 44710" width="46.695" height="42.055" rx="5.812" transform="translate(117.033 17.728)" opacity="0.5" fill="url(#linear-gradient-2)"/>
    <g id="Grupo_134396" data-name="Grupo 134396">
      <rect id="Rectángulo_44711" data-name="Rectángulo 44711" width="3.703" height="0.686" transform="translate(138.352 51.829)" fill="#4598e6"/>
    </g>
    <g id="Grupo_134412" data-name="Grupo 134412">
      <g id="Grupo_134399" data-name="Grupo 134399">
        <g id="Grupo_134398" data-name="Grupo 134398">
          <g id="Grupo_134397" data-name="Grupo 134397">
            <path id="Trazado_191665" data-name="Trazado 191665" d="M143.553,14.045a4.956,4.956,0,0,1,2.036,5.667c-.947,4.029-1.307,4.561-.537,6.19s1.446,8.45.625,9.7-9.144-6.088-10.069-11.957,1.157-8.361,1.9-9.291S140.921,12.549,143.553,14.045Z" fill="#344052"/>
          </g>
        </g>
      </g>
      <g id="Grupo_134400" data-name="Grupo 134400">
        <path id="Trazado_191666" data-name="Trazado 191666" d="M149.156,47.345h-3.2c-.155-1.576-.3-2.673-.268-2.835.047-.268-3.179-8.73-3.48-9.43a13.684,13.684,0,0,1-1.641-4.342c-.156-1.768,2.149-2.481,2.149-2.481,3.111.557,4.165,4.86,4.165,4.86s1.306,8.726,1.967,11.182A15.7,15.7,0,0,1,149.156,47.345Z" fill="#eea886"/>
      </g>
      <path id="Trazado_191667" data-name="Trazado 191667" d="M147.547,35.219l-4.757,2s-4.373-10.851-.708-9.639S147.381,31.063,147.547,35.219Z" fill="#eb4747"/>
      <g id="Grupo_134401" data-name="Grupo 134401">
        <path id="Trazado_191668" data-name="Trazado 191668" d="M146.489,40.328a45.43,45.43,0,0,0-.581,5.924c.022.17.092.561.2,1.093h-11.47c.305-1.089.582-2.053.75-2.614.558-1.848.024-2.342-.258-3.821a30.5,30.5,0,0,0-.915-2.919c-.141-.414-.285-.846-.424-1.28a26.557,26.557,0,0,1-.884-4.094c-.692-4.413,2.7-4.837,2.7-4.837,1.261-.233,3.465-.914,3.465-.914l3.451.718a3.74,3.74,0,0,1,.807.477l0,0a6.2,6.2,0,0,1,.776.681,20.771,20.771,0,0,1,1.877,2.713c.229.374.46.757.677,1.134a6.506,6.506,0,0,1,1.185,3.3C147.832,36.977,146.628,39.25,146.489,40.328Z" fill="#eb4747"/>
      </g>
      <path id="Trazado_191669" data-name="Trazado 191669" d="M142.522,27.585s2.162,3.7,1.358,3.971-5.042-.657-6.7-4.148A6.409,6.409,0,0,1,142.522,27.585Z" fill="#eea886"/>
      <path id="Trazado_191670" data-name="Trazado 191670" d="M142.212,29.273s-1.92.812-3.659-1.863c0,0,.467-3.038-.521-4.8s4.318,2.107,4.318,2.107-.086.362-.175.9c-.045.273-.092.592-.128.929-.03.282-.052.578-.063.872A4.775,4.775,0,0,0,142.212,29.273Z" fill="#eea886"/>
      <path id="Trazado_191671" data-name="Trazado 191671" d="M137.444,33.411c-.4,2.033-3.232,4.581-3.232,4.581-.14-.416-.285-.847-.424-1.28A18.572,18.572,0,0,0,137.444,33.411Z" fill="#393d63"/>
      <g id="Grupo_134402" data-name="Grupo 134402">
        <path id="Trazado_191672" data-name="Trazado 191672" d="M136.732,35.029c-.179.741-1.006,8.247-.917,8.5.053.147.454,1.883.855,3.813h-3.7a9.135,9.135,0,0,1-.55-2.861c.237-2.531-.621-10.6-.621-10.6s-.769-4.882,3.282-5.492c0,0,2.394.314,2.538,2.082A13.714,13.714,0,0,1,136.732,35.029Z" fill="#eea886"/>
      </g>
      <path id="Trazado_191673" data-name="Trazado 191673" d="M131.5,36.066l5.027,1.175s3.988-7.744.4-9.158C133.134,26.593,130.589,31.842,131.5,36.066Z" fill="#eb4747"/>
      <g id="Grupo_134405" data-name="Grupo 134405">
        <g id="Grupo_134404" data-name="Grupo 134404">
          <g id="Grupo_134403" data-name="Grupo 134403">
            <path id="Trazado_191674" data-name="Trazado 191674" d="M143.089,14.475s4.369,1.6,1.6,9.143-8.423-1.287-7.568-5.92S143.089,14.475,143.089,14.475Z" fill="#eea987"/>
          </g>
        </g>
      </g>
      <g id="Grupo_134408" data-name="Grupo 134408">
        <g id="Grupo_134407" data-name="Grupo 134407">
          <g id="Grupo_134406" data-name="Grupo 134406">
            <path id="Trazado_191675" data-name="Trazado 191675" d="M145.358,19.058a10.018,10.018,0,0,1-6.007,2.154s-.865,2.109-1,2.756c0,0-3.657-6.278.547-9.449S146.91,17.743,145.358,19.058Z" fill="#344052"/>
          </g>
        </g>
      </g>
      <g id="Grupo_134411" data-name="Grupo 134411">
        <g id="Grupo_134410" data-name="Grupo 134410">
          <g id="Grupo_134409" data-name="Grupo 134409">
            <path id="Trazado_191676" data-name="Trazado 191676" d="M139.851,21.665c0-.559-.285-1.843-1.13-1.527s-.088,2.939.468,2.806C139.189,22.944,139.856,22.986,139.851,21.665Z" fill="#eea987"/>
          </g>
        </g>
      </g>
      <path id="Trazado_191677" data-name="Trazado 191677" d="M141.99,27.291a4.646,4.646,0,0,1-2.872-2.59c1.67,2.157,2.929,1.847,2.929,1.847C142.017,26.83,142.015,27.006,141.99,27.291Z" fill="#a77860"/>
    </g>
    <g id="Grupo_134413" data-name="Grupo 134413">
      <path id="Trazado_191678" data-name="Trazado 191678" d="M151.48,25.339v.671h3.949v3.706h.671V25.339Zm-26.818,4.377h.671V26.01h3.949v-.671h-4.62ZM155.429,48.84v3.708H151.48v.671h4.62V48.84Zm-30.1,0h-.671v4.379h4.62v-.671h-3.949Z" fill="#4598e6"/>
    </g>
    <g id="Grupo_134414" data-name="Grupo 134414">
      <rect id="Rectángulo_44712" data-name="Rectángulo 44712" width="4.947" height="0.916" transform="translate(42.276 50.163)" fill="#4598e6"/>
    </g>
    <g id="Grupo_134415" data-name="Grupo 134415">
      <path id="Trazado_191679" data-name="Trazado 191679" d="M59.575,14.779v.9h5.274v4.951h.9V14.779Zm-35.82,5.847h.9V15.675h5.275v-.9h-6.17ZM64.849,46.17v4.953H59.575v.9h6.17V46.17Zm-40.2,0h-.9v5.848h6.17v-.9H24.65Z" fill="#4598e6"/>
    </g>
    <g id="Grupo_134431" data-name="Grupo 134431">
      <g id="Grupo_134416" data-name="Grupo 134416">
        <path id="Trazado_191680" data-name="Trazado 191680" d="M252.723,100.176h-4.989c-.091-.2-.165-.373-.226-.512-1.481-3.5-9.111-11.512-9.111-11.512v.017l0,.009v.008l-.013.035c-.005.017-.009.039-.018.065a.17.17,0,0,0-.008.044l-.013.034c-.313,1.169-1.85,6.988-2.619,11.812H201.958c-.078-.447-.169-.873-.273-1.268a27.251,27.251,0,0,1-.652-3.491c0-.057-.013-.109-.017-.165-.026-.2-.048-.408-.065-.608a32.073,32.073,0,0,1-.057-5.589c-.1.2-.777,2.705-1.672,5.793-.49,1.694-1.046,3.565-1.6,5.328h-7.973l10.006-28.865c.221-.174,2.818-1.429,4.711-2.332,1.933-.921,4.265-2.271,6.371-3.426,1.077-.591,2.093-1.125,2.975-1.529l.134-.061v0c1.455-.665,2.424-1.1,2.424-1.1h0l.63-.061c2.032-.195,8.337-.786,10.448-.907.174-.014.321-.018.434-.022a1.463,1.463,0,0,1,.213,0,26.48,26.48,0,0,1,3.274,1.12c.065.022.131.048.2.074.082.03.16.061.243.091.148.057.3.113.451.174.305.121.622.243.939.369l.334.13a66.929,66.929,0,0,1,8.264,3.7c.617.439,2.532,4.048,4.751,8.512A249.038,249.038,0,0,1,252.723,100.176Z" fill="#decbc4"/>
      </g>
      <g id="Grupo_134417" data-name="Grupo 134417">
        <path id="Trazado_191681" data-name="Trazado 191681" d="M227.946,60.884c-.09,4.539-8.877,7.022-8.877,7.022s-3.676-4.608-2.8-5.05c.345-.173.485-.861.528-1.632a16.111,16.111,0,0,0-.05-2.059c-.026-.321-.051-.527-.051-.527s1.255-1.325,2.853-2.9c2.791-2.76,6.628-6.3,6.634-4.889a1.3,1.3,0,0,1-.032.266C225.478,54.278,227.946,60.884,227.946,60.884Z" fill="#eea886"/>
      </g>
      <g id="Grupo_134418" data-name="Grupo 134418">
        <path id="Trazado_191682" data-name="Trazado 191682" d="M224.562,54.234h0c-.017.027-.39.584-1.026,1.384-1.349,1.7-3.885,4.485-6.736,5.6a16.111,16.111,0,0,0-.05-2.059,4.536,4.536,0,0,1-.873-.1,27.153,27.153,0,0,1,1.91-2.8l1.765-.528Z" fill="#a77860"/>
      </g>
      <g id="Grupo_134419" data-name="Grupo 134419">
        <path id="Trazado_191683" data-name="Trazado 191683" d="M226.249,50.907c-.76,1.654-1.482,2.852-1.687,3.327h0a5.857,5.857,0,0,1-1.026,1.384c-1.448,1.561-4.14,3.618-6.786,3.546a4.536,4.536,0,0,1-.873-.1,4.152,4.152,0,0,1-3.025-2.089c-5.482-10.734-1.513-19.511-1.513-19.511s14.991-4.239,17.336.273C230.32,40.9,228.035,47.021,226.249,50.907Z" fill="#eea886"/>
      </g>
      <g id="Grupo_134420" data-name="Grupo 134420">
        <path id="Trazado_191684" data-name="Trazado 191684" d="M211.338,37.46s-1.392-.077-1.736-2.717c-.34-2.607.347-3.33.347-3.33s6.189-2.591,8.411-2.928,7.687-.66,8.968.805c0,0,3.112-.723,3.96,4.443,1.346,8.2-4.583,16.155-4.583,16.155s.05-5.354-1.13-6.064-2.2.978-2.2.978l-2.415.432s3.669-7.922-.732-8.215S213.858,37.919,211.338,37.46Z" fill="#e8734d"/>
      </g>
      <g id="Grupo_134421" data-name="Grupo 134421">
        <path id="Trazado_191685" data-name="Trazado 191685" d="M223.441,42.667c.229-2.359,4.5-3.259,4.21-.787s-2.387,4.848-3.357,4.765S223.266,44.465,223.441,42.667Z" fill="#eea886"/>
      </g>
      <g id="Grupo_134422" data-name="Grupo 134422">
        <path id="Trazado_191686" data-name="Trazado 191686" d="M248.411,76.261c-1.389-4.451-2.592-7.973-3.126-8.355-.934-.669-8.334-2.705-11.847-4.082l-.334-.13c-.317-.126-.634-.248-.939-.369-.151-.061-.3-.117-.451-.174-.083-.03-.161-.061-.243-.091-.065-.026-.131-.052-.2-.074,0,0-.008.013-.017.017a57.682,57.682,0,0,0-3.878,4.96c-3.631,5.159-8.36,13.518-7.634,21.235.234,2.475.521,6.032,1,10.023.034.317.074.634.117.955h16.38c.2-4.177.556-9.679,1.1-11.812l.013-.034a.17.17,0,0,1,.008-.044c.005-.022.013-.043.018-.065l.013-.035v-.008l0-.009s3.965,6.2,4.169,12.007h10.31C252.372,94.779,250.795,83.9,248.411,76.261Z" fill="#3c4145"/>
      </g>
      <g id="Grupo_134423" data-name="Grupo 134423">
        <path id="Trazado_191687" data-name="Trazado 191687" d="M213.783,64.076a123.093,123.093,0,0,0-2.836,14.4v0c-.056.343-.108.695-.165,1.055,0,.04-.013.083-.017.126-.039.235-.074.478-.109.721,0,.031-.008.057-.012.087-.027.161-.053.326-.074.5-.061.4-.122.821-.183,1.242-.6,4.195-1.4,10.861-2.21,17.974H201.7a30.171,30.171,0,0,1-.656-5.007.552.552,0,0,0-.03.083c-.517,1.433-1.086,2.992-1.663,4.507-.053.139-.1.278-.157.417h-11.16l11.117-29.082c.221-.174,3.083-1.716,4.976-2.614,1.976-.943,4.473-2.1,6.688-3.123,1.06-.491,2.054-.946,2.9-1.333Z" fill="#3c4145"/>
      </g>
      <g id="Grupo_134424" data-name="Grupo 134424">
        <path id="Trazado_191688" data-name="Trazado 191688" d="M228.839,74.247l-4.277,2.414,1.828,1.863-4.013,21.652h-1.511c-.556-4.377-.873-8.307-1.12-10.978-1.116-11.933,10.791-25.391,11.529-26.212.573.217,1.19.456,1.829.708Z" fill="#51565c"/>
      </g>
      <g id="Grupo_134425" data-name="Grupo 134425">
        <path id="Trazado_191689" data-name="Trazado 191689" d="M213.848,63.963s-1.6,5.216-3.457,18.239c-.6,4.191-1.4,10.861-2.214,17.974h-.63l-.829-20.458,2.036-2.206-1.81-2.262,3.873-9.893c1.06-.491,2.054-.946,2.9-1.333Z" fill="#51565c"/>
      </g>
      <g id="Grupo_134426" data-name="Grupo 134426">
        <path id="Trazado_191690" data-name="Trazado 191690" d="M231.491,63.037l-3.545-2.153s-.1,1.944-8.877,7.022l2.493,7.021Z" fill="#f5e2d9"/>
      </g>
      <g id="Grupo_134427" data-name="Grupo 134427">
        <path id="Trazado_191691" data-name="Trazado 191691" d="M216.734,61.864s.138,2.1,2.335,6.042L214.2,74.249l-.354-10.287Z" fill="#f5e2d9"/>
      </g>
      <g id="Grupo_134428" data-name="Grupo 134428">
        <path id="Trazado_191692" data-name="Trazado 191692" d="M219.082,67.906s.943,3.772.6,4.827a4.6,4.6,0,0,1-3.563-.188A16.557,16.557,0,0,1,219.082,67.906Z" fill="#d44040"/>
      </g>
      <g id="Grupo_134429" data-name="Grupo 134429">
        <path id="Trazado_191693" data-name="Trazado 191693" d="M217.939,80.73a94.87,94.87,0,0,0-.625,19.446h-4.156c-.057-.82-.109-1.676-.161-2.571a67.021,67.021,0,0,1,3.969-25.4l2.115-.529S218.4,77.6,217.939,80.73Z" fill="#d44040"/>
      </g>
      <g id="Grupo_134430" data-name="Grupo 134430">
        <path id="Trazado_191694" data-name="Trazado 191694" d="M201.18,89.089c-.158,3.219-.135,6.077-.135,6.077v0c0,.016,0,.1-.011.247-.006-.055-.013-.108-.02-.162-.515,1.433-1.086,2.99-1.661,4.506a48.24,48.24,0,0,1-.129-4.911c.231-9.024,3.069-13.757,3.069-13.757C201.642,82.664,201.33,86.039,201.18,89.089Z" fill="#2d3133"/>
      </g>
    </g>
    <g id="Grupo_134454" data-name="Grupo 134454">
      <g id="Grupo_134432" data-name="Grupo 134432">
        <path id="Trazado_191695" data-name="Trazado 191695" d="M162.336,100.215l-13.278,7.3L135.723,86.53l16.128-5.6Z" fill="#292c47"/>
      </g>
      <g id="Grupo_134433" data-name="Grupo 134433">
        <path id="Trazado_191696" data-name="Trazado 191696" d="M161.494,99.585l-12.418,6.826-12.47-19.624,15.082-5.239Z" fill="#fff"/>
      </g>
      <g id="Grupo_134434" data-name="Grupo 134434">
        <path id="Trazado_191697" data-name="Trazado 191697" d="M166.041,95.915s-2.311-1.106-3.325-1.683-3.624-1.371-3.835-1.56-7.736-.652-8.192-1.046-.9.923,1.05,1.35,4.664,1.472,4.813,2.234-2,.943-2.221,1.571.061.487.369.621,2.56-1.112,3.549-.758,2.5-.136,3.262.124,4.447,1.5,4.447,1.5Z" fill="#eea886"/>
      </g>
      <g id="Grupo_134435" data-name="Grupo 134435">
        <path id="Trazado_191698" data-name="Trazado 191698" d="M148.41,104.881s-1.942-1.748-2.881-2.479-2.7-2.881-2.963-3.006-3.627-7.036-4.175-7.312.519-1.208,1.681.463,3.2,3.823,3.979,3.666.108-2.255.615-2.7.483-.132.73.106-.052,2.845.667,3.64.847,2.411,1.387,3.025,3.146,3.607,3.146,3.607Z" fill="#eea886"/>
      </g>
      <g id="Grupo_134436" data-name="Grupo 134436">
        <path id="Trazado_191699" data-name="Trazado 191699" d="M190.224,198.283s.42,2.915.473,3.353,4.672-.258,4.672-.258l.374-3.47S190.8,197.872,190.224,198.283Z" fill="#424773"/>
      </g>
      <g id="Grupo_134437" data-name="Grupo 134437">
        <path id="Trazado_191700" data-name="Trazado 191700" d="M190.648,201.265a12.478,12.478,0,0,1-2.88,2.523c-1.415.765-3.64,1.069-4.477,1.861-.6.572-2.2,3.035,3.679,2.986s8.714.348,9.344-.6-.912-6.97-.912-6.97A12.443,12.443,0,0,1,190.648,201.265Z" fill="#292c47"/>
      </g>
      <g id="Grupo_134438" data-name="Grupo 134438">
        <path id="Trazado_191701" data-name="Trazado 191701" d="M157.124,198.283s.42,2.915.472,3.353,4.673-.258,4.673-.258l.374-3.47S157.7,197.872,157.124,198.283Z" fill="#424773"/>
      </g>
      <g id="Grupo_134439" data-name="Grupo 134439">
        <path id="Trazado_191702" data-name="Trazado 191702" d="M157.547,201.265a12.463,12.463,0,0,1-2.879,2.523c-1.416.765-6.625,1.394-7.462,2.187-.6.572-1.61,2.875,6.663,2.66,5.878-.153,8.715.348,9.344-.6s-.911-6.97-.911-6.97S160.99,201.6,157.547,201.265Z" fill="#292c47"/>
      </g>
      <g id="Grupo_134440" data-name="Grupo 134440">
        <path id="Trazado_191703" data-name="Trazado 191703" d="M186.4,123.375s4.341,6.9,4.017,13.13,1.574,13.041,2.226,19.553c.727,7.26,3.7,24.447,3.81,28.331s-.462,16.284-.462,16.284l-5.955.136s-5-30.048-6.3-33.113-7.719-24.924-7.935-27.376S186.4,123.375,186.4,123.375Z" fill="#292c47"/>
      </g>
      <g id="Grupo_134441" data-name="Grupo 134441">
        <path id="Trazado_191704" data-name="Trazado 191704" d="M163.548,124.309s-3.271,17.087-3.7,20.9-.72,18.465-.936,20.849-1.439,31.206-2.591,34.749h7.613s5.845-20.952,5.845-30.865,4.515-21.551,7.429-28.091,9.586-6.7,11.377-18.831C188.583,123.022,165.974,120.46,163.548,124.309Z" fill="#292c47"/>
      </g>
      <g id="Grupo_134442" data-name="Grupo 134442">
        <path id="Trazado_191705" data-name="Trazado 191705" d="M179.155,65.393s-5.826-2.176-8.512,2.259-2.428,13.314.509,14.406,7.348.52,8.852-2.255,2.861-6.787,2.8-9.468S180.685,66.167,179.155,65.393Z" fill="#eea886"/>
      </g>
      <g id="Grupo_134443" data-name="Grupo 134443">
        <path id="Trazado_191706" data-name="Trazado 191706" d="M171.784,82.261a5.033,5.033,0,0,1-.158,2.348c-.4.775,7.548.795,7.548.795a52.438,52.438,0,0,1,1.869-7.776C182.266,74.066,171.784,82.261,171.784,82.261Z" fill="#eea886"/>
      </g>
      <g id="Grupo_134444" data-name="Grupo 134444">
        <path id="Trazado_191707" data-name="Trazado 191707" d="M181.043,77.628s-.548.9-2.788.553-4.971-3.33-5.907-3.657-.944-.877-.944-.877l-.585.855-.993.063s.906-2.665-.461-3.752,1.419-8.627,8.6-6.117c0,0,5.516,1.521,5.315,4.658S182.277,76.065,181.043,77.628Z" fill="#3a3f47"/>
      </g>
      <g id="Grupo_134445" data-name="Grupo 134445">
        <path id="Trazado_191708" data-name="Trazado 191708" d="M171.154,84.515s.026-1.48.7-1.622,7.407-.79,8.231-.466v1.725S178.495,85.129,171.154,84.515Z" fill="#e2d2ca"/>
      </g>
      <g id="Grupo_134446" data-name="Grupo 134446">
        <path id="Trazado_191709" data-name="Trazado 191709" d="M171.553,72.506c.125-.526,1.464-2.03,1.976-.42s-.774,3.776-1.492,3.591S171.234,73.84,171.553,72.506Z" fill="#eea886"/>
      </g>
      <g id="Grupo_134447" data-name="Grupo 134447">
        <path id="Trazado_191710" data-name="Trazado 191710" d="M144.419,102.009a.013.013,0,0,1,.011,0C144.384,102.028,144.377,102.03,144.419,102.009Z" fill="#323657"/>
      </g>
      <g id="Grupo_134448" data-name="Grupo 134448">
        <path id="Trazado_191711" data-name="Trazado 191711" d="M191.3,139.8a61.645,61.645,0,0,1-9.666,1.724c-6.093.672-21.317-.243-21.413-.962s3.275-26.8,3.083-28.148-.295-6.13-.295-6.13a33.708,33.708,0,0,1-3.024,9.589c-.583,1.055-2.538,4.362-3.48,3.61-4.561-3.642-11.623-17.364-12.071-17.479.377-.164,3.347-1.532,3.764-1.671.365-.122,3.656,3.362,5.649,5.522.889.962,1.52,1.662,1.52,1.662.576-1.3,2.673-9.455,3.324-12.279,1.47-6.369,1.244-6.634,1.244-6.634,4.457-1.348,11.223-4.093,11.223-4.093l8.928-.364s8.194,1.8,11.421,3.262c.306.138.307,7.309,1.147,9.19l-2.675,5.644s-1.546,11.18-1.866,16.153C187.961,120.682,191.3,139.8,191.3,139.8Z" fill="#ffdf69"/>
      </g>
      <g id="Grupo_134449" data-name="Grupo 134449">
        <path id="Trazado_191712" data-name="Trazado 191712" d="M193.021,105.913a3.529,3.529,0,0,1-1.979,1.667,2.562,2.562,0,0,1-1.43.143l-.349-.064h0l-6.118-1.134s-1.339-15.417,8.358-19.111C191.759,87.5,195.162,99.011,193.021,105.913Z" fill="#ffdf69"/>
      </g>
      <g id="Grupo_134450" data-name="Grupo 134450">
        <path id="Trazado_191713" data-name="Trazado 191713" d="M191.042,107.579h0a2.562,2.562,0,0,1-1.43.143l-.349-.064h0l.6-7.878Z" fill="#ab9546"/>
      </g>
      <g id="Grupo_134451" data-name="Grupo 134451">
        <path id="Trazado_191714" data-name="Trazado 191714" d="M155.363,107.521l-.748,3.166a25.043,25.043,0,0,1-.772-4.828C154.732,106.821,155.363,107.521,155.363,107.521Z" fill="#ab9546"/>
      </g>
      <g id="Grupo_134452" data-name="Grupo 134452">
        <path id="Trazado_191715" data-name="Trazado 191715" d="M180.815,65.916s7.636-.956.13,11.8Z" fill="#3a3f47"/>
      </g>
      <g id="Grupo_134453" data-name="Grupo 134453">
        <path id="Trazado_191716" data-name="Trazado 191716" d="M141.861,85.4l-.776-1.333,6.114-2.109.776,1.326Z" fill="#292c47"/>
      </g>
    </g>
  </g>
  <g id="Grupo_134466" data-name="Grupo 134466">
    <g id="Grupo_134456" data-name="Grupo 134456">
      <path id="Trazado_191717" data-name="Trazado 191717" d="M115.727,91.709H74.545v-22.9h41.182Zm-40.4-.779h39.624V69.59H75.324Z" fill="#ffc155"/>
    </g>
    <g id="Grupo_134463" data-name="Grupo 134463">
      <g id="Grupo_134461" data-name="Grupo 134461">
        <g id="Grupo_134460" data-name="Grupo 134460">
          <g id="Grupo_134459" data-name="Grupo 134459">
            <g id="Grupo_134458" data-name="Grupo 134458">
              <g id="Grupo_134457" data-name="Grupo 134457">
                <path id="Trazado_191718" data-name="Trazado 191718" d="M85.162,82.928l-1.991-3.26a.567.567,0,1,1,.968-.591l1.408,2.305,3.743-2.215a.567.567,0,1,1,.578.976Z" fill="#ffca55"/>
              </g>
            </g>
          </g>
        </g>
      </g>
      <g id="Grupo_134462" data-name="Grupo 134462">
        <path id="Trazado_191719" data-name="Trazado 191719" d="M86.5,87.953a7.16,7.16,0,1,1,7.16-7.16A7.168,7.168,0,0,1,86.5,87.953Zm0-13.3a6.138,6.138,0,1,0,6.137,6.138A6.145,6.145,0,0,0,86.5,74.655Z" fill="#ffca55"/>
      </g>
    </g>
    <rect id="Rectángulo_44713" data-name="Rectángulo 44713" width="11.557" height="2.301" transform="translate(96.628 76.595)" fill="#ded4ce"/>
    <rect id="Rectángulo_44714" data-name="Rectángulo 44714" width="12.968" height="2.301" transform="translate(96.628 81.623)" fill="#ded4ce"/>
    <g id="Grupo_134464" data-name="Grupo 134464">
      <path id="Trazado_191720" data-name="Trazado 191720" d="M85.3,106.924H72.8v-.779H84.518V92.215H85.3Z" fill="#ded4ce"/>
    </g>
    <g id="Grupo_134465" data-name="Grupo 134465">
      <path id="Trazado_191721" data-name="Trazado 191721" d="M117.709,83.413h-.779V67.692H100.059v-.779h17.65Z" fill="#ffc155"/>
    </g>
  </g>
  <g id="Grupo_134471" data-name="Grupo 134471">
    <g id="Grupo_134467" data-name="Grupo 134467">
      <path id="Trazado_191722" data-name="Trazado 191722" d="M147.638,162.5H103.7V131.881h43.942Zm-43.111-.831h42.28V132.712h-42.28Z" fill="#ffc155"/>
    </g>
    <g id="Grupo_134468" data-name="Grupo 134468">
      <path id="Trazado_191723" data-name="Trazado 191723" d="M119.574,143.128a2.926,2.926,0,0,0-.55-.448,6.378,6.378,0,0,0-.84-.461,6.961,6.961,0,0,0-1.049-.377,6.12,6.12,0,0,0-1.174-.2l-.014,4.3.394.085a18.391,18.391,0,0,1,2.026.609,5.786,5.786,0,0,1,1.525.816,3.3,3.3,0,0,1,.963,1.178,3.81,3.81,0,0,1,.338,1.695,4.134,4.134,0,0,1-.4,1.881,3.67,3.67,0,0,1-1.1,1.3,4.893,4.893,0,0,1-1.625.774,7.871,7.871,0,0,1-1.986.274l-.007,2.183-1.081,0,.007-2.225a10.475,10.475,0,0,1-2.847-.6,8.932,8.932,0,0,1-2.469-1.37l1.067-1.992a3.654,3.654,0,0,0,.663.543,7.6,7.6,0,0,0,1.017.564,9.343,9.343,0,0,0,1.277.483,8.124,8.124,0,0,0,1.444.295l.014-4.3c-.083-.028-.169-.053-.259-.074s-.177-.045-.26-.073a17.7,17.7,0,0,1-1.921-.62,4.814,4.814,0,0,1-1.359-.784,3.053,3.053,0,0,1-.818-1.074,3.548,3.548,0,0,1-.276-1.487,4.392,4.392,0,0,1,.359-1.808,3.971,3.971,0,0,1,1-1.358,4.735,4.735,0,0,1,1.51-.889,7.042,7.042,0,0,1,1.9-.4l.007-2.1,1.081,0-.007,2.1a7.967,7.967,0,0,1,2.493.549,9.033,9.033,0,0,1,2.013,1.108Zm-6.863.519a1.5,1.5,0,0,0,.609,1.311,5.919,5.919,0,0,0,1.858.776l.013-4.1a3.017,3.017,0,0,0-1.873.586A1.8,1.8,0,0,0,112.711,143.647Zm5.986,6.922a1.538,1.538,0,0,0-.723-1.385,7.831,7.831,0,0,0-2.035-.849l-.014,4.117a3.8,3.8,0,0,0,2.05-.492A1.572,1.572,0,0,0,118.7,150.569Z" fill="#ffca55"/>
    </g>
    <rect id="Rectángulo_44715" data-name="Rectángulo 44715" width="17.258" height="2.456" transform="translate(126.167 140.597)" fill="#ded4ce"/>
    <rect id="Rectángulo_44716" data-name="Rectángulo 44716" width="13.564" height="2.456" transform="translate(126.167 145.962)" fill="#ded4ce"/>
    <rect id="Rectángulo_44717" data-name="Rectángulo 44717" width="15.22" height="2.456" transform="translate(126.167 151.327)" fill="#ded4ce"/>
    <g id="Grupo_134469" data-name="Grupo 134469">
      <path id="Trazado_191724" data-name="Trazado 191724" d="M143.425,196.744H128.253V164.016h.831v31.9h14.341Z" fill="#ded4ce"/>
    </g>
    <g id="Grupo_134470" data-name="Grupo 134470">
      <path id="Trazado_191725" data-name="Trazado 191725" d="M118.447,165H101.354v-16.1h.831v15.274h16.262Z" fill="#ffc155"/>
    </g>
  </g>
</svg>
