<svg id="Grupo_134472" data-name="Grupo 134472" xmlns="http://www.w3.org/2000/svg" xmlns:xlink="http://www.w3.org/1999/xlink" width="205" height="205" viewBox="0 0 205 205">
  <defs>
    <clipPath id="clip-path">
      <path id="Trazado_188103" data-name="Trazado 188103" d="M172.964,28.343a76.884,76.884,0,0,1,9.695,13.971c20.4,35.988,12.427,75.825,9.762,88.133-4.305,19.858-7.453,36.64-20.289,50.638-29.164,31.809-87.06,27.8-121.921,1.115-4.133-3.164-37.873-29.76-41.107-70.151-.078-.988-.116-1.724-.153-2.368-.356-6.242-2-44.9,23.866-75.292a90.708,90.708,0,0,1,20.291-17.63C89.487-6.306,144.251-4.107,172.964,28.343Z" fill="none"/>
    </clipPath>
  </defs>
  <path id="Trazado_188103-2" data-name="Trazado 188103" d="M172.964,28.343a76.884,76.884,0,0,1,9.695,13.971c20.4,35.988,12.427,75.825,9.762,88.133-4.305,19.858-7.453,36.64-20.289,50.638-29.164,31.809-87.06,27.8-121.921,1.115-4.133-3.164-37.873-29.76-41.107-70.151-.078-.988-.116-1.724-.153-2.368-.356-6.242-2-44.9,23.866-75.292a90.708,90.708,0,0,1,20.291-17.63C89.487-6.306,144.251-4.107,172.964,28.343Z" fill="#e5e1f1"/>
  <circle id="Elipse_5781" data-name="Elipse 5781" cx="35.848" cy="35.848" r="35.848" transform="translate(130.361 130.894)" fill="#fdb74d" opacity="0.5"/>
  <g id="Grupo_134472-2" data-name="Grupo 134472">
    <circle id="Elipse_5247" data-name="Elipse 5247" cx="24.083" cy="24.083" r="24.083" transform="translate(2.519 2.085)" fill="#5038a1" opacity="0.7" style="isolation: isolate"/>
    <g id="Elipse_5249" data-name="Elipse 5249">
      <circle id="Elipse_5782" data-name="Elipse 5782" cx="9.075" cy="9.075" r="9.075" transform="translate(18.334 24.968)" fill="none"/>
      <circle id="Elipse_5783" data-name="Elipse 5783" cx="8.028" cy="8.028" r="8.028" transform="translate(19.381 26.015)" fill="none" stroke="#fff" stroke-width="2.094"/>
    </g>
    <g id="Elipse_5250" data-name="Elipse 5250">
      <circle id="Elipse_5784" data-name="Elipse 5784" cx="4.886" cy="4.886" r="4.886" transform="translate(87.613 14.424)" fill="#fdb74d"/>
      <circle id="Elipse_5785" data-name="Elipse 5785" cx="3.839" cy="3.839" r="3.839" transform="translate(88.66 15.471)" fill="#fdb74d" stroke="#8c6df2" stroke-width="2.094"/>
    </g>
    <circle id="Elipse_5251" data-name="Elipse 5251" cx="3.141" cy="3.141" r="3.141" transform="translate(50.983 8.197)" fill="#fdb74d"/>
  </g>
  <g id="Elipse_4972" data-name="Elipse 4972">
    <circle id="Elipse_5786" data-name="Elipse 5786" cx="33.104" cy="33.104" r="33.104" transform="translate(133.104 133.638)" fill="none"/>
    <circle id="Elipse_5787" data-name="Elipse 5787" cx="31.338" cy="31.338" r="31.338" transform="translate(134.87 135.403)" fill="none" stroke="#fff" stroke-linecap="round" stroke-width="3.531" stroke-dasharray="2.648 7.062"/>
  </g>
  <g id="Grupo_134493" data-name="Grupo 134493">
    <g id="Grupo_134492" data-name="Grupo 134492" clip-path="url(#clip-path)">
      <g id="Grupo_134491" data-name="Grupo 134491">
        <path id="Trazado_191726" data-name="Trazado 191726" d="M161.868,174.81l6.65-.737-6.65-59.966V24.97h-9.885l-.286-2.577L128.459,24.97H45.946V34.12l-9.465,1.05,9.465,85.344v57.065h6.329l1.028,9.27,83.593-9.27h24.973Z" opacity="0.36"/>
        <path id="Trazado_191727" data-name="Trazado 191727" d="M147.989,96.51l.879,3.55-6.874,1.773.524,2.03-3.4,1.043a5.863,5.863,0,0,1-4.822-.63L118.53,94.442a8.291,8.291,0,0,0-7.114-.8l-8.581,2.987-6.009-1.288a6.6,6.6,0,0,0-5.3,1.144L77.706,106.7a3.778,3.778,0,0,1-3.523.516l-5.477-1.969.454-1.761-6.874-1.773.88-3.55L7.052,84.259v41.8L53.4,137.537l.11-.446.01,0,1.288-5.2,6.585,1.7.961-3.725,12.912,5.323-.007.007.6.246.006-.007.017.007h0l0,0,5.754-5.934-5.9,6.135c-3.241,3.371-.46,9.077,4.169,8.409a9.566,9.566,0,0,0,2.629-.82s.852,7.1,8.329,6.544c0,0,1.018,7.186,9.3,5.428h0a3.235,3.235,0,0,0,.247.37l.06.077a5.6,5.6,0,0,0,4.636,2.106h.012a7.8,7.8,0,0,0,1.125-.109l.109-.019a13.08,13.08,0,0,0,4.332-1.747l1.566,1.576a5.175,5.175,0,0,0,7.389.252l.072-.074a5.383,5.383,0,0,0-.323-7.506l.392.394a4.815,4.815,0,0,0,6.889-.035l.856-.879a4.992,4.992,0,0,0,1.343-4.254,5.459,5.459,0,0,0,4.4-1.643l.079-.081a5.689,5.689,0,0,0,.952-6.586,4.81,4.81,0,0,0,4.491-1.352,4.98,4.98,0,0,0,1.389-3.867l8.844-2.763.743,2.88,6.585-1.7,1.288,5.2.01,0,.11.446,40.195-9.957v-41.8Z" opacity="0.36"/>
        <rect id="Rectángulo_44718" data-name="Rectángulo 44718" width="115.922" height="152.61" transform="translate(36.083 30.928) rotate(-6.328)" fill="#ede2d9"/>
        <path id="Trazado_191728" data-name="Trazado 191728" d="M89.8,24.955,45.54,29.864v86.394l6.8,61.307h45.9l63.225-7.012v-60.7l-9.415-84.894Z" fill="#b7ac9a" opacity="0.66"/>
        <rect id="Rectángulo_44719" data-name="Rectángulo 44719" width="115.922" height="152.61" transform="translate(45.548 20.727)" fill="#fff"/>
        <line id="Línea_238" data-name="Línea 238" x2="76.283" transform="translate(65.304 60.461)" fill="none" stroke="#b9c9bc" stroke-miterlimit="10" stroke-width="1.485"/>
        <line id="Línea_239" data-name="Línea 239" x2="89.01" transform="translate(58.941 73.188)" fill="none" stroke="#b9c9bc" stroke-miterlimit="10" stroke-width="1.485"/>
        <line id="Línea_240" data-name="Línea 240" x2="89.01" transform="translate(58.941 66.825)" fill="none" stroke="#b9c9bc" stroke-miterlimit="10" stroke-width="1.485"/>
        <line id="Línea_241" data-name="Línea 241" x2="89.01" transform="translate(58.941 85.255)" fill="none" stroke="#b9c9bc" stroke-miterlimit="10" stroke-width="1.485"/>
        <line id="Línea_242" data-name="Línea 242" x2="89.01" transform="translate(58.941 78.892)" fill="none" stroke="#b9c9bc" stroke-miterlimit="10" stroke-width="1.485"/>
        <line id="Línea_243" data-name="Línea 243" x2="21.135" transform="translate(126.577 153.789)" fill="none" stroke="#b9c9bc" stroke-miterlimit="10" stroke-width="1.485"/>
        <line id="Línea_244" data-name="Línea 244" x2="21.135" transform="translate(126.577 147.425)" fill="none" stroke="#b9c9bc" stroke-miterlimit="10" stroke-width="1.485"/>
        <g id="Grupo_134473" data-name="Grupo 134473">
          <path id="Trazado_191729" data-name="Trazado 191729" d="M89.2,152.457a15.7,15.7,0,1,1-9.837-19.9A15.714,15.714,0,0,1,89.2,152.457Zm-29.1-9.846A15.021,15.021,0,1,0,79.147,133.2,15.037,15.037,0,0,0,60.1,142.611Z" fill="#4893c1"/>
        </g>
        <g id="Grupo_134474" data-name="Grupo 134474">
          <path id="Trazado_191730" data-name="Trazado 191730" d="M87.193,151.777a13.5,13.5,0,0,1-4.63,6.447l-.443-.582a12.851,12.851,0,0,0,4.518-13.9l.7-.211A13.482,13.482,0,0,1,87.193,151.777Z" fill="#4893c1"/>
        </g>
        <g id="Grupo_134475" data-name="Grupo 134475">
          <path id="Trazado_191731" data-name="Trazado 191731" d="M62.027,151.114l-.7.211a13.583,13.583,0,0,1,4.775-14.7l.442.583a12.852,12.852,0,0,0-4.517,13.9Z" fill="#4893c1"/>
        </g>
        <g id="Grupo_134476" data-name="Grupo 134476">
          <path id="Trazado_191732" data-name="Trazado 191732" d="M85.258,150.983a11.313,11.313,0,1,1-7.091-14.343A11.326,11.326,0,0,1,85.258,150.983Zm-20.741-7.018a10.582,10.582,0,1,0,13.416-6.632A10.595,10.595,0,0,0,64.517,143.965Z" fill="#4893c1"/>
        </g>
        <line id="Línea_245" data-name="Línea 245" x2="89.01" transform="translate(59.004 90.887)" fill="none" stroke="#b9c9bc" stroke-miterlimit="10" stroke-width="1.485"/>
        <line id="Línea_246" data-name="Línea 246" x2="89.01" transform="translate(59.004 102.954)" fill="none" stroke="#b9c9bc" stroke-miterlimit="10" stroke-width="1.485"/>
        <line id="Línea_247" data-name="Línea 247" x2="89.01" transform="translate(59.004 96.591)" fill="none" stroke="#b9c9bc" stroke-miterlimit="10" stroke-width="1.485"/>
        <circle id="Elipse_5788" data-name="Elipse 5788" cx="8.845" cy="8.845" r="8.845" transform="translate(65.487 138.58)" fill="#4893c1"/>
        <g id="Grupo_134477" data-name="Grupo 134477">
          <path id="Trazado_191733" data-name="Trazado 191733" d="M151.839,148.965a24.182,24.182,0,0,1-5.951,3.944,6.821,6.821,0,0,1-1.562.5c-.771.125-1.28.027-1.607-.727-.352-.813.008-1.618-.1-2.494-.016-.126-.077-.35-.237-.36-.639-.044-1.236.648-1.692,1.045-.345.3-.669.617-.98.945a4.208,4.208,0,0,0-.1-2.668c-.039-.084-.137-.187-.239-.126a16.807,16.807,0,0,0-3.58,3.418c-.256.287-.506.579-.754.871a1.568,1.568,0,0,0-.06-.286,4.009,4.009,0,0,0,.768-.8,3.158,3.158,0,0,0,.433-2.987c-.7-1.358-2.177-.471-2.979.3-.222.214-.075,1.159.247.847.3-.293,1.188-1.122,1.7-.9q.337.594.676,1.186c-.069.169-.139.337-.208.506a2.907,2.907,0,0,1-.737.869,3.964,3.964,0,0,1-.785.513,2.056,2.056,0,0,0-.3.087.193.193,0,0,0-.059.04.962.962,0,0,1-.262.029c-.912-.049-.658-1.378-.428-2.053.051-.15-.08-1.032-.336-.671a11.16,11.16,0,0,1-.96,1.278c-.448.477-1.246,1.417-1.924,1.569-.289.064-.645.068-.73-.4a2.369,2.369,0,0,1,.234-.668,12.935,12.935,0,0,0,.674-1.8c.046-.194.083-.7-.212-.739a6.937,6.937,0,0,0-2.5.7c-.6.19-1.18.4-1.755.63.022-.246.036-.491.04-.732.035-1.969-.534-4.224.125-6.128a3.039,3.039,0,0,1,2.164-1.883c.518-.167,2.1-.59,2.776-.166.035.163.113.285.228.265l.1-.016c.354-.061.266-.713.124-.915-.55-.787-2.216-.421-2.947-.231a3.791,3.791,0,0,0-2.605,1.8c-1.271,2.52-.235,5.492-.528,8.22-.224.1-.447.2-.668.312a20.461,20.461,0,0,0-4.7,3.112c-.8.733-1.741,1.918-1.4,3.105.361,1.248,1.707.951,2.636.581,2.524-1.006,4.013-3.636,4.51-6.27.592-.251,1.193-.473,1.811-.672a16.877,16.877,0,0,1,2.1-.711c-.487,1.127-1.3,2.783-.552,3.586.81.866,2.374-.689,3.378-1.9a1.574,1.574,0,0,0,.5,1.621,1.532,1.532,0,0,0,1.554-.008c.226-.009.331.143.356.391q-1.12,1.365-2.14,2.808A19.386,19.386,0,0,0,130,160.811c-.216.558-.648,1.517-.324,2.106.808,1.472,4.078-4.673,4.372-5.363a16.45,16.45,0,0,0,.913-3.011c.444-.533.9-1.06,1.364-1.574a30.073,30.073,0,0,1,2.421-2.461c.909-.791.571.482.413,1.081a6.541,6.541,0,0,1-.72,1.815c-.164.252.023,1.19.247.848a11.549,11.549,0,0,1,1.633-1.965c.4-.39,1.173-1.312,1.844-1.458-.024.862-.415,1.727-.029,2.573a2.064,2.064,0,0,0,2.541.918c2.8-.645,5.277-2.7,7.416-4.507C152.322,149.614,152.187,148.67,151.839,148.965Zm-27.081,3.05a7.881,7.881,0,0,1-3.057,4.423,3.933,3.933,0,0,1-2.231.808c-1.555-.205-.03-1.8.407-2.2a20.075,20.075,0,0,1,4.584-3.013c.111-.055.222-.1.334-.157C124.782,151.925,124.771,151.97,124.758,152.015Zm8.853,5.041a19.682,19.682,0,0,1-1.853,3.292,11.552,11.552,0,0,1-1.231,1.548c-.392.4-.481.537-.311-.024a12.482,12.482,0,0,1,1.68-3.228q1.1-1.653,2.339-3.209C134,156.153,133.7,156.848,133.611,157.056Z" fill="#001d4f"/>
          <path id="Trazado_191734" data-name="Trazado 191734" d="M129.8,146.889a1.285,1.285,0,0,0,.365,1.6c.279.262.407-.543.212-.727a1.517,1.517,0,0,1-.291-.3c.025.009.077-.07.092-.078a2.258,2.258,0,0,0,.249-.223,2.4,2.4,0,0,1,.868-.5c.3-.068.253-.9,0-.841A2.553,2.553,0,0,0,129.8,146.889Z" fill="#001d4f"/>
        </g>
        <path id="Trazado_191735" data-name="Trazado 191735" d="M161.47,93.589l-13.481,3.34.879,3.55-6.874,1.773.524,2.03-3.4,1.043a5.863,5.863,0,0,1-4.822-.63L118.53,94.861a8.291,8.291,0,0,0-7.114-.8l-8.581,2.987-6.009-1.288a6.6,6.6,0,0,0-5.3,1.145L77.706,107.115a3.778,3.778,0,0,1-3.523.516l-5.477-1.969.454-1.761-6.874-1.773.88-3.55L45.548,94.214v41.8l7.853,1.946.11-.446.01,0,1.288-5.2,6.585,1.7.961-3.725,12.912,5.323-.007.007.6.246.006-.007.017.007,0,0,5.754-5.934-5.9,6.135c-3.241,3.371-.46,9.077,4.169,8.409a9.566,9.566,0,0,0,2.629-.82s.852,7.1,8.329,6.544c0,0,1.018,7.186,9.3,5.428h0a3.235,3.235,0,0,0,.247.37l.06.077a5.6,5.6,0,0,0,4.636,2.106h.012a7.806,7.806,0,0,0,1.125-.109l.109-.019a13.08,13.08,0,0,0,4.332-1.747l1.566,1.576a5.175,5.175,0,0,0,7.389.252l.072-.074a5.383,5.383,0,0,0-.323-7.506l.392.394a4.816,4.816,0,0,0,6.889-.034l.856-.88a4.992,4.992,0,0,0,1.343-4.254,5.459,5.459,0,0,0,4.4-1.643l.079-.081a5.689,5.689,0,0,0,.952-6.586,4.81,4.81,0,0,0,4.491-1.352,4.98,4.98,0,0,0,1.389-3.867l8.844-2.763.743,2.88,6.585-1.7,1.288,5.2.01,0,.11.446,6.427-2.011Z" fill="#6d645b" opacity="0.4"/>
        <path id="Trazado_191736" data-name="Trazado 191736" d="M101.695,103.422l-27.33,28.425c-3.241,3.371-.46,9.077,4.168,8.409a9.548,9.548,0,0,0,2.63-.82s.852,7.1,8.329,6.544c0,0,1.018,7.187,9.3,5.428,0,0,4.017,7.427,15.37-3.048,5.6-5.169,24.133-20.169,24.133-20.169Z" fill="#e67e4b"/>
        <path id="Trazado_191737" data-name="Trazado 191737" d="M180.06,86.975,139.119,99.539a5.859,5.859,0,0,1-4.822-.631L118.53,89.074a8.294,8.294,0,0,0-7.114-.795L93.8,94.411l9.27,7.437-27.33,28.425c-3.241,3.371-.46,9.077,4.169,8.409a9.538,9.538,0,0,0,2.629-.821s.852,7.105,8.329,6.545c0,0,1.018,7.186,9.3,5.428,0,0,4.017,7.427,15.371-3.049,5.6-5.168,24.132-20.168,24.132-20.168l47.561-14.86Z" fill="#ffa97d"/>
        <path id="Trazado_191738" data-name="Trazado 191738" d="M124.215,112.364c3.752-1.748,3.114-4.98,1.592-6.163l-11.454-9.12a10.175,10.175,0,0,0-4.2-1.989l-11.433-2.45-4.636,1.614,9.27,7.437-7.519,7.82a33.644,33.644,0,0,0,11.215-2.589S116.15,116.122,124.215,112.364Z" fill="#ea8f68"/>
        <path id="Trazado_191739" data-name="Trazado 191739" d="M127.77,104.362l-11.455-9.12a10.163,10.163,0,0,0-4.205-1.989L96.826,89.978a6.6,6.6,0,0,0-5.3,1.144L77.706,101.328a3.778,3.778,0,0,1-3.523.517L53.391,94.369l-2.04,25.591,24.528,10.114L97.59,107.683a33.964,33.964,0,0,0,11.418-2.6s9.1,9.2,17.169,5.441C129.929,108.777,129.291,105.544,127.77,104.362Z" fill="#ffc692"/>
        <path id="Trazado_191740" data-name="Trazado 191740" d="M123.819,110.177c-6.465.065-14.142-7.686-14.329-7.731,0,0-5.582,5.271-15.72,2.846,0,0-1.647,5.977-11.075,16.736a6.353,6.353,0,0,1-7.1,1.716c-.937-.369-1.988-.75-3.111-1.143a6.5,6.5,0,0,1-4.346-6.358l.572-16.368c-7.225-2.51-16.938,15.187-16.7,11.812l-.659,8.273,23.916,9.861-.007.007.6.246.006-.007.017.007,3.956-4.1,17.732-18.287a33.956,33.956,0,0,0,11.417-2.6c-.041-.011,8.993,9.167,17.17,5.441a4.618,4.618,0,0,0,2.568-2.421C128.221,109.059,126.5,110.15,123.819,110.177Z" fill="#de7540"/>
        <path id="Trazado_191741" data-name="Trazado 191741" d="M107.535,149.834c-6.894-6.709-5.391-10.912-5.391-10.912l36.507-17.286.05-.011a6.029,6.029,0,0,0,4.718-6.208l-.9-16.921,44.467,12.438.238.823-47.561,14.86s-18.531,15-24.132,20.168c-11.354,10.476-15.371,3.049-15.371,3.049S103.323,153.226,107.535,149.834Z" fill="#e67e4b"/>
        <g id="Grupo_134478" data-name="Grupo 134478">
          <path id="Trazado_191742" data-name="Trazado 191742" d="M82.273,139.3,99.6,123.072c.5-.468-.252-1.217-.75-.75L81.523,138.547c-.5.468.251,1.217.75.75Z" fill="#e67e4b"/>
        </g>
        <g id="Grupo_134479" data-name="Grupo 134479">
          <path id="Trazado_191743" data-name="Trazado 191743" d="M90.6,145.841,107.273,129.7c.493-.477-.258-1.226-.749-.75L89.852,145.091c-.492.477.259,1.226.75.75Z" fill="#e67e4b"/>
        </g>
        <g id="Grupo_134480" data-name="Grupo 134480">
          <path id="Trazado_191744" data-name="Trazado 191744" d="M99.9,151.269l14.751-14.253c.493-.476-.258-1.225-.75-.75L99.148,150.519c-.493.476.258,1.225.75.75Z" fill="#e67e4b"/>
        </g>
        <path id="Trazado_191745" data-name="Trazado 191745" d="M103.475,136.083l.072-.073a5.174,5.174,0,0,1,7.388.251l-.393-.4a5.01,5.01,0,0,1-.038-7l.857-.88a4.807,4.807,0,0,1,4.171-1.409,5.655,5.655,0,0,1,1.57-4.488l.079-.08a5.46,5.46,0,0,1,7.813-.04L126.026,123a4.99,4.99,0,0,1,1.359-4.147,4.815,4.815,0,0,1,6.888-.034l4.473,4.5a5.01,5.01,0,0,1,.038,7,4.807,4.807,0,0,1-4.491,1.351,5.69,5.69,0,0,1-.952,6.587l-.079.081a5.463,5.463,0,0,1-4.4,1.643,4.99,4.99,0,0,1-1.343,4.253l-.856.88a4.816,4.816,0,0,1-6.889.035l-4.617-4.645,4.223,4.249a5.383,5.383,0,0,1,.325,7.508l-.072.073a5.175,5.175,0,0,1-7.389-.251l-8.446-8.5A5.384,5.384,0,0,1,103.475,136.083Z" fill="#de7540"/>
        <path id="Trazado_191746" data-name="Trazado 191746" d="M189.747,116.26,149.76,126.574l-7.766-30.108,50.972-13.147Z" fill="#fff"/>
        <rect id="Rectángulo_44720" data-name="Rectángulo 44720" width="31.094" height="52.641" transform="translate(10.422 115.076) rotate(-75.537)" fill="#fff"/>
        <g id="Grupo_134481" data-name="Grupo 134481">
          <path id="Trazado_191747" data-name="Trazado 191747" d="M120.151,144.567l-9.234-9.289a.531.531,0,0,0-.75.75l9.234,9.289a.531.531,0,0,0,.75-.75Z" fill="#de7540"/>
        </g>
        <path id="Trazado_191748" data-name="Trazado 191748" d="M21.379,117.946,61.366,128.26l.941-31.881-50.3,11.958Z" fill="#869e9a" opacity="0.4"/>
        <path id="Trazado_191749" data-name="Trazado 191749" d="M7.052,78.892v41.323l46.469,11.511,9.645-38.934Z" fill="#4f455e"/>
        <path id="Trazado_191750" data-name="Trazado 191750" d="M189.8,116.26l-39.988,10.314-.941-31.881,34.753,8.262Z" fill="#869e9a" opacity="0.4"/>
        <path id="Trazado_191751" data-name="Trazado 191751" d="M7.052,111.947v8.741L53.4,132.169l2.04-8.235Z" fill="#302c3d"/>
        <path id="Trazado_191752" data-name="Trazado 191752" d="M197.948,78.767l-49.96,12.376,9.645,38.934,40.315-9.987Z" fill="#546982"/>
        <path id="Trazado_191753" data-name="Trazado 191753" d="M197.948,111.822l-42.235,10.462,2.04,8.235,40.195-9.957Z" fill="#384559"/>
        <g id="Grupo_134482" data-name="Grupo 134482">
          <path id="Trazado_191754" data-name="Trazado 191754" d="M103.736,142.4l7.7,7.473a4.772,4.772,0,1,0,6.749-6.749l-7.7-7.473a4.772,4.772,0,0,0-6.749,6.749Z" fill="#ffc692"/>
        </g>
        <g id="Grupo_134483" data-name="Grupo 134483">
          <path id="Trazado_191755" data-name="Trazado 191755" d="M110.377,134.457l7.953,7.2a4.7,4.7,0,0,0,6.525,0c1.621-1.767,1.91-4.795,0-6.525l-7.953-7.2a4.694,4.694,0,0,0-6.525,0c-1.621,1.767-1.91,4.794,0,6.525Z" fill="#ffc692"/>
        </g>
        <g id="Grupo_134484" data-name="Grupo 134484">
          <path id="Trazado_191756" data-name="Trazado 191756" d="M117.984,127.829l7.953,7.2c1.851,1.676,4.947,1.964,6.75,0,1.677-1.827,1.976-4.959,0-6.749l-7.953-7.2c-1.851-1.676-4.947-1.964-6.75,0-1.677,1.827-1.976,4.959,0,6.749Z" fill="#ffc692"/>
        </g>
        <g id="Grupo_134485" data-name="Grupo 134485">
          <path id="Trazado_191757" data-name="Trazado 191757" d="M128.322,122.857l5.849,5.263a3.5,3.5,0,1,0,4.95-4.95l-5.849-5.262a3.5,3.5,0,0,0-4.95,4.949Z" fill="#ffc692"/>
        </g>
        <g id="Grupo_134486" data-name="Grupo 134486">
          <path id="Trazado_191758" data-name="Trazado 191758" d="M71.6,152.751a6.349,6.349,0,0,1-2.77-2.866c-.427-.866-1.721-.107-1.3.757a7.713,7.713,0,0,0,3.309,3.4c.852.453,1.611-.842.757-1.3Z" fill="#fff"/>
        </g>
        <g id="Grupo_134487" data-name="Grupo 134487">
          <path id="Trazado_191759" data-name="Trazado 191759" d="M76.227,153.088a6.513,6.513,0,0,1-1.909.306.751.751,0,0,0,0,1.5,7.992,7.992,0,0,0,2.308-.361c.918-.288.526-1.737-.4-1.446Z" fill="#fff"/>
        </g>
        <g id="Grupo_134488" data-name="Grupo 134488">
          <path id="Trazado_191760" data-name="Trazado 191760" d="M77.448,142.193a6.145,6.145,0,0,1,2.8,6.333c-.169.944,1.276,1.349,1.446.4a7.7,7.7,0,0,0-3.486-8.026c-.817-.519-1.571.778-.757,1.295Z" fill="#fff"/>
        </g>
        <g id="Grupo_134489" data-name="Grupo 134489">
          <path id="Trazado_191761" data-name="Trazado 191761" d="M71.886,141.823a6.578,6.578,0,0,1,2.432-.5.75.75,0,0,0,0-1.5,7.756,7.756,0,0,0-2.831.556.775.775,0,0,0-.524.923.755.755,0,0,0,.923.524Z" fill="#fff"/>
        </g>
        <g id="Grupo_134490" data-name="Grupo 134490">
          <path id="Trazado_191762" data-name="Trazado 191762" d="M68.309,146.736a6.356,6.356,0,0,1,1.3-3.172c.581-.771-.721-1.519-1.3-.757a7.789,7.789,0,0,0-1.507,3.929c-.1.958,1.4.951,1.5,0Z" fill="#fff"/>
        </g>
        <text id="CONTRATO_PROVEEDOR" data-name="CONTRATO
PROVEEDOR" transform="translate(103.509 37.74)" fill="#90a5af" font-size="12.681" font-family="SegoeUI, Segoe UI"><tspan x="-31.836" y="0">CONTRATO</tspan><tspan x="-35.278" y="11.815">PROVEEDOR</tspan></text>
      </g>
    </g>
  </g>
  <rect id="Rectángulo_44721" data-name="Rectángulo 44721" width="205" height="205" fill="none"/>
</svg>
