<svg id="Grupo_134797" data-name="Grupo 134797" xmlns="http://www.w3.org/2000/svg" xmlns:xlink="http://www.w3.org/1999/xlink" width="190.067" height="190.067" viewBox="0 0 190.067 190.067">
  <defs>
    <clipPath id="clip-path">
      <rect id="Rectángulo_44759" data-name="Rectángulo 44759" width="190.067" height="190.067" fill="none"/>
    </clipPath>
    <linearGradient id="linear-gradient" x1="-3.699" y1="0.5" x2="2.519" y2="0.5" gradientUnits="objectBoundingBox">
      <stop offset="0" stop-color="#4042e2"/>
      <stop offset="1" stop-color="#4f52ff"/>
    </linearGradient>
    <linearGradient id="linear-gradient-2" x1="0.696" y1="-0.843" x2="0.19" y2="2.39" gradientUnits="objectBoundingBox">
      <stop offset="0" stop-color="#ff928e"/>
      <stop offset="1" stop-color="#feb3b1"/>
    </linearGradient>
    <linearGradient id="linear-gradient-3" x1="0.738" y1="0.307" x2="-0.346" y2="1.236" xlink:href="#linear-gradient"/>
    <linearGradient id="linear-gradient-4" x1="0.632" y1="-0.223" x2="0.117" y2="2.539" xlink:href="#linear-gradient-2"/>
    <linearGradient id="linear-gradient-5" x1="-0.031" y1="0.783" x2="1.626" y2="-0.04" gradientUnits="objectBoundingBox">
      <stop offset="0" stop-color="#fe7062"/>
      <stop offset="1" stop-color="#ff928e"/>
    </linearGradient>
    <linearGradient id="linear-gradient-6" x1="0.46" y1="0.257" x2="0.52" y2="1.183" xlink:href="#linear-gradient-2"/>
    <linearGradient id="linear-gradient-7" x1="-0.28" y1="0.835" x2="0.663" y2="0.5" xlink:href="#linear-gradient-2"/>
    <linearGradient id="linear-gradient-8" x1="2.188" y1="-2.827" x2="0.683" y2="0.209" xlink:href="#linear-gradient-2"/>
    <linearGradient id="linear-gradient-9" y1="0.5" x2="1" y2="0.5" gradientUnits="objectBoundingBox">
      <stop offset="0" stop-color="#e1473d"/>
      <stop offset="1" stop-color="#e9605a"/>
    </linearGradient>
    <linearGradient id="linear-gradient-10" x1="0" y1="0.5" x2="1" y2="0.5" xlink:href="#linear-gradient-2"/>
    <linearGradient id="linear-gradient-11" x1="-23.793" y1="53.835" x2="-22.92" y2="53.835" xlink:href="#linear-gradient-2"/>
    <linearGradient id="linear-gradient-12" x1="-0.076" y1="1.031" x2="0.732" y2="0.196" gradientUnits="objectBoundingBox">
      <stop offset="0" stop-color="#2b3582"/>
      <stop offset="1" stop-color="#150e42"/>
    </linearGradient>
    <linearGradient id="linear-gradient-13" x1="3.289" y1="0.263" x2="-0.028" y2="0.545" gradientUnits="objectBoundingBox">
      <stop offset="0" stop-color="#09005d"/>
      <stop offset="1" stop-color="#1a0f91"/>
    </linearGradient>
    <clipPath id="clip-path-2">
      <path id="Trazado_192211" data-name="Trazado 192211" d="M178.25,80.007c-.535-.544-1.7-2.643-2.7-8.07a110.816,110.816,0,0,1-1.5-19.155,110.82,110.82,0,0,1,1.5-19.156c1-5.427,2.165-7.526,2.7-8.07.535.544,1.7,2.643,2.7,8.07.966,5.245,8.585,12.048,8.585,19.156s-7.619,13.91-8.585,19.155C179.95,77.364,178.785,79.463,178.25,80.007Z" fill="none"/>
    </clipPath>
    <linearGradient id="linear-gradient-14" x1="1.291" y1="0.458" x2="-1.117" y2="0.593" xlink:href="#linear-gradient-12"/>
    <linearGradient id="linear-gradient-15" x1="0.525" y1="0.934" x2="0.436" y2="-0.664" xlink:href="#linear-gradient-12"/>
    <linearGradient id="linear-gradient-16" y1="0.5" x2="1" y2="0.5" gradientUnits="objectBoundingBox">
      <stop offset="0" stop-color="#dae3fe"/>
      <stop offset="1" stop-color="#e9effd"/>
    </linearGradient>
    <linearGradient id="linear-gradient-17" x1="0" y1="0.5" x2="1" y2="0.5" xlink:href="#linear-gradient-16"/>
    <linearGradient id="linear-gradient-19" x1="0" y1="0.5" x2="1" y2="0.5" xlink:href="#linear-gradient-16"/>
    <linearGradient id="linear-gradient-20" x1="0" y1="0.5" x2="1" y2="0.5" xlink:href="#linear-gradient-16"/>
    <linearGradient id="linear-gradient-23" x1="0" y1="0.5" x2="1" y2="0.5" xlink:href="#linear-gradient-16"/>
  </defs>
  <g id="Grupo_134803" data-name="Grupo 134803" clip-path="url(#clip-path)">
    <path id="Trazado_188103" data-name="Trazado 188103" d="M161.45,29.606a68.591,68.591,0,0,1,9.2,12.375c19.38,31.865,11.947,67.058,9.458,77.932-4.02,17.542-6.954,32.369-19.057,44.71-27.5,28.043-82.258,24.347-115.294.672-3.916-2.807-35.891-26.4-39.053-62.116-.077-.874-.115-1.525-.152-2.1-.352-5.518-2-39.7,22.376-66.494A83.676,83.676,0,0,1,48.076,19.057C82.419-1.238,134.213.847,161.45,29.606Z" fill="#e5e1f1"/>
    <path id="Trazado_139920" data-name="Trazado 139920" d="M5.521,13.313a2.725,2.725,0,0,0-.306-.074,2.01,2.01,0,0,0-2.432,2.288,3.691,3.691,0,0,0,2.83,3.243A69.084,69.084,0,0,1,20.7,23.492a82.024,82.024,0,0,1,14.449,8.164l.864.605.848.632c.567.418,1.123.853,1.677,1.291q1.668,1.3,3.254,2.712c.534.462,1.046.951,1.568,1.424s1.019.977,1.528,1.462c.491.507.993,1,1.471,1.517s.963,1.025,1.42,1.555.924,1.048,1.363,1.589c.22.269.445.534.659.806l.637.819c.434.539.819,1.1,1.229,1.653.39.559.779,1.118,1.15,1.681s.736,1.129,1.066,1.7c.167.286.342.569.5.856l.472.86c.078.145.16.284.235.432l.222.448.441.892c.273.6.558,1.2.811,1.809a64.01,64.01,0,0,1,4.2,15.023c.841,5.147,1.261,10.391,1.689,15.837.217,2.724.419,5.5.692,8.353.128,1.424.292,2.875.464,4.34.1.739.182,1.473.29,2.223l.314,2.184c.813,5.589,1.726,11.362,3.032,17.34a123.836,123.836,0,0,0,5.524,18.639,87.74,87.74,0,0,0,4.539,9.834,75.907,75.907,0,0,0,6.359,9.887c1.232,1.617,2.555,3.206,3.957,4.745.7.772,1.425,1.525,2.164,2.271.371.37.729.729,1.125,1.1s.79.745,1.193,1.105a61.754,61.754,0,0,0,10.3,7.539c.9.525,1.816,1.031,2.739,1.5.486.252.859.431,1.271.64l1.218.6c.814.4,1.643.772,2.477,1.138s1.68.7,2.525,1.051a64.886,64.886,0,0,0,10.478,3.164,54.717,54.717,0,0,0,10.695,1.207,50.474,50.474,0,0,0,28.048-8.023,64.431,64.431,0,0,0,13.579-11.6,77.7,77.7,0,0,0,5.518-6.924c.86-1.221,1.692-2.476,2.5-3.795.4-.662.809-1.336,1.212-2.052.2-.358.4-.723.61-1.119l.318-.622.17-.354.1-.217.138-.327c3.989-10.981-2.222-25.667-13.869-32.8s-24.325-4.009-28.314,6.972l.057-.111c.015-.026.014-.01.014-.01l.006.009c.009.006,0,.048,0,.074a2.21,2.21,0,0,1-.027.228c-.023.169-.066.367-.107.563-.086.4-.19.826-.308,1.253-.238.861-.512,1.744-.813,2.618a46.31,46.31,0,0,1-2.1,5.115,39.393,39.393,0,0,1-5.578,8.709,24.633,24.633,0,0,1-7.041,5.75,18.035,18.035,0,0,1-4.046,1.578,19.846,19.846,0,0,1-4.516.633,25.393,25.393,0,0,1-5.076-.367c-.45-.092-.9-.163-1.358-.262s-.922-.2-1.391-.328l-1.362-.367c-.357-.087-.718-.2-1.077-.307a19.977,19.977,0,0,1-4.213-1.94c-.172-.1-.34-.209-.509-.316l-.542-.368c-.363-.253-.726-.514-1.084-.794-.718-.556-1.433-1.163-2.142-1.828a46.344,46.344,0,0,1-8.048-10.51q-.935-1.587-1.8-3.277T89.1,127.549c-1.086-2.36-2.108-4.815-3.075-7.335-1.938-5.043-3.648-10.329-5.331-15.783l-.6-1.957c-.195-.632-.376-1.276-.566-1.919-.364-1.295-.724-2.6-1.066-3.936-.691-2.659-1.346-5.393-2-8.175-1.318-5.564-2.679-11.354-4.577-17.261a84.569,84.569,0,0,0-7.747-17.637c-.417-.711-.87-1.411-1.308-2.111-.466-.693-.909-1.377-1.4-2.069l-.723-1.034c-.245-.339-.5-.671-.748-1.005-.492-.674-1.021-1.314-1.537-1.959a72.165,72.165,0,0,0-6.679-7.055A96.7,96.7,0,0,0,37.023,27.206a120.914,120.914,0,0,0-15.554-8.1,149.424,149.424,0,0,0-15.932-5.79Z" fill="#fdb74d"/>
    <circle id="Elipse_5806" data-name="Elipse 5806" cx="31.22" cy="31.22" r="31.22" transform="translate(121.83 5.747)" fill="#fdb74d" opacity="0.5"/>
    <g id="Grupo_134797-2" data-name="Grupo 134797">
      <circle id="Elipse_5247" data-name="Elipse 5247" cx="14.58" cy="14.58" r="14.58" transform="translate(156.125 157.344)" fill="#5038a1" opacity="0.7" style="isolation: isolate"/>
      <g id="Elipse_5249" data-name="Elipse 5249">
        <circle id="Elipse_5807" data-name="Elipse 5807" cx="5.494" cy="5.494" r="5.494" transform="translate(167.013 161.989)" fill="none"/>
        <circle id="Elipse_5808" data-name="Elipse 5808" cx="4.86" cy="4.86" r="4.86" transform="translate(167.647 162.623)" fill="none" stroke="#fff" stroke-width="1.268"/>
      </g>
      <g id="Elipse_5250" data-name="Elipse 5250">
        <circle id="Elipse_5809" data-name="Elipse 5809" cx="2.958" cy="2.958" r="2.958" transform="translate(130.556 153.947)" fill="#fdb74d"/>
        <circle id="Elipse_5810" data-name="Elipse 5810" cx="2.324" cy="2.324" r="2.324" transform="translate(131.19 154.581)" fill="#fdb74d" stroke="#8c6df2" stroke-width="1.268"/>
      </g>
      <circle id="Elipse_5251" data-name="Elipse 5251" cx="1.902" cy="1.902" r="1.902" transform="translate(149.878 170.149)" fill="#fdb74d"/>
    </g>
    <g id="Elipse_4972" data-name="Elipse 4972">
      <circle id="Elipse_5811" data-name="Elipse 5811" cx="28.83" cy="28.83" r="28.83" transform="translate(124.219 8.137)" fill="none"/>
      <circle id="Elipse_5812" data-name="Elipse 5812" cx="27.293" cy="27.293" r="27.293" transform="translate(125.757 9.675)" fill="none" stroke="#fff" stroke-linecap="round" stroke-width="3.075" stroke-dasharray="2.306 6.15"/>
    </g>
    <g id="Grupo_134802" data-name="Grupo 134802">
      <path id="Trazado_192191" data-name="Trazado 192191" d="M79.3,99.644s32.858,40.018,44.945,30.375S103.7,67.812,103.7,67.812Z" fill="#5038a1"/>
      <path id="Trazado_192192" data-name="Trazado 192192" d="M80.645,359.48a2.245,2.245,0,0,0-.06-.6c-2.967-11.765-17.7-19.093-17.7-19.093l-5.836.458c-3.356,10.369-2.924,16.728-2.386,19.561.015.079.04.155.061.232A138.514,138.514,0,0,0,80.645,359.48Z" fill="url(#linear-gradient)"/>
      <path id="Trazado_192193" data-name="Trazado 192193" d="M54.706,331.557l2.472,11.9a1.945,1.945,0,0,0,1.663,1.6A16.446,16.446,0,0,0,62.67,345a2.444,2.444,0,0,0,1.937-2.874l-1.718-10.565Z" fill="url(#linear-gradient-2)"/>
      <path id="Trazado_192194" data-name="Trazado 192194" d="M132.345,358.961a1.668,1.668,0,0,0-.141-.267c-3.125-4.367-11.086-13.063-26.816-16.835l-7.546-.238s-3.36,5.84-3.424,16.658c1.724.705,5.058,1.464,11.5,1.644C115.886,360.2,127.7,359.344,132.345,358.961Z" fill="url(#linear-gradient-3)"/>
      <path id="Trazado_192195" data-name="Trazado 192195" d="M96.443,330.184c.083.563,1.118,9.112,1.518,12.427a1.643,1.643,0,0,0,1.385,1.483,17.3,17.3,0,0,0,5.184-.08,2.232,2.232,0,0,0,1.691-2.24v-13.42Z" fill="url(#linear-gradient-4)"/>
      <path id="Trazado_192196" data-name="Trazado 192196" d="M90.389,174.169s18.2,69.17,17.871,156.213a3.37,3.37,0,0,1-2.673,3.284,39.257,39.257,0,0,1-8.437.976,3.125,3.125,0,0,1-2.979-2.61c-2.553-14.966-17.2-99.278-25.543-112.966,0,0-5.49,75.092-3.735,114.05a1.846,1.846,0,0,1-1.629,1.92,31,31,0,0,1-6.773-.018,2.471,2.471,0,0,1-2.2-2.1c-1.818-12.666-12.281-88.06-11.836-142.372.025-3.062,8.1-16.379,8.1-16.379Z" fill="url(#linear-gradient-5)"/>
      <path id="Trazado_192197" data-name="Trazado 192197" d="M102.925,68.151c-25.049-3.622-52.564-.3-65.918,1.384a17.62,17.62,0,0,0-11.128,5.974c-11.3,13.077-36.1,48.879-6.91,84.955,3.735-2.073,9.042-5.4,12.647-9.245-3.229-9.1-3.493-20.734,3.274-35a33.339,33.339,0,0,0,.864,3.351,207.562,207.562,0,0,1,9.8,59.8,1.871,1.871,0,0,0,1.174,1.749c12.275,4.919,35.9,1.991,43.836.809a2.666,2.666,0,0,0,2.231-3.027c-2.79-20.215,6.684-49.775,14.217-69.179C109.993,102.06,104.484,70.3,102.925,68.151Z" fill="#5038a1"/>
      <path id="Trazado_192198" data-name="Trazado 192198" d="M63,38.769,59.543,67.356a2.672,2.672,0,0,0,1.9,2.89c3.753,1.1,11.789,2.76,19.132-.262a3.124,3.124,0,0,0,1.843-3.554L78.041,46.309Z" fill="url(#linear-gradient-6)"/>
      <g id="Grupo_134798" data-name="Grupo 134798">
        <path id="Trazado_192199" data-name="Trazado 192199" d="M85.422,18.451c.216.394,4.844,29.747,4.844,29.747L73.45,50.484,64.93,23.316S81.808,11.851,85.422,18.451Z" fill="url(#linear-gradient-7)"/>
        <path id="Trazado_192200" data-name="Trazado 192200" d="M71.162,26.019a2.442,2.442,0,0,0-.489,2.093L73.99,42.553a2.355,2.355,0,0,0,.236.624c.6,1.084,2.794,4.381,6.111,1.943,2.827-2.077,5.454-3.948,7.741-4.328a2.436,2.436,0,0,1,2.792,2.047A90.969,90.969,0,0,1,92,56.221a2.425,2.425,0,0,1-2.263,2.392A67.546,67.546,0,0,1,74.5,58.144,2.438,2.438,0,0,1,72.608,56.5c-1.231-3.764-4.723-14.3-6.166-17.125-1.341-2.622-5.246-3.069-7.051-3.132a2.451,2.451,0,0,1-1.773-.845c-1.346-1.554-3.451-5.016.606-8.4a2.44,2.44,0,0,0,.308-3.385c-1.469-1.839-2.746-4.807.4-7.916,3.188-3.147,6.792-2.35,9.077-1.285A2.533,2.533,0,0,0,71,13.831a1.61,1.61,0,0,1,1.5-.553,2.367,2.367,0,0,0,2.681-2.05A6.244,6.244,0,0,1,80.707,5.5C88.1,4.1,91.764,11.5,91.618,16.7s-8.248,6.266-12.84,5.39C75.4,21.446,72.478,24.4,71.162,26.019Z"/>
        <path id="Trazado_192201" data-name="Trazado 192201" d="M67.72,44.7s-.133-9.066-3.8-9.928-7.633,1.78-4.51,7.217C63.294,48.748,67.72,44.7,67.72,44.7Z" fill="url(#linear-gradient-8)"/>
      </g>
      <path id="Trazado_192202" data-name="Trazado 192202" d="M33.652,114.011C28.7,100.472,30.5,84.122,30.518,83.958l1.363.156c-.018.161-1.775,16.2,3.06,29.426Z" fill="#8c6df2"/>
      <path id="Trazado_192203" data-name="Trazado 192203" d="M67.959,217.3a.686.686,0,0,1-.663-.514c-1.509-5.821-12.812-12.219-12.926-12.283a.686.686,0,0,1,.672-1.2c.486.273,11.927,6.749,13.582,13.135a.686.686,0,0,1-.665.859Z" fill="url(#linear-gradient-9)"/>
      <path id="Trazado_192204" data-name="Trazado 192204" d="M31.616,151.219c-3.6,3.848-8.912,7.172-12.647,9.245,5.578,6.895,13.125,13.8,23.116,20.556l1.208,2.712a6.746,6.746,0,0,0,5.84,3.986c13.963.665,17.827-2.3,4.973-11.262C54.106,176.456,37.667,168.275,31.616,151.219Z" fill="url(#linear-gradient-10)"/>
      <path id="Trazado_192205" data-name="Trazado 192205" d="M134.278,90.623s-17.619,18.317-21.69,24.961.46,18.746,9.708,15.937S142.309,96.93,142.309,96.93Z" fill="url(#linear-gradient-11)"/>
      <g id="Grupo_134801" data-name="Grupo 134801">
        <path id="Trazado_192206" data-name="Trazado 192206" d="M104.786,64.609s15.484,40.836,20.375,49.331c5.679,9.861,22.263,3.577,21.438-4.676S126.4,66.9,126.4,66.9Z" fill="url(#linear-gradient-12)"/>
        <path id="Trazado_192207" data-name="Trazado 192207" d="M117.5,45.407,177.744,24.52l-.633,56.524L115.855,67.376Z" fill="#fdb74d"/>
        <path id="Trazado_192208" data-name="Trazado 192208" d="M183.719,52.946c0,16.042-2.65,29.048-5.919,29.048s-5.918-13.006-5.918-29.048S174.532,23.9,177.8,23.9,183.719,36.9,183.719,52.946Z" fill="url(#linear-gradient-13)"/>
        <path id="Trazado_192209" data-name="Trazado 192209" d="M178.25,80.007c-.535-.544-1.7-2.643-2.7-8.07a110.816,110.816,0,0,1-1.5-19.155,110.82,110.82,0,0,1,1.5-19.156c1-5.427,2.165-7.526,2.7-8.07.535.544,1.7,2.643,2.7,8.07a110.722,110.722,0,0,1,1.5,19.156,110.718,110.718,0,0,1-1.5,19.155C179.95,77.364,178.785,79.463,178.25,80.007Z" fill="#ed9a2e"/>
        <g id="Grupo_134800" data-name="Grupo 134800">
          <g id="Grupo_134799" data-name="Grupo 134799" clip-path="url(#clip-path-2)">
            <path id="Trazado_192210" data-name="Trazado 192210" d="M185.836,52.565c0,4.936-2.659,8.937-7.921,8.937s-9.529-4-9.529-8.937,4.266-8.936,9.529-8.936S185.836,47.63,185.836,52.565Z" fill="url(#linear-gradient-14)"/>
          </g>
        </g>
        <path id="Trazado_192212" data-name="Trazado 192212" d="M107.785,44.192a33.737,33.737,0,0,1,11.292.559,60.273,60.273,0,0,0,.445,23.6H107.129a4.017,4.017,0,0,1-3.969-3.387c-.618-3.912-1.373-10.488-.568-15.768A5.943,5.943,0,0,1,107.785,44.192Z" fill="url(#linear-gradient-15)"/>
        <path id="Trazado_192213" data-name="Trazado 192213" d="M115.223,50.127h-9.656a1.024,1.024,0,0,1-.86-1.581.393.393,0,1,1,.659.427.24.24,0,0,0,.2.37h9.656a.241.241,0,0,0,.24-.24v-.687a.24.24,0,0,0-.24-.24H105.5a.393.393,0,0,1,0-.785h9.728a1.026,1.026,0,0,1,1.024,1.025V49.1A1.025,1.025,0,0,1,115.223,50.127Z" fill="url(#linear-gradient-16)"/>
        <path id="Trazado_192214" data-name="Trazado 192214" d="M114.362,54.4h-9.656a1.023,1.023,0,0,1-.86-1.58.392.392,0,1,1,.659.426.239.239,0,0,0,.2.37h9.656a.241.241,0,0,0,.24-.24v-.687a.241.241,0,0,0-.24-.24h-9.728a.392.392,0,1,1,0-.784h9.728a1.025,1.025,0,0,1,1.024,1.024v.687A1.025,1.025,0,0,1,114.362,54.4Z" fill="url(#linear-gradient-17)"/>
        <path id="Trazado_192215" data-name="Trazado 192215" d="M126.255,44.021a.392.392,0,0,1-.119-.766l45.627-14.519a.392.392,0,1,1,.238.747L126.374,44A.414.414,0,0,1,126.255,44.021Z" fill="url(#linear-gradient-17)"/>
        <path id="Trazado_192216" data-name="Trazado 192216" d="M120.085,46.543a.392.392,0,0,1-.149-.755l2.349-.96a.392.392,0,0,1,.3.726l-2.348.96A.386.386,0,0,1,120.085,46.543Z" fill="url(#linear-gradient-19)"/>
        <path id="Trazado_192217" data-name="Trazado 192217" d="M115.223,59.412h-9.656a1.024,1.024,0,0,1-.86-1.581.392.392,0,1,1,.659.426.239.239,0,0,0,.2.37h9.656a.24.24,0,0,0,.24-.24V57.7a.241.241,0,0,0-.24-.24H105.5a.392.392,0,1,1,0-.784h9.728a1.025,1.025,0,0,1,1.024,1.024v.687A1.026,1.026,0,0,1,115.223,59.412Z" fill="url(#linear-gradient-20)"/>
        <path id="Trazado_192218" data-name="Trazado 192218" d="M116.127,64.971h-9.656a1.024,1.024,0,0,1-.86-1.581.392.392,0,1,1,.659.425.238.238,0,0,0-.01.246.235.235,0,0,0,.211.125h9.656a.241.241,0,0,0,.24-.24v-.687a.241.241,0,0,0-.24-.24H106.4a.392.392,0,0,1,0-.784h9.728a1.025,1.025,0,0,1,1.024,1.024v.687A1.026,1.026,0,0,1,116.127,64.971Z" fill="url(#linear-gradient-20)"/>
        <path id="Trazado_192219" data-name="Trazado 192219" d="M137.289,114.4a10.352,10.352,0,0,1-2.2-.238,10.156,10.156,0,0,1-7.166-5.8L115.6,80.978a.627.627,0,1,1,1.143-.514l12.323,27.377a8.91,8.91,0,0,0,6.29,5.093,8.732,8.732,0,0,0,7.679-1.962c.116-.1.231-.205.347-.31a.626.626,0,1,1,.846.924c-.124.113-.246.222-.368.329A9.936,9.936,0,0,1,137.289,114.4Z" fill="url(#linear-gradient-17)"/>
        <path id="Trazado_192220" data-name="Trazado 192220" d="M114.354,77.3a.627.627,0,0,1-.572-.37l-1.375-3.054a.627.627,0,1,1,1.143-.514l1.375,3.054a.627.627,0,0,1-.571.884Z" fill="url(#linear-gradient-23)"/>
        <path id="Trazado_192221" data-name="Trazado 192221" d="M184.425,52.452a.393.393,0,0,1-.391-.364,6.888,6.888,0,0,0-2.431-5.252c-2.5-1.926-6.108-1.267-6.144-1.259a.393.393,0,0,1-.148-.771c.161-.031,3.978-.736,6.765,1.4a7.63,7.63,0,0,1,2.74,5.821.391.391,0,0,1-.363.419Z" fill="url(#linear-gradient-17)"/>
      </g>
      <path id="Trazado_192222" data-name="Trazado 192222" d="M127.607,80.094s5.02-4.261,8.943,0,4.7,11.7,3.9,12.061S115.395,86.5,127.607,80.094Z" fill="url(#linear-gradient-10)"/>
    </g>
  </g>
</svg>
